<?xml version="1.0" standalone="no"?>
<!DOCTYPE svg PUBLIC "-//W3C//DTD SVG 1.1//EN" "http://www.w3.org/Graphics/SVG/1.1/DTD/svg11.dtd" >
<svg xmlns="http://www.w3.org/2000/svg" xmlns:xlink="http://www.w3.org/1999/xlink" version="1.1">
<metadata>
Created by FontForge 20201107 at Sun Mar 28 15:48:11 2021
 By 
Copyright (c) Paul James Miller, 2017.  All rights reserved.
</metadata>
<defs>
<font id="Bainsley-BoldItalic" horiz-adv-x="1575" >
  <font-face 
    font-family="Bainsley"
    font-weight="700"
    font-style="italic"
    font-stretch="normal"
    units-per-em="2048"
    panose-1="2 11 6 3 2 2 2 9 0 4"
    ascent="1638"
    descent="-410"
    x-height="856"
    cap-height="1333"
    bbox="-988 -638 2742 1966"
    underline-thickness="70"
    underline-position="-335"
    slope="-12"
    unicode-range="U+0020-FB17"
  />
<missing-glyph horiz-adv-x="1531" 
d="M1434 -10h-1344v1454h1344v-1454zM1364 60v1314h-1204v-1314h1204zM1244 763h-81v114h-190v65l183 294h88v-287h53v-72h-53v-114zM1163 949v163l-100 -163h100zM770 752q-78 0 -121 64t-43 181t43 181.5t121 64.5q77 0 120 -64.5t43 -181.5t-43 -181t-120 -64zM770 828
q75 0 75 169q0 170 -75 170q-76 0 -76 -170q0 -169 76 -169zM504 763h-81v114h-190v65l183 294h88v-287h53v-72h-53v-114zM423 949v163l-100 -163h100zM467 266h-152q-66 0 -66 71v255h205l-14 -56h-125v-77h118v-56h-118v-52q0 -29 23 -29h116zM1201 266h-64v203l53 12
l5 -26q18 22 55 22q25 0 47 -19l-26 -56q-19 17 -34 17q-22 0 -36 -18v-135zM769 266h-64v203l54 12l5 -26q18 22 55 22q25 0 47 -19l-27 -56q-19 17 -33 17q-22 0 -37 -18v-135zM579 266h-64v203l54 12l5 -26q17 22 54 22q26 0 47 -19l-26 -56q-19 17 -34 17q-22 0 -36 -18
v-135zM987 262q-31 0 -56.5 13.5t-40 38t-14.5 55.5q0 33 15.5 59t43 40.5t60.5 14.5q32 0 57 -14t39.5 -38.5t14.5 -54.5q0 -34 -15.5 -59.5t-42 -40t-61.5 -14.5zM994 315q15 0 24.5 7.5t14.5 20t5 28.5q0 18 -6.5 31.5t-17.5 20t-25 6.5q-15 0 -24.5 -7t-15 -19.5
t-5.5 -28.5q0 -19 7 -32t18 -20t25 -7z" />
    <glyph glyph-name="ff" unicode="ff" horiz-adv-x="1520" 
d="M1042 841q111 635 524 635q124 0 210 -72q-41 -162 -131 -162q-23 0 -64.5 25t-74.5 25q-167 0 -221 -281l-29 -171l305 8q-41 -176 -187 -176l-148 7l-125 -680q-86 -481 -416 -481q-111 0 -170 60q37 160 113 160q16 0 44 -18t56 -18q108 0 150 235l135 745l-534 7
l-128 -730q-86 -481 -416 -481q-111 0 -170 60q37 160 113 160q16 0 44 -18t56 -18q108 0 150 235l139 793l-159 7q30 135 184 139q111 600 524 600q124 0 210 -72q-41 -162 -131 -162q-23 0 -64.5 25t-74.5 25q-167 0 -221 -281l-27 -132z" />
    <glyph glyph-name="fi" unicode="fi" horiz-adv-x="1322" 
d="M1043 196q0 -44 32 -44q35 0 90 39q-30 -205 -205 -205q-144 0 -144 136q0 56 114 558q8 34 8 80q0 41 -11 71q62 43 131 43q103 0 103 -77q0 -27 -6 -55q-2 -9 -57 -259t-55 -287zM867 1213q-48 59 -111 59q-167 0 -221 -281l-29 -151l305 8q-41 -176 -187 -176l-148 7
l-125 -700q-86 -481 -416 -481q-111 0 -170 60q37 160 113 160q16 0 44 -18t56 -18q108 0 150 235l138 773l-159 7q30 135 184 139q112 620 525 620q109 0 200 -46q-115 -77 -149 -197zM1088 1040q-66 0 -103 47q-27 34 -27 78q0 86 75 148q57 47 123 47q67 0 103 -47
q27 -34 27 -78q0 -86 -75 -148q-57 -47 -123 -47z" />
    <glyph glyph-name="ffi" unicode="ffi" horiz-adv-x="2072" 
d="M1793 196q0 -44 32 -44q35 0 90 39q-30 -205 -205 -205q-144 0 -144 136q0 56 114 558q8 34 8 80q0 41 -11 71q62 43 131 43q103 0 103 -77q0 -27 -6 -55q-2 -9 -57 -259t-55 -287zM1622 1225q-53 67 -116 67q-167 0 -221 -281l-29 -171l305 8q-41 -176 -187 -176l-148 7
l-125 -680q-86 -481 -416 -481q-111 0 -170 60q37 160 113 160q16 0 44 -18t56 -18q108 0 150 235l135 745l-534 7l-128 -730q-86 -481 -416 -481q-111 0 -170 60q37 160 113 160q16 0 44 -18t56 -18q108 0 150 235l139 793l-159 7q30 135 184 139q111 600 524 600
q124 0 210 -72q-41 -162 -131 -162q-23 0 -64.5 25t-74.5 25q-167 0 -221 -281l-27 -132l534 2q111 638 524 638q119 0 203 -67q-115 -72 -147 -187zM1838 1040q-66 0 -103 47q-27 34 -27 78q0 86 75 148q57 47 123 47q67 0 103 -47q27 -34 27 -78q0 -86 -75 -148
q-57 -47 -123 -47z" />
    <glyph glyph-name="Dogs_Bollocks" unicode="&#x3a;&#x2d;" horiz-adv-x="1158" 
d="M1052 353h-636q39 173 134 173h636q-39 -173 -134 -173zM312 586q-66 0 -103 47q-27 34 -27 78q0 86 75 148q57 47 123 47q67 0 103 -47q27 -34 27 -78q0 -86 -75 -148q-57 -47 -123 -47zM180 -38q-66 0 -103 47q-27 34 -27 78q0 86 75 148q57 47 123 47q67 0 103 -47
q27 -34 27 -78q0 -86 -75 -148q-57 -47 -123 -47z" />
    <glyph glyph-name="fb_lig" unicode="fb" horiz-adv-x="1839" 
d="M1238 162q132 0 212 132t80 265q0 121 -91 121q-102 0 -215 -127t-113 -265q0 -126 127 -126zM1197 705q176 172 357 172q102 0 153 -56q63 -67 63 -195q0 -223 -177.5 -431.5t-421.5 -208.5q-140 0 -209.5 71t-69.5 170q0 74 214 1031q12 54 12 102q0 41 -11 71
q62 43 133 43q107 0 107 -77q0 -22 -6 -49q-5 -23 -144 -643zM-36 -502q-111 0 -170 60q37 160 113 160q16 0 44 -18t56 -18q108 0 150 235l138 773l-159 7q30 135 184 139q112 620 525 620q124 0 210 -72q-41 -162 -131 -162q-23 0 -64.5 25t-74.5 25q-167 0 -221 -281
l-29 -151l305 8q-41 -176 -187 -176l-148 7l-125 -700q-86 -481 -416 -481z" />
    <glyph glyph-name="fh_lig" unicode="fh" horiz-adv-x="1909" 
d="M-36 -502q-111 0 -170 60q37 160 113 160q16 0 44 -18t56 -18q108 0 150 235l138 773l-159 7q30 135 184 139q112 620 525 620q124 0 210 -72q-41 -162 -131 -162q-23 0 -64.5 25t-74.5 25q-167 0 -221 -281l-29 -151l305 8q-41 -176 -187 -176l-148 7l-125 -700
q-86 -481 -416 -481zM1221 662q185 215 375 215q86 0 135 -48t49 -126q0 -79 -58 -270.5t-58 -236.5q0 -44 37 -44q30 0 86 39q-30 -205 -205 -205q-141 0 -141 129q0 52 57 252t57 254q0 69 -63 69q-115 0 -237 -195.5t-179 -494.5h-213q258 1164 284 1280q8 34 8 80
q0 41 -11 71q62 43 131 43q103 0 103 -77q0 -27 -4 -49t-153 -686z" />
    <glyph glyph-name="fk_lig" unicode="fk" horiz-adv-x="1848" 
d="M-36 -502q-111 0 -170 60q37 160 113 160q16 0 44 -18t56 -18q108 0 150 235l138 773l-159 7q30 135 184 139q112 620 525 620q124 0 210 -72q-41 -162 -131 -162q-23 0 -64.5 25t-74.5 25q-167 0 -221 -281l-29 -151l305 8q-41 -176 -187 -176l-148 7l-125 -700
q-86 -481 -416 -481zM1156 451q309 419 519 419q88 0 165 -67q-212 -101 -364 -240l63 -291q23 -106 90 -106q49 0 122 45q-30 -225 -212 -225q-154 0 -190 239l-31 211q-180 -165 -250 -436h-201q119 612 271 1280q8 34 8 80q0 41 -11 71q62 43 131 43q103 0 103 -77
q0 -27 -5 -53q-2 -9 -66 -289t-142 -604z" />
    <glyph glyph-name="fl_lig" unicode="fl" horiz-adv-x="1390" 
d="M-36 -502q-111 0 -170 60q37 160 113 160q16 0 44 -18t56 -18q108 0 150 235l138 773l-159 7q30 135 184 139q112 620 525 620q124 0 210 -72q-41 -162 -131 -162q-23 0 -64.5 25t-74.5 25q-167 0 -221 -281l-29 -151l305 8q-41 -176 -187 -176l-148 7l-125 -700
q-86 -481 -416 -481zM1124 196q0 -44 32 -44q35 0 90 39q-30 -205 -205 -205q-144 0 -144 136q0 56 247 1158q8 34 8 80q0 41 -11 71q62 43 131 43q103 0 103 -77q0 -27 -6 -55q-2 -9 -123.5 -559t-121.5 -587z" />
    <glyph glyph-name="fj_lig" unicode="fj" horiz-adv-x="1337" 
d="M1013 670q8 34 8 80q0 41 -11 71q62 53 151 53q93 0 93 -77q0 -27 -6 -55q-2 -8 -143 -660q-101 -468 -465 -573q-66 23 -66 76q0 55 125.5 142t206.5 462zM927 1206q-89 66 -142 66q-167 0 -221 -281l-29 -151l305 8q-41 -176 -187 -176l-148 7l-125 -700
q-86 -481 -416 -481q-111 0 -170 60q37 160 113 160q16 0 44 -18t56 -18q108 0 150 235l138 773l-159 7q30 135 184 139q112 620 525 620q121 0 205 -68q-95 -73 -123 -182zM1150 1040q-66 0 -103 47q-27 34 -27 78q0 86 75 148q57 47 123 47q67 0 103 -47q27 -34 27 -78
q0 -86 -75 -148q-57 -47 -123 -47z" />
    <glyph glyph-name="AHK" unicode="&#x3a;&#x3d;" horiz-adv-x="1335" 
d="M272 586q-66 0 -103 47q-27 34 -27 78q0 86 75 148q57 47 123 47q67 0 103 -47q27 -34 27 -78q0 -86 -75 -148q-57 -47 -123 -47zM140 -38q-66 0 -103 47q-27 34 -27 78q0 86 75 148q57 47 123 47q67 0 103 -47q27 -34 27 -78q0 -86 -75 -148q-57 -47 -123 -47zM1186 498
h-732q37 173 141 173h733q-37 -173 -142 -173zM1123 198h-733q38 175 142 175h733q-38 -175 -142 -175z" />
    <glyph glyph-name=".notdef" horiz-adv-x="1531" 
d="M1434 -10h-1344v1454h1344v-1454zM1364 60v1314h-1204v-1314h1204zM1244 763h-81v114h-190v65l183 294h88v-287h53v-72h-53v-114zM1163 949v163l-100 -163h100zM770 752q-78 0 -121 64t-43 181t43 181.5t121 64.5q77 0 120 -64.5t43 -181.5t-43 -181t-120 -64zM770 828
q75 0 75 169q0 170 -75 170q-76 0 -76 -170q0 -169 76 -169zM504 763h-81v114h-190v65l183 294h88v-287h53v-72h-53v-114zM423 949v163l-100 -163h100zM467 266h-152q-66 0 -66 71v255h205l-14 -56h-125v-77h118v-56h-118v-52q0 -29 23 -29h116zM1201 266h-64v203l53 12
l5 -26q18 22 55 22q25 0 47 -19l-26 -56q-19 17 -34 17q-22 0 -36 -18v-135zM769 266h-64v203l54 12l5 -26q18 22 55 22q25 0 47 -19l-27 -56q-19 17 -33 17q-22 0 -37 -18v-135zM579 266h-64v203l54 12l5 -26q17 22 54 22q26 0 47 -19l-26 -56q-19 17 -34 17q-22 0 -36 -18
v-135zM987 262q-31 0 -56.5 13.5t-40 38t-14.5 55.5q0 33 15.5 59t43 40.5t60.5 14.5q32 0 57 -14t39.5 -38.5t14.5 -54.5q0 -34 -15.5 -59.5t-42 -40t-61.5 -14.5zM994 315q15 0 24.5 7.5t14.5 20t5 28.5q0 18 -6.5 31.5t-17.5 20t-25 6.5q-15 0 -24.5 -7t-15 -19.5
t-5.5 -28.5q0 -19 7 -32t18 -20t25 -7z" />
    <glyph glyph-name=".null" horiz-adv-x="0" 
 />
    <glyph glyph-name="nonmarkingreturn" horiz-adv-x="682" 
 />
    <glyph glyph-name="space" unicode=" " horiz-adv-x="555" 
 />
    <glyph glyph-name="exclam" unicode="!" horiz-adv-x="528" 
d="M138 -31q-63 0 -98 44q-25 32 -25 73q0 83 71 142q53 44 117 44q62 0 97 -44q26 -33 26 -75q0 -80 -71 -139q-54 -45 -117 -45zM253 379h-51q-7 81 -7 162q0 173 31 346l60 338q30 169 155 169q101 0 101 -91q0 -22 -20 -100l-80 -316q-61 -254 -189 -508z" />
    <glyph glyph-name="quotedbl" unicode="&#x22;" horiz-adv-x="540" 
d="M413 834l53 405q19 145 253 145l-114 -397q-44 -153 -192 -153zM93 834l53 405q19 145 253 145l-114 -397q-44 -153 -192 -153z" />
    <glyph glyph-name="numbersign" unicode="#" horiz-adv-x="1393" 
d="M664 -40h-169l220 434h-272l-220 -434h-169l220 434h-224l32 149h268l124 245h-340l32 150h384l218 431h170l-219 -431h272l219 431h169l-219 -431h218l-32 -150h-261l-125 -245h334l-32 -149h-378zM791 543l125 245h-273l-124 -245h272z" />
    <glyph glyph-name="dollar" unicode="$" horiz-adv-x="1066" 
d="M525 840l58 280q-119 -49 -119 -149q0 -76 61 -131zM544 204q135 45 135 168q0 68 -71 132zM438 -295h-156l59 279q-229 8 -366 121q117 212 188 212q44 0 86 -47.5t138 -71.5l82 393q-252 135 -252 334q0 121 97 245.5t314 160.5l61 289h156l-59 -280q189 -6 314 -84
q-104 -198 -165 -198q-39 0 -75.5 32.5t-118.5 40.5l-78 -364q274 -154 274 -343q0 -136 -105 -266t-333 -165z" />
    <glyph glyph-name="percent" unicode="%" horiz-adv-x="1246" 
d="M352 904q54 0 100.5 66t46.5 164q0 88 -67 88q-62 0 -105.5 -71.5t-43.5 -154.5q0 -92 69 -92zM318 783q-112 0 -159 75q-32 50 -32 118q0 124 96 243t241 119q108 0 155 -65q36 -50 36 -120q0 -143 -102 -256.5t-235 -113.5zM152 -130h-183l1160 1600h183zM832 104
q54 0 100.5 66t46.5 164q0 88 -67 88q-62 0 -105.5 -71.5t-43.5 -154.5q0 -92 69 -92zM798 -17q-112 0 -159 75q-32 50 -32 118q0 124 96 243t241 119q108 0 155 -65q36 -50 36 -120q0 -143 -102 -256.5t-235 -113.5z" />
    <glyph glyph-name="ampersand" unicode="&#x26;" horiz-adv-x="1330" 
d="M973 -23q-23 39 -94 133q-178 -133 -439 -133q-223 0 -324 105q-74 78 -74 190q0 269 323 469q-54 94 -54 189q0 176 141 298t360 122q160 0 341 -100q-99 -206 -154 -206q-52 0 -109.5 65t-150.5 65q-212 0 -212 -203q0 -120 204 -341l134 -145q14 73 14 144
q0 102 -29 198l34 29h453q-57 -189 -187 -189h-89q2 -32 2 -63q0 -145 -40 -282l165 -182zM488 147q192 0 281 105q-144 182 -307 360q-6 7 -13 13q-177 -151 -177 -313q0 -66 42.5 -115.5t173.5 -49.5z" />
    <glyph glyph-name="quotesingle" unicode="'" horiz-adv-x="222" 
d="M100 834l53 405q19 145 253 145l-114 -397q-44 -153 -192 -153z" />
    <glyph glyph-name="parenleft" unicode="(" horiz-adv-x="624" 
d="M552 -395q-245 0 -317 124t-116 355q-19 98 -19 205q0 143 34 302q60 283 201.5 510.5t260 323t363.5 95.5q-235 -188 -389.5 -423t-211.5 -515q-35 -173 -35 -313q0 -122 38.5 -299.5t190.5 -364.5z" />
    <glyph glyph-name="parenright" unicode=")" horiz-adv-x="636" 
d="M-321 -395q237 193 390 434.5t212 521.5q32 147 32 291q0 107 -29 284t-198 384q234 0 310.5 -124t116.5 -352q16 -92 16 -193q0 -150 -36 -320q-58 -275 -191.5 -501t-261 -325.5t-361.5 -99.5z" />
    <glyph glyph-name="asterisk" unicode="*" horiz-adv-x="788" 
d="M436 753h-58q-53 0 -53 17q0 19 33 109q24 67 50 162q-89 -56 -153 -100q-111 -78 -124 -78q-15 0 -30 34l-21 51q-12 29 -12 44q0 20 138 76q66 27 171 79q-82 50 -138 76q-109 53 -109 69q0 11 32 50l43 52q29 35 44 35t91 -77q46 -46 111 -101q14 96 17.5 164
t11.5 107q4 21 62 21h57q53 0 53 -17q0 -20 -33 -110q-26 -68 -51 -164q90 57 153 101q112 78 125 78q16 0 30 -34l25 -60q9 -20 9 -33l-1 -7q-4 -19 -140 -71q-66 -26 -170 -78q83 -52 139 -78q109 -51 109 -69q0 -11 -25 -41l-50 -60q-28 -35 -44 -35q-13 0 -92 77
q-45 44 -111 99q-13 -94 -16 -161t-12 -106q-4 -21 -61 -21z" />
    <glyph glyph-name="plus" unicode="+" horiz-adv-x="841" 
d="M534 616l-69 -325q-170 20 -170 95l49 230h-306q56 170 132 170h210l70 326q169 -20 169 -96l-49 -230h305q-56 -170 -131 -170h-210z" />
    <glyph glyph-name="comma" unicode="," horiz-adv-x="383" 
d="M-6 -316q-53 32 -53 60q0 33 76 89q68 50 103 140q-13 -3 -27 -3q-66 0 -104 45q-27 33 -27 76q0 80 74 139q56 45 122 45q65 0 102 -45q28 -33 28 -90q0 -30 -8 -66q-51 -241 -286 -390z" />
    <glyph glyph-name="hyphenminus" unicode="-" horiz-adv-x="764" 
d="M623 443h-636q39 173 134 173h636q-39 -173 -134 -173z" />
    <glyph glyph-name="period" unicode="." horiz-adv-x="369" 
d="M90 -41q-66 0 -103 47q-27 34 -27 78q0 86 75 148q57 47 123 47q67 0 103 -47q27 -34 27 -78q0 -86 -75 -148q-57 -47 -123 -47z" />
    <glyph glyph-name="slash" unicode="/" horiz-adv-x="756" 
d="M-15 -299h-210l1081 1819h210z" />
    <glyph glyph-name="zero" unicode="0" horiz-adv-x="1094" 
d="M445 -14q-166 0 -264 125q-68 87 -68 209q0 53 13 112q41 196 191.5 320.5t316.5 124.5q163 0 261 -125q69 -87 69 -211q0 -51 -12 -109q-42 -196 -193 -321t-314 -125zM477 144q175 0 235 288q15 66 15 128q0 148 -130 148q-175 0 -233 -276q-16 -72 -16 -137
q0 -151 129 -151z" />
    <glyph glyph-name="one" unicode="1" horiz-adv-x="729" 
d="M452 0h-229l131 615q-99 -76 -176 -76t-77 81q0 24 7 56q181 40 324 180h202z" />
    <glyph glyph-name="two" unicode="2" horiz-adv-x="889" 
d="M592 0h-574l-11 124q466 253 503 427q4 20 4 37q0 87 -113 87q-118 0 -198 -98q-54 40 -54 98q0 85 112 150q94 55 237 55q174 0 234 -85q45 -63 45 -136q0 -26 -6 -53q-46 -214 -405 -422q179 0 409 30l-50 -130q-33 -84 -133 -84z" />
    <glyph glyph-name="three" unicode="3" horiz-adv-x="811" 
d="M-20 -383q-80 0 -80 62q0 12 3 27q7 35 24 52q488 103 488 321q0 42 -27 81t-123 39q-52 0 -126 -23q-26 41 -26 70q0 82 177 133q159 45 186 172q5 24 5 45q0 93 -114 93q-111 0 -205 -103q-75 43 -75 89q0 69 118 142q103 63 251 63q147 0 220 -76q54 -57 54 -138
q0 -171 -217 -306q163 -56 163 -210q0 -301 -464 -475q-154 -58 -232 -58z" />
    <glyph glyph-name="four" unicode="4" horiz-adv-x="1010" 
d="M437 -399l96 455l-424 2q-99 0 -99 62q0 43 46 125q212 372 620 585q69 36 136 36q76 0 76 -79q0 -22 -6 -51l-108 -499q150 0 150 -125q0 -27 -7 -59h-182l-68 -317q-25 -118 -230 -135zM260 225l309 4l82 383q-258 -140 -391 -387z" />
    <glyph glyph-name="five" unicode="5" horiz-adv-x="794" 
d="M-5 -399q-26 22 -26 56q0 11 2 22q17 78 226.5 172t241.5 241q5 23 5 45q0 182 -363 211l117 370q38 120 191 130l439 31l-33 -112q-28 -91 -232 -102l-150 -8q-53 -3 -67 -45l-31 -94q369 -46 369 -302q0 -44 -11 -93q-82 -385 -678 -522z" />
    <glyph glyph-name="six" unicode="6" horiz-adv-x="1058" 
d="M394 -10q-202 0 -288 138q-55 86 -55 213q0 74 19 162q122 575 963 870q-37 -175 -145 -233q-498 -269 -570 -608q-20 -96 -20 -165q0 -79 38 -141t131 -62q91 0 152.5 66t87.5 189q8 35 8 65q0 134 -135 134q-39 0 -108 -17q27 129 90 167t151 38q128 0 198 -96
q47 -63 47 -156q0 -47 -12 -101q-40 -189 -191.5 -326t-360.5 -137z" />
    <glyph glyph-name="seven" unicode="7" horiz-adv-x="821" 
d="M129 -402q-146 0 -146 107q0 21 5 45q80 378 601 924q-254 0 -524 -30l41 106q42 106 157 106h645q-551 -613 -723 -1255q-35 -3 -56 -3z" />
    <glyph glyph-name="eight" unicode="8" horiz-adv-x="977" 
d="M369 -14q-171 0 -259 84q-68 63 -68 155q0 28 7 60q30 137 129 207q67 47 124 47q51 0 84 -38q-120 -105 -120 -219q0 -53 41.5 -91t122.5 -38q168 0 200 152q4 18 4 35q0 133 -217 248q-207 109 -207 280q0 32 7 66q31 146 157.5 240t308.5 94q160 0 237 -76
q58 -56 58 -140q0 -29 -7 -61q-25 -119 -128 -189q-62 -43 -115 -43q-46 0 -74 31q94 95 94 194q0 116 -132 116q-154 0 -183 -139q-4 -16 -4 -32q0 -128 227 -231q212 -98 212 -281q0 -36 -8 -75q-32 -151 -168 -253.5t-323 -102.5z" />
    <glyph glyph-name="nine" unicode="9" horiz-adv-x="1030" 
d="M33 -440q42 195 147 245q436 209 504 531q24 113 24 188q0 184 -152 184q-175 0 -222 -221q-12 -55 -12 -97q0 -147 139 -147q38 0 108 16q-21 -97 -75.5 -141.5t-161.5 -44.5q-139 0 -209 91q-48 62 -48 154q0 45 11 96q44 206 199 335.5t344 129.5q201 0 277 -157
q37 -77 37 -184q0 -79 -20 -173q-120 -564 -890 -805z" />
    <glyph glyph-name="colon" unicode=":" horiz-adv-x="508" 
d="M272 586q-66 0 -103 47q-27 34 -27 78q0 86 75 148q57 47 123 47q67 0 103 -47q27 -34 27 -78q0 -86 -75 -148q-57 -47 -123 -47zM140 -38q-66 0 -103 47q-27 34 -27 78q0 86 75 148q57 47 123 47q67 0 103 -47q27 -34 27 -78q0 -86 -75 -148q-57 -47 -123 -47z" />
    <glyph glyph-name="semicolon" unicode=";" horiz-adv-x="523" 
d="M282 587q-66 0 -103 47q-27 34 -27 78q0 86 75 148q57 47 123 47q67 0 103 -47q27 -34 27 -78q0 -86 -75 -148q-57 -47 -123 -47zM45 -316q-53 32 -53 60q0 33 76 89q68 50 103 140q-13 -3 -27 -3q-66 0 -104 45q-27 33 -27 76q0 80 74 139q56 45 122 45q65 0 102 -45
q28 -33 28 -90q0 -30 -8 -66q-51 -241 -286 -390z" />
    <glyph glyph-name="less" unicode="&#x3c;" horiz-adv-x="979" 
d="M800 180l-741 393l45 214l907 386l-46 -213l-695 -290l570 -297z" />
    <glyph glyph-name="equal" unicode="=" horiz-adv-x="995" 
d="M846 772h-732q37 173 141 173h733q-37 -173 -142 -173zM783 472h-733q38 175 142 175h733q-38 -175 -142 -175z" />
    <glyph glyph-name="greater" unicode="&#x3e;" horiz-adv-x="988" 
d="M23 180l46 213l688 297l-563 290l40 193l743 -386l-45 -214z" />
    <glyph glyph-name="question" unicode="?" horiz-adv-x="782" 
d="M168 -23q-63 0 -98 45q-26 32 -26 74q0 82 72 141q54 44 117 44t98 -45q25 -31 25 -73q0 -83 -71 -141q-54 -45 -117 -45zM258 370q-89 80 -89 150q0 12 2 23q24 112 220 215q233 121 233 306q0 136 -170 136q-143 0 -275 -93q-4 44 -4 77q0 34 4 56q13 60 98 109t251 49
q193 0 277 -101q60 -73 60 -174q0 -40 -10 -86q-47 -225 -290 -364t-307 -303z" />
    <glyph glyph-name="at" unicode="@" horiz-adv-x="1555" 
d="M696 -68q-317 0 -472 167q-125 134 -125 349q0 90 22 195q70 331 304.5 521t546.5 190q271 0 421 -171q114 -131 114 -317q0 -72 -17 -152q-45 -214 -164 -343.5t-284 -129.5q-87 0 -126 44q-80 -38 -173 -38q-173 0 -255 107q-56 73 -56 180q0 52 13 111
q34 160 164.5 266.5t323.5 106.5q141 0 275 -99q-88 -218 -125 -394q-5 -26 -5 -44q0 -50 38 -50q49 0 101.5 80t80.5 213q12 56 12 107q0 126 -88.5 235.5t-287.5 109.5q-226 0 -395.5 -139t-223.5 -394q-18 -83 -18 -154q0 -146 93.5 -263t352.5 -117q230 0 230 -114
q0 -13 -3 -28q-39 -12 -115 -23.5t-159 -11.5zM772 428q61 0 101 20q8 65 25 146q19 90 70 215q-44 28 -102 28q-79 0 -138 -53.5t-77 -140.5q-8 -39 -8 -72q0 -143 129 -143z" />
    <glyph glyph-name="A" unicode="A" horiz-adv-x="1287" 
d="M941 -10q-81 0 -98.5 10t-17.5 25l1 7q9 42 20.5 73t21.5 77q20 96 20 194v9h-598q-45 -102 -66 -203q-10 -46 -11.5 -77t-10.5 -73q-4 -20 -28.5 -31t-103.5 -11t-96.5 10t-17.5 25l1 7q9 42 20.5 73t21.5 77q123 581 691 1140q25 18 43 18h119q18 0 35 -18
q242 -409 242 -828q0 -155 -33 -312q-10 -46 -11.5 -77t-10.5 -73q-4 -20 -28.5 -31t-104.5 -11zM884 584q-10 237 -150 484q-245 -247 -356 -484h506z" />
    <glyph glyph-name="B" unicode="B" horiz-adv-x="1173" 
d="M614 801q86 0 142.5 47t73.5 126q5 21 5 41q0 140 -175 140q-92 0 -163 -23q-26 -166 -61 -331h178zM513 196q104 0 175 56t90 149q6 26 6 50q0 61 -47.5 110t-211.5 49h-127l-51 -238q-7 -32 -7 -58q0 -118 139 -118h34zM423 0h-119q-225 0 -225 201q0 47 12 105l91 428
q49 228 70 352.5t30 166.5q5 23 30 31q210 68 385 68q219 0 314 -96q73 -73 73 -173q0 -32 -8 -67q-38 -177 -214 -287q102 -42 148 -126q29 -53 29 -123q0 -41 -10 -87q-37 -170 -204.5 -281.5t-401.5 -111.5z" />
    <glyph glyph-name="C" unicode="C" horiz-adv-x="1307" 
d="M645 -14q-324 0 -476 184q-108 130 -108 316q0 77 18 163q67 314 324 513.5t547 199.5q260 0 418 -164q-120 -148 -212 -148q-33 0 -88 62t-203 62q-169 0 -312.5 -128.5t-190.5 -351.5q-17 -78 -17 -146q0 -138 86 -258t278 -120q151 0 278 86q39 26 67 26
q86 0 115 -147q-238 -149 -524 -149z" />
    <glyph glyph-name="D" unicode="D" horiz-adv-x="1399" 
d="M486 199q215 0 364.5 123.5t196.5 345.5q14 65 14 124q0 128 -80.5 246t-290.5 120q-97 0 -178 -32q-31 -180 -75 -389l-79 -370q-6 -30 -6 -55q0 -113 134 -113zM414 0h-102q-233 0 -233 194q0 41 11 92q141 663 165 801q22 126 31 168q4 22 38 33q178 60 383 60
q234 0 388.5 -83.5t215.5 -230.5q38 -91 38 -195q0 -65 -15 -134q-40 -186 -173.5 -350.5t-332 -259.5t-414.5 -95z" />
    <glyph glyph-name="E" unicode="E" horiz-adv-x="1090" 
d="M902 0h-595q-230 0 -230 193q0 42 11 93l102 483q49 228 71 355.5t31 169.5q4 20 28.5 31t89.5 11h717l-88 -227q-169 20 -531 20q-29 -165 -68 -350q335 0 468 20l-90 -231q-86 10 -421 10l-41 -194q-7 -33 -7 -60q0 -118 135 -118q291 0 425 20z" />
    <glyph glyph-name="F" unicode="F" horiz-adv-x="975" 
d="M160 -16q-86 0 -106 11q-16 9 -16 23q0 15 41 176q32 126 80 354q93 433 118 579q21 122 30 164q5 20 29 31t90 11h709l-86 -222q-171 20 -533 20q-29 -167 -69 -357q336 0 468 20l-88 -226q-86 10 -422 10q-48 -219 -77 -384l-30 -168q-5 -20 -28.5 -31t-109.5 -11z" />
    <glyph glyph-name="G" unicode="G" horiz-adv-x="1424" 
d="M699 -14q-227 0 -385 83q-251 130 -251 419q0 73 17 155q72 341 341 535q260 188 563 188q272 0 434 -163q-92 -172 -166 -172q-39 0 -71 28t-61 49q-95 66 -229 66q-112 0 -222 -56.5t-195 -171.5t-118 -268q-11 -53 -11 -104q0 -77 33.5 -174t145 -163t251.5 -66
q122 0 214 33l33 153q6 26 6 48q0 97 -115 97h-136q38 181 198 181h75q216 0 216 -195q0 -47 -12 -105l-54 -258q-7 -32 -40 -46q-214 -93 -461 -93z" />
    <glyph glyph-name="H" unicode="H" horiz-adv-x="1525" 
d="M1075 -16q-81 0 -106 11q-21 9 -21 25q0 14 42 174q33 126 81 354l7 30h-664q-43 -184 -75 -384q-21 -126 -29 -168q-5 -20 -33.5 -31t-111.5 -11q-81 0 -106 11q-21 9 -21 25q0 14 42 174q33 126 81 354q94 435 118 582q21 126 30 168q4 20 33.5 31t110.5 11
q83 0 105.5 -10t22.5 -26q0 -11 -43 -174q-33 -125 -81 -349h664q48 224 68.5 349.5t29.5 167.5q4 20 33.5 31t110.5 11q83 0 105.5 -10t22.5 -26q0 -12 -43 -174q-34 -126 -82 -354q-94 -437 -117 -582q-21 -126 -29 -168q-5 -20 -33.5 -31t-111.5 -11z" />
    <glyph glyph-name="I" unicode="I" horiz-adv-x="615" 
d="M161 -16q-81 0 -106 11q-21 9 -21 25q0 14 42 174q38 145 130 582q49 228 69.5 354t29.5 168q4 20 33.5 31t110.5 11q83 0 105.5 -10t22.5 -26q0 -11 -43 -174q-38 -145 -130 -582q-49 -228 -69.5 -354t-29.5 -168q-4 -20 -33 -31t-111 -11z" />
    <glyph glyph-name="J" unicode="J" horiz-adv-x="627" 
d="M-234 -431q-31 29 -31 63q0 69 130 132q162 79 220 353l140 659q48 228 70 354t31 168q4 20 48.5 31t110.5 11q67 0 84.5 -10t17.5 -25q0 -11 -42 -175q-32 -126 -80 -354l-142 -669q-97 -457 -557 -538z" />
    <glyph glyph-name="K" unicode="K" horiz-adv-x="1224" 
d="M866 -16q-72 0 -96 11q-19 9 -19 31l1 10q9 76 9 144q0 400 -256 400h-94q-55 -260 -77 -386t-30 -168q-5 -20 -28.5 -31t-120.5 -11q-86 0 -106 11q-16 9 -16 23q0 15 41 176q32 126 104.5 468t94.5 468t31 168q4 20 28.5 31t110.5 11q97 0 114.5 -10t17.5 -25
q0 -11 -42 -175q-32 -126 -79 -350h24q76 0 207 106t286 390q24 42 58.5 53t106.5 11q82 0 103 -11q13 -6 13 -19q0 -31 -132 -247q-124 -203 -319 -328q90 -39 131 -115q86 -158 86 -354q0 -200 -4 -220q-9 -40 -37 -51t-111 -11z" />
    <glyph glyph-name="L" unicode="L" horiz-adv-x="1076" 
d="M783 0h-478q-232 0 -232 179q0 35 9 77l111 520q48 228 70 354t31 168q4 20 28.5 31t119.5 11q87 0 104.5 -10t17.5 -25q0 -11 -42 -175q-32 -126 -80 -354l-81 -382q-7 -33 -7 -60q0 -118 136 -118q334 0 491 20l-49 -130q-41 -106 -149 -106z" />
    <glyph glyph-name="M" unicode="M" horiz-adv-x="1799" 
d="M1416 -16q-96 0 -116 12q-15 9 -15 25l1 9q100 471 132 961q-272 -342 -563 -892q-18 -33 -59 -33h-71q-41 0 -44 33q-28 517 -180 882q-153 -488 -251 -951q-5 -22 -27.5 -33.5t-114.5 -11.5q-62 0 -78.5 10.5t-16.5 26.5l1 8q136 636 387 1309h132q100 0 132 -66
q162 -330 192 -806q218 423 530 806q52 66 144 66h133v-57q0 -643 -129 -1252q-5 -23 -29.5 -34.5t-89.5 -11.5z" />
    <glyph glyph-name="N" unicode="N" horiz-adv-x="1589" 
d="M1137 -16q-86 0 -136 37t-85 143q-176 532 -431 828q-27 -111 -62 -276q-83 -385 -101 -522q-17 -126 -25 -168q-5 -20 -28.5 -31t-110.5 -11q-86 0 -106 11q-16 9 -16 23q0 15 41 176q32 126 80 354q93 431 119 582q22 126 31 168q4 20 28.5 31t105.5 11q82 0 132 -30.5
t105 -113.5q263 -393 422 -810q20 84 51 232q77 360 104 512q22 126 31 168q4 20 28.5 31t110.5 11q87 0 104.5 -10t17.5 -25q0 -11 -42 -175q-32 -126 -80 -354q-93 -431 -119 -582l-30 -168q-5 -20 -28.5 -31t-110.5 -11z" />
    <glyph glyph-name="O" unicode="O" horiz-adv-x="1577" 
d="M613 -18q-197 0 -330.5 90.5t-187.5 241.5q-32 87 -32 187q0 73 17 152q43 201 174.5 359.5t313 247t377.5 88.5q198 0 333 -89t189 -243q32 -89 32 -189q0 -73 -17 -152q-43 -201 -174.5 -356t-314.5 -246t-380 -91zM698 166q179 0 315.5 124.5t180.5 333.5
q19 89 19 164q0 133 -74 252.5t-277 119.5q-180 0 -316.5 -124.5t-180.5 -333.5q-19 -88 -19 -164q0 -133 75 -252.5t277 -119.5z" />
    <glyph glyph-name="P" unicode="P" horiz-adv-x="1193" 
d="M154 -16q-81 0 -101 11q-16 9 -16 23q0 15 41 176q32 126 100 445t89.5 445t30.5 168q5 22 30 31q181 66 420 66q176 0 281 -51q176 -86 176 -260q0 -40 -9 -84q-52 -243 -244.5 -375t-386.5 -132q-57 0 -106 11q45 195 193 195q239 0 292 250q5 24 5 48q0 195 -251 195
q-102 0 -172 -18q-30 -170 -98 -489t-90 -445t-30 -168q-5 -20 -28.5 -31t-125.5 -11z" />
    <glyph glyph-name="Q" unicode="Q" horiz-adv-x="1581" 
d="M697 166q47 0 91 9l-41 82q-63 122 -124 122q30 81 177 81q100 0 147 -93l48 -93l19 17q136 124 181 333q18 88 18 164q0 133 -74 252.5t-277 119.5q-179 0 -315.5 -124.5t-181.5 -333.5q-19 -88 -19 -164q0 -133 75 -252.5t276 -119.5zM1093 -230q-100 0 -147 94
l-80 157q-123 -39 -253 -39q-197 0 -330 90.5t-188 241.5q-32 87 -32 187q0 73 17 152q43 201 174.5 359.5t313.5 247t377 88.5q199 0 333.5 -89t188.5 -243q31 -88 31 -188q0 -73 -17 -153q-42 -201 -173 -356q-101 -120 -234 -201l74 -145q64 -122 124 -122
q-32 -81 -179 -81z" />
    <glyph glyph-name="R" unicode="R" horiz-adv-x="1231" 
d="M873 -16q-91 0 -110 11t-20 26l-13 294q-6 161 -215 198l-57 10q77 188 222 188q57 0 138.5 50t106.5 167q6 28 6 54q0 62 -45 112.5t-204 50.5q-79 0 -168 -21q-30 -170 -97.5 -487t-89.5 -443t-30 -168q-5 -20 -28.5 -31t-110.5 -11q-86 0 -106 11q-16 9 -16 23
q0 15 41 176q32 126 99.5 443t89 443t30.5 168q5 22 30 31q194 70 408 70q258 0 367 -104q82 -77 82 -195q0 -41 -10 -87q-61 -285 -330 -398q139 -53 154 -269q20 -237 20 -266q0 -22 -28 -35q-24 -11 -116 -11z" />
    <glyph glyph-name="S" unicode="S" horiz-adv-x="1057" 
d="M349 -14q-260 0 -388 122q44 207 142 207q51 0 123.5 -62t177.5 -62q207 0 239 151q3 14 3 27q0 125 -241 240q-222 105 -222 298q0 39 9 82q36 167 192 262t334 95q195 0 334 -84q-43 -202 -143 -202q-42 0 -100.5 38.5t-161.5 38.5q-187 0 -218 -143q-2 -10 -2 -20
q0 -111 249 -231q229 -110 229 -303q0 -37 -9 -78q-41 -194 -188 -285t-359 -91z" />
    <glyph glyph-name="T" unicode="T" horiz-adv-x="1115" 
d="M478 -16q-96 0 -116 11q-16 9 -16 23q0 15 41 176q32 126 80 354l125 584h-165q-164 0 -310 -46l46 123q46 123 200 123h814q148 0 148 -114l-6 -132q-132 46 -300 46h-167l-125 -584q-48 -228 -70 -354t-30 -168q-5 -20 -28.5 -31t-120.5 -11z" />
    <glyph glyph-name="U" unicode="U" horiz-adv-x="1444" 
d="M564 -14q-160 0 -273 65.5t-158 187.5q-23 63 -23 146q0 77 20 172q91 426 117 573q21 126 30 168q4 20 30 31t116 11t111 -11q17 -9 17 -25q0 -10 -42 -174q-21 -83 -120 -538q-15 -70 -15 -128q0 -110 67 -197t208 -87q136 0 248.5 97t150.5 278q98 460 117 575
q21 126 30 168q5 20 30.5 31t101.5 11q75 0 94.5 -10t19.5 -26q0 -11 -42 -174q-33 -126 -81 -354l-39 -184q-42 -198 -144.5 -330t-251.5 -204t-319 -72z" />
    <glyph glyph-name="V" unicode="V" horiz-adv-x="1337" 
d="M566 -20h-79q-31 0 -52 21q-275 306 -275 758q0 178 43 379q10 46 12.5 82t11.5 78q4 20 28.5 31t109.5 11q86 0 103.5 -10t17.5 -25q0 -21 -22 -85q-13 -36 -23 -82q-40 -187 -40 -346q0 -339 181 -550q398 310 523 896q10 46 12.5 82t11.5 78q4 20 28.5 31t113.5 11
t106.5 -10t17.5 -25q0 -21 -22 -85q-13 -36 -23 -82q-143 -671 -723 -1135q-31 -23 -61 -23z" />
    <glyph glyph-name="W" unicode="W" horiz-adv-x="1938" 
d="M1173 -20h-43q-40 0 -66 34q-97 125 -178 294q-132 -169 -281 -294q-41 -34 -81 -34h-43q-39 0 -67 34q-256 316 -256 752q0 176 42 372q9 46 11.5 82t11.5 78q4 20 30.5 31t108.5 11t101.5 -10t19.5 -25l-1 -7q-9 -42 -22 -78t-23 -82q-41 -193 -41 -358
q0 -329 161 -548q160 101 260 284q-16 101 -16 211q0 191 47 411q10 46 12.5 82t10.5 78q5 20 31.5 31t113.5 11t106.5 -10t19.5 -26q0 -21 -23 -84q-13 -36 -23 -82q-46 -217 -46 -393q0 -325 156 -513q371 280 505 906q9 46 11.5 82t11.5 78q4 20 30.5 31t106.5 11
q81 0 100.5 -10t19.5 -26q0 -21 -23 -84q-13 -36 -23 -82q-145 -681 -691 -1124q-41 -34 -81 -34z" />
    <glyph glyph-name="X" unicode="X" horiz-adv-x="1293" 
d="M920 -16q-87 0 -107.5 8.5t-20.5 22.5q0 17 17 55q28 64 28 139q0 185 -210 346q-342 -192 -390 -418q-9 -40 -9 -63v-14q0 -13 -5 -39q-4 -19 -29 -28t-107 -9t-102.5 8.5t-20.5 22.5q0 18 18 55q10 23 19 67q67 316 471 529q-249 175 -249 418q0 54 12 111q6 26 6 46
v10q0 20 6 48q4 20 30 30.5t107 10.5q80 0 99.5 -9.5t19.5 -25.5l-1 -6q-7 -32 -17 -53q-24 -50 -24 -122q0 -186 213 -347q324 191 372 418q6 26 6 46v10q0 20 6 48q4 20 29.5 30.5t111.5 10.5t105.5 -9.5t19.5 -25.5l-1 -6q-7 -32 -17 -53t-16 -51q-67 -316 -461 -529
q258 -175 258 -421q0 -52 -12 -108q-9 -40 -9 -63v-14q0 -13 -5 -39q-4 -19 -29 -28t-112 -9z" />
    <glyph glyph-name="Y" unicode="Y" horiz-adv-x="1168" 
d="M456 -16q-85 0 -105 11q-16 9 -16 23q0 18 31 126q12 45 68 298q-275 170 -275 495q0 93 22 198q15 71 15.5 96t9.5 67q4 20 28.5 31t109.5 11t102.5 -10t17.5 -25l-1 -7q-9 -42 -19.5 -67t-20.5 -74q-21 -97 -21 -178q0 -247 190 -355q315 143 398 533q10 49 10.5 74
t9.5 67q4 20 28.5 31t108.5 11t101.5 -10t17.5 -25l-1 -7q-9 -42 -19.5 -67t-25.5 -96q-101 -475 -549 -693q-43 -194 -58 -298q-12 -76 -20 -118q-5 -20 -28.5 -31t-108.5 -11z" />
    <glyph glyph-name="Z" unicode="Z" horiz-adv-x="1203" 
d="M834 0h-895q31 147 141 296q321 436 854 847q-555 0 -758 -36l39 113q39 113 179 113h910q-27 -129 -184 -260q-531 -441 -840 -883q571 0 778 26l-38 -108q-38 -108 -186 -108z" />
    <glyph glyph-name="bracketleft" unicode="[" horiz-adv-x="805" 
d="M408 -395h-333q-157 0 -157 140q0 32 8 72l319 1501q47 221 251 221h323l-39 -183h-195q-115 0 -139 -114q-289 -1358 -289 -1375q0 -79 95 -79h195z" />
    <glyph glyph-name="backslash" unicode="\" horiz-adv-x="905" 
d="M712 -299h-197l-306 1819h199z" />
    <glyph glyph-name="bracketright" unicode="]" horiz-adv-x="732" 
d="M215 -395h-334l39 183h195q115 0 139 115q289 1358 289 1375q0 78 -95 78h-195l39 183h324q165 0 165 -146q0 -33 -9 -75l-319 -1501q-45 -212 -238 -212z" />
    <glyph glyph-name="asciicircum" unicode="^" horiz-adv-x="1243" 
d="M1126 594q-182 0 -203 71l-146 496l-358 -496q-51 -71 -250 -71l572 790h149z" />
    <glyph glyph-name="underscore" unicode="_" horiz-adv-x="1024" 
d="M868 -256h-1063l23 102h1063z" />
    <glyph glyph-name="grave" unicode="`" horiz-adv-x="641" 
d="M480 1233q-137 0 -258 142l-120 142l11 34q237 0 307 -140l71 -140z" />
    <glyph glyph-name="a" unicode="a" horiz-adv-x="1103" 
d="M795 -14q-133 0 -133 123q0 29 6 81q-162 -204 -369 -204q-133 0 -190 92q-39 64 -39 151q0 291 203 465t470 174q131 0 239 -62q-126 -531 -126 -592q0 -62 37 -62q31 0 86 39q-30 -205 -184 -205zM387 170q109 0 215.5 134t145.5 390q-42 20 -96 20q-131 0 -241 -131.5
t-110 -276.5q0 -136 86 -136z" />
    <glyph glyph-name="b" unicode="b" horiz-adv-x="1058" 
d="M457 162q132 0 212 132t80 265q0 121 -91 121q-102 0 -215 -127t-113 -265q0 -126 127 -126zM416 705q176 172 357 172q102 0 153 -56q63 -67 63 -195q0 -223 -177.5 -431.5t-421.5 -208.5q-140 0 -209.5 71t-69.5 170q0 74 214 1031q12 54 12 102q0 41 -11 71
q62 43 133 43q107 0 107 -77q0 -22 -6 -49q-5 -23 -144 -643z" />
    <glyph glyph-name="c" unicode="c" horiz-adv-x="841" 
d="M376 -14q-166 0 -248 117q-58 83 -58 194q0 184 154.5 382.5t371.5 198.5q174 0 239 -112q-71 -150 -120 -150q-20 0 -61 41t-104 41q-103 0 -179.5 -112t-76.5 -240q0 -187 137 -187q90 0 175 57q27 18 47 18q44 0 58 -103q-159 -145 -335 -145z" />
    <glyph glyph-name="d" unicode="d" horiz-adv-x="1138" 
d="M392 170q99 0 195.5 122t130.5 277l28 126q-47 26 -115 26q-138 0 -236.5 -115t-98.5 -290q0 -146 96 -146zM851 214q0 -62 47 -62q31 0 86 39q-40 -205 -204 -205q-123 0 -123 123q0 49 6 81q-142 -204 -339 -204q-123 0 -186 78t-63 215q0 251 168.5 416t382.5 165
q80 0 146 -29l99 447q8 36 8 82q0 41 -11 71q62 43 131 43q103 0 103 -74q0 -27 -6 -55q-245 -1080 -245 -1131z" />
    <glyph glyph-name="e" unicode="e" horiz-adv-x="933" 
d="M541 530.5q135 48.5 135 125.5q0 67 -76 67q-137 0 -221 -136.5t-84 -281.5q0 -64 32 -105.5t122 -41.5q72 0 134.5 21.5t94.5 21.5q67 0 67 -105q-161 -110 -348 -110q-179 0 -267 110q-60 77 -60 190q0 219 169 405t418 186q218 0 218 -200q0 -255 -469 -332
q0 137 135 185.5z" />
    <glyph glyph-name="f" unicode="f" horiz-adv-x="801" 
d="M-36 -502q-111 0 -170 60q37 160 113 160q16 0 44 -18t56 -18q108 0 150 235l138 773l-159 7q30 135 184 139q112 620 525 620q124 0 210 -72q-41 -162 -131 -162q-23 0 -64.5 25t-74.5 25q-167 0 -221 -281l-29 -151l305 8q-41 -176 -187 -176l-148 7l-125 -700
q-86 -481 -416 -481z" />
    <glyph glyph-name="g" unicode="g" horiz-adv-x="1067" 
d="M417 162q121 0 267 224l63 241q-47 89 -138 89q-92 0 -172 -83t-109 -216q-12 -58 -12 -98q0 -157 101 -157zM653 169q-162 -182 -339 -182q-218 0 -218 297q0 57 13 121q28 132 102.5 237.5t175 166t205.5 60.5q138 0 195 -115q22 103 127 103q77 0 108 -52
q-47 -101 -71 -212l-140 -677q-84 -406 -464 -406q-161 0 -262 64t-101 155q0 120 149 162q70 -213 218 -213q187 0 240 226z" />
    <glyph glyph-name="h" unicode="h" horiz-adv-x="1124" 
d="M436 662q185 215 375 215q86 0 135 -48t49 -126q0 -79 -58 -270.5t-58 -236.5q0 -44 37 -44q30 0 86 39q-30 -205 -205 -205q-141 0 -141 129q0 52 57 252t57 254q0 69 -63 69q-115 0 -237 -195.5t-179 -494.5h-213q258 1164 284 1280q8 34 8 80q0 41 -11 71
q62 43 131 43q103 0 103 -77q0 -27 -4 -49t-153 -686z" />
    <glyph glyph-name="i" unicode="i" horiz-adv-x="541" 
d="M323 1040q-66 0 -103 47q-27 34 -27 78q0 86 75 148q57 47 123 47q67 0 103 -47q27 -34 27 -78q0 -86 -75 -148q-57 -47 -123 -47zM308 196q0 -44 32 -44q35 0 90 39q-30 -205 -205 -205q-144 0 -144 136q0 56 114 558q8 34 8 80q0 41 -11 71q62 43 131 43q103 0 103 -77
q0 -27 -6 -55q-2 -9 -57 -259t-55 -287z" />
    <glyph glyph-name="j" unicode="j" horiz-adv-x="597" 
d="M410 1040q-66 0 -103 47q-27 34 -27 78q0 86 75 148q57 47 123 47q67 0 103 -47q27 -34 27 -78q0 -86 -75 -148q-57 -47 -123 -47zM293 660q8 34 8 80q0 41 -21 81q62 53 151 53q93 0 93 -77q0 -27 -6 -55q-2 -8 -143 -660q-101 -468 -465 -573q-66 23 -66 76
q0 55 130.5 142t211.5 452z" />
    <glyph glyph-name="k" unicode="k" horiz-adv-x="1069" 
d="M377 451q309 419 519 419q88 0 165 -67q-212 -101 -364 -240l63 -291q23 -106 90 -106q49 0 122 45q-30 -225 -212 -225q-154 0 -190 239l-31 211q-180 -165 -250 -436h-201q119 612 271 1280q8 34 8 80q0 41 -11 71q62 43 131 43q103 0 103 -77q0 -27 -5 -53
q-2 -9 -66 -289t-142 -604z" />
    <glyph glyph-name="l" unicode="l" horiz-adv-x="600" 
d="M334 196q0 -44 32 -44q35 0 90 39q-30 -205 -205 -205q-144 0 -144 136q0 56 247 1158q8 34 8 80q0 41 -11 71q62 43 131 43q103 0 103 -77q0 -27 -6 -55q-2 -9 -123.5 -559t-121.5 -587z" />
    <glyph glyph-name="m" unicode="m" horiz-adv-x="1649" 
d="M413 648h1q171 229 368 229q162 0 162 -187q0 -17 -3 -53q93 121 191 180.5t188 59.5q202 0 202 -187q0 -77 -56 -248t-56 -231q0 -59 37 -59q31 0 86 39q-30 -205 -194 -205q-151 0 -151 129q0 72 53.5 251t53.5 251q0 73 -65 73q-94 0 -209.5 -177t-191.5 -513h-209
q118 492 118 612q0 78 -59 78q-100 0 -215.5 -192.5t-177.5 -462.5l-8 -35h-207q144 661 150 689q8 36 8 81q0 41 -11 71q62 43 121 43q103 0 103 -77q0 -27 -6 -55z" />
    <glyph glyph-name="n" unicode="n" horiz-adv-x="1109" 
d="M792 877q194 0 194 -174q0 -69 -58 -260.5t-58 -241.5q0 -49 37 -49q30 0 86 39q-30 -205 -195 -205q-151 0 -151 129q0 72 57 252t57 254q0 69 -63 69q-115 0 -237 -192q-111 -174 -179 -498h-211q144 661 150 689q8 36 8 81q0 41 -11 71q62 43 121 43q103 0 103 -77
q0 -27 -6 -55l-23 -104h1q194 229 378 229z" />
    <glyph glyph-name="o" unicode="o" horiz-adv-x="985" 
d="M369 -14q-176 0 -249 115q-50 80 -50 187q0 199 154 390.5t385 191.5q170 0 244 -103q55 -77 55 -188q0 -230 -163 -411.5t-376 -181.5zM425 158q95 0 175 112t80 277q0 158 -124 158q-108 0 -182.5 -122t-74.5 -261q0 -164 126 -164z" />
    <glyph glyph-name="p" unicode="p" horiz-adv-x="1089" 
d="M503 162q122 0 207 117t85 280q0 121 -91 121q-112 0 -220 -127t-108 -265q0 -126 127 -126zM248 680q8 34 8 80q0 41 -11 71q62 43 131 43q84 0 84 -77q0 -27 -6 -55l-15 -67q169 198 350 198q226 0 226 -257q0 -243 -167.5 -436.5t-371.5 -193.5q-118 0 -172 46
l-98 -439q-14 -63 -120 -84l-106 -22z" />
    <glyph glyph-name="q" unicode="q" horiz-adv-x="1070" 
d="M387 170q109 0 215.5 134t145.5 390q-42 20 -96 20q-131 0 -241 -131.5t-110 -276.5q0 -136 86 -136zM299 -14q-133 0 -190 92q-39 64 -39 151q0 291 203 465t470 174q131 0 239 -62q-79 -365 -109 -505l-105 -500q85 44 166 44q83 0 83 -103q-188 -16 -314 -245
l-195 -35l153 706q-141 -182 -362 -182z" />
    <glyph glyph-name="r" unicode="r" horiz-adv-x="893" 
d="M419 640l-1 -3q163 240 332 240q97 0 162 -64q0 -193 -105 -193q-28 0 -67.5 25t-75.5 25q-102 0 -204 -177t-167 -450l-10 -43h-209q131 590 152 680q8 34 8 80q0 41 -11 71q62 43 131 43q93 0 93 -77q0 -27 -6 -55q-1 -6 -22 -102z" />
    <glyph glyph-name="s" unicode="s" horiz-adv-x="788" 
d="M301 -14q-161 0 -274 102q32 128 105 128q36 0 89.5 -29t112.5 -29q109 0 109 95q0 71 -132 144.5t-132 204.5q0 118 91 196.5t240 78.5q125 0 240 -68q-23 -144 -85 -144q-31 0 -76.5 24t-105.5 24q-109 0 -109 -83q0 -63 138 -141t138 -197q0 -132 -100 -219t-249 -87z
" />
    <glyph glyph-name="t" unicode="t" horiz-adv-x="780" 
d="M353 -14q-91 0 -143.5 50.5t-52.5 147.5q0 41 11 90l102 421l-150 2q33 135 182 139l44 144q43 143 189 184l49 13l-71 -335l279 6q-51 -161 -182 -161l-131 3l-92 -391q-8 -39 -8 -66q0 -71 53 -71q50 0 96 34t86 34t58 -78q-126 -166 -319 -166z" />
    <glyph glyph-name="u" unicode="u" horiz-adv-x="1084" 
d="M321 248q0 -76 73 -76q115 0 219.5 196t156.5 478l202 20q-131 -639 -131 -676q0 -38 36 -38q31 0 86 39q-30 -205 -186 -205q-131 0 -131 135q0 33 12 86q-147 -221 -344 -221q-95 0 -154 52.5t-59 151.5q0 60 30.5 205t62.5 285q8 34 8 80q0 41 -11 71q62 43 131 43
q103 0 103 -77q0 -27 -6 -55q-2 -9 -50 -229.5t-48 -264.5z" />
    <glyph glyph-name="v" unicode="v" horiz-adv-x="1001" 
d="M326 242q0 -88 76 -88q95 0 196.5 95.5t101.5 312.5q0 164 -46 249q72 74 163 74q58 0 87 -64.5t29 -171.5q0 -274 -196.5 -468.5t-406.5 -194.5q-103 0 -165 58t-62 170q0 82 91 466q8 34 8 80q0 41 -11 71q62 43 131 43q107 0 107 -77q0 -27 -6 -55q-2 -7 -49.5 -227.5
t-47.5 -272.5z" />
    <glyph glyph-name="w" unicode="w" horiz-adv-x="1524" 
d="M314 264q0 -110 100 -110q197 0 267 405l49 283l230 24q-124 -563 -124 -614q0 -98 101 -98q107 0 192 106.5t85 293.5q0 176 -44 257q62 82 143 82q68 0 101.5 -61t33.5 -181q0 -275 -181.5 -470t-383.5 -195q-192 0 -229 145q-129 -145 -303 -145q-114 0 -184.5 57.5
t-70.5 184.5q0 44 11 94l81 358q8 34 8 80q0 41 -11 71q62 43 131 43q103 0 103 -77q0 -27 -6 -55q-1 -7 -50 -223.5t-49 -254.5z" />
    <glyph glyph-name="x" unicode="x" horiz-adv-x="995" 
d="M698 -14q-174 0 -244 280q-156 -280 -312 -280q-58 0 -155 45q229 181 417 403l-73 204q-27 75 -70 75q-30 0 -78 -23q-49 43 -49 86q0 101 179 101q166 0 237 -291q158 291 305 291q59 0 148 -50q-232 -181 -404 -403l70 -194q29 -80 71 -80q46 0 95 36q49 -43 49 -86
q0 -114 -186 -114z" />
    <glyph glyph-name="y" unicode="y" horiz-adv-x="1071" 
d="M209 680q8 34 8 80q0 41 -11 71q62 43 131 43q103 0 103 -77q0 -27 -6 -55q-9 -44 -54 -241t-45 -253q0 -76 93 -76q132 0 210 143.5t166 540.5h191l-196 -963q-40 -192 -163.5 -288.5t-281.5 -96.5q-128 0 -237.5 61.5t-109.5 151.5q0 89 136 158q85 -197 245 -197
q146 0 202 221l59 234q-128 -153 -309 -153q-105 0 -165.5 53.5t-60.5 132.5q0 75 41.5 265.5t53.5 244.5z" />
    <glyph glyph-name="z" unicode="z" horiz-adv-x="937" 
d="M587 -23q-100 0 -177.5 18.5t-164.5 18.5q-102 0 -177 -24h-15l-33 106l555 580q-212 0 -424 -18q37 198 148 198h552l27 -100l-543 -582q43 8 85 8q36 0 82.5 -10t96.5 -10q57 0 94.5 26.5t63.5 26.5q52 0 94 -49q-96 -189 -264 -189z" />
    <glyph glyph-name="braceleft" unicode="{" horiz-adv-x="915" 
d="M690 -395h-69q-180 0 -266 98q-58 67 -58 175q0 50 12 108l31 147q13 60 13 110q0 82 -45 154t-187 72h-19l40 188h19q291 0 362 336l31 146q40 188 168 284.5t306 96.5h69q-24 -114 -91 -121q-119 -13 -183 -93.5t-92 -213.5l-30 -142q-62 -292 -323 -389
q172 -74 172 -268q0 -55 -14 -119l-30 -142q-14 -65 -14 -118q0 -54 22 -115t127 -73q55 -6 55 -72q0 -21 -6 -49z" />
    <glyph glyph-name="bar" unicode="|" horiz-adv-x="727" 
d="M262 -227h-198l371 1747h198z" />
    <glyph glyph-name="braceright" unicode="}" horiz-adv-x="915" 
d="M-43 -395h-69q24 113 101 121q205 23 265 306l30 142q62 292 322 387q-171 76 -171 270q0 55 14 119l30 142q14 65 14 118q0 55 -22 115.5t-137 73.5q-46 5 -46 66q0 24 7 55h69q178 0 265 -96q60 -66 60 -176q0 -50 -13 -109l-31 -146q-14 -66 -14 -119q0 -217 234 -217
h19l-40 -188h-19q-142 0 -235.5 -89t-127.5 -247l-31 -147q-39 -185 -166.5 -283t-307.5 -98z" />
    <glyph glyph-name="asciitilde" unicode="~" horiz-adv-x="1386" 
d="M917 569q-82 0 -205 79t-210 79q-162 0 -334 -137q26 119 137.5 230.5t283.5 111.5q85 0 201 -79t207 -79q160 0 340 138q-24 -112 -141 -227.5t-279 -115.5z" />
    <glyph glyph-name="nonbreakingspace" unicode="&#xa0;" horiz-adv-x="555" 
 />
    <glyph glyph-name="exclamdown" unicode="&#xa1;" horiz-adv-x="567" 
d="M397 1276q63 0 98 -44q25 -32 25 -73q0 -83 -71 -141q-53 -45 -117 -45q-62 0 -97 44q-26 33 -26 75q0 80 71 140q54 44 117 44zM282 866h51q6 -81 6 -162q0 -173 -30 -346l-61 -344q-29 -163 -154 -163q-101 0 -101 91q0 22 21 104l79 312q61 254 189 508z" />
    <glyph glyph-name="cent" unicode="&#xa2;" horiz-adv-x="934" 
d="M417 181l109 516q-155 -37 -200 -255q-10 -45 -10 -83q0 -72 44 -132q22 -31 57 -46zM537 168q58 5 96 31q49 33 102 33q56 0 81 -93q-152 -123 -316 -147l-54 -253h-123l53 249q-162 12 -250 119q-71 86 -71 207q0 48 11 102q43 199 211 330q131 102 286 125l52 243h123
l-51 -238q166 -9 254 -112q-78 -134 -148 -134q-41 0 -83 38q-25 22 -60 31z" />
    <glyph glyph-name="sterling" unicode="&#xa3;" horiz-adv-x="988" 
d="M551 -27q-67 0 -159.5 38t-170.5 38q-98 0 -311 -62q44 205 172 273.5t164 236.5q9 42 9 71h-204q56 158 199 160q-6 28 -6 63q0 53 14 121q37 173 184 300.5t356 127.5q142 0 253 -81q-66 -148 -132 -148q-32 0 -80.5 20t-113.5 20q-188 0 -235 -220q-14 -68 -14 -123
q0 -42 8 -77l326 5q-57 -168 -207 -168h-125q-1 -11 -6 -36q-44 -206 -203 -309q51 12 90 12q55 0 120 -29.5t116 -29.5q64 0 123 28t103 28q59 0 65 -103q-197 -156 -335 -156z" />
    <glyph glyph-name="currency" unicode="&#xa4;" horiz-adv-x="1294" 
d="M1041 192l-167 212q-122 -69 -256 -69q-135 0 -227 70l-258 -213l-110 140l258 215q-28 65 -28 141q0 46 11 97q28 132 117 237l-166 216l170 140l167 -213q123 71 258 71q133 0 226 -70l257 212l112 -140l-259 -213q29 -68 29 -145q0 -46 -10 -95q-28 -133 -121 -241
l169 -212zM656 511q113 0 210.5 80t121.5 194q7 31 7 60q0 76 -54.5 145.5t-168.5 69.5q-113 0 -211 -80.5t-122 -194.5q-7 -31 -7 -60q0 -76 55 -145t169 -69z" />
    <glyph glyph-name="yen" unicode="&#xa5;" horiz-adv-x="1168" 
d="M456 -16q-85 0 -105 11q-16 9 -16 23q0 18 31 126q12 45 68 298q-275 170 -275 495q0 93 22 198q15 71 15.5 96t9.5 67q4 20 28.5 31t109.5 11t102.5 -10t17.5 -25l-1 -7q-9 -42 -19.5 -67t-20.5 -74q-21 -97 -21 -178q0 -247 190 -355q315 143 398 533q10 49 10.5 74
t9.5 67q4 20 28.5 31t108.5 11t101.5 -10t17.5 -25l-1 -7q-9 -42 -19.5 -67t-25.5 -96q-101 -475 -549 -693q-43 -194 -58 -298q-12 -76 -20 -118q-5 -20 -28.5 -31t-108.5 -11zM824 131h-746q20 160 106 160h745q-20 -160 -105 -160zM873 394h-746q20 160 106 160h745
q-20 -160 -105 -160z" />
    <glyph glyph-name="brokenbar" unicode="&#xa6;" horiz-adv-x="368" 
d="M340 800h-180l170 800h180zM106 -300h-180l170 800h180z" />
    <glyph glyph-name="section" unicode="&#xa7;" horiz-adv-x="1026" 
d="M344 -185q-214 0 -334 121q40 154 140 154q45 0 117.5 -52.5t144.5 -52.5q186 0 186 158q0 112 -196 221q-187 104 -187 258q0 215 246 318q-95 71 -95 204q0 143 126 255.5t315 112.5q161 0 295 -87q-41 -147 -123 -147q-50 0 -110.5 31t-126.5 31q-166 0 -166 -140
q0 -102 197 -219q184 -110 184 -262q0 -228 -232 -330q82 -71 82 -211q0 -146 -123.5 -254.5t-339.5 -108.5zM564 515q82 0 134 48.5t52 112.5q0 48 -40 91t-111 43q-81 0 -122 -34q-54 -46 -54 -106q0 -52 58.5 -103.5t82.5 -51.5z" />
    <glyph glyph-name="dieresis" unicode="&#xa8;" horiz-adv-x="763" 
d="M480 1202q-66 0 -103 47q-27 34 -27 78q0 86 75 148q57 47 123 47q67 0 103 -47q27 -34 27 -78q0 -86 -75 -148q-57 -47 -123 -47zM80 1202q-66 0 -103 47q-27 34 -27 78q0 86 75 148q57 47 123 47q67 0 103 -47q27 -34 27 -78q0 -86 -75 -148q-57 -47 -123 -47z" />
    <glyph glyph-name="copyright" unicode="&#xa9;" horiz-adv-x="1819" 
d="M814 137q-145 0 -241 57.5t-133 161.5q-21 58 -21 127q0 54 13 114q43 204 210.5 346t379.5 142q173 0 282 -110q-63 -116 -118 -116q-27 0 -77.5 45t-140.5 45q-132 0 -225 -84.5t-126 -242.5q-12 -57 -12 -105q0 -46 17 -104t78.5 -100.5t155.5 -42.5q111 0 194 66
q32 26 58 26q50 0 60 -121q-163 -104 -354 -104zM750 -197q-220 0 -382.5 107.5t-230.5 294.5q-39 109 -39 230q0 85 19 175q47 221 192 405.5t355 291t428 106.5q221 0 383 -106t229 -293q40 -111 40 -233q0 -83 -19 -171q-47 -221 -193.5 -408t-354.5 -293t-427 -106z
M777 -69q179 0 354.5 90.5t298.5 247.5t162 340q16 74 16 144q0 103 -45.5 228t-182 214.5t-315.5 89.5q-181 0 -356 -90.5t-298.5 -247.5t-161.5 -338q-16 -75 -16 -146q0 -101 44.5 -225t181 -215.5t318.5 -91.5z" />
    <glyph glyph-name="ordfeminine" unicode="&#xaa;" horiz-adv-x="744" 
d="M303 1022q63 0 126 79t85 228q-18 9 -50 9q-76 0 -140.5 -78t-64.5 -163q0 -75 44 -75zM552 893q-89 0 -89 84v22q-84 -106 -213 -106q-86 0 -123 60q-25 41 -25 97q0 181 126.5 289.5t291.5 108.5q82 0 155 -42q-78 -329 -78 -366q0 -29 15 -29q16 0 63 33
q-22 -151 -123 -151zM604 680h-554l32 152h554z" />
    <glyph glyph-name="guillemotleft" unicode="&#xab;" horiz-adv-x="913" 
d="M885 53h-191l-284 471l485 471h199l-492 -481zM535 53h-191l-284 471l485 471h199l-492 -481z" />
    <glyph glyph-name="logicalnot" unicode="&#xac;" horiz-adv-x="1011" 
d="M845 300h-157l56 265h-664l31 145h821z" />
    <glyph glyph-name="softhyphen" unicode="&#xad;" horiz-adv-x="764" 
d="M614 443h-636q39 173 134 173h636q-39 -173 -134 -173z" />
    <glyph glyph-name="registered" unicode="&#xae;" horiz-adv-x="1846" 
d="M1101 174q-44 0 -59 8.5t-15 26.5l-6 179q-3 119 -147 141l-48 8q30 120 139 120q52 0 102.5 40.5t63.5 105.5q3 13 3 25q0 111 -154 111q-62 0 -124 -10q-22 -122 -53 -269q-52 -238 -70 -341l-19 -108q-4 -19 -23.5 -28t-67.5 -9q-46 1 -60.5 9t-14.5 22q0 7 28 115
q20 81 63 284t57 284t20 108q4 21 26 29q114 40 258 40q169 0 236 -67q50 -50 50 -121q0 -25 -6 -52q-43 -203 -203 -244q88 -31 101 -194q12 -146 12 -171q0 -22 -23 -33q-20 -9 -66 -9zM752 -197q-220 0 -382.5 107.5t-230.5 294.5q-39 109 -39 230q0 85 19 175
q47 221 192 405.5t355 291t428 106.5q221 0 383 -106t229 -293q40 -111 40 -233q0 -83 -19 -171q-47 -221 -193.5 -408t-354.5 -293t-427 -106zM780 -68q179 0 354.5 90.5t298.5 247.5t162 340q16 74 16 143q0 103 -46 228.5t-182.5 215t-315.5 89.5q-181 0 -355.5 -90.5
t-298 -247.5t-161.5 -338q-16 -75 -16 -146q0 -101 44 -225t181 -215.5t319 -91.5z" />
    <glyph glyph-name="macron" unicode="&#xaf;" horiz-adv-x="686" 
d="M604 1280h-554l32 152h554z" />
    <glyph glyph-name="degree" unicode="&#xb0;" horiz-adv-x="678" 
d="M360 966q-112 0 -174 80q-46 57 -46 132q0 28 7 59q24 112 120.5 191.5t208.5 79.5q111 0 174 -80q46 -57 46 -132q0 -28 -7 -59q-24 -112 -120.5 -191.5t-208.5 -79.5zM385 1089q61 0 114 44q69 57 69 135q0 40 -30 77.5t-90 37.5q-61 0 -113 -43q-69 -58 -69 -136
q0 -40 29.5 -77.5t89.5 -37.5z" />
    <glyph glyph-name="plusminus" unicode="&#xb1;" horiz-adv-x="1050" 
d="M605 616l-69 -325q-170 20 -170 95l49 230h-306q56 170 132 170h210l70 326q169 -20 169 -96l-49 -230h305q-56 -170 -131 -170h-210zM679 6h-636q39 173 134 173h636q-39 -173 -134 -173z" />
    <glyph glyph-name="twosuperior" unicode="&#xb2;" horiz-adv-x="641" 
d="M423 792h-399l-8 87q425 338 461 505q5 24 5 43q0 78 -85 78q-106 0 -171 -110q-89 0 -89 60q0 79 114 136q96 48 201 48q119 0 168 -66q34 -45 34 -108q0 -240 -383 -530q133 0 305 14l-21 -68q-27 -89 -132 -89z" />
    <glyph glyph-name="threesuperior" unicode="&#xb3;" horiz-adv-x="639" 
d="M229 778q-81 0 -148 22q-63 21 -63 62q0 47 77 96q71 -44 156 -44q139 0 164 121q4 18 4 33q0 36 -27 64t-83 28t-56 46q0 9 3 18q12 61 63.5 61t97.5 31.5t58 90.5q3 14 3 27q0 75 -86 75q-80 0 -147 -66q-57 13 -57 60q0 67 86 105q70 31 176 31q68 0 116 -26
q79 -44 79 -140q0 -99 -64 -175q-44 -53 -95 -74q50 -21 79 -76q19 -35 19 -80q0 -25 -6 -54q-23 -106 -108 -171t-241 -65z" />
    <glyph glyph-name="acute" unicode="&#xb4;" horiz-adv-x="542" 
d="M83 1180l-11 38l76 140q75 140 302 140l11 -34l-125 -142q-126 -142 -253 -142z" />
    <glyph glyph-name="mu" unicode="&#xb5;" horiz-adv-x="1126" 
d="M66 -584q-101 0 -101 130q0 29 17 144.5t117 554.5t100 515q0 41 -11 71q62 43 131 43q103 0 103 -77q0 -27 -6 -55q-98 -441 -98 -494q0 -76 93 -76q125 0 234.5 196t161.5 478l202 20q-131 -639 -131 -676q0 -38 36 -38q31 0 86 39q-30 -205 -186 -205q-131 0 -131 135
q0 33 12 86q-157 -221 -304 -221q-91 0 -139 46q-53 -323 -53 -465q0 -58 9 -86q-61 -65 -142 -65z" />
    <glyph glyph-name="paragraph" unicode="&#xb6;" horiz-adv-x="1312" 
d="M786 -200l330 1550h-123l-303 -1423q-27 -127 -184 -127l187 879q-82 -43 -174 -43q-160 0 -247 118q-59 79 -59 194q0 243 208 418q159 134 369 134h651q-32 -150 -170 -150l-303 -1423q-27 -127 -182 -127z" />
    <glyph glyph-name="periodcentered" unicode="&#xb7;" horiz-adv-x="383" 
d="M160 525q-66 0 -103 47q-27 34 -27 78q0 86 75 148q57 47 123 47q67 0 103 -47q27 -34 27 -78q0 -86 -75 -148q-57 -47 -123 -47z" />
    <glyph glyph-name="cedilla" unicode="&#xb8;" horiz-adv-x="1063" 
d="M261 -474q-117 0 -209 53q23 107 95 107q29 0 64 -14.5t81 -14.5q124 0 124 90q0 66 -167 88l116 165h138l-58 -88q127 -21 127 -135q0 -101 -75.5 -176t-235.5 -75z" />
    <glyph glyph-name="onesuperior" unicode="&#xb9;" horiz-adv-x="641" 
d="M384 792h-163l133 623q-70 -48 -126 -48q-66 0 -66 71q0 20 6 50q163 47 297 142h98z" />
    <glyph glyph-name="ordmasculine" unicode="&#xba;" horiz-adv-x="686" 
d="M366 1004q54 0 100.5 66t46.5 164q0 88 -67 88q-62 0 -105.5 -71.5t-43.5 -154.5q0 -92 69 -92zM332 883q-112 0 -159 75q-32 50 -32 118q0 124 96 243t241 119q108 0 155 -65q36 -50 36 -120q0 -143 -102 -256.5t-235 -113.5zM604 680h-554l32 152h554z" />
    <glyph glyph-name="guillemotright" unicode="&#xbb;" horiz-adv-x="907" 
d="M501 53h-199l492 482l-283 460h191l284 -471zM156 53h-199l492 482l-283 460h191l284 -471z" />
    <glyph glyph-name="onequarter" unicode="&#xbc;" horiz-adv-x="1588" 
d="M484 792h-163l133 623q-70 -48 -126 -48q-66 0 -66 71q0 20 6 50q163 47 297 142h98zM290 -100h-183l1160 1600h183zM1285 322l67 317q-196 -124 -271 -317h204zM1288 -18q-48 0 -61 7.5t-13 20.5q0 9 17 67q15 53 25 108l-273 1q-75 0 -75 47l1 13q10 48 31 90
q138 294 446 482q37 23 86 23q56 0 56 -57q0 -14 -97 -461q88 0 88 -89q0 -20 -6 -51h-111q-14 -64 -21 -109q-5 -39 -10 -62q-3 -15 -19 -22.5t-64 -7.5z" />
    <glyph glyph-name="onehalf" unicode="&#xbd;" horiz-adv-x="1625" 
d="M484 792h-163l133 623q-70 -48 -126 -48q-66 0 -66 71q0 20 6 50q163 47 297 142h98zM190 -100h-183l1160 1600h183zM1313 -8h-399l-8 87q425 338 461 505q5 24 5 43q0 78 -85 78q-106 0 -171 -110q-89 0 -89 60q0 79 114 136q96 48 201 48q119 0 168 -66q34 -45 34 -108
q0 -240 -383 -530q133 0 305 14l-21 -68q-27 -89 -132 -89z" />
    <glyph glyph-name="threequarters" unicode="&#xbe;" horiz-adv-x="1642" 
d="M329 778q-81 0 -148 22q-63 21 -63 62q0 47 77 96q71 -44 156 -44q139 0 164 121q4 18 4 33q0 36 -27 64t-83 28t-56 46q0 9 3 18q12 61 63.5 61t97.5 31.5t58 90.5q3 14 3 27q0 75 -86 75q-80 0 -147 -66q-57 13 -57 60q0 67 86 105q70 31 176 31q68 0 116 -26
q79 -44 79 -140q0 -99 -64 -175q-44 -53 -95 -74q50 -21 79 -76q19 -35 19 -80q0 -25 -6 -54q-23 -106 -108 -171t-241 -65zM310 -100h-183l1160 1600h183zM1285 322l67 317q-196 -124 -271 -317h204zM1288 -18q-48 0 -61 7.5t-13 20.5q0 9 17 67q15 53 25 108l-273 1
q-75 0 -75 47l1 13q10 48 31 90q138 294 446 482q37 23 86 23q56 0 56 -57q0 -14 -97 -461q88 0 88 -89q0 -20 -6 -51h-111q-14 -64 -21 -109q-5 -39 -10 -62q-3 -15 -19 -22.5t-64 -7.5z" />
    <glyph glyph-name="questiondown" unicode="&#xbf;" horiz-adv-x="922" 
d="M753 1298q63 0 98 -45q26 -32 26 -74q0 -82 -72 -140q-54 -45 -117 -45t-98 45q-25 31 -25 73q0 83 71 142q54 44 117 44zM663 905q90 -80 90 -150q0 -12 -3 -23q-24 -112 -220 -214q-233 -122 -233 -307q0 -136 170 -136q143 0 275 93q5 -44 5 -77t-5 -56
q-13 -60 -98 -109t-251 -49q-193 0 -277 101q-60 73 -60 174q0 40 10 86q47 225 290 364t307 303z" />
    <glyph glyph-name="Agrave" unicode="&#xc0;" horiz-adv-x="1287" 
d="M941 -10q-81 0 -98.5 10t-17.5 25l1 7q9 42 20.5 73t21.5 77q20 96 20 194v9h-598q-45 -102 -66 -203q-10 -46 -11.5 -77t-10.5 -73q-4 -20 -28.5 -31t-103.5 -11t-96.5 10t-17.5 25l1 7q9 42 20.5 73t21.5 77q123 581 691 1140q25 18 43 18h119q18 0 35 -18
q242 -409 242 -828q0 -155 -33 -312q-10 -46 -11.5 -77t-10.5 -73q-4 -20 -28.5 -31t-104.5 -11zM884 584q-10 237 -150 484q-245 -247 -356 -484h506zM971 1503q-137 0 -258 142l-120 142l11 34q237 0 307 -140l71 -140z" />
    <glyph glyph-name="Aacute" unicode="&#xc1;" horiz-adv-x="1287" 
d="M941 -10q-81 0 -98.5 10t-17.5 25l1 7q9 42 20.5 73t21.5 77q20 96 20 194v9h-598q-45 -102 -66 -203q-10 -46 -11.5 -77t-10.5 -73q-4 -20 -28.5 -31t-103.5 -11t-96.5 10t-17.5 25l1 7q9 42 20.5 73t21.5 77q123 581 691 1140q25 18 43 18h119q18 0 35 -18
q242 -409 242 -828q0 -155 -33 -312q-10 -46 -11.5 -77t-10.5 -73q-4 -20 -28.5 -31t-104.5 -11zM884 584q-10 237 -150 484q-245 -247 -356 -484h506zM733 1499l-11 38l76 140q75 140 302 140l11 -34l-125 -142q-126 -142 -253 -142z" />
    <glyph glyph-name="Acircumflex" unicode="&#xc2;" horiz-adv-x="1287" 
d="M941 -10q-81 0 -98.5 10t-17.5 25l1 7q9 42 20.5 73t21.5 77q20 96 20 194v9h-598q-45 -102 -66 -203q-10 -46 -11.5 -77t-10.5 -73q-4 -20 -28.5 -31t-103.5 -11t-96.5 10t-17.5 25l1 7q9 42 20.5 73t21.5 77q123 581 691 1140q25 18 43 18h119q18 0 35 -18
q242 -409 242 -828q0 -155 -33 -312q-10 -46 -11.5 -77t-10.5 -73q-4 -20 -28.5 -31t-104.5 -11zM884 584q-10 237 -150 484q-245 -247 -356 -484h506zM1103 1482q-99 0 -174 82l-75 82l-109 -82q-108 -82 -204 -82l4 20l221 222q46 47 116 47q69 0 96 -47l129 -222z" />
    <glyph glyph-name="Atilde" unicode="&#xc3;" horiz-adv-x="1287" 
d="M941 -10q-81 0 -98.5 10t-17.5 25l1 7q9 42 20.5 73t21.5 77q20 96 20 194v9h-598q-45 -102 -66 -203q-10 -46 -11.5 -77t-10.5 -73q-4 -20 -28.5 -31t-103.5 -11t-96.5 10t-17.5 25l1 7q9 42 20.5 73t21.5 77q123 581 691 1140q25 18 43 18h119q18 0 35 -18
q242 -409 242 -828q0 -155 -33 -312q-10 -46 -11.5 -77t-10.5 -73q-4 -20 -28.5 -31t-104.5 -11zM884 584q-10 237 -150 484q-245 -247 -356 -484h506zM948 1461q-74 0 -124.5 55.5t-106.5 55.5q-71 0 -114.5 -47t-107.5 -47q91 221 244 221q76 0 127.5 -55.5t105.5 -55.5
q69 0 112.5 47t107.5 47q-91 -221 -244 -221z" />
    <glyph glyph-name="Adieresis" unicode="&#xc4;" horiz-adv-x="1287" 
d="M941 -10q-81 0 -98.5 10t-17.5 25l1 7q9 42 20.5 73t21.5 77q20 96 20 194v9h-598q-45 -102 -66 -203q-10 -46 -11.5 -77t-10.5 -73q-4 -20 -28.5 -31t-103.5 -11t-96.5 10t-17.5 25l1 7q9 42 20.5 73t21.5 77q123 581 691 1140q25 18 43 18h119q18 0 35 -18
q242 -409 242 -828q0 -155 -33 -312q-10 -46 -11.5 -77t-10.5 -73q-4 -20 -28.5 -31t-104.5 -11zM884 584q-10 237 -150 484q-245 -247 -356 -484h506zM1014 1465q-66 0 -103 47q-27 34 -27 78q0 86 75 148q57 47 123 47q67 0 103 -47q27 -34 27 -78q0 -86 -75 -148
q-57 -47 -123 -47zM614 1465q-66 0 -103 47q-27 34 -27 78q0 86 75 148q57 47 123 47q67 0 103 -47q27 -34 27 -78q0 -86 -75 -148q-57 -47 -123 -47z" />
    <glyph glyph-name="Aring" unicode="&#xc5;" horiz-adv-x="1287" 
d="M941 -10q-81 0 -98.5 10t-17.5 25l1 7q9 42 20.5 73t21.5 77q20 96 20 194v9h-598q-45 -102 -66 -203q-10 -46 -11.5 -77t-10.5 -73q-4 -20 -28.5 -31t-103.5 -11t-96.5 10t-17.5 25l1 7q9 42 20.5 73t21.5 77q123 581 691 1140q25 18 43 18h119q18 0 35 -18
q242 -409 242 -828q0 -155 -33 -312q-10 -46 -11.5 -77t-10.5 -73q-4 -20 -28.5 -31t-104.5 -11zM884 584q-10 237 -150 484q-245 -247 -356 -484h506zM812 1435q-82 0 -127 57q-32 40 -32 93q0 22 5 45q17 82 86 139t151 57t127 -57q32 -41 32 -95q0 -21 -5 -44
q-18 -82 -86.5 -138.5t-150.5 -56.5zM833 1533q40 0 75 29q45 37 45 89q0 28 -19 52.5t-60 24.5t-75 -28q-46 -38 -46 -92q0 -26 19.5 -50.5t60.5 -24.5z" />
    <glyph glyph-name="AE" unicode="&#xc6;" horiz-adv-x="1762" 
d="M855 579l40 190q38 177 62 316q-301 -171 -533 -506h431zM27 -10h-37q-58 0 -67.5 8.5t-9.5 21.5l1 10q44 205 283.5 572.5t730.5 694.5q51 36 92 36h806l-86 -218q-229 20 -524 20q-30 -171 -70 -361q328 0 461 20l-89 -226q-86 10 -414 10l-43 -202q-7 -32 -7 -58
q0 -120 145 -120q214 0 408 20l-5 -218h-605q-215 0 -215 189q0 43 11 97l20 96h-515q-128 -202 -160 -352q-8 -40 -111 -40z" />
    <glyph glyph-name="Ccedilla" unicode="&#xc7;" horiz-adv-x="1307" 
d="M645 -14q-324 0 -476 184q-108 130 -108 316q0 77 18 163q67 314 324 513.5t547 199.5q260 0 418 -164q-120 -148 -212 -148q-33 0 -88 62t-203 62q-169 0 -312.5 -128.5t-190.5 -351.5q-17 -78 -17 -146q0 -138 86 -258t278 -120q151 0 278 86q39 26 67 26
q86 0 115 -147q-238 -149 -524 -149zM476 -474q-117 0 -209 53q23 107 95 107q29 0 64 -14.5t81 -14.5q124 0 124 90q0 66 -167 88l116 165h138l-58 -88q127 -21 127 -135q0 -101 -75.5 -176t-235.5 -75z" />
    <glyph glyph-name="Egrave" unicode="&#xc8;" horiz-adv-x="1090" 
d="M902 0h-595q-230 0 -230 193q0 42 11 93l102 483q49 228 71 355.5t31 169.5q4 20 28.5 31t89.5 11h717l-88 -227q-169 20 -531 20q-29 -165 -68 -350q335 0 468 20l-90 -231q-86 10 -421 10l-41 -194q-7 -33 -7 -60q0 -118 135 -118q291 0 425 20zM901 1503
q-137 0 -258 142l-120 142l11 34q237 0 307 -140l71 -140z" />
    <glyph glyph-name="Eacute" unicode="&#xc9;" horiz-adv-x="1090" 
d="M902 0h-595q-230 0 -230 193q0 42 11 93l102 483q49 228 71 355.5t31 169.5q4 20 28.5 31t89.5 11h717l-88 -227q-169 20 -531 20q-29 -165 -68 -350q335 0 468 20l-90 -231q-86 10 -421 10l-41 -194q-7 -33 -7 -60q0 -118 135 -118q291 0 425 20zM663 1499l-11 38
l76 140q75 140 302 140l11 -34l-125 -142q-126 -142 -253 -142z" />
    <glyph glyph-name="Ecircumflex" unicode="&#xca;" horiz-adv-x="1090" 
d="M902 0h-595q-230 0 -230 193q0 42 11 93l102 483q49 228 71 355.5t31 169.5q4 20 28.5 31t89.5 11h717l-88 -227q-169 20 -531 20q-29 -165 -68 -350q335 0 468 20l-90 -231q-86 10 -421 10l-41 -194q-7 -33 -7 -60q0 -118 135 -118q291 0 425 20zM1033 1482
q-99 0 -174 82l-75 82l-109 -82q-108 -82 -204 -82l4 20l221 222q46 47 116 47q69 0 96 -47l129 -222z" />
    <glyph glyph-name="Edieresis" unicode="&#xcb;" horiz-adv-x="1090" 
d="M902 0h-595q-230 0 -230 193q0 42 11 93l102 483q49 228 71 355.5t31 169.5q4 20 28.5 31t89.5 11h717l-88 -227q-169 20 -531 20q-29 -165 -68 -350q335 0 468 20l-90 -231q-86 10 -421 10l-41 -194q-7 -33 -7 -60q0 -118 135 -118q291 0 425 20zM944 1465
q-66 0 -103 47q-27 34 -27 78q0 86 75 148q57 47 123 47q67 0 103 -47q27 -34 27 -78q0 -86 -75 -148q-57 -47 -123 -47zM544 1465q-66 0 -103 47q-27 34 -27 78q0 86 75 148q57 47 123 47q67 0 103 -47q27 -34 27 -78q0 -86 -75 -148q-57 -47 -123 -47z" />
    <glyph glyph-name="Igrave" unicode="&#xcc;" horiz-adv-x="615" 
d="M161 -16q-81 0 -106 11q-21 9 -21 25q0 14 42 174q38 145 130 582q49 228 69.5 354t29.5 168q4 20 33.5 31t110.5 11q83 0 105.5 -10t22.5 -26q0 -11 -43 -174q-38 -145 -130 -582q-49 -228 -69.5 -354t-29.5 -168q-4 -20 -33 -31t-111 -11zM628 1503q-137 0 -258 142
l-120 142l11 34q237 0 307 -140l71 -140z" />
    <glyph glyph-name="Iacute" unicode="&#xcd;" horiz-adv-x="615" 
d="M161 -16q-81 0 -106 11q-21 9 -21 25q0 14 42 174q38 145 130 582q49 228 69.5 354t29.5 168q4 20 33.5 31t110.5 11q83 0 105.5 -10t22.5 -26q0 -11 -43 -174q-38 -145 -130 -582q-49 -228 -69.5 -354t-29.5 -168q-4 -20 -33 -31t-111 -11zM390 1499l-11 38l76 140
q75 140 302 140l11 -34l-125 -142q-126 -142 -253 -142z" />
    <glyph glyph-name="Icircumflex" unicode="&#xce;" horiz-adv-x="615" 
d="M161 -16q-81 0 -106 11q-21 9 -21 25q0 14 42 174q38 145 130 582q49 228 69.5 354t29.5 168q4 20 33.5 31t110.5 11q83 0 105.5 -10t22.5 -26q0 -11 -43 -174q-38 -145 -130 -582q-49 -228 -69.5 -354t-29.5 -168q-4 -20 -33 -31t-111 -11zM760 1482q-99 0 -174 82
l-75 82l-109 -82q-108 -82 -204 -82l4 20l221 222q46 47 116 47q69 0 96 -47l129 -222z" />
    <glyph glyph-name="Idieresis" unicode="&#xcf;" horiz-adv-x="615" 
d="M161 -16q-81 0 -106 11q-21 9 -21 25q0 14 42 174q38 145 130 582q49 228 69.5 354t29.5 168q4 20 33.5 31t110.5 11q83 0 105.5 -10t22.5 -26q0 -11 -43 -174q-38 -145 -130 -582q-49 -228 -69.5 -354t-29.5 -168q-4 -20 -33 -31t-111 -11zM671 1465q-66 0 -103 47
q-27 34 -27 78q0 86 75 148q57 47 123 47q67 0 103 -47q27 -34 27 -78q0 -86 -75 -148q-57 -47 -123 -47zM271 1465q-66 0 -103 47q-27 34 -27 78q0 86 75 148q57 47 123 47q67 0 103 -47q27 -34 27 -78q0 -86 -75 -148q-57 -47 -123 -47z" />
    <glyph glyph-name="Eth" unicode="&#xd0;" horiz-adv-x="1399" 
d="M486 199q215 0 364.5 123.5t196.5 345.5q14 65 14 124q0 128 -80.5 246t-290.5 120q-97 0 -178 -32q-31 -180 -75 -389l-79 -370q-6 -30 -6 -55q0 -113 134 -113zM414 0h-102q-233 0 -233 194q0 41 11 92q141 663 165 801q22 126 31 168q4 22 38 33q178 60 383 60
q234 0 388.5 -83.5t215.5 -230.5q38 -91 38 -195q0 -65 -15 -134q-40 -186 -173.5 -350.5t-332 -259.5t-414.5 -95zM646 598h-636q39 173 134 173h636q-39 -173 -134 -173z" />
    <glyph glyph-name="Ntilde" unicode="&#xd1;" horiz-adv-x="1589" 
d="M1137 -16q-86 0 -136 37t-85 143q-176 532 -431 828q-27 -111 -62 -276q-83 -385 -101 -522q-17 -126 -25 -168q-5 -20 -28.5 -31t-110.5 -11q-86 0 -106 11q-16 9 -16 23q0 15 41 176q32 126 80 354q93 431 119 582q22 126 31 168q4 20 28.5 31t105.5 11q82 0 132 -30.5
t105 -113.5q263 -393 422 -810q20 84 51 232q77 360 104 512q22 126 31 168q4 20 28.5 31t110.5 11q87 0 104.5 -10t17.5 -25q0 -11 -42 -175q-32 -126 -80 -354q-93 -431 -119 -582l-30 -168q-5 -20 -28.5 -31t-110.5 -11zM1067 1461q-74 0 -124.5 55.5t-106.5 55.5
q-71 0 -114.5 -47t-107.5 -47q91 221 244 221q76 0 127.5 -55.5t105.5 -55.5q69 0 112.5 47t107.5 47q-91 -221 -244 -221z" />
    <glyph glyph-name="Ograve" unicode="&#xd2;" horiz-adv-x="1577" 
d="M613 -18q-197 0 -330.5 90.5t-187.5 241.5q-32 87 -32 187q0 73 17 152q43 201 174.5 359.5t313 247t377.5 88.5q198 0 333 -89t189 -243q32 -89 32 -189q0 -73 -17 -152q-43 -201 -174.5 -356t-314.5 -246t-380 -91zM698 166q179 0 315.5 124.5t180.5 333.5
q19 89 19 164q0 133 -74 252.5t-277 119.5q-180 0 -316.5 -124.5t-180.5 -333.5q-19 -88 -19 -164q0 -133 75 -252.5t277 -119.5zM1121 1503q-137 0 -258 142l-120 142l11 34q237 0 307 -140l71 -140z" />
    <glyph glyph-name="Oacute" unicode="&#xd3;" horiz-adv-x="1577" 
d="M613 -18q-197 0 -330.5 90.5t-187.5 241.5q-32 87 -32 187q0 73 17 152q43 201 174.5 359.5t313 247t377.5 88.5q198 0 333 -89t189 -243q32 -89 32 -189q0 -73 -17 -152q-43 -201 -174.5 -356t-314.5 -246t-380 -91zM698 166q179 0 315.5 124.5t180.5 333.5
q19 89 19 164q0 133 -74 252.5t-277 119.5q-180 0 -316.5 -124.5t-180.5 -333.5q-19 -88 -19 -164q0 -133 75 -252.5t277 -119.5zM883 1499l-11 38l76 140q75 140 302 140l11 -34l-125 -142q-126 -142 -253 -142z" />
    <glyph glyph-name="Ocircumflex" unicode="&#xd4;" horiz-adv-x="1577" 
d="M613 -18q-197 0 -330.5 90.5t-187.5 241.5q-32 87 -32 187q0 73 17 152q43 201 174.5 359.5t313 247t377.5 88.5q198 0 333 -89t189 -243q32 -89 32 -189q0 -73 -17 -152q-43 -201 -174.5 -356t-314.5 -246t-380 -91zM698 166q179 0 315.5 124.5t180.5 333.5
q19 89 19 164q0 133 -74 252.5t-277 119.5q-180 0 -316.5 -124.5t-180.5 -333.5q-19 -88 -19 -164q0 -133 75 -252.5t277 -119.5zM1253 1482q-99 0 -174 82l-75 82l-109 -82q-108 -82 -204 -82l4 20l221 222q46 47 116 47q69 0 96 -47l129 -222z" />
    <glyph glyph-name="Otilde" unicode="&#xd5;" horiz-adv-x="1577" 
d="M613 -18q-197 0 -330.5 90.5t-187.5 241.5q-32 87 -32 187q0 73 17 152q43 201 174.5 359.5t313 247t377.5 88.5q198 0 333 -89t189 -243q32 -89 32 -189q0 -73 -17 -152q-43 -201 -174.5 -356t-314.5 -246t-380 -91zM698 166q179 0 315.5 124.5t180.5 333.5
q19 89 19 164q0 133 -74 252.5t-277 119.5q-180 0 -316.5 -124.5t-180.5 -333.5q-19 -88 -19 -164q0 -133 75 -252.5t277 -119.5zM1098 1461q-74 0 -124.5 55.5t-106.5 55.5q-71 0 -114.5 -47t-107.5 -47q91 221 244 221q76 0 127.5 -55.5t105.5 -55.5q69 0 112.5 47
t107.5 47q-91 -221 -244 -221z" />
    <glyph glyph-name="Odieresis" unicode="&#xd6;" horiz-adv-x="1577" 
d="M613 -18q-197 0 -330.5 90.5t-187.5 241.5q-32 87 -32 187q0 73 17 152q43 201 174.5 359.5t313 247t377.5 88.5q198 0 333 -89t189 -243q32 -89 32 -189q0 -73 -17 -152q-43 -201 -174.5 -356t-314.5 -246t-380 -91zM698 166q179 0 315.5 124.5t180.5 333.5
q19 89 19 164q0 133 -74 252.5t-277 119.5q-180 0 -316.5 -124.5t-180.5 -333.5q-19 -88 -19 -164q0 -133 75 -252.5t277 -119.5zM1164 1465q-66 0 -103 47q-27 34 -27 78q0 86 75 148q57 47 123 47q67 0 103 -47q27 -34 27 -78q0 -86 -75 -148q-57 -47 -123 -47zM764 1465
q-66 0 -103 47q-27 34 -27 78q0 86 75 148q57 47 123 47q67 0 103 -47q27 -34 27 -78q0 -86 -75 -148q-57 -47 -123 -47z" />
    <glyph glyph-name="multiply" unicode="&#xd7;" horiz-adv-x="983" 
d="M753 276l-240 302l-377 -310l-101 129l378 311l-240 301l134 113l239 -303l379 312l100 -130l-378 -312l239 -301z" />
    <glyph glyph-name="Oslash" unicode="&#xd8;" horiz-adv-x="1577" 
d="M613 -18q-197 0 -330.5 90.5t-187.5 241.5q-32 87 -32 187q0 73 17 152q43 201 174.5 359.5t313 247t377.5 88.5q198 0 333 -89t189 -243q32 -89 32 -189q0 -73 -17 -152q-43 -201 -174.5 -356t-314.5 -246t-380 -91zM698 166q179 0 315.5 124.5t180.5 333.5
q19 89 19 164q0 133 -74 252.5t-277 119.5q-180 0 -316.5 -124.5t-180.5 -333.5q-19 -88 -19 -164q0 -133 75 -252.5t277 -119.5zM341 -244h-210l1081 1819h210z" />
    <glyph glyph-name="Ugrave" unicode="&#xd9;" horiz-adv-x="1444" 
d="M564 -14q-160 0 -273 65.5t-158 187.5q-23 63 -23 146q0 77 20 172q91 426 117 573q21 126 30 168q4 20 30 31t116 11t111 -11q17 -9 17 -25q0 -10 -42 -174q-21 -83 -120 -538q-15 -70 -15 -128q0 -110 67 -197t208 -87q136 0 248.5 97t150.5 278q98 460 117 575
q21 126 30 168q5 20 30.5 31t101.5 11q75 0 94.5 -10t19.5 -26q0 -11 -42 -174q-33 -126 -81 -354l-39 -184q-42 -198 -144.5 -330t-251.5 -204t-319 -72zM1045 1503q-137 0 -258 142l-120 142l11 34q237 0 307 -140l71 -140z" />
    <glyph glyph-name="Uacute" unicode="&#xda;" horiz-adv-x="1444" 
d="M564 -14q-160 0 -273 65.5t-158 187.5q-23 63 -23 146q0 77 20 172q91 426 117 573q21 126 30 168q4 20 30 31t116 11t111 -11q17 -9 17 -25q0 -10 -42 -174q-21 -83 -120 -538q-15 -70 -15 -128q0 -110 67 -197t208 -87q136 0 248.5 97t150.5 278q98 460 117 575
q21 126 30 168q5 20 30.5 31t101.5 11q75 0 94.5 -10t19.5 -26q0 -11 -42 -174q-33 -126 -81 -354l-39 -184q-42 -198 -144.5 -330t-251.5 -204t-319 -72zM807 1499l-11 38l76 140q75 140 302 140l11 -34l-125 -142q-126 -142 -253 -142z" />
    <glyph glyph-name="Ucircumflex" unicode="&#xdb;" horiz-adv-x="1444" 
d="M564 -14q-160 0 -273 65.5t-158 187.5q-23 63 -23 146q0 77 20 172q91 426 117 573q21 126 30 168q4 20 30 31t116 11t111 -11q17 -9 17 -25q0 -10 -42 -174q-21 -83 -120 -538q-15 -70 -15 -128q0 -110 67 -197t208 -87q136 0 248.5 97t150.5 278q98 460 117 575
q21 126 30 168q5 20 30.5 31t101.5 11q75 0 94.5 -10t19.5 -26q0 -11 -42 -174q-33 -126 -81 -354l-39 -184q-42 -198 -144.5 -330t-251.5 -204t-319 -72zM1177 1482q-99 0 -174 82l-75 82l-109 -82q-108 -82 -204 -82l4 20l221 222q46 47 116 47q69 0 96 -47l129 -222z" />
    <glyph glyph-name="Udieresis" unicode="&#xdc;" horiz-adv-x="1444" 
d="M564 -14q-160 0 -273 65.5t-158 187.5q-23 63 -23 146q0 77 20 172q91 426 117 573q21 126 30 168q4 20 30 31t116 11t111 -11q17 -9 17 -25q0 -10 -42 -174q-21 -83 -120 -538q-15 -70 -15 -128q0 -110 67 -197t208 -87q136 0 248.5 97t150.5 278q98 460 117 575
q21 126 30 168q5 20 30.5 31t101.5 11q75 0 94.5 -10t19.5 -26q0 -11 -42 -174q-33 -126 -81 -354l-39 -184q-42 -198 -144.5 -330t-251.5 -204t-319 -72zM1088 1465q-66 0 -103 47q-27 34 -27 78q0 86 75 148q57 47 123 47q67 0 103 -47q27 -34 27 -78q0 -86 -75 -148
q-57 -47 -123 -47zM688 1465q-66 0 -103 47q-27 34 -27 78q0 86 75 148q57 47 123 47q67 0 103 -47q27 -34 27 -78q0 -86 -75 -148q-57 -47 -123 -47z" />
    <glyph glyph-name="Yacute" unicode="&#xdd;" horiz-adv-x="1168" 
d="M456 -16q-85 0 -105 11q-16 9 -16 23q0 18 31 126q12 45 68 298q-275 170 -275 495q0 93 22 198q15 71 15.5 96t9.5 67q4 20 28.5 31t109.5 11t102.5 -10t17.5 -25l-1 -7q-9 -42 -19.5 -67t-20.5 -74q-21 -97 -21 -178q0 -247 190 -355q315 143 398 533q10 49 10.5 74
t9.5 67q4 20 28.5 31t108.5 11t101.5 -10t17.5 -25l-1 -7q-9 -42 -19.5 -67t-25.5 -96q-101 -475 -549 -693q-43 -194 -58 -298q-12 -76 -20 -118q-5 -20 -28.5 -31t-108.5 -11zM664 1499l-11 38l76 140q75 140 302 140l11 -34l-125 -142q-126 -142 -253 -142z" />
    <glyph glyph-name="Thorn" unicode="&#xde;" horiz-adv-x="1253" 
d="M641 428q113 0 196.5 67t107.5 179q7 32 7 60q0 68 -47 129t-171 61h-248l-105 -496h260zM533 1127h287q213 0 311 -121q75 -92 75 -211q0 -64 -11 -114q-44 -206 -192 -331t-438 -125h-225q-3 -16 -5 -31q-21 -126 -30 -168q-4 -20 -33 -31t-111 -11q-81 0 -106 11
q-21 9 -21 25q0 14 42 174q38 145 130 582q49 228 69.5 354t29.5 168q4 20 33.5 31t110.5 11q83 0 105.5 -10t22.5 -26q0 -11 -43 -174q0 -1 -1 -3z" />
    <glyph glyph-name="germandbls" unicode="&#xdf;" horiz-adv-x="1240" 
d="M-54 -392q-150 0 -227 86q22 133 84 133q22 0 57.5 -20.5t69.5 -20.5q100 0 146 214l195 901q51 240 218 397.5t404 157.5q160 0 231 -90q51 -65 51 -150q0 -32 -7 -67q-28 -131 -133 -231q-123 -117 -123 -193q0 -80 113 -173q104 -87 104 -200q0 -147 -142 -270
q-112 -96 -302 -96q-105 0 -202 43q-10 5 -10 19q0 29 42 97q51 82 78 82q7 0 12 -5q66 -60 136 -60q149 0 149 131q0 93 -114 185.5t-114 191.5q0 114 141 234q146 124 146 264q0 112 -141 112q-225 0 -302 -363l-178 -847q-97 -462 -382 -462z" />
    <glyph glyph-name="agrave" unicode="&#xe0;" horiz-adv-x="1103" 
d="M795 -14q-133 0 -133 123q0 29 6 81q-162 -204 -369 -204q-133 0 -190 92q-39 64 -39 151q0 291 203 465t470 174q131 0 239 -62q-126 -531 -126 -592q0 -62 37 -62q31 0 86 39q-30 -205 -184 -205zM387 170q109 0 215.5 134t145.5 390q-42 20 -96 20q-131 0 -241 -131.5
t-110 -276.5q0 -136 86 -136zM797 1026q-137 0 -258 142l-120 142l11 34q237 0 307 -140l71 -140z" />
    <glyph glyph-name="aacute" unicode="&#xe1;" horiz-adv-x="1103" 
d="M795 -14q-133 0 -133 123q0 29 6 81q-162 -204 -369 -204q-133 0 -190 92q-39 64 -39 151q0 291 203 465t470 174q131 0 239 -62q-126 -531 -126 -592q0 -62 37 -62q31 0 86 39q-30 -205 -184 -205zM387 170q109 0 215.5 134t145.5 390q-42 20 -96 20q-131 0 -241 -131.5
t-110 -276.5q0 -136 86 -136zM559 1022l-11 38l76 140q75 140 302 140l11 -34l-125 -142q-126 -142 -253 -142z" />
    <glyph glyph-name="acircumflex" unicode="&#xe2;" horiz-adv-x="1103" 
d="M795 -14q-133 0 -133 123q0 29 6 81q-162 -204 -369 -204q-133 0 -190 92q-39 64 -39 151q0 291 203 465t470 174q131 0 239 -62q-126 -531 -126 -592q0 -62 37 -62q31 0 86 39q-30 -205 -184 -205zM387 170q109 0 215.5 134t145.5 390q-42 20 -96 20q-131 0 -241 -131.5
t-110 -276.5q0 -136 86 -136zM929 1005q-99 0 -174 82l-75 82l-109 -82q-108 -82 -204 -82l4 20l221 222q46 47 116 47q69 0 96 -47l129 -222z" />
    <glyph glyph-name="atilde" unicode="&#xe3;" horiz-adv-x="1103" 
d="M795 -14q-133 0 -133 123q0 29 6 81q-162 -204 -369 -204q-133 0 -190 92q-39 64 -39 151q0 291 203 465t470 174q131 0 239 -62q-126 -531 -126 -592q0 -62 37 -62q31 0 86 39q-30 -205 -184 -205zM387 170q109 0 215.5 134t145.5 390q-42 20 -96 20q-131 0 -241 -131.5
t-110 -276.5q0 -136 86 -136zM774 984q-74 0 -124.5 55.5t-106.5 55.5q-71 0 -114.5 -47t-107.5 -47q91 221 244 221q76 0 127.5 -55.5t105.5 -55.5q69 0 112.5 47t107.5 47q-91 -221 -244 -221z" />
    <glyph glyph-name="adieresis" unicode="&#xe4;" horiz-adv-x="1103" 
d="M795 -14q-133 0 -133 123q0 29 6 81q-162 -204 -369 -204q-133 0 -190 92q-39 64 -39 151q0 291 203 465t470 174q131 0 239 -62q-126 -531 -126 -592q0 -62 37 -62q31 0 86 39q-30 -205 -184 -205zM387 170q109 0 215.5 134t145.5 390q-42 20 -96 20q-131 0 -241 -131.5
t-110 -276.5q0 -136 86 -136zM840 988q-66 0 -103 47q-27 34 -27 78q0 86 75 148q57 47 123 47q67 0 103 -47q27 -34 27 -78q0 -86 -75 -148q-57 -47 -123 -47zM440 988q-66 0 -103 47q-27 34 -27 78q0 86 75 148q57 47 123 47q67 0 103 -47q27 -34 27 -78q0 -86 -75 -148
q-57 -47 -123 -47z" />
    <glyph glyph-name="aring" unicode="&#xe5;" horiz-adv-x="1103" 
d="M795 -14q-133 0 -133 123q0 29 6 81q-162 -204 -369 -204q-133 0 -190 92q-39 64 -39 151q0 291 203 465t470 174q131 0 239 -62q-126 -531 -126 -592q0 -62 37 -62q31 0 86 39q-30 -205 -184 -205zM387 170q109 0 215.5 134t145.5 390q-42 20 -96 20q-131 0 -241 -131.5
t-110 -276.5q0 -136 86 -136zM638 958q-82 0 -127 57q-32 40 -32 93q0 22 5 45q17 82 86 139t151 57t127 -57q32 -41 32 -95q0 -21 -5 -44q-18 -82 -86.5 -138.5t-150.5 -56.5zM659 1056q40 0 75 29q45 37 45 89q0 28 -19 52.5t-60 24.5t-75 -28q-46 -38 -46 -92
q0 -26 19.5 -50.5t60.5 -24.5z" />
    <glyph glyph-name="ae" unicode="&#xe6;" horiz-adv-x="1439" 
d="M900 -14q-205 0 -278 131q-186 -131 -346 -131q-120 0 -171 62q-35 44 -35 107q0 26 6 56q48 232 369 267l200 22q30 97 30 135q0 70 -72 70q-88 0 -161 -75t-159 -75q-42 0 -94 27q49 129 192.5 213t306.5 84q158 0 193 -99q128 97 272 97q125 0 187 -82q41 -55 41 -147
q0 -246 -551 -285q-13 -46 -13 -68q0 -50 37 -89.5t133 -39.5q82 0 143.5 33t104.5 33q47 0 73 -93q-196 -153 -408 -153zM862 514q324 31 324 115q0 80 -101 80q-105 0 -205 -111zM400 158q72 0 196 61q0 48 18 135l-135 -9q-135 -9 -156 -105q-2 -8 -2 -16q0 -24 18 -45
t61 -21z" />
    <glyph glyph-name="ccedilla" unicode="&#xe7;" horiz-adv-x="841" 
d="M376 -14q-166 0 -248 117q-58 83 -58 194q0 184 154.5 382.5t371.5 198.5q174 0 239 -112q-71 -150 -120 -150q-20 0 -61 41t-104 41q-103 0 -179.5 -112t-76.5 -240q0 -187 137 -187q90 0 175 57q27 18 47 18q44 0 58 -103q-159 -145 -335 -145zM192 -474
q-117 0 -209 53q23 107 95 107q29 0 64 -14.5t81 -14.5q124 0 124 90q0 66 -167 88l116 165h138l-58 -88q127 -21 127 -135q0 -101 -75.5 -176t-235.5 -75z" />
    <glyph glyph-name="egrave" unicode="&#xe8;" horiz-adv-x="933" 
d="M541 530.5q135 48.5 135 125.5q0 67 -76 67q-137 0 -221 -136.5t-84 -281.5q0 -64 32 -105.5t122 -41.5q72 0 134.5 21.5t94.5 21.5q67 0 67 -105q-161 -110 -348 -110q-179 0 -267 110q-60 77 -60 190q0 219 169 405t418 186q218 0 218 -200q0 -255 -469 -332
q0 137 135 185.5zM740 1026q-137 0 -258 142l-120 142l11 34q237 0 307 -140l71 -140z" />
    <glyph glyph-name="eacute" unicode="&#xe9;" horiz-adv-x="933" 
d="M541 530.5q135 48.5 135 125.5q0 67 -76 67q-137 0 -221 -136.5t-84 -281.5q0 -64 32 -105.5t122 -41.5q72 0 134.5 21.5t94.5 21.5q67 0 67 -105q-161 -110 -348 -110q-179 0 -267 110q-60 77 -60 190q0 219 169 405t418 186q218 0 218 -200q0 -255 -469 -332
q0 137 135 185.5zM502 1022l-11 38l76 140q75 140 302 140l11 -34l-125 -142q-126 -142 -253 -142z" />
    <glyph glyph-name="ecircumflex" unicode="&#xea;" horiz-adv-x="933" 
d="M541 530.5q135 48.5 135 125.5q0 67 -76 67q-137 0 -221 -136.5t-84 -281.5q0 -64 32 -105.5t122 -41.5q72 0 134.5 21.5t94.5 21.5q67 0 67 -105q-161 -110 -348 -110q-179 0 -267 110q-60 77 -60 190q0 219 169 405t418 186q218 0 218 -200q0 -255 -469 -332
q0 137 135 185.5zM872 1005q-99 0 -174 82l-75 82l-109 -82q-108 -82 -204 -82l4 20l221 222q46 47 116 47q69 0 96 -47l129 -222z" />
    <glyph glyph-name="edieresis" unicode="&#xeb;" horiz-adv-x="933" 
d="M541 530.5q135 48.5 135 125.5q0 67 -76 67q-137 0 -221 -136.5t-84 -281.5q0 -64 32 -105.5t122 -41.5q72 0 134.5 21.5t94.5 21.5q67 0 67 -105q-161 -110 -348 -110q-179 0 -267 110q-60 77 -60 190q0 219 169 405t418 186q218 0 218 -200q0 -255 -469 -332
q0 137 135 185.5zM783 988q-66 0 -103 47q-27 34 -27 78q0 86 75 148q57 47 123 47q67 0 103 -47q27 -34 27 -78q0 -86 -75 -148q-57 -47 -123 -47zM383 988q-66 0 -103 47q-27 34 -27 78q0 86 75 148q57 47 123 47q67 0 103 -47q27 -34 27 -78q0 -86 -75 -148
q-57 -47 -123 -47z" />
    <glyph glyph-name="igrave" unicode="&#xec;" horiz-adv-x="534" 
d="M291 196q0 -44 32 -44q35 0 90 39q-30 -205 -205 -205q-144 0 -144 136q0 56 114 558q8 34 8 80q0 41 -11 71q62 43 131 43q103 0 103 -77q0 -27 -6 -55q-2 -9 -57 -259t-55 -287zM489 1026q-137 0 -258 142l-120 142l11 34q237 0 307 -140l71 -140z" />
    <glyph glyph-name="iacute" unicode="&#xed;" horiz-adv-x="534" 
d="M291 196q0 -44 32 -44q35 0 90 39q-30 -205 -205 -205q-144 0 -144 136q0 56 114 558q8 34 8 80q0 41 -11 71q62 43 131 43q103 0 103 -77q0 -27 -6 -55q-2 -9 -57 -259t-55 -287zM251 1022l-11 38l76 140q75 140 302 140l11 -34l-125 -142q-126 -142 -253 -142z" />
    <glyph glyph-name="icircumflex" unicode="&#xee;" horiz-adv-x="534" 
d="M291 196q0 -44 32 -44q35 0 90 39q-30 -205 -205 -205q-144 0 -144 136q0 56 114 558q8 34 8 80q0 41 -11 71q62 43 131 43q103 0 103 -77q0 -27 -6 -55q-2 -9 -57 -259t-55 -287zM621 1005q-99 0 -174 82l-75 82l-109 -82q-108 -82 -204 -82l4 20l221 222q46 47 116 47
q69 0 96 -47l129 -222z" />
    <glyph glyph-name="idieresis" unicode="&#xef;" horiz-adv-x="534" 
d="M291 196q0 -44 32 -44q35 0 90 39q-30 -205 -205 -205q-144 0 -144 136q0 56 114 558q8 34 8 80q0 41 -11 71q62 43 131 43q103 0 103 -77q0 -27 -6 -55q-2 -9 -57 -259t-55 -287zM532 988q-66 0 -103 47q-27 34 -27 78q0 86 75 148q57 47 123 47q67 0 103 -47
q27 -34 27 -78q0 -86 -75 -148q-57 -47 -123 -47zM132 988q-66 0 -103 47q-27 34 -27 78q0 86 75 148q57 47 123 47q67 0 103 -47q27 -34 27 -78q0 -86 -75 -148q-57 -47 -123 -47z" />
    <glyph glyph-name="eth" unicode="&#xf0;" horiz-adv-x="1107" 
d="M421 -14q-196 0 -299 121q-75 88 -75 209q0 49 12 102q40 190 196 314t343 124q102 0 170 -37q-32 152 -129 279l-335 -172l-58 141l287 147q-83 75 -127.5 98t-44.5 58q0 55 70 107q163 -63 286 -168l317 164l56 -144l-262 -133q198 -260 198 -532q0 -79 -17 -160
q-47 -218 -206.5 -368t-381.5 -150zM495 158q112 0 179 92q99 135 113 356q-55 99 -184 99q-120 0 -191.5 -78.5t-94.5 -186.5q-10 -45 -10 -84q0 -75 44.5 -136.5t143.5 -61.5z" />
    <glyph glyph-name="ntilde" unicode="&#xf1;" horiz-adv-x="1109" 
d="M792 877q194 0 194 -174q0 -69 -58 -260.5t-58 -241.5q0 -49 37 -49q30 0 86 39q-30 -205 -195 -205q-151 0 -151 129q0 72 57 252t57 254q0 69 -63 69q-115 0 -237 -192q-111 -174 -179 -498h-211q144 661 150 689q8 36 8 81q0 41 -11 71q62 43 121 43q103 0 103 -77
q0 -27 -6 -55l-23 -104h1q194 229 378 229zM839 984q-74 0 -124.5 55.5t-106.5 55.5q-71 0 -114.5 -47t-107.5 -47q91 221 244 221q76 0 127.5 -55.5t105.5 -55.5q69 0 112.5 47t107.5 47q-91 -221 -244 -221z" />
    <glyph glyph-name="ograve" unicode="&#xf2;" horiz-adv-x="985" 
d="M369 -14q-176 0 -249 115q-50 80 -50 187q0 199 154 390.5t385 191.5q170 0 244 -103q55 -77 55 -188q0 -230 -163 -411.5t-376 -181.5zM425 158q95 0 175 112t80 277q0 158 -124 158q-108 0 -182.5 -122t-74.5 -261q0 -164 126 -164zM763 1026q-137 0 -258 142l-120 142
l11 34q237 0 307 -140l71 -140z" />
    <glyph glyph-name="oacute" unicode="&#xf3;" horiz-adv-x="985" 
d="M369 -14q-176 0 -249 115q-50 80 -50 187q0 199 154 390.5t385 191.5q170 0 244 -103q55 -77 55 -188q0 -230 -163 -411.5t-376 -181.5zM425 158q95 0 175 112t80 277q0 158 -124 158q-108 0 -182.5 -122t-74.5 -261q0 -164 126 -164zM525 1022l-11 38l76 140
q75 140 302 140l11 -34l-125 -142q-126 -142 -253 -142z" />
    <glyph glyph-name="ocircumflex" unicode="&#xf4;" horiz-adv-x="985" 
d="M369 -14q-176 0 -249 115q-50 80 -50 187q0 199 154 390.5t385 191.5q170 0 244 -103q55 -77 55 -188q0 -230 -163 -411.5t-376 -181.5zM425 158q95 0 175 112t80 277q0 158 -124 158q-108 0 -182.5 -122t-74.5 -261q0 -164 126 -164zM895 1005q-99 0 -174 82l-75 82
l-109 -82q-108 -82 -204 -82l4 20l221 222q46 47 116 47q69 0 96 -47l129 -222z" />
    <glyph glyph-name="otilde" unicode="&#xf5;" horiz-adv-x="985" 
d="M369 -14q-176 0 -249 115q-50 80 -50 187q0 199 154 390.5t385 191.5q170 0 244 -103q55 -77 55 -188q0 -230 -163 -411.5t-376 -181.5zM425 158q95 0 175 112t80 277q0 158 -124 158q-108 0 -182.5 -122t-74.5 -261q0 -164 126 -164zM740 984q-74 0 -124.5 55.5
t-106.5 55.5q-71 0 -114.5 -47t-107.5 -47q91 221 244 221q76 0 127.5 -55.5t105.5 -55.5q69 0 112.5 47t107.5 47q-91 -221 -244 -221z" />
    <glyph glyph-name="odieresis" unicode="&#xf6;" horiz-adv-x="985" 
d="M369 -14q-176 0 -249 115q-50 80 -50 187q0 199 154 390.5t385 191.5q170 0 244 -103q55 -77 55 -188q0 -230 -163 -411.5t-376 -181.5zM425 158q95 0 175 112t80 277q0 158 -124 158q-108 0 -182.5 -122t-74.5 -261q0 -164 126 -164zM806 988q-66 0 -103 47
q-27 34 -27 78q0 86 75 148q57 47 123 47q67 0 103 -47q27 -34 27 -78q0 -86 -75 -148q-57 -47 -123 -47zM406 988q-66 0 -103 47q-27 34 -27 78q0 86 75 148q57 47 123 47q67 0 103 -47q27 -34 27 -78q0 -86 -75 -148q-57 -47 -123 -47z" />
    <glyph glyph-name="divide" unicode="&#xf7;" horiz-adv-x="915" 
d="M775 596h-746q20 160 106 160h745q-20 -160 -105 -160zM487 828q-66 0 -103 47q-27 34 -27 78q0 86 75 148q57 47 123 47q67 0 103 -47q27 -34 27 -78q0 -86 -75 -148q-57 -47 -123 -47zM355 204q-66 0 -103 47q-27 34 -27 78q0 86 75 148q57 47 123 47q67 0 103 -47
q27 -34 27 -78q0 -86 -75 -148q-57 -47 -123 -47z" />
    <glyph glyph-name="oslash" unicode="&#xf8;" horiz-adv-x="985" 
d="M369 -14q-176 0 -249 115q-50 80 -50 187q0 199 154 390.5t385 191.5q170 0 244 -103q55 -77 55 -188q0 -230 -163 -411.5t-376 -181.5zM425 158q95 0 175 112t80 277q0 158 -124 158q-108 0 -182.5 -122t-74.5 -261q0 -164 126 -164zM125 -204l-74 61l804 1202l74 -62z
" />
    <glyph glyph-name="ugrave" unicode="&#xf9;" horiz-adv-x="1084" 
d="M321 248q0 -76 73 -76q115 0 219.5 196t156.5 478l202 20q-131 -639 -131 -676q0 -38 36 -38q31 0 86 39q-30 -205 -186 -205q-131 0 -131 135q0 33 12 86q-147 -221 -344 -221q-95 0 -154 52.5t-59 151.5q0 60 30.5 205t62.5 285q8 34 8 80q0 41 -11 71q62 43 131 43
q103 0 103 -77q0 -27 -6 -55q-2 -9 -50 -229.5t-48 -264.5zM767 1024q-137 0 -258 142l-120 142l11 34q237 0 307 -140l71 -140z" />
    <glyph glyph-name="uacute" unicode="&#xfa;" horiz-adv-x="1084" 
d="M321 248q0 -76 73 -76q115 0 219.5 196t156.5 478l202 20q-131 -639 -131 -676q0 -38 36 -38q31 0 86 39q-30 -205 -186 -205q-131 0 -131 135q0 33 12 86q-147 -221 -344 -221q-95 0 -154 52.5t-59 151.5q0 60 30.5 205t62.5 285q8 34 8 80q0 41 -11 71q62 43 131 43
q103 0 103 -77q0 -27 -6 -55q-2 -9 -50 -229.5t-48 -264.5zM529 1020l-11 38l76 140q75 140 302 140l11 -34l-125 -142q-126 -142 -253 -142z" />
    <glyph glyph-name="ucircumflex" unicode="&#xfb;" horiz-adv-x="1084" 
d="M321 248q0 -76 73 -76q115 0 219.5 196t156.5 478l202 20q-131 -639 -131 -676q0 -38 36 -38q31 0 86 39q-30 -205 -186 -205q-131 0 -131 135q0 33 12 86q-147 -221 -344 -221q-95 0 -154 52.5t-59 151.5q0 60 30.5 205t62.5 285q8 34 8 80q0 41 -11 71q62 43 131 43
q103 0 103 -77q0 -27 -6 -55q-2 -9 -50 -229.5t-48 -264.5zM899 1003q-99 0 -174 82l-75 82l-109 -82q-108 -82 -204 -82l4 20l221 222q46 47 116 47q69 0 96 -47l129 -222z" />
    <glyph glyph-name="udieresis" unicode="&#xfc;" horiz-adv-x="1084" 
d="M321 248q0 -76 73 -76q115 0 219.5 196t156.5 478l202 20q-131 -639 -131 -676q0 -38 36 -38q31 0 86 39q-30 -205 -186 -205q-131 0 -131 135q0 33 12 86q-147 -221 -344 -221q-95 0 -154 52.5t-59 151.5q0 60 30.5 205t62.5 285q8 34 8 80q0 41 -11 71q62 43 131 43
q103 0 103 -77q0 -27 -6 -55q-2 -9 -50 -229.5t-48 -264.5zM810 986q-66 0 -103 47q-27 34 -27 78q0 86 75 148q57 47 123 47q67 0 103 -47q27 -34 27 -78q0 -86 -75 -148q-57 -47 -123 -47zM410 986q-66 0 -103 47q-27 34 -27 78q0 86 75 148q57 47 123 47q67 0 103 -47
q27 -34 27 -78q0 -86 -75 -148q-57 -47 -123 -47z" />
    <glyph glyph-name="yacute" unicode="&#xfd;" horiz-adv-x="1071" 
d="M209 680q8 34 8 80q0 41 -11 71q62 43 131 43q103 0 103 -77q0 -27 -6 -55q-9 -44 -54 -241t-45 -253q0 -76 93 -76q132 0 210 143.5t166 540.5h191l-196 -963q-40 -192 -163.5 -288.5t-281.5 -96.5q-128 0 -237.5 61.5t-109.5 151.5q0 89 136 158q85 -197 245 -197
q146 0 202 221l59 234q-128 -153 -309 -153q-105 0 -165.5 53.5t-60.5 132.5q0 75 41.5 265.5t53.5 244.5zM563 1029l-11 38l76 140q75 140 302 140l11 -34l-125 -142q-126 -142 -253 -142z" />
    <glyph glyph-name="thorn" unicode="&#xfe;" horiz-adv-x="1134" 
d="M508 154q106 0 184 76t106 206q10 47 10 88q0 195 -155 195q-116 0 -225 -107l-80 -376q59 -82 160 -82zM461 768q129 109 289 109q181 0 263 -119q56 -82 56 -192q0 -50 -12 -107q-43 -203 -203 -338t-342 -135q-136 0 -200 80l-4 8q-51 -234 -96 -434q-8 -34 -8 -80
q0 -41 11 -71q-62 -43 -131 -43q-103 0 -103 77q0 27 6 55q271 1237 375 1702q8 34 8 80q0 41 -11 71q62 43 131 43q103 0 103 -77q0 -27 -6 -55q-2 -9 -126 -574z" />
    <glyph glyph-name="ydieresis" unicode="&#xff;" horiz-adv-x="1071" 
d="M209 680q8 34 8 80q0 41 -11 71q62 43 131 43q103 0 103 -77q0 -27 -6 -55q-9 -44 -54 -241t-45 -253q0 -76 93 -76q132 0 210 143.5t166 540.5h191l-196 -963q-40 -192 -163.5 -288.5t-281.5 -96.5q-128 0 -237.5 61.5t-109.5 151.5q0 89 136 158q85 -197 245 -197
q146 0 202 221l59 234q-128 -153 -309 -153q-105 0 -165.5 53.5t-60.5 132.5q0 75 41.5 265.5t53.5 244.5zM844 995q-66 0 -103 47q-27 34 -27 78q0 86 75 148q57 47 123 47q67 0 103 -47q27 -34 27 -78q0 -86 -75 -148q-57 -47 -123 -47zM444 995q-66 0 -103 47
q-27 34 -27 78q0 86 75 148q57 47 123 47q67 0 103 -47q27 -34 27 -78q0 -86 -75 -148q-57 -47 -123 -47z" />
    <glyph glyph-name="Amacron" unicode="&#x100;" horiz-adv-x="1287" 
d="M941 -10q-81 0 -98.5 10t-17.5 25l1 7q9 42 20.5 73t21.5 77q20 96 20 194v9h-598q-45 -102 -66 -203q-10 -46 -11.5 -77t-10.5 -73q-4 -20 -28.5 -31t-103.5 -11t-96.5 10t-17.5 25l1 7q9 42 20.5 73t21.5 77q123 581 691 1140q25 18 43 18h119q18 0 35 -18
q242 -409 242 -828q0 -155 -33 -312q-10 -46 -11.5 -77t-10.5 -73q-4 -20 -28.5 -31t-104.5 -11zM884 584q-10 237 -150 484q-245 -247 -356 -484h506zM1096 1464h-554l32 152h554z" />
    <glyph glyph-name="amacron" unicode="&#x101;" horiz-adv-x="1103" 
d="M795 -14q-133 0 -133 123q0 29 6 81q-162 -204 -369 -204q-133 0 -190 92q-39 64 -39 151q0 291 203 465t470 174q131 0 239 -62q-126 -531 -126 -592q0 -62 37 -62q31 0 86 39q-30 -205 -184 -205zM387 170q109 0 215.5 134t145.5 390q-42 20 -96 20q-131 0 -241 -131.5
t-110 -276.5q0 -136 86 -136zM922 987h-554l32 152h554z" />
    <glyph glyph-name="Abreve" unicode="&#x102;" horiz-adv-x="1287" 
d="M941 -10q-81 0 -98.5 10t-17.5 25l1 7q9 42 20.5 73t21.5 77q20 96 20 194v9h-598q-45 -102 -66 -203q-10 -46 -11.5 -77t-10.5 -73q-4 -20 -28.5 -31t-103.5 -11t-96.5 10t-17.5 25l1 7q9 42 20.5 73t21.5 77q123 581 691 1140q25 18 43 18h119q18 0 35 -18
q242 -409 242 -828q0 -155 -33 -312q-10 -46 -11.5 -77t-10.5 -73q-4 -20 -28.5 -31t-104.5 -11zM884 584q-10 237 -150 484q-245 -247 -356 -484h506zM816 1470q-138 0 -206 68q-51 50 -51 147q0 34 6 73q114 0 135.5 -64t152.5 -64q128 0 179.5 64t165.5 64
q-41 -148 -144 -218t-238 -70z" />
    <glyph glyph-name="abreve" unicode="&#x103;" horiz-adv-x="1103" 
d="M795 -14q-133 0 -133 123q0 29 6 81q-162 -204 -369 -204q-133 0 -190 92q-39 64 -39 151q0 291 203 465t470 174q131 0 239 -62q-126 -531 -126 -592q0 -62 37 -62q31 0 86 39q-30 -205 -184 -205zM387 170q109 0 215.5 134t145.5 390q-42 20 -96 20q-131 0 -241 -131.5
t-110 -276.5q0 -136 86 -136zM642 993q-138 0 -206 68q-51 50 -51 147q0 34 6 73q114 0 135.5 -64t152.5 -64q128 0 179.5 64t165.5 64q-41 -148 -144 -218t-238 -70z" />
    <glyph glyph-name="Aogonek" unicode="&#x104;" horiz-adv-x="1287" 
d="M941 -10q-81 0 -98.5 10t-17.5 25l1 7q9 42 20.5 73t21.5 77q20 96 20 194v9h-598q-45 -102 -66 -203q-10 -46 -11.5 -77t-10.5 -73q-4 -20 -28.5 -31t-103.5 -11t-96.5 10t-17.5 25l1 7q9 42 20.5 73t21.5 77q123 581 691 1140q25 18 43 18h119q18 0 35 -18
q242 -409 242 -828q0 -155 -33 -312q-10 -46 -11.5 -77t-10.5 -73q-4 -20 -28.5 -31t-104.5 -11zM884 584q-10 237 -150 484q-245 -247 -356 -484h506zM822 -450q-168 0 -168 171q0 163 233 279h116q-190 -136 -190 -258q0 -70 79 -70q39 0 70 15q0 -137 -140 -137z" />
    <glyph glyph-name="aogonek" unicode="&#x105;" horiz-adv-x="1103" 
d="M795 -14q-133 0 -133 123q0 29 6 81q-162 -204 -369 -204q-133 0 -190 92q-39 64 -39 151q0 291 203 465t470 174q131 0 239 -62q-126 -531 -126 -592q0 -62 37 -62q31 0 86 39q-30 -205 -184 -205zM387 170q109 0 215.5 134t145.5 390q-42 20 -96 20q-131 0 -241 -131.5
t-110 -276.5q0 -136 86 -136zM715 -433q-168 0 -168 171q0 163 233 279h116q-190 -136 -190 -258q0 -70 79 -70q39 0 70 15q0 -137 -140 -137z" />
    <glyph glyph-name="Cacute" unicode="&#x106;" horiz-adv-x="1307" 
d="M645 -14q-324 0 -476 184q-108 130 -108 316q0 77 18 163q67 314 324 513.5t547 199.5q260 0 418 -164q-120 -148 -212 -148q-33 0 -88 62t-203 62q-169 0 -312.5 -128.5t-190.5 -351.5q-17 -78 -17 -146q0 -138 86 -258t278 -120q151 0 278 86q39 26 67 26
q86 0 115 -147q-238 -149 -524 -149zM884 1499l-11 38l76 140q75 140 302 140l11 -34l-125 -142q-126 -142 -253 -142z" />
    <glyph glyph-name="cacute" unicode="&#x107;" horiz-adv-x="841" 
d="M376 -14q-166 0 -248 117q-58 83 -58 194q0 184 154.5 382.5t371.5 198.5q174 0 239 -112q-71 -150 -120 -150q-20 0 -61 41t-104 41q-103 0 -179.5 -112t-76.5 -240q0 -187 137 -187q90 0 175 57q27 18 47 18q44 0 58 -103q-159 -145 -335 -145zM439 1023l-11 38l76 140
q75 140 302 140l11 -34l-125 -142q-126 -142 -253 -142z" />
    <glyph glyph-name="Ccircumflex" unicode="&#x108;" horiz-adv-x="1307" 
d="M645 -14q-324 0 -476 184q-108 130 -108 316q0 77 18 163q67 314 324 513.5t547 199.5q260 0 418 -164q-120 -148 -212 -148q-33 0 -88 62t-203 62q-169 0 -312.5 -128.5t-190.5 -351.5q-17 -78 -17 -146q0 -138 86 -258t278 -120q151 0 278 86q39 26 67 26
q86 0 115 -147q-238 -149 -524 -149zM1254 1482q-99 0 -174 82l-75 82l-109 -82q-108 -82 -204 -82l4 20l221 222q46 47 116 47q69 0 96 -47l129 -222z" />
    <glyph glyph-name="ccircumflex" unicode="&#x109;" horiz-adv-x="841" 
d="M376 -14q-166 0 -248 117q-58 83 -58 194q0 184 154.5 382.5t371.5 198.5q174 0 239 -112q-71 -150 -120 -150q-20 0 -61 41t-104 41q-103 0 -179.5 -112t-76.5 -240q0 -187 137 -187q90 0 175 57q27 18 47 18q44 0 58 -103q-159 -145 -335 -145zM809 1006q-99 0 -174 82
l-75 82l-109 -82q-108 -82 -204 -82l4 20l221 222q46 47 116 47q69 0 96 -47l129 -222z" />
    <glyph glyph-name="Cdotaccent" unicode="&#x10a;" horiz-adv-x="1307" 
d="M645 -14q-324 0 -476 184q-108 130 -108 316q0 77 18 163q67 314 324 513.5t547 199.5q260 0 418 -164q-120 -148 -212 -148q-33 0 -88 62t-203 62q-169 0 -312.5 -128.5t-190.5 -351.5q-17 -78 -17 -146q0 -138 86 -258t278 -120q151 0 278 86q39 26 67 26
q86 0 115 -147q-238 -149 -524 -149zM965 1464q-66 0 -103 47q-27 34 -27 78q0 86 75 148q57 47 123 47q67 0 103 -47q27 -34 27 -78q0 -86 -75 -148q-57 -47 -123 -47z" />
    <glyph glyph-name="cdotaccent" unicode="&#x10b;" horiz-adv-x="841" 
d="M376 -14q-166 0 -248 117q-58 83 -58 194q0 184 154.5 382.5t371.5 198.5q174 0 239 -112q-71 -150 -120 -150q-20 0 -61 41t-104 41q-103 0 -179.5 -112t-76.5 -240q0 -187 137 -187q90 0 175 57q27 18 47 18q44 0 58 -103q-159 -145 -335 -145zM520 988q-66 0 -103 47
q-27 34 -27 78q0 86 75 148q57 47 123 47q67 0 103 -47q27 -34 27 -78q0 -86 -75 -148q-57 -47 -123 -47z" />
    <glyph glyph-name="Ccaron" unicode="&#x10c;" horiz-adv-x="1307" 
d="M645 -14q-324 0 -476 184q-108 130 -108 316q0 77 18 163q67 314 324 513.5t547 199.5q260 0 418 -164q-120 -148 -212 -148q-33 0 -88 62t-203 62q-169 0 -312.5 -128.5t-190.5 -351.5q-17 -78 -17 -146q0 -138 86 -258t278 -120q151 0 278 86q39 26 67 26
q86 0 115 -147q-238 -149 -524 -149zM754 1771q99 0 174 -82l75 -82l109 82q108 82 204 82l-4 -20l-221 -222q-46 -47 -116 -47q-69 0 -96 47l-129 222z" />
    <glyph glyph-name="ccaron" unicode="&#x10d;" horiz-adv-x="841" 
d="M376 -14q-166 0 -248 117q-58 83 -58 194q0 184 154.5 382.5t371.5 198.5q174 0 239 -112q-71 -150 -120 -150q-20 0 -61 41t-104 41q-103 0 -179.5 -112t-76.5 -240q0 -187 137 -187q90 0 175 57q27 18 47 18q44 0 58 -103q-159 -145 -335 -145zM309 1295q99 0 174 -82
l75 -82l109 82q108 82 204 82l-4 -20l-221 -222q-46 -47 -116 -47q-69 0 -96 47l-129 222z" />
    <glyph glyph-name="Dcaron" unicode="&#x10e;" horiz-adv-x="1399" 
d="M486 199q215 0 364.5 123.5t196.5 345.5q14 65 14 124q0 128 -80.5 246t-290.5 120q-97 0 -178 -32q-31 -180 -75 -389l-79 -370q-6 -30 -6 -55q0 -113 134 -113zM414 0h-102q-233 0 -233 194q0 41 11 92q141 663 165 801q22 126 31 168q4 22 38 33q178 60 383 60
q234 0 388.5 -83.5t215.5 -230.5q38 -91 38 -195q0 -65 -15 -134q-40 -186 -173.5 -350.5t-332 -259.5t-414.5 -95zM549 1771q99 0 174 -82l75 -82l109 82q108 82 204 82l-4 -20l-221 -222q-46 -47 -116 -47q-69 0 -96 47l-129 222z" />
    <glyph glyph-name="dcaron" unicode="&#x10f;" horiz-adv-x="1119" 
d="M361 170q99 0 195.5 122t130.5 277l28 126q-47 26 -115 26q-138 0 -236.5 -115t-98.5 -290q0 -146 96 -146zM820 214q0 -62 47 -62q31 0 86 39q-40 -205 -204 -205q-123 0 -123 123q0 49 6 81q-142 -204 -339 -204q-123 0 -186 78t-63 215q0 251 168.5 416t382.5 165
q80 0 146 -29l99 447q8 36 8 82q0 41 -11 71q62 43 131 43q103 0 103 -74q0 -27 -6 -55q-245 -1080 -245 -1131zM1188 1069h-73l103 467q18 83 82 83h144l-178 -484q-24 -66 -78 -66z" />
    <glyph glyph-name="Dcroat" unicode="&#x110;" horiz-adv-x="1399" 
d="M486 199q215 0 364.5 123.5t196.5 345.5q14 65 14 124q0 128 -80.5 246t-290.5 120q-97 0 -178 -32q-31 -180 -75 -389l-79 -370q-6 -30 -6 -55q0 -113 134 -113zM414 0h-102q-233 0 -233 194q0 41 11 92q141 663 165 801q22 126 31 168q4 22 38 33q178 60 383 60
q234 0 388.5 -83.5t215.5 -230.5q38 -91 38 -195q0 -65 -15 -134q-40 -186 -173.5 -350.5t-332 -259.5t-414.5 -95zM646 598h-636q39 173 134 173h636q-39 -173 -134 -173z" />
    <glyph glyph-name="dcroat" unicode="&#x111;" horiz-adv-x="1138" 
d="M392 170q99 0 195.5 122t130.5 277l28 126q-47 26 -115 26q-138 0 -236.5 -115t-98.5 -290q0 -146 96 -146zM851 214q0 -62 47 -62q31 0 86 39q-40 -205 -204 -205q-123 0 -123 123q0 49 6 81q-142 -204 -339 -204q-123 0 -186 78t-63 215q0 251 168.5 416t382.5 165
q80 0 146 -29l99 447q8 36 8 82q0 41 -11 71q62 43 131 43q103 0 103 -74q0 -27 -6 -55q-245 -1080 -245 -1131zM1091 1134h-565q28 131 113 131h564q-28 -131 -112 -131z" />
    <glyph glyph-name="Emacron" unicode="&#x112;" horiz-adv-x="1090" 
d="M902 0h-595q-230 0 -230 193q0 42 11 93l102 483q49 228 71 355.5t31 169.5q4 20 28.5 31t89.5 11h717l-88 -227q-169 20 -531 20q-29 -165 -68 -350q335 0 468 20l-90 -231q-86 10 -421 10l-41 -194q-7 -33 -7 -60q0 -118 135 -118q291 0 425 20zM1026 1464h-554l32 152
h554z" />
    <glyph glyph-name="emacron" unicode="&#x113;" horiz-adv-x="933" 
d="M541 530.5q135 48.5 135 125.5q0 67 -76 67q-137 0 -221 -136.5t-84 -281.5q0 -64 32 -105.5t122 -41.5q72 0 134.5 21.5t94.5 21.5q67 0 67 -105q-161 -110 -348 -110q-179 0 -267 110q-60 77 -60 190q0 219 169 405t418 186q218 0 218 -200q0 -255 -469 -332
q0 137 135 185.5zM865 987h-554l32 152h554z" />
    <glyph glyph-name="Ebreve" unicode="&#x114;" horiz-adv-x="1090" 
d="M902 0h-595q-230 0 -230 193q0 42 11 93l102 483q49 228 71 355.5t31 169.5q4 20 28.5 31t89.5 11h717l-88 -227q-169 20 -531 20q-29 -165 -68 -350q335 0 468 20l-90 -231q-86 10 -421 10l-41 -194q-7 -33 -7 -60q0 -118 135 -118q291 0 425 20zM746 1470
q-138 0 -206 68q-51 50 -51 147q0 34 6 73q114 0 135.5 -64t152.5 -64q128 0 179.5 64t165.5 64q-41 -148 -144 -218t-238 -70z" />
    <glyph glyph-name="ebreve" unicode="&#x115;" horiz-adv-x="933" 
d="M541 530.5q135 48.5 135 125.5q0 67 -76 67q-137 0 -221 -136.5t-84 -281.5q0 -64 32 -105.5t122 -41.5q72 0 134.5 21.5t94.5 21.5q67 0 67 -105q-161 -110 -348 -110q-179 0 -267 110q-60 77 -60 190q0 219 169 405t418 186q218 0 218 -200q0 -255 -469 -332
q0 137 135 185.5zM585 993q-138 0 -206 68q-51 50 -51 147q0 34 6 73q114 0 135.5 -64t152.5 -64q128 0 179.5 64t165.5 64q-41 -148 -144 -218t-238 -70z" />
    <glyph glyph-name="Edotaccent" unicode="&#x116;" horiz-adv-x="1090" 
d="M902 0h-595q-230 0 -230 193q0 42 11 93l102 483q49 228 71 355.5t31 169.5q4 20 28.5 31t89.5 11h717l-88 -227q-169 20 -531 20q-29 -165 -68 -350q335 0 468 20l-90 -231q-86 10 -421 10l-41 -194q-7 -33 -7 -60q0 -118 135 -118q291 0 425 20zM744 1464
q-66 0 -103 47q-27 34 -27 78q0 86 75 148q57 47 123 47q67 0 103 -47q27 -34 27 -78q0 -86 -75 -148q-57 -47 -123 -47z" />
    <glyph glyph-name="edotaccent" unicode="&#x117;" horiz-adv-x="933" 
d="M541 530.5q135 48.5 135 125.5q0 67 -76 67q-137 0 -221 -136.5t-84 -281.5q0 -64 32 -105.5t122 -41.5q72 0 134.5 21.5t94.5 21.5q67 0 67 -105q-161 -110 -348 -110q-179 0 -267 110q-60 77 -60 190q0 219 169 405t418 186q218 0 218 -200q0 -255 -469 -332
q0 137 135 185.5zM583 987q-66 0 -103 47q-27 34 -27 78q0 86 75 148q57 47 123 47q67 0 103 -47q27 -34 27 -78q0 -86 -75 -148q-57 -47 -123 -47z" />
    <glyph glyph-name="Eogonek" unicode="&#x118;" horiz-adv-x="1090" 
d="M902 0h-595q-230 0 -230 193q0 42 11 93l102 483q49 228 71 355.5t31 169.5q4 20 28.5 31t89.5 11h717l-88 -227q-169 20 -531 20q-29 -165 -68 -350q335 0 468 20l-90 -231q-86 10 -421 10l-41 -194q-7 -33 -7 -60q0 -118 135 -118q291 0 425 20zM688 -446
q-168 0 -168 171q0 163 233 279h116q-190 -136 -190 -258q0 -70 79 -70q39 0 70 15q0 -137 -140 -137z" />
    <glyph glyph-name="eogonek" unicode="&#x119;" horiz-adv-x="933" 
d="M541 530.5q135 48.5 135 125.5q0 67 -76 67q-137 0 -221 -136.5t-84 -281.5q0 -64 32 -105.5t122 -41.5q72 0 134.5 21.5t94.5 21.5q67 0 67 -105q-161 -110 -348 -110q-179 0 -267 110q-60 77 -60 190q0 219 169 405t418 186q218 0 218 -200q0 -255 -469 -332
q0 137 135 185.5zM564 -354q-168 0 -168 171q0 163 233 279h116q-190 -136 -190 -258q0 -70 79 -70q39 0 70 15q0 -137 -140 -137z" />
    <glyph glyph-name="Ecaron" unicode="&#x11a;" horiz-adv-x="1090" 
d="M902 0h-595q-230 0 -230 193q0 42 11 93l102 483q49 228 71 355.5t31 169.5q4 20 28.5 31t89.5 11h717l-88 -227q-169 20 -531 20q-29 -165 -68 -350q335 0 468 20l-90 -231q-86 10 -421 10l-41 -194q-7 -33 -7 -60q0 -118 135 -118q291 0 425 20zM533 1771q99 0 174 -82
l75 -82l109 82q108 82 204 82l-4 -20l-221 -222q-46 -47 -116 -47q-69 0 -96 47l-129 222z" />
    <glyph glyph-name="ecaron" unicode="&#x11b;" horiz-adv-x="933" 
d="M541 530.5q135 48.5 135 125.5q0 67 -76 67q-137 0 -221 -136.5t-84 -281.5q0 -64 32 -105.5t122 -41.5q72 0 134.5 21.5t94.5 21.5q67 0 67 -105q-161 -110 -348 -110q-179 0 -267 110q-60 77 -60 190q0 219 169 405t418 186q218 0 218 -200q0 -255 -469 -332
q0 137 135 185.5zM372 1294q99 0 174 -82l75 -82l109 82q108 82 204 82l-4 -20l-221 -222q-46 -47 -116 -47q-69 0 -96 47l-129 222z" />
    <glyph glyph-name="Gcircumflex" unicode="&#x11c;" horiz-adv-x="1424" 
d="M699 -14q-227 0 -385 83q-251 130 -251 419q0 73 17 155q72 341 341 535q260 188 563 188q272 0 434 -163q-92 -172 -166 -172q-39 0 -71 28t-61 49q-95 66 -229 66q-112 0 -222 -56.5t-195 -171.5t-118 -268q-11 -53 -11 -104q0 -77 33.5 -174t145 -163t251.5 -66
q122 0 214 33l33 153q6 26 6 48q0 97 -115 97h-136q38 181 198 181h75q216 0 216 -195q0 -47 -12 -105l-54 -258q-7 -32 -40 -46q-214 -93 -461 -93zM1148 1482q-99 0 -174 82l-75 82l-109 -82q-108 -82 -204 -82l4 20l221 222q46 47 116 47q69 0 96 -47l129 -222z" />
    <glyph glyph-name="gcircumflex" unicode="&#x11d;" horiz-adv-x="1067" 
d="M417 162q121 0 267 224l63 241q-47 89 -138 89q-92 0 -172 -83t-109 -216q-12 -58 -12 -98q0 -157 101 -157zM653 169q-162 -182 -339 -182q-218 0 -218 297q0 57 13 121q28 132 102.5 237.5t175 166t205.5 60.5q138 0 195 -115q22 103 127 103q77 0 108 -52
q-47 -101 -71 -212l-140 -677q-84 -406 -464 -406q-161 0 -262 64t-101 155q0 120 149 162q70 -213 218 -213q187 0 240 226zM911 1005q-99 0 -174 82l-75 82l-109 -82q-108 -82 -204 -82l4 20l221 222q46 47 116 47q69 0 96 -47l129 -222z" />
    <glyph glyph-name="Gbreve" unicode="&#x11e;" horiz-adv-x="1424" 
d="M699 -14q-227 0 -385 83q-251 130 -251 419q0 73 17 155q72 341 341 535q260 188 563 188q272 0 434 -163q-92 -172 -166 -172q-39 0 -71 28t-61 49q-95 66 -229 66q-112 0 -222 -56.5t-195 -171.5t-118 -268q-11 -53 -11 -104q0 -77 33.5 -174t145 -163t251.5 -66
q122 0 214 33l33 153q6 26 6 48q0 97 -115 97h-136q38 181 198 181h75q216 0 216 -195q0 -47 -12 -105l-54 -258q-7 -32 -40 -46q-214 -93 -461 -93zM861 1470q-138 0 -206 68q-51 50 -51 147q0 34 6 73q114 0 135.5 -64t152.5 -64q128 0 179.5 64t165.5 64
q-41 -148 -144 -218t-238 -70z" />
    <glyph glyph-name="gbreve" unicode="&#x11f;" horiz-adv-x="1067" 
d="M417 162q121 0 267 224l63 241q-47 89 -138 89q-92 0 -172 -83t-109 -216q-12 -58 -12 -98q0 -157 101 -157zM653 169q-162 -182 -339 -182q-218 0 -218 297q0 57 13 121q28 132 102.5 237.5t175 166t205.5 60.5q138 0 195 -115q22 103 127 103q77 0 108 -52
q-47 -101 -71 -212l-140 -677q-84 -406 -464 -406q-161 0 -262 64t-101 155q0 120 149 162q70 -213 218 -213q187 0 240 226zM624 993q-138 0 -206 68q-51 50 -51 147q0 34 6 73q114 0 135.5 -64t152.5 -64q128 0 179.5 64t165.5 64q-41 -148 -144 -218t-238 -70z" />
    <glyph glyph-name="Gdotaccent" unicode="&#x120;" horiz-adv-x="1424" 
d="M699 -14q-227 0 -385 83q-251 130 -251 419q0 73 17 155q72 341 341 535q260 188 563 188q272 0 434 -163q-92 -172 -166 -172q-39 0 -71 28t-61 49q-95 66 -229 66q-112 0 -222 -56.5t-195 -171.5t-118 -268q-11 -53 -11 -104q0 -77 33.5 -174t145 -163t251.5 -66
q122 0 214 33l33 153q6 26 6 48q0 97 -115 97h-136q38 181 198 181h75q216 0 216 -195q0 -47 -12 -105l-54 -258q-7 -32 -40 -46q-214 -93 -461 -93zM859 1464q-66 0 -103 47q-27 34 -27 78q0 86 75 148q57 47 123 47q67 0 103 -47q27 -34 27 -78q0 -86 -75 -148
q-57 -47 -123 -47z" />
    <glyph glyph-name="gdotaccent" unicode="&#x121;" horiz-adv-x="1067" 
d="M417 162q121 0 267 224l63 241q-47 89 -138 89q-92 0 -172 -83t-109 -216q-12 -58 -12 -98q0 -157 101 -157zM653 169q-162 -182 -339 -182q-218 0 -218 297q0 57 13 121q28 132 102.5 237.5t175 166t205.5 60.5q138 0 195 -115q22 103 127 103q77 0 108 -52
q-47 -101 -71 -212l-140 -677q-84 -406 -464 -406q-161 0 -262 64t-101 155q0 120 149 162q70 -213 218 -213q187 0 240 226zM622 987q-66 0 -103 47q-27 34 -27 78q0 86 75 148q57 47 123 47q67 0 103 -47q27 -34 27 -78q0 -86 -75 -148q-57 -47 -123 -47z" />
    <glyph glyph-name="Gcedilla" unicode="&#x122;" horiz-adv-x="1424" 
d="M699 -14q-227 0 -385 83q-251 130 -251 419q0 73 17 155q72 341 341 535q260 188 563 188q272 0 434 -163q-92 -172 -166 -172q-39 0 -71 28t-61 49q-95 66 -229 66q-112 0 -222 -56.5t-195 -171.5t-118 -268q-11 -53 -11 -104q0 -77 33.5 -174t145 -163t251.5 -66
q122 0 214 33l33 153q6 26 6 48q0 97 -115 97h-136q38 181 198 181h75q216 0 216 -195q0 -47 -12 -105l-54 -258q-7 -32 -40 -46q-214 -93 -461 -93zM469 -505q-38 23 -38 44q0 23 55 64q49 36 74 101q-9 -2 -19 -2q-48 0 -75 32q-20 24 -20 55q0 58 53 100q41 33 89 33
q47 0 73 -33q20 -23 20 -64q0 -22 -5 -48q-37 -174 -207 -282z" />
    <glyph glyph-name="gcedilla" unicode="&#x123;" horiz-adv-x="1067" 
d="M417 162q121 0 267 224l63 241q-47 89 -138 89q-92 0 -172 -83t-109 -216q-12 -58 -12 -98q0 -157 101 -157zM653 169q-162 -182 -339 -182q-218 0 -218 297q0 57 13 121q28 132 102.5 237.5t175 166t205.5 60.5q138 0 195 -115q22 103 127 103q77 0 108 -52
q-47 -101 -71 -212l-140 -677q-84 -406 -464 -406q-161 0 -262 64t-101 155q0 120 149 162q70 -213 218 -213q187 0 240 226zM743 1407q37 -23 37 -42q0 -24 -54 -63q-47 -35 -72 -98q9 2 19 2q46 0 73 -32q19 -23 19 -53q0 -56 -52 -98q-39 -31 -86 -31q-45 0 -71 31
q-20 24 -20 63q0 21 6 47q35 169 201 274z" />
    <glyph glyph-name="Hcircumflex" unicode="&#x124;" horiz-adv-x="1525" 
d="M1075 -16q-81 0 -106 11q-21 9 -21 25q0 14 42 174q33 126 81 354l7 30h-664q-43 -184 -75 -384q-21 -126 -29 -168q-5 -20 -33.5 -31t-111.5 -11q-81 0 -106 11q-21 9 -21 25q0 14 42 174q33 126 81 354q94 435 118 582q21 126 30 168q4 20 33.5 31t110.5 11
q83 0 105.5 -10t22.5 -26q0 -11 -43 -174q-33 -125 -81 -349h664q48 224 68.5 349.5t29.5 167.5q4 20 33.5 31t110.5 11q83 0 105.5 -10t22.5 -26q0 -12 -43 -174q-34 -126 -82 -354q-94 -437 -117 -582q-21 -126 -29 -168q-5 -20 -33.5 -31t-111.5 -11zM1219 1482
q-99 0 -174 82l-75 82l-109 -82q-108 -82 -204 -82l4 20l221 222q46 47 116 47q69 0 96 -47l129 -222z" />
    <glyph glyph-name="hcircumflex" unicode="&#x125;" horiz-adv-x="1124" 
d="M436 662q185 215 375 215q86 0 135 -48t49 -126q0 -79 -58 -270.5t-58 -236.5q0 -44 37 -44q30 0 86 39q-30 -205 -205 -205q-141 0 -141 129q0 52 57 252t57 254q0 69 -63 69q-115 0 -237 -195.5t-179 -494.5h-213q258 1164 284 1280q8 34 8 80q0 41 -11 71
q62 43 131 43q103 0 103 -77q0 -27 -4 -49t-153 -686zM1020 1590q-99 0 -174 82l-75 82l-109 -82q-108 -82 -204 -82l4 20l221 222q46 47 116 47q69 0 96 -47l129 -222z" />
    <glyph glyph-name="Hbar" unicode="&#x126;" horiz-adv-x="1472" 
d="M1036 -16q-81 0 -106 11q-21 9 -21 25q0 14 42 174q14 52 30 122h-625q-13 -70 -21 -122q-21 -126 -29 -168q-5 -20 -33.5 -31t-111.5 -11q-81 0 -106 11q-21 9 -21 25q0 14 42 174q33 126 81 354q94 435 118 582q21 126 30 168q4 20 33.5 31t110.5 11q83 0 105.5 -10
t22.5 -26q0 -11 -43 -174q-12 -45 -26 -104h624q11 59 18 104q21 126 30 168q4 20 33.5 31t110.5 11q83 0 105.5 -10t22.5 -26q0 -12 -43 -174q-34 -126 -82 -354q-94 -437 -117 -582q-21 -126 -29 -168q-5 -20 -33.5 -31t-111.5 -11zM1025 513l67 316h-629l-67 -316h629z
" />
    <glyph glyph-name="hbar" unicode="&#x127;" horiz-adv-x="1124" 
d="M436 662q185 215 375 215q86 0 135 -48t49 -126q0 -79 -58 -270.5t-58 -236.5q0 -44 37 -44q30 0 86 39q-30 -205 -205 -205q-141 0 -141 129q0 52 57 252t57 254q0 69 -63 69q-115 0 -237 -195.5t-179 -494.5h-213q258 1164 284 1280q8 34 8 80q0 41 -11 71
q62 43 131 43q103 0 103 -77q0 -27 -4 -49t-153 -686zM761 1134h-565q28 131 113 131h564q-28 -131 -112 -131z" />
    <glyph glyph-name="Itilde" unicode="&#x128;" horiz-adv-x="615" 
d="M161 -16q-81 0 -106 11q-21 9 -21 25q0 14 42 174q38 145 130 582q49 228 69.5 354t29.5 168q4 20 33.5 31t110.5 11q83 0 105.5 -10t22.5 -26q0 -11 -43 -174q-38 -145 -130 -582q-49 -228 -69.5 -354t-29.5 -168q-4 -20 -33 -31t-111 -11zM605 1461q-74 0 -124.5 55.5
t-106.5 55.5q-71 0 -114.5 -47t-107.5 -47q91 221 244 221q76 0 127.5 -55.5t105.5 -55.5q69 0 112.5 47t107.5 47q-91 -221 -244 -221z" />
    <glyph glyph-name="itilde" unicode="&#x129;" horiz-adv-x="534" 
d="M291 196q0 -44 32 -44q35 0 90 39q-30 -205 -205 -205q-144 0 -144 136q0 56 114 558q8 34 8 80q0 41 -11 71q62 43 131 43q103 0 103 -77q0 -27 -6 -55q-2 -9 -57 -259t-55 -287zM466 984q-74 0 -124.5 55.5t-106.5 55.5q-71 0 -114.5 -47t-107.5 -47q91 221 244 221
q76 0 127.5 -55.5t105.5 -55.5q69 0 112.5 47t107.5 47q-91 -221 -244 -221z" />
    <glyph glyph-name="Imacron" unicode="&#x12a;" horiz-adv-x="615" 
d="M161 -16q-81 0 -106 11q-21 9 -21 25q0 14 42 174q38 145 130 582q49 228 69.5 354t29.5 168q4 20 33.5 31t110.5 11q83 0 105.5 -10t22.5 -26q0 -11 -43 -174q-38 -145 -130 -582q-49 -228 -69.5 -354t-29.5 -168q-4 -20 -33 -31t-111 -11zM753 1464h-554l32 152h554z
" />
    <glyph glyph-name="imacron" unicode="&#x12b;" horiz-adv-x="534" 
d="M291 196q0 -44 32 -44q35 0 90 39q-30 -205 -205 -205q-144 0 -144 136q0 56 114 558q8 34 8 80q0 41 -11 71q62 43 131 43q103 0 103 -77q0 -27 -6 -55q-2 -9 -57 -259t-55 -287zM614 987h-554l32 152h554z" />
    <glyph glyph-name="Ibreve" unicode="&#x12c;" horiz-adv-x="615" 
d="M161 -16q-81 0 -106 11q-21 9 -21 25q0 14 42 174q38 145 130 582q49 228 69.5 354t29.5 168q4 20 33.5 31t110.5 11q83 0 105.5 -10t22.5 -26q0 -11 -43 -174q-38 -145 -130 -582q-49 -228 -69.5 -354t-29.5 -168q-4 -20 -33 -31t-111 -11zM473 1470q-138 0 -206 68
q-51 50 -51 147q0 34 6 73q114 0 135.5 -64t152.5 -64q128 0 179.5 64t165.5 64q-41 -148 -144 -218t-238 -70z" />
    <glyph glyph-name="ibreve" unicode="&#x12d;" horiz-adv-x="534" 
d="M291 196q0 -44 32 -44q35 0 90 39q-30 -205 -205 -205q-144 0 -144 136q0 56 114 558q8 34 8 80q0 41 -11 71q62 43 131 43q103 0 103 -77q0 -27 -6 -55q-2 -9 -57 -259t-55 -287zM334 993q-138 0 -206 68q-51 50 -51 147q0 34 6 73q114 0 135.5 -64t152.5 -64
q128 0 179.5 64t165.5 64q-41 -148 -144 -218t-238 -70z" />
    <glyph glyph-name="Iogonek" unicode="&#x12e;" horiz-adv-x="615" 
d="M161 -16q-81 0 -106 11q-21 9 -21 25q0 14 42 174q38 145 130 582q49 228 69.5 354t29.5 168q4 20 33.5 31t110.5 11q83 0 105.5 -10t22.5 -26q0 -11 -43 -174q-38 -145 -130 -582q-49 -228 -69.5 -354t-29.5 -168q-4 -20 -33 -31t-111 -11zM89 -450q-168 0 -168 171
q0 163 233 279h116q-190 -136 -190 -258q0 -70 79 -70q39 0 70 15q0 -137 -140 -137z" />
    <glyph glyph-name="iogonek" unicode="&#x12f;" horiz-adv-x="541" 
d="M323 1040q-66 0 -103 47q-27 34 -27 78q0 86 75 148q57 47 123 47q67 0 103 -47q27 -34 27 -78q0 -86 -75 -148q-57 -47 -123 -47zM308 196q0 -44 32 -44q35 0 90 39q-30 -205 -205 -205q-144 0 -144 136q0 56 114 558q8 34 8 80q0 41 -11 71q62 43 131 43q103 0 103 -77
q0 -27 -6 -55q-2 -9 -57 -259t-55 -287zM165 -428q-168 0 -168 171q0 163 233 279h116q-190 -136 -190 -258q0 -70 79 -70q39 0 70 15q0 -137 -140 -137z" />
    <glyph glyph-name="Idotaccent" unicode="&#x130;" horiz-adv-x="615" 
d="M161 -16q-81 0 -106 11q-21 9 -21 25q0 14 42 174q38 145 130 582q49 228 69.5 354t29.5 168q4 20 33.5 31t110.5 11q83 0 105.5 -10t22.5 -26q0 -11 -43 -174q-38 -145 -130 -582q-49 -228 -69.5 -354t-29.5 -168q-4 -20 -33 -31t-111 -11zM471 1464q-66 0 -103 47
q-27 34 -27 78q0 86 75 148q57 47 123 47q67 0 103 -47q27 -34 27 -78q0 -86 -75 -148q-57 -47 -123 -47z" />
    <glyph glyph-name="idotless" unicode="&#x131;" horiz-adv-x="534" 
d="M291 196q0 -44 32 -44q35 0 90 39q-30 -205 -205 -205q-144 0 -144 136q0 56 114 558q8 34 8 80q0 41 -11 71q62 43 131 43q103 0 103 -77q0 -27 -6 -55q-2 -9 -57 -259t-55 -287z" />
    <glyph glyph-name="IJ" unicode="&#x132;" horiz-adv-x="1268" 
d="M161 -16q-81 0 -106 11q-21 9 -21 25q0 14 42 174q38 145 130 582q49 228 69.5 354t29.5 168q4 20 33.5 31t110.5 11q83 0 105.5 -10t22.5 -26q0 -11 -43 -174q-38 -145 -130 -582q-49 -228 -69.5 -354t-29.5 -168q-4 -20 -33 -31t-111 -11zM407 -431q-31 29 -31 63
q0 69 130 132q162 79 220 353l140 659q48 228 70 354t31 168q4 20 48.5 31t110.5 11q67 0 84.5 -10t17.5 -25q0 -11 -42 -175q-32 -126 -80 -354l-142 -669q-97 -457 -557 -538z" />
    <glyph glyph-name="ij" unicode="&#x133;" horiz-adv-x="1046" 
d="M323 1040q-66 0 -103 47q-27 34 -27 78q0 86 75 148q57 47 123 47q67 0 103 -47q27 -34 27 -78q0 -86 -75 -148q-57 -47 -123 -47zM308 196q0 -44 32 -44q35 0 90 39q-30 -205 -205 -205q-144 0 -144 136q0 56 114 558q8 34 8 80q0 41 -11 71q62 43 131 43q103 0 103 -77
q0 -27 -6 -55q-2 -9 -57 -259t-55 -287zM859 1040q-66 0 -103 47q-27 34 -27 78q0 86 75 148q57 47 123 47q67 0 103 -47q27 -34 27 -78q0 -86 -75 -148q-57 -47 -123 -47zM742 660q8 34 8 80q0 41 -21 81q62 53 151 53q93 0 93 -77q0 -27 -6 -55q-2 -8 -143 -660
q-101 -468 -465 -573q-66 23 -66 76q0 55 130.5 142t211.5 452z" />
    <glyph glyph-name="Jcircumflex" unicode="&#x134;" horiz-adv-x="627" 
d="M-234 -431q-31 29 -31 63q0 69 130 132q162 79 220 353l140 659q48 228 70 354t31 168q4 20 48.5 31t110.5 11q67 0 84.5 -10t17.5 -25q0 -11 -42 -175q-32 -126 -80 -354l-142 -669q-97 -457 -557 -538zM763 1482q-99 0 -174 82l-75 82l-109 -82q-108 -82 -204 -82l4 20
l221 222q46 47 116 47q69 0 96 -47l129 -222z" />
    <glyph glyph-name="jcircumflex" unicode="&#x135;" horiz-adv-x="528" 
d="M218 660q8 34 8 80q0 41 -21 81q62 53 151 53q93 0 93 -77q0 -27 -6 -55q-2 -8 -143 -660q-101 -468 -465 -573q-66 23 -66 76q0 55 130.5 142t211.5 452zM651 1005q-99 0 -174 82l-75 82l-109 -82q-108 -82 -204 -82l4 20l221 222q46 47 116 47q69 0 96 -47l129 -222z
" />
    <glyph glyph-name="Kcedilla" unicode="&#x136;" horiz-adv-x="1224" 
d="M866 -16q-72 0 -96 11q-19 9 -19 31l1 10q9 76 9 144q0 400 -256 400h-94q-55 -260 -77 -386t-30 -168q-5 -20 -28.5 -31t-120.5 -11q-86 0 -106 11q-16 9 -16 23q0 15 41 176q32 126 104.5 468t94.5 468t31 168q4 20 28.5 31t110.5 11q97 0 114.5 -10t17.5 -25
q0 -11 -42 -175q-32 -126 -79 -350h24q76 0 207 106t286 390q24 42 58.5 53t106.5 11q82 0 103 -11q13 -6 13 -19q0 -31 -132 -247q-124 -203 -319 -328q90 -39 131 -115q86 -158 86 -354q0 -200 -4 -220q-9 -40 -37 -51t-111 -11zM379 -505q-38 23 -38 44q0 23 55 64
q49 36 74 101q-9 -2 -19 -2q-48 0 -75 32q-20 24 -20 55q0 58 53 100q41 33 89 33q47 0 73 -33q20 -23 20 -64q0 -22 -5 -48q-37 -174 -207 -282z" />
    <glyph glyph-name="kcedilla" unicode="&#x137;" horiz-adv-x="1069" 
d="M377 451q309 419 519 419q88 0 165 -67q-212 -101 -364 -240l63 -291q23 -106 90 -106q49 0 122 45q-30 -225 -212 -225q-154 0 -190 239l-31 211q-180 -165 -250 -436h-201q119 612 271 1280q8 34 8 80q0 41 -11 71q62 43 131 43q103 0 103 -77q0 -27 -5 -53
q-2 -9 -66 -289t-142 -604zM302 -505q-38 23 -38 44q0 23 55 64q49 36 74 101q-9 -2 -19 -2q-48 0 -75 32q-20 24 -20 55q0 58 53 100q41 33 89 33q47 0 73 -33q20 -23 20 -64q0 -22 -5 -48q-37 -174 -207 -282z" />
    <glyph glyph-name="kra" unicode="&#x138;" horiz-adv-x="1025" 
d="M330 451q309 419 519 419q88 0 165 -67q-212 -101 -364 -240l63 -291q23 -106 90 -106q49 0 122 45q-30 -225 -212 -225q-154 0 -190 239l-31 211q-180 -165 -250 -436h-201q99 518 141 691q8 33 8 79q0 41 -11 71q62 43 131 43q103 0 103 -77q0 -27 -5 -56
q-2 -10 -78 -300z" />
    <glyph glyph-name="Lacute" unicode="&#x139;" horiz-adv-x="1076" 
d="M783 0h-478q-232 0 -232 179q0 35 9 77l111 520q48 228 70 354t31 168q4 20 28.5 31t119.5 11q87 0 104.5 -10t17.5 -25q0 -11 -42 -175q-32 -126 -80 -354l-81 -382q-7 -33 -7 -60q0 -118 136 -118q334 0 491 20l-49 -130q-41 -106 -149 -106zM495 1499l-11 38l76 140
q75 140 302 140l11 -34l-125 -142q-126 -142 -253 -142z" />
    <glyph glyph-name="lacute" unicode="&#x13a;" horiz-adv-x="600" 
d="M334 196q0 -44 32 -44q35 0 90 39q-30 -205 -205 -205q-144 0 -144 136q0 56 247 1158q8 34 8 80q0 41 -11 71q62 43 131 43q103 0 103 -77q0 -27 -6 -55q-2 -9 -123.5 -559t-121.5 -587zM437 1628l-11 38l76 140q75 140 302 140l11 -34l-125 -142q-126 -142 -253 -142z
" />
    <glyph glyph-name="Lcedilla" unicode="&#x13b;" horiz-adv-x="1076" 
d="M783 0h-478q-232 0 -232 179q0 35 9 77l111 520q48 228 70 354t31 168q4 20 28.5 31t119.5 11q87 0 104.5 -10t17.5 -25q0 -11 -42 -175q-32 -126 -80 -354l-81 -382q-7 -33 -7 -60q0 -118 136 -118q334 0 491 20l-49 -130q-41 -106 -149 -106zM344 -505q-38 23 -38 44
q0 23 55 64q49 36 74 101q-9 -2 -19 -2q-48 0 -75 32q-20 24 -20 55q0 58 53 100q41 33 89 33q47 0 73 -33q20 -23 20 -64q0 -22 -5 -48q-37 -174 -207 -282z" />
    <glyph glyph-name="lcedilla" unicode="&#x13c;" horiz-adv-x="600" 
d="M334 196q0 -44 32 -44q35 0 90 39q-30 -205 -205 -205q-144 0 -144 136q0 56 247 1158q8 34 8 80q0 41 -11 71q62 43 131 43q103 0 103 -77q0 -27 -6 -55q-2 -9 -123.5 -559t-121.5 -587zM85 -505q-38 23 -38 44q0 23 55 64q49 36 74 101q-9 -2 -19 -2q-48 0 -75 32
q-20 24 -20 55q0 58 53 100q41 33 89 33q47 0 73 -33q20 -23 20 -64q0 -22 -5 -48q-37 -174 -207 -282z" />
    <glyph glyph-name="Lcaron" unicode="&#x13d;" horiz-adv-x="1076" 
d="M783 0h-478q-232 0 -232 179q0 35 9 77l111 520q48 228 70 354t31 168q4 20 28.5 31t119.5 11q87 0 104.5 -10t17.5 -25q0 -11 -42 -175q-32 -126 -80 -354l-81 -382q-7 -33 -7 -60q0 -118 136 -118q334 0 491 20l-49 -130q-41 -106 -149 -106zM739 1169h-73l103 467
q18 83 82 83h144l-178 -484q-24 -66 -78 -66z" />
    <glyph glyph-name="lcaron" unicode="&#x13e;" horiz-adv-x="600" 
d="M294 196q0 -44 32 -44q35 0 90 39q-30 -205 -205 -205q-144 0 -144 136q0 56 247 1158q8 34 8 80q0 41 -11 71q62 43 131 43q103 0 103 -77q0 -27 -6 -55q-2 -9 -123.5 -559t-121.5 -587zM670 1169h-73l103 467q18 83 82 83h144l-178 -484q-24 -66 -78 -66z" />
    <glyph glyph-name="Lmiddledot" unicode="&#x13f;" horiz-adv-x="1076" 
d="M783 0h-478q-232 0 -232 179q0 35 9 77l111 520q48 228 70 354t31 168q4 20 28.5 31t119.5 11q87 0 104.5 -10t17.5 -25q0 -11 -42 -175q-32 -126 -80 -354l-81 -382q-7 -33 -7 -60q0 -118 136 -118q334 0 491 20l-49 -130q-41 -106 -149 -106zM713 569q-66 0 -103 47
q-27 34 -27 78q0 86 75 148q57 47 123 47q67 0 103 -47q27 -34 27 -78q0 -86 -75 -148q-57 -47 -123 -47z" />
    <glyph glyph-name="lmiddledot" unicode="&#x140;" horiz-adv-x="911" 
d="M334 196q0 -44 32 -44q35 0 90 39q-30 -205 -205 -205q-144 0 -144 136q0 56 247 1158q8 34 8 80q0 41 -11 71q62 43 131 43q103 0 103 -77q0 -27 -6 -55q-2 -9 -123.5 -559t-121.5 -587zM709 569q-66 0 -103 47q-27 34 -27 78q0 86 75 148q57 47 123 47q67 0 103 -47
q27 -34 27 -78q0 -86 -75 -148q-57 -47 -123 -47z" />
    <glyph glyph-name="Lslash" unicode="&#x141;" horiz-adv-x="1076" 
d="M783 0h-478q-232 0 -232 179q0 35 9 77l111 520q48 228 70 354t31 168q4 20 28.5 31t119.5 11q87 0 104.5 -10t17.5 -25q0 -11 -42 -175q-32 -126 -80 -354l-81 -382q-7 -33 -7 -60q0 -118 136 -118q334 0 491 20l-49 -130q-41 -106 -149 -106zM-40 482l-45 81l779 414
l45 -81z" />
    <glyph glyph-name="lslash" unicode="&#x142;" horiz-adv-x="600" 
d="M334 196q0 -44 32 -44q35 0 90 39q-30 -205 -205 -205q-144 0 -144 136q0 56 247 1158q8 34 8 80q0 41 -11 71q62 43 131 43q103 0 103 -77q0 -27 -6 -55q-2 -9 -123.5 -559t-121.5 -587zM-3 483l-45 81l779 414l45 -81z" />
    <glyph glyph-name="Nacute" unicode="&#x143;" horiz-adv-x="1589" 
d="M1137 -16q-86 0 -136 37t-85 143q-176 532 -431 828q-27 -111 -62 -276q-83 -385 -101 -522q-17 -126 -25 -168q-5 -20 -28.5 -31t-110.5 -11q-86 0 -106 11q-16 9 -16 23q0 15 41 176q32 126 80 354q93 431 119 582q22 126 31 168q4 20 28.5 31t105.5 11q82 0 132 -30.5
t105 -113.5q263 -393 422 -810q20 84 51 232q77 360 104 512q22 126 31 168q4 20 28.5 31t110.5 11q87 0 104.5 -10t17.5 -25q0 -11 -42 -175q-32 -126 -80 -354q-93 -431 -119 -582l-30 -168q-5 -20 -28.5 -31t-110.5 -11zM852 1499l-11 38l76 140q75 140 302 140l11 -34
l-125 -142q-126 -142 -253 -142z" />
    <glyph glyph-name="nacute" unicode="&#x144;" horiz-adv-x="1109" 
d="M792 877q194 0 194 -174q0 -69 -58 -260.5t-58 -241.5q0 -49 37 -49q30 0 86 39q-30 -205 -195 -205q-151 0 -151 129q0 72 57 252t57 254q0 69 -63 69q-115 0 -237 -192q-111 -174 -179 -498h-211q144 661 150 689q8 36 8 81q0 41 -11 71q62 43 121 43q103 0 103 -77
q0 -27 -6 -55l-23 -104h1q194 229 378 229zM624 1022l-11 38l76 140q75 140 302 140l11 -34l-125 -142q-126 -142 -253 -142z" />
    <glyph glyph-name="Ncedilla" unicode="&#x145;" horiz-adv-x="1589" 
d="M1137 -16q-86 0 -136 37t-85 143q-176 532 -431 828q-27 -111 -62 -276q-83 -385 -101 -522q-17 -126 -25 -168q-5 -20 -28.5 -31t-110.5 -11q-86 0 -106 11q-16 9 -16 23q0 15 41 176q32 126 80 354q93 431 119 582q22 126 31 168q4 20 28.5 31t105.5 11q82 0 132 -30.5
t105 -113.5q263 -393 422 -810q20 84 51 232q77 360 104 512q22 126 31 168q4 20 28.5 31t110.5 11q87 0 104.5 -10t17.5 -25q0 -11 -42 -175q-32 -126 -80 -354q-93 -431 -119 -582l-30 -168q-5 -20 -28.5 -31t-110.5 -11zM513 -505q-38 23 -38 44q0 23 55 64q49 36 74 101
q-9 -2 -19 -2q-48 0 -75 32q-20 24 -20 55q0 58 53 100q41 33 89 33q47 0 73 -33q20 -23 20 -64q0 -22 -5 -48q-37 -174 -207 -282z" />
    <glyph glyph-name="ncedilla" unicode="&#x146;" horiz-adv-x="1109" 
d="M792 877q194 0 194 -174q0 -69 -58 -260.5t-58 -241.5q0 -49 37 -49q30 0 86 39q-30 -205 -195 -205q-151 0 -151 129q0 72 57 252t57 254q0 69 -63 69q-115 0 -237 -192q-111 -174 -179 -498h-211q144 661 150 689q8 36 8 81q0 41 -11 71q62 43 121 43q103 0 103 -77
q0 -27 -6 -55l-23 -104h1q194 229 378 229zM339 -505q-38 23 -38 44q0 23 55 64q49 36 74 101q-9 -2 -19 -2q-48 0 -75 32q-20 24 -20 55q0 58 53 100q41 33 89 33q47 0 73 -33q20 -23 20 -64q0 -22 -5 -48q-37 -174 -207 -282z" />
    <glyph glyph-name="Ncaron" unicode="&#x147;" horiz-adv-x="1589" 
d="M1137 -16q-86 0 -136 37t-85 143q-176 532 -431 828q-27 -111 -62 -276q-83 -385 -101 -522q-17 -126 -25 -168q-5 -20 -28.5 -31t-110.5 -11q-86 0 -106 11q-16 9 -16 23q0 15 41 176q32 126 80 354q93 431 119 582q22 126 31 168q4 20 28.5 31t105.5 11q82 0 132 -30.5
t105 -113.5q263 -393 422 -810q20 84 51 232q77 360 104 512q22 126 31 168q4 20 28.5 31t110.5 11q87 0 104.5 -10t17.5 -25q0 -11 -42 -175q-32 -126 -80 -354q-93 -431 -119 -582l-30 -168q-5 -20 -28.5 -31t-110.5 -11zM722 1771q99 0 174 -82l75 -82l109 82
q108 82 204 82l-4 -20l-221 -222q-46 -47 -116 -47q-69 0 -96 47l-129 222z" />
    <glyph glyph-name="ncaron" unicode="&#x148;" horiz-adv-x="1109" 
d="M792 877q194 0 194 -174q0 -69 -58 -260.5t-58 -241.5q0 -49 37 -49q30 0 86 39q-30 -205 -195 -205q-151 0 -151 129q0 72 57 252t57 254q0 69 -63 69q-115 0 -237 -192q-111 -174 -179 -498h-211q144 661 150 689q8 36 8 81q0 41 -11 71q62 43 121 43q103 0 103 -77
q0 -27 -6 -55l-23 -104h1q194 229 378 229zM494 1294q99 0 174 -82l75 -82l109 82q108 82 204 82l-4 -20l-221 -222q-46 -47 -116 -47q-69 0 -96 47l-129 222z" />
    <glyph glyph-name="Eng" unicode="&#x14a;" horiz-adv-x="1576" 
d="M726 -531q-20 22 -20 58q0 17 5 38q12 60 127 116q154 75 191 247q3 16 3 35q0 91 -73 259q-200 464 -455 750q-127 -612 -156 -778l-30 -168q-5 -20 -28.5 -31t-90.5 -11q-86 0 -106 11q-16 9 -16 23q0 15 41 176q32 126 80 354q93 431 119 582q22 126 31 168
q4 20 28.5 31t110.5 11q57 0 107 -30.5t101 -111.5q256 -405 444 -812q121 623 142 744q22 126 31 168q4 20 28.5 31t95.5 11q87 0 104.5 -10t17.5 -25q0 -11 -42 -175q-32 -126 -80 -354l-156 -732q-103 -487 -554 -575z" />
    <glyph glyph-name="eng" unicode="&#x14b;" horiz-adv-x="1043" 
d="M749 581q0 109 -73 109q-115 0 -237 -192q-111 -174 -179 -498h-211q144 661 150 689q8 36 8 81q0 41 -11 71q62 43 121 43q103 0 103 -77q0 -27 -6 -55l-23 -104h1q194 229 378 229q204 0 204 -234q0 -229 -114 -619t-478 -515q-66 23 -66 76q0 55 130.5 142
t216.5 368.5t86 485.5z" />
    <glyph glyph-name="Omacron" unicode="&#x14c;" horiz-adv-x="1577" 
d="M613 -18q-197 0 -330.5 90.5t-187.5 241.5q-32 87 -32 187q0 73 17 152q43 201 174.5 359.5t313 247t377.5 88.5q198 0 333 -89t189 -243q32 -89 32 -189q0 -73 -17 -152q-43 -201 -174.5 -356t-314.5 -246t-380 -91zM698 166q179 0 315.5 124.5t180.5 333.5
q19 89 19 164q0 133 -74 252.5t-277 119.5q-180 0 -316.5 -124.5t-180.5 -333.5q-19 -88 -19 -164q0 -133 75 -252.5t277 -119.5zM1246 1464h-554l32 152h554z" />
    <glyph glyph-name="omacron" unicode="&#x14d;" horiz-adv-x="985" 
d="M369 -14q-176 0 -249 115q-50 80 -50 187q0 199 154 390.5t385 191.5q170 0 244 -103q55 -77 55 -188q0 -230 -163 -411.5t-376 -181.5zM425 158q95 0 175 112t80 277q0 158 -124 158q-108 0 -182.5 -122t-74.5 -261q0 -164 126 -164zM888 987h-554l32 152h554z" />
    <glyph glyph-name="Obreve" unicode="&#x14e;" horiz-adv-x="1577" 
d="M613 -18q-197 0 -330.5 90.5t-187.5 241.5q-32 87 -32 187q0 73 17 152q43 201 174.5 359.5t313 247t377.5 88.5q198 0 333 -89t189 -243q32 -89 32 -189q0 -73 -17 -152q-43 -201 -174.5 -356t-314.5 -246t-380 -91zM698 166q179 0 315.5 124.5t180.5 333.5
q19 89 19 164q0 133 -74 252.5t-277 119.5q-180 0 -316.5 -124.5t-180.5 -333.5q-19 -88 -19 -164q0 -133 75 -252.5t277 -119.5zM966 1470q-138 0 -206 68q-51 50 -51 147q0 34 6 73q114 0 135.5 -64t152.5 -64q128 0 179.5 64t165.5 64q-41 -148 -144 -218t-238 -70z" />
    <glyph glyph-name="obreve" unicode="&#x14f;" horiz-adv-x="985" 
d="M369 -14q-176 0 -249 115q-50 80 -50 187q0 199 154 390.5t385 191.5q170 0 244 -103q55 -77 55 -188q0 -230 -163 -411.5t-376 -181.5zM425 158q95 0 175 112t80 277q0 158 -124 158q-108 0 -182.5 -122t-74.5 -261q0 -164 126 -164zM608 993q-138 0 -206 68
q-51 50 -51 147q0 34 6 73q114 0 135.5 -64t152.5 -64q128 0 179.5 64t165.5 64q-41 -148 -144 -218t-238 -70z" />
    <glyph glyph-name="Odoubleacute" unicode="&#x150;" horiz-adv-x="1577" 
d="M613 -18q-197 0 -330.5 90.5t-187.5 241.5q-32 87 -32 187q0 73 17 152q43 201 174.5 359.5t313 247t377.5 88.5q198 0 333 -89t189 -243q32 -89 32 -189q0 -73 -17 -152q-43 -201 -174.5 -356t-314.5 -246t-380 -91zM698 166q179 0 315.5 124.5t180.5 333.5
q19 89 19 164q0 133 -74 252.5t-277 119.5q-180 0 -316.5 -124.5t-180.5 -333.5q-19 -88 -19 -164q0 -133 75 -252.5t277 -119.5zM1105 1476l-11 38l76 140q75 140 302 140l11 -34l-125 -142q-126 -142 -253 -142zM765 1476l-11 38l76 140q75 140 302 140l11 -34l-125 -142
q-126 -142 -253 -142z" />
    <glyph glyph-name="odoubleacute" unicode="&#x151;" horiz-adv-x="985" 
d="M369 -14q-176 0 -249 115q-50 80 -50 187q0 199 154 390.5t385 191.5q170 0 244 -103q55 -77 55 -188q0 -230 -163 -411.5t-376 -181.5zM425 158q95 0 175 112t80 277q0 158 -124 158q-108 0 -182.5 -122t-74.5 -261q0 -164 126 -164zM747 999l-11 38l76 140
q75 140 302 140l11 -34l-125 -142q-126 -142 -253 -142zM407 999l-11 38l76 140q75 140 302 140l11 -34l-125 -142q-126 -142 -253 -142z" />
    <glyph glyph-name="OE" unicode="&#x152;" horiz-adv-x="1853" 
d="M695 166q89 0 168 31q0 44 12 99l174 820q-77 44 -189 44q-179 0 -315.5 -124.5t-181.5 -333.5q-19 -88 -19 -164q0 -133 75 -252.5t276 -119.5zM611 -18q-197 0 -330 90.5t-188 241.5q-32 87 -32 187q0 73 17 152q43 201 174.5 359.5t313.5 247t377 88.5q122 0 168 -23
q24 11 89 11h717l-88 -227q-169 20 -531 20q-29 -165 -68 -350q335 0 468 20l-90 -231q-86 10 -421 10l-41 -194q-7 -33 -7 -60q0 -118 135 -118q291 0 425 20l-7 -226h-595q-113 0 -170 46l-1 -2q-153 -62 -315 -62z" />
    <glyph glyph-name="oe" unicode="&#x153;" horiz-adv-x="1524" 
d="M1132 530.5q135 48.5 135 125.5q0 67 -76 67q-137 0 -221 -136.5t-84 -281.5q0 -64 32 -105.5t122 -41.5q72 0 134.5 21.5t94.5 21.5q67 0 67 -105q-161 -110 -348 -110q-179 0 -267 110q-60 77 -60 190q0 219 169 405t418 186q218 0 218 -200q0 -255 -469 -332
q0 137 135 185.5zM369 -14q-176 0 -249 115q-50 80 -50 187q0 199 154 390.5t385 191.5q170 0 244 -103q55 -77 55 -188q0 -230 -163 -411.5t-376 -181.5zM425 158q95 0 175 112t80 277q0 158 -124 158q-108 0 -182.5 -122t-74.5 -261q0 -164 126 -164z" />
    <glyph glyph-name="Racute" unicode="&#x154;" horiz-adv-x="1231" 
d="M873 -16q-91 0 -110 11t-20 26l-13 294q-6 161 -215 198l-57 10q77 188 222 188q57 0 138.5 50t106.5 167q6 28 6 54q0 62 -45 112.5t-204 50.5q-79 0 -168 -21q-30 -170 -97.5 -487t-89.5 -443t-30 -168q-5 -20 -28.5 -31t-110.5 -11q-86 0 -106 11q-16 9 -16 23
q0 15 41 176q32 126 99.5 443t89 443t30.5 168q5 22 30 31q194 70 408 70q258 0 367 -104q82 -77 82 -195q0 -41 -10 -87q-61 -285 -330 -398q139 -53 154 -269q20 -237 20 -266q0 -22 -28 -35q-24 -11 -116 -11zM673 1499l-11 38l76 140q75 140 302 140l11 -34l-125 -142
q-126 -142 -253 -142z" />
    <glyph glyph-name="racute" unicode="&#x155;" horiz-adv-x="893" 
d="M419 640l-1 -3q163 240 332 240q97 0 162 -64q0 -193 -105 -193q-28 0 -67.5 25t-75.5 25q-102 0 -204 -177t-167 -450l-10 -43h-209q131 590 152 680q8 34 8 80q0 41 -11 71q62 43 131 43q93 0 93 -77q0 -27 -6 -55q-1 -6 -22 -102zM483 1022l-11 38l76 140
q75 140 302 140l11 -34l-125 -142q-126 -142 -253 -142z" />
    <glyph glyph-name="Rcedilla" unicode="&#x156;" horiz-adv-x="1231" 
d="M873 -16q-91 0 -110 11t-20 26l-13 294q-6 161 -215 198l-57 10q77 188 222 188q57 0 138.5 50t106.5 167q6 28 6 54q0 62 -45 112.5t-204 50.5q-79 0 -168 -21q-30 -170 -97.5 -487t-89.5 -443t-30 -168q-5 -20 -28.5 -31t-110.5 -11q-86 0 -106 11q-16 9 -16 23
q0 15 41 176q32 126 99.5 443t89 443t30.5 168q5 22 30 31q194 70 408 70q258 0 367 -104q82 -77 82 -195q0 -41 -10 -87q-61 -285 -330 -398q139 -53 154 -269q20 -237 20 -266q0 -22 -28 -35q-24 -11 -116 -11zM353 -505q-38 23 -38 44q0 23 55 64q49 36 74 101
q-9 -2 -19 -2q-48 0 -75 32q-20 24 -20 55q0 58 53 100q41 33 89 33q47 0 73 -33q20 -23 20 -64q0 -22 -5 -48q-37 -174 -207 -282z" />
    <glyph glyph-name="rcedilla" unicode="&#x157;" horiz-adv-x="893" 
d="M419 640l-1 -3q163 240 332 240q97 0 162 -64q0 -193 -105 -193q-28 0 -67.5 25t-75.5 25q-102 0 -204 -177t-167 -450l-10 -43h-209q131 590 152 680q8 34 8 80q0 41 -11 71q62 43 131 43q93 0 93 -77q0 -27 -6 -55q-1 -6 -22 -102zM199 -505q-38 23 -38 44q0 23 55 64
q49 36 74 101q-9 -2 -19 -2q-48 0 -75 32q-20 24 -20 55q0 58 53 100q41 33 89 33q47 0 73 -33q20 -23 20 -64q0 -22 -5 -48q-37 -174 -207 -282z" />
    <glyph glyph-name="Rcaron" unicode="&#x158;" horiz-adv-x="1231" 
d="M873 -16q-91 0 -110 11t-20 26l-13 294q-6 161 -215 198l-57 10q77 188 222 188q57 0 138.5 50t106.5 167q6 28 6 54q0 62 -45 112.5t-204 50.5q-79 0 -168 -21q-30 -170 -97.5 -487t-89.5 -443t-30 -168q-5 -20 -28.5 -31t-110.5 -11q-86 0 -106 11q-16 9 -16 23
q0 15 41 176q32 126 99.5 443t89 443t30.5 168q5 22 30 31q194 70 408 70q258 0 367 -104q82 -77 82 -195q0 -41 -10 -87q-61 -285 -330 -398q139 -53 154 -269q20 -237 20 -266q0 -22 -28 -35q-24 -11 -116 -11zM543 1771q99 0 174 -82l75 -82l109 82q108 82 204 82l-4 -20
l-221 -222q-46 -47 -116 -47q-69 0 -96 47l-129 222z" />
    <glyph glyph-name="rcaron" unicode="&#x159;" horiz-adv-x="893" 
d="M419 640l-1 -3q163 240 332 240q97 0 162 -64q0 -193 -105 -193q-28 0 -67.5 25t-75.5 25q-102 0 -204 -177t-167 -450l-10 -43h-209q131 590 152 680q8 34 8 80q0 41 -11 71q62 43 131 43q93 0 93 -77q0 -27 -6 -55q-1 -6 -22 -102zM353 1294q99 0 174 -82l75 -82
l109 82q108 82 204 82l-4 -20l-221 -222q-46 -47 -116 -47q-69 0 -96 47l-129 222z" />
    <glyph glyph-name="Sacute" unicode="&#x15a;" horiz-adv-x="1057" 
d="M349 -14q-260 0 -388 122q44 207 142 207q51 0 123.5 -62t177.5 -62q207 0 239 151q3 14 3 27q0 125 -241 240q-222 105 -222 298q0 39 9 82q36 167 192 262t334 95q195 0 334 -84q-43 -202 -143 -202q-42 0 -100.5 38.5t-161.5 38.5q-187 0 -218 -143q-2 -10 -2 -20
q0 -111 249 -231q229 -110 229 -303q0 -37 -9 -78q-41 -194 -188 -285t-359 -91zM604 1499l-11 38l76 140q75 140 302 140l11 -34l-125 -142q-126 -142 -253 -142z" />
    <glyph glyph-name="sacute" unicode="&#x15b;" horiz-adv-x="788" 
d="M301 -14q-161 0 -274 102q32 128 105 128q36 0 89.5 -29t112.5 -29q109 0 109 95q0 71 -132 144.5t-132 204.5q0 118 91 196.5t240 78.5q125 0 240 -68q-23 -144 -85 -144q-31 0 -76.5 24t-105.5 24q-109 0 -109 -83q0 -63 138 -141t138 -197q0 -132 -100 -219t-249 -87z
M425 1022l-11 38l76 140q75 140 302 140l11 -34l-125 -142q-126 -142 -253 -142z" />
    <glyph glyph-name="Scircumflex" unicode="&#x15c;" horiz-adv-x="1057" 
d="M349 -14q-260 0 -388 122q44 207 142 207q51 0 123.5 -62t177.5 -62q207 0 239 151q3 14 3 27q0 125 -241 240q-222 105 -222 298q0 39 9 82q36 167 192 262t334 95q195 0 334 -84q-43 -202 -143 -202q-42 0 -100.5 38.5t-161.5 38.5q-187 0 -218 -143q-2 -10 -2 -20
q0 -111 249 -231q229 -110 229 -303q0 -37 -9 -78q-41 -194 -188 -285t-359 -91zM974 1482q-99 0 -174 82l-75 82l-109 -82q-108 -82 -204 -82l4 20l221 222q46 47 116 47q69 0 96 -47l129 -222z" />
    <glyph glyph-name="scircumflex" unicode="&#x15d;" horiz-adv-x="788" 
d="M301 -14q-161 0 -274 102q32 128 105 128q36 0 89.5 -29t112.5 -29q109 0 109 95q0 71 -132 144.5t-132 204.5q0 118 91 196.5t240 78.5q125 0 240 -68q-23 -144 -85 -144q-31 0 -76.5 24t-105.5 24q-109 0 -109 -83q0 -63 138 -141t138 -197q0 -132 -100 -219t-249 -87z
M795 1005q-99 0 -174 82l-75 82l-109 -82q-108 -82 -204 -82l4 20l221 222q46 47 116 47q69 0 96 -47l129 -222z" />
    <glyph glyph-name="Scedilla" unicode="&#x15e;" horiz-adv-x="1057" 
d="M349 -14q-260 0 -388 122q44 207 142 207q51 0 123.5 -62t177.5 -62q207 0 239 151q3 14 3 27q0 125 -241 240q-222 105 -222 298q0 39 9 82q36 167 192 262t334 95q195 0 334 -84q-43 -202 -143 -202q-42 0 -100.5 38.5t-161.5 38.5q-187 0 -218 -143q-2 -10 -2 -20
q0 -111 249 -231q229 -110 229 -303q0 -37 -9 -78q-41 -194 -188 -285t-359 -91zM219 -474q-117 0 -209 53q23 107 95 107q29 0 64 -14.5t81 -14.5q124 0 124 90q0 66 -167 88l116 165h138l-58 -88q127 -21 127 -135q0 -101 -75.5 -176t-235.5 -75z" />
    <glyph glyph-name="scedilla" unicode="&#x15f;" horiz-adv-x="788" 
d="M301 -14q-161 0 -274 102q32 128 105 128q36 0 89.5 -29t112.5 -29q109 0 109 95q0 71 -132 144.5t-132 204.5q0 118 91 196.5t240 78.5q125 0 240 -68q-23 -144 -85 -144q-31 0 -76.5 24t-105.5 24q-109 0 -109 -83q0 -63 138 -141t138 -197q0 -132 -100 -219t-249 -87z
M155 -474q-117 0 -209 53q23 107 95 107q29 0 64 -14.5t81 -14.5q124 0 124 90q0 66 -167 88l116 165h138l-58 -88q127 -21 127 -135q0 -101 -75.5 -176t-235.5 -75z" />
    <glyph glyph-name="Scaron" unicode="&#x160;" horiz-adv-x="1057" 
d="M349 -14q-260 0 -388 122q44 207 142 207q51 0 123.5 -62t177.5 -62q207 0 239 151q3 14 3 27q0 125 -241 240q-222 105 -222 298q0 39 9 82q36 167 192 262t334 95q195 0 334 -84q-43 -202 -143 -202q-42 0 -100.5 38.5t-161.5 38.5q-187 0 -218 -143q-2 -10 -2 -20
q0 -111 249 -231q229 -110 229 -303q0 -37 -9 -78q-41 -194 -188 -285t-359 -91zM474 1771q99 0 174 -82l75 -82l109 82q108 82 204 82l-4 -20l-221 -222q-46 -47 -116 -47q-69 0 -96 47l-129 222z" />
    <glyph glyph-name="scaron" unicode="&#x161;" horiz-adv-x="788" 
d="M301 -14q-161 0 -274 102q32 128 105 128q36 0 89.5 -29t112.5 -29q109 0 109 95q0 71 -132 144.5t-132 204.5q0 118 91 196.5t240 78.5q125 0 240 -68q-23 -144 -85 -144q-31 0 -76.5 24t-105.5 24q-109 0 -109 -83q0 -63 138 -141t138 -197q0 -132 -100 -219t-249 -87z
M295 1294q99 0 174 -82l75 -82l109 82q108 82 204 82l-4 -20l-221 -222q-46 -47 -116 -47q-69 0 -96 47l-129 222z" />
    <glyph glyph-name="Tcedilla" unicode="&#x162;" horiz-adv-x="1115" 
d="M478 -16q-96 0 -116 11q-16 9 -16 23q0 15 41 176q32 126 80 354l125 584h-165q-164 0 -310 -46l46 123q46 123 200 123h814q148 0 148 -114l-6 -132q-132 46 -300 46h-167l-125 -584q-48 -228 -70 -354t-30 -168q-5 -20 -28.5 -31t-120.5 -11zM309 -474q-117 0 -209 53
q23 107 95 107q29 0 64 -14.5t81 -14.5q124 0 124 90q0 66 -167 88l116 165h138l-58 -88q127 -21 127 -135q0 -101 -75.5 -176t-235.5 -75z" />
    <glyph glyph-name="tcedilla" unicode="&#x163;" horiz-adv-x="780" 
d="M353 -14q-91 0 -143.5 50.5t-52.5 147.5q0 41 11 90l102 421l-150 2q33 135 182 139l44 144q43 143 189 184l49 13l-71 -335l279 6q-51 -161 -182 -161l-131 3l-92 -391q-8 -39 -8 -66q0 -71 53 -71q50 0 96 34t86 34t58 -78q-126 -166 -319 -166zM200 -474
q-117 0 -209 53q23 107 95 107q29 0 64 -14.5t81 -14.5q124 0 124 90q0 66 -167 88l116 165h138l-58 -88q127 -21 127 -135q0 -101 -75.5 -176t-235.5 -75z" />
    <glyph glyph-name="Tcaron" unicode="&#x164;" horiz-adv-x="1115" 
d="M478 -16q-96 0 -116 11q-16 9 -16 23q0 15 41 176q32 126 80 354l125 584h-165q-164 0 -310 -46l46 123q46 123 200 123h814q148 0 148 -114l-6 -132q-132 46 -300 46h-167l-125 -584q-48 -228 -70 -354t-30 -168q-5 -20 -28.5 -31t-120.5 -11zM582 1771q99 0 174 -82
l75 -82l109 82q108 82 204 82l-4 -20l-221 -222q-46 -47 -116 -47q-69 0 -96 47l-129 222z" />
    <glyph glyph-name="tcaron" unicode="&#x165;" horiz-adv-x="780" 
d="M353 -14q-91 0 -143.5 50.5t-52.5 147.5q0 41 11 90l102 421l-150 2q33 135 182 139l44 144q43 143 189 184l49 13l-71 -335l279 6q-51 -161 -182 -161l-131 3l-92 -391q-8 -39 -8 -66q0 -71 53 -71q50 0 96 34t86 34t58 -78q-126 -166 -319 -166zM714 949h-73l103 467
q18 83 82 83h144l-178 -484q-24 -66 -78 -66z" />
    <glyph glyph-name="Tbar" unicode="&#x166;" horiz-adv-x="1115" 
d="M478 -16q-96 0 -116 11q-16 9 -16 23q0 15 41 176q32 126 80 354l125 584h-165q-164 0 -310 -46l46 123q46 123 200 123h814q148 0 148 -114l-6 -132q-132 46 -300 46h-167l-125 -584q-48 -228 -70 -354t-30 -168q-5 -20 -28.5 -31t-120.5 -11zM949 612h-746
q20 160 106 160h745q-20 -160 -105 -160z" />
    <glyph glyph-name="tbar" unicode="&#x167;" horiz-adv-x="780" 
d="M353 -14q-91 0 -143.5 50.5t-52.5 147.5q0 41 11 90l102 421l-150 2q33 135 182 139l44 144q43 143 189 184l49 13l-71 -335l279 6q-51 -161 -182 -161l-131 3l-92 -391q-8 -39 -8 -66q0 -71 53 -71q50 0 96 34t86 34t58 -78q-126 -166 -319 -166zM592 399h-555
q21 100 116 100h555q-21 -100 -116 -100z" />
    <glyph glyph-name="Utilde" unicode="&#x168;" horiz-adv-x="1444" 
d="M564 -14q-160 0 -273 65.5t-158 187.5q-23 63 -23 146q0 77 20 172q91 426 117 573q21 126 30 168q4 20 30 31t116 11t111 -11q17 -9 17 -25q0 -10 -42 -174q-21 -83 -120 -538q-15 -70 -15 -128q0 -110 67 -197t208 -87q136 0 248.5 97t150.5 278q98 460 117 575
q21 126 30 168q5 20 30.5 31t101.5 11q75 0 94.5 -10t19.5 -26q0 -11 -42 -174q-33 -126 -81 -354l-39 -184q-42 -198 -144.5 -330t-251.5 -204t-319 -72zM1022 1461q-74 0 -124.5 55.5t-106.5 55.5q-71 0 -114.5 -47t-107.5 -47q91 221 244 221q76 0 127.5 -55.5
t105.5 -55.5q69 0 112.5 47t107.5 47q-91 -221 -244 -221z" />
    <glyph glyph-name="utilde" unicode="&#x169;" horiz-adv-x="1084" 
d="M321 248q0 -76 73 -76q115 0 219.5 196t156.5 478l202 20q-131 -639 -131 -676q0 -38 36 -38q31 0 86 39q-30 -205 -186 -205q-131 0 -131 135q0 33 12 86q-147 -221 -344 -221q-95 0 -154 52.5t-59 151.5q0 60 30.5 205t62.5 285q8 34 8 80q0 41 -11 71q62 43 131 43
q103 0 103 -77q0 -27 -6 -55q-2 -9 -50 -229.5t-48 -264.5zM744 982q-74 0 -124.5 55.5t-106.5 55.5q-71 0 -114.5 -47t-107.5 -47q91 221 244 221q76 0 127.5 -55.5t105.5 -55.5q69 0 112.5 47t107.5 47q-91 -221 -244 -221z" />
    <glyph glyph-name="Umacron" unicode="&#x16a;" horiz-adv-x="1444" 
d="M564 -14q-160 0 -273 65.5t-158 187.5q-23 63 -23 146q0 77 20 172q91 426 117 573q21 126 30 168q4 20 30 31t116 11t111 -11q17 -9 17 -25q0 -10 -42 -174q-21 -83 -120 -538q-15 -70 -15 -128q0 -110 67 -197t208 -87q136 0 248.5 97t150.5 278q98 460 117 575
q21 126 30 168q5 20 30.5 31t101.5 11q75 0 94.5 -10t19.5 -26q0 -11 -42 -174q-33 -126 -81 -354l-39 -184q-42 -198 -144.5 -330t-251.5 -204t-319 -72zM1170 1464h-554l32 152h554z" />
    <glyph glyph-name="umacron" unicode="&#x16b;" horiz-adv-x="1084" 
d="M321 248q0 -76 73 -76q115 0 219.5 196t156.5 478l202 20q-131 -639 -131 -676q0 -38 36 -38q31 0 86 39q-30 -205 -186 -205q-131 0 -131 135q0 33 12 86q-147 -221 -344 -221q-95 0 -154 52.5t-59 151.5q0 60 30.5 205t62.5 285q8 34 8 80q0 41 -11 71q62 43 131 43
q103 0 103 -77q0 -27 -6 -55q-2 -9 -50 -229.5t-48 -264.5zM892 985h-554l32 152h554z" />
    <glyph glyph-name="Ubreve" unicode="&#x16c;" horiz-adv-x="1444" 
d="M564 -14q-160 0 -273 65.5t-158 187.5q-23 63 -23 146q0 77 20 172q91 426 117 573q21 126 30 168q4 20 30 31t116 11t111 -11q17 -9 17 -25q0 -10 -42 -174q-21 -83 -120 -538q-15 -70 -15 -128q0 -110 67 -197t208 -87q136 0 248.5 97t150.5 278q98 460 117 575
q21 126 30 168q5 20 30.5 31t101.5 11q75 0 94.5 -10t19.5 -26q0 -11 -42 -174q-33 -126 -81 -354l-39 -184q-42 -198 -144.5 -330t-251.5 -204t-319 -72zM890 1470q-138 0 -206 68q-51 50 -51 147q0 34 6 73q114 0 135.5 -64t152.5 -64q128 0 179.5 64t165.5 64
q-41 -148 -144 -218t-238 -70z" />
    <glyph glyph-name="ubreve" unicode="&#x16d;" horiz-adv-x="1084" 
d="M321 248q0 -76 73 -76q115 0 219.5 196t156.5 478l202 20q-131 -639 -131 -676q0 -38 36 -38q31 0 86 39q-30 -205 -186 -205q-131 0 -131 135q0 33 12 86q-147 -221 -344 -221q-95 0 -154 52.5t-59 151.5q0 60 30.5 205t62.5 285q8 34 8 80q0 41 -11 71q62 43 131 43
q103 0 103 -77q0 -27 -6 -55q-2 -9 -50 -229.5t-48 -264.5zM612 991q-138 0 -206 68q-51 50 -51 147q0 34 6 73q114 0 135.5 -64t152.5 -64q128 0 179.5 64t165.5 64q-41 -148 -144 -218t-238 -70z" />
    <glyph glyph-name="Uring" unicode="&#x16e;" horiz-adv-x="1444" 
d="M564 -14q-160 0 -273 65.5t-158 187.5q-23 63 -23 146q0 77 20 172q91 426 117 573q21 126 30 168q4 20 30 31t116 11t111 -11q17 -9 17 -25q0 -10 -42 -174q-21 -83 -120 -538q-15 -70 -15 -128q0 -110 67 -197t208 -87q136 0 248.5 97t150.5 278q98 460 117 575
q21 126 30 168q5 20 30.5 31t101.5 11q75 0 94.5 -10t19.5 -26q0 -11 -42 -174q-33 -126 -81 -354l-39 -184q-42 -198 -144.5 -330t-251.5 -204t-319 -72zM886 1435q-82 0 -127 57q-32 40 -32 93q0 22 5 45q17 82 86 139t151 57t127 -57q32 -41 32 -95q0 -21 -5 -44
q-18 -82 -86.5 -138.5t-150.5 -56.5zM907 1533q40 0 75 29q45 37 45 89q0 28 -19 52.5t-60 24.5t-75 -28q-46 -38 -46 -92q0 -26 19.5 -50.5t60.5 -24.5z" />
    <glyph glyph-name="uring" unicode="&#x16f;" horiz-adv-x="1084" 
d="M321 248q0 -76 73 -76q115 0 219.5 196t156.5 478l202 20q-131 -639 -131 -676q0 -38 36 -38q31 0 86 39q-30 -205 -186 -205q-131 0 -131 135q0 33 12 86q-147 -221 -344 -221q-95 0 -154 52.5t-59 151.5q0 60 30.5 205t62.5 285q8 34 8 80q0 41 -11 71q62 43 131 43
q103 0 103 -77q0 -27 -6 -55q-2 -9 -50 -229.5t-48 -264.5zM608 956q-82 0 -127 57q-32 40 -32 93q0 22 5 45q17 82 86 139t151 57t127 -57q32 -41 32 -95q0 -21 -5 -44q-18 -82 -86.5 -138.5t-150.5 -56.5zM629 1054q40 0 75 29q45 37 45 89q0 28 -19 52.5t-60 24.5
t-75 -28q-46 -38 -46 -92q0 -26 19.5 -50.5t60.5 -24.5z" />
    <glyph glyph-name="Udoubleacute" unicode="&#x170;" horiz-adv-x="1444" 
d="M564 -14q-160 0 -273 65.5t-158 187.5q-23 63 -23 146q0 77 20 172q91 426 117 573q21 126 30 168q4 20 30 31t116 11t111 -11q17 -9 17 -25q0 -10 -42 -174q-21 -83 -120 -538q-15 -70 -15 -128q0 -110 67 -197t208 -87q136 0 248.5 97t150.5 278q98 460 117 575
q21 126 30 168q5 20 30.5 31t101.5 11q75 0 94.5 -10t19.5 -26q0 -11 -42 -174q-33 -126 -81 -354l-39 -184q-42 -198 -144.5 -330t-251.5 -204t-319 -72zM1029 1476l-11 38l76 140q75 140 302 140l11 -34l-125 -142q-126 -142 -253 -142zM689 1476l-11 38l76 140
q75 140 302 140l11 -34l-125 -142q-126 -142 -253 -142z" />
    <glyph glyph-name="udoubleacute" unicode="&#x171;" horiz-adv-x="1084" 
d="M321 248q0 -76 73 -76q115 0 219.5 196t156.5 478l202 20q-131 -639 -131 -676q0 -38 36 -38q31 0 86 39q-30 -205 -186 -205q-131 0 -131 135q0 33 12 86q-147 -221 -344 -221q-95 0 -154 52.5t-59 151.5q0 60 30.5 205t62.5 285q8 34 8 80q0 41 -11 71q62 43 131 43
q103 0 103 -77q0 -27 -6 -55q-2 -9 -50 -229.5t-48 -264.5zM751 997l-11 38l76 140q75 140 302 140l11 -34l-125 -142q-126 -142 -253 -142zM411 997l-11 38l76 140q75 140 302 140l11 -34l-125 -142q-126 -142 -253 -142z" />
    <glyph glyph-name="Uogonek" unicode="&#x172;" horiz-adv-x="1444" 
d="M564 -14q-160 0 -273 65.5t-158 187.5q-23 63 -23 146q0 77 20 172q91 426 117 573q21 126 30 168q4 20 30 31t116 11t111 -11q17 -9 17 -25q0 -10 -42 -174q-21 -83 -120 -538q-15 -70 -15 -128q0 -110 67 -197t208 -87q136 0 248.5 97t150.5 278q98 460 117 575
q21 126 30 168q5 20 30.5 31t101.5 11q75 0 94.5 -10t19.5 -26q0 -11 -42 -174q-33 -126 -81 -354l-39 -184q-42 -198 -144.5 -330t-251.5 -204t-319 -72zM812 -326q-168 0 -168 171q0 163 233 279h116q-190 -136 -190 -258q0 -70 79 -70q39 0 70 15q0 -137 -140 -137z" />
    <glyph glyph-name="uogonek" unicode="&#x173;" horiz-adv-x="1084" 
d="M321 248q0 -76 73 -76q115 0 219.5 196t156.5 478l202 20q-131 -639 -131 -676q0 -38 36 -38q31 0 86 39q-30 -205 -186 -205q-131 0 -131 135q0 33 12 86q-147 -221 -344 -221q-95 0 -154 52.5t-59 151.5q0 60 30.5 205t62.5 285q8 34 8 80q0 41 -11 71q62 43 131 43
q103 0 103 -77q0 -27 -6 -55q-2 -9 -50 -229.5t-48 -264.5zM698 -433q-168 0 -168 171q0 163 233 279h116q-190 -136 -190 -258q0 -70 79 -70q39 0 70 15q0 -137 -140 -137z" />
    <glyph glyph-name="Wcircumflex" unicode="&#x174;" horiz-adv-x="1938" 
d="M1173 -20h-43q-40 0 -66 34q-97 125 -178 294q-132 -169 -281 -294q-41 -34 -81 -34h-43q-39 0 -67 34q-256 316 -256 752q0 176 42 372q9 46 11.5 82t11.5 78q4 20 30.5 31t108.5 11t101.5 -10t19.5 -25l-1 -7q-9 -42 -22 -78t-23 -82q-41 -193 -41 -358
q0 -329 161 -548q160 101 260 284q-16 101 -16 211q0 191 47 411q10 46 12.5 82t10.5 78q5 20 31.5 31t113.5 11t106.5 -10t19.5 -26q0 -21 -23 -84q-13 -36 -23 -82q-46 -217 -46 -393q0 -325 156 -513q371 280 505 906q9 46 11.5 82t11.5 78q4 20 30.5 31t106.5 11
q81 0 100.5 -10t19.5 -26q0 -21 -23 -84q-13 -36 -23 -82q-145 -681 -691 -1124q-41 -34 -81 -34zM1426 1482q-99 0 -174 82l-75 82l-109 -82q-108 -82 -204 -82l4 20l221 222q46 47 116 47q69 0 96 -47l129 -222z" />
    <glyph glyph-name="wcircumflex" unicode="&#x175;" horiz-adv-x="1524" 
d="M314 264q0 -110 100 -110q197 0 267 405l49 283l230 24q-124 -563 -124 -614q0 -98 101 -98q107 0 192 106.5t85 293.5q0 176 -44 257q62 82 143 82q68 0 101.5 -61t33.5 -181q0 -275 -181.5 -470t-383.5 -195q-192 0 -229 145q-129 -145 -303 -145q-114 0 -184.5 57.5
t-70.5 184.5q0 44 11 94l81 358q8 34 8 80q0 41 -11 71q62 43 131 43q103 0 103 -77q0 -27 -6 -55q-1 -7 -50 -223.5t-49 -254.5zM1156 1007q-99 0 -174 82l-75 82l-109 -82q-108 -82 -204 -82l4 20l221 222q46 47 116 47q69 0 96 -47l129 -222z" />
    <glyph glyph-name="Ycircumflex" unicode="&#x176;" horiz-adv-x="1168" 
d="M456 -16q-85 0 -105 11q-16 9 -16 23q0 18 31 126q12 45 68 298q-275 170 -275 495q0 93 22 198q15 71 15.5 96t9.5 67q4 20 28.5 31t109.5 11t102.5 -10t17.5 -25l-1 -7q-9 -42 -19.5 -67t-20.5 -74q-21 -97 -21 -178q0 -247 190 -355q315 143 398 533q10 49 10.5 74
t9.5 67q4 20 28.5 31t108.5 11t101.5 -10t17.5 -25l-1 -7q-9 -42 -19.5 -67t-25.5 -96q-101 -475 -549 -693q-43 -194 -58 -298q-12 -76 -20 -118q-5 -20 -28.5 -31t-108.5 -11zM1034 1482q-99 0 -174 82l-75 82l-109 -82q-108 -82 -204 -82l4 20l221 222q46 47 116 47
q69 0 96 -47l129 -222z" />
    <glyph glyph-name="ycircumflex" unicode="&#x177;" horiz-adv-x="1071" 
d="M209 680q8 34 8 80q0 41 -11 71q62 43 131 43q103 0 103 -77q0 -27 -6 -55q-9 -44 -54 -241t-45 -253q0 -76 93 -76q132 0 210 143.5t166 540.5h191l-196 -963q-40 -192 -163.5 -288.5t-281.5 -96.5q-128 0 -237.5 61.5t-109.5 151.5q0 89 136 158q85 -197 245 -197
q146 0 202 221l59 234q-128 -153 -309 -153q-105 0 -165.5 53.5t-60.5 132.5q0 75 41.5 265.5t53.5 244.5zM933 1012q-99 0 -174 82l-75 82l-109 -82q-108 -82 -204 -82l4 20l221 222q46 47 116 47q69 0 96 -47l129 -222z" />
    <glyph glyph-name="Ydieresis" unicode="&#x178;" horiz-adv-x="1168" 
d="M456 -16q-85 0 -105 11q-16 9 -16 23q0 18 31 126q12 45 68 298q-275 170 -275 495q0 93 22 198q15 71 15.5 96t9.5 67q4 20 28.5 31t109.5 11t102.5 -10t17.5 -25l-1 -7q-9 -42 -19.5 -67t-20.5 -74q-21 -97 -21 -178q0 -247 190 -355q315 143 398 533q10 49 10.5 74
t9.5 67q4 20 28.5 31t108.5 11t101.5 -10t17.5 -25l-1 -7q-9 -42 -19.5 -67t-25.5 -96q-101 -475 -549 -693q-43 -194 -58 -298q-12 -76 -20 -118q-5 -20 -28.5 -31t-108.5 -11zM945 1465q-66 0 -103 47q-27 34 -27 78q0 86 75 148q57 47 123 47q67 0 103 -47q27 -34 27 -78
q0 -86 -75 -148q-57 -47 -123 -47zM545 1465q-66 0 -103 47q-27 34 -27 78q0 86 75 148q57 47 123 47q67 0 103 -47q27 -34 27 -78q0 -86 -75 -148q-57 -47 -123 -47z" />
    <glyph glyph-name="Zacute" unicode="&#x179;" horiz-adv-x="1203" 
d="M834 0h-895q31 147 141 296q321 436 854 847q-555 0 -758 -36l39 113q39 113 179 113h910q-27 -129 -184 -260q-531 -441 -840 -883q571 0 778 26l-38 -108q-38 -108 -186 -108zM706 1499l-11 38l76 140q75 140 302 140l11 -34l-125 -142q-126 -142 -253 -142z" />
    <glyph glyph-name="zacute" unicode="&#x17a;" horiz-adv-x="937" 
d="M587 -23q-100 0 -177.5 18.5t-164.5 18.5q-102 0 -177 -24h-15l-33 106l555 580q-212 0 -424 -18q37 198 148 198h552l27 -100l-543 -582q43 8 85 8q36 0 82.5 -10t96.5 -10q57 0 94.5 26.5t63.5 26.5q52 0 94 -49q-96 -189 -264 -189zM460 1039l-11 38l76 140
q75 140 302 140l11 -34l-125 -142q-126 -142 -253 -142z" />
    <glyph glyph-name="Zdotaccent" unicode="&#x17b;" horiz-adv-x="1203" 
d="M834 0h-895q31 147 141 296q321 436 854 847q-555 0 -758 -36l39 113q39 113 179 113h910q-27 -129 -184 -260q-531 -441 -840 -883q571 0 778 26l-38 -108q-38 -108 -186 -108zM787 1464q-66 0 -103 47q-27 34 -27 78q0 86 75 148q57 47 123 47q67 0 103 -47
q27 -34 27 -78q0 -86 -75 -148q-57 -47 -123 -47z" />
    <glyph glyph-name="zdotaccent" unicode="&#x17c;" horiz-adv-x="937" 
d="M587 -23q-100 0 -177.5 18.5t-164.5 18.5q-102 0 -177 -24h-15l-33 106l555 580q-212 0 -424 -18q37 198 148 198h552l27 -100l-543 -582q43 8 85 8q36 0 82.5 -10t96.5 -10q57 0 94.5 26.5t63.5 26.5q52 0 94 -49q-96 -189 -264 -189zM541 1004q-66 0 -103 47
q-27 34 -27 78q0 86 75 148q57 47 123 47q67 0 103 -47q27 -34 27 -78q0 -86 -75 -148q-57 -47 -123 -47z" />
    <glyph glyph-name="Zcaron" unicode="&#x17d;" horiz-adv-x="1203" 
d="M834 0h-895q31 147 141 296q321 436 854 847q-555 0 -758 -36l39 113q39 113 179 113h910q-27 -129 -184 -260q-531 -441 -840 -883q571 0 778 26l-38 -108q-38 -108 -186 -108zM576 1771q99 0 174 -82l75 -82l109 82q108 82 204 82l-4 -20l-221 -222q-46 -47 -116 -47
q-69 0 -96 47l-129 222z" />
    <glyph glyph-name="zcaron" unicode="&#x17e;" horiz-adv-x="937" 
d="M587 -23q-100 0 -177.5 18.5t-164.5 18.5q-102 0 -177 -24h-15l-33 106l555 580q-212 0 -424 -18q37 198 148 198h552l27 -100l-543 -582q43 8 85 8q36 0 82.5 -10t96.5 -10q57 0 94.5 26.5t63.5 26.5q52 0 94 -49q-96 -189 -264 -189zM330 1311q99 0 174 -82l75 -82
l109 82q108 82 204 82l-4 -20l-221 -222q-46 -47 -116 -47q-69 0 -96 47l-129 222z" />
    <glyph glyph-name="longs" unicode="&#x17f;" horiz-adv-x="588" 
d="M-112 -502q-111 0 -170 60q37 160 113 160q16 0 44 -18t56 -18q108 0 150 235l163 919q112 620 525 620q124 0 210 -72q-41 -162 -131 -162q-23 0 -64.5 25t-74.5 25q-167 0 -221 -281l-184 -1012q-86 -481 -416 -481z" />
    <glyph glyph-name="Schwa" unicode="&#x18f;" horiz-adv-x="1357" 
d="M474 -16q-248 0 -372 158q-96 121 -96 254q0 41 9 82q48 226 343 226h676q11 54 11 104q0 109 -65 224t-272 115q-131 0 -230.5 -69t-159.5 -69q-56 0 -83 139q238 198 548 198q198 0 324.5 -89t173.5 -240q25 -82 25 -174q0 -78 -18 -163q-62 -296 -291.5 -496
t-522.5 -200zM534 192q314 0 458 337h-585q-133 0 -156 -112q-4 -17 -4 -33q0 -64 61.5 -128t225.5 -64z" />
    <glyph glyph-name="Eopen" unicode="&#x190;" horiz-adv-x="1063" 
d="M482 -23q-248 0 -364 110q-84 81 -84 210q0 275 270 422q-100 79 -100 203q0 35 8 74q35 166 179 262t350 96q153 0 386 -62q-73 -191 -165 -191q-43 0 -99 22t-151 22q-223 0 -254 -148q-5 -25 -5 -46q0 -138 218 -138q127 0 127 -79q0 -11 -3 -25q-22 -104 -180 -104
q-139 0 -212 -57q-99 -77 -99 -212q0 -62 42.5 -105.5t194.5 -43.5q93 0 182.5 31t135.5 31q54 0 54 -87q0 -45 -14 -113q-244 -72 -417 -72z" />
    <glyph glyph-name="fhook" unicode="&#x192;" horiz-adv-x="811" 
d="M-183 -490q-189 0 -275 94q72 140 149 140q33 0 83.5 -31t113.5 -31q220 0 280.5 340t120.5 679h-164q38 135 188 139q55 307 223.5 461.5t374.5 154.5q189 0 275 -94q-72 -140 -159 -140q-33 0 -83.5 31t-113.5 31q-210 0 -270 -341l-18 -99l323 8q-41 -154 -189 -154
l-160 1l-101 -573q-54 -307 -223 -461.5t-375 -154.5z" />
    <glyph glyph-name="Omiddletilde" unicode="&#x19f;" horiz-adv-x="1577" 
d="M613 -18q-197 0 -330.5 90.5t-187.5 241.5q-32 87 -32 187q0 73 17 152q43 201 174.5 359.5t313 247t377.5 88.5q198 0 333 -89t189 -243q32 -89 32 -189q0 -73 -17 -152q-43 -201 -174.5 -356t-314.5 -246t-380 -91zM698 166q179 0 315.5 124.5t180.5 333.5
q19 89 19 164q0 133 -74 252.5t-277 119.5q-180 0 -316.5 -124.5t-180.5 -333.5q-19 -88 -19 -164q0 -133 75 -252.5t277 -119.5zM945 484q-82 0 -205 79t-210 79q-162 0 -334 -137q26 119 137.5 230.5t283.5 111.5q85 0 201 -79t207 -79q160 0 340 138
q-24 -112 -141 -227.5t-279 -115.5z" />
    <glyph glyph-name="OI" unicode="&#x1a2;" horiz-adv-x="2021" 
d="M695 166q180 0 316.5 124.5t181.5 333.5q18 88 18 164q0 133 -74 252.5t-277 119.5q-179 0 -315.5 -124.5t-181.5 -333.5q-19 -88 -19 -164q0 -133 75 -252.5t276 -119.5zM1499 -496q-116 0 -116 37q0 11 43 173q33 126 81 354l191 898q11 52 11 91q0 114 -97 114
q-93 0 -178 -84q62 -117 62 -259q0 -73 -17 -153q-42 -201 -173 -356t-314.5 -246t-380.5 -91t-330 90.5t-188 241.5q-32 87 -32 187q0 73 17 152q43 201 174.5 359.5t313.5 247t377 88.5q253 0 405 -147q136 145 346 145q248 0 248 -218q0 -50 -13 -112l-202 -948
q-48 -228 -68.5 -354t-29 -168t-130.5 -42z" />
    <glyph glyph-name="oi" unicode="&#x1a3;" horiz-adv-x="1552" 
d="M485 158q125 0 197 106t72 215q0 104 -43.5 165t-140.5 61q-116 0 -193 -109.5t-77 -239.5q0 -74 44 -136t141 -62zM1124 -400q-93 0 -93 83q0 19 173 835q9 41 9 73q0 102 -92 102q-61 0 -122 -44q15 -47 15 -102q0 -46 -11 -98q-42 -202 -209 -332.5t-381 -130.5
q-198 0 -300 122q-74 88 -74 210q0 47 11 98q43 201 210.5 331t380.5 130q176 0 278 -99q159 90 294 90q227 0 227 -206q0 -49 -13 -109l-155 -726q-10 -47 -10 -88v-29q0 -24 15 -57q-74 -53 -153 -53z" />
    <glyph glyph-name="Zbar" unicode="&#x1b5;" horiz-adv-x="1203" 
d="M834 0h-895q31 147 141 296q321 436 854 847q-555 0 -758 -36l39 113q39 113 179 113h910q-27 -129 -184 -260q-531 -441 -840 -883q571 0 778 26l-38 -108q-38 -108 -186 -108zM879 612h-746q20 160 106 160h745q-20 -160 -105 -160z" />
    <glyph glyph-name="zbar" unicode="&#x1b6;" horiz-adv-x="937" 
d="M587 -23q-100 0 -177.5 18.5t-164.5 18.5q-102 0 -177 -24h-15l-33 106l555 580q-212 0 -424 -18q37 198 148 198h552l27 -100l-543 -582q43 8 85 8q36 0 82.5 -10t96.5 -10q57 0 94.5 26.5t63.5 26.5q52 0 94 -49q-96 -189 -264 -189zM667 368h-555q21 100 116 100h555
q-21 -100 -116 -100z" />
    <glyph glyph-name="Ezh" unicode="&#x1b7;" horiz-adv-x="1161" 
d="M336 -302q-239 0 -340 110q-80 86 -80 182q0 195 234 195q-3 -33 -3 -62q0 -247 217 -247q304 0 379 343q10 49 10 92q0 96 -65.5 166t-210.5 80q-108 7 -108 83q0 14 3 29q23 105 408 464h-277q-158 0 -339 -21l36 110q35 111 167 111h732l-16 -75q-24 -116 -152 -220
t-289 -317q181 0 297 -133q83 -96 83 -233q0 -56 -13 -118q-53 -251 -229 -395t-444 -144z" />
    <glyph glyph-name="eturned" unicode="&#x1dd;" horiz-adv-x="915" 
d="M507 878q343 0 343 -347q0 -251 -159 -398t-394 -147q-256 0 -256 230q0 296 539 308q-33 -143 -168 -163q-189 -23 -189 -132q0 -86 90 -86q113 0 217.5 97t104.5 277q0 188 -165 188q-98 0 -200 -51q-32 -16 -56 -16q-51 0 -66 95q169 145 359 145z" />
    <glyph glyph-name="AEmacron" unicode="&#x1e2;" horiz-adv-x="1762" 
d="M855 579l40 190q38 177 62 316q-301 -171 -533 -506h431zM27 -10h-37q-58 0 -67.5 8.5t-9.5 21.5l1 10q44 205 283.5 572.5t730.5 694.5q51 36 92 36h806l-86 -218q-229 20 -524 20q-30 -171 -70 -361q328 0 461 20l-89 -226q-86 10 -414 10l-43 -202q-7 -32 -7 -58
q0 -120 145 -120q214 0 408 20l-5 -218h-605q-215 0 -215 189q0 43 11 97l20 96h-515q-128 -202 -160 -352q-8 -40 -111 -40zM1421 1464h-554l32 152h554z" />
    <glyph glyph-name="aemacron" unicode="&#x1e3;" horiz-adv-x="1439" 
d="M900 -14q-205 0 -278 131q-186 -131 -346 -131q-120 0 -171 62q-35 44 -35 107q0 26 6 56q48 232 369 267l200 22q30 97 30 135q0 70 -72 70q-88 0 -161 -75t-159 -75q-42 0 -94 27q49 129 192.5 213t306.5 84q158 0 193 -99q128 97 272 97q125 0 187 -82q41 -55 41 -147
q0 -246 -551 -285q-13 -46 -13 -68q0 -50 37 -89.5t133 -39.5q82 0 143.5 33t104.5 33q47 0 73 -93q-196 -153 -408 -153zM862 514q324 31 324 115q0 80 -101 80q-105 0 -205 -111zM400 158q72 0 196 61q0 48 18 135l-135 -9q-135 -9 -156 -105q-2 -8 -2 -16q0 -24 18 -45
t61 -21zM1192 987h-554l32 152h554z" />
    <glyph glyph-name="Oogonek" unicode="&#x1ea;" horiz-adv-x="1577" 
d="M613 -18q-197 0 -330.5 90.5t-187.5 241.5q-32 87 -32 187q0 73 17 152q43 201 174.5 359.5t313 247t377.5 88.5q198 0 333 -89t189 -243q32 -89 32 -189q0 -73 -17 -152q-43 -201 -174.5 -356t-314.5 -246t-380 -91zM698 166q179 0 315.5 124.5t180.5 333.5
q19 89 19 164q0 133 -74 252.5t-277 119.5q-180 0 -316.5 -124.5t-180.5 -333.5q-19 -88 -19 -164q0 -133 75 -252.5t277 -119.5zM940 -301q-168 0 -168 171q0 163 233 279h116q-190 -136 -190 -258q0 -70 79 -70q39 0 70 15q0 -137 -140 -137z" />
    <glyph glyph-name="oogonek" unicode="&#x1eb;" horiz-adv-x="985" 
d="M369 -14q-176 0 -249 115q-50 80 -50 187q0 199 154 390.5t385 191.5q170 0 244 -103q55 -77 55 -188q0 -230 -163 -411.5t-376 -181.5zM425 158q95 0 175 112t80 277q0 158 -124 158q-108 0 -182.5 -122t-74.5 -261q0 -164 126 -164zM476 -365q-168 0 -168 171
q0 163 233 279h116q-190 -136 -190 -258q0 -70 79 -70q39 0 70 15q0 -137 -140 -137z" />
    <glyph glyph-name="Oogonekmacron" unicode="&#x1ec;" horiz-adv-x="1577" 
d="M613 -18q-197 0 -330.5 90.5t-187.5 241.5q-32 87 -32 187q0 73 17 152q43 201 174.5 359.5t313 247t377.5 88.5q198 0 333 -89t189 -243q32 -89 32 -189q0 -73 -17 -152q-43 -201 -174.5 -356t-314.5 -246t-380 -91zM698 166q179 0 315.5 124.5t180.5 333.5
q19 89 19 164q0 133 -74 252.5t-277 119.5q-180 0 -316.5 -124.5t-180.5 -333.5q-19 -88 -19 -164q0 -133 75 -252.5t277 -119.5zM940 -301q-168 0 -168 171q0 163 233 279h116q-190 -136 -190 -258q0 -70 79 -70q39 0 70 15q0 -137 -140 -137zM1246 1464h-554l32 152h554z
" />
    <glyph glyph-name="oogonekmacron" unicode="&#x1ed;" horiz-adv-x="985" 
d="M369 -14q-176 0 -249 115q-50 80 -50 187q0 199 154 390.5t385 191.5q170 0 244 -103q55 -77 55 -188q0 -230 -163 -411.5t-376 -181.5zM425 158q95 0 175 112t80 277q0 158 -124 158q-108 0 -182.5 -122t-74.5 -261q0 -164 126 -164zM476 -365q-168 0 -168 171
q0 163 233 279h116q-190 -136 -190 -258q0 -70 79 -70q39 0 70 15q0 -137 -140 -137zM888 987h-554l32 152h554z" />
    <glyph glyph-name="jcaron" unicode="&#x1f0;" horiz-adv-x="528" 
d="M218 660q8 34 8 80q0 41 -21 81q62 53 151 53q93 0 93 -77q0 -27 -6 -55q-2 -8 -143 -660q-101 -468 -465 -573q-66 23 -66 76q0 55 130.5 142t211.5 452zM151 1294q99 0 174 -82l75 -82l109 82q108 82 204 82l-4 -20l-221 -222q-46 -47 -116 -47q-69 0 -96 47l-129 222z
" />
    <glyph glyph-name="Gacute" unicode="&#x1f4;" horiz-adv-x="1424" 
d="M699 -14q-227 0 -385 83q-251 130 -251 419q0 73 17 155q72 341 341 535q260 188 563 188q272 0 434 -163q-92 -172 -166 -172q-39 0 -71 28t-61 49q-95 66 -229 66q-112 0 -222 -56.5t-195 -171.5t-118 -268q-11 -53 -11 -104q0 -77 33.5 -174t145 -163t251.5 -66
q122 0 214 33l33 153q6 26 6 48q0 97 -115 97h-136q38 181 198 181h75q216 0 216 -195q0 -47 -12 -105l-54 -258q-7 -32 -40 -46q-214 -93 -461 -93zM778 1499l-11 38l76 140q75 140 302 140l11 -34l-125 -142q-126 -142 -253 -142z" />
    <glyph glyph-name="gacute" unicode="&#x1f5;" horiz-adv-x="1067" 
d="M417 162q121 0 267 224l63 241q-47 89 -138 89q-92 0 -172 -83t-109 -216q-12 -58 -12 -98q0 -157 101 -157zM653 169q-162 -182 -339 -182q-218 0 -218 297q0 57 13 121q28 132 102.5 237.5t175 166t205.5 60.5q138 0 195 -115q22 103 127 103q77 0 108 -52
q-47 -101 -71 -212l-140 -677q-84 -406 -464 -406q-161 0 -262 64t-101 155q0 120 149 162q70 -213 218 -213q187 0 240 226zM541 1022l-11 38l76 140q75 140 302 140l11 -34l-125 -142q-126 -142 -253 -142z" />
    <glyph glyph-name="Ngrave" unicode="&#x1f8;" horiz-adv-x="1589" 
d="M1137 -16q-86 0 -136 37t-85 143q-176 532 -431 828q-27 -111 -62 -276q-83 -385 -101 -522q-17 -126 -25 -168q-5 -20 -28.5 -31t-110.5 -11q-86 0 -106 11q-16 9 -16 23q0 15 41 176q32 126 80 354q93 431 119 582q22 126 31 168q4 20 28.5 31t105.5 11q82 0 132 -30.5
t105 -113.5q263 -393 422 -810q20 84 51 232q77 360 104 512q22 126 31 168q4 20 28.5 31t110.5 11q87 0 104.5 -10t17.5 -25q0 -11 -42 -175q-32 -126 -80 -354q-93 -431 -119 -582l-30 -168q-5 -20 -28.5 -31t-110.5 -11zM1090 1503q-137 0 -258 142l-120 142l11 34
q237 0 307 -140l71 -140z" />
    <glyph glyph-name="ngrave" unicode="&#x1f9;" horiz-adv-x="1109" 
d="M792 877q194 0 194 -174q0 -69 -58 -260.5t-58 -241.5q0 -49 37 -49q30 0 86 39q-30 -205 -195 -205q-151 0 -151 129q0 72 57 252t57 254q0 69 -63 69q-115 0 -237 -192q-111 -174 -179 -498h-211q144 661 150 689q8 36 8 81q0 41 -11 71q62 43 121 43q103 0 103 -77
q0 -27 -6 -55l-23 -104h1q194 229 378 229zM862 1026q-137 0 -258 142l-120 142l11 34q237 0 307 -140l71 -140z" />
    <glyph glyph-name="AEacute" unicode="&#x1fc;" horiz-adv-x="1762" 
d="M855 579l40 190q38 177 62 316q-301 -171 -533 -506h431zM27 -10h-37q-58 0 -67.5 8.5t-9.5 21.5l1 10q44 205 283.5 572.5t730.5 694.5q51 36 92 36h806l-86 -218q-229 20 -524 20q-30 -171 -70 -361q328 0 461 20l-89 -226q-86 10 -414 10l-43 -202q-7 -32 -7 -58
q0 -120 145 -120q214 0 408 20l-5 -218h-605q-215 0 -215 189q0 43 11 97l20 96h-515q-128 -202 -160 -352q-8 -40 -111 -40zM1058 1499l-11 38l76 140q75 140 302 140l11 -34l-125 -142q-126 -142 -253 -142z" />
    <glyph glyph-name="aeacute" unicode="&#x1fd;" horiz-adv-x="1439" 
d="M900 -14q-205 0 -278 131q-186 -131 -346 -131q-120 0 -171 62q-35 44 -35 107q0 26 6 56q48 232 369 267l200 22q30 97 30 135q0 70 -72 70q-88 0 -161 -75t-159 -75q-42 0 -94 27q49 129 192.5 213t306.5 84q158 0 193 -99q128 97 272 97q125 0 187 -82q41 -55 41 -147
q0 -246 -551 -285q-13 -46 -13 -68q0 -50 37 -89.5t133 -39.5q82 0 143.5 33t104.5 33q47 0 73 -93q-196 -153 -408 -153zM862 514q324 31 324 115q0 80 -101 80q-105 0 -205 -111zM400 158q72 0 196 61q0 48 18 135l-135 -9q-135 -9 -156 -105q-2 -8 -2 -16q0 -24 18 -45
t61 -21zM829 1022l-11 38l76 140q75 140 302 140l11 -34l-125 -142q-126 -142 -253 -142z" />
    <glyph glyph-name="Adoublegrave" unicode="&#x200;" horiz-adv-x="1287" 
d="M941 -10q-81 0 -98.5 10t-17.5 25l1 7q9 42 20.5 73t21.5 77q20 96 20 194v9h-598q-45 -102 -66 -203q-10 -46 -11.5 -77t-10.5 -73q-4 -20 -28.5 -31t-103.5 -11t-96.5 10t-17.5 25l1 7q9 42 20.5 73t21.5 77q123 581 691 1140q25 18 43 18h119q18 0 35 -18
q242 -409 242 -828q0 -155 -33 -312q-10 -46 -11.5 -77t-10.5 -73q-4 -20 -28.5 -31t-104.5 -11zM884 584q-10 237 -150 484q-245 -247 -356 -484h506zM737 1457q-137 0 -258 142l-120 142l11 34q237 0 307 -140l71 -140zM1073 1457q-137 0 -258 142l-120 142l11 34
q237 0 307 -140l71 -140z" />
    <glyph glyph-name="adoublegrave" unicode="&#x201;" horiz-adv-x="1103" 
d="M795 -14q-133 0 -133 123q0 29 6 81q-162 -204 -369 -204q-133 0 -190 92q-39 64 -39 151q0 291 203 465t470 174q131 0 239 -62q-126 -531 -126 -592q0 -62 37 -62q31 0 86 39q-30 -205 -184 -205zM387 170q109 0 215.5 134t145.5 390q-42 20 -96 20q-131 0 -241 -131.5
t-110 -276.5q0 -136 86 -136zM563 980q-137 0 -258 142l-120 142l11 34q237 0 307 -140l71 -140zM899 980q-137 0 -258 142l-120 142l11 34q237 0 307 -140l71 -140z" />
    <glyph glyph-name="Abreveinverted" unicode="&#x202;" horiz-adv-x="1287" 
d="M941 -10q-81 0 -98.5 10t-17.5 25l1 7q9 42 20.5 73t21.5 77q20 96 20 194v9h-598q-45 -102 -66 -203q-10 -46 -11.5 -77t-10.5 -73q-4 -20 -28.5 -31t-103.5 -11t-96.5 10t-17.5 25l1 7q9 42 20.5 73t21.5 77q123 581 691 1140q25 18 43 18h119q18 0 35 -18
q242 -409 242 -828q0 -155 -33 -312q-10 -46 -11.5 -77t-10.5 -73q-4 -20 -28.5 -31t-104.5 -11zM884 584q-10 237 -150 484q-245 -247 -356 -484h506zM884 1752q138 0 206 -68q51 -50 51 -147q0 -34 -6 -73q-114 0 -135.5 64t-152.5 64q-128 0 -179.5 -64t-165.5 -64
q41 148 144 218t238 70z" />
    <glyph glyph-name="abreveinverted" unicode="&#x203;" horiz-adv-x="1103" 
d="M795 -14q-133 0 -133 123q0 29 6 81q-162 -204 -369 -204q-133 0 -190 92q-39 64 -39 151q0 291 203 465t470 174q131 0 239 -62q-126 -531 -126 -592q0 -62 37 -62q31 0 86 39q-30 -205 -184 -205zM387 170q109 0 215.5 134t145.5 390q-42 20 -96 20q-131 0 -241 -131.5
t-110 -276.5q0 -136 86 -136zM710 1275q138 0 206 -68q51 -50 51 -147q0 -34 -6 -73q-114 0 -135.5 64t-152.5 64q-128 0 -179.5 -64t-165.5 -64q41 148 144 218t238 70z" />
    <glyph glyph-name="Edoublegrave" unicode="&#x204;" horiz-adv-x="1090" 
d="M902 0h-595q-230 0 -230 193q0 42 11 93l102 483q49 228 71 355.5t31 169.5q4 20 28.5 31t89.5 11h717l-88 -227q-169 20 -531 20q-29 -165 -68 -350q335 0 468 20l-90 -231q-86 10 -421 10l-41 -194q-7 -33 -7 -60q0 -118 135 -118q291 0 425 20zM667 1457
q-137 0 -258 142l-120 142l11 34q237 0 307 -140l71 -140zM1003 1457q-137 0 -258 142l-120 142l11 34q237 0 307 -140l71 -140z" />
    <glyph glyph-name="edoublegrave" unicode="&#x205;" horiz-adv-x="933" 
d="M541 530.5q135 48.5 135 125.5q0 67 -76 67q-137 0 -221 -136.5t-84 -281.5q0 -64 32 -105.5t122 -41.5q72 0 134.5 21.5t94.5 21.5q67 0 67 -105q-161 -110 -348 -110q-179 0 -267 110q-60 77 -60 190q0 219 169 405t418 186q218 0 218 -200q0 -255 -469 -332
q0 137 135 185.5zM506 980q-137 0 -258 142l-120 142l11 34q237 0 307 -140l71 -140zM842 980q-137 0 -258 142l-120 142l11 34q237 0 307 -140l71 -140z" />
    <glyph glyph-name="Ebreveinverted" unicode="&#x206;" horiz-adv-x="1090" 
d="M902 0h-595q-230 0 -230 193q0 42 11 93l102 483q49 228 71 355.5t31 169.5q4 20 28.5 31t89.5 11h717l-88 -227q-169 20 -531 20q-29 -165 -68 -350q335 0 468 20l-90 -231q-86 10 -421 10l-41 -194q-7 -33 -7 -60q0 -118 135 -118q291 0 425 20zM814 1752
q138 0 206 -68q51 -50 51 -147q0 -34 -6 -73q-114 0 -135.5 64t-152.5 64q-128 0 -179.5 -64t-165.5 -64q41 148 144 218t238 70z" />
    <glyph glyph-name="ebreveinverted" unicode="&#x207;" horiz-adv-x="933" 
d="M541 530.5q135 48.5 135 125.5q0 67 -76 67q-137 0 -221 -136.5t-84 -281.5q0 -64 32 -105.5t122 -41.5q72 0 134.5 21.5t94.5 21.5q67 0 67 -105q-161 -110 -348 -110q-179 0 -267 110q-60 77 -60 190q0 219 169 405t418 186q218 0 218 -200q0 -255 -469 -332
q0 137 135 185.5zM653 1275q138 0 206 -68q51 -50 51 -147q0 -34 -6 -73q-114 0 -135.5 64t-152.5 64q-128 0 -179.5 -64t-165.5 -64q41 148 144 218t238 70z" />
    <glyph glyph-name="Idoublegrave" unicode="&#x208;" horiz-adv-x="615" 
d="M161 -16q-81 0 -106 11q-21 9 -21 25q0 14 42 174q38 145 130 582q49 228 69.5 354t29.5 168q4 20 33.5 31t110.5 11q83 0 105.5 -10t22.5 -26q0 -11 -43 -174q-38 -145 -130 -582q-49 -228 -69.5 -354t-29.5 -168q-4 -20 -33 -31t-111 -11zM394 1457q-137 0 -258 142
l-120 142l11 34q237 0 307 -140l71 -140zM730 1457q-137 0 -258 142l-120 142l11 34q237 0 307 -140l71 -140z" />
    <glyph glyph-name="idoublegrave" unicode="&#x209;" horiz-adv-x="534" 
d="M291 196q0 -44 32 -44q35 0 90 39q-30 -205 -205 -205q-144 0 -144 136q0 56 114 558q8 34 8 80q0 41 -11 71q62 43 131 43q103 0 103 -77q0 -27 -6 -55q-2 -9 -57 -259t-55 -287zM255 980q-137 0 -258 142l-120 142l11 34q237 0 307 -140l71 -140zM591 980
q-137 0 -258 142l-120 142l11 34q237 0 307 -140l71 -140z" />
    <glyph glyph-name="Ibreveinverted" unicode="&#x20a;" horiz-adv-x="615" 
d="M161 -16q-81 0 -106 11q-21 9 -21 25q0 14 42 174q38 145 130 582q49 228 69.5 354t29.5 168q4 20 33.5 31t110.5 11q83 0 105.5 -10t22.5 -26q0 -11 -43 -174q-38 -145 -130 -582q-49 -228 -69.5 -354t-29.5 -168q-4 -20 -33 -31t-111 -11zM541 1752q138 0 206 -68
q51 -50 51 -147q0 -34 -6 -73q-114 0 -135.5 64t-152.5 64q-128 0 -179.5 -64t-165.5 -64q41 148 144 218t238 70z" />
    <glyph glyph-name="ibreveinverted" unicode="&#x20b;" horiz-adv-x="534" 
d="M291 196q0 -44 32 -44q35 0 90 39q-30 -205 -205 -205q-144 0 -144 136q0 56 114 558q8 34 8 80q0 41 -11 71q62 43 131 43q103 0 103 -77q0 -27 -6 -55q-2 -9 -57 -259t-55 -287zM402 1275q138 0 206 -68q51 -50 51 -147q0 -34 -6 -73q-114 0 -135.5 64t-152.5 64
q-128 0 -179.5 -64t-165.5 -64q41 148 144 218t238 70z" />
    <glyph glyph-name="Odoublegrave" unicode="&#x20c;" horiz-adv-x="1577" 
d="M613 -18q-197 0 -330.5 90.5t-187.5 241.5q-32 87 -32 187q0 73 17 152q43 201 174.5 359.5t313 247t377.5 88.5q198 0 333 -89t189 -243q32 -89 32 -189q0 -73 -17 -152q-43 -201 -174.5 -356t-314.5 -246t-380 -91zM698 166q179 0 315.5 124.5t180.5 333.5
q19 89 19 164q0 133 -74 252.5t-277 119.5q-180 0 -316.5 -124.5t-180.5 -333.5q-19 -88 -19 -164q0 -133 75 -252.5t277 -119.5zM887 1457q-137 0 -258 142l-120 142l11 34q237 0 307 -140l71 -140zM1223 1457q-137 0 -258 142l-120 142l11 34q237 0 307 -140l71 -140z" />
    <glyph glyph-name="odoublegrave" unicode="&#x20d;" horiz-adv-x="985" 
d="M369 -14q-176 0 -249 115q-50 80 -50 187q0 199 154 390.5t385 191.5q170 0 244 -103q55 -77 55 -188q0 -230 -163 -411.5t-376 -181.5zM425 158q95 0 175 112t80 277q0 158 -124 158q-108 0 -182.5 -122t-74.5 -261q0 -164 126 -164zM529 980q-137 0 -258 142l-120 142
l11 34q237 0 307 -140l71 -140zM865 980q-137 0 -258 142l-120 142l11 34q237 0 307 -140l71 -140z" />
    <glyph glyph-name="Obreveinverted" unicode="&#x20e;" horiz-adv-x="1577" 
d="M613 -18q-197 0 -330.5 90.5t-187.5 241.5q-32 87 -32 187q0 73 17 152q43 201 174.5 359.5t313 247t377.5 88.5q198 0 333 -89t189 -243q32 -89 32 -189q0 -73 -17 -152q-43 -201 -174.5 -356t-314.5 -246t-380 -91zM698 166q179 0 315.5 124.5t180.5 333.5
q19 89 19 164q0 133 -74 252.5t-277 119.5q-180 0 -316.5 -124.5t-180.5 -333.5q-19 -88 -19 -164q0 -133 75 -252.5t277 -119.5zM1034 1752q138 0 206 -68q51 -50 51 -147q0 -34 -6 -73q-114 0 -135.5 64t-152.5 64q-128 0 -179.5 -64t-165.5 -64q41 148 144 218t238 70z
" />
    <glyph glyph-name="obreveinverted" unicode="&#x20f;" horiz-adv-x="985" 
d="M369 -14q-176 0 -249 115q-50 80 -50 187q0 199 154 390.5t385 191.5q170 0 244 -103q55 -77 55 -188q0 -230 -163 -411.5t-376 -181.5zM425 158q95 0 175 112t80 277q0 158 -124 158q-108 0 -182.5 -122t-74.5 -261q0 -164 126 -164zM676 1275q138 0 206 -68
q51 -50 51 -147q0 -34 -6 -73q-114 0 -135.5 64t-152.5 64q-128 0 -179.5 -64t-165.5 -64q41 148 144 218t238 70z" />
    <glyph glyph-name="Rdoublegrave" unicode="&#x210;" horiz-adv-x="1231" 
d="M873 -16q-91 0 -110 11t-20 26l-13 294q-6 161 -215 198l-57 10q77 188 222 188q57 0 138.5 50t106.5 167q6 28 6 54q0 62 -45 112.5t-204 50.5q-79 0 -168 -21q-30 -170 -97.5 -487t-89.5 -443t-30 -168q-5 -20 -28.5 -31t-110.5 -11q-86 0 -106 11q-16 9 -16 23
q0 15 41 176q32 126 99.5 443t89 443t30.5 168q5 22 30 31q194 70 408 70q258 0 367 -104q82 -77 82 -195q0 -41 -10 -87q-61 -285 -330 -398q139 -53 154 -269q20 -237 20 -266q0 -22 -28 -35q-24 -11 -116 -11zM677 1457q-137 0 -258 142l-120 142l11 34q237 0 307 -140
l71 -140zM1013 1457q-137 0 -258 142l-120 142l11 34q237 0 307 -140l71 -140z" />
    <glyph glyph-name="rdoublegrave" unicode="&#x211;" horiz-adv-x="893" 
d="M419 640l-1 -3q163 240 332 240q97 0 162 -64q0 -193 -105 -193q-28 0 -67.5 25t-75.5 25q-102 0 -204 -177t-167 -450l-10 -43h-209q131 590 152 680q8 34 8 80q0 41 -11 71q62 43 131 43q93 0 93 -77q0 -27 -6 -55q-1 -6 -22 -102zM487 980q-137 0 -258 142l-120 142
l11 34q237 0 307 -140l71 -140zM823 980q-137 0 -258 142l-120 142l11 34q237 0 307 -140l71 -140z" />
    <glyph glyph-name="Rbreveinverted" unicode="&#x212;" horiz-adv-x="1231" 
d="M873 -16q-91 0 -110 11t-20 26l-13 294q-6 161 -215 198l-57 10q77 188 222 188q57 0 138.5 50t106.5 167q6 28 6 54q0 62 -45 112.5t-204 50.5q-79 0 -168 -21q-30 -170 -97.5 -487t-89.5 -443t-30 -168q-5 -20 -28.5 -31t-110.5 -11q-86 0 -106 11q-16 9 -16 23
q0 15 41 176q32 126 99.5 443t89 443t30.5 168q5 22 30 31q194 70 408 70q258 0 367 -104q82 -77 82 -195q0 -41 -10 -87q-61 -285 -330 -398q139 -53 154 -269q20 -237 20 -266q0 -22 -28 -35q-24 -11 -116 -11zM824 1752q138 0 206 -68q51 -50 51 -147q0 -34 -6 -73
q-114 0 -135.5 64t-152.5 64q-128 0 -179.5 -64t-165.5 -64q41 148 144 218t238 70z" />
    <glyph glyph-name="rbreveinverted" unicode="&#x213;" horiz-adv-x="893" 
d="M419 640l-1 -3q163 240 332 240q97 0 162 -64q0 -193 -105 -193q-28 0 -67.5 25t-75.5 25q-102 0 -204 -177t-167 -450l-10 -43h-209q131 590 152 680q8 34 8 80q0 41 -11 71q62 43 131 43q93 0 93 -77q0 -27 -6 -55q-1 -6 -22 -102zM634 1275q138 0 206 -68
q51 -50 51 -147q0 -34 -6 -73q-114 0 -135.5 64t-152.5 64q-128 0 -179.5 -64t-165.5 -64q41 148 144 218t238 70z" />
    <glyph glyph-name="Udoublegrave" unicode="&#x214;" horiz-adv-x="1444" 
d="M564 -14q-160 0 -273 65.5t-158 187.5q-23 63 -23 146q0 77 20 172q91 426 117 573q21 126 30 168q4 20 30 31t116 11t111 -11q17 -9 17 -25q0 -10 -42 -174q-21 -83 -120 -538q-15 -70 -15 -128q0 -110 67 -197t208 -87q136 0 248.5 97t150.5 278q98 460 117 575
q21 126 30 168q5 20 30.5 31t101.5 11q75 0 94.5 -10t19.5 -26q0 -11 -42 -174q-33 -126 -81 -354l-39 -184q-42 -198 -144.5 -330t-251.5 -204t-319 -72zM811 1457q-137 0 -258 142l-120 142l11 34q237 0 307 -140l71 -140zM1147 1457q-137 0 -258 142l-120 142l11 34
q237 0 307 -140l71 -140z" />
    <glyph glyph-name="udoublegrave" unicode="&#x215;" horiz-adv-x="1084" 
d="M321 248q0 -76 73 -76q115 0 219.5 196t156.5 478l202 20q-131 -639 -131 -676q0 -38 36 -38q31 0 86 39q-30 -205 -186 -205q-131 0 -131 135q0 33 12 86q-147 -221 -344 -221q-95 0 -154 52.5t-59 151.5q0 60 30.5 205t62.5 285q8 34 8 80q0 41 -11 71q62 43 131 43
q103 0 103 -77q0 -27 -6 -55q-2 -9 -50 -229.5t-48 -264.5zM533 978q-137 0 -258 142l-120 142l11 34q237 0 307 -140l71 -140zM869 978q-137 0 -258 142l-120 142l11 34q237 0 307 -140l71 -140z" />
    <glyph glyph-name="Ubreveinverted" unicode="&#x216;" horiz-adv-x="1444" 
d="M564 -14q-160 0 -273 65.5t-158 187.5q-23 63 -23 146q0 77 20 172q91 426 117 573q21 126 30 168q4 20 30 31t116 11t111 -11q17 -9 17 -25q0 -10 -42 -174q-21 -83 -120 -538q-15 -70 -15 -128q0 -110 67 -197t208 -87q136 0 248.5 97t150.5 278q98 460 117 575
q21 126 30 168q5 20 30.5 31t101.5 11q75 0 94.5 -10t19.5 -26q0 -11 -42 -174q-33 -126 -81 -354l-39 -184q-42 -198 -144.5 -330t-251.5 -204t-319 -72zM958 1752q138 0 206 -68q51 -50 51 -147q0 -34 -6 -73q-114 0 -135.5 64t-152.5 64q-128 0 -179.5 -64t-165.5 -64
q41 148 144 218t238 70z" />
    <glyph glyph-name="ubreveinverted" unicode="&#x217;" horiz-adv-x="1084" 
d="M321 248q0 -76 73 -76q115 0 219.5 196t156.5 478l202 20q-131 -639 -131 -676q0 -38 36 -38q31 0 86 39q-30 -205 -186 -205q-131 0 -131 135q0 33 12 86q-147 -221 -344 -221q-95 0 -154 52.5t-59 151.5q0 60 30.5 205t62.5 285q8 34 8 80q0 41 -11 71q62 43 131 43
q103 0 103 -77q0 -27 -6 -55q-2 -9 -50 -229.5t-48 -264.5zM680 1273q138 0 206 -68q51 -50 51 -147q0 -34 -6 -73q-114 0 -135.5 64t-152.5 64q-128 0 -179.5 -64t-165.5 -64q41 148 144 218t238 70z" />
    <glyph glyph-name="Scommaaccent" unicode="&#x218;" horiz-adv-x="1057" 
d="M349 -14q-260 0 -388 122q44 207 142 207q51 0 123.5 -62t177.5 -62q207 0 239 151q3 14 3 27q0 125 -241 240q-222 105 -222 298q0 39 9 82q36 167 192 262t334 95q195 0 334 -84q-43 -202 -143 -202q-42 0 -100.5 38.5t-161.5 38.5q-187 0 -218 -143q-2 -10 -2 -20
q0 -111 249 -231q229 -110 229 -303q0 -37 -9 -78q-41 -194 -188 -285t-359 -91zM241 -505q-38 23 -38 44q0 23 55 64q49 36 74 101q-9 -2 -19 -2q-48 0 -75 32q-20 24 -20 55q0 58 53 100q41 33 89 33q47 0 73 -33q20 -23 20 -64q0 -22 -5 -48q-37 -174 -207 -282z" />
    <glyph glyph-name="scommaaccent" unicode="&#x219;" horiz-adv-x="788" 
d="M301 -14q-161 0 -274 102q32 128 105 128q36 0 89.5 -29t112.5 -29q109 0 109 95q0 71 -132 144.5t-132 204.5q0 118 91 196.5t240 78.5q125 0 240 -68q-23 -144 -85 -144q-31 0 -76.5 24t-105.5 24q-109 0 -109 -83q0 -63 138 -141t138 -197q0 -132 -100 -219t-249 -87z
M204 -505q-38 23 -38 44q0 23 55 64q49 36 74 101q-9 -2 -19 -2q-48 0 -75 32q-20 24 -20 55q0 58 53 100q41 33 89 33q47 0 73 -33q20 -23 20 -64q0 -22 -5 -48q-37 -174 -207 -282z" />
    <glyph glyph-name="Tcommaaccent" unicode="&#x21a;" horiz-adv-x="1115" 
d="M478 -16q-96 0 -116 11q-16 9 -16 23q0 15 41 176q32 126 80 354l125 584h-165q-164 0 -310 -46l46 123q46 123 200 123h814q148 0 148 -114l-6 -132q-132 46 -300 46h-167l-125 -584q-48 -228 -70 -354t-30 -168q-5 -20 -28.5 -31t-120.5 -11zM350 -505q-38 23 -38 44
q0 23 55 64q49 36 74 101q-9 -2 -19 -2q-48 0 -75 32q-20 24 -20 55q0 58 53 100q41 33 89 33q47 0 73 -33q20 -23 20 -64q0 -22 -5 -48q-37 -174 -207 -282z" />
    <glyph glyph-name="tcommaaccent" unicode="&#x21b;" horiz-adv-x="780" 
d="M353 -14q-91 0 -143.5 50.5t-52.5 147.5q0 41 11 90l102 421l-150 2q33 135 182 139l44 144q43 143 189 184l49 13l-71 -335l279 6q-51 -161 -182 -161l-131 3l-92 -391q-8 -39 -8 -66q0 -71 53 -71q50 0 96 34t86 34t58 -78q-126 -166 -319 -166zM194 -505
q-38 23 -38 44q0 23 55 64q49 36 74 101q-9 -2 -19 -2q-48 0 -75 32q-20 24 -20 55q0 58 53 100q41 33 89 33q47 0 73 -33q20 -23 20 -64q0 -22 -5 -48q-37 -174 -207 -282z" />
    <glyph glyph-name="Hcaron" unicode="&#x21e;" horiz-adv-x="1525" 
d="M1075 -16q-81 0 -106 11q-21 9 -21 25q0 14 42 174q33 126 81 354l7 30h-664q-43 -184 -75 -384q-21 -126 -29 -168q-5 -20 -33.5 -31t-111.5 -11q-81 0 -106 11q-21 9 -21 25q0 14 42 174q33 126 81 354q94 435 118 582q21 126 30 168q4 20 33.5 31t110.5 11
q83 0 105.5 -10t22.5 -26q0 -11 -43 -174q-33 -125 -81 -349h664q48 224 68.5 349.5t29.5 167.5q4 20 33.5 31t110.5 11q83 0 105.5 -10t22.5 -26q0 -12 -43 -174q-34 -126 -82 -354q-94 -437 -117 -582q-21 -126 -29 -168q-5 -20 -33.5 -31t-111.5 -11zM719 1771
q99 0 174 -82l75 -82l109 82q108 82 204 82l-4 -20l-221 -222q-46 -47 -116 -47q-69 0 -96 47l-129 222z" />
    <glyph glyph-name="hcaron" unicode="&#x21f;" horiz-adv-x="1124" 
d="M436 662q185 215 375 215q86 0 135 -48t49 -126q0 -79 -58 -270.5t-58 -236.5q0 -44 37 -44q30 0 86 39q-30 -205 -205 -205q-141 0 -141 129q0 52 57 252t57 254q0 69 -63 69q-115 0 -237 -195.5t-179 -494.5h-213q258 1164 284 1280q8 34 8 80q0 41 -11 71
q62 43 131 43q103 0 103 -77q0 -27 -4 -49t-153 -686zM520 1879q99 0 174 -82l75 -82l109 82q108 82 204 82l-4 -20l-221 -222q-46 -47 -116 -47q-69 0 -96 47l-129 222z" />
    <glyph glyph-name="Ecedilla" unicode="&#x228;" horiz-adv-x="1090" 
d="M902 0h-595q-230 0 -230 193q0 42 11 93l102 483q49 228 71 355.5t31 169.5q4 20 28.5 31t89.5 11h717l-88 -227q-169 20 -531 20q-29 -165 -68 -350q335 0 468 20l-90 -231q-86 10 -421 10l-41 -194q-7 -33 -7 -60q0 -118 135 -118q291 0 425 20zM372 -474
q-117 0 -209 53q23 107 95 107q29 0 64 -14.5t81 -14.5q124 0 124 90q0 66 -167 88l116 165h138l-58 -88q127 -21 127 -135q0 -101 -75.5 -176t-235.5 -75z" />
    <glyph glyph-name="ecedilla" unicode="&#x229;" horiz-adv-x="933" 
d="M541 530.5q135 48.5 135 125.5q0 67 -76 67q-137 0 -221 -136.5t-84 -281.5q0 -64 32 -105.5t122 -41.5q72 0 134.5 21.5t94.5 21.5q67 0 67 -105q-161 -110 -348 -110q-179 0 -267 110q-60 77 -60 190q0 219 169 405t418 186q218 0 218 -200q0 -255 -469 -332
q0 137 135 185.5zM224 -474q-117 0 -209 53q23 107 95 107q29 0 64 -14.5t81 -14.5q124 0 124 90q0 66 -167 88l116 165h138l-58 -88q127 -21 127 -135q0 -101 -75.5 -176t-235.5 -75z" />
    <glyph glyph-name="Ymacron" unicode="&#x232;" horiz-adv-x="1168" 
d="M456 -16q-85 0 -105 11q-16 9 -16 23q0 18 31 126q12 45 68 298q-275 170 -275 495q0 93 22 198q15 71 15.5 96t9.5 67q4 20 28.5 31t109.5 11t102.5 -10t17.5 -25l-1 -7q-9 -42 -19.5 -67t-20.5 -74q-21 -97 -21 -178q0 -247 190 -355q315 143 398 533q10 49 10.5 74
t9.5 67q4 20 28.5 31t108.5 11t101.5 -10t17.5 -25l-1 -7q-9 -42 -19.5 -67t-25.5 -96q-101 -475 -549 -693q-43 -194 -58 -298q-12 -76 -20 -118q-5 -20 -28.5 -31t-108.5 -11zM1027 1464h-554l32 152h554z" />
    <glyph glyph-name="ymacron" unicode="&#x233;" horiz-adv-x="1071" 
d="M209 680q8 34 8 80q0 41 -11 71q62 43 131 43q103 0 103 -77q0 -27 -6 -55q-9 -44 -54 -241t-45 -253q0 -76 93 -76q132 0 210 143.5t166 540.5h191l-196 -963q-40 -192 -163.5 -288.5t-281.5 -96.5q-128 0 -237.5 61.5t-109.5 151.5q0 89 136 158q85 -197 245 -197
q146 0 202 221l59 234q-128 -153 -309 -153q-105 0 -165.5 53.5t-60.5 132.5q0 75 41.5 265.5t53.5 244.5zM926 994h-554l32 152h554z" />
    <glyph glyph-name="jdotless" unicode="&#x237;" horiz-adv-x="528" 
d="M218 660q8 34 8 80q0 41 -21 81q62 53 151 53q93 0 93 -77q0 -27 -6 -55q-2 -8 -143 -660q-101 -468 -465 -573q-66 23 -66 76q0 55 130.5 142t211.5 452z" />
    <glyph glyph-name="schwa" unicode="&#x259;" horiz-adv-x="915" 
d="M507 878q343 0 343 -347q0 -251 -159 -398t-394 -147q-256 0 -256 230q0 296 539 308q-33 -143 -168 -163q-189 -23 -189 -132q0 -86 90 -86q113 0 217.5 97t104.5 277q0 188 -165 188q-98 0 -200 -51q-32 -16 -56 -16q-51 0 -66 95q169 145 359 145z" />
    <glyph glyph-name="gscript" unicode="&#x261;" horiz-adv-x="1067" 
d="M417 162q121 0 267 224l63 241q-47 89 -138 89q-92 0 -172 -83t-109 -216q-12 -58 -12 -98q0 -157 101 -157zM653 169q-162 -182 -339 -182q-218 0 -218 297q0 57 13 121q28 132 102.5 237.5t175 166t205.5 60.5q138 0 195 -115q22 103 127 103q77 0 108 -52
q-47 -101 -71 -212l-140 -677q-84 -406 -464 -406q-161 0 -262 64t-101 155q0 120 149 162q70 -213 218 -213q187 0 240 226z" />
    <glyph glyph-name="ezh" unicode="&#x292;" horiz-adv-x="908" 
d="M238 -327q-165 0 -246 76q-65 62 -65 132q0 16 4 33q31 148 199 148l-1 -39q0 -186 144 -186q97 0 161 60.5t89 178.5q7 33 7 60q0 143 -195 154q-90 4 -90 64q0 100 294 326h-195q-114 0 -251 -22l33 99q32 99 169 99h557l-17 -81q-17 -81 -118.5 -147t-206.5 -192
q112 0 204 -89q65 -64 65 -169q0 -41 -10 -89q-42 -198 -192.5 -307t-338.5 -109z" />
    <glyph glyph-name="hsmallmod" unicode="&#x2b0;" horiz-adv-x="699" 
d="M473 783q-94 0 -94 87q0 33 34.5 155t34.5 154q0 34 -30 34q-66 0 -139 -117t-108 -304h-147l176 791q4 19 4 47q0 23 -8 46q45 31 89 31q71 0 71 -55q0 -17 -2 -31t-87 -388q95 110 214 110q56 0 88.5 -31.5t32.5 -82.5q0 -50 -35.5 -166.5t-35.5 -142.5q0 -19 14 -19
q16 0 63 33q-22 -151 -135 -151z" />
    <glyph glyph-name="jsmallmod" unicode="&#x2b2;" horiz-adv-x="350" 
d="M2 492q-48 17 -48 55t76.5 91t125.5 279l66 293q4 20 4 48q0 23 -8 45q44 38 102 38q64 0 64 -55q0 -17 -91 -438q-62 -290 -291 -356zM313 1426q-44 0 -69 32q-18 23 -18 53q0 56 48 96q37 31 80 31q45 0 70 -32q18 -23 18 -53q0 -56 -49 -96q-37 -31 -80 -31z" />
    <glyph glyph-name="rsmallmod" unicode="&#x2b3;" horiz-adv-x="510" 
d="M163 792h-144q82 370 95 425q4 19 4 47q0 23 -8 46q45 31 89 31q65 0 65 -55q0 -18 -8 -57q79 114 185 114q62 0 107 -44q0 -129 -72 -129q-20 0 -44 15.5t-43 15.5q-58 0 -119 -105q-65 -113 -107 -304z" />
    <glyph glyph-name="rsmallturnedmod" unicode="&#x2b4;" horiz-adv-x="510" 
d="M417 1328h144q-82 -370 -95 -425q-4 -19 -4 -47q0 -23 8 -46q-45 -31 -89 -31q-65 0 -65 55q0 18 8 57q-79 -114 -185 -114q-62 0 -107 44q0 129 72 129q20 0 44 -15.5t43 -15.5q58 0 119 106q65 112 107 303z" />
    <glyph glyph-name="wsmallmod" unicode="&#x2b7;" horiz-adv-x="929" 
d="M574 783q-124 0 -144 80q-71 -80 -181 -80q-72 0 -118 37.5t-46 118.5q0 28 7 59l50 219q4 19 4 47q0 23 -8 46q45 31 90 31q70 0 70 -55q0 -17 -3 -35q-1 -4 -31 -136t-30 -154q0 -59 53 -59q114 0 155 240l31 179l158 16q-78 -353 -78 -383q0 -52 53 -52
q62 0 111.5 62.5t49.5 173.5q0 105 -28 157q43 58 97 58q90 0 90 -156q0 -171 -113 -292.5t-239 -121.5z" />
    <glyph glyph-name="ysmallmod" unicode="&#x2b8;" horiz-adv-x="656" 
d="M237 492q-81 0 -150.5 39t-69.5 99q0 59 95 107q53 -123 145 -123q83 0 116 129l27 109q-58 -70 -172 -70q-67 0 -106.5 35t-39.5 87q0 46 25.5 163t32.5 150q5 19 5 47q0 23 -8 46q45 31 89 31q71 0 71 -55q0 -18 -37 -181q-27 -120 -27 -154q0 -38 49 -38
q75 0 121.5 85t101.5 332h132l-121 -597q-25 -120 -102.5 -180.5t-176.5 -60.5z" />
    <glyph glyph-name="apostrophemod" unicode="&#x2bc;" horiz-adv-x="348" 
d="M137 958q-46 28 -46 52q0 28 66 76q58 44 88 121q-11 -2 -23 -2q-57 0 -90 38q-23 29 -23 66q0 69 64 120q48 39 105 39q56 0 88 -39q24 -28 24 -78q0 -25 -7 -57q-44 -208 -246 -336z" />
    <glyph glyph-name="circumflexmod" unicode="&#x2c6;" horiz-adv-x="792" 
d="M660 1177q-99 0 -174 82l-75 82l-109 -82q-108 -82 -204 -82l4 20l221 222q46 47 116 47q69 0 96 -47l129 -222z" />
    <glyph glyph-name="caronmod" unicode="&#x2c7;" horiz-adv-x="839" 
d="M96 1468q99 0 174 -82l75 -82l109 82q108 82 204 82l-4 -20l-221 -222q-46 -47 -116 -47q-69 0 -96 47l-129 222z" />
    <glyph glyph-name="macronmod" unicode="&#x2c9;" horiz-adv-x="686" 
d="M604 1280h-554l32 152h554z" />
    <glyph glyph-name="brevemod" unicode="&#x2d8;" horiz-adv-x="787" 
d="M316 1214q-138 0 -206 68q-51 50 -51 147q0 34 6 73q114 0 135.5 -64t152.5 -64q128 0 179.5 64t165.5 64q-41 -148 -144 -218t-238 -70z" />
    <glyph glyph-name="dotaccentmod" unicode="&#x2d9;" horiz-adv-x="383" 
d="M106 1189q-66 0 -103 47q-27 34 -27 78q0 86 75 148q57 47 123 47q67 0 103 -47q27 -34 27 -78q0 -86 -75 -148q-57 -47 -123 -47z" />
    <glyph glyph-name="ringmod" unicode="&#x2da;" horiz-adv-x="534" 
d="M233 1154q-82 0 -127 57q-32 40 -32 93q0 22 5 45q17 82 86 139t151 57t127 -57q32 -41 32 -95q0 -21 -5 -44q-18 -82 -86.5 -138.5t-150.5 -56.5zM254 1252q40 0 75 29q45 37 45 89q0 28 -19 52.5t-60 24.5t-75 -28q-46 -38 -46 -92q0 -26 19.5 -50.5t60.5 -24.5z" />
    <glyph glyph-name="ogonekmod" unicode="&#x2db;" horiz-adv-x="373" 
d="M233 -450q-168 0 -168 171q0 163 233 279h116q-190 -136 -190 -258q0 -70 79 -70q39 0 70 15q0 -137 -140 -137z" />
    <glyph glyph-name="tildemod" unicode="&#x2dc;" horiz-adv-x="993" 
d="M568 1231q-74 0 -124.5 55.5t-106.5 55.5q-71 0 -114.5 -47t-107.5 -47q91 221 244 221q76 0 127.5 -55.5t105.5 -55.5q69 0 112.5 47t107.5 47q-91 -221 -244 -221z" />
    <glyph glyph-name="doubleacutemod" unicode="&#x2dd;" horiz-adv-x="937" 
d="M473 1200l-11 38l76 140q75 140 302 140l11 -34l-125 -142q-126 -142 -253 -142zM133 1200l-11 38l76 140q75 140 302 140l11 -34l-125 -142q-126 -142 -253 -142z" />
    <glyph glyph-name="lsmallmod" unicode="&#x2e1;" horiz-adv-x="365" 
d="M139 783q-96 0 -96 91q0 35 151 709q5 20 5 47q0 23 -9 46q45 31 90 31q71 0 71 -55q0 -18 -79 -376q-74 -335 -74 -356q0 -19 11 -19q19 0 66 33q-22 -151 -136 -151z" />
    <glyph glyph-name="ssmallmod" unicode="&#x2e2;" horiz-adv-x="459" 
d="M207 783q-101 0 -177 68q23 88 74 88q24 0 56.5 -17.5t66.5 -17.5q59 0 59 50q0 39 -81 83.5t-81 129.5q0 76 58 126t152 50q79 0 155 -45q-16 -100 -60 -100q-21 0 -49 14.5t-62 14.5q-59 0 -59 -43q0 -33 84.5 -81t84.5 -125q0 -84 -63.5 -139.5t-157.5 -55.5z" />
    <glyph glyph-name="xsmallmod" unicode="&#x2e3;" horiz-adv-x="605" 
d="M450 783q-113 0 -152 158q-88 -158 -188 -158q-37 0 -110 34q150 118 261 249l-43 120q-15 41 -35 41q-16 0 -49 -15q-37 32 -37 61q0 70 118 70q107 0 147 -164q89 164 183 164q38 0 105 -37q-150 -118 -252 -249l41 -114q16 -44 36 -44q26 0 58 25q38 -33 38 -63
q0 -78 -121 -78z" />
    <glyph glyph-name="gravecomb" unicode="&#x300;" horiz-adv-x="0" 
d="M-57 1026q-137 0 -258 142l-120 142l11 34q237 0 307 -140l71 -140z" />
    <glyph glyph-name="acutecomb" unicode="&#x301;" horiz-adv-x="0" 
d="M-424 1022l-11 38l76 140q75 140 302 140l11 -34l-125 -142q-126 -142 -253 -142z" />
    <glyph glyph-name="circumflexcomb" unicode="&#x302;" horiz-adv-x="0" 
d="M15 1005q-99 0 -174 82l-75 82l-109 -82q-108 -82 -204 -82l4 20l221 222q46 47 116 47q69 0 96 -47l129 -222z" />
    <glyph glyph-name="tildecomb" unicode="&#x303;" horiz-adv-x="0" 
d="M-166 984q-74 0 -124.5 55.5t-106.5 55.5q-71 0 -114.5 -47t-107.5 -47q91 221 244 221q76 0 127.5 -55.5t105.5 -55.5q69 0 112.5 47t107.5 47q-91 -221 -244 -221z" />
    <glyph glyph-name="macroncomb" unicode="&#x304;" horiz-adv-x="0" 
d="M-9 987h-554l32 152h554z" />
    <glyph glyph-name="brevecomb" unicode="&#x306;" horiz-adv-x="0" 
d="M-319 993q-138 0 -206 68q-51 50 -51 147q0 34 6 73q114 0 135.5 -64t152.5 -64q128 0 179.5 64t165.5 64q-41 -148 -144 -218t-238 -70z" />
    <glyph glyph-name="dotaccentcomb" unicode="&#x307;" horiz-adv-x="0" 
d="M-290 987q-66 0 -103 47q-27 34 -27 78q0 86 75 148q57 47 123 47q67 0 103 -47q27 -34 27 -78q0 -86 -75 -148q-57 -47 -123 -47z" />
    <glyph glyph-name="dieresiscomb" unicode="&#x308;" horiz-adv-x="0" 
d="M-89 988q-66 0 -103 47q-27 34 -27 78q0 86 75 148q57 47 123 47q67 0 103 -47q27 -34 27 -78q0 -86 -75 -148q-57 -47 -123 -47zM-489 988q-66 0 -103 47q-27 34 -27 78q0 86 75 148q57 47 123 47q67 0 103 -47q27 -34 27 -78q0 -86 -75 -148q-57 -47 -123 -47z" />
    <glyph glyph-name="ringcomb" unicode="&#x30a;" horiz-adv-x="0" 
d="M-289 958q-82 0 -127 57q-32 40 -32 93q0 22 5 45q17 82 86 139t151 57t127 -57q32 -41 32 -95q0 -21 -5 -44q-18 -82 -86.5 -138.5t-150.5 -56.5zM-268 1056q40 0 75 29q45 37 45 89q0 28 -19 52.5t-60 24.5t-75 -28q-46 -38 -46 -92q0 -26 19.5 -50.5t60.5 -24.5z" />
    <glyph glyph-name="doubleacutecomb" unicode="&#x30b;" horiz-adv-x="0" 
d="M-270 999l-11 38l76 140q75 140 302 140l11 -34l-125 -142q-126 -142 -253 -142zM-610 999l-11 38l76 140q75 140 302 140l11 -34l-125 -142q-126 -142 -253 -142z" />
    <glyph glyph-name="caroncomb" unicode="&#x30c;" horiz-adv-x="0" 
d="M-533 1294q99 0 174 -82l75 -82l109 82q108 82 204 82l-4 -20l-221 -222q-46 -47 -116 -47q-69 0 -96 47l-129 222z" />
    <glyph glyph-name="doublegravecomb" unicode="&#x30f;" horiz-adv-x="0" 
d="M-330 980q-137 0 -258 142l-120 142l11 34q237 0 307 -140l71 -140zM6 980q-137 0 -258 142l-120 142l11 34q237 0 307 -140l71 -140z" />
    <glyph glyph-name="invertedbrevecomb" unicode="&#x311;" horiz-adv-x="0" 
d="M-205 1275q138 0 206 -68q51 -50 51 -147q0 -34 -6 -73q-114 0 -135.5 64t-152.5 64q-128 0 -179.5 -64t-165.5 -64q41 148 144 218t238 70z" />
    <glyph glyph-name="turnedcommacomb" unicode="&#x312;" horiz-adv-x="0" 
d="M-159 1407q37 -23 37 -42q0 -24 -54 -63q-47 -35 -72 -98q9 2 19 2q46 0 73 -32q19 -23 19 -53q0 -56 -52 -98q-39 -31 -86 -31q-45 0 -71 31q-20 24 -20 63q0 21 6 47q35 169 201 274z" />
    <glyph glyph-name="uptackbelowcomb" unicode="&#x31d;" horiz-adv-x="0" 
d="M-381 -428h-405l18 91h155l40 209h95l-40 -209h155z" />
    <glyph glyph-name="downtackbelowcomb" unicode="&#x31e;" horiz-adv-x="0" 
d="M-538 -427h-95l40 209h-155l18 91h405l-18 -91h-155z" />
    <glyph glyph-name="dotbelowcomb" unicode="&#x323;" horiz-adv-x="0" 
d="M-624 -433q-66 0 -103 47q-27 34 -27 78q0 86 75 148q57 47 123 47q67 0 103 -47q27 -34 27 -78q0 -86 -75 -148q-57 -47 -123 -47z" />
    <glyph glyph-name="commaaccentcomb" unicode="&#x326;" horiz-adv-x="0" 
d="M-644 -505q-38 23 -38 44q0 23 55 64q49 36 74 101q-9 -2 -19 -2q-48 0 -75 32q-20 24 -20 55q0 58 53 100q41 33 89 33q47 0 73 -33q20 -23 20 -64q0 -22 -5 -48q-37 -174 -207 -282z" />
    <glyph glyph-name="cedillacomb" unicode="&#x327;" horiz-adv-x="0" 
d="M-649 -474q-117 0 -209 53q23 107 95 107q29 0 64 -14.5t81 -14.5q124 0 124 90q0 66 -167 88l116 165h138l-58 -88q127 -21 127 -135q0 -101 -75.5 -176t-235.5 -75z" />
    <glyph glyph-name="ogonekcomb" unicode="&#x328;" horiz-adv-x="0" 
d="M-599 -450q-168 0 -168 171q0 163 233 279h116q-190 -136 -190 -258q0 -70 79 -70q39 0 70 15q0 -137 -140 -137z" />
    <glyph glyph-name="strokeshortcomb" unicode="&#x335;" horiz-adv-x="0" 
d="M-194 485h-565q28 131 113 131h564q-28 -131 -112 -131z" />
    <glyph glyph-name="solidusshortcomb" unicode="&#x337;" horiz-adv-x="0" 
d="M-918 136l-64 62l823 715l64 -62z" />
    <glyph glyph-name="soliduslongcomb" unicode="&#x338;" horiz-adv-x="0" 
d="M-914 66l-74 61l804 1202l74 -62z" />
    <glyph glyph-name="acutetonemarkcomb" unicode="&#x341;" horiz-adv-x="1" 
d="M-461 979h-45l74 198q75 199 160 212l84 13l33 -26l-130 -199q-130 -198 -176 -198z" />
    <glyph glyph-name="greekdialytikatonoscomb" unicode="&#x344;" horiz-adv-x="0" 
d="M-83 1038q-66 0 -103 47q-27 34 -27 78q0 86 75 148q57 47 123 47q67 0 103 -47q27 -34 27 -78q0 -86 -75 -148q-57 -47 -123 -47zM-483 1038q-66 0 -103 47q-27 34 -27 78q0 86 75 148q57 47 123 47q67 0 103 -47q27 -34 27 -78q0 -86 -75 -148q-57 -47 -123 -47z
M-221 1355h-61l84 301q28 100 136 100h108l-154 -301q-52 -100 -113 -100z" />
    <glyph glyph-name="greeknumeralsignmod" unicode="&#x374;" horiz-adv-x="444" 
d="M155 1149h-61l84 301q28 100 136 100h108l-154 -301q-52 -100 -113 -100z" />
    <glyph glyph-name="lowernumeralsignmod-grek" unicode="&#x375;" horiz-adv-x="444" 
d="M302 194h61l-84 -301q-28 -100 -136 -100h-108l154 301q52 100 113 100z" />
    <glyph glyph-name="ypogegrammenimod-grek" unicode="&#x37a;" horiz-adv-x="705" 
d="M293 -432q-179 0 -179 179q0 48 13 109l31 144h160l-27 -124q-10 -47 -10 -81q0 -88 68 -88q102 0 102 -81q0 -17 -5 -38q-71 -20 -153 -20z" />
    <glyph glyph-name="lunatesigmasymbolsmallreversed-grek" unicode="&#x37b;" horiz-adv-x="877" 
d="M302 -14q-182 0 -296 145q37 110 98 110q19 0 72.5 -36t121.5 -36q125 0 213.5 99.5t88.5 249.5q0 30 -8 66.5t-48 76.5t-110 40t-128 -36.5t-75 -36.5q-55 0 -87 128q144 122 303 122q165 0 262.5 -101.5t97.5 -262.5q0 -219 -156 -373.5t-349 -154.5z" />
    <glyph glyph-name="lunatesigmasymbolsmalldotted-grek" unicode="&#x37c;" horiz-adv-x="841" 
d="M376 -14q-166 0 -248 117q-58 83 -58 194q0 184 154.5 382.5t371.5 198.5q174 0 239 -112q-71 -150 -120 -150q-20 0 -61 41t-104 41q-103 0 -179.5 -112t-76.5 -240q0 -187 137 -187q90 0 175 57q27 18 47 18q44 0 58 -103q-159 -145 -335 -145zM505 260q-66 0 -103 47
q-27 34 -27 78q0 86 75 148q57 47 123 47q67 0 103 -47q27 -34 27 -78q0 -86 -75 -148q-57 -47 -123 -47z" />
    <glyph glyph-name="lunatesigmasymbolsmallreverseddotted-grek" unicode="&#x37d;" horiz-adv-x="877" 
d="M369 266q-66 0 -103 47q-27 34 -27 78q0 86 75 148q57 47 123 47q67 0 103 -47q27 -34 27 -78q0 -86 -75 -148q-57 -47 -123 -47zM302 -14q-182 0 -296 145q37 110 98 110q19 0 72.5 -36t121.5 -36q125 0 213.5 99.5t88.5 249.5q0 30 -8 66.5t-48 76.5t-110 40
t-128 -36.5t-75 -36.5q-55 0 -87 128q144 122 303 122q165 0 262.5 -101.5t97.5 -262.5q0 -219 -156 -373.5t-349 -154.5z" />
    <glyph glyph-name="greekquestionmark" unicode="&#x37e;" horiz-adv-x="523" 
d="M282 587q-66 0 -103 47q-27 34 -27 78q0 86 75 148q57 47 123 47q67 0 103 -47q27 -34 27 -78q0 -86 -75 -148q-57 -47 -123 -47zM45 -316q-53 32 -53 60q0 33 76 89q68 50 103 140q-13 -3 -27 -3q-66 0 -104 45q-27 33 -27 76q0 80 74 139q56 45 122 45q65 0 102 -45
q28 -33 28 -90q0 -30 -8 -66q-51 -241 -286 -390z" />
    <glyph glyph-name="Yot-grek" unicode="&#x37f;" horiz-adv-x="627" 
d="M-234 -431q-31 29 -31 63q0 69 130 132q162 79 220 353l140 659q48 228 70 354t31 168q4 20 48.5 31t110.5 11q67 0 84.5 -10t17.5 -25q0 -11 -42 -175q-32 -126 -80 -354l-142 -669q-97 -457 -557 -538z" />
    <glyph glyph-name="tonosmod-grek" unicode="&#x384;" horiz-adv-x="444" 
d="M155 1149h-61l84 301q28 100 136 100h108l-154 -301q-52 -100 -113 -100z" />
    <glyph glyph-name="greekdialytikatonosmod" unicode="&#x385;" horiz-adv-x="763" 
d="M480 1190q-66 0 -103 47q-27 34 -27 78q0 86 75 148q57 47 123 47q67 0 103 -47q27 -34 27 -78q0 -86 -75 -148q-57 -47 -123 -47zM80 1190q-66 0 -103 47q-27 34 -27 78q0 86 75 148q57 47 123 47q67 0 103 -47q27 -34 27 -78q0 -86 -75 -148q-57 -47 -123 -47z
M342 1507h-61l84 301q28 100 136 100h108l-154 -301q-52 -100 -113 -100z" />
    <glyph glyph-name="Alphatonos-grek" unicode="&#x386;" horiz-adv-x="1287" 
d="M285 1149h-61l84 301q28 100 136 100h108l-154 -301q-52 -100 -113 -100zM941 -10q-81 0 -98.5 10t-17.5 25l1 7q9 42 20.5 73t21.5 77q20 96 20 194v9h-598q-45 -102 -66 -203q-10 -46 -11.5 -77t-10.5 -73q-4 -20 -28.5 -31t-103.5 -11t-96.5 10t-17.5 25l1 7
q9 42 20.5 73t21.5 77q123 581 691 1140q25 18 43 18h119q18 0 35 -18q242 -409 242 -828q0 -155 -33 -312q-10 -46 -11.5 -77t-10.5 -73q-4 -20 -28.5 -31t-104.5 -11zM884 584q-10 237 -150 484q-245 -247 -356 -484h506z" />
    <glyph glyph-name="greekanoteleia" unicode="&#x387;" horiz-adv-x="383" 
d="M160 540q-66 0 -103 47q-27 34 -27 78q0 86 75 148q57 47 123 47q67 0 103 -47q27 -34 27 -78q0 -86 -75 -148q-57 -47 -123 -47z" />
    <glyph glyph-name="Epsilontonos-grek" unicode="&#x388;" horiz-adv-x="1280" 
d="M205 1149h-61l84 301q28 100 136 100h108l-154 -301q-52 -100 -113 -100zM1092 0h-595q-230 0 -230 193q0 42 11 93l102 483q49 228 71 355.5t31 169.5q4 20 28.5 31t89.5 11h717l-88 -227q-169 20 -531 20q-29 -165 -68 -350q335 0 468 20l-90 -231q-86 10 -421 10
l-41 -194q-7 -33 -7 -60q0 -118 135 -118q291 0 425 20z" />
    <glyph glyph-name="Etatonos-grek" unicode="&#x389;" horiz-adv-x="1717" 
d="M205 1149h-61l84 301q28 100 136 100h108l-154 -301q-52 -100 -113 -100zM1267 -16q-81 0 -106 11q-21 9 -21 25q0 14 42 174q33 126 81 354l7 30h-664q-43 -184 -75 -384q-21 -126 -29 -168q-5 -20 -33.5 -31t-111.5 -11q-81 0 -106 11q-21 9 -21 25q0 14 42 174
q33 126 81 354q94 435 118 582q21 126 30 168q4 20 33.5 31t110.5 11q83 0 105.5 -10t22.5 -26q0 -11 -43 -174q-33 -125 -81 -349h664q48 224 68.5 349.5t29.5 167.5q4 20 33.5 31t110.5 11q83 0 105.5 -10t22.5 -26q0 -12 -43 -174q-34 -126 -82 -354q-94 -437 -117 -582
q-21 -126 -29 -168q-5 -20 -33.5 -31t-111.5 -11z" />
    <glyph glyph-name="Iotatonos-grek" unicode="&#x38a;" horiz-adv-x="807" 
d="M205 1149h-61l84 301q28 100 136 100h108l-154 -301q-52 -100 -113 -100zM353 -16q-81 0 -106 11q-21 9 -21 25q0 14 42 174q38 145 130 582q49 228 69.5 354t29.5 168q4 20 33.5 31t110.5 11q83 0 105.5 -10t22.5 -26q0 -11 -43 -174q-38 -145 -130 -582
q-49 -228 -69.5 -354t-29.5 -168q-4 -20 -33 -31t-111 -11z" />
    <glyph glyph-name="Omicrontonos-grek" unicode="&#x38c;" horiz-adv-x="1639" 
d="M205 1149h-61l84 301q28 100 136 100h108l-154 -301q-52 -100 -113 -100zM675 -18q-197 0 -330.5 90.5t-187.5 241.5q-32 87 -32 187q0 73 17 152q43 201 174.5 359.5t313 247t377.5 88.5q198 0 333 -89t189 -243q32 -89 32 -189q0 -73 -17 -152q-43 -201 -174.5 -356
t-314.5 -246t-380 -91zM760 166q179 0 315.5 124.5t180.5 333.5q19 89 19 164q0 133 -74 252.5t-277 119.5q-180 0 -316.5 -124.5t-180.5 -333.5q-19 -88 -19 -164q0 -133 75 -252.5t277 -119.5z" />
    <glyph glyph-name="Upsilontonos-grek" unicode="&#x38e;" horiz-adv-x="1450" 
d="M205 1149h-61l84 301q28 100 136 100h108l-154 -301q-52 -100 -113 -100zM738 -16q-85 0 -105 11q-16 9 -16 23q0 18 31 126q12 45 68 298q-275 170 -275 495q0 93 22 198q15 71 15.5 96t9.5 67q4 20 28.5 31t109.5 11t102.5 -10t17.5 -25l-1 -7q-9 -42 -19.5 -67
t-20.5 -74q-21 -97 -21 -178q0 -247 190 -355q315 143 398 533q10 49 10.5 74t9.5 67q4 20 28.5 31t108.5 11t101.5 -10t17.5 -25l-1 -7q-9 -42 -19.5 -67t-25.5 -96q-101 -475 -549 -693q-43 -194 -58 -298q-12 -76 -20 -118q-5 -20 -28.5 -31t-108.5 -11z" />
    <glyph glyph-name="Omegatonos-grek" unicode="&#x38f;" horiz-adv-x="1738" 
d="M205 1149h-61l84 301q28 100 136 100h108l-154 -301q-52 -100 -113 -100zM1373 0h-350q-81 0 -81 65q0 13 3 29q36 170 154 260q265 202 302 374q13 64 13 120q0 122 -79.5 225t-281.5 103q-191 0 -316.5 -109t-168.5 -309q-7 -35 -7 -71q0 -151 134 -309q59 -69 59 -177
q0 -50 -12 -107q-20 -94 -118 -94h-350q-97 0 -97 89q0 11 16 137q155 -44 340 -44q3 14 3 28q0 92 -128 189q-110 83 -110 233q0 50 12 108q56 262 286.5 439t527.5 177q289 0 440 -158q111 -117 111 -279q0 -57 -13 -119q-58 -274 -261 -403t-222 -217q186 0 361 46
l-34 -113q-34 -113 -133 -113z" />
    <glyph glyph-name="iotadialytikatonos-grek" unicode="&#x390;" horiz-adv-x="637" 
d="M270 -14q-176 0 -176 136q0 26 6 56l99 465q10 47 10 88v29q0 24 -15 57q74 53 169 53q103 0 103 -85q0 -19 -5 -41q-115 -539 -115 -550q0 -41 42 -41q17 0 40 14.5t49 14.5q43 0 43 -90v-8q-101 -98 -250 -98zM602 1030q-66 0 -103 47q-27 34 -27 78q0 86 75 148
q57 47 123 47q67 0 103 -47q27 -34 27 -78q0 -86 -75 -148q-57 -47 -123 -47zM202 1030q-66 0 -103 47q-27 34 -27 78q0 86 75 148q57 47 123 47q67 0 103 -47q27 -34 27 -78q0 -86 -75 -148q-57 -47 -123 -47zM464 1347h-61l84 301q28 100 136 100h108l-154 -301
q-52 -100 -113 -100z" />
    <glyph glyph-name="Alpha-grek" unicode="&#x391;" horiz-adv-x="1287" 
d="M941 -10q-81 0 -98.5 10t-17.5 25l1 7q9 42 20.5 73t21.5 77q20 96 20 194v9h-598q-45 -102 -66 -203q-10 -46 -11.5 -77t-10.5 -73q-4 -20 -28.5 -31t-103.5 -11t-96.5 10t-17.5 25l1 7q9 42 20.5 73t21.5 77q123 581 691 1140q25 18 43 18h119q18 0 35 -18
q242 -409 242 -828q0 -155 -33 -312q-10 -46 -11.5 -77t-10.5 -73q-4 -20 -28.5 -31t-104.5 -11zM884 584q-10 237 -150 484q-245 -247 -356 -484h506z" />
    <glyph glyph-name="Beta-grek" unicode="&#x392;" horiz-adv-x="1173" 
d="M614 801q86 0 142.5 47t73.5 126q5 21 5 41q0 140 -175 140q-92 0 -163 -23q-26 -166 -61 -331h178zM513 196q104 0 175 56t90 149q6 26 6 50q0 61 -47.5 110t-211.5 49h-127l-51 -238q-7 -32 -7 -58q0 -118 139 -118h34zM423 0h-119q-225 0 -225 201q0 47 12 105l91 428
q49 228 70 352.5t30 166.5q5 23 30 31q210 68 385 68q219 0 314 -96q73 -73 73 -173q0 -32 -8 -67q-38 -177 -214 -287q102 -42 148 -126q29 -53 29 -123q0 -41 -10 -87q-37 -170 -204.5 -281.5t-401.5 -111.5z" />
    <glyph glyph-name="Gamma-grek" unicode="&#x393;" horiz-adv-x="975" 
d="M160 -16q-86 0 -106 11q-16 9 -16 23q0 15 41 176q32 126 80 354q93 433 118 579q21 122 30 164q5 20 29 31t90 11h709l-86 -222q-171 20 -533 20q-29 -167 -122 -603q-44 -208 -66 -334t-30 -168q-5 -20 -28.5 -31t-109.5 -11z" />
    <glyph glyph-name="Delta-grek" unicode="&#x394;" horiz-adv-x="1335" 
d="M1003 -2h-942q-67 0 -88 11q-17 9 -17 24l1 7q8 42 21 78t23 82q121 569 734 1134q27 24 46 24h81q18 0 35 -24q280 -425 280 -854q0 -140 -30 -280q-10 -46 -12 -82t-11 -78q-5 -20 -29.5 -31t-91.5 -11zM846 196q98 0 98 316q0 309 -178 584q-409 -381 -503 -826
q-4 -16 -4 -29q0 -45 44 -45h543z" />
    <glyph glyph-name="Epsilon-grek" unicode="&#x395;" horiz-adv-x="1090" 
d="M902 0h-595q-230 0 -230 193q0 42 11 93l102 483q49 228 71 355.5t31 169.5q4 20 28.5 31t89.5 11h717l-88 -227q-169 20 -531 20q-29 -165 -68 -350q335 0 468 20l-90 -231q-86 10 -421 10l-41 -194q-7 -33 -7 -60q0 -118 135 -118q291 0 425 20z" />
    <glyph glyph-name="Zeta-grek" unicode="&#x396;" horiz-adv-x="1203" 
d="M834 0h-895q31 147 141 296q321 436 854 847q-555 0 -758 -36l39 113q39 113 179 113h910q-27 -129 -184 -260q-531 -441 -840 -883q571 0 778 26l-38 -108q-38 -108 -186 -108z" />
    <glyph glyph-name="Eta-grek" unicode="&#x397;" horiz-adv-x="1525" 
d="M1075 -16q-81 0 -106 11q-21 9 -21 25q0 14 42 174q33 126 81 354l7 30h-664q-43 -184 -75 -384q-21 -126 -29 -168q-5 -20 -33.5 -31t-111.5 -11q-81 0 -106 11q-21 9 -21 25q0 14 42 174q33 126 81 354q94 435 118 582q21 126 30 168q4 20 33.5 31t110.5 11
q83 0 105.5 -10t22.5 -26q0 -11 -43 -174q-33 -125 -81 -349h664q48 224 68.5 349.5t29.5 167.5q4 20 33.5 31t110.5 11q83 0 105.5 -10t22.5 -26q0 -12 -43 -174q-34 -126 -82 -354q-94 -437 -117 -582q-21 -126 -29 -168q-5 -20 -33.5 -31t-111.5 -11z" />
    <glyph glyph-name="Theta-grek" unicode="&#x398;" horiz-adv-x="1577" 
d="M613 -18q-197 0 -330.5 90.5t-187.5 241.5q-32 87 -32 187q0 73 17 152q43 201 174.5 359.5t313 247t377.5 88.5q198 0 333 -89t189 -243q32 -89 32 -189q0 -73 -17 -152q-43 -201 -174.5 -356t-314.5 -246t-380 -91zM698 166q179 0 315.5 124.5t180.5 333.5
q19 89 19 164q0 133 -74 252.5t-277 119.5q-180 0 -316.5 -124.5t-180.5 -333.5q-19 -88 -19 -164q0 -133 75 -252.5t277 -119.5zM1032 579h-636q39 173 134 173h636q-39 -173 -134 -173z" />
    <glyph glyph-name="Iota-grek" unicode="&#x399;" horiz-adv-x="615" 
d="M161 -16q-81 0 -106 11q-21 9 -21 25q0 14 42 174q38 145 130 582q49 228 69.5 354t29.5 168q4 20 33.5 31t110.5 11q83 0 105.5 -10t22.5 -26q0 -11 -43 -174q-38 -145 -130 -582q-49 -228 -69.5 -354t-29.5 -168q-4 -20 -33 -31t-111 -11z" />
    <glyph glyph-name="Kappa-grek" unicode="&#x39a;" horiz-adv-x="1224" 
d="M866 -16q-72 0 -96 11q-19 9 -19 31l1 10q9 76 9 144q0 400 -256 400h-94q-55 -260 -77 -386t-30 -168q-5 -20 -28.5 -31t-120.5 -11q-86 0 -106 11q-16 9 -16 23q0 15 41 176q32 126 104.5 468t94.5 468t31 168q4 20 28.5 31t110.5 11q97 0 114.5 -10t17.5 -25
q0 -11 -42 -175q-32 -126 -79 -350h24q76 0 207 106t286 390q24 42 58.5 53t106.5 11q82 0 103 -11q13 -6 13 -19q0 -31 -132 -247q-124 -203 -319 -328q90 -39 131 -115q86 -158 86 -354q0 -200 -4 -220q-9 -40 -37 -51t-111 -11z" />
    <glyph glyph-name="Lamda-grek" unicode="&#x39b;" horiz-adv-x="1333" 
d="M989 -20q-88 0 -106.5 10t-18.5 26q0 21 23 84q13 36 23 82q42 200 42 364q0 351 -193 542q-393 -280 -527 -906q-9 -46 -11.5 -82t-11.5 -78q-4 -20 -29.5 -31t-121.5 -11q-66 0 -86 11q-16 9 -16 23q0 21 23 86q12 36 22 82q149 701 728 1140q25 18 44 18h80
q18 0 36 -18q286 -319 286 -775q0 -173 -41 -365q-10 -46 -12.5 -82t-10.5 -78q-5 -20 -30 -31t-92 -11z" />
    <glyph glyph-name="Mu-grek" unicode="&#x39c;" horiz-adv-x="1799" 
d="M1416 -16q-96 0 -116 12q-15 9 -15 25l1 9q100 471 132 961q-272 -342 -563 -892q-18 -33 -59 -33h-71q-41 0 -44 33q-28 517 -180 882q-153 -488 -251 -951q-5 -22 -27.5 -33.5t-114.5 -11.5q-62 0 -78.5 10.5t-16.5 26.5l1 8q136 636 387 1309h132q100 0 132 -66
q162 -330 192 -806q218 423 530 806q52 66 144 66h133v-57q0 -643 -129 -1252q-5 -23 -29.5 -34.5t-89.5 -11.5z" />
    <glyph glyph-name="Nu-grek" unicode="&#x39d;" horiz-adv-x="1589" 
d="M1137 -16q-86 0 -136 37t-85 143q-176 532 -431 828q-27 -111 -62 -276q-83 -385 -101 -522q-17 -126 -25 -168q-5 -20 -28.5 -31t-110.5 -11q-86 0 -106 11q-16 9 -16 23q0 15 41 176q32 126 80 354q93 431 119 582q22 126 31 168q4 20 28.5 31t105.5 11q82 0 132 -30.5
t105 -113.5q263 -393 422 -810q20 84 51 232q77 360 104 512q22 126 31 168q4 20 28.5 31t110.5 11q87 0 104.5 -10t17.5 -25q0 -11 -42 -175q-32 -126 -80 -354q-93 -431 -119 -582l-30 -168q-5 -20 -28.5 -31t-110.5 -11z" />
    <glyph glyph-name="Xi-grek" unicode="&#x39e;" horiz-adv-x="1215" 
d="M919 554q-27 0 -108 4.5t-228 4.5t-229.5 -4.5t-110.5 -4.5q-16 0 -16 30q0 24 12 78q16 74 27.5 96t24.5 22q28 0 108.5 -5t226.5 -5q148 0 231 5t110 5q15 0 15 -30q0 -26 -13.5 -90t-25 -85t-24.5 -21zM934 -9q-38 0 -151.5 4.5t-319.5 4.5q-205 0 -320.5 -4.5
t-153.5 -4.5q-25 0 -25 35q0 24 9 69q16 72 30 93t33 21q38 0 151 -4.5t318 -4.5q207 0 322 4.5t153 4.5q26 0 26 -36q0 -26 -12 -78q-13 -63 -27.5 -83.5t-32.5 -20.5zM1175 1124q-38 0 -151.5 4.5t-319.5 4.5q-205 0 -320.5 -4.5t-153.5 -4.5q-25 0 -25 34q0 25 11 80
q13 62 27.5 83t32.5 21q38 0 151.5 -4.5t318.5 -4.5q207 0 322 4.5t153 4.5q25 0 25 -36q0 -23 -9 -68q-15 -73 -29.5 -93.5t-32.5 -20.5z" />
    <glyph glyph-name="Omicron-grek" unicode="&#x39f;" horiz-adv-x="1577" 
d="M613 -18q-197 0 -330.5 90.5t-187.5 241.5q-32 87 -32 187q0 73 17 152q43 201 174.5 359.5t313 247t377.5 88.5q198 0 333 -89t189 -243q32 -89 32 -189q0 -73 -17 -152q-43 -201 -174.5 -356t-314.5 -246t-380 -91zM698 166q179 0 315.5 124.5t180.5 333.5
q19 89 19 164q0 133 -74 252.5t-277 119.5q-180 0 -316.5 -124.5t-180.5 -333.5q-19 -88 -19 -164q0 -133 75 -252.5t277 -119.5z" />
    <glyph glyph-name="Pi-grek" unicode="&#x3a0;" horiz-adv-x="1523" 
d="M1101 -16q-112 0 -132 11q-15 9 -15 23t41 176q32 126 80 354q80 376 131 586h-678q-39 -210 -119 -586q-48 -228 -70 -354t-30 -168q-5 -20 -28.5 -31t-140.5 -11q-66 0 -86 11q-16 9 -16 23q0 15 41 176q32 126 80 354q93 433 118 579q21 122 30 164q5 20 29 31t90 11
h961q66 0 86 -11q16 -9 16 -23q0 -10 -41 -172q-31 -123 -79 -351q-93 -431 -119 -582l-30 -168q-5 -20 -29 -31t-90 -11z" />
    <glyph glyph-name="Rho-grek" unicode="&#x3a1;" horiz-adv-x="1193" 
d="M154 -16q-81 0 -101 11q-16 9 -16 23q0 15 41 176q32 126 100 445t89.5 445t30.5 168q5 22 30 31q181 66 420 66q176 0 281 -51q176 -86 176 -260q0 -40 -9 -84q-52 -243 -244.5 -375t-386.5 -132q-57 0 -106 11q45 195 193 195q239 0 292 250q5 24 5 48q0 195 -251 195
q-102 0 -172 -18q-30 -170 -98 -489t-90 -445t-30 -168q-5 -20 -28.5 -31t-125.5 -11z" />
    <glyph glyph-name="Sigma-grek" unicode="&#x3a3;" horiz-adv-x="1238" 
d="M1012 0h-1048q31 145 175 279l443 402l-237 384q-57 93 -57 192q0 37 8 76h979l-95 -212q-289 28 -615 28l294 -472l-558 -483q356 0 698 28z" />
    <glyph glyph-name="Tau-grek" unicode="&#x3a4;" horiz-adv-x="1115" 
d="M478 -16q-96 0 -116 11q-16 9 -16 23q0 15 41 176q32 126 80 354l125 584h-165q-164 0 -310 -46l46 123q46 123 200 123h814q148 0 148 -114l-6 -132q-132 46 -300 46h-167l-125 -584q-48 -228 -70 -354t-30 -168q-5 -20 -28.5 -31t-120.5 -11z" />
    <glyph glyph-name="Upsilon-grek" unicode="&#x3a5;" horiz-adv-x="1168" 
d="M456 -16q-85 0 -105 11q-16 9 -16 23q0 18 31 126q12 45 68 298q-275 170 -275 495q0 93 22 198q15 71 15.5 96t9.5 67q4 20 28.5 31t109.5 11t102.5 -10t17.5 -25l-1 -7q-9 -42 -19.5 -67t-20.5 -74q-21 -97 -21 -178q0 -247 190 -355q315 143 398 533q10 49 10.5 74
t9.5 67q4 20 28.5 31t108.5 11t101.5 -10t17.5 -25l-1 -7q-9 -42 -19.5 -67t-25.5 -96q-101 -475 -549 -693q-43 -194 -58 -298q-12 -76 -20 -118q-5 -20 -28.5 -31t-108.5 -11z" />
    <glyph glyph-name="Phi-grek" unicode="&#x3a6;" horiz-adv-x="1673" 
d="M636 301q24 104 79 361q56 264 74 360q-179 -11 -291 -87q-122 -84 -161 -269q-12 -57 -12 -105q0 -226 311 -260zM869 298q212 11 314.5 103t135.5 249q12 58 12 106q0 113 -66 174q-89 81 -242 90q-22 -95 -78 -356.5t-76 -365.5zM681 -16q-76 0 -96 11q-16 9 -16 23
q0 13 25 106q-313 11 -433 131q-98 97 -98 252q0 60 14 128q107 500 745 562q11 67 18 101q4 20 28.5 31t100.5 11q87 0 104.5 -10t17.5 -25q0 -12 -26 -108q530 -14 530 -394q0 -60 -14 -127q-53 -249 -258 -394q-179 -127 -485 -152q-11 -68 -18 -104q-5 -20 -28.5 -31
t-110.5 -11z" />
    </font>
</defs>
</svg>
