<?xml version="1.0" standalone="no"?>
<!DOCTYPE svg PUBLIC "-//W3C//DTD SVG 1.1//EN" "http://www.w3.org/Graphics/SVG/1.1/DTD/svg11.dtd" >
<svg xmlns="http://www.w3.org/2000/svg" xmlns:xlink="http://www.w3.org/1999/xlink" version="1.1">
<metadata>
Created by FontForge 20201107 at Mon May  5 13:03:24 2025
 By 
Copyright (c) Mark Simonson, 2005. All rights reserved.
</metadata>
<defs>
<font id="ProximaNovaExCn-Black" horiz-adv-x="946" >
  <font-face 
    font-family="Proxima Nova ExCn Bl"
    font-weight="900"
    font-stretch="normal"
    units-per-em="2048"
    panose-1="2 0 5 6 3 0 0 2 0 4"
    ascent="1618"
    descent="-430"
    x-height="989"
    cap-height="1366"
    bbox="-272 -608 1894 1815"
    underline-thickness="40"
    underline-position="-271"
    unicode-range="U+000D-FB04"
  />
<missing-glyph horiz-adv-x="888" 
d="M803 -184h-719v1724h719v-1724zM737 -123v1602h-590v-1602h590z" />
    <glyph glyph-name="f_f_j" unicode="ffj" horiz-adv-x="1593" 
d="M993 0h-323v709h-84v280h84v39q0 173 77 265.5t216 92.5q107 0 176 -26l-41 -254q-16 8 -37 8q-31 0 -49.5 -21.5t-18.5 -64.5v-39h115v-280h-115v-709zM1360 1075q-76 0 -130 54t-54 131t54 131.5t130 54.5t130 -54.5t54 -131.5t-54 -131t-130 -54zM1186 -401
q-92 0 -152 32l53 254q17 -14 48 -14q63 0 63 102v1016h324v-1016q0 -374 -336 -374zM430 0h-324v709h-83v280h83v39q0 175 81.5 266.5t240.5 91.5q131 0 203 -53l-68 -246q-27 27 -63 27q-34 0 -52 -22.5t-18 -63.5v-39h115v-280h-115v-709z" />
    <glyph glyph-name="f_j" unicode="fj" horiz-adv-x="1030" 
d="M430 0h-324v709h-83v280h83v39q0 173 77 265.5t216 92.5q107 0 176 -26l-40 -254q-16 8 -37 8q-31 0 -49.5 -21.5t-18.5 -64.5v-39h115v-280h-115v-709zM797 1075q-77 0 -131 54.5t-54 130.5q0 77 54.5 131.5t130.5 54.5t130 -54.5t54 -131.5t-54 -131t-130 -54z
M623 -401q-92 0 -152 32l53 254q18 -14 47 -14q64 0 64 102v1016h323v-1016q0 -374 -335 -374z" />
    <glyph glyph-name="f_f" unicode="ff" horiz-adv-x="1126" 
d="M430 0h-324v709h-83v280h83v39q0 175 81.5 266.5t240.5 91.5q131 0 203 -53l-68 -246q-27 27 -63 27q-34 0 -52 -22.5t-18 -63.5v-39h115v-280h-115v-709zM993 0h-323v709h-84v280h84v39q0 176 81 267t240 91q131 0 203 -53l-68 -246q-27 27 -63 27q-34 0 -52 -22.5
t-18 -63.5v-39h115v-280h-115v-709z" />
    <glyph glyph-name="fi" unicode="fi" horiz-adv-x="1030" 
d="M430 0h-324v709h-83v280h83v39q0 173 77 265.5t216 92.5q107 0 176 -26l-40 -254q-16 8 -37 8q-31 0 -49.5 -21.5t-18.5 -64.5v-39h115v-280h-115v-709zM797 1075q-77 0 -131 54.5t-54 130.5q0 77 54.5 131.5t130.5 54.5t130 -54.5t54 -131.5t-54 -131t-130 -54zM958 0
h-323v989h323v-989z" />
    <glyph glyph-name="fl" unicode="fl" horiz-adv-x="1030" 
d="M430 0h-324v709h-83v280h83v39q0 173 77 265.5t216 92.5q107 0 176 -26l-40 -254q-16 8 -37 8q-31 0 -49.5 -21.5t-18.5 -64.5v-39h115v-280h-115v-709zM958 0h-323v1366h323v-1366z" />
    <glyph glyph-name="f_f_i" unicode="ffi" horiz-adv-x="1593" 
d="M993 0h-323v709h-84v280h84v39q0 173 77 265.5t216 92.5q107 0 176 -26l-41 -254q-16 8 -37 8q-31 0 -49.5 -21.5t-18.5 -64.5v-39h115v-280h-115v-709zM1360 1075q-76 0 -130 54t-54 131t54 131.5t130 54.5t130 -54.5t54 -131.5t-54 -131t-130 -54zM1522 0h-324v989h324
v-989zM430 0h-324v709h-83v280h83v39q0 175 81.5 266.5t240.5 91.5q131 0 203 -53l-68 -246q-27 27 -63 27q-34 0 -52 -22.5t-18 -63.5v-39h115v-280h-115v-709z" />
    <glyph glyph-name="f_f_l" unicode="ffl" horiz-adv-x="1593" 
d="M993 0h-323v709h-84v280h84v39q0 173 77 265.5t216 92.5q107 0 176 -26l-41 -254q-16 8 -37 8q-31 0 -49.5 -21.5t-18.5 -64.5v-39h115v-280h-115v-709zM1522 0h-324v1366h324v-1366zM430 0h-324v709h-83v280h83v39q0 175 81.5 266.5t240.5 91.5q131 0 203 -53l-68 -246
q-27 27 -63 27q-34 0 -52 -22.5t-18 -63.5v-39h115v-280h-115v-709z" />
    <glyph glyph-name="f_b" unicode="fb" horiz-adv-x="1509" 
d="M430 0h-324v709h-83v280h83v39q0 173 77 265.5t216 92.5q107 0 176 -26l-40 -254q-16 8 -37 8q-31 0 -49.5 -21.5t-18.5 -64.5v-39h115v-280h-115v-709zM958 334q28 -74 84 -74q105 0 105 236q0 233 -105 233q-55 0 -84 -72v-323zM958 0h-323v1366h323v-487
q29 68 84.5 101.5t116.5 33.5q150 0 234 -138t84 -380q0 -250 -83.5 -385.5t-234.5 -135.5q-60 0 -114.5 34t-86.5 102v-111z" />
    <glyph glyph-name="f_h" unicode="fh" horiz-adv-x="1509" 
d="M430 0h-324v709h-83v280h83v39q0 173 77 265.5t216 92.5q107 0 176 -26l-40 -254q-16 8 -37 8q-31 0 -49.5 -21.5t-18.5 -64.5v-39h115v-280h-115v-709zM1438 0h-324v653q0 76 -59 76q-31 0 -57 -29t-40 -67v-633h-323v1366h323v-496q28 55 102 99.5t144 44.5
q120 0 177 -62.5t57 -169.5v-782z" />
    <glyph glyph-name="f_k" unicode="fk" horiz-adv-x="1474" 
d="M430 0h-324v709h-83v280h83v39q0 173 77 265.5t216 92.5q107 0 176 -26l-40 -254q-16 8 -37 8q-31 0 -49.5 -21.5t-18.5 -64.5v-39h115v-280h-115v-709zM1485 0h-355l-104 340l-68 -131v-209h-323v1366h323v-741l152 364h356l-221 -436z" />
    <glyph glyph-name=".notdef" horiz-adv-x="888" 
d="M803 -184h-719v1724h719v-1724zM737 -123v1602h-590v-1602h590z" />
    <glyph glyph-name=".null" horiz-adv-x="0" 
 />
    <glyph glyph-name=".null" horiz-adv-x="0" 
 />
    <glyph glyph-name="nonmarkingreturn" horiz-adv-x="682" 
 />
    <glyph glyph-name="CR" unicode="&#xd;" horiz-adv-x="0" 
 />
    <glyph glyph-name="space" unicode=" " horiz-adv-x="315" 
 />
    <glyph glyph-name="exclam" unicode="!" horiz-adv-x="552" 
d="M422 481h-289l-51 885h389zM276 -25q-80 0 -138 58t-58 137q0 82 58 140.5t138 58.5t138.5 -59t58.5 -140q0 -79 -58.5 -137t-138.5 -58z" />
    <glyph glyph-name="quotedbl" unicode="&#x22;" horiz-adv-x="905" 
d="M313 727h-135q-100 449 -100 492q0 69 50 118t118 49q69 0 118.5 -49t49.5 -118q0 -19 -25 -142t-51 -237zM727 727h-133q-100 449 -100 492q0 69 49 118t119 49q68 0 116.5 -49t48.5 -118q0 -19 -25 -142t-50 -237z" />
    <glyph glyph-name="numbersign" unicode="#" horiz-adv-x="997" 
d="M625 0h-232l80 334h-113l-75 -334h-232l78 334h-102l47 198h102l70 299h-107l43 197h109l78 338h231l-78 -338h111l76 338h231l-78 -338h105l-43 -197h-107l-71 -299h112l-47 -198h-113zM518 532l70 299h-111l-67 -299h108z" />
    <glyph glyph-name="dollar" unicode="$" horiz-adv-x="890" 
d="M340 -205v185q-202 17 -332 141l146 282q45 -53 110 -80.5t131 -27.5q46 0 71.5 25t25.5 63q0 34 -24.5 63t-64 52.5t-86.5 49t-94.5 61t-87 81t-64 116.5t-24.5 159q0 136 76.5 248t216.5 153v207h233v-191q164 -22 271 -118l-131 -279q-84 84 -205 84
q-43 0 -67.5 -23.5t-24.5 -60.5q0 -32 24.5 -60t63.5 -52t86 -50.5t94 -63t86 -82t63.5 -114.5t24.5 -153q0 -152 -76 -261.5t-209 -150.5v-203h-233z" />
    <glyph glyph-name="percent" unicode="%" horiz-adv-x="1236" 
d="M309 700q-128 0 -206 98t-78 244q0 148 78 246t206 98t205.5 -98t77.5 -246q0 -146 -77.5 -244t-205.5 -98zM389 0h-123l582 1366h125zM930 -25q-129 0 -207 97t-78 243q0 148 78 246t207 98q128 0 205 -98t77 -246q0 -146 -77 -243t-205 -97zM309 895q38 0 60 37.5
t22 109.5q0 73 -22 112.5t-60 39.5t-60 -39.5t-22 -112.5q0 -72 22 -109.5t60 -37.5zM930 168q38 0 60 38t22 109q0 75 -22 113.5t-60 38.5t-60 -38.5t-22 -113.5q0 -71 22 -109t60 -38z" />
    <glyph glyph-name="ampersand" unicode="&#x26;" horiz-adv-x="1013" 
d="M1038 0h-333l-41 61q-122 -86 -275 -86q-156 0 -256 107t-100 295q0 72 17.5 132.5t51 108t69.5 82.5t85 70q-74 172 -74 270q0 149 96 247.5t236 98.5q134 0 229 -92.5t95 -224.5q0 -54 -15.5 -102.5t-36.5 -82.5t-60 -70.5t-66.5 -57.5t-75.5 -54l53 -92l49 -82
q32 106 53 191l252 -119q-61 -200 -141 -330zM465 225q37 0 74 29q-54 86 -88 147l-70 121q-33 -58 -33 -123t34.5 -119.5t82.5 -54.5zM459 1040q0 -45 24 -122q82 69 82 141q0 48 -14 74t-37 26q-30 0 -42.5 -29t-12.5 -90z" />
    <glyph glyph-name="quotesingle" unicode="'" horiz-adv-x="493" 
d="M313 727h-135q-100 449 -100 492q0 69 50 118t118 49q69 0 118.5 -49t49.5 -118q0 -19 -25 -142t-51 -237z" />
    <glyph glyph-name="parenleft" unicode="(" horiz-adv-x="626" 
d="M582 -299l-240 -109q-246 424 -246 906q0 481 246 905l240 -107q-136 -383 -136 -798q0 -417 136 -797z" />
    <glyph glyph-name="parenright" unicode=")" horiz-adv-x="626" 
d="M287 -408l-242 109q135 377 135 797q0 418 -135 798l242 107q243 -424 243 -905q0 -482 -243 -906z" />
    <glyph glyph-name="asterisk" unicode="*" horiz-adv-x="692" 
d="M422 723h-152l11 219l-185 -117l-73 129l192 101l-192 100l73 129l185 -117l-11 219h152l-10 -219l182 117l76 -129l-193 -100l193 -101l-76 -129l-182 117z" />
    <glyph glyph-name="plus" unicode="+" horiz-adv-x="794" 
d="M735 596h-233v-283h-211v283h-232v190h232v267h211v-267h233v-190z" />
    <glyph glyph-name="comma" unicode="," horiz-adv-x="552" 
d="M483 127q0 -125 -62 -232.5t-175 -187.5l-133 109q52 26 104.5 83.5t69.5 112.5q-16 -8 -47 -8q-67 0 -113.5 48.5t-46.5 123.5q0 79 56 136t134 57q89 0 151 -66t62 -176z" />
    <glyph glyph-name="hyphen" unicode="-" horiz-adv-x="505" 
d="M444 360h-383v271h383v-271z" />
    <glyph glyph-name="period" unicode="." horiz-adv-x="552" 
d="M274 -25q-79 0 -136.5 58.5t-57.5 138.5t57.5 138.5t136.5 58.5q80 0 138.5 -58.5t58.5 -138.5t-58.5 -138.5t-138.5 -58.5z" />
    <glyph glyph-name="slash" unicode="/" horiz-adv-x="520" 
d="M219 -41h-219l301 1448h219z" />
    <glyph glyph-name="zero" unicode="0" horiz-adv-x="1013" 
d="M508 -25q-114 0 -205 57t-148.5 155.5t-87.5 225t-30 269.5q0 144 30 270t87.5 223.5t148.5 154t205 56.5t205 -56.5t147.5 -154t86.5 -223.5t30 -270t-30 -270t-86.5 -224.5t-147.5 -155.5t-205 -57zM508 295q60 0 80 83t20 304t-20 303t-80 82q-61 0 -81.5 -81.5
t-20.5 -303.5q0 -221 20.5 -304t81.5 -83z" />
    <glyph glyph-name="one" unicode="1" horiz-adv-x="829" 
d="M745 0h-362v905l-174 -178l-205 213l430 426h311v-1366z" />
    <glyph glyph-name="two" unicode="2" horiz-adv-x="1005" 
d="M958 0h-895v299q364 362 444.5 460t80.5 181q0 53 -32.5 90t-92.5 37q-133 0 -227 -131l-218 221q172 229 465 229q211 0 339 -118.5t128 -317.5q0 -136 -84 -267t-315 -368h407v-315z" />
    <glyph glyph-name="three" unicode="3" horiz-adv-x="1003" 
d="M494 -25q-154 0 -277.5 59.5t-191.5 158.5l233 217q87 -115 219 -115q71 0 104 33.5t33 83.5q0 62 -44 90t-105 28q-67 0 -92 -2v322q16 -2 76 -2q72 0 111.5 28t39.5 82t-33.5 81.5t-95.5 27.5q-59 0 -117.5 -26t-89.5 -76l-223 196q80 113 197 169t256 56
q205 0 328.5 -95t123.5 -279q0 -107 -70.5 -198t-173.5 -109q119 -21 192 -112.5t73 -211.5q0 -184 -132 -295t-341 -111z" />
    <glyph glyph-name="four" unicode="4" horiz-adv-x="1013" 
d="M883 0h-363v246h-485v317l428 803h420v-805h96v-315h-96v-246zM520 561v397l-194 -397h194z" />
    <glyph glyph-name="five" unicode="5" horiz-adv-x="1019" 
d="M496 -25q-309 0 -461 218l225 221q92 -119 211 -119q67 0 106 43t39 108q0 69 -33.5 109.5t-93.5 40.5q-91 0 -153 -100l-266 59v811h837v-315h-475v-252q30 48 86 77t121 29q155 0 249.5 -118t94.5 -330q0 -218 -131 -350t-356 -132z" />
    <glyph glyph-name="six" unicode="6" horiz-adv-x="1005" 
d="M535 -25q-126 0 -223 54.5t-156.5 151.5t-89 222.5t-29.5 276.5q0 328 149.5 517t399.5 189q98 0 186.5 -35t147.5 -96l-177 -266q-60 78 -149 78q-78 0 -135.5 -83t-57.5 -218v-10q31 70 96.5 110.5t145.5 40.5q139 0 233.5 -120t94.5 -330q0 -218 -125 -350t-311 -132z
M512 295q46 0 71 44.5t25 102.5q0 81 -31 119.5t-71 38.5q-62 0 -107 -88q11 -217 113 -217z" />
    <glyph glyph-name="seven" unicode="7" horiz-adv-x="923" 
d="M526 0h-385l355 1051h-467v315h866v-250z" />
    <glyph glyph-name="eight" unicode="8" horiz-adv-x="1005" 
d="M502 -25q-228 0 -347.5 99t-119.5 282q0 114 70.5 213.5t173.5 135.5q-99 32 -162.5 117t-63.5 204q0 92 38.5 163.5t103 113t142.5 62.5t165 21q68 0 131.5 -12.5t122 -40.5t102 -69t69 -102.5t25.5 -135.5q0 -119 -63.5 -204t-163.5 -117q102 -36 173 -135t71 -212
q0 -183 -120 -283t-347 -100zM502 815q96 48 96 135q0 56 -25.5 86.5t-70.5 30.5t-70.5 -30.5t-25.5 -86.5q0 -82 96 -135zM502 295q46 0 77 29.5t31 91.5q0 68 -39 111.5t-69 50.5q-30 -7 -68.5 -50.5t-38.5 -111.5q0 -62 30 -91.5t77 -29.5z" />
    <glyph glyph-name="nine" unicode="9" horiz-adv-x="1005" 
d="M420 -23q-97 0 -186 35.5t-148 96.5l176 266q60 -78 150 -78q73 0 132.5 78t59.5 221v12q-31 -70 -96.5 -110.5t-145.5 -40.5q-139 0 -233 120t-94 330q0 218 125 350t311 132q126 0 223 -54.5t156.5 -151.5t89 -222.5t29.5 -276.5q0 -328 -149.5 -517.5t-399.5 -189.5z
M500 764q36 0 60 22.5t46 65.5q-3 65 -12 109t-33 76t-63 32q-49 0 -75 -44t-26 -103q0 -81 31.5 -119.5t71.5 -38.5z" />
    <glyph glyph-name="colon" unicode=":" horiz-adv-x="552" 
d="M274 610q-79 0 -136.5 58.5t-57.5 138.5t57.5 138.5t136.5 58.5q80 0 138.5 -59t58.5 -138t-58.5 -138t-138.5 -59zM274 -25q-79 0 -136.5 58.5t-57.5 138.5t57.5 138.5t136.5 58.5q80 0 138.5 -58.5t58.5 -138.5t-58.5 -138.5t-138.5 -58.5z" />
    <glyph glyph-name="semicolon" unicode=";" horiz-adv-x="552" 
d="M274 610q-79 0 -136.5 59.5t-57.5 139.5t57.5 137.5t136.5 57.5q80 0 138.5 -58t58.5 -137q0 -80 -59 -139.5t-138 -59.5zM483 127q0 -125 -62 -232.5t-175 -187.5l-133 109q52 26 104.5 83.5t69.5 112.5q-16 -8 -47 -8q-67 0 -113.5 48.5t-46.5 123.5q0 79 56 136
t134 57q89 0 151 -65.5t62 -176.5z" />
    <glyph glyph-name="less" unicode="&#x3c;" horiz-adv-x="794" 
d="M735 307l-676 262v234l676 262v-229l-459 -152l459 -149v-228z" />
    <glyph glyph-name="equal" unicode="=" horiz-adv-x="794" 
d="M735 778h-676v191h676v-191zM735 397h-676v193h676v-193z" />
    <glyph glyph-name="greater" unicode="&#x3e;" horiz-adv-x="794" 
d="M735 569l-676 -262v228l457 149l-457 152v229l676 -262v-234z" />
    <glyph glyph-name="question" unicode="?" horiz-adv-x="692" 
d="M211 442q-47 61 -47 189q0 57 16.5 106t40 82.5t47 63t40 61t16.5 62.5t-19.5 51t-48.5 20q-51 0 -86 -55l-143 219q139 145 323 145q155 0 242.5 -82.5t87.5 -216.5q0 -59 -23 -116t-56 -101t-65.5 -86t-55.5 -87.5t-23 -88.5q0 -39 22 -76zM348 -25q-79 0 -137.5 58.5
t-58.5 138.5t58.5 138.5t137.5 58.5q80 0 138.5 -58.5t58.5 -138.5t-58.5 -138.5t-138.5 -58.5z" />
    <glyph glyph-name="at" unicode="@" horiz-adv-x="1372" 
d="M571 -143q-246 0 -372.5 155t-126.5 426q0 167 60 326t160.5 278t241 192t293.5 73q206 0 339.5 -133t133.5 -355q0 -168 -48.5 -315.5t-137 -238.5t-194.5 -91q-74 0 -128 34.5t-69 96.5l-4 21q-48 -72 -104.5 -112t-139.5 -40q-85 0 -143 63.5t-58 208.5
q0 140 49.5 270t144 216t210.5 86t149 -119l21 94h282l-98 -469q-6 -30 -6 -53q0 -42 12 -63t43 -21q14 0 30 19.5t32.5 57.5t30 88.5t22 119.5t8.5 143q0 191 -102 298.5t-281 107.5q-135 0 -259 -68t-211 -177t-139 -249.5t-52 -282.5q0 -83 14 -155.5t45.5 -137
t79.5 -110.5t120 -73t163 -27t165.5 27t157.5 83l47 -65q-96 -65 -186.5 -97t-194.5 -32zM635 397q8 0 16 1.5t14.5 4t13.5 7.5t11.5 8t10.5 10.5t9 11t9 12.5t7.5 12t7.5 13t7 12l47 234q-16 72 -63 72q-49 0 -86 -51.5t-53.5 -117t-16.5 -126.5q0 -103 66 -103z" />
    <glyph glyph-name="A" unicode="A" horiz-adv-x="991" 
d="M1004 0h-371l-29 190h-219l-27 -190h-370l299 1366h415zM563 506l-67 467l-68 -467h135z" />
    <glyph glyph-name="B" unicode="B" horiz-adv-x="1028" 
d="M631 0h-547v1366h528q95 0 167 -30t113 -81t61 -110.5t20 -126.5q0 -124 -61.5 -206.5t-161.5 -106.5q106 -17 173.5 -111t67.5 -223q0 -77 -20 -141.5t-61 -117t-112.5 -82.5t-166.5 -30zM510 850q49 0 71.5 23.5t22.5 76.5q0 101 -94 101h-64v-201h64zM518 315
q105 0 105 111q0 53 -28.5 81t-76.5 28h-72v-220h72z" />
    <glyph glyph-name="C" unicode="C" horiz-adv-x="956" 
d="M537 -25q-126 0 -222 51.5t-156.5 146.5t-91 223t-30.5 286q0 213 52.5 369t166.5 247t281 91q78 0 141.5 -25t103.5 -61t73.5 -91t50.5 -100t34 -104l-285 -105q-16 85 -42 125.5t-76 40.5q-71 0 -101 -99t-30 -288t30 -288t101 -99q99 0 120 190l283 -102
q-14 -59 -30 -107t-48.5 -107t-73.5 -99t-106 -67.5t-145 -27.5z" />
    <glyph glyph-name="D" unicode="D" horiz-adv-x="1073" 
d="M508 0h-424v1366h422q136 0 239.5 -52.5t166 -146.5t93.5 -216t31 -269q0 -149 -30.5 -270.5t-92.5 -215t-165 -145t-240 -51.5zM506 315q162 0 162 367q0 199 -42.5 284t-119.5 85h-60v-736h60z" />
    <glyph glyph-name="E" unicode="E" horiz-adv-x="829" 
d="M772 0h-688v1366h688v-315h-326v-201h312v-315h-312v-220h326v-315z" />
    <glyph glyph-name="F" unicode="F" horiz-adv-x="819" 
d="M446 0h-362v1366h688v-315h-326v-201h312v-315h-312v-535z" />
    <glyph glyph-name="G" unicode="G" horiz-adv-x="1013" 
d="M537 -25q-167 0 -281 91t-166.5 247t-52.5 369q0 159 30.5 288t91.5 223t157 145t221 51q157 0 260.5 -106.5t142.5 -274.5l-285 -105q-26 166 -118 166q-131 0 -131 -387t131 -387q67 0 100 39v137h-125v317h440v-616q-88 -98 -185.5 -147.5t-229.5 -49.5z" />
    <glyph glyph-name="H" unicode="H" horiz-adv-x="1089" 
d="M1004 0h-361v545h-197v-545h-362v1366h362v-506h197v506h361v-1366z" />
    <glyph glyph-name="I" unicode="I" horiz-adv-x="530" 
d="M446 0h-362v1366h362v-1366z" />
    <glyph glyph-name="J" unicode="J" horiz-adv-x="768" 
d="M248 -25q-144 0 -230 56l82 297q39 -33 103 -33q55 0 89 30t34 87v954h362v-973q0 -212 -118 -315t-322 -103z" />
    <glyph glyph-name="K" unicode="K" horiz-adv-x="1073" 
d="M1083 0h-405l-154 451l-78 -170v-281h-362v1366h362v-553l222 553h393l-320 -637z" />
    <glyph glyph-name="L" unicode="L" horiz-adv-x="811" 
d="M772 0h-688v1366h362v-1051h326v-315z" />
    <glyph glyph-name="M" unicode="M" horiz-adv-x="1382" 
d="M1296 0h-356v657l-192 -657h-113l-189 657v-657h-362v1366h448l158 -549l166 549h440v-1366z" />
    <glyph glyph-name="N" unicode="N" horiz-adv-x="1089" 
d="M1004 0h-336l-222 567v-567h-362v1366h362l197 -532v532h361v-1366z" />
    <glyph glyph-name="O" unicode="O" horiz-adv-x="1069" 
d="M535 -25q-166 0 -279.5 91.5t-166 248t-52.5 367.5t52.5 367.5t166 248t279.5 91.5t279 -91.5t165.5 -247.5t52.5 -368t-52.5 -368t-165.5 -247.5t-279 -91.5zM535 295q129 0 129 387t-129 387t-129 -387t129 -387z" />
    <glyph glyph-name="P" unicode="P" horiz-adv-x="1015" 
d="M446 0h-362v1366h457q111 0 197.5 -37.5t139.5 -101.5t80 -145t27 -173t-27 -172.5t-80 -144t-139.5 -100.5t-197.5 -37h-95v-455zM500 770q55 0 86.5 37t31.5 104q0 66 -32 103t-86 37h-54v-281h54z" />
    <glyph glyph-name="Q" unicode="Q" horiz-adv-x="1071" 
d="M535 -25q-166 0 -279.5 91.5t-166 248t-52.5 367.5t52.5 367.5t166 248t279.5 91.5t279 -91.5t165.5 -247.5t52.5 -368q0 -353 -143 -539l47 -120l-244 -97l-26 68q-65 -19 -131 -19zM535 295h14l-68 176l176 68q7 75 7 143q0 387 -129 387t-129 -387t129 -387z" />
    <glyph glyph-name="R" unicode="R" horiz-adv-x="1044" 
d="M997 0h-387l-116 455h-48v-455h-362v1366h475q185 0 305.5 -126.5t120.5 -315.5q0 -263 -162 -381zM500 770q54 0 86 37t32 102q0 67 -31.5 104.5t-86.5 37.5h-54v-281h54z" />
    <glyph glyph-name="S" unicode="S" horiz-adv-x="894" 
d="M420 -25q-257 0 -412 146l146 282q45 -53 110 -80.5t131 -27.5q46 0 71.5 25t25.5 63q0 34 -24.5 63t-64 52.5t-86.5 49t-94.5 61t-87 81t-64 116.5t-24.5 159q0 81 28.5 156t82.5 135.5t141.5 96.5t194.5 36q103 0 194.5 -32.5t155.5 -92.5l-131 -279q-84 84 -205 84
q-43 0 -67.5 -23.5t-24.5 -60.5q0 -32 24.5 -60t63.5 -52t86 -50.5t94 -63t86 -82t63.5 -114.5t24.5 -153q0 -194 -119.5 -314.5t-318.5 -120.5z" />
    <glyph glyph-name="T" unicode="T" horiz-adv-x="831" 
d="M598 0h-362v1051h-199v315h758v-315h-197v-1051z" />
    <glyph glyph-name="U" unicode="U" horiz-adv-x="1089" 
d="M545 -25q-87 0 -167.5 27.5t-147 81.5t-106.5 145t-40 207v930h362v-948q0 -127 99 -127q98 0 98 127v948h363v-928q0 -94 -26.5 -172t-71 -131t-104 -90t-125 -53.5t-134.5 -16.5z" />
    <glyph glyph-name="V" unicode="V" horiz-adv-x="991" 
d="M702 0h-415l-299 1366h370l138 -907l137 907h371z" />
    <glyph glyph-name="W" unicode="W" horiz-adv-x="1400" 
d="M1143 0h-361l-82 709l-84 -709h-358l-250 1366h365l82 -741l108 741h275l110 -741l80 741h365z" />
    <glyph glyph-name="X" unicode="X" horiz-adv-x="1042" 
d="M1055 0h-398l-137 391l-135 -391h-397l323 698l-307 668h397l119 -369l119 369h397l-307 -666z" />
    <glyph glyph-name="Y" unicode="Y" horiz-adv-x="1001" 
d="M682 0h-363v551l-333 815h381l133 -475l135 475h381l-334 -815v-551z" />
    <glyph glyph-name="Z" unicode="Z" horiz-adv-x="843" 
d="M791 0h-738v301l314 750h-314v315h723v-289l-321 -762h336v-315z" />
    <glyph glyph-name="bracketleft" unicode="[" horiz-adv-x="464" 
d="M430 -389h-356v1778h356v-207h-131v-1364h131v-207z" />
    <glyph glyph-name="backslash" unicode="\" horiz-adv-x="520" 
d="M301 -41l-301 1448h219l301 -1448h-219z" />
    <glyph glyph-name="bracketright" unicode="]" horiz-adv-x="464" 
d="M393 -389h-356v207h129v1364h-129v207h356v-1778z" />
    <glyph glyph-name="asciicircum" unicode="^" horiz-adv-x="704" 
d="M666 682h-224l-92 430l-90 -430h-221l199 684h231z" />
    <glyph glyph-name="underscore" unicode="_" horiz-adv-x="571" 
d="M578 -289h-584v207h584v-207z" />
    <glyph glyph-name="grave" unicode="`" horiz-adv-x="428" 
d="M428 1139h-199l-229 295h264z" />
    <glyph glyph-name="a" unicode="a" horiz-adv-x="927" 
d="M856 0h-321v96q-30 -53 -95 -87t-127 -34q-122 0 -202 88.5t-80 239.5t79 234.5t203 83.5q63 0 128.5 -30t93.5 -81v86q0 67 -39 106t-107 39q-97 0 -207 -92l-110 225q66 70 177.5 105t213.5 35q175 0 284 -85t109 -251v-678zM438 186q72 0 97 64v94q-25 66 -97 66
q-41 0 -64.5 -29.5t-23.5 -81.5q0 -54 23.5 -83.5t64.5 -29.5z" />
    <glyph glyph-name="b" unicode="b" horiz-adv-x="944" 
d="M395 334q28 -74 84 -74q105 0 105 236q0 233 -105 233q-55 0 -84 -72v-323zM395 0h-323v1366h323v-487q29 68 84.5 101.5t116.5 33.5q150 0 233.5 -137.5t83.5 -380.5q0 -250 -83 -385.5t-234 -135.5q-60 0 -114.5 34t-86.5 102v-111z" />
    <glyph glyph-name="c" unicode="c" horiz-adv-x="759" 
d="M463 -25q-195 0 -312.5 144t-117.5 377t117 375.5t313 142.5q88 0 162.5 -25.5t113.5 -60.5l-92 -252q-63 53 -119 53q-75 0 -120.5 -63.5t-45.5 -169.5t45.5 -171t120.5 -65q60 0 119 53l92 -252q-38 -36 -112.5 -61t-163.5 -25z" />
    <glyph glyph-name="d" unicode="d" horiz-adv-x="944" 
d="M872 0h-321v111q-33 -68 -87 -102t-114 -34q-152 0 -234.5 135.5t-82.5 385.5q0 243 83 380.5t234 137.5q61 0 116.5 -33.5t84.5 -101.5v487h321v-1366zM465 260q53 0 86 74v325q-33 70 -86 70q-103 0 -103 -233q0 -236 103 -236z" />
    <glyph glyph-name="e" unicode="e" horiz-adv-x="890" 
d="M477 -25q-208 0 -326 142t-118 379q0 146 48 261.5t146.5 186t233.5 70.5q136 0 228 -66t133.5 -179t41.5 -267v-113h-522q2 -66 44.5 -109.5t127.5 -43.5q42 0 86.5 20t79.5 55l141 -184q-65 -74 -158 -113t-186 -39zM559 608q0 146 -108 146q-109 0 -109 -146h217z" />
    <glyph glyph-name="f" unicode="f" horiz-adv-x="563" 
d="M430 0h-324v709h-83v280h83v39q0 175 81.5 266.5t240.5 91.5q131 0 203 -53l-68 -246q-27 27 -63 27q-34 0 -52 -22.5t-18 -63.5v-39h115v-280h-115v-709z" />
    <glyph glyph-name="g" unicode="g" horiz-adv-x="944" 
d="M428 -401q-223 0 -346 112l98 252q102 -92 211 -92q72 0 116 48t44 147v100q-34 -68 -88 -102.5t-113 -34.5q-154 0 -235.5 122.5t-81.5 368.5q0 242 82 368t235 126q61 0 116.5 -33.5t84.5 -101.5v110h321v-923q0 -107 -26 -190.5t-67.5 -134.5t-101 -84t-120 -45.5
t-129.5 -12.5zM465 313q55 0 86 70v276q-31 70 -86 70q-57 0 -80 -50.5t-23 -158.5t23 -157.5t80 -49.5z" />
    <glyph glyph-name="h" unicode="h" 
d="M874 0h-323v653q0 76 -59 76q-31 0 -57 -29t-40 -67v-633h-323v1366h323v-496q28 55 102 99.5t144 44.5q120 0 176.5 -62t56.5 -170v-782z" />
    <glyph glyph-name="i" unicode="i" horiz-adv-x="466" 
d="M233 1075q-76 0 -130 54t-54 131t54 131.5t130 54.5t130.5 -54.5t54.5 -131.5q0 -76 -54 -130.5t-131 -54.5zM395 0h-323v989h323v-989z" />
    <glyph glyph-name="j" unicode="j" horiz-adv-x="466" 
d="M233 1075q-76 0 -130 54t-54 131t54 131.5t130 54.5t130.5 -54.5t54.5 -131.5q0 -76 -54 -130.5t-131 -54.5zM59 -401q-91 0 -151 32l53 254q18 -14 47 -14q64 0 64 102v1016h323v-1016q0 -374 -336 -374z" />
    <glyph glyph-name="k" unicode="k" horiz-adv-x="911" 
d="M922 0h-355l-104 340l-68 -131v-209h-323v1366h323v-741l152 364h356l-221 -436z" />
    <glyph glyph-name="l" unicode="l" horiz-adv-x="466" 
d="M395 0h-323v1366h323v-1366z" />
    <glyph glyph-name="m" unicode="m" horiz-adv-x="1425" 
d="M1352 0h-322v649q0 80 -59 80q-33 0 -58.5 -29.5t-38.5 -66.5v-633h-323v649q0 80 -59 80q-33 0 -58.5 -29.5t-38.5 -66.5v-633h-323v989h323v-119q23 49 99 96.5t147 47.5q84 0 144.5 -39t78.5 -121q26 60 102.5 110t153.5 50q105 0 168.5 -57.5t63.5 -178.5v-778z" />
    <glyph glyph-name="n" unicode="n" 
d="M874 0h-323v649q0 80 -59 80q-31 0 -57 -29t-40 -67v-633h-323v989h323v-119q28 55 102 99.5t144 44.5q120 0 176.5 -64t56.5 -172v-778z" />
    <glyph glyph-name="o" unicode="o" horiz-adv-x="923" 
d="M461 -25q-106 0 -189 42t-134.5 115t-78 165.5t-26.5 198.5t26.5 198t78 164t134.5 114t189 42t190.5 -42t136 -114t78.5 -164t27 -198q0 -84 -16.5 -160t-51.5 -142.5t-85 -115t-121.5 -76t-157.5 -27.5zM461 260q54 0 77 60.5t23 175.5q0 113 -23 173t-77 60
q-53 0 -74.5 -59.5t-21.5 -173.5q0 -115 21.5 -175.5t74.5 -60.5z" />
    <glyph glyph-name="p" unicode="p" horiz-adv-x="944" 
d="M596 -25q-61 0 -116.5 33.5t-84.5 102.5v-488h-323v1366h323v-110q32 68 86.5 101.5t114.5 33.5q151 0 234 -135t83 -385q0 -243 -83.5 -381t-233.5 -138zM479 260q105 0 105 234q0 235 -105 235q-57 0 -84 -67v-332q28 -70 84 -70z" />
    <glyph glyph-name="q" unicode="q" horiz-adv-x="944" 
d="M465 260q55 0 86 70v332q-30 67 -86 67q-103 0 -103 -235q0 -234 103 -234zM350 -25q-151 0 -234 138t-83 381q0 250 82.5 385t234.5 135q60 0 114 -33.5t87 -101.5v110h321v-1366h-321v488q-29 -69 -84.5 -102.5t-116.5 -33.5z" />
    <glyph glyph-name="r" unicode="r" horiz-adv-x="632" 
d="M395 0h-323v989h323v-119q24 57 92 101.5t123 44.5v-309q-32 8 -53 8q-40 0 -87 -24t-75 -64v-627z" />
    <glyph glyph-name="s" unicode="s" horiz-adv-x="782" 
d="M381 -25q-125 0 -221.5 37.5t-151.5 96.5l123 221q45 -43 105 -73t114 -30q50 0 76.5 17t26.5 47q0 20 -22.5 34.5t-58.5 26t-79.5 25t-87 38t-79.5 58.5t-58.5 92t-22.5 133q0 63 23 119t67.5 100.5t117 70.5t163.5 26q95 0 184 -33.5t158 -89.5l-123 -217
q-32 32 -90.5 60t-122.5 28q-34 0 -57 -15t-23 -38q0 -21 31 -37.5t77.5 -28.5t100.5 -37t100.5 -58.5t77.5 -97.5t31 -149q0 -143 -105 -234.5t-274 -91.5z" />
    <glyph glyph-name="t" unicode="t" horiz-adv-x="577" 
d="M383 -25q-148 0 -212.5 71t-64.5 220v443h-83v280h83v271h324v-271h115v-280h-115v-373q0 -76 45 -76q34 0 47 16l51 -258q-67 -43 -190 -43z" />
    <glyph glyph-name="u" unicode="u" 
d="M874 0h-323v115q-30 -55 -102.5 -97.5t-143.5 -42.5q-120 0 -176.5 62t-56.5 170v782h323v-653q0 -76 60 -76q31 0 57 27t39 65v637h323v-989z" />
    <glyph glyph-name="v" unicode="v" horiz-adv-x="890" 
d="M616 0h-342l-286 989h340l116 -583l119 583h340z" />
    <glyph glyph-name="w" unicode="w" horiz-adv-x="1380" 
d="M1147 0h-340l-117 551l-117 -551h-340l-239 989h332l104 -559l100 559h299l121 -559l103 559h333z" />
    <glyph glyph-name="x" unicode="x" horiz-adv-x="856" 
d="M866 0h-342l-96 264l-98 -264h-342l237 496l-227 493h338l90 -260l90 260h340l-227 -493z" />
    <glyph glyph-name="y" unicode="y" horiz-adv-x="890" 
d="M96 -385l45 279q18 -11 41 -11q66 0 80 49l17 50l-291 1007h340l116 -581l119 581h340l-325 -1120q-45 -156 -124 -213t-223 -57q-92 0 -135 16z" />
    <glyph glyph-name="z" unicode="z" horiz-adv-x="753" 
d="M715 0h-676v238l276 471h-276v280h668v-227l-281 -481h289v-281z" />
    <glyph glyph-name="braceleft" unicode="{" horiz-adv-x="485" 
d="M451 -389h-54q-115 0 -199.5 76.5t-84.5 191.5v402q0 60 -27.5 96.5t-79.5 36.5v172q52 0 79.5 36.5t27.5 96.5v399q0 115 84.5 193t199.5 78h54v-207h-54q-25 0 -42 -19t-17 -45v-434q0 -145 -92 -184q92 -39 92 -185v-436q0 -26 17 -43.5t42 -17.5h54v-207z" />
    <glyph glyph-name="bar" unicode="|" horiz-adv-x="376" 
d="M293 -41h-209v1448h209v-1448z" />
    <glyph glyph-name="braceright" unicode="}" horiz-adv-x="485" 
d="M35 -389v207h53q25 0 42 17.5t17 43.5v436q0 145 93 185q-93 40 -93 184v434q0 26 -17 45t-42 19h-53v207h53q115 0 200 -78t85 -193v-399q0 -60 27 -96.5t79 -36.5v-172q-52 0 -79 -36.5t-27 -96.5v-402q0 -114 -85 -191t-200 -77h-53z" />
    <glyph glyph-name="asciitilde" unicode="~" horiz-adv-x="894" 
d="M633 1366l211 -16q-2 -53 -5 -93t-11 -97t-19.5 -99.5t-32 -88t-47.5 -74.5t-67.5 -48t-90.5 -19q-64 0 -106 35.5t-59.5 86t-28 101.5t-21 86.5t-28.5 35.5q-28 0 -39.5 -67.5t-22.5 -279.5l-215 17q2 60 7 109t15.5 114t30 113.5t48.5 92.5t74 67.5t102 23.5
q54 0 92.5 -25.5t57 -64t31.5 -83.5t19 -83.5t16.5 -64t26.5 -25.5q27 0 39 68t23 278z" />
    <glyph glyph-name="nbspace" unicode="&#xa0;" horiz-adv-x="315" 
 />
    <glyph glyph-name="exclamdown" unicode="&#xa1;" horiz-adv-x="552" 
d="M82 -377l49 885h289l49 -885h-387zM80 817q0 80 57.5 138.5t138.5 58.5q80 0 138.5 -59t58.5 -138q0 -81 -58.5 -140t-138.5 -59q-81 0 -138.5 58.5t-57.5 140.5z" />
    <glyph glyph-name="cent" unicode="&#xa2;" horiz-adv-x="759" 
d="M317 -205v205q-134 47 -209 178.5t-75 317.5t75 316t209 177v168h230v-149q125 -20 192 -80l-92 -252q-63 53 -119 53q-75 0 -120.5 -63.5t-45.5 -169.5t45.5 -171t120.5 -65q60 0 119 53l92 -252q-61 -58 -192 -79v-187h-230z" />
    <glyph glyph-name="sterling" unicode="&#xa3;" horiz-adv-x="960" 
d="M61 575v199h62q-35 96 -35 187q0 93 40 174t105 135t145.5 85t162.5 31q153 0 260.5 -77.5t132.5 -227.5l-291 -116q-9 67 -28 99t-54 32t-58.5 -38t-23.5 -102q0 -77 33 -182h137v-199h-96v-26q0 -56 -28 -123.5t-68 -103.5q41 14 73 14q45 0 98.5 -20.5t92.5 -20.5
q95 0 143 51l84 -287q-32 -34 -105.5 -59t-154.5 -25q-53 0 -101 13.5t-77 29.5t-65.5 29.5t-69.5 13.5q-88 0 -189 -75l-94 239q63 43 102 101.5t39 117.5q0 61 -24 131h-148z" />
    <glyph glyph-name="currency" unicode="&#xa4;" horiz-adv-x="1005" 
d="M502 197q-93 0 -166 28l-137 -135l-189 186l127 127q-63 117 -63 279q0 163 65 279l-129 131l189 186l139 -141q73 28 164 28t164 -28l143 141l186 -186l-129 -129q68 -124 68 -281t-68 -281l129 -127l-186 -186l-139 137q-76 -28 -168 -28zM502 469q60 0 93.5 57
t33.5 156q0 97 -33.5 154t-93.5 57q-58 0 -91.5 -57t-33.5 -154q0 -99 33.5 -156t91.5 -57z" />
    <glyph glyph-name="yen" unicode="&#xa5;" horiz-adv-x="1001" 
d="M682 0h-363v225h-264v193h264v133h-264v190h187l-256 625h381l133 -475l135 475h381l-256 -625h178v-190h-256v-133h256v-193h-256v-225z" />
    <glyph glyph-name="brokenbar" unicode="&#xa6;" horiz-adv-x="376" 
d="M293 -41h-209v647h209v-647zM293 760h-209v647h209v-647z" />
    <glyph glyph-name="section" unicode="&#xa7;" horiz-adv-x="786" 
d="M760 674q0 -75 -38 -144.5t-108 -115.5q146 -90 146 -254q0 -138 -108.5 -232t-270.5 -94q-118 0 -215.5 35t-157.5 98l123 213q36 -39 98.5 -74.5t120.5 -35.5q53 0 78 23.5t25 58.5q0 27 -22.5 48t-58.5 36.5t-79.5 32t-87 40.5t-79.5 56t-58.5 85.5t-22.5 122.5
q0 89 44 152.5t112 99.5q-156 90 -156 262q0 132 97 215.5t251 83.5q133 0 215 -33.5t146 -95.5l-119 -192q-101 98 -203 98q-42 0 -66 -19t-24 -52q0 -25 23 -44.5t60 -35t81.5 -32t89 -41.5t81.5 -57.5t60 -86t23 -121.5zM479 592q0 103 -80 141q-73 -21 -73 -96
q0 -46 22.5 -79t79.5 -56q51 29 51 90z" />
    <glyph glyph-name="dieresis" unicode="&#xa8;" horiz-adv-x="595" 
d="M653 1260q0 -69 -48.5 -116.5t-117.5 -47.5q-68 0 -115.5 47.5t-47.5 116.5t47.5 116t115.5 47q69 0 117.5 -47t48.5 -116zM272 1260q0 -68 -47 -116t-116 -48q-67 0 -115.5 48t-48.5 116q0 67 48 115t116 48q69 0 116 -47.5t47 -115.5z" />
    <glyph glyph-name="copyright" unicode="&#xa9;" horiz-adv-x="1593" 
d="M1503 684q0 -143 -56 -274t-150.5 -226t-225.5 -151t-274 -56q-191 0 -354 95t-258 258t-95 354t95 354t258 258t354 95q143 0 274 -56t225.5 -151t150.5 -226t56 -274zM1421 684q0 168 -84 312t-228 228.5t-312 84.5t-312 -84.5t-228.5 -228.5t-84.5 -312t84.5 -312
t228.5 -228.5t312 -84.5t312 84.5t228 228.5t84 312zM1047 465l73 -70q-57 -66 -136.5 -103.5t-172.5 -37.5q-179 0 -302.5 123t-123.5 309q0 185 123.5 306.5t302.5 121.5q188 0 305 -137l-72 -72q-41 55 -101.5 87t-131.5 32q-134 0 -228 -95.5t-94 -242.5q0 -146 94 -244
t228 -98q72 0 133.5 32.5t102.5 88.5z" />
    <glyph glyph-name="ordfeminine" unicode="&#xaa;" horiz-adv-x="659" 
d="M600 668h-229v61q-17 -31 -58 -54.5t-96 -23.5q-81 0 -136.5 54t-55.5 155q0 100 55.5 154.5t136.5 54.5q55 0 95.5 -21.5t58.5 -48.5v56q0 47 -26.5 74.5t-72.5 27.5q-34 0 -72.5 -20t-68.5 -52l-80 148q47 48 124.5 71t148.5 23q123 0 199.5 -58t76.5 -175v-426z
M309 799q46 0 62 41v57q-17 41 -62 41q-27 0 -43 -18.5t-16 -51.5q0 -69 59 -69z" />
    <glyph glyph-name="guillemotleft" unicode="&#xab;" horiz-adv-x="913" 
d="M852 129h-242l-184 369l184 362h242l-184 -362zM485 129h-239l-185 369l185 362h239l-184 -362z" />
    <glyph glyph-name="logicalnot" unicode="&#xac;" horiz-adv-x="794" 
d="M735 969v-572h-198v381h-478v191h676z" />
    <glyph glyph-name="uni00AD" unicode="&#xad;" horiz-adv-x="505" 
d="M444 360h-383v271h383v-271z" />
    <glyph glyph-name="registered" unicode="&#xae;" horiz-adv-x="1011" 
d="M940 952q0 -180 -126.5 -307t-307.5 -127q-180 0 -307 127t-127 307q0 181 127 307.5t307 126.5q119 0 219 -57.5t157.5 -157.5t57.5 -219zM870 952q0 154 -106 259.5t-258 105.5q-153 0 -259 -106t-106 -259q0 -151 106.5 -257.5t258.5 -106.5t258 106.5t106 257.5z
M713 702h-90l-129 197h-82v-197h-74v498h203q66 0 116 -42.5t50 -108.5q0 -72 -46 -110t-81 -38zM631 1049q0 39 -28 64.5t-62 25.5h-129v-176h129q34 0 62 24.5t28 61.5z" />
    <glyph glyph-name="macron" unicode="&#xaf;" horiz-adv-x="548" 
d="M549 1137h-549v178h549v-178z" />
    <glyph glyph-name="degree" unicode="&#xb0;" horiz-adv-x="659" 
d="M623 1094q0 -121 -86.5 -207t-206.5 -86q-122 0 -207.5 85.5t-85.5 207.5q0 121 85.5 206.5t207.5 85.5q120 0 206.5 -85.5t86.5 -206.5zM457 1094q0 51 -38 89t-89 38q-52 0 -88.5 -37.5t-36.5 -89.5t36.5 -88.5t88.5 -36.5t89.5 36.5t37.5 88.5z" />
    <glyph glyph-name="plusminus" unicode="&#xb1;" horiz-adv-x="794" 
d="M735 596h-233v-283h-211v283h-232v190h232v267h211v-267h233v-190zM735 18h-676v193h676v-193z" />
    <glyph glyph-name="twosuperior" unicode="&#xb2;" horiz-adv-x="659" 
d="M637 862h-586v172q156 135 228.5 206.5t95 108.5t22.5 76q0 35 -23.5 57.5t-64.5 22.5q-40 0 -80 -24.5t-69 -67.5l-140 143q119 138 306 138q140 0 223.5 -68.5t83.5 -191.5q0 -83 -62.5 -165t-222.5 -218h289v-189z" />
    <glyph glyph-name="threesuperior" unicode="&#xb3;" horiz-adv-x="659" 
d="M633 1092q0 -111 -86 -177.5t-221 -66.5q-102 0 -182 34.5t-124 94.5l144 145q63 -86 151 -86q43 0 65.5 21.5t22.5 50.5q0 76 -102 76q-49 0 -61 -2v186q10 -2 53 -2q100 0 100 70q0 69 -84 69q-39 0 -78.5 -19t-62.5 -56l-139 129q103 135 297 135q136 0 215.5 -58
t79.5 -168q0 -67 -44.5 -120.5t-111.5 -63.5q72 -11 120 -65.5t48 -126.5z" />
    <glyph glyph-name="acute" unicode="&#xb4;" horiz-adv-x="428" 
d="M428 1434l-229 -295h-199l164 295h264z" />
    <glyph glyph-name="mu" unicode="&#xb5;" horiz-adv-x="976" 
d="M395 -12v-365h-323v1366h323v-653q0 -76 62 -76q30 0 55.5 27t38.5 65v637h323v-674q0 -55 46 -55q12 0 28 4l23 -268q-65 -21 -144 -21q-114 0 -178 43.5t-86 137.5q-17 -79 -54 -130t-77 -51q-20 0 -37 13z" />
    <glyph glyph-name="paragraph" unicode="&#xb6;" horiz-adv-x="919" 
d="M852 -205h-147v1422h-150v-1422h-147v867q-146 0 -249.5 103t-103.5 249t103.5 249t249.5 103h444v-1571z" />
    <glyph glyph-name="periodcentered" unicode="&#xb7;" horiz-adv-x="552" 
d="M473 500q0 -80 -58.5 -138.5t-138.5 -58.5q-79 0 -137.5 58.5t-58.5 138.5q0 81 58 139.5t138 58.5t138.5 -58.5t58.5 -139.5z" />
    <glyph glyph-name="cedilla" unicode="&#xb8;" horiz-adv-x="407" 
d="M195 -406q-53 0 -106 19.5t-89 48.5l55 117q68 -58 129 -58q33 0 52.5 15.5t19.5 42.5q0 18 -10 29.5t-27 11.5q-26 0 -47 -25l-109 62l62 166h149l-53 -123q30 18 60 18q55 0 91 -40.5t36 -104.5q0 -83 -59 -131t-154 -48z" />
    <glyph glyph-name="onesuperior" unicode="&#xb9;" horiz-adv-x="559" 
d="M489 862h-239v516l-109 -108l-135 139l279 272h204v-819z" />
    <glyph glyph-name="ordmasculine" unicode="&#xba;" horiz-adv-x="669" 
d="M334 651q-142 0 -221.5 98t-79.5 240q0 143 79 240.5t222 97.5q145 0 224 -97t79 -241q0 -92 -32.5 -167t-102.5 -123t-168 -48zM334 834q40 0 53.5 36.5t13.5 118.5t-13.5 118t-53.5 36q-37 0 -51.5 -37.5t-14.5 -116.5t14.5 -117t51.5 -38z" />
    <glyph glyph-name="guillemotright" unicode="&#xbb;" horiz-adv-x="913" 
d="M485 498l-184 -369h-240l185 369l-185 362h240zM852 498l-184 -369h-242l184 369l-184 362h242z" />
    <glyph glyph-name="onequarter" unicode="&#xbc;" horiz-adv-x="1474" 
d="M489 547h-239v516l-109 -109l-135 140l279 272h204v-819zM1454 158h-63v-158h-240v158h-315v180l268 481h287v-475h63v-186zM1151 344v223l-119 -223h119zM1094 1366l-584 -1366h-123l582 1366h125z" />
    <glyph glyph-name="onehalf" unicode="&#xbd;" horiz-adv-x="1552" 
d="M489 547h-239v516l-109 -109l-135 140l279 272h204v-819zM1532 0h-586v172q156 135 228.5 206.5t95 108.5t22.5 76q0 35 -23.5 57.5t-64.5 22.5q-40 0 -80 -24.5t-69 -67.5l-140 143q118 137 306 137q140 0 223.5 -68.5t83.5 -191.5q0 -83 -62.5 -165t-222.5 -218h289
v-188zM1094 1366l-584 -1366h-123l582 1366h125z" />
    <glyph glyph-name="threequarters" unicode="&#xbe;" horiz-adv-x="1548" 
d="M1528 158h-64v-158h-239v158h-316v180l269 481h286v-475h64v-186zM1225 344v223l-119 -223h119zM1167 1366l-583 -1366h-123l581 1366h125zM633 776q0 -111 -86 -177.5t-221 -66.5q-102 0 -182 35t-124 95l144 145q63 -86 151 -86q43 0 65.5 21.5t22.5 50.5q0 75 -102 75
q-49 0 -61 -2v187q10 -2 53 -2q100 0 100 69q0 34 -22.5 52t-61.5 18t-78.5 -19.5t-62.5 -56.5l-139 129q103 135 297 135q136 0 215.5 -57.5t79.5 -167.5q0 -67 -44.5 -120.5t-111.5 -63.5q72 -10 120 -65.5t48 -127.5z" />
    <glyph glyph-name="questiondown" unicode="&#xbf;" horiz-adv-x="622" 
d="M481 547q47 -68 47 -189q0 -69 -25 -128.5t-54.5 -93.5t-54.5 -75.5t-25 -78.5q0 -30 18.5 -51t48.5 -21q49 0 86 57l144 -219q-138 -147 -326 -147q-154 0 -241 83t-87 216q0 60 23 117t55.5 101t64.5 85.5t55 87t23 88.5q0 41 -22 78zM342 1014q80 0 138.5 -59
t58.5 -138t-58.5 -137.5t-138.5 -58.5t-138.5 58.5t-58.5 137.5t58.5 138t138.5 59z" />
    <glyph glyph-name="Agrave" unicode="&#xc0;" horiz-adv-x="991" 
d="M1004 0h-371l-29 190h-219l-27 -190h-370l299 1366h415zM563 506l-67 467l-68 -467h135zM602 1481h-199l-229 295h264z" />
    <glyph glyph-name="Aacute" unicode="&#xc1;" horiz-adv-x="991" 
d="M1004 0h-371l-29 190h-219l-27 -190h-370l299 1366h415zM563 506l-67 467l-68 -467h135zM817 1776l-229 -295h-199l164 295h264z" />
    <glyph glyph-name="Acircumflex" unicode="&#xc2;" horiz-adv-x="991" 
d="M764 1481h-172l-98 161l-91 -161h-172l121 295h283zM1004 0h-371l-29 190h-219l-27 -190h-370l299 1366h415zM563 506l-67 467l-68 -467h135z" />
    <glyph glyph-name="Atilde" unicode="&#xc3;" horiz-adv-x="991" 
d="M1004 0h-371l-29 190h-219l-27 -190h-370l299 1366h415zM563 506l-67 467l-68 -467h135zM592 1477q-35 0 -64.5 17t-47 37t-37.5 37t-37 17q-50 0 -50 -96h-151q0 124 53.5 199t144.5 75q35 0 65 -17t47 -38t37.5 -38t37.5 -17q49 0 49 98h152q0 -124 -53.5 -199
t-145.5 -75z" />
    <glyph glyph-name="Adieresis" unicode="&#xc4;" horiz-adv-x="991" 
d="M850 1602q0 -69 -48.5 -116.5t-117.5 -47.5q-68 0 -116 47.5t-48 116.5t48 116t116 47q69 0 117.5 -47t48.5 -116zM469 1602q0 -68 -47.5 -116t-116.5 -48q-67 0 -115.5 48t-48.5 116q0 67 48 115t116 48q69 0 116.5 -47.5t47.5 -115.5zM1004 0h-371l-29 190h-219
l-27 -190h-370l299 1366h415zM563 506l-67 467l-68 -467h135z" />
    <glyph glyph-name="Aring" unicode="&#xc5;" horiz-adv-x="991" 
d="M1004 0h-371l-29 190h-219l-27 -190h-370l299 1366h415zM563 506l-67 467l-68 -467h135zM498 1407q-80 0 -137.5 57.5t-57.5 137.5q0 81 57.5 137.5t137.5 56.5t135 -56t55 -138q0 -80 -55.5 -137.5t-134.5 -57.5zM498 1538q26 0 43.5 18.5t17.5 45.5q0 28 -17.5 46.5
t-43.5 18.5t-45 -18.5t-19 -46.5q0 -26 19 -45t45 -19z" />
    <glyph glyph-name="AE" unicode="&#xc6;" horiz-adv-x="1349" 
d="M1311 0h-686v190h-211l-54 -190h-368l475 1366h844v-315h-326v-201h311v-315h-311v-220h326v-315zM625 506v467l-127 -467h127z" />
    <glyph glyph-name="Ccedilla" unicode="&#xc7;" horiz-adv-x="956" 
d="M528 -397q-53 0 -106 19t-88 48l55 117q67 -57 129 -57q33 0 52.5 15t19.5 42q0 18 -10 29.5t-27 11.5q-26 0 -47 -25l-109 62l43 119q-135 24 -226.5 119.5t-134 241.5t-42.5 337q0 213 52.5 369t166.5 247t281 91q78 0 141.5 -25t103.5 -61t73.5 -91t50.5 -100t34 -104
l-285 -105q-16 85 -42 125.5t-76 40.5q-71 0 -101 -99t-30 -288t30 -288t101 -99q99 0 120 190l283 -102q-13 -55 -28 -100t-43.5 -101t-64.5 -95t-92.5 -69.5t-125.5 -37.5l-31 -72q30 18 59 18q55 0 91 -40.5t36 -104.5q0 -83 -58.5 -130.5t-154.5 -47.5z" />
    <glyph glyph-name="Egrave" unicode="&#xc8;" horiz-adv-x="829" 
d="M772 0h-688v1366h688v-315h-326v-201h312v-315h-312v-220h326v-315zM535 1481h-199l-230 295h265z" />
    <glyph glyph-name="Eacute" unicode="&#xc9;" horiz-adv-x="829" 
d="M750 1776l-230 -295h-198l163 295h265zM772 0h-688v1366h688v-315h-326v-201h312v-315h-312v-220h326v-315z" />
    <glyph glyph-name="Ecircumflex" unicode="&#xca;" horiz-adv-x="829" 
d="M694 1481h-172l-98 161l-90 -161h-172l121 295h282zM772 0h-688v1366h688v-315h-326v-201h312v-315h-312v-220h326v-315z" />
    <glyph glyph-name="Edieresis" unicode="&#xcb;" horiz-adv-x="829" 
d="M788 1602q0 -69 -48 -116.5t-117 -47.5q-68 0 -116 47.5t-48 116.5t48 116t116 47q69 0 117 -47t48 -116zM408 1602q0 -68 -47.5 -116t-116.5 -48q-68 0 -116 48t-48 116q0 67 48 115t116 48q69 0 116.5 -47.5t47.5 -115.5zM772 0h-688v1366h688v-315h-326v-201h312v-315
h-312v-220h326v-315z" />
    <glyph glyph-name="Igrave" unicode="&#xcc;" horiz-adv-x="530" 
d="M446 0h-362v1366h362v-1366zM371 1481h-199l-229 295h264z" />
    <glyph glyph-name="Iacute" unicode="&#xcd;" horiz-adv-x="530" 
d="M446 0h-362v1366h362v-1366zM586 1776l-230 -295h-198l164 295h264z" />
    <glyph glyph-name="Icircumflex" unicode="&#xce;" horiz-adv-x="530" 
d="M530 1481h-172l-98 161l-90 -161h-172l121 295h282zM446 0h-362v1366h362v-1366z" />
    <glyph glyph-name="Idieresis" unicode="&#xcf;" horiz-adv-x="530" 
d="M623 1602q0 -69 -48.5 -116.5t-117.5 -47.5q-68 0 -116 47.5t-48 116.5t48 116t116 47q69 0 117.5 -47t48.5 -116zM242 1602q0 -68 -47.5 -116t-116.5 -48q-68 0 -116 48t-48 116q0 67 48 115t116 48q69 0 116.5 -47.5t47.5 -115.5zM446 0h-362v1366h362v-1366z" />
    <glyph glyph-name="Eth" unicode="&#xd0;" horiz-adv-x="1126" 
d="M561 0h-424v543h-114v276h114v547h422q136 0 239.5 -52.5t166.5 -146.5t94 -216t31 -269q0 -118 -18.5 -219.5t-59.5 -187.5t-102.5 -146.5t-150 -94.5t-198.5 -34zM559 315q162 0 162 367q0 199 -42.5 284t-119.5 85h-59v-232h112v-276h-112v-228h59z" />
    <glyph glyph-name="Ntilde" unicode="&#xd1;" horiz-adv-x="1089" 
d="M641 1477q-35 0 -64.5 17t-47 37t-37.5 37t-37 17q-49 0 -49 -96h-152q0 124 53.5 199t145.5 75q35 0 64.5 -17t47 -38t37.5 -38t37 -17q49 0 49 98h152q0 -124 -53.5 -199t-145.5 -75zM1004 0h-336l-222 567v-567h-362v1366h362l197 -532v532h361v-1366z" />
    <glyph glyph-name="Ograve" unicode="&#xd2;" horiz-adv-x="1069" 
d="M641 1481h-199l-229 295h264zM535 -25q-166 0 -279.5 91.5t-166 248t-52.5 367.5t52.5 367.5t166 248t279.5 91.5t279 -91.5t165.5 -247.5t52.5 -368t-52.5 -368t-165.5 -247.5t-279 -91.5zM535 295q129 0 129 387t-129 387t-129 -387t129 -387z" />
    <glyph glyph-name="Oacute" unicode="&#xd3;" horiz-adv-x="1069" 
d="M856 1776l-229 -295h-199l164 295h264zM535 -25q-166 0 -279.5 91.5t-166 248t-52.5 367.5t52.5 367.5t166 248t279.5 91.5t279 -91.5t165.5 -247.5t52.5 -368t-52.5 -368t-165.5 -247.5t-279 -91.5zM535 295q129 0 129 387t-129 387t-129 -387t129 -387z" />
    <glyph glyph-name="Ocircumflex" unicode="&#xd4;" horiz-adv-x="1069" 
d="M803 1481h-172l-99 161l-90 -161h-172l121 295h283zM535 -25q-166 0 -279.5 91.5t-166 248t-52.5 367.5t52.5 367.5t166 248t279.5 91.5t279 -91.5t165.5 -247.5t52.5 -368t-52.5 -368t-165.5 -247.5t-279 -91.5zM535 295q129 0 129 387t-129 387t-129 -387t129 -387z
" />
    <glyph glyph-name="Otilde" unicode="&#xd5;" horiz-adv-x="1069" 
d="M535 -25q-166 0 -279.5 91.5t-166 248t-52.5 367.5t52.5 367.5t166 248t279.5 91.5t279 -91.5t165.5 -247.5t52.5 -368t-52.5 -368t-165.5 -247.5t-279 -91.5zM535 295q129 0 129 387t-129 387t-129 -387t129 -387zM631 1477q-35 0 -65 17t-47 37t-37.5 37t-37.5 17
q-49 0 -49 -96h-151q0 124 53.5 199t144.5 75q35 0 65 -17t47 -38t37.5 -38t37.5 -17q49 0 49 98h151q0 -124 -53.5 -199t-144.5 -75z" />
    <glyph glyph-name="Odieresis" unicode="&#xd6;" horiz-adv-x="1069" 
d="M891 1602q0 -69 -48.5 -116.5t-117.5 -47.5q-68 0 -116 47.5t-48 116.5t48 116t116 47q69 0 117.5 -47t48.5 -116zM510 1602q0 -68 -47.5 -116t-116.5 -48q-68 0 -116 48t-48 116q0 67 48 115t116 48q69 0 116.5 -47.5t47.5 -115.5zM535 -25q-166 0 -279.5 91.5t-166 248
t-52.5 367.5t52.5 367.5t166 248t279.5 91.5t279 -91.5t165.5 -247.5t52.5 -368t-52.5 -368t-165.5 -247.5t-279 -91.5zM535 295q129 0 129 387t-129 387t-129 -387t129 -387z" />
    <glyph glyph-name="multiply" unicode="&#xd7;" horiz-adv-x="794" 
d="M592 356l-195 193l-192 -193l-137 136l194 192l-194 193l137 135l192 -193l195 193l135 -135l-192 -193l192 -192z" />
    <glyph glyph-name="Oslash" unicode="&#xd8;" horiz-adv-x="1069" 
d="M535 -25q-144 0 -250 70l-25 -45h-194l94 172q-123 183 -123 510q0 211 52.5 367.5t166 248t279.5 91.5q143 0 249 -70l27 47h195l-97 -174q123 -183 123 -510q0 -212 -52.5 -368t-165.5 -247.5t-279 -91.5zM406 682v-57l210 385q-30 59 -81 59q-129 0 -129 -387z
M535 295q129 0 129 387q0 9 -1 27.5t-1 27.5l-209 -385q28 -57 82 -57z" />
    <glyph glyph-name="Ugrave" unicode="&#xd9;" horiz-adv-x="1089" 
d="M545 -25q-87 0 -167.5 27.5t-147 81.5t-106.5 145t-40 207v930h362v-948q0 -127 99 -127q98 0 98 127v948h363v-928q0 -94 -26.5 -172t-71 -131t-104 -90t-125 -53.5t-134.5 -16.5zM651 1481h-198l-230 295h264z" />
    <glyph glyph-name="Uacute" unicode="&#xda;" horiz-adv-x="1089" 
d="M866 1776l-229 -295h-199l164 295h264zM545 -25q-87 0 -167.5 27.5t-147 81.5t-106.5 145t-40 207v930h362v-948q0 -127 99 -127q98 0 98 127v948h363v-928q0 -94 -26.5 -172t-71 -131t-104 -90t-125 -53.5t-134.5 -16.5z" />
    <glyph glyph-name="Ucircumflex" unicode="&#xdb;" horiz-adv-x="1089" 
d="M815 1481h-172l-98 161l-90 -161h-172l120 295h283zM545 -25q-87 0 -167.5 27.5t-147 81.5t-106.5 145t-40 207v930h362v-948q0 -127 99 -127q98 0 98 127v948h363v-928q0 -94 -26.5 -172t-71 -131t-104 -90t-125 -53.5t-134.5 -16.5z" />
    <glyph glyph-name="Udieresis" unicode="&#xdc;" horiz-adv-x="1089" 
d="M899 1602q0 -69 -48.5 -116.5t-117.5 -47.5q-68 0 -116 47.5t-48 116.5t48 116t116 47q69 0 117.5 -47t48.5 -116zM518 1602q0 -68 -47.5 -116t-116.5 -48q-68 0 -116 48t-48 116q0 67 48 115t116 48q69 0 116.5 -47.5t47.5 -115.5zM545 -25q-87 0 -167.5 27.5t-147 81.5
t-106.5 145t-40 207v930h362v-948q0 -127 99 -127q98 0 98 127v948h363v-928q0 -94 -26.5 -172t-71 -131t-104 -90t-125 -53.5t-134.5 -16.5z" />
    <glyph glyph-name="Yacute" unicode="&#xdd;" horiz-adv-x="1001" 
d="M682 0h-363v551l-333 815h381l133 -475l135 475h381l-334 -815v-551zM821 1776l-229 -295h-199l164 295h264z" />
    <glyph glyph-name="Thorn" unicode="&#xde;" horiz-adv-x="1015" 
d="M446 0h-362v1366h362v-207h95q111 0 197.5 -37.5t139.5 -101.5t80 -145t27 -173t-27 -172.5t-80 -144t-139.5 -100.5t-197.5 -37h-95v-248zM500 563q55 0 86.5 36t31.5 103q0 66 -32 104t-86 38h-54v-281h54z" />
    <glyph glyph-name="germandbls" unicode="&#xdf;" horiz-adv-x="1189" 
d="M1167 301q0 -127 -99.5 -226.5t-256.5 -99.5q-210 0 -344 134l102 223q26 -28 46 -46.5t55.5 -36.5t70.5 -18q84 0 84 62q0 20 -18.5 37t-48.5 32t-66 32t-72 42t-66 56t-48.5 80.5t-18.5 109.5q0 55 18.5 99t45.5 71.5t53.5 51t45 50.5t18.5 58q0 39 -35 64.5t-90 25.5
q-144 0 -144 -158v-944h-323v944q0 89 32.5 169.5t91 141t147.5 96t196 35.5q116 0 219 -44t167 -122t64 -169q0 -63 -20 -113t-48 -80.5t-56 -54.5t-48 -47t-20 -45q0 -18 20 -32.5t52.5 -26.5t71.5 -27t78 -40.5t71.5 -60.5t52.5 -92.5t20 -130.5z" />
    <glyph glyph-name="agrave" unicode="&#xe0;" horiz-adv-x="927" 
d="M856 0h-321v96q-30 -53 -95 -87t-127 -34q-122 0 -202 88.5t-80 239.5t79 234.5t203 83.5q63 0 128.5 -30t93.5 -81v86q0 67 -39 106t-107 39q-97 0 -207 -92l-110 225q66 70 177.5 105t213.5 35q175 0 284 -85t109 -251v-678zM438 186q72 0 97 64v94q-25 66 -97 66
q-41 0 -64.5 -29.5t-23.5 -81.5q0 -54 23.5 -83.5t64.5 -29.5zM569 1139h-198l-230 295h265z" />
    <glyph glyph-name="aacute" unicode="&#xe1;" horiz-adv-x="927" 
d="M856 0h-321v96q-30 -53 -95 -87t-127 -34q-122 0 -202 88.5t-80 239.5t79 234.5t203 83.5q63 0 128.5 -30t93.5 -81v86q0 67 -39 106t-107 39q-97 0 -207 -92l-110 225q66 70 177.5 105t213.5 35q175 0 284 -85t109 -251v-678zM438 186q72 0 97 64v94q-25 66 -97 66
q-41 0 -64.5 -29.5t-23.5 -81.5q0 -54 23.5 -83.5t64.5 -29.5zM784 1434l-229 -295h-199l164 295h264z" />
    <glyph glyph-name="acircumflex" unicode="&#xe2;" horiz-adv-x="927" 
d="M856 0h-321v96q-30 -53 -95 -87t-127 -34q-122 0 -202 88.5t-80 239.5t79 234.5t203 83.5q63 0 128.5 -30t93.5 -81v86q0 67 -39 106t-107 39q-97 0 -207 -92l-110 225q66 70 177.5 105t213.5 35q175 0 284 -85t109 -251v-678zM438 186q72 0 97 64v94q-25 66 -97 66
q-41 0 -64.5 -29.5t-23.5 -81.5q0 -54 23.5 -83.5t64.5 -29.5zM739 1139h-172l-98 161l-90 -161h-172l121 295h282z" />
    <glyph glyph-name="atilde" unicode="&#xe3;" horiz-adv-x="927" 
d="M856 0h-321v96q-30 -53 -95 -87t-127 -34q-122 0 -202 88.5t-80 239.5t79 234.5t203 83.5q63 0 128.5 -30t93.5 -81v86q0 67 -39 106t-107 39q-97 0 -207 -92l-110 225q66 70 177.5 105t213.5 35q175 0 284 -85t109 -251v-678zM438 186q72 0 97 64v94q-25 66 -97 66
q-41 0 -64.5 -29.5t-23.5 -81.5q0 -54 23.5 -83.5t64.5 -29.5zM561 1135q-35 0 -64.5 17t-47 37t-37.5 37t-37 17q-49 0 -49 -96h-152q0 124 53.5 199t145.5 75q35 0 64.5 -17t47 -38t37.5 -38t37 -17q49 0 49 98h152q0 -124 -53.5 -199t-145.5 -75z" />
    <glyph glyph-name="adieresis" unicode="&#xe4;" horiz-adv-x="927" 
d="M856 0h-321v96q-30 -53 -95 -87t-127 -34q-122 0 -202 88.5t-80 239.5t79 234.5t203 83.5q63 0 128.5 -30t93.5 -81v86q0 67 -39 106t-107 39q-97 0 -207 -92l-110 225q66 70 177.5 105t213.5 35q175 0 284 -85t109 -251v-678zM438 186q72 0 97 64v94q-25 66 -97 66
q-41 0 -64.5 -29.5t-23.5 -81.5q0 -54 23.5 -83.5t64.5 -29.5zM825 1260q0 -69 -48.5 -116.5t-117.5 -47.5q-68 0 -115.5 47.5t-47.5 116.5t47.5 116t115.5 47q69 0 117.5 -47t48.5 -116zM444 1260q0 -68 -47 -116t-116 -48q-67 0 -115.5 48t-48.5 116q0 67 48 115t116 48
q69 0 116 -47.5t47 -115.5z" />
    <glyph glyph-name="aring" unicode="&#xe5;" horiz-adv-x="927" 
d="M856 0h-321v96q-30 -53 -95 -87t-127 -34q-122 0 -202 88.5t-80 239.5t79 234.5t203 83.5q63 0 128.5 -30t93.5 -81v86q0 67 -39 106t-107 39q-97 0 -207 -92l-110 225q66 70 177.5 105t213.5 35q175 0 284 -85t109 -251v-678zM438 186q72 0 97 64v94q-25 66 -97 66
q-41 0 -64.5 -29.5t-23.5 -81.5q0 -54 23.5 -83.5t64.5 -29.5zM465 1079q-79 0 -137 57.5t-58 137.5q0 81 57.5 137.5t137.5 56.5t135 -56t55 -138q0 -80 -55.5 -137.5t-134.5 -57.5zM465 1210q26 0 43.5 18.5t17.5 45.5q0 28 -17.5 46.5t-43.5 18.5q-27 0 -45.5 -18.5
t-18.5 -46.5q0 -26 19 -45t45 -19z" />
    <glyph glyph-name="ae" unicode="&#xe6;" horiz-adv-x="1392" 
d="M1366 387h-524q5 -68 47 -109.5t125 -41.5q91 0 166 75l143 -184q-67 -74 -159 -113t-185 -39q-96 0 -162.5 34t-122.5 108q-43 -45 -80 -72.5t-100 -48.5t-143 -21q-147 0 -243.5 85.5t-96.5 236.5t79.5 237.5t202.5 86.5q63 0 128 -30t94 -81v86q0 65 -39 105t-107 40
q-97 0 -207 -92l-110 225q65 69 173.5 104.5t192.5 35.5q98 0 160.5 -27t99.5 -84q100 111 277 111q129 0 218 -67.5t131 -182.5t42 -268v-109zM842 608h217q0 146 -107 146q-42 0 -68 -24t-34 -54t-8 -68zM535 326v18q-27 66 -103 66q-42 0 -68 -27t-26 -68q0 -94 94 -94
q43 0 73 32.5t30 72.5z" />
    <glyph glyph-name="ccedilla" unicode="&#xe7;" horiz-adv-x="759" 
d="M463 -401q-54 0 -107 19t-88 48l56 117q67 -57 129 -57q33 0 52 15t19 42q0 18 -10 29.5t-27 11.5q-26 0 -47 -25l-108 62l45 123q-159 31 -251.5 168.5t-92.5 343.5q0 233 117 375.5t313 142.5q88 0 162.5 -25.5t113.5 -60.5l-92 -252q-63 53 -119 53
q-75 0 -120.5 -63.5t-45.5 -169.5t45.5 -171t120.5 -65q60 0 119 53l92 -252q-30 -30 -87.5 -52t-129.5 -29l-33 -76q30 18 60 18q55 0 91 -40.5t36 -104.5q0 -83 -58.5 -130.5t-154.5 -47.5z" />
    <glyph glyph-name="egrave" unicode="&#xe8;" horiz-adv-x="890" 
d="M477 -25q-208 0 -326 142t-118 379q0 146 48 261.5t146.5 186t233.5 70.5q136 0 228 -66t133.5 -179t41.5 -267v-113h-522q2 -66 44.5 -109.5t127.5 -43.5q42 0 86.5 20t79.5 55l141 -184q-65 -74 -158 -113t-186 -39zM559 608q0 146 -108 146q-109 0 -109 -146h217z
M567 1139h-198l-230 295h264z" />
    <glyph glyph-name="eacute" unicode="&#xe9;" horiz-adv-x="890" 
d="M782 1434l-229 -295h-199l164 295h264zM477 -25q-208 0 -326 142t-118 379q0 146 48 261.5t146.5 186t233.5 70.5q136 0 228 -66t133.5 -179t41.5 -267v-113h-522q2 -66 44.5 -109.5t127.5 -43.5q42 0 86.5 20t79.5 55l141 -184q-65 -74 -158 -113t-186 -39zM559 608
q0 146 -108 146q-109 0 -109 -146h217z" />
    <glyph glyph-name="ecircumflex" unicode="&#xea;" horiz-adv-x="890" 
d="M721 1139h-172l-98 161l-91 -161h-172l121 295h283zM477 -25q-208 0 -326 142t-118 379q0 146 48 261.5t146.5 186t233.5 70.5q136 0 228 -66t133.5 -179t41.5 -267v-113h-522q2 -66 44.5 -109.5t127.5 -43.5q42 0 86.5 20t79.5 55l141 -184q-65 -74 -158 -113t-186 -39z
M559 608q0 146 -108 146q-109 0 -109 -146h217z" />
    <glyph glyph-name="edieresis" unicode="&#xeb;" horiz-adv-x="890" 
d="M807 1260q0 -69 -48.5 -116.5t-117.5 -47.5q-68 0 -116 47.5t-48 116.5t48 116t116 47q69 0 117.5 -47t48.5 -116zM426 1260q0 -68 -47.5 -116t-116.5 -48q-68 0 -116 48t-48 116q0 67 48 115t116 48q69 0 116.5 -47.5t47.5 -115.5zM477 -25q-208 0 -326 142t-118 379
q0 146 48 261.5t146.5 186t233.5 70.5q136 0 228 -66t133.5 -179t41.5 -267v-113h-522q2 -66 44.5 -109.5t127.5 -43.5q42 0 86.5 20t79.5 55l141 -184q-65 -74 -158 -113t-186 -39zM559 608q0 146 -108 146q-109 0 -109 -146h217z" />
    <glyph glyph-name="igrave" unicode="&#xec;" horiz-adv-x="466" 
d="M395 0h-323v989h323v-989zM340 1139h-199l-229 295h264z" />
    <glyph glyph-name="iacute" unicode="&#xed;" horiz-adv-x="466" 
d="M555 1434l-229 -295h-199l164 295h264zM395 0h-323v989h323v-989z" />
    <glyph glyph-name="icircumflex" unicode="&#xee;" horiz-adv-x="466" 
d="M502 1139h-172l-99 161l-90 -161h-172l121 295h283zM395 0h-323v989h323v-989z" />
    <glyph glyph-name="idieresis" unicode="&#xef;" horiz-adv-x="466" 
d="M588 1260q0 -69 -48.5 -116.5t-117.5 -47.5q-68 0 -116 47.5t-48 116.5t48 116t116 47q69 0 117.5 -47t48.5 -116zM207 1260q0 -68 -47.5 -116t-116.5 -48q-67 0 -115.5 48t-48.5 116q0 67 48 115t116 48q69 0 116.5 -47.5t47.5 -115.5zM395 0h-323v989h323v-989z" />
    <glyph glyph-name="eth" unicode="&#xf0;" horiz-adv-x="923" 
d="M315 989l-65 141l186 82q-21 46 -67 125l280 127q13 -21 70 -129l123 54l59 -140l-121 -55q113 -295 113 -610q0 -294 -108 -451.5t-324 -157.5q-106 0 -189 38.5t-134.5 105t-78 151.5t-26.5 181q0 128 38 234t113.5 171.5t175.5 65.5q45 0 81.5 -13.5t61 -38.5
t39.5 -48.5t29 -53.5q-17 135 -75 301zM461 260q100 0 100 189q0 188 -100 188q-96 0 -96 -188q0 -189 96 -189z" />
    <glyph glyph-name="ntilde" unicode="&#xf1;" 
d="M874 0h-323v649q0 80 -59 80q-31 0 -57 -29t-40 -67v-633h-323v989h323v-119q28 55 102 99.5t144 44.5q120 0 176.5 -64t56.5 -172v-778zM569 1135q-35 0 -64.5 17t-47 37t-37.5 37t-37 17q-49 0 -49 -96h-152q0 124 53.5 199t145.5 75q35 0 64.5 -17t47 -38t37.5 -38
t37 -17q49 0 49 98h152q0 -124 -53.5 -199t-145.5 -75z" />
    <glyph glyph-name="ograve" unicode="&#xf2;" horiz-adv-x="923" 
d="M461 -25q-106 0 -189 42t-134.5 115t-78 165.5t-26.5 198.5t26.5 198t78 164t134.5 114t189 42t190.5 -42t136 -114t78.5 -164t27 -198q0 -84 -16.5 -160t-51.5 -142.5t-85 -115t-121.5 -76t-157.5 -27.5zM461 260q54 0 77 60.5t23 175.5q0 113 -23 173t-77 60
q-53 0 -74.5 -59.5t-21.5 -173.5q0 -115 21.5 -175.5t74.5 -60.5zM567 1139h-198l-230 295h264z" />
    <glyph glyph-name="oacute" unicode="&#xf3;" horiz-adv-x="923" 
d="M782 1434l-229 -295h-199l164 295h264zM461 -25q-106 0 -189 42t-134.5 115t-78 165.5t-26.5 198.5t26.5 198t78 164t134.5 114t189 42t190.5 -42t136 -114t78.5 -164t27 -198q0 -84 -16.5 -160t-51.5 -142.5t-85 -115t-121.5 -76t-157.5 -27.5zM461 260q54 0 77 60.5
t23 175.5q0 113 -23 173t-77 60q-53 0 -74.5 -59.5t-21.5 -173.5q0 -115 21.5 -175.5t74.5 -60.5z" />
    <glyph glyph-name="ocircumflex" unicode="&#xf4;" horiz-adv-x="923" 
d="M731 1139h-172l-98 161l-90 -161h-172l120 295h283zM461 -25q-106 0 -189 42t-134.5 115t-78 165.5t-26.5 198.5t26.5 198t78 164t134.5 114t189 42t190.5 -42t136 -114t78.5 -164t27 -198q0 -84 -16.5 -160t-51.5 -142.5t-85 -115t-121.5 -76t-157.5 -27.5zM461 260
q54 0 77 60.5t23 175.5q0 113 -23 173t-77 60q-53 0 -74.5 -59.5t-21.5 -173.5q0 -115 21.5 -175.5t74.5 -60.5z" />
    <glyph glyph-name="otilde" unicode="&#xf5;" horiz-adv-x="923" 
d="M461 -25q-106 0 -189 42t-134.5 115t-78 165.5t-26.5 198.5t26.5 198t78 164t134.5 114t189 42t190.5 -42t136 -114t78.5 -164t27 -198q0 -84 -16.5 -160t-51.5 -142.5t-85 -115t-121.5 -76t-157.5 -27.5zM461 260q54 0 77 60.5t23 175.5q0 113 -23 173t-77 60
q-53 0 -74.5 -59.5t-21.5 -173.5q0 -115 21.5 -175.5t74.5 -60.5zM557 1135q-35 0 -64.5 17t-47 37t-37.5 37t-37 17q-49 0 -49 -96h-152q0 124 53.5 199t145.5 75q35 0 64.5 -17t47 -38t37.5 -38t37 -17q49 0 49 98h152q0 -124 -53.5 -199t-145.5 -75z" />
    <glyph glyph-name="odieresis" unicode="&#xf6;" horiz-adv-x="923" 
d="M817 1260q0 -69 -48.5 -116.5t-117.5 -47.5q-68 0 -116 47.5t-48 116.5t48 116t116 47q69 0 117.5 -47t48.5 -116zM436 1260q0 -68 -47.5 -116t-116.5 -48q-67 0 -115 48t-48 116t47.5 115.5t115.5 47.5q69 0 116.5 -47.5t47.5 -115.5zM461 -25q-106 0 -189 42
t-134.5 115t-78 165.5t-26.5 198.5t26.5 198t78 164t134.5 114t189 42t190.5 -42t136 -114t78.5 -164t27 -198q0 -84 -16.5 -160t-51.5 -142.5t-85 -115t-121.5 -76t-157.5 -27.5zM461 260q54 0 77 60.5t23 175.5q0 113 -23 173t-77 60q-53 0 -74.5 -59.5t-21.5 -173.5
q0 -115 21.5 -175.5t74.5 -60.5z" />
    <glyph glyph-name="divide" unicode="&#xf7;" horiz-adv-x="765" 
d="M526 993q0 -59 -41.5 -101t-101.5 -42q-58 0 -99.5 42t-41.5 101q0 60 41 101t100 41q60 0 101.5 -41t41.5 -101zM707 596h-648v190h648v-190zM526 389q0 -60 -41.5 -101.5t-101.5 -41.5q-59 0 -100 41.5t-41 101.5q0 59 41 100t100 41q60 0 101.5 -41t41.5 -100z" />
    <glyph glyph-name="oslash" unicode="&#xf8;" horiz-adv-x="923" 
d="M211 0h-168l92 135q-102 137 -102 361q0 106 26.5 198t78 164t134.5 114t189 42q127 0 227 -64l27 39h166l-93 -135q105 -141 105 -358q0 -84 -16.5 -160t-51.5 -142.5t-85 -115t-121.5 -76t-157.5 -27.5q-128 0 -225 62zM461 260q54 0 77 60.5t23 175.5v20l-155 -229
q21 -27 55 -27zM365 496v-23l153 227q-23 29 -57 29q-53 0 -74.5 -59.5t-21.5 -173.5z" />
    <glyph glyph-name="ugrave" unicode="&#xf9;" 
d="M874 0h-323v115q-30 -55 -102.5 -97.5t-143.5 -42.5q-120 0 -176.5 62t-56.5 170v782h323v-653q0 -76 60 -76q31 0 57 27t39 65v637h323v-989zM580 1139h-199l-229 295h264z" />
    <glyph glyph-name="uacute" unicode="&#xfa;" 
d="M795 1434l-230 -295h-198l163 295h265zM874 0h-323v115q-30 -55 -102.5 -97.5t-143.5 -42.5q-120 0 -176.5 62t-56.5 170v782h323v-653q0 -76 60 -76q31 0 57 27t39 65v637h323v-989z" />
    <glyph glyph-name="ucircumflex" unicode="&#xfb;" 
d="M741 1139h-172l-98 161l-90 -161h-172l121 295h282zM874 0h-323v115q-30 -55 -102.5 -97.5t-143.5 -42.5q-120 0 -176.5 62t-56.5 170v782h323v-653q0 -76 60 -76q31 0 57 27t39 65v637h323v-989z" />
    <glyph glyph-name="udieresis" unicode="&#xfc;" 
d="M829 1260q0 -69 -48 -116.5t-117 -47.5q-68 0 -116 47.5t-48 116.5t48 116t116 47q69 0 117 -47t48 -116zM449 1260q0 -68 -47.5 -116t-116.5 -48q-67 0 -115.5 48t-48.5 116q0 67 48 115t116 48q69 0 116.5 -47.5t47.5 -115.5zM874 0h-323v115q-30 -55 -102.5 -97.5
t-143.5 -42.5q-120 0 -176.5 62t-56.5 170v782h323v-653q0 -76 60 -76q31 0 57 27t39 65v637h323v-989z" />
    <glyph glyph-name="yacute" unicode="&#xfd;" horiz-adv-x="890" 
d="M96 -385l45 279q18 -11 41 -11q66 0 80 49l17 50l-291 1007h340l116 -581l119 581h340l-325 -1120q-45 -156 -124 -213t-223 -57q-92 0 -135 16zM766 1434l-229 -295h-199l164 295h264z" />
    <glyph glyph-name="thorn" unicode="&#xfe;" horiz-adv-x="944" 
d="M596 -25q-61 0 -116.5 33.5t-84.5 100.5v-486h-323v1743h323v-485q32 67 86 100t115 33q151 0 234 -135t83 -385q0 -243 -83.5 -381t-233.5 -138zM479 260q105 0 105 234q0 235 -105 235q-57 0 -84 -67v-332q28 -70 84 -70z" />
    <glyph glyph-name="ydieresis" unicode="&#xff;" horiz-adv-x="890" 
d="M96 -385l45 279q18 -11 41 -11q66 0 80 49l17 50l-291 1007h340l116 -581l119 581h340l-325 -1120q-45 -156 -124 -213t-223 -57q-92 0 -135 16zM801 1260q0 -69 -48.5 -116.5t-117.5 -47.5q-68 0 -116 47.5t-48 116.5t48 116t116 47q69 0 117.5 -47t48.5 -116zM420 1260
q0 -68 -47.5 -116t-116.5 -48q-68 0 -116 48t-48 116q0 67 48 115t116 48q69 0 116.5 -47.5t47.5 -115.5z" />
    <glyph glyph-name="Amacron" unicode="&#x100;" horiz-adv-x="991" 
d="M1004 0h-371l-29 190h-219l-27 -190h-370l299 1366h415zM563 506l-67 467l-68 -467h135zM768 1479h-549v178h549v-178z" />
    <glyph glyph-name="amacron" unicode="&#x101;" horiz-adv-x="927" 
d="M856 0h-321v96q-30 -53 -95 -87t-127 -34q-122 0 -202 88.5t-80 239.5t79 234.5t203 83.5q63 0 128.5 -30t93.5 -81v86q0 67 -39 106t-107 39q-97 0 -207 -92l-110 225q66 70 177.5 105t213.5 35q175 0 284 -85t109 -251v-678zM438 186q72 0 97 64v94q-25 66 -97 66
q-41 0 -64.5 -29.5t-23.5 -81.5q0 -54 23.5 -83.5t64.5 -29.5zM739 1137h-549v178h549v-178z" />
    <glyph glyph-name="Abreve" unicode="&#x102;" horiz-adv-x="991" 
d="M1004 0h-371l-29 190h-219l-27 -190h-370l299 1366h415zM563 506l-67 467l-68 -467h135zM758 1577q-44 -63 -113 -98t-151 -35q-80 0 -149.5 35t-115.5 98l144 106q44 -63 121 -63q76 0 120 63z" />
    <glyph glyph-name="abreve" unicode="&#x103;" horiz-adv-x="927" 
d="M856 0h-321v96q-30 -53 -95 -87t-127 -34q-122 0 -202 88.5t-80 239.5t79 234.5t203 83.5q63 0 128.5 -30t93.5 -81v86q0 67 -39 106t-107 39q-97 0 -207 -92l-110 225q66 70 177.5 105t213.5 35q175 0 284 -85t109 -251v-678zM438 186q72 0 97 64v94q-25 66 -97 66
q-41 0 -64.5 -29.5t-23.5 -81.5q0 -54 23.5 -83.5t64.5 -29.5zM729 1235q-44 -63 -113 -98t-151 -35q-79 0 -148.5 35t-115.5 98l143 106q44 -63 121 -63t121 63z" />
    <glyph glyph-name="Aogonek" unicode="&#x104;" horiz-adv-x="991" 
d="M983 -207l121 -65q-51 -109 -166 -109q-86 0 -136 45.5t-50 134.5q0 111 73 201h-192l-29 190h-219l-27 -190h-370l299 1366h415l302 -1366h-3q-49 -36 -74.5 -87.5t-25.5 -100.5q0 -66 39 -66q30 0 43 47zM563 506l-67 467l-68 -467h135z" />
    <glyph glyph-name="aogonek" unicode="&#x105;" horiz-adv-x="927" 
d="M838 -207l120 -65q-51 -109 -165 -109q-86 0 -136.5 45.5t-50.5 134.5q0 110 74 201h-145v96q-30 -53 -95 -87t-127 -34q-122 0 -202 88.5t-80 239.5t79 234.5t203 83.5q63 0 128.5 -30t93.5 -81v86q0 67 -39 106t-107 39q-97 0 -207 -92l-110 225q66 70 177.5 105
t213.5 35q175 0 284 -85t109 -251v-678q-49 -36 -74.5 -87.5t-25.5 -100.5q0 -66 39 -66q30 0 43 47zM438 186q72 0 97 64v94q-25 66 -97 66q-41 0 -64.5 -29.5t-23.5 -81.5q0 -54 23.5 -83.5t64.5 -29.5z" />
    <glyph glyph-name="Cacute" unicode="&#x106;" horiz-adv-x="956" 
d="M858 1776l-229 -295h-199l164 295h264zM537 -25q-126 0 -222 51.5t-156.5 146.5t-91 223t-30.5 286q0 213 52.5 369t166.5 247t281 91q78 0 141.5 -25t103.5 -61t73.5 -91t50.5 -100t34 -104l-285 -105q-16 85 -42 125.5t-76 40.5q-71 0 -101 -99t-30 -288t30 -288
t101 -99q99 0 120 190l283 -102q-14 -59 -30 -107t-48.5 -107t-73.5 -99t-106 -67.5t-145 -27.5z" />
    <glyph glyph-name="cacute" unicode="&#x107;" horiz-adv-x="759" 
d="M784 1434l-229 -295h-199l164 295h264zM463 -25q-195 0 -312.5 144t-117.5 377t117 375.5t313 142.5q88 0 162.5 -25.5t113.5 -60.5l-92 -252q-63 53 -119 53q-75 0 -120.5 -63.5t-45.5 -169.5t45.5 -171t120.5 -65q60 0 119 53l92 -252q-38 -36 -112.5 -61t-163.5 -25z
" />
    <glyph glyph-name="Ccircumflex" unicode="&#x108;" horiz-adv-x="956" 
d="M803 1481h-172l-99 161l-90 -161h-172l121 295h283zM537 -25q-126 0 -222 51.5t-156.5 146.5t-91 223t-30.5 286q0 213 52.5 369t166.5 247t281 91q78 0 141.5 -25t103.5 -61t73.5 -91t50.5 -100t34 -104l-285 -105q-16 85 -42 125.5t-76 40.5q-71 0 -101 -99t-30 -288
t30 -288t101 -99q99 0 120 190l283 -102q-14 -59 -30 -107t-48.5 -107t-73.5 -99t-106 -67.5t-145 -27.5z" />
    <glyph glyph-name="ccircumflex" unicode="&#x109;" horiz-adv-x="759" 
d="M735 1139h-172l-98 161l-90 -161h-172l121 295h282zM463 -25q-195 0 -312.5 144t-117.5 377t117 375.5t313 142.5q88 0 162.5 -25.5t113.5 -60.5l-92 -252q-63 53 -119 53q-75 0 -120.5 -63.5t-45.5 -169.5t45.5 -171t120.5 -65q60 0 119 53l92 -252q-38 -36 -112.5 -61
t-163.5 -25z" />
    <glyph glyph-name="Cdotaccent" unicode="&#x10a;" horiz-adv-x="956" 
d="M537 -25q-126 0 -222 51.5t-156.5 146.5t-91 223t-30.5 286q0 213 52.5 369t166.5 247t281 91q78 0 141.5 -25t103.5 -61t73.5 -91t50.5 -100t34 -104l-285 -105q-16 85 -42 125.5t-76 40.5q-71 0 -101 -99t-30 -288t30 -288t101 -99q99 0 120 190l283 -102
q-14 -59 -30 -107t-48.5 -107t-73.5 -99t-106 -67.5t-145 -27.5zM532 1440q-66 0 -114.5 47.5t-48.5 114.5t48.5 115t114.5 48q68 0 116 -48t48 -115t-48 -114.5t-116 -47.5z" />
    <glyph glyph-name="cdotaccent" unicode="&#x10b;" horiz-adv-x="759" 
d="M463 -25q-195 0 -312.5 144t-117.5 377t117 375.5t313 142.5q88 0 162.5 -25.5t113.5 -60.5l-92 -252q-63 53 -119 53q-75 0 -120.5 -63.5t-45.5 -169.5t45.5 -171t120.5 -65q60 0 119 53l92 -252q-38 -36 -112.5 -61t-163.5 -25zM465 1098q-67 0 -115.5 47.5
t-48.5 114.5t49 115t115 48q68 0 116 -48t48 -115t-48 -114.5t-116 -47.5z" />
    <glyph glyph-name="Ccaron" unicode="&#x10c;" horiz-adv-x="956" 
d="M680 1481h-283l-127 295h172l97 -162l92 162h172zM537 -25q-126 0 -222 51.5t-156.5 146.5t-91 223t-30.5 286q0 213 52.5 369t166.5 247t281 91q78 0 141.5 -25t103.5 -61t73.5 -91t50.5 -100t34 -104l-285 -105q-16 85 -42 125.5t-76 40.5q-71 0 -101 -99t-30 -288
t30 -288t101 -99q99 0 120 190l283 -102q-14 -59 -30 -107t-48.5 -107t-73.5 -99t-106 -67.5t-145 -27.5z" />
    <glyph glyph-name="ccaron" unicode="&#x10d;" horiz-adv-x="759" 
d="M612 1139h-282l-127 295h172l96 -162l92 162h172zM463 -25q-195 0 -312.5 144t-117.5 377t117 375.5t313 142.5q88 0 162.5 -25.5t113.5 -60.5l-92 -252q-63 53 -119 53q-75 0 -120.5 -63.5t-45.5 -169.5t45.5 -171t120.5 -65q60 0 119 53l92 -252q-38 -36 -112.5 -61
t-163.5 -25z" />
    <glyph glyph-name="Dcaron" unicode="&#x10e;" horiz-adv-x="1073" 
d="M678 1481h-283l-127 295h172l97 -162l92 162h172zM508 0h-424v1366h422q136 0 239.5 -52.5t166 -146.5t93.5 -216t31 -269q0 -149 -30.5 -270.5t-92.5 -215t-165 -145t-240 -51.5zM506 315q162 0 162 367q0 199 -42.5 284t-119.5 85h-60v-736h60z" />
    <glyph glyph-name="dcaron" unicode="&#x10f;" horiz-adv-x="1239" 
d="M1251 1204q0 -96 -48.5 -179.5t-133.5 -143.5l-102 82q41 22 82.5 67.5t52.5 87.5q-9 -6 -35 -6q-54 0 -89.5 36t-35.5 95q0 61 44 104.5t104 43.5q66 0 113.5 -51.5t47.5 -135.5zM872 0h-321v111q-33 -68 -87 -102t-114 -34q-152 0 -234.5 135.5t-82.5 385.5
q0 243 83 380.5t234 137.5q61 0 116.5 -33.5t84.5 -101.5v487h321v-1366zM465 260q53 0 86 74v325q-33 70 -86 70q-103 0 -103 -233q0 -236 103 -236z" />
    <glyph glyph-name="Dcroat" unicode="&#x110;" horiz-adv-x="1126" 
d="M561 0h-424v543h-114v276h114v547h422q136 0 239.5 -52.5t166.5 -146.5t94 -216t31 -269q0 -118 -18.5 -219.5t-59.5 -187.5t-102.5 -146.5t-150 -94.5t-198.5 -34zM559 315q162 0 162 367q0 199 -42.5 284t-119.5 85h-59v-232h112v-276h-112v-228h59z" />
    <glyph glyph-name="dcroat" unicode="&#x111;" horiz-adv-x="944" 
d="M872 0h-321v111q-33 -68 -87 -102t-114 -34q-152 0 -234.5 135.5t-82.5 385.5q0 243 83 380.5t234 137.5q61 0 116.5 -33.5t84.5 -101.5v194h-244v178h244v115h321v-115h66v-178h-66v-1073zM465 260q53 0 86 74v325q-33 70 -86 70q-103 0 -103 -233q0 -236 103 -236z" />
    <glyph glyph-name="Emacron" unicode="&#x112;" horiz-adv-x="829" 
d="M772 0h-688v1366h688v-315h-326v-201h312v-315h-312v-220h326v-315zM700 1479h-548v178h548v-178z" />
    <glyph glyph-name="emacron" unicode="&#x113;" horiz-adv-x="890" 
d="M477 -25q-208 0 -326 142t-118 379q0 146 48 261.5t146.5 186t233.5 70.5q136 0 228 -66t133.5 -179t41.5 -267v-113h-522q2 -66 44.5 -109.5t127.5 -43.5q42 0 86.5 20t79.5 55l141 -184q-65 -74 -158 -113t-186 -39zM559 608q0 146 -108 146q-109 0 -109 -146h217z
M721 1137h-549v178h549v-178z" />
    <glyph glyph-name="Ebreve" unicode="&#x114;" horiz-adv-x="829" 
d="M772 0h-688v1366h688v-315h-326v-201h312v-315h-312v-220h326v-315zM690 1577q-44 -63 -113 -98t-151 -35q-79 0 -148.5 35t-115.5 98l143 106q44 -63 121 -63t121 63z" />
    <glyph glyph-name="ebreve" unicode="&#x115;" horiz-adv-x="890" 
d="M477 -25q-208 0 -326 142t-118 379q0 146 48 261.5t146.5 186t233.5 70.5q136 0 228 -66t133.5 -179t41.5 -267v-113h-522q2 -66 44.5 -109.5t127.5 -43.5q42 0 86.5 20t79.5 55l141 -184q-65 -74 -158 -113t-186 -39zM559 608q0 146 -108 146q-109 0 -109 -146h217z
M727 1235q-44 -63 -113 -98t-151 -35q-79 0 -148.5 35t-115.5 98l143 106q44 -63 121 -63t121 63z" />
    <glyph glyph-name="Edotaccent" unicode="&#x116;" horiz-adv-x="829" 
d="M772 0h-688v1366h688v-315h-326v-201h312v-315h-312v-220h326v-315zM436 1440q-67 0 -115.5 47.5t-48.5 114.5t49 115t115 48q68 0 116 -48t48 -115t-48 -114.5t-116 -47.5z" />
    <glyph glyph-name="edotaccent" unicode="&#x117;" horiz-adv-x="890" 
d="M477 -25q-208 0 -326 142t-118 379q0 146 48 261.5t146.5 186t233.5 70.5q136 0 228 -66t133.5 -179t41.5 -267v-113h-522q2 -66 44.5 -109.5t127.5 -43.5q42 0 86.5 20t79.5 55l141 -184q-65 -74 -158 -113t-186 -39zM559 608q0 146 -108 146q-109 0 -109 -146h217z
M459 1098q-67 0 -115.5 47.5t-48.5 114.5t49 115t115 48q68 0 116 -48t48 -115t-48 -114.5t-116 -47.5z" />
    <glyph glyph-name="Eogonek" unicode="&#x118;" horiz-adv-x="829" 
d="M772 0q-49 -36 -74.5 -87.5t-25.5 -100.5q0 -66 39 -66q30 0 43 47l120 -65q-51 -109 -165 -109q-86 0 -136.5 45.5t-50.5 134.5q0 110 74 201h-512v1366h688v-315h-326v-201h312v-315h-312v-220h326v-315z" />
    <glyph glyph-name="eogonek" unicode="&#x119;" horiz-adv-x="890" 
d="M606 -207l121 -65q-51 -109 -166 -109q-86 0 -136 45.5t-50 134.5q0 101 57 178q-189 17 -294 156t-105 363q0 146 48 261.5t146.5 186t233.5 70.5q136 0 228 -66t133.5 -179t41.5 -267v-113h-522q2 -66 44.5 -109.5t127.5 -43.5q42 0 86.5 20t79.5 55l141 -184
q-82 -91 -198 -127q-47 -37 -73 -88.5t-26 -99.5q0 -66 39 -66q30 0 43 47zM559 608q0 146 -108 146q-109 0 -109 -146h217z" />
    <glyph glyph-name="Ecaron" unicode="&#x11a;" horiz-adv-x="829" 
d="M567 1481h-282l-127 295h172l96 -162l92 162h172zM772 0h-688v1366h688v-315h-326v-201h312v-315h-312v-220h326v-315z" />
    <glyph glyph-name="ecaron" unicode="&#x11b;" horiz-adv-x="890" 
d="M606 1139h-282l-127 295h172l96 -162l92 162h172zM477 -25q-208 0 -326 142t-118 379q0 146 48 261.5t146.5 186t233.5 70.5q136 0 228 -66t133.5 -179t41.5 -267v-113h-522q2 -66 44.5 -109.5t127.5 -43.5q42 0 86.5 20t79.5 55l141 -184q-65 -74 -158 -113t-186 -39z
M559 608q0 146 -108 146q-109 0 -109 -146h217z" />
    <glyph glyph-name="Gcircumflex" unicode="&#x11c;" horiz-adv-x="1013" 
d="M803 1481h-172l-99 161l-90 -161h-172l121 295h283zM537 -25q-167 0 -281 91t-166.5 247t-52.5 369q0 159 30.5 288t91.5 223t157 145t221 51q157 0 260.5 -106.5t142.5 -274.5l-285 -105q-26 166 -118 166q-131 0 -131 -387t131 -387q67 0 100 39v137h-125v317h440v-616
q-88 -98 -185.5 -147.5t-229.5 -49.5z" />
    <glyph glyph-name="gcircumflex" unicode="&#x11d;" horiz-adv-x="944" 
d="M743 1139h-172l-98 161l-90 -161h-172l121 295h282zM428 -401q-223 0 -346 112l98 252q102 -92 211 -92q72 0 116 48t44 147v100q-34 -68 -88 -102.5t-113 -34.5q-154 0 -235.5 122.5t-81.5 368.5q0 242 82 368t235 126q61 0 116.5 -33.5t84.5 -101.5v110h321v-923
q0 -107 -26 -190.5t-67.5 -134.5t-101 -84t-120 -45.5t-129.5 -12.5zM465 313q55 0 86 70v276q-31 70 -86 70q-57 0 -80 -50.5t-23 -158.5t23 -157.5t80 -49.5z" />
    <glyph glyph-name="Gbreve" unicode="&#x11e;" horiz-adv-x="1013" 
d="M537 -25q-167 0 -281 91t-166.5 247t-52.5 369q0 159 30.5 288t91.5 223t157 145t221 51q157 0 260.5 -106.5t142.5 -274.5l-285 -105q-26 166 -118 166q-131 0 -131 -387t131 -387q67 0 100 39v137h-125v317h440v-616q-88 -98 -185.5 -147.5t-229.5 -49.5zM803 1577
q-44 -63 -113 -98t-151 -35q-80 0 -149.5 35t-115.5 98l144 106q44 -63 121 -63q76 0 120 63z" />
    <glyph glyph-name="gbreve" unicode="&#x11f;" horiz-adv-x="944" 
d="M428 -401q-223 0 -346 112l98 252q102 -92 211 -92q72 0 116 48t44 147v100q-34 -68 -88 -102.5t-113 -34.5q-154 0 -235.5 122.5t-81.5 368.5q0 242 82 368t235 126q61 0 116.5 -33.5t84.5 -101.5v110h321v-923q0 -107 -26 -190.5t-67.5 -134.5t-101 -84t-120 -45.5
t-129.5 -12.5zM465 313q55 0 86 70v276q-31 70 -86 70q-57 0 -80 -50.5t-23 -158.5t23 -157.5t80 -49.5zM731 1235q-44 -63 -113 -98t-151 -35q-79 0 -148.5 35t-115.5 98l143 106q44 -63 121 -63t121 63z" />
    <glyph glyph-name="Gdotaccent" unicode="&#x120;" horiz-adv-x="1013" 
d="M537 -25q-167 0 -281 91t-166.5 247t-52.5 369q0 159 30.5 288t91.5 223t157 145t221 51q157 0 260.5 -106.5t142.5 -274.5l-285 -105q-26 166 -118 166q-131 0 -131 -387t131 -387q67 0 100 39v137h-125v317h440v-616q-88 -98 -185.5 -147.5t-229.5 -49.5zM537 1440
q-67 0 -115.5 47.5t-48.5 114.5t49 115t115 48q67 0 115 -47.5t48 -115.5q0 -67 -47.5 -114.5t-115.5 -47.5z" />
    <glyph glyph-name="gdotaccent" unicode="&#x121;" horiz-adv-x="944" 
d="M428 -401q-223 0 -346 112l98 252q102 -92 211 -92q72 0 116 48t44 147v100q-34 -68 -88 -102.5t-113 -34.5q-154 0 -235.5 122.5t-81.5 368.5q0 242 82 368t235 126q61 0 116.5 -33.5t84.5 -101.5v110h321v-923q0 -107 -26 -190.5t-67.5 -134.5t-101 -84t-120 -45.5
t-129.5 -12.5zM465 313q55 0 86 70v276q-31 70 -86 70q-57 0 -80 -50.5t-23 -158.5t23 -157.5t80 -49.5zM483 1098q-67 0 -115.5 47.5t-48.5 114.5t49 115t115 48q68 0 116 -48t48 -115t-48 -114.5t-116 -47.5z" />
    <glyph glyph-name="Gcommaaccent" unicode="&#x122;" horiz-adv-x="1013" 
d="M670 -285q0 -96 -48.5 -179.5t-134.5 -143.5l-102 82q41 22 82.5 67.5t52.5 87.5q-9 -6 -35 -6q-54 0 -89.5 36t-35.5 95q0 61 44 104.5t104 43.5q66 0 114 -51.5t48 -135.5zM537 -25q-167 0 -281 91t-166.5 247t-52.5 369q0 159 30.5 288t91.5 223t157 145t221 51
q157 0 260.5 -106.5t142.5 -274.5l-285 -105q-26 166 -118 166q-131 0 -131 -387t131 -387q67 0 100 39v137h-125v317h440v-616q-88 -98 -185.5 -147.5t-229.5 -49.5z" />
    <glyph glyph-name="gcommaaccent" unicode="&#x123;" horiz-adv-x="944" 
d="M313 1253q0 212 176 336l103 -84q-38 -15 -82 -58t-51 -83q6 2 14 2q55 0 98 -40t43 -99q0 -61 -43.5 -104.5t-105.5 -43.5q-24 0 -48 8t-48.5 26t-40 54.5t-15.5 85.5zM428 -401q-223 0 -346 112l98 252q102 -92 211 -92q72 0 116 48t44 147v100q-34 -68 -88 -102.5
t-113 -34.5q-154 0 -235.5 122.5t-81.5 368.5q0 242 82 368t235 126q61 0 116.5 -33.5t84.5 -101.5v110h321v-923q0 -107 -26 -190.5t-67.5 -134.5t-101 -84t-120 -45.5t-129.5 -12.5zM465 313q55 0 86 70v276q-31 70 -86 70q-57 0 -80 -50.5t-23 -158.5t23 -157.5t80 -49.5
z" />
    <glyph glyph-name="Hcircumflex" unicode="&#x124;" horiz-adv-x="1089" 
d="M811 1481h-172l-98 161l-90 -161h-172l120 295h283zM1004 0h-361v545h-197v-545h-362v1366h362v-506h197v506h361v-1366z" />
    <glyph glyph-name="hcircumflex" unicode="&#x125;" 
d="M739 1481h-172l-98 161l-90 -161h-172l121 295h282zM874 0h-323v653q0 76 -59 76q-31 0 -57 -29t-40 -67v-633h-323v1366h323v-496q28 55 102 99.5t144 44.5q120 0 176.5 -62t56.5 -170v-782z" />
    <glyph glyph-name="Hbar" unicode="&#x126;" horiz-adv-x="1128" 
d="M1026 0h-360v545h-197v-545h-363v1026h-83v178h83v162h363v-162h197v162h360v-162h78v-178h-78v-1026zM469 860h197v166h-197v-166z" />
    <glyph glyph-name="hbar" unicode="&#x127;" horiz-adv-x="964" 
d="M653 1073h-239v-203q29 56 102 100t143 44q120 0 177 -62.5t57 -169.5v-782h-324v653q0 76 -59 76q-31 0 -56.5 -28.5t-39.5 -67.5v-633h-324v1073h-67v178h67v115h324v-115h239v-178z" />
    <glyph glyph-name="Itilde" unicode="&#x128;" horiz-adv-x="530" 
d="M446 0h-362v1366h362v-1366zM367 1477q-35 0 -65 17t-47 37t-37.5 37t-37.5 17q-49 0 -49 -96h-151q0 124 53.5 199t144.5 75q35 0 65 -17t47 -38t37.5 -38t37.5 -17q49 0 49 98h151q0 -124 -53.5 -199t-144.5 -75z" />
    <glyph glyph-name="itilde" unicode="&#x129;" horiz-adv-x="466" 
d="M395 0h-323v989h323v-989zM330 1135q-35 0 -65 17t-47 37t-37.5 37t-37.5 17q-49 0 -49 -96h-151q0 124 53.5 199t144.5 75q35 0 65 -17t47 -38t37.5 -38t37.5 -17q49 0 49 98h151q0 -124 -53.5 -199t-144.5 -75z" />
    <glyph glyph-name="Imacron" unicode="&#x12a;" horiz-adv-x="530" 
d="M446 0h-362v1366h362v-1366zM539 1479h-549v178h549v-178z" />
    <glyph glyph-name="imacron" unicode="&#x12b;" horiz-adv-x="466" 
d="M395 0h-323v989h323v-989zM508 1137h-549v178h549v-178z" />
    <glyph glyph-name="Ibreve" unicode="&#x12c;" horiz-adv-x="530" 
d="M446 0h-362v1366h362v-1366zM532 1577q-44 -63 -113 -98t-151 -35q-79 0 -148.5 35t-115.5 98l143 106q44 -63 121 -63t121 63z" />
    <glyph glyph-name="ibreve" unicode="&#x12d;" horiz-adv-x="466" 
d="M395 0h-323v989h323v-989zM498 1235q-44 -63 -113.5 -98t-151.5 -35q-79 0 -148.5 35t-115.5 98l144 106q44 -63 120 -63q77 0 121 63z" />
    <glyph glyph-name="Iogonek" unicode="&#x12e;" horiz-adv-x="530" 
d="M428 -207l121 -65q-51 -109 -166 -109q-86 0 -136 45.5t-50 134.5q0 111 73 201h-186v1366h362v-1366q-49 -36 -74.5 -87.5t-25.5 -100.5q0 -66 39 -66q30 0 43 47z" />
    <glyph glyph-name="iogonek" unicode="&#x12f;" horiz-adv-x="466" 
d="M377 -207l121 -65q-51 -109 -166 -109q-86 0 -136.5 45.5t-50.5 134.5q0 110 74 201h-147v989h323v-989q-49 -36 -74.5 -87.5t-25.5 -100.5q0 -66 39 -66q30 0 43 47zM233 1075q-76 0 -130 54t-54 131t54 131.5t130 54.5t130.5 -54.5t54.5 -131.5q0 -76 -54 -130.5
t-131 -54.5z" />
    <glyph glyph-name="Idotaccent" unicode="&#x130;" horiz-adv-x="530" 
d="M446 0h-362v1366h362v-1366zM266 1440q-67 0 -115.5 47.5t-48.5 114.5t49 115t115 48q68 0 116 -48t48 -115t-48 -114.5t-116 -47.5z" />
    <glyph glyph-name="dotlessi" unicode="&#x131;" horiz-adv-x="466" 
d="M395 0h-323v989h323v-989z" />
    <glyph glyph-name="IJ" unicode="&#x132;" horiz-adv-x="1300" 
d="M446 0h-362v1366h362v-1366zM778 -25q-143 0 -229 56l82 297q39 -33 102 -33q55 0 89 30t34 87v954h363v-973q0 -211 -118.5 -314.5t-322.5 -103.5z" />
    <glyph glyph-name="ij" unicode="&#x133;" horiz-adv-x="933" 
d="M233 1075q-76 0 -130 54t-54 131t54 131.5t130 54.5t130.5 -54.5t54.5 -131.5q0 -76 -54 -130.5t-131 -54.5zM395 0h-323v989h323v-989zM700 1075q-76 0 -130 54t-54 131t54 131.5t130 54.5t130.5 -54.5t54.5 -131.5q0 -76 -54.5 -130.5t-130.5 -54.5zM526 -401
q-91 0 -151 32l53 254q18 -14 47 -14q64 0 64 102v1016h323v-1016q0 -374 -336 -374z" />
    <glyph glyph-name="Jcircumflex" unicode="&#x134;" horiz-adv-x="768" 
d="M776 1481h-172l-98 161l-90 -161h-172l121 295h282zM248 -25q-144 0 -230 56l82 297q39 -33 103 -33q55 0 89 30t34 87v954h362v-973q0 -212 -118 -315t-322 -103z" />
    <glyph glyph-name="jcircumflex" unicode="&#x135;" horiz-adv-x="466" 
d="M504 1139h-172l-99 161l-90 -161h-172l121 295h283zM35 -401q-81 0 -127 32l53 267q19 -15 47 -15q64 0 64 90v1016h323v-1016q0 -185 -83 -279.5t-277 -94.5z" />
    <glyph glyph-name="Kcommaaccent" unicode="&#x136;" horiz-adv-x="1073" 
d="M698 -285q0 -96 -48.5 -179.5t-133.5 -143.5l-102 82q41 22 82.5 67.5t52.5 87.5q-9 -6 -35 -6q-54 0 -89.5 36t-35.5 95q0 61 44 104.5t104 43.5q66 0 113.5 -51.5t47.5 -135.5zM1083 0h-405l-154 451l-78 -170v-281h-362v1366h362v-553l222 553h393l-320 -637z" />
    <glyph glyph-name="kcommaaccent" unicode="&#x137;" horiz-adv-x="911" 
d="M621 -285q0 -96 -48.5 -179.5t-134.5 -143.5l-102 82q41 22 82.5 67.5t52.5 87.5q-9 -6 -35 -6q-54 0 -89.5 36t-35.5 95q0 61 44 104.5t104 43.5q66 0 114 -51.5t48 -135.5zM922 0h-355l-104 340l-68 -131v-209h-323v1366h323v-741l152 364h356l-221 -436z" />
    <glyph glyph-name="kgreenlandic" unicode="&#x138;" horiz-adv-x="911" 
d="M922 0h-355l-104 340l-68 -131v-209h-323v989h323v-364l152 364h356l-221 -436z" />
    <glyph glyph-name="Lacute" unicode="&#x139;" horiz-adv-x="811" 
d="M750 1776l-230 -295h-198l163 295h265zM772 0h-688v1366h362v-1051h326v-315z" />
    <glyph glyph-name="lacute" unicode="&#x13a;" horiz-adv-x="466" 
d="M555 1776l-229 -295h-199l164 295h264zM395 0h-323v1366h323v-1366z" />
    <glyph glyph-name="Lcommaaccent" unicode="&#x13b;" horiz-adv-x="811" 
d="M567 -285q0 -96 -48.5 -179.5t-133.5 -143.5l-102 82q41 22 82.5 67.5t52.5 87.5q-9 -6 -35 -6q-54 0 -89.5 36t-35.5 95q0 61 44 104.5t104 43.5q66 0 113.5 -51.5t47.5 -135.5zM772 0h-688v1366h362v-1051h326v-315z" />
    <glyph glyph-name="lcommaaccent" unicode="&#x13c;" horiz-adv-x="466" 
d="M395 -285q0 -96 -48.5 -179.5t-133.5 -143.5l-102 82q41 22 82.5 67.5t52.5 87.5q-9 -6 -35 -6q-54 0 -89.5 36t-35.5 95q0 61 43.5 104.5t103.5 43.5q66 0 114 -51.5t48 -135.5zM395 0h-323v1366h323v-1366z" />
    <glyph glyph-name="Lcaron" unicode="&#x13d;" horiz-adv-x="811" 
d="M838 1208q0 -96 -48.5 -179.5t-134.5 -143.5l-102 82q41 22 82.5 67.5t52.5 87.5q-9 -6 -35 -6q-54 0 -89.5 36t-35.5 95q0 61 44 104.5t104 43.5q66 0 114 -51.5t48 -135.5zM772 0h-688v1366h362v-1051h326v-315z" />
    <glyph glyph-name="lcaron" unicode="&#x13e;" horiz-adv-x="759" 
d="M795 1208q0 -96 -48.5 -179.5t-134.5 -143.5l-102 82q41 22 82.5 67.5t52.5 87.5q-9 -6 -35 -6q-54 0 -89.5 36t-35.5 95q0 61 44 104.5t104 43.5q66 0 114 -51.5t48 -135.5zM395 0h-323v1366h323v-1366z" />
    <glyph glyph-name="Ldot" unicode="&#x13f;" horiz-adv-x="1013" 
d="M772 0h-688v1366h362v-1051h326v-315zM971 700q0 -79 -58.5 -137.5t-138.5 -58.5t-138 58t-58 138q0 82 58 140.5t138 58.5t138.5 -59t58.5 -140z" />
    <glyph glyph-name="ldot" unicode="&#x140;" horiz-adv-x="872" 
d="M395 0h-323v1366h323v-1366zM866 500q0 -80 -58.5 -138.5t-137.5 -58.5q-80 0 -138.5 58.5t-58.5 138.5q0 81 58.5 139.5t138.5 58.5t138 -58.5t58 -139.5z" />
    <glyph glyph-name="Lslash" unicode="&#x141;" horiz-adv-x="823" 
d="M23 389v289l73 43v645h363v-434l116 67v-290l-116 -68v-326h325v-315h-688v432z" />
    <glyph glyph-name="lslash" unicode="&#x142;" horiz-adv-x="532" 
d="M23 424v229l81 47v666h324v-481l84 49v-229l-84 -50v-655h-324v471z" />
    <glyph glyph-name="Nacute" unicode="&#x143;" horiz-adv-x="1089" 
d="M864 1776l-229 -295h-199l164 295h264zM1004 0h-336l-222 567v-567h-362v1366h362l197 -532v532h361v-1366z" />
    <glyph glyph-name="nacute" unicode="&#x144;" 
d="M795 1434l-230 -295h-198l163 295h265zM874 0h-323v649q0 80 -59 80q-31 0 -57 -29t-40 -67v-633h-323v989h323v-119q28 55 102 99.5t144 44.5q120 0 176.5 -64t56.5 -172v-778z" />
    <glyph glyph-name="Ncommaaccent" unicode="&#x145;" horiz-adv-x="1089" 
d="M705 -285q0 -96 -48.5 -179.5t-134.5 -143.5l-102 82q41 22 82.5 67.5t52.5 87.5q-9 -6 -35 -6q-54 0 -89.5 36t-35.5 95q0 61 44 104.5t104 43.5q66 0 114 -51.5t48 -135.5zM1004 0h-336l-222 567v-567h-362v1366h362l197 -532v532h361v-1366z" />
    <glyph glyph-name="ncommaaccent" unicode="&#x146;" 
d="M635 -285q0 -96 -48.5 -179.5t-133.5 -143.5l-103 82q41 22 82.5 67.5t52.5 87.5q-9 -6 -34 -6q-54 0 -89.5 36t-35.5 95q0 61 43.5 104.5t103.5 43.5q66 0 114 -51.5t48 -135.5zM874 0h-323v649q0 80 -59 80q-31 0 -57 -29t-40 -67v-633h-323v989h323v-119
q28 55 102 99.5t144 44.5q120 0 176.5 -64t56.5 -172v-778z" />
    <glyph glyph-name="Ncaron" unicode="&#x147;" horiz-adv-x="1089" 
d="M686 1481h-283l-127 295h173l96 -162l92 162h172zM1004 0h-336l-222 567v-567h-362v1366h362l197 -532v532h361v-1366z" />
    <glyph glyph-name="ncaron" unicode="&#x148;" 
d="M616 1139h-282l-127 295h172l96 -162l92 162h172zM874 0h-323v649q0 80 -59 80q-31 0 -57 -29t-40 -67v-633h-323v989h323v-119q28 55 102 99.5t144 44.5q120 0 176.5 -64t56.5 -172v-778z" />
    <glyph glyph-name="napostrophe" unicode="&#x149;" 
d="M352 1403q0 -96 -48.5 -180t-133.5 -144l-102 82q41 22 82.5 68t52.5 88q-9 -6 -35 -6q-54 0 -89.5 36t-35.5 95q0 61 43.5 104t103.5 43q66 0 114 -51t48 -135zM874 0h-323v649q0 80 -59 80q-31 0 -57 -29t-40 -67v-633h-323v989h323v-119q28 55 102 99.5t144 44.5
q120 0 176.5 -64t56.5 -172v-778z" />
    <glyph glyph-name="Eng" unicode="&#x14a;" horiz-adv-x="1089" 
d="M565 -401q-144 0 -231 55l82 291q44 -35 104 -35q54 0 88.5 31t34.5 86v36l-197 504v-567h-362v1366h362l197 -532v532h361v-1350q0 -212 -117.5 -314.5t-321.5 -102.5z" />
    <glyph glyph-name="eng" unicode="&#x14b;" 
d="M874 778v-805q0 -186 -83.5 -280t-278.5 -94q-79 0 -125 32l51 267q22 -15 49 -15q64 0 64 90v676q0 80 -59 80q-31 0 -57 -29t-40 -67v-633h-323v989h323v-119q28 55 102 99.5t144 44.5q120 0 176.5 -64t56.5 -172z" />
    <glyph glyph-name="Omacron" unicode="&#x14c;" horiz-adv-x="1069" 
d="M807 1479h-549v178h549v-178zM535 -25q-166 0 -279.5 91.5t-166 248t-52.5 367.5t52.5 367.5t166 248t279.5 91.5t279 -91.5t165.5 -247.5t52.5 -368t-52.5 -368t-165.5 -247.5t-279 -91.5zM535 295q129 0 129 387t-129 387t-129 -387t129 -387z" />
    <glyph glyph-name="omacron" unicode="&#x14d;" horiz-adv-x="923" 
d="M737 1137h-549v178h549v-178zM461 -25q-106 0 -189 42t-134.5 115t-78 165.5t-26.5 198.5t26.5 198t78 164t134.5 114t189 42t190.5 -42t136 -114t78.5 -164t27 -198q0 -84 -16.5 -160t-51.5 -142.5t-85 -115t-121.5 -76t-157.5 -27.5zM461 260q54 0 77 60.5t23 175.5
q0 113 -23 173t-77 60q-53 0 -74.5 -59.5t-21.5 -173.5q0 -115 21.5 -175.5t74.5 -60.5z" />
    <glyph glyph-name="Obreve" unicode="&#x14e;" horiz-adv-x="1069" 
d="M535 -25q-166 0 -279.5 91.5t-166 248t-52.5 367.5t52.5 367.5t166 248t279.5 91.5t279 -91.5t165.5 -247.5t52.5 -368t-52.5 -368t-165.5 -247.5t-279 -91.5zM535 295q129 0 129 387t-129 387t-129 -387t129 -387zM803 1577q-44 -63 -113 -98t-151 -35q-80 0 -149.5 35
t-115.5 98l144 106q44 -63 121 -63q76 0 120 63z" />
    <glyph glyph-name="obreve" unicode="&#x14f;" horiz-adv-x="923" 
d="M461 -25q-106 0 -189 42t-134.5 115t-78 165.5t-26.5 198.5t26.5 198t78 164t134.5 114t189 42t190.5 -42t136 -114t78.5 -164t27 -198q0 -84 -16.5 -160t-51.5 -142.5t-85 -115t-121.5 -76t-157.5 -27.5zM461 260q54 0 77 60.5t23 175.5q0 113 -23 173t-77 60
q-53 0 -74.5 -59.5t-21.5 -173.5q0 -115 21.5 -175.5t74.5 -60.5zM727 1235q-44 -63 -113 -98t-151 -35q-79 0 -148.5 35t-115.5 98l143 106q44 -63 121 -63t121 63z" />
    <glyph glyph-name="Ohungarumlaut" unicode="&#x150;" horiz-adv-x="1069" 
d="M618 1776l-172 -295h-161l104 295h229zM905 1776l-172 -295h-162l105 295h229zM535 -25q-166 0 -279.5 91.5t-166 248t-52.5 367.5t52.5 367.5t166 248t279.5 91.5t279 -91.5t165.5 -247.5t52.5 -368t-52.5 -368t-165.5 -247.5t-279 -91.5zM535 295q129 0 129 387
t-129 387t-129 -387t129 -387z" />
    <glyph glyph-name="ohungarumlaut" unicode="&#x151;" horiz-adv-x="923" 
d="M547 1434l-172 -295h-162l104 295h230zM834 1434l-172 -295h-162l104 295h230zM461 -25q-106 0 -189 42t-134.5 115t-78 165.5t-26.5 198.5t26.5 198t78 164t134.5 114t189 42t190.5 -42t136 -114t78.5 -164t27 -198q0 -84 -16.5 -160t-51.5 -142.5t-85 -115t-121.5 -76
t-157.5 -27.5zM461 260q54 0 77 60.5t23 175.5q0 113 -23 173t-77 60q-53 0 -74.5 -59.5t-21.5 -173.5q0 -115 21.5 -175.5t74.5 -60.5z" />
    <glyph glyph-name="OE" unicode="&#x152;" horiz-adv-x="1374" 
d="M1335 0h-686v70q-29 -42 -84.5 -68.5t-109.5 -26.5q-140 0 -235 91.5t-139 247.5t-44 368q0 158 25.5 285.5t75.5 221.5t131 145.5t186 51.5q54 0 110 -25t84 -65v70h686v-315h-325v-201h311v-315h-311v-220h325v-315zM649 418v530q-18 61 -48 90t-64 29q-71 0 -101 -99
t-30 -286q0 -186 30 -286.5t101 -100.5q33 0 63.5 30.5t48.5 92.5z" />
    <glyph glyph-name="oe" unicode="&#x153;" horiz-adv-x="1419" 
d="M1393 387h-523q3 -66 45 -108.5t127 -42.5q88 0 166 75l142 -184q-65 -74 -158 -113t-186 -39q-94 0 -160 34t-119 104q-99 -138 -266 -138q-106 0 -189 42t-134.5 115t-78 165.5t-26.5 198.5t26.5 198t78 164t134.5 114t189 42q167 0 266 -135q100 135 262 135
q201 0 302.5 -140.5t101.5 -377.5v-109zM870 608h217q0 146 -108 146q-60 0 -84.5 -43t-24.5 -103zM561 496q0 114 -22.5 173.5t-77.5 59.5q-54 0 -75 -59t-21 -174q0 -116 21 -176t75 -60q55 0 77.5 60t22.5 176z" />
    <glyph glyph-name="Racute" unicode="&#x154;" horiz-adv-x="1044" 
d="M856 1776l-229 -295h-199l164 295h264zM997 0h-387l-116 455h-48v-455h-362v1366h475q185 0 305.5 -126.5t120.5 -315.5q0 -263 -162 -381zM500 770q54 0 86 37t32 102q0 67 -31.5 104.5t-86.5 37.5h-54v-281h54z" />
    <glyph glyph-name="racute" unicode="&#x155;" horiz-adv-x="632" 
d="M662 1434l-230 -295h-199l164 295h265zM395 0h-323v989h323v-119q24 57 92 101.5t123 44.5v-309q-32 8 -53 8q-40 0 -87 -24t-75 -64v-627z" />
    <glyph glyph-name="Rcommaaccent" unicode="&#x156;" horiz-adv-x="1044" 
d="M682 -285q0 -96 -48.5 -179.5t-133.5 -143.5l-103 82q41 22 82.5 67.5t52.5 87.5q-9 -6 -34 -6q-54 0 -89.5 36t-35.5 95q0 61 43.5 104.5t103.5 43.5q66 0 114 -51.5t48 -135.5zM997 0h-387l-116 455h-48v-455h-362v1366h475q185 0 305.5 -126.5t120.5 -315.5
q0 -263 -162 -381zM500 770q54 0 86 37t32 102q0 67 -31.5 104.5t-86.5 37.5h-54v-281h54z" />
    <glyph glyph-name="rcommaaccent" unicode="&#x157;" horiz-adv-x="632" 
d="M477 -285q0 -96 -48.5 -179.5t-133.5 -143.5l-102 82q41 22 82.5 67.5t52.5 87.5q-9 -6 -35 -6q-54 0 -89.5 36t-35.5 95q0 61 43.5 104.5t103.5 43.5q66 0 114 -51.5t48 -135.5zM395 0h-323v989h323v-119q24 57 92 101.5t123 44.5v-309q-32 8 -53 8q-40 0 -87 -24
t-75 -64v-627z" />
    <glyph glyph-name="Rcaron" unicode="&#x158;" horiz-adv-x="1044" 
d="M664 1481h-283l-127 295h172l96 -162l92 162h172zM997 0h-387l-116 455h-48v-455h-362v1366h475q185 0 305.5 -126.5t120.5 -315.5q0 -263 -162 -381zM500 770q54 0 86 37t32 102q0 67 -31.5 104.5t-86.5 37.5h-54v-281h54z" />
    <glyph glyph-name="rcaron" unicode="&#x159;" horiz-adv-x="632" 
d="M483 1139h-282l-127 295h172l96 -162l92 162h172zM395 0h-323v989h323v-119q24 57 92 101.5t123 44.5v-309q-32 8 -53 8q-40 0 -87 -24t-75 -64v-627z" />
    <glyph glyph-name="Sacute" unicode="&#x15a;" horiz-adv-x="894" 
d="M778 1776l-229 -295h-199l164 295h264zM420 -25q-257 0 -412 146l146 282q45 -53 110 -80.5t131 -27.5q46 0 71.5 25t25.5 63q0 34 -24.5 63t-64 52.5t-86.5 49t-94.5 61t-87 81t-64 116.5t-24.5 159q0 81 28.5 156t82.5 135.5t141.5 96.5t194.5 36q103 0 194.5 -32.5
t155.5 -92.5l-131 -279q-84 84 -205 84q-43 0 -67.5 -23.5t-24.5 -60.5q0 -32 24.5 -60t63.5 -52t86 -50.5t94 -63t86 -82t63.5 -114.5t24.5 -153q0 -194 -119.5 -314.5t-318.5 -120.5z" />
    <glyph glyph-name="sacute" unicode="&#x15b;" horiz-adv-x="782" 
d="M717 1434l-230 -295h-198l164 295h264zM381 -25q-125 0 -221.5 37.5t-151.5 96.5l123 221q45 -43 105 -73t114 -30q50 0 76.5 17t26.5 47q0 20 -22.5 34.5t-58.5 26t-79.5 25t-87 38t-79.5 58.5t-58.5 92t-22.5 133q0 63 23 119t67.5 100.5t117 70.5t163.5 26
q95 0 184 -33.5t158 -89.5l-123 -217q-32 32 -90.5 60t-122.5 28q-34 0 -57 -15t-23 -38q0 -21 31 -37.5t77.5 -28.5t100.5 -37t100.5 -58.5t77.5 -97.5t31 -149q0 -143 -105 -234.5t-274 -91.5z" />
    <glyph glyph-name="Scircumflex" unicode="&#x15c;" horiz-adv-x="894" 
d="M762 1481h-172l-98 161l-91 -161h-172l121 295h283zM420 -25q-257 0 -412 146l146 282q45 -53 110 -80.5t131 -27.5q46 0 71.5 25t25.5 63q0 34 -24.5 63t-64 52.5t-86.5 49t-94.5 61t-87 81t-64 116.5t-24.5 159q0 81 28.5 156t82.5 135.5t141.5 96.5t194.5 36
q103 0 194.5 -32.5t155.5 -92.5l-131 -279q-84 84 -205 84q-43 0 -67.5 -23.5t-24.5 -60.5q0 -32 24.5 -60t63.5 -52t86 -50.5t94 -63t86 -82t63.5 -114.5t24.5 -153q0 -194 -119.5 -314.5t-318.5 -120.5z" />
    <glyph glyph-name="scircumflex" unicode="&#x15d;" horiz-adv-x="782" 
d="M666 1139h-172l-99 161l-90 -161h-172l121 295h283zM381 -25q-125 0 -221.5 37.5t-151.5 96.5l123 221q45 -43 105 -73t114 -30q50 0 76.5 17t26.5 47q0 20 -22.5 34.5t-58.5 26t-79.5 25t-87 38t-79.5 58.5t-58.5 92t-22.5 133q0 63 23 119t67.5 100.5t117 70.5
t163.5 26q95 0 184 -33.5t158 -89.5l-123 -217q-32 32 -90.5 60t-122.5 28q-34 0 -57 -15t-23 -38q0 -21 31 -37.5t77.5 -28.5t100.5 -37t100.5 -58.5t77.5 -97.5t31 -149q0 -143 -105 -234.5t-274 -91.5z" />
    <glyph glyph-name="Scedilla" unicode="&#x15e;" horiz-adv-x="894" 
d="M414 -406q-53 0 -106 19.5t-89 48.5l55 117q68 -58 129 -58q33 0 52.5 15.5t19.5 42.5q0 18 -10 29.5t-27 11.5q-26 0 -47 -25l-108 62l45 123q-193 20 -320 141l146 282q45 -53 110 -80.5t131 -27.5q46 0 71.5 25t25.5 63q0 34 -24.5 63t-64 52.5t-86.5 49t-94.5 61
t-87 81t-64 116.5t-24.5 159q0 81 28.5 156t82.5 135.5t141.5 96.5t194.5 36q103 0 194.5 -32.5t155.5 -92.5l-131 -279q-84 84 -205 84q-43 0 -67.5 -23.5t-24.5 -60.5q0 -32 24.5 -60t63.5 -52t86 -50.5t94 -63t86 -82t63.5 -114.5t24.5 -153q0 -181 -104 -298t-281 -132
l-33 -80q30 18 60 18q55 0 91 -40.5t36 -104.5q0 -83 -59 -131t-154 -48z" />
    <glyph glyph-name="scedilla" unicode="&#x15f;" horiz-adv-x="782" 
d="M371 -406q-53 0 -106 19.5t-89 48.5l55 117q68 -58 129 -58q33 0 52.5 15.5t19.5 42.5q0 18 -10 29.5t-27 11.5q-26 0 -47 -25l-108 62l45 125q-92 13 -164 47t-113 80l123 221q45 -43 105 -73t114 -30q50 0 76.5 17t26.5 47q0 20 -22.5 34.5t-58.5 26t-79.5 25t-87 38
t-79.5 58.5t-58.5 92t-22.5 133q0 63 23 119t67.5 100.5t117 70.5t163.5 26q95 0 184 -33.5t158 -89.5l-123 -217q-32 32 -90.5 60t-122.5 28q-34 0 -57 -15t-23 -38q0 -21 31 -37.5t77.5 -28.5t100.5 -37t100.5 -58.5t77.5 -97.5t31 -149q0 -133 -90 -222t-240 -102
l-33 -77q30 18 60 18q55 0 91 -40.5t36 -104.5q0 -83 -59 -131t-154 -48z" />
    <glyph glyph-name="Scaron" unicode="&#x160;" horiz-adv-x="894" 
d="M639 1481h-283l-127 295h172l97 -162l92 162h172zM420 -25q-257 0 -412 146l146 282q45 -53 110 -80.5t131 -27.5q46 0 71.5 25t25.5 63q0 34 -24.5 63t-64 52.5t-86.5 49t-94.5 61t-87 81t-64 116.5t-24.5 159q0 81 28.5 156t82.5 135.5t141.5 96.5t194.5 36
q103 0 194.5 -32.5t155.5 -92.5l-131 -279q-84 84 -205 84q-43 0 -67.5 -23.5t-24.5 -60.5q0 -32 24.5 -60t63.5 -52t86 -50.5t94 -63t86 -82t63.5 -114.5t24.5 -153q0 -194 -119.5 -314.5t-318.5 -120.5z" />
    <glyph glyph-name="scaron" unicode="&#x161;" horiz-adv-x="782" 
d="M543 1139h-283l-127 295h172l96 -162l93 162h172zM381 -25q-125 0 -221.5 37.5t-151.5 96.5l123 221q45 -43 105 -73t114 -30q50 0 76.5 17t26.5 47q0 20 -22.5 34.5t-58.5 26t-79.5 25t-87 38t-79.5 58.5t-58.5 92t-22.5 133q0 63 23 119t67.5 100.5t117 70.5t163.5 26
q95 0 184 -33.5t158 -89.5l-123 -217q-32 32 -90.5 60t-122.5 28q-34 0 -57 -15t-23 -38q0 -21 31 -37.5t77.5 -28.5t100.5 -37t100.5 -58.5t77.5 -97.5t31 -149q0 -143 -105 -234.5t-274 -91.5z" />
    <glyph glyph-name="Tcommaaccent" unicode="&#x162;" horiz-adv-x="831" 
d="M578 -285q0 -96 -48.5 -179.5t-134.5 -143.5l-102 82q41 22 82.5 67.5t52.5 87.5q-9 -6 -35 -6q-54 0 -89.5 36t-35.5 95q0 61 44 104.5t104 43.5q66 0 114 -51.5t48 -135.5zM598 0h-362v1051h-199v315h758v-315h-197v-1051z" />
    <glyph glyph-name="tcommaaccent" unicode="&#x163;" horiz-adv-x="577" 
d="M449 -285q0 -96 -48.5 -179.5t-134.5 -143.5l-102 82q41 22 82.5 67.5t52.5 87.5q-9 -6 -35 -6q-54 0 -89.5 36t-35.5 95q0 61 44 104.5t104 43.5q66 0 114 -51.5t48 -135.5zM383 -25q-148 0 -212.5 71t-64.5 220v443h-83v280h83v271h324v-271h115v-280h-115v-373
q0 -76 45 -76q34 0 47 16l51 -258q-67 -43 -190 -43z" />
    <glyph glyph-name="Tcaron" unicode="&#x164;" horiz-adv-x="831" 
d="M559 1481h-283l-126 295h172l96 -162l92 162h172zM598 0h-362v1051h-199v315h758v-315h-197v-1051z" />
    <glyph glyph-name="tcaron" unicode="&#x165;" horiz-adv-x="577" 
d="M778 1403q0 -96 -48.5 -180t-133.5 -144l-102 82q41 22 82.5 68t52.5 88q-9 -6 -35 -6q-54 0 -89.5 36t-35.5 95q0 61 43.5 104t103.5 43q66 0 114 -51t48 -135zM383 -25q-148 0 -212.5 71t-64.5 220v443h-83v280h83v271h324v-271h115v-280h-115v-373q0 -76 45 -76
q34 0 47 16l51 -258q-67 -43 -190 -43z" />
    <glyph glyph-name="Tbar" unicode="&#x166;" horiz-adv-x="831" 
d="M598 0h-362v502h-134v178h134v371h-199v315h758v-315h-197v-371h131v-178h-131v-502z" />
    <glyph glyph-name="tbar" unicode="&#x167;" horiz-adv-x="577" 
d="M383 -25q-148 0 -212.5 71t-64.5 220v142h-83v178h83v123h-83v280h83v271h324v-271h115v-280h-115v-123h68v-178h-68v-72q0 -76 45 -76q34 0 47 16l51 -258q-67 -43 -190 -43z" />
    <glyph glyph-name="Utilde" unicode="&#x168;" horiz-adv-x="1089" 
d="M545 -25q-87 0 -167.5 27.5t-147 81.5t-106.5 145t-40 207v930h362v-948q0 -127 99 -127q98 0 98 127v948h363v-928q0 -94 -26.5 -172t-71 -131t-104 -90t-125 -53.5t-134.5 -16.5zM643 1477q-35 0 -64.5 17t-47 37t-37.5 37t-37 17q-49 0 -49 -96h-152q0 124 53.5 199
t145.5 75q35 0 64.5 -17t47 -38t37.5 -38t37 -17q49 0 49 98h152q0 -124 -53.5 -199t-145.5 -75z" />
    <glyph glyph-name="utilde" unicode="&#x169;" 
d="M874 0h-323v115q-30 -55 -102.5 -97.5t-143.5 -42.5q-120 0 -176.5 62t-56.5 170v782h323v-653q0 -76 60 -76q31 0 57 27t39 65v637h323v-989zM567 1135q-35 0 -64.5 17t-47 37t-37.5 37t-37 17q-49 0 -49 -96h-152q0 124 53.5 199t145.5 75q35 0 64.5 -17t47 -38
t37.5 -38t37 -17q49 0 49 98h152q0 -124 -53.5 -199t-145.5 -75z" />
    <glyph glyph-name="Umacron" unicode="&#x16a;" horiz-adv-x="1089" 
d="M545 -25q-87 0 -167.5 27.5t-147 81.5t-106.5 145t-40 207v930h362v-948q0 -127 99 -127q98 0 98 127v948h363v-928q0 -94 -26.5 -172t-71 -131t-104 -90t-125 -53.5t-134.5 -16.5zM819 1479h-549v178h549v-178z" />
    <glyph glyph-name="umacron" unicode="&#x16b;" 
d="M874 0h-323v115q-30 -55 -102.5 -97.5t-143.5 -42.5q-120 0 -176.5 62t-56.5 170v782h323v-653q0 -76 60 -76q31 0 57 27t39 65v637h323v-989zM748 1137h-549v178h549v-178z" />
    <glyph glyph-name="Ubreve" unicode="&#x16c;" horiz-adv-x="1089" 
d="M545 -25q-87 0 -167.5 27.5t-147 81.5t-106.5 145t-40 207v930h362v-948q0 -127 99 -127q98 0 98 127v948h363v-928q0 -94 -26.5 -172t-71 -131t-104 -90t-125 -53.5t-134.5 -16.5zM811 1577q-44 -63 -113 -98t-151 -35q-79 0 -148.5 35t-115.5 98l143 106
q44 -63 121 -63t121 63z" />
    <glyph glyph-name="ubreve" unicode="&#x16d;" 
d="M874 0h-323v115q-30 -55 -102.5 -97.5t-143.5 -42.5q-120 0 -176.5 62t-56.5 170v782h323v-653q0 -76 60 -76q31 0 57 27t39 65v637h323v-989zM739 1235q-44 -63 -113 -98t-151 -35q-79 0 -148.5 35t-115.5 98l143 106q44 -63 121 -63t121 63z" />
    <glyph glyph-name="Uring" unicode="&#x16e;" horiz-adv-x="1089" 
d="M547 1407q-79 0 -137 57.5t-58 137.5q0 81 57.5 137.5t137.5 56.5t135 -56t55 -138q0 -80 -55.5 -137.5t-134.5 -57.5zM547 1538q26 0 43.5 18.5t17.5 45.5q0 28 -17.5 46.5t-43.5 18.5q-27 0 -45.5 -18.5t-18.5 -46.5q0 -26 19 -45t45 -19zM545 -25q-87 0 -167.5 27.5
t-147 81.5t-106.5 145t-40 207v930h362v-948q0 -127 99 -127q98 0 98 127v948h363v-928q0 -94 -26.5 -172t-71 -131t-104 -90t-125 -53.5t-134.5 -16.5z" />
    <glyph glyph-name="uring" unicode="&#x16f;" 
d="M473 1079q-79 0 -136.5 57.5t-57.5 137.5q0 81 57 137.5t137 56.5t135.5 -56t55.5 -138q0 -80 -56 -137.5t-135 -57.5zM473 1210q26 0 44 19t18 45q0 28 -18 46.5t-44 18.5t-44.5 -18.5t-18.5 -46.5q0 -26 18.5 -45t44.5 -19zM874 0h-323v115q-30 -55 -102.5 -97.5
t-143.5 -42.5q-120 0 -176.5 62t-56.5 170v782h323v-653q0 -76 60 -76q31 0 57 27t39 65v637h323v-989z" />
    <glyph glyph-name="Uhungarumlaut" unicode="&#x170;" horiz-adv-x="1089" 
d="M545 -25q-87 0 -167.5 27.5t-147 81.5t-106.5 145t-40 207v930h362v-948q0 -127 99 -127q98 0 98 127v948h363v-928q0 -94 -26.5 -172t-71 -131t-104 -90t-125 -53.5t-134.5 -16.5zM629 1776l-172 -295h-162l104 295h230zM915 1776l-172 -295h-161l104 295h229z" />
    <glyph glyph-name="uhungarumlaut" unicode="&#x171;" 
d="M874 0h-323v115q-30 -55 -102.5 -97.5t-143.5 -42.5q-120 0 -176.5 62t-56.5 170v782h323v-653q0 -76 60 -76q31 0 57 27t39 65v637h323v-989zM557 1434l-172 -295h-162l105 295h229zM844 1434l-172 -295h-162l104 295h230z" />
    <glyph glyph-name="Uogonek" unicode="&#x172;" horiz-adv-x="1089" 
d="M686 -207l121 -65q-51 -109 -166 -109q-86 0 -136 45.5t-50 134.5q0 97 55 178q-83 5 -157.5 34.5t-135.5 83.5t-97 142t-36 199v930h362v-948q0 -127 99 -127q98 0 98 127v948h363v-928q0 -174 -84 -285.5t-217 -152.5q-49 -37 -75 -88.5t-26 -99.5q0 -66 39 -66
q30 0 43 47z" />
    <glyph glyph-name="uogonek" unicode="&#x173;" 
d="M874 0q-49 -36 -74.5 -87.5t-25.5 -100.5q0 -66 39 -66q30 0 43 47l121 -65q-51 -109 -166 -109q-86 0 -136 45.5t-50 134.5q0 111 73 201h-147v115q-30 -55 -102.5 -97.5t-143.5 -42.5q-120 0 -176.5 62t-56.5 170v782h323v-653q0 -76 60 -76q31 0 57 27t39 65v637h323
v-989z" />
    <glyph glyph-name="Wcircumflex" unicode="&#x174;" horiz-adv-x="1400" 
d="M967 1481h-172l-99 161l-90 -161h-172l121 295h283zM1143 0h-361l-82 709l-84 -709h-358l-250 1366h365l82 -741l108 741h275l110 -741l80 741h365z" />
    <glyph glyph-name="wcircumflex" unicode="&#x175;" horiz-adv-x="1380" 
d="M958 1139h-172l-98 161l-90 -161h-172l121 295h282zM1147 0h-340l-117 551l-117 -551h-340l-239 989h332l104 -559l100 559h299l121 -559l103 559h333z" />
    <glyph glyph-name="Ycircumflex" unicode="&#x176;" horiz-adv-x="1001" 
d="M768 1481h-172l-98 161l-90 -161h-172l120 295h283zM682 0h-363v551l-333 815h381l133 -475l135 475h381l-334 -815v-551z" />
    <glyph glyph-name="ycircumflex" unicode="&#x177;" horiz-adv-x="890" 
d="M96 -385l45 279q18 -11 41 -11q66 0 80 49l17 50l-291 1007h340l116 -581l119 581h340l-325 -1120q-45 -156 -124 -213t-223 -57q-92 0 -135 16zM713 1139h-172l-99 161l-90 -161h-172l121 295h283z" />
    <glyph glyph-name="Ydieresis" unicode="&#x178;" horiz-adv-x="1001" 
d="M856 1602q0 -69 -48.5 -116.5t-117.5 -47.5q-68 0 -116 47.5t-48 116.5t48 116t116 47q69 0 117.5 -47t48.5 -116zM475 1602q0 -68 -47.5 -116t-116.5 -48q-67 0 -115.5 48t-48.5 116q0 67 48 115t116 48q69 0 116.5 -47.5t47.5 -115.5zM682 0h-363v551l-333 815h381
l133 -475l135 475h381l-334 -815v-551z" />
    <glyph glyph-name="Zacute" unicode="&#x179;" horiz-adv-x="843" 
d="M743 1776l-229 -295h-199l164 295h264zM791 0h-738v301l314 750h-314v315h723v-289l-321 -762h336v-315z" />
    <glyph glyph-name="zacute" unicode="&#x17a;" horiz-adv-x="753" 
d="M698 1434l-229 -295h-199l164 295h264zM715 0h-676v238l276 471h-276v280h668v-227l-281 -481h289v-281z" />
    <glyph glyph-name="Zdotaccent" unicode="&#x17b;" horiz-adv-x="843" 
d="M791 0h-738v301l314 750h-314v315h723v-289l-321 -762h336v-315zM418 1440q-67 0 -115.5 47.5t-48.5 114.5t49 115t115 48q68 0 116 -48t48 -115t-48 -114.5t-116 -47.5z" />
    <glyph glyph-name="zdotaccent" unicode="&#x17c;" horiz-adv-x="753" 
d="M715 0h-676v238l276 471h-276v280h668v-227l-281 -481h289v-281zM373 1098q-67 0 -115.5 47.5t-48.5 114.5t49 115t115 48q68 0 116 -48t48 -115t-48 -114.5t-116 -47.5z" />
    <glyph glyph-name="Zcaron" unicode="&#x17d;" horiz-adv-x="843" 
d="M565 1481h-282l-127 295h172l96 -162l92 162h172zM791 0h-738v301l314 750h-314v315h723v-289l-321 -762h336v-315z" />
    <glyph glyph-name="zcaron" unicode="&#x17e;" horiz-adv-x="753" 
d="M514 1139h-283l-127 295h172l97 -162l92 162h172zM715 0h-676v238l276 471h-276v280h668v-227l-281 -481h289v-281z" />
    <glyph glyph-name="longs" unicode="&#x17f;" horiz-adv-x="563" 
d="M430 0h-324v709h-83v280h83v39q0 175 81.5 266.5t240.5 91.5q131 0 203 -53l-68 -246q-27 27 -63 27q-34 0 -52 -22.5t-18 -63.5v-1028z" />
    <glyph glyph-name="florin" unicode="&#x192;" horiz-adv-x="882" 
d="M377 -330h-367l174 801h-75v281h139l69 323q32 138 143.5 224.5t246.5 86.5q128 0 196 -45l-86 -290q-23 20 -57 20q-35 0 -59 -25t-33 -69l-50 -225h138v-281h-201z" />
    <glyph glyph-name="Ohorn" unicode="&#x1a0;" horiz-adv-x="1069" 
d="M535 -25q-166 0 -279.5 91.5t-166 248t-52.5 367.5t52.5 367.5t166 248t279.5 91.5q241 0 372 -193q51 47 62 94q-6 -6 -31 -6q-47 0 -78 32.5t-31 84.5q0 54 37 91.5t90 37.5q60 0 103 -45t43 -119q0 -157 -141 -272q71 -164 71 -412q0 -212 -52.5 -368t-165.5 -247.5
t-279 -91.5zM535 295q129 0 129 387t-129 387t-129 -387t129 -387z" />
    <glyph glyph-name="ohorn" unicode="&#x1a1;" horiz-adv-x="923" 
d="M920 1092q0 -143 -121 -254q94 -137 94 -342q0 -84 -16.5 -160t-51.5 -142.5t-85 -115t-121.5 -76t-157.5 -27.5q-106 0 -189 42t-134.5 115t-78 165.5t-26.5 198.5t26.5 198t78 164t134.5 114t189 42q154 0 264 -92q50 50 61 94q-6 -6 -30 -6q-47 0 -78 32t-31 84
q0 54 37 91.5t90 37.5q60 0 103 -44.5t43 -118.5zM461 260q54 0 77 60.5t23 175.5q0 113 -23 173t-77 60q-53 0 -74.5 -59.5t-21.5 -173.5q0 -115 21.5 -175.5t74.5 -60.5z" />
    <glyph glyph-name="Uhorn" unicode="&#x1af;" horiz-adv-x="1089" 
d="M1204 1487q0 -88 -50 -170.5t-148 -140.5v-738q0 -94 -26.5 -172t-71 -131t-104 -90t-125 -53.5t-134.5 -16.5q-87 0 -167.5 27.5t-147 81.5t-106.5 145t-40 207v930h362v-948q0 -127 99 -127q98 0 98 127v948h363v-55q49 46 65 98q-8 -4 -31 -4q-47 0 -77.5 31.5
t-30.5 83.5q0 54 37.5 92.5t89.5 38.5q60 0 102.5 -45t42.5 -119z" />
    <glyph glyph-name="uhorn" unicode="&#x1b0;" 
d="M874 0h-323v115q-30 -55 -102.5 -97.5t-143.5 -42.5q-120 0 -176.5 62t-56.5 170v782h323v-653q0 -76 60 -76q31 0 57 27t39 65v637h278q25 36 33 62q-10 -7 -33 -7q-46 0 -77 32.5t-31 84.5q0 54 37 91.5t90 37.5q61 0 103 -45t42 -119q0 -142 -119 -252v-874z" />
    <glyph glyph-name="AEacute" unicode="&#x1fc;" horiz-adv-x="1349" 
d="M1135 1776l-230 -295h-198l163 295h265zM1311 0h-686v190h-211l-54 -190h-368l475 1366h844v-315h-326v-201h311v-315h-311v-220h326v-315zM625 506v467l-127 -467h127z" />
    <glyph glyph-name="aeacute" unicode="&#x1fd;" horiz-adv-x="1392" 
d="M1010 1434l-230 -295h-198l163 295h265zM1366 387h-524q5 -68 47 -109.5t125 -41.5q91 0 166 75l143 -184q-67 -74 -159 -113t-185 -39q-96 0 -162.5 34t-122.5 108q-43 -45 -80 -72.5t-100 -48.5t-143 -21q-147 0 -243.5 85.5t-96.5 236.5t79.5 237.5t202.5 86.5
q63 0 128 -30t94 -81v86q0 65 -39 105t-107 40q-97 0 -207 -92l-110 225q65 69 173.5 104.5t192.5 35.5q98 0 160.5 -27t99.5 -84q100 111 277 111q129 0 218 -67.5t131 -182.5t42 -268v-109zM842 608h217q0 146 -107 146q-42 0 -68 -24t-34 -54t-8 -68zM535 326v18
q-27 66 -103 66q-42 0 -68 -27t-26 -68q0 -94 94 -94q43 0 73 32.5t30 72.5z" />
    <glyph glyph-name="Oslashacute" unicode="&#x1fe;" horiz-adv-x="1069" 
d="M856 1776l-229 -295h-199l164 295h264zM535 -25q-144 0 -250 70l-25 -45h-194l94 172q-123 183 -123 510q0 211 52.5 367.5t166 248t279.5 91.5q143 0 249 -70l27 47h195l-97 -174q123 -183 123 -510q0 -212 -52.5 -368t-165.5 -247.5t-279 -91.5zM406 682v-57l210 385
q-30 59 -81 59q-129 0 -129 -387zM535 295q129 0 129 387q0 9 -1 27.5t-1 27.5l-209 -385q28 -57 82 -57z" />
    <glyph glyph-name="oslashacute" unicode="&#x1ff;" horiz-adv-x="923" 
d="M782 1434l-229 -295h-199l164 295h264zM211 0h-168l92 135q-102 137 -102 361q0 106 26.5 198t78 164t134.5 114t189 42q127 0 227 -64l27 39h166l-93 -135q105 -141 105 -358q0 -84 -16.5 -160t-51.5 -142.5t-85 -115t-121.5 -76t-157.5 -27.5q-128 0 -225 62zM461 260
q54 0 77 60.5t23 175.5v20l-155 -229q21 -27 55 -27zM365 496v-23l153 227q-23 29 -57 29q-53 0 -74.5 -59.5t-21.5 -173.5z" />
    <glyph glyph-name="Scommaaccent" unicode="&#x218;" horiz-adv-x="894" 
d="M606 -285q0 -96 -48.5 -179.5t-133.5 -143.5l-102 82q41 22 82.5 67.5t52.5 87.5q-9 -6 -35 -6q-54 0 -89.5 36t-35.5 95q0 61 43.5 104.5t103.5 43.5q66 0 114 -51.5t48 -135.5zM420 -25q-257 0 -412 146l146 282q45 -53 110 -80.5t131 -27.5q46 0 71.5 25t25.5 63
q0 34 -24.5 63t-64 52.5t-86.5 49t-94.5 61t-87 81t-64 116.5t-24.5 159q0 81 28.5 156t82.5 135.5t141.5 96.5t194.5 36q103 0 194.5 -32.5t155.5 -92.5l-131 -279q-84 84 -205 84q-43 0 -67.5 -23.5t-24.5 -60.5q0 -32 24.5 -60t63.5 -52t86 -50.5t94 -63t86 -82
t63.5 -114.5t24.5 -153q0 -194 -119.5 -314.5t-318.5 -120.5z" />
    <glyph glyph-name="scommaaccent" unicode="&#x219;" horiz-adv-x="782" 
d="M559 -285q0 -96 -48.5 -179.5t-133.5 -143.5l-103 82q41 22 83 67.5t53 87.5q-9 -6 -35 -6q-54 0 -89.5 36t-35.5 95q0 61 43.5 104.5t103.5 43.5q66 0 114 -51.5t48 -135.5zM381 -25q-125 0 -221.5 37.5t-151.5 96.5l123 221q45 -43 105 -73t114 -30q50 0 76.5 17
t26.5 47q0 20 -22.5 34.5t-58.5 26t-79.5 25t-87 38t-79.5 58.5t-58.5 92t-22.5 133q0 63 23 119t67.5 100.5t117 70.5t163.5 26q95 0 184 -33.5t158 -89.5l-123 -217q-32 32 -90.5 60t-122.5 28q-34 0 -57 -15t-23 -38q0 -21 31 -37.5t77.5 -28.5t100.5 -37t100.5 -58.5
t77.5 -97.5t31 -149q0 -143 -105 -234.5t-274 -91.5z" />
    <glyph glyph-name="uni021A" unicode="&#x21a;" horiz-adv-x="831" 
d="M578 -285q0 -96 -48.5 -179.5t-134.5 -143.5l-102 82q41 22 82.5 67.5t52.5 87.5q-9 -6 -35 -6q-54 0 -89.5 36t-35.5 95q0 61 44 104.5t104 43.5q66 0 114 -51.5t48 -135.5zM598 0h-362v1051h-199v315h758v-315h-197v-1051z" />
    <glyph glyph-name="uni021B" unicode="&#x21b;" horiz-adv-x="577" 
d="M449 -285q0 -96 -48.5 -179.5t-134.5 -143.5l-102 82q41 22 82.5 67.5t52.5 87.5q-9 -6 -35 -6q-54 0 -89.5 36t-35.5 95q0 61 44 104.5t104 43.5q66 0 114 -51.5t48 -135.5zM383 -25q-148 0 -212.5 71t-64.5 220v443h-83v280h83v271h324v-271h115v-280h-115v-373
q0 -76 45 -76q34 0 47 16l51 -258q-67 -43 -190 -43z" />
    <glyph glyph-name="uni0237" unicode="&#x237;" horiz-adv-x="466" 
d="M35 -401q-81 0 -127 32l53 267q19 -15 47 -15q64 0 64 90v1016h323v-1016q0 -185 -83 -279.5t-277 -94.5z" />
    <glyph glyph-name="hsuperior" unicode="&#x2b0;" horiz-adv-x="681" 
d="M623 668h-228v411q0 49 -45 49q-37 0 -63 -55v-405h-228v888h228v-319q24 35 72.5 62.5t99.5 27.5q75 0 119.5 -39t44.5 -121v-499z" />
    <glyph glyph-name="uni02BC" unicode="&#x2bc;" horiz-adv-x="559" 
d="M485 1145q0 -125 -62.5 -233.5t-174.5 -186.5l-133 109q52 26 104.5 83t69.5 111q-24 -6 -47 -6q-67 0 -113.5 48.5t-46.5 123.5q0 79 56 135.5t134 56.5q89 0 151 -65.5t62 -175.5z" />
    <glyph glyph-name="circumflex" unicode="&#x2c6;" horiz-adv-x="532" 
d="M532 1139h-172l-98 161l-90 -161h-172l121 295h282z" />
    <glyph glyph-name="caron" unicode="&#x2c7;" horiz-adv-x="532" 
d="M410 1139h-283l-127 295h172l96 -162l92 162h172z" />
    <glyph glyph-name="uni02C9" unicode="&#x2c9;" horiz-adv-x="548" 
d="M549 1210h-549v176h549v-176z" />
    <glyph glyph-name="uni02CB" unicode="&#x2cb;" horiz-adv-x="428" 
d="M428 1139h-199l-229 295h264z" />
    <glyph glyph-name="breve" unicode="&#x2d8;" horiz-adv-x="528" 
d="M528 1235q-44 -63 -113 -98t-151 -35q-79 0 -148.5 35t-115.5 98l143 106q44 -63 121 -63t121 63z" />
    <glyph glyph-name="dotaccent" unicode="&#x2d9;" horiz-adv-x="430" 
d="M215 1098q-67 0 -115.5 47.5t-48.5 114.5t49 115t115 48q68 0 116 -48t48 -115t-48 -114.5t-116 -47.5z" />
    <glyph glyph-name="ring" unicode="&#x2da;" horiz-adv-x="385" 
d="M195 1079q-79 0 -137 57.5t-58 137.5q0 81 57.5 137.5t137.5 56.5t135 -56t55 -138q0 -80 -55.5 -137.5t-134.5 -57.5zM195 1210q26 0 43.5 18.5t17.5 45.5q0 28 -17.5 46.5t-43.5 18.5q-27 0 -45.5 -18.5t-18.5 -46.5q0 -26 19 -45t45 -19z" />
    <glyph glyph-name="ogonek" unicode="&#x2db;" horiz-adv-x="352" 
d="M231 -207l121 -65q-51 -109 -166 -109q-86 0 -136 45.5t-50 134.5q0 150 143 271l107 -70q-49 -36 -74.5 -87.5t-25.5 -100.5q0 -66 38 -66q30 0 43 47z" />
    <glyph glyph-name="tilde" unicode="&#x2dc;" horiz-adv-x="585" 
d="M387 1135q-35 0 -64.5 17t-47 37t-37.5 37t-37 17q-49 0 -49 -96h-152q0 124 53.5 199t145.5 75q35 0 64.5 -17t47 -38t37.5 -38t37 -17q49 0 49 98h152q0 -124 -53.5 -199t-145.5 -75z" />
    <glyph glyph-name="hungarumlaut" unicode="&#x2dd;" horiz-adv-x="620" 
d="M334 1434l-172 -295h-162l104 295h230zM621 1434l-172 -295h-162l104 295h230z" />
    <glyph glyph-name="hookabovecomb" unicode="&#x309;" horiz-adv-x="352" 
d="M141 1479l-112 18q12 58 51.5 89.5t97.5 31.5q62 0 99.5 -36.5t37.5 -108.5q0 -53 -24 -107h-115q29 48 29 98q0 26 -9.5 40t-23.5 14q-11 0 -19.5 -11t-11.5 -28z" />
    <glyph glyph-name="uni037E" unicode="&#x37e;" horiz-adv-x="552" 
d="M274 610q-79 0 -136.5 59.5t-57.5 139.5t57.5 137.5t136.5 57.5q80 0 138.5 -58t58.5 -137q0 -80 -59 -139.5t-138 -59.5zM483 127q0 -125 -62 -232.5t-175 -187.5l-133 109q52 26 104.5 83.5t69.5 112.5q-16 -8 -47 -8q-67 0 -113.5 48.5t-46.5 123.5q0 79 56 136
t134 57q89 0 151 -65.5t62 -176.5z" />
    <glyph glyph-name="tonos" unicode="&#x384;" horiz-adv-x="493" 
d="M365 1118h-138l45 449h248z" />
    <glyph glyph-name="dieresistonos" unicode="&#x385;" 
d="M502 1118h-135l43 449h249zM956 1260q0 -69 -48 -116.5t-117 -47.5q-68 0 -116 47.5t-48 116.5t48 116t116 47q69 0 117 -47t48 -116zM317 1260q0 -68 -47 -116t-114 -48q-68 0 -116 48t-48 116q0 67 48 115t116 48q67 0 114 -47.5t47 -115.5z" />
    <glyph glyph-name="Alphatonos" unicode="&#x386;" horiz-adv-x="991" 
d="M150 1118h-138l45 449h248zM1004 0h-371l-29 190h-219l-27 -190h-370l299 1366h415zM563 506l-67 467l-68 -467h135z" />
    <glyph glyph-name="Epsilontonos" unicode="&#x388;" horiz-adv-x="989" 
d="M133 1118h-137l45 449h248zM932 0h-688v1366h688v-315h-326v-201h312v-315h-312v-220h326v-315z" />
    <glyph glyph-name="Etatonos" unicode="&#x389;" horiz-adv-x="1249" 
d="M133 1118h-137l45 449h248zM1163 0h-360v545h-197v-545h-362v1366h362v-506h197v506h360v-1366z" />
    <glyph glyph-name="Iotatonos" unicode="&#x38a;" horiz-adv-x="690" 
d="M133 1118h-137l45 449h248zM606 0h-362v1366h362v-1366z" />
    <glyph glyph-name="Omicrontonos" unicode="&#x38c;" horiz-adv-x="1140" 
d="M141 1118h-137l45 449h248zM608 -25q-166 0 -279 91.5t-165.5 247.5t-52.5 368t52.5 368t165.5 247.5t279 91.5t279.5 -91.5t166 -248t52.5 -367.5t-52.5 -367.5t-166 -248t-279.5 -91.5zM608 295q129 0 129 387t-129 387t-129 -387t129 -387z" />
    <glyph glyph-name="Upsilontonos" unicode="&#x38e;" horiz-adv-x="1253" 
d="M131 1118h-137l45 449h248zM934 0h-363v551l-333 815h380l134 -475l135 475h381l-334 -815v-551z" />
    <glyph glyph-name="Omegatonos" unicode="&#x38f;" horiz-adv-x="1150" 
d="M141 1118h-137l45 449h248zM145 315h164q-186 171 -186 453q0 185 52.5 322t165.5 218t277 81q245 0 371.5 -168.5t126.5 -452.5q0 -278 -190 -453h168v-315h-426v315q38 39 60 153.5t22 213.5q0 385 -132 385q-129 0 -129 -385q0 -100 21.5 -214t58.5 -153v-315h-424
v315z" />
    <glyph glyph-name="iotadieresistonos" unicode="&#x390;" horiz-adv-x="497" 
d="M279 1118h-136l43 449h250zM733 1260q0 -69 -48.5 -116.5t-117.5 -47.5q-68 0 -116 47.5t-48 116.5t48 116t116 47q69 0 117.5 -47t48.5 -116zM94 1260q0 -68 -47.5 -116t-114.5 -48t-115 48t-48 116t47.5 115.5t115.5 47.5q67 0 114.5 -47.5t47.5 -115.5zM348 -25
q-148 0 -212 70.5t-64 220.5v723h323v-674q0 -55 45 -55q13 0 29 4l23 -268q-65 -21 -144 -21z" />
    <glyph glyph-name="Alpha" unicode="&#x391;" horiz-adv-x="991" 
d="M1004 0h-371l-29 190h-219l-27 -190h-370l299 1366h415zM563 506l-67 467l-68 -467h135z" />
    <glyph glyph-name="Beta" unicode="&#x392;" horiz-adv-x="1028" 
d="M631 0h-547v1366h528q95 0 167 -30t113 -81t61 -110.5t20 -126.5q0 -124 -61.5 -206.5t-161.5 -106.5q106 -17 173.5 -111t67.5 -223q0 -77 -20 -141.5t-61 -117t-112.5 -82.5t-166.5 -30zM510 850q49 0 71.5 23.5t22.5 76.5q0 101 -94 101h-64v-201h64zM518 315
q105 0 105 111q0 53 -28.5 81t-76.5 28h-72v-220h72z" />
    <glyph glyph-name="Gamma" unicode="&#x393;" horiz-adv-x="819" 
d="M446 0h-362v1366h688v-315h-326v-1051z" />
    <glyph glyph-name="uni0394" unicode="&#x394;" horiz-adv-x="1003" 
d="M1016 0h-1028l305 1366h416zM598 315l-96 658l-99 -658h195z" />
    <glyph glyph-name="Epsilon" unicode="&#x395;" horiz-adv-x="829" 
d="M772 0h-688v1366h688v-315h-326v-201h312v-315h-312v-220h326v-315z" />
    <glyph glyph-name="Zeta" unicode="&#x396;" horiz-adv-x="843" 
d="M791 0h-738v301l314 750h-314v315h723v-289l-321 -762h336v-315z" />
    <glyph glyph-name="Eta" unicode="&#x397;" horiz-adv-x="1089" 
d="M1004 0h-361v545h-197v-545h-362v1366h362v-506h197v506h361v-1366z" />
    <glyph glyph-name="Theta" unicode="&#x398;" horiz-adv-x="1069" 
d="M625 535h-181v315h181v-315zM535 -25q-166 0 -279.5 91.5t-166 248t-52.5 367.5t52.5 367.5t166 248t279.5 91.5t279 -91.5t165.5 -247.5t52.5 -368t-52.5 -368t-165.5 -247.5t-279 -91.5zM535 295q129 0 129 387t-129 387t-129 -387t129 -387z" />
    <glyph glyph-name="Iota" unicode="&#x399;" horiz-adv-x="530" 
d="M446 0h-362v1366h362v-1366z" />
    <glyph glyph-name="Kappa" unicode="&#x39a;" horiz-adv-x="1073" 
d="M1083 0h-405l-154 451l-78 -170v-281h-362v1366h362v-553l222 553h393l-320 -637z" />
    <glyph glyph-name="Lambda" unicode="&#x39b;" horiz-adv-x="991" 
d="M1004 0h-371l-137 973l-138 -973h-370l299 1366h415z" />
    <glyph glyph-name="Mu" unicode="&#x39c;" horiz-adv-x="1382" 
d="M1296 0h-356v657l-192 -657h-113l-189 657v-657h-362v1366h448l158 -549l166 549h440v-1366z" />
    <glyph glyph-name="Nu" unicode="&#x39d;" horiz-adv-x="1089" 
d="M1004 0h-336l-222 567v-567h-362v1366h362l197 -532v532h361v-1366z" />
    <glyph glyph-name="Xi" unicode="&#x39e;" horiz-adv-x="872" 
d="M815 1051h-758v315h758v-315zM815 0h-758v315h758v-315zM801 535h-729v315h729v-315z" />
    <glyph glyph-name="Omicron" unicode="&#x39f;" horiz-adv-x="1069" 
d="M535 -25q-166 0 -279.5 91.5t-166 248t-52.5 367.5t52.5 367.5t166 248t279.5 91.5t279 -91.5t165.5 -247.5t52.5 -368t-52.5 -368t-165.5 -247.5t-279 -91.5zM535 295q129 0 129 387t-129 387t-129 -387t129 -387z" />
    <glyph glyph-name="Pi" unicode="&#x3a0;" horiz-adv-x="1089" 
d="M1004 0h-361v1051h-197v-1051h-362v1366h920v-1366z" />
    <glyph glyph-name="Rho" unicode="&#x3a1;" horiz-adv-x="1015" 
d="M446 0h-362v1366h457q111 0 197.5 -37.5t139.5 -101.5t80 -145t27 -173t-27 -172.5t-80 -144t-139.5 -100.5t-197.5 -37h-95v-455zM500 770q55 0 86.5 37t31.5 104q0 66 -32 103t-86 37h-54v-281h54z" />
    <glyph glyph-name="Sigma" unicode="&#x3a3;" horiz-adv-x="817" 
d="M434 1051l219 -353l-231 -383h344v-315h-709v330l224 372l-224 349v315h709v-315h-332z" />
    <glyph glyph-name="Tau" unicode="&#x3a4;" horiz-adv-x="831" 
d="M598 0h-362v1051h-199v315h758v-315h-197v-1051z" />
    <glyph glyph-name="Upsilon" unicode="&#x3a5;" horiz-adv-x="1001" 
d="M682 0h-363v551l-333 815h381l133 -475l135 475h381l-334 -815v-551z" />
    <glyph glyph-name="Phi" unicode="&#x3a6;" horiz-adv-x="1486" 
d="M924 0h-361v143q-261 37 -393.5 180t-132.5 359t132.5 359t393.5 180v145h361v-145q261 -37 393.5 -180t132.5 -359t-132.5 -359t-393.5 -180v-143zM1083 682q0 158 -159 209v-418q159 48 159 209zM406 682q0 -161 157 -209v418q-157 -51 -157 -209z" />
    <glyph glyph-name="Chi" unicode="&#x3a7;" horiz-adv-x="1042" 
d="M1055 0h-398l-137 391l-135 -391h-397l323 698l-307 668h397l119 -369l119 369h397l-307 -666z" />
    <glyph glyph-name="Psi" unicode="&#x3a8;" horiz-adv-x="1568" 
d="M965 0h-361v268q-107 17 -198 54.5t-164.5 96t-115.5 144.5t-42 191v612h367v-608q0 -131 153 -170v778h361v-778q153 43 153 170v608h367v-610q0 -105 -42 -192t-116 -145t-164.5 -95.5t-197.5 -55.5v-268z" />
    <glyph glyph-name="uni03A9" unicode="&#x3a9;" horiz-adv-x="1062" 
d="M57 315h164q-186 171 -186 453q0 185 52.5 322t165.5 218t277 81q245 0 371.5 -168.5t126.5 -452.5q0 -278 -190 -453h168v-315h-426v315q38 39 60 153.5t22 213.5q0 385 -132 385q-129 0 -129 -385q0 -100 21.5 -214t58.5 -153v-315h-424v315z" />
    <glyph glyph-name="Iotadieresis" unicode="&#x3aa;" horiz-adv-x="530" 
d="M446 0h-362v1366h362v-1366zM621 1636q0 -69 -48.5 -116t-117.5 -47q-68 0 -116 47t-48 116t48 116.5t116 47.5q69 0 117.5 -47.5t48.5 -116.5zM240 1636q0 -68 -47.5 -115.5t-116.5 -47.5q-68 0 -116 48t-48 115q0 68 48 116t116 48q69 0 116.5 -48t47.5 -116z" />
    <glyph glyph-name="Upsilondieresis" unicode="&#x3ab;" horiz-adv-x="1001" 
d="M682 0h-363v551l-333 815h381l133 -475l135 475h381l-334 -815v-551zM854 1636q0 -69 -48.5 -116t-117.5 -47q-68 0 -116 47t-48 116t48 116.5t116 47.5q69 0 117.5 -47.5t48.5 -116.5zM473 1636q0 -68 -47.5 -115.5t-116.5 -47.5q-68 0 -116 48t-48 115q0 68 48.5 116
t115.5 48q69 0 116.5 -48t47.5 -116z" />
    <glyph glyph-name="alphatonos" unicode="&#x3ac;" horiz-adv-x="976" 
d="M528 1118h-137l45 449h248zM946 264l25 -268q-65 -21 -146 -21q-122 0 -178.5 42.5t-81.5 121.5q-27 -72 -86.5 -118t-128.5 -46q-152 0 -234.5 135.5t-82.5 385.5q0 243 83 380.5t234 137.5q61 0 116.5 -33.5t84.5 -101.5v110h321v-674q0 -55 46 -55q16 0 28 4zM465 260
q53 0 86 74v323q-33 70 -86 70q-103 0 -103 -231q0 -236 103 -236z" />
    <glyph glyph-name="epsilontonos" unicode="&#x3ad;" horiz-adv-x="829" 
d="M453 1118h-138l45 449h248zM426 -25q-174 0 -284.5 82t-110.5 217q0 88 60.5 154.5t160.5 81.5q-86 12 -146.5 80t-60.5 147q0 135 112 206t308 71q205 0 346 -144l-143 -194q-80 80 -203 80q-113 0 -113 -68q0 -61 113 -61h170v-256h-184q-27 0 -43.5 -1.5t-35 -7.5
t-27.5 -19.5t-9 -35.5q0 -35 27.5 -54.5t78.5 -19.5q157 0 236 86l143 -192q-137 -152 -395 -152z" />
    <glyph glyph-name="etatonos" unicode="&#x3ae;" 
d="M512 1118h-137l45 449h248zM874 -377h-323v1026q0 80 -59 80q-31 0 -57 -29t-40 -67v-633h-323v989h323v-119q28 55 102 99.5t144 44.5q120 0 176.5 -64t56.5 -172v-1155z" />
    <glyph glyph-name="iotatonos" unicode="&#x3af;" horiz-adv-x="497" 
d="M289 1118h-137l45 449h247zM348 -25q-148 0 -212 70.5t-64 220.5v723h323v-674q0 -55 45 -55q13 0 29 4l23 -268q-65 -21 -144 -21z" />
    <glyph glyph-name="upsilondieresistonos" unicode="&#x3b0;" horiz-adv-x="935" 
d="M498 1118h-136l44 449h249zM952 1260q0 -69 -48.5 -116.5t-117.5 -47.5q-68 0 -115.5 47.5t-47.5 116.5t47.5 116t115.5 47q69 0 117.5 -47t48.5 -116zM313 1260q0 -68 -47 -116t-114 -48q-68 0 -116 48t-48 116q0 67 48 115t116 48q67 0 114 -47.5t47 -115.5zM471 -25
q-75 0 -145 24t-127.5 70t-92 122t-34.5 171v627h323v-622q0 -52 20.5 -79.5t57.5 -27.5q56 0 78 67t22 216q0 190 -77 368l305 103q104 -216 104 -471q0 -166 -46 -291.5t-145.5 -201t-242.5 -75.5z" />
    <glyph glyph-name="alpha" unicode="&#x3b1;" horiz-adv-x="976" 
d="M946 264l25 -268q-65 -21 -146 -21q-122 0 -178.5 42.5t-81.5 121.5q-27 -72 -86.5 -118t-128.5 -46q-152 0 -234.5 135.5t-82.5 385.5q0 243 83 380.5t234 137.5q61 0 116.5 -33.5t84.5 -101.5v110h321v-674q0 -55 46 -55q16 0 28 4zM465 260q53 0 86 74v323
q-33 70 -86 70q-103 0 -103 -231q0 -236 103 -236z" />
    <glyph glyph-name="beta" unicode="&#x3b2;" horiz-adv-x="944" 
d="M395 936v-602q28 -74 86 -74q48 0 71 42.5t23 100.5q0 74 -24 108t-59 34h-31v286h14q76 0 76 136q0 133 -70 133q-86 0 -86 -164zM395 111v-488h-323v1313q0 120 33.5 209.5t93 140.5t131.5 75.5t157 24.5q179 0 288.5 -97.5t109.5 -276.5q0 -114 -47 -197.5
t-144 -109.5q105 -26 162 -121t57 -244q0 -64 -20 -127.5t-57.5 -117t-99.5 -87t-138 -33.5q-61 0 -116 34t-87 102z" />
    <glyph glyph-name="gamma" unicode="&#x3b3;" horiz-adv-x="890" 
d="M606 -377h-323v191q0 331 -86 637.5t-230 537.5h350q70 -158 107.5 -280t48.5 -273q70 229 70 553h323q0 -233 -75.5 -495t-184.5 -463v-408z" />
    <glyph glyph-name="delta" unicode="&#x3b4;" horiz-adv-x="923" 
d="M477 -25q-111 0 -198 38.5t-139.5 104t-79.5 148t-27 176.5q0 239 168 410q-90 90 -90 223t95 224.5t275 91.5q94 0 183.5 -33.5t156.5 -89.5l-121 -217q-32 32 -90.5 60t-122.5 28q-34 0 -56.5 -15.5t-22.5 -38.5q0 -18 26.5 -38.5t69.5 -44t94.5 -54t103.5 -77.5
t95 -106t69.5 -147.5t26.5 -193.5q0 -84 -24 -161.5t-72 -143t-130.5 -105t-189.5 -39.5zM596 424q0 91 -38.5 152.5t-108.5 109.5q-84 -105 -84 -242q0 -184 116 -184q57 0 86 48t29 116z" />
    <glyph glyph-name="epsilon" unicode="&#x3b5;" horiz-adv-x="829" 
d="M426 -25q-174 0 -284.5 82t-110.5 217q0 88 60.5 154.5t160.5 81.5q-86 12 -146.5 80t-60.5 147q0 135 112 206t308 71q205 0 346 -144l-143 -194q-80 80 -203 80q-113 0 -113 -68q0 -61 113 -61h170v-256h-184q-27 0 -43.5 -1.5t-35 -7.5t-27.5 -19.5t-9 -35.5
q0 -35 27.5 -54.5t78.5 -19.5q157 0 236 86l143 -192q-137 -152 -395 -152z" />
    <glyph glyph-name="zeta" unicode="&#x3b6;" horiz-adv-x="759" 
d="M459 -74q0 25 -9 37t-34 12q-158 0 -270.5 120t-112.5 298q0 408 362 692h-352v281h672v-227q-155 -137 -254 -326.5t-99 -351.5q0 -201 168 -201q203 0 203 -229q0 -141 -86 -353h-270q82 175 82 248z" />
    <glyph glyph-name="eta" unicode="&#x3b7;" 
d="M874 -377h-323v1026q0 80 -59 80q-31 0 -57 -29t-40 -67v-633h-323v989h323v-119q28 55 102 99.5t144 44.5q120 0 176.5 -64t56.5 -172v-1155z" />
    <glyph glyph-name="theta" unicode="&#x3b8;" horiz-adv-x="923" 
d="M461 -25q-106 0 -189 56t-134.5 154.5t-78 225t-26.5 273.5q0 148 26.5 274.5t78 224t134.5 153t189 55.5q107 0 191 -55.5t136 -153.5t78.5 -224t26.5 -274q0 -147 -26.5 -273.5t-78.5 -225t-136 -154.5t-191 -56zM461 260q48 0 70 63t28 224h-192q4 -161 25 -224
t69 -63zM461 1106q-46 0 -68 -63t-26 -218h192q-6 156 -28 218.5t-70 62.5z" />
    <glyph glyph-name="iota" unicode="&#x3b9;" horiz-adv-x="497" 
d="M348 -25q-148 0 -212 70.5t-64 220.5v723h323v-674q0 -55 45 -55q13 0 29 4l23 -268q-65 -21 -144 -21z" />
    <glyph glyph-name="kappa" unicode="&#x3ba;" horiz-adv-x="911" 
d="M922 0h-355l-104 340l-68 -131v-209h-323v989h323v-364l152 364h356l-221 -436z" />
    <glyph glyph-name="lambda" unicode="&#x3bb;" horiz-adv-x="890" 
d="M141 1094l-45 280q46 17 135 17q143 0 222.5 -57.5t124.5 -213.5l325 -1120h-340l-119 582l-116 -582h-340l291 1008l-17 49q-14 49 -80 49q-26 0 -41 -12z" />
    <glyph glyph-name="uni03BC" unicode="&#x3bc;" horiz-adv-x="976" 
d="M395 -12v-365h-323v1366h323v-653q0 -76 62 -76q30 0 55.5 27t38.5 65v637h323v-674q0 -55 46 -55q12 0 28 4l23 -268q-65 -21 -144 -21q-114 0 -178 43.5t-86 137.5q-17 -79 -54 -130t-77 -51q-20 0 -37 13z" />
    <glyph glyph-name="nu" unicode="&#x3bd;" horiz-adv-x="890" 
d="M590 0h-316l-286 989h340l125 -627q45 134 67.5 302t22.5 325h323q0 -241 -81 -514.5t-195 -474.5z" />
    <glyph glyph-name="xi" unicode="&#x3be;" horiz-adv-x="759" 
d="M416 -25q-105 0 -191 41.5t-139 124.5t-53 193q0 101 55.5 179.5t155.5 119.5q-97 16 -145 78t-48 139q0 67 43 133.5t119 101.5h-141v281h637v-281h-275q-32 -17 -50.5 -50t-18.5 -68q0 -69 38 -103.5t105 -34.5h186v-280h-186q-58 0 -102 -36.5t-44 -111.5
q0 -62 41 -101.5t127 -39.5q203 0 203 -229q0 -141 -86 -353h-270q82 175 82 248q0 25 -9 37t-34 12z" />
    <glyph glyph-name="omicron" unicode="&#x3bf;" horiz-adv-x="923" 
d="M461 -25q-106 0 -189 42t-134.5 115t-78 165.5t-26.5 198.5t26.5 198t78 164t134.5 114t189 42t190.5 -42t136 -114t78.5 -164t27 -198q0 -84 -16.5 -160t-51.5 -142.5t-85 -115t-121.5 -76t-157.5 -27.5zM461 260q54 0 77 60.5t23 175.5q0 113 -23 173t-77 60
q-53 0 -74.5 -59.5t-21.5 -173.5q0 -115 21.5 -175.5t74.5 -60.5z" />
    <glyph glyph-name="pi" unicode="&#x3c0;" horiz-adv-x="1015" 
d="M909 0h-323v709h-156v-709h-324v709h-83v280h972v-280h-86v-709z" />
    <glyph glyph-name="rho" unicode="&#x3c1;" horiz-adv-x="944" 
d="M596 -25q-61 0 -116.5 33.5t-84.5 102.5v-488h-323v873q0 105 26.5 197.5t77 164.5t132 114t184.5 42q104 0 185.5 -41.5t132.5 -113.5t77 -165t26 -200q0 -243 -83.5 -381t-233.5 -138zM479 260q105 0 105 234q0 235 -97 235q-51 0 -71.5 -59.5t-20.5 -173.5v-166
q28 -70 84 -70z" />
    <glyph glyph-name="sigma1" unicode="&#x3c2;" horiz-adv-x="757" 
d="M420 -25q-74 0 -144 38.5t-124 105.5t-86.5 165.5t-32.5 211.5q0 233 117 375.5t313 142.5q88 0 162.5 -25.5t113.5 -60.5l-92 -252q-63 53 -119 53q-75 0 -120.5 -63.5t-45.5 -169.5t45.5 -171t120.5 -65q203 0 203 -229q0 -141 -86 -353h-268q82 175 82 248
q0 25 -8.5 37t-30.5 12z" />
    <glyph glyph-name="sigma" unicode="&#x3c3;" horiz-adv-x="923" 
d="M874 428q0 -65 -14.5 -127.5t-47 -122t-79.5 -104.5t-117 -72t-155 -27q-196 0 -312 146t-116 375q0 78 16.5 149.5t52.5 134.5t88.5 109t129 73t169.5 27h404v-284h-113q94 -111 94 -277zM561 463q0 185 -49 242h-20q-73 0 -100 -54t-27 -155q0 -115 21.5 -175.5
t74.5 -60.5q100 0 100 203z" />
    <glyph glyph-name="tau" unicode="&#x3c4;" horiz-adv-x="700" 
d="M465 -25q-146 0 -210.5 71t-64.5 220v443h-159v280h639v-280h-158v-373q0 -76 45 -76q33 0 49 16l49 -258q-64 -43 -190 -43z" />
    <glyph glyph-name="upsilon" unicode="&#x3c5;" horiz-adv-x="935" 
d="M471 -25q-75 0 -145 24t-127.5 70t-92 122t-34.5 171v627h323v-622q0 -52 20.5 -79.5t57.5 -27.5q56 0 78 67t22 216q0 190 -77 368l305 103q104 -216 104 -471q0 -166 -46 -291.5t-145.5 -201t-242.5 -75.5z" />
    <glyph glyph-name="phi" unicode="&#x3c6;" horiz-adv-x="1406" 
d="M1376 496q0 -124 -55 -228.5t-172 -180t-283 -99.5v-365h-323v365q-126 18 -225 66t-160.5 118t-93 155t-31.5 181q0 332 329 506l148 -252q-145 -87 -145 -254q0 -93 41.5 -150.5t136.5 -81.5v738h157q166 0 297.5 -42t213 -114t123.5 -164.5t42 -197.5zM1044 496
q0 90 -47 146t-131 71v-437q178 48 178 220z" />
    <glyph glyph-name="chi" unicode="&#x3c7;" horiz-adv-x="856" 
d="M866 -377h-342l-96 365l-100 -365h-340l237 686l-227 680h338l90 -362l92 362h338l-227 -680z" />
    <glyph glyph-name="psi" unicode="&#x3c8;" horiz-adv-x="1409" 
d="M866 -377h-323v367q-97 16 -179.5 52t-149 93.5t-104.5 143t-38 190.5v520h321v-520q0 -147 150 -190v1087h323v-1087q148 46 148 190v520h321v-520q0 -104 -37.5 -189t-103.5 -142.5t-148.5 -94t-179.5 -53.5v-367z" />
    <glyph glyph-name="omega" unicode="&#x3c9;" horiz-adv-x="1425" 
d="M1395 496q0 -145 -43 -262t-130 -188t-204 -71q-114 0 -198 65t-105 185q-22 -120 -107.5 -185t-199.5 -65q-117 0 -203.5 71t-129 187.5t-42.5 262.5q0 165 53.5 303t144.5 215l248 -168q-56 -52 -85 -154.5t-29 -202.5q0 -229 92 -229q51 0 72.5 60.5t21.5 175.5v247
h323v-247q0 -236 95 -236q51 0 72.5 60.5t21.5 175.5q0 94 -30 196t-85 154l248 168q92 -77 145.5 -215.5t53.5 -302.5z" />
    <glyph glyph-name="iotadieresis" unicode="&#x3ca;" horiz-adv-x="497" 
d="M604 1260q0 -69 -48.5 -116.5t-117.5 -47.5q-68 0 -116 47.5t-48 116.5t48 116t116 47q69 0 117.5 -47t48.5 -116zM223 1260q0 -68 -47.5 -116t-116.5 -48q-67 0 -115 48t-48 116t48 115.5t115 47.5q69 0 116.5 -47.5t47.5 -115.5zM348 -25q-148 0 -212 70.5t-64 220.5
v723h323v-674q0 -55 45 -55q13 0 29 4l23 -268q-65 -21 -144 -21z" />
    <glyph glyph-name="upsilondieresis" unicode="&#x3cb;" horiz-adv-x="935" 
d="M823 1260q0 -69 -48.5 -116.5t-117.5 -47.5q-68 0 -115.5 47.5t-47.5 116.5t47.5 116t115.5 47q69 0 117.5 -47t48.5 -116zM442 1260q0 -68 -47 -116t-116 -48q-67 0 -115.5 48t-48.5 116q0 67 48 115t116 48q69 0 116 -47.5t47 -115.5zM471 -25q-75 0 -145 24t-127.5 70
t-92 122t-34.5 171v627h323v-622q0 -52 20.5 -79.5t57.5 -27.5q56 0 78 67t22 216q0 190 -77 368l305 103q104 -216 104 -471q0 -166 -46 -291.5t-145.5 -201t-242.5 -75.5z" />
    <glyph glyph-name="omicrontonos" unicode="&#x3cc;" horiz-adv-x="923" 
d="M502 1118h-137l45 449h247zM461 -25q-106 0 -189 42t-134.5 115t-78 165.5t-26.5 198.5t26.5 198t78 164t134.5 114t189 42t190.5 -42t136 -114t78.5 -164t27 -198q0 -84 -16.5 -160t-51.5 -142.5t-85 -115t-121.5 -76t-157.5 -27.5zM461 260q54 0 77 60.5t23 175.5
q0 113 -23 173t-77 60q-53 0 -74.5 -59.5t-21.5 -173.5q0 -115 21.5 -175.5t74.5 -60.5z" />
    <glyph glyph-name="upsilontonos" unicode="&#x3cd;" horiz-adv-x="935" 
d="M508 1118h-137l45 449h248zM471 -25q-75 0 -145 24t-127.5 70t-92 122t-34.5 171v627h323v-622q0 -52 20.5 -79.5t57.5 -27.5q56 0 78 67t22 216q0 190 -77 368l305 103q104 -216 104 -471q0 -166 -46 -291.5t-145.5 -201t-242.5 -75.5z" />
    <glyph glyph-name="omegatonos" unicode="&#x3ce;" horiz-adv-x="1425" 
d="M752 1118h-138l45 449h248zM1395 496q0 -145 -43 -262t-130 -188t-204 -71q-114 0 -198 65t-105 185q-22 -120 -107.5 -185t-199.5 -65q-117 0 -203.5 71t-129 187.5t-42.5 262.5q0 165 53.5 303t144.5 215l248 -168q-56 -52 -85 -154.5t-29 -202.5q0 -229 92 -229
q51 0 72.5 60.5t21.5 175.5v247h323v-247q0 -236 95 -236q51 0 72.5 60.5t21.5 175.5q0 94 -30 196t-85 154l248 168q92 -77 145.5 -215.5t53.5 -302.5z" />
    <glyph glyph-name="afii10023" unicode="&#x401;" horiz-adv-x="829" 
d="M782 1602q0 -69 -48.5 -116.5t-117.5 -47.5q-68 0 -115.5 47.5t-47.5 116.5t47.5 116t115.5 47q69 0 117.5 -47t48.5 -116zM401 1602q0 -68 -47 -116t-116 -48q-68 0 -116 48t-48 116q0 67 48 115t116 48q69 0 116 -47.5t47 -115.5zM772 0h-688v1366h688v-315h-326v-201
h312v-315h-312v-220h326v-315z" />
    <glyph glyph-name="afii10051" unicode="&#x402;" horiz-adv-x="1064" 
d="M543 -25v320q52 0 75 31t23 102v27q0 67 -32 104t-87 37q-34 0 -76 -10v-586h-362v1051h-199v315h758v-315h-197v-160q62 20 146 20q131 0 226.5 -64.5t140.5 -165.5t45 -224v-29q0 -120 -35 -209t-98.5 -141.5t-145 -77.5t-182.5 -25z" />
    <glyph glyph-name="afii10052" unicode="&#x403;" horiz-adv-x="819" 
d="M750 1776l-230 -295h-198l163 295h265zM446 0h-362v1366h688v-315h-326v-1051z" />
    <glyph glyph-name="afii10053" unicode="&#x404;" horiz-adv-x="956" 
d="M537 -25q-126 0 -222 51.5t-156.5 146.5t-91 223t-30.5 286q0 213 52.5 369t166.5 247t281 91q78 0 141.5 -25t103.5 -61t73.5 -91t50.5 -100t34 -104l-285 -105q-16 85 -42 125.5t-76 40.5q-103 0 -125 -219h346v-315h-348q19 -240 127 -240q99 0 120 190l283 -102
q-14 -59 -30 -107t-48.5 -107t-73.5 -99t-106 -67.5t-145 -27.5z" />
    <glyph glyph-name="afii10054" unicode="&#x405;" horiz-adv-x="894" 
d="M420 -25q-257 0 -412 146l146 282q45 -53 110 -80.5t131 -27.5q46 0 71.5 25t25.5 63q0 34 -24.5 63t-64 52.5t-86.5 49t-94.5 61t-87 81t-64 116.5t-24.5 159q0 81 28.5 156t82.5 135.5t141.5 96.5t194.5 36q103 0 194.5 -32.5t155.5 -92.5l-131 -279q-84 84 -205 84
q-43 0 -67.5 -23.5t-24.5 -60.5q0 -32 24.5 -60t63.5 -52t86 -50.5t94 -63t86 -82t63.5 -114.5t24.5 -153q0 -194 -119.5 -314.5t-318.5 -120.5z" />
    <glyph glyph-name="afii10055" unicode="&#x406;" horiz-adv-x="530" 
d="M446 0h-362v1366h362v-1366z" />
    <glyph glyph-name="afii10056" unicode="&#x407;" horiz-adv-x="530" 
d="M446 0h-362v1366h362v-1366zM621 1602q0 -69 -48.5 -116.5t-117.5 -47.5q-68 0 -116 47.5t-48 116.5t48 116t116 47q69 0 117.5 -47t48.5 -116zM240 1602q0 -68 -47.5 -116t-116.5 -48q-68 0 -116 48t-48 116q0 67 48 115t116 48q69 0 116.5 -47.5t47.5 -115.5z" />
    <glyph glyph-name="afii10057" unicode="&#x408;" horiz-adv-x="768" 
d="M248 -25q-144 0 -230 56l82 297q39 -33 103 -33q55 0 89 30t34 87v954h362v-973q0 -212 -118 -315t-322 -103z" />
    <glyph glyph-name="afii10058" unicode="&#x409;" horiz-adv-x="1572" 
d="M23 -25v320q30 0 49 10t38 42t31 99t19 175l51 745h793v-455h94q111 0 197.5 -37t139.5 -100.5t80 -144t27 -172.5t-27 -173t-80 -145t-139.5 -101.5t-197.5 -37.5h-457v1051h-98l-23 -430q-8 -161 -38.5 -279t-73.5 -187.5t-107 -111t-128.5 -55t-149.5 -13.5zM1057 596
h-53v-281h53q55 0 87 37.5t32 102.5q0 67 -32 104t-87 37z" />
    <glyph glyph-name="afii10059" unicode="&#x40a;" horiz-adv-x="1572" 
d="M84 0v1366h362v-506h195v506h363v-506h94q111 0 197.5 -35t139.5 -95t80 -136t27 -162q0 -87 -27 -163.5t-80 -137.5t-139.5 -96t-197.5 -35h-457v545h-195v-545h-362zM1004 315h53q55 0 87 30t32 85t-32 85t-87 30h-53v-230z" />
    <glyph glyph-name="afii10060" unicode="&#x40b;" horiz-adv-x="1064" 
d="M641 0v455q0 67 -32 104t-87 37q-34 0 -76 -10v-586h-362v1051h-199v315h758v-315h-197v-160q62 20 146 20q131 0 226.5 -64.5t140.5 -165.5t45 -224v-457h-363z" />
    <glyph glyph-name="afii10061" unicode="&#x40c;" horiz-adv-x="1073" 
d="M864 1776l-229 -295h-199l164 295h264zM1083 0h-405l-154 451l-78 -170v-281h-362v1366h362v-553l222 553h393l-320 -637z" />
    <glyph glyph-name="afii10062" unicode="&#x40e;" horiz-adv-x="1001" 
d="M215 -25q-143 0 -229 56l82 297q39 -33 94 -33q71 0 112 111l33 88l-321 872h381l133 -465l131 467l385 -2l-361 -973q-29 -77 -50.5 -127t-50.5 -102t-60 -83.5t-72 -57.5t-92 -37t-115 -11zM764 1577q-44 -63 -113 -98t-151 -35q-79 0 -148.5 35t-115.5 98l143 106
q44 -63 121 -63t121 63z" />
    <glyph glyph-name="afii10145" unicode="&#x40f;" horiz-adv-x="1089" 
d="M84 0v1366h362v-1051h195v1051h363v-1366h-279v-262h-363v262h-278z" />
    <glyph glyph-name="afii10017" unicode="&#x410;" horiz-adv-x="991" 
d="M1004 0h-371l-29 190h-219l-27 -190h-370l299 1366h415zM563 506l-67 467l-68 -467h135z" />
    <glyph glyph-name="afii10018" unicode="&#x411;" horiz-adv-x="1015" 
d="M84 1366h821v-315h-459v-140h95q111 0 197.5 -37t139.5 -100.5t80 -144t27 -172.5t-27 -173t-80 -145t-139.5 -101.5t-197.5 -37.5h-457v1366zM500 596h-54v-281h54q54 0 86 37t32 103q0 67 -31.5 104t-86.5 37z" />
    <glyph glyph-name="afii10019" unicode="&#x412;" horiz-adv-x="1028" 
d="M631 0h-547v1366h528q95 0 167 -30t113 -81t61 -110.5t20 -126.5q0 -124 -61.5 -206.5t-161.5 -106.5q106 -17 173.5 -111t67.5 -223q0 -77 -20 -141.5t-61 -117t-112.5 -82.5t-166.5 -30zM510 850q49 0 71.5 23.5t22.5 76.5q0 101 -94 101h-64v-201h64zM518 315
q105 0 105 111q0 53 -28.5 81t-76.5 28h-72v-220h72z" />
    <glyph glyph-name="afii10020" unicode="&#x413;" horiz-adv-x="819" 
d="M446 0h-362v1366h688v-315h-326v-1051z" />
    <glyph glyph-name="afii10021" unicode="&#x414;" horiz-adv-x="1112" 
d="M23 -252v547q31 4 49 14t37.5 41.5t31.5 97.5t19 173l51 745h793v-1051h86v-567h-363v252h-342v-252h-362zM524 705q-14 -258 -106 -390h223v736h-98z" />
    <glyph glyph-name="afii10022" unicode="&#x415;" horiz-adv-x="829" 
d="M772 0h-688v1366h688v-315h-326v-201h312v-315h-312v-220h326v-315z" />
    <glyph glyph-name="afii10024" unicode="&#x416;" horiz-adv-x="1505" 
d="M395 0h-405l342 729l-320 637h394l165 -416v416h363v-416l166 416h393l-319 -637l342 -729h-406l-154 451l-22 -50v-401h-363v401l-22 50z" />
    <glyph glyph-name="afii10025" unicode="&#x417;" horiz-adv-x="1003" 
d="M494 -25q-154 0 -277.5 59.5t-191.5 158.5l233 217q87 -115 211 -115q71 0 104 33.5t33 83.5q0 62 -44 90t-105 28h-164v318h143q72 0 112 28t40 82t-33.5 81.5t-95.5 27.5q-57 0 -110 -25.5t-85 -76.5l-223 196q80 113 197 169t256 56q206 0 333 -95.5t127 -278.5
q0 -107 -70 -198t-173 -109q118 -21 191 -112.5t73 -211.5q0 -183 -135.5 -294.5t-345.5 -111.5z" />
    <glyph glyph-name="afii10026" unicode="&#x418;" horiz-adv-x="1089" 
d="M420 0h-336v1366h360v-532l197 532h363v-1366h-363v567z" />
    <glyph glyph-name="afii10027" unicode="&#x419;" horiz-adv-x="1089" 
d="M420 0h-336v1366h360v-532l197 532h363v-1366h-363v567zM809 1577q-44 -63 -113 -98t-151 -35q-79 0 -148.5 35t-115.5 98l143 106q44 -63 121 -63t121 63z" />
    <glyph glyph-name="afii10028" unicode="&#x41a;" horiz-adv-x="1073" 
d="M1083 0h-405l-154 451l-78 -170v-281h-362v1366h362v-553l222 553h393l-320 -637z" />
    <glyph glyph-name="afii10029" unicode="&#x41b;" horiz-adv-x="1089" 
d="M23 -25v320q30 0 49 10t38 42t31 99t19 175l51 745h793v-1366h-363v1051h-98l-23 -430q-8 -161 -38.5 -279t-73.5 -187.5t-107 -111t-128.5 -55t-149.5 -13.5z" />
    <glyph glyph-name="afii10030" unicode="&#x41c;" horiz-adv-x="1382" 
d="M1296 0h-356v657l-192 -657h-113l-189 657v-657h-362v1366h448l158 -549l166 549h440v-1366z" />
    <glyph glyph-name="afii10031" unicode="&#x41d;" horiz-adv-x="1089" 
d="M1004 0h-361v545h-197v-545h-362v1366h362v-506h197v506h361v-1366z" />
    <glyph glyph-name="afii10032" unicode="&#x41e;" horiz-adv-x="1069" 
d="M535 -25q-166 0 -279.5 91.5t-166 248t-52.5 367.5t52.5 367.5t166 248t279.5 91.5t279 -91.5t165.5 -247.5t52.5 -368t-52.5 -368t-165.5 -247.5t-279 -91.5zM535 295q129 0 129 387t-129 387t-129 -387t129 -387z" />
    <glyph glyph-name="afii10033" unicode="&#x41f;" horiz-adv-x="1089" 
d="M1004 0h-361v1051h-197v-1051h-362v1366h920v-1366z" />
    <glyph glyph-name="afii10034" unicode="&#x420;" horiz-adv-x="1015" 
d="M446 0h-362v1366h457q111 0 197.5 -37.5t139.5 -101.5t80 -145t27 -173t-27 -172.5t-80 -144t-139.5 -100.5t-197.5 -37h-95v-455zM500 770q55 0 86.5 37t31.5 104q0 66 -32 103t-86 37h-54v-281h54z" />
    <glyph glyph-name="afii10035" unicode="&#x421;" horiz-adv-x="956" 
d="M537 -25q-126 0 -222 51.5t-156.5 146.5t-91 223t-30.5 286q0 213 52.5 369t166.5 247t281 91q78 0 141.5 -25t103.5 -61t73.5 -91t50.5 -100t34 -104l-285 -105q-16 85 -42 125.5t-76 40.5q-71 0 -101 -99t-30 -288t30 -288t101 -99q99 0 120 190l283 -102
q-14 -59 -30 -107t-48.5 -107t-73.5 -99t-106 -67.5t-145 -27.5z" />
    <glyph glyph-name="afii10036" unicode="&#x422;" horiz-adv-x="831" 
d="M598 0h-362v1051h-199v315h758v-315h-197v-1051z" />
    <glyph glyph-name="afii10037" unicode="&#x423;" horiz-adv-x="1001" 
d="M215 -25q-143 0 -229 56l82 297q39 -33 94 -33q71 0 112 111l33 88l-321 872h381l133 -465l131 467l385 -2l-361 -973q-29 -77 -50.5 -127t-50.5 -102t-60 -83.5t-72 -57.5t-92 -37t-115 -11z" />
    <glyph glyph-name="afii10038" unicode="&#x424;" horiz-adv-x="1486" 
d="M924 0h-361v143q-261 37 -393.5 180t-132.5 359t132.5 359t393.5 180v145h361v-145q261 -37 393.5 -180t132.5 -359t-132.5 -359t-393.5 -180v-143zM1083 682q0 158 -159 209v-418q159 48 159 209zM406 682q0 -161 157 -209v418q-157 -51 -157 -209z" />
    <glyph glyph-name="afii10039" unicode="&#x425;" horiz-adv-x="1042" 
d="M1055 0h-398l-137 391l-135 -391h-397l323 698l-307 668h397l119 -369l119 369h397l-307 -666z" />
    <glyph glyph-name="afii10040" unicode="&#x426;" horiz-adv-x="1112" 
d="M727 -252v252h-643v1366h362v-1051h195v1051h363v-1051h86v-567h-363z" />
    <glyph glyph-name="afii10041" unicode="&#x427;" horiz-adv-x="1064" 
d="M424 1366v-455q0 -67 32 -104t87 -37q33 0 75 10v586h363v-1366h-363v475q-62 -20 -145 -20q-131 0 -226.5 64.5t-140.5 165.5t-45 224v457h363z" />
    <glyph glyph-name="afii10042" unicode="&#x428;" horiz-adv-x="1587" 
d="M1139 1366h362v-1366h-1415v1366h363v-1051h163v1051h363v-1051h164v1051z" />
    <glyph glyph-name="afii10043" unicode="&#x429;" horiz-adv-x="1607" 
d="M1139 1366h362v-1051h84v-567h-362v252h-1137v1366h363v-1051h163v1051h363v-1051h164v1051z" />
    <glyph glyph-name="afii10044" unicode="&#x42a;" horiz-adv-x="1167" 
d="M692 0h-456v1051h-199v315h561v-455h94q111 0 197.5 -37t140 -100.5t80.5 -144t27 -172.5t-27.5 -173t-80 -145t-139.5 -101.5t-198 -37.5zM651 596h-53v-281h53q55 0 87 37.5t32 102.5q0 67 -32 104t-87 37z" />
    <glyph glyph-name="afii10045" unicode="&#x42b;" horiz-adv-x="1495" 
d="M84 1366h362v-455h95q111 0 197.5 -37t139.5 -100.5t80 -144t27 -172.5t-27 -173t-80 -145t-139.5 -101.5t-197.5 -37.5h-457v1366zM500 596h-54v-281h54q54 0 86 37t32 103q0 67 -31.5 104t-86.5 37zM1411 0h-362v1366h362v-1366z" />
    <glyph glyph-name="afii10046" unicode="&#x42c;" horiz-adv-x="1015" 
d="M84 1366h362v-455h95q111 0 197.5 -37t139.5 -100.5t80 -144t27 -172.5t-27 -173t-80 -145t-139.5 -101.5t-197.5 -37.5h-457v1366zM500 596h-54v-281h54q54 0 86 37t32 103q0 67 -31.5 104t-86.5 37z" />
    <glyph glyph-name="afii10047" unicode="&#x42d;" horiz-adv-x="956" 
d="M420 -25q-80 0 -145.5 27.5t-106.5 67.5t-73.5 99t-48.5 107t-30 107l283 102q21 -190 121 -190q106 0 125 240h-346v315h344q-22 219 -123 219q-50 0 -76.5 -41t-42.5 -125l-285 105q17 58 34 103.5t50.5 100.5t74 91t104 61t141.5 25q167 0 281 -91t166.5 -247
t52.5 -369q0 -158 -30.5 -286t-91 -223t-156.5 -146.5t-222 -51.5z" />
    <glyph glyph-name="afii10048" unicode="&#x42e;" horiz-adv-x="1595" 
d="M1061 -25q-219 0 -343.5 153t-148.5 417h-120v-545h-365v1366h365v-506h124q32 247 155 388t333 141q166 0 279.5 -91.5t166 -248t52.5 -367.5t-52.5 -367.5t-166 -248t-279.5 -91.5zM1061 295q129 0 129 387t-129 387t-129 -387t129 -387z" />
    <glyph glyph-name="afii10049" unicode="&#x42f;" horiz-adv-x="1044" 
d="M434 0h-387l174 543q-162 118 -162 381q0 189 120.5 315.5t305.5 126.5h476v-1366h-363v455h-47zM545 770h53v281h-53q-55 0 -87 -37.5t-32 -104.5q0 -65 32 -102t87 -37z" />
    <glyph glyph-name="afii10065" unicode="&#x430;" horiz-adv-x="927" 
d="M856 0h-321v96q-30 -53 -95 -87t-127 -34q-122 0 -202 88.5t-80 239.5t79 234.5t203 83.5q63 0 128.5 -30t93.5 -81v86q0 67 -39 106t-107 39q-97 0 -207 -92l-110 225q66 70 177.5 105t213.5 35q175 0 284 -85t109 -251v-678zM438 186q72 0 97 64v94q-25 66 -97 66
q-41 0 -64.5 -29.5t-23.5 -81.5q0 -54 23.5 -83.5t64.5 -29.5z" />
    <glyph glyph-name="afii10066" unicode="&#x431;" horiz-adv-x="921" 
d="M459 260q54 0 77 61t23 177q0 231 -100 231q-97 0 -97 -231q0 -116 22 -177t75 -61zM461 -25q-112 0 -195.5 42t-134 118.5t-75.5 178t-25 227.5q0 152 13 262.5t42 198.5t78.5 146.5t120.5 96.5t170 58q39 8 64.5 25t25.5 38h315q0 -213 -301 -276q-126 -27 -181 -65
t-83 -107q51 53 106.5 74.5t130.5 21.5q91 0 161.5 -42t113 -114.5t63.5 -163.5t21 -196t-25 -197t-75.5 -166t-135 -117t-194.5 -43z" />
    <glyph glyph-name="afii10067" unicode="&#x432;" horiz-adv-x="929" 
d="M590 0h-518v989h501q82 0 144.5 -21.5t98 -59t52.5 -81t17 -92.5q0 -85 -49 -143.5t-129 -81.5q87 -17 139.5 -83t52.5 -157q0 -119 -75 -194.5t-234 -75.5zM510 254q61 0 61 59q0 28 -16.5 45t-44.5 17h-115v-121h115zM502 629q55 0 55 53t-55 53h-107v-106h107z" />
    <glyph glyph-name="afii10068" unicode="&#x433;" horiz-adv-x="692" 
d="M670 989v-280h-275v-709h-323v989h598z" />
    <glyph glyph-name="afii10069" unicode="&#x434;" horiz-adv-x="978" 
d="M29 -252v500q87 21 106 252l39 489h700v-708h87v-533h-324v252h-285v-252h-323zM475 709l-14 -185q-7 -92 -23.5 -146.5t-48.5 -96.5h162v428h-76z" />
    <glyph glyph-name="afii10070" unicode="&#x435;" horiz-adv-x="890" 
d="M477 -25q-208 0 -326 142t-118 379q0 146 48 261.5t146.5 186t233.5 70.5q136 0 228 -66t133.5 -179t41.5 -267v-113h-522q2 -66 44.5 -109.5t127.5 -43.5q42 0 86.5 20t79.5 55l141 -184q-65 -74 -158 -113t-186 -39zM559 608q0 146 -108 146q-109 0 -109 -146h217z" />
    <glyph glyph-name="afii10072" unicode="&#x436;" horiz-adv-x="1253" 
d="M344 0h-354l239 553l-221 436h357l100 -241v241h323v-241l101 241h356l-221 -436l240 -553h-355l-104 340l-17 -33v-307h-323v307l-16 33z" />
    <glyph glyph-name="afii10073" unicode="&#x437;" horiz-adv-x="829" 
d="M403 -25q-258 0 -395 152l144 192q79 -86 235 -86q51 0 79 19.5t28 54.5q0 41 -29.5 52.5t-85.5 11.5h-184v256h170q112 0 112 61q0 68 -112 68q-123 0 -203 -80l-144 194q141 144 347 144q196 0 307.5 -71t111.5 -206q0 -80 -60 -147.5t-146 -79.5q100 -15 160.5 -81.5
t60.5 -154.5q0 -135 -111 -217t-285 -82z" />
    <glyph glyph-name="afii10074" unicode="&#x438;" 
d="M379 0h-307v989h323v-373l148 373h329v-989h-323v406z" />
    <glyph glyph-name="afii10075" unicode="&#x439;" 
d="M379 0h-307v989h323v-373l148 373h329v-989h-323v406zM737 1235q-44 -63 -113 -98t-151 -35q-79 0 -148.5 35t-115.5 98l143 106q44 -63 121 -63t121 63z" />
    <glyph glyph-name="afii10076" unicode="&#x43a;" horiz-adv-x="911" 
d="M922 0h-355l-104 340l-68 -131v-209h-323v989h323v-364l152 364h356l-221 -436z" />
    <glyph glyph-name="afii10077" unicode="&#x43b;" 
d="M29 -25v273q18 0 32 8t29.5 32t27 77.5t17.5 134.5l39 489h700v-989h-323v709h-76l-18 -242q-16 -193 -62.5 -299t-132 -149.5t-233.5 -43.5z" />
    <glyph glyph-name="afii10078" unicode="&#x43c;" horiz-adv-x="1189" 
d="M1118 0h-317v449l-148 -449h-114l-144 449v-449h-323v989h391l133 -416l141 416h381v-989z" />
    <glyph glyph-name="afii10079" unicode="&#x43d;" 
d="M395 0h-323v989h323v-332h156v332h323v-989h-323v377h-156v-377z" />
    <glyph glyph-name="afii10080" unicode="&#x43e;" horiz-adv-x="923" 
d="M461 -25q-106 0 -189 42t-134.5 115t-78 165.5t-26.5 198.5t26.5 198t78 164t134.5 114t189 42t190.5 -42t136 -114t78.5 -164t27 -198q0 -84 -16.5 -160t-51.5 -142.5t-85 -115t-121.5 -76t-157.5 -27.5zM461 260q54 0 77 60.5t23 175.5q0 113 -23 173t-77 60
q-53 0 -74.5 -59.5t-21.5 -173.5q0 -115 21.5 -175.5t74.5 -60.5z" />
    <glyph glyph-name="afii10081" unicode="&#x43f;" 
d="M874 0h-323v709h-156v-709h-323v989h802v-989z" />
    <glyph glyph-name="afii10082" unicode="&#x440;" horiz-adv-x="944" 
d="M596 -25q-61 0 -116.5 33.5t-84.5 102.5v-488h-323v1366h323v-110q32 68 86.5 101.5t114.5 33.5q151 0 234 -135t83 -385q0 -243 -83.5 -381t-233.5 -138zM479 260q105 0 105 234q0 235 -105 235q-57 0 -84 -67v-332q28 -70 84 -70z" />
    <glyph glyph-name="afii10083" unicode="&#x441;" horiz-adv-x="759" 
d="M463 -25q-195 0 -312.5 144t-117.5 377t117 375.5t313 142.5q88 0 162.5 -25.5t113.5 -60.5l-92 -252q-63 53 -119 53q-75 0 -120.5 -63.5t-45.5 -169.5t45.5 -171t120.5 -65q60 0 119 53l92 -252q-38 -36 -112.5 -61t-163.5 -25z" />
    <glyph glyph-name="afii10084" unicode="&#x442;" horiz-adv-x="673" 
d="M500 0h-324v709h-153v280h628v-280h-151v-709z" />
    <glyph glyph-name="afii10085" unicode="&#x443;" horiz-adv-x="890" 
d="M96 -385l45 279q18 -11 41 -11q66 0 80 49l17 50l-291 1007h340l116 -581l119 581h340l-325 -1120q-45 -156 -124 -213t-223 -57q-92 0 -135 16z" />
    <glyph glyph-name="afii10086" unicode="&#x444;" horiz-adv-x="1376" 
d="M334 1014q60 0 112.5 -33t79.5 -102v487h324v-487q31 68 82.5 101.5t109.5 33.5q143 0 223.5 -135.5t80.5 -384.5q0 -242 -81 -380.5t-223 -138.5q-59 0 -112 33.5t-80 102.5v-488h-324v488q-31 -68 -82.5 -102t-109.5 -34q-143 0 -223 136t-80 385q0 242 80.5 380
t222.5 138zM451 729q-97 0 -97 -233q0 -236 97 -236q51 0 75 68v331q-25 70 -75 70zM926 260q52 0 74 60.5t22 173.5q0 114 -21.5 174.5t-74.5 60.5q-52 0 -76 -67v-332q25 -70 76 -70z" />
    <glyph glyph-name="afii10087" unicode="&#x445;" horiz-adv-x="856" 
d="M866 0h-342l-96 264l-98 -264h-342l237 496l-227 493h338l90 -260l90 260h340l-227 -493z" />
    <glyph glyph-name="afii10088" unicode="&#x446;" horiz-adv-x="978" 
d="M637 -252v252h-565v989h323v-708h156v708h323v-708h87v-533h-324z" />
    <glyph glyph-name="afii10089" unicode="&#x447;" 
d="M72 989h323v-368q0 -72 60 -72q58 0 96 24v416h323v-989h-323v326q-31 -26 -88.5 -44t-130.5 -18q-260 0 -260 236v489z" />
    <glyph glyph-name="afii10090" unicode="&#x448;" horiz-adv-x="1384" 
d="M989 989h324v-989h-1241v989h323v-708h135v708h324v-708h135v708z" />
    <glyph glyph-name="afii10091" unicode="&#x449;" horiz-adv-x="1417" 
d="M989 989h324v-708h86v-533h-324v252h-1003v989h323v-708h135v708h324v-708h135v708z" />
    <glyph glyph-name="afii10092" unicode="&#x44a;" horiz-adv-x="1034" 
d="M612 0h-436v709h-153v280h477v-313h112q192 0 292 -95.5t100 -242.5q0 -69 -24 -129t-71 -107t-123.5 -74.5t-173.5 -27.5zM584 422h-84v-168h84q43 0 67.5 23.5t24.5 60.5q0 35 -24.5 59.5t-67.5 24.5z" />
    <glyph glyph-name="afii10093" unicode="&#x44b;" horiz-adv-x="1380" 
d="M72 989h323v-313h113q192 0 291.5 -95.5t99.5 -242.5q0 -69 -24 -129t-70.5 -107.5t-123 -74.5t-173.5 -27h-436v989zM479 422h-84v-168h84q43 0 67.5 23.5t24.5 60.5q0 35 -24.5 59.5t-67.5 24.5zM1309 0h-324v989h324v-989z" />
    <glyph glyph-name="afii10094" unicode="&#x44c;" horiz-adv-x="929" 
d="M72 989h323v-313h113q192 0 291.5 -95.5t99.5 -242.5q0 -69 -24 -129t-70.5 -107.5t-123 -74.5t-173.5 -27h-436v989zM479 422h-84v-168h84q43 0 67.5 23.5t24.5 60.5q0 35 -24.5 59.5t-67.5 24.5z" />
    <glyph glyph-name="afii10095" unicode="&#x44d;" horiz-adv-x="759" 
d="M297 -25q-89 0 -164 25t-113 61l91 224q55 -49 129 -49q131 0 168 153h-258v219h256q-18 72 -61.5 109t-104.5 37q-68 0 -129 -52l-91 226q39 35 114 60.5t163 25.5q196 0 313 -142.5t117 -375.5t-117.5 -377t-312.5 -144z" />
    <glyph glyph-name="afii10096" unicode="&#x44e;" horiz-adv-x="1361" 
d="M899 -25q-178 0 -285 111.5t-135 290.5h-84v-377h-323v989h323v-332h92q36 161 141 259t271 98q106 0 190.5 -42t136 -114t78.5 -164t27 -198q0 -84 -16.5 -160t-51.5 -142.5t-85 -115t-121.5 -76t-157.5 -27.5zM899 260q54 0 77 60.5t23 175.5q0 113 -23 173t-77 60
q-53 0 -74.5 -59.5t-21.5 -173.5q0 -115 21.5 -175.5t74.5 -60.5z" />
    <glyph glyph-name="afii10097" unicode="&#x44f;" 
d="M375 0h-342l145 383q-54 34 -92.5 101t-38.5 171q0 144 103.5 239t287.5 95h436v-989h-323v315h-90zM467 569h84v166h-84q-43 0 -67.5 -23t-24.5 -61q0 -36 24.5 -59t67.5 -23z" />
    <glyph glyph-name="afii10071" unicode="&#x451;" horiz-adv-x="890" 
d="M817 1260q0 -69 -48.5 -116.5t-117.5 -47.5q-68 0 -116 47.5t-48 116.5t48 116t116 47q69 0 117.5 -47t48.5 -116zM436 1260q0 -68 -47.5 -116t-116.5 -48q-67 0 -115 48t-48 116t47.5 115.5t115.5 47.5q69 0 116.5 -47.5t47.5 -115.5zM477 -25q-208 0 -326 142t-118 379
q0 146 48 261.5t146.5 186t233.5 70.5q136 0 228 -66t133.5 -179t41.5 -267v-113h-522q2 -66 44.5 -109.5t127.5 -43.5q42 0 86.5 20t79.5 55l141 -184q-65 -74 -158 -113t-186 -39zM559 608q0 146 -108 146q-109 0 -109 -146h217z" />
    <glyph glyph-name="afii10099" unicode="&#x452;" horiz-adv-x="964" 
d="M653 1073h-239v-203q29 56 102 100t143 44q120 0 177 -62.5t57 -169.5v-809q0 -374 -336 -374q-91 0 -151 32l53 254q18 -14 47 -14q63 0 63 102v680q0 76 -59 76q-31 0 -56.5 -28.5t-39.5 -67.5v-633h-324v1073h-67v178h67v115h324v-115h239v-178z" />
    <glyph glyph-name="afii10100" unicode="&#x453;" horiz-adv-x="692" 
d="M692 1434l-229 -295h-199l164 295h264zM670 989v-280h-275v-709h-323v989h598z" />
    <glyph glyph-name="afii10101" unicode="&#x454;" horiz-adv-x="759" 
d="M463 -25q-195 0 -312.5 144t-117.5 377t117 375.5t313 142.5q88 0 162.5 -25.5t113.5 -60.5l-90 -226q-61 52 -129 52q-61 0 -104.5 -37t-61.5 -109h256v-219h-258q17 -76 61 -114.5t107 -38.5q74 0 129 49l90 -224q-38 -36 -112.5 -61t-163.5 -25z" />
    <glyph glyph-name="afii10102" unicode="&#x455;" horiz-adv-x="782" 
d="M381 -25q-125 0 -221.5 37.5t-151.5 96.5l123 221q45 -43 105 -73t114 -30q50 0 76.5 17t26.5 47q0 20 -22.5 34.5t-58.5 26t-79.5 25t-87 38t-79.5 58.5t-58.5 92t-22.5 133q0 63 23 119t67.5 100.5t117 70.5t163.5 26q95 0 184 -33.5t158 -89.5l-123 -217
q-32 32 -90.5 60t-122.5 28q-34 0 -57 -15t-23 -38q0 -21 31 -37.5t77.5 -28.5t100.5 -37t100.5 -58.5t77.5 -97.5t31 -149q0 -143 -105 -234.5t-274 -91.5z" />
    <glyph glyph-name="afii10103" unicode="&#x456;" horiz-adv-x="466" 
d="M233 1075q-76 0 -130 54t-54 131t54 131.5t130 54.5t130.5 -54.5t54.5 -131.5q0 -76 -54 -130.5t-131 -54.5zM395 0h-323v989h323v-989z" />
    <glyph glyph-name="afii10104" unicode="&#x457;" horiz-adv-x="466" 
d="M588 1260q0 -69 -48.5 -116.5t-117.5 -47.5q-68 0 -116 47.5t-48 116.5t48 116t116 47q69 0 117.5 -47t48.5 -116zM207 1260q0 -68 -47.5 -116t-116.5 -48q-67 0 -115.5 48t-48.5 116q0 67 48 115t116 48q69 0 116.5 -47.5t47.5 -115.5zM395 0h-323v989h323v-989z" />
    <glyph glyph-name="afii10105" unicode="&#x458;" horiz-adv-x="466" 
d="M233 1075q-76 0 -130 54t-54 131t54 131.5t130 54.5t130.5 -54.5t54.5 -131.5q0 -76 -54 -130.5t-131 -54.5zM59 -401q-91 0 -151 32l53 254q18 -14 47 -14q64 0 64 102v1016h323v-1016q0 -374 -336 -374z" />
    <glyph glyph-name="afii10106" unicode="&#x459;" horiz-adv-x="1409" 
d="M29 -25v273q18 0 32 8t29.5 32t27 77.5t17.5 134.5l39 489h700v-313h113q192 0 291.5 -95.5t99.5 -242.5q0 -69 -24 -129t-70.5 -107.5t-123 -74.5t-173.5 -27h-436v709h-76l-18 -242q-16 -193 -62.5 -299t-132 -149.5t-233.5 -43.5zM958 422h-84v-168h84q43 0 68 24
t25 60q0 35 -25 59.5t-68 24.5z" />
    <glyph glyph-name="afii10107" unicode="&#x45a;" horiz-adv-x="1361" 
d="M395 0h-323v989h323v-332h156v332h323v-332h113q192 0 291.5 -92.5t99.5 -236.5q0 -67 -24 -125t-70.5 -104t-123 -72.5t-173.5 -26.5h-436v377h-156v-377zM981 377h-107v-123h107q33 0 51.5 17t18.5 44q0 26 -19 44t-51 18z" />
    <glyph glyph-name="afii10108" unicode="&#x45b;" horiz-adv-x="964" 
d="M653 1073h-239v-203q29 56 102 100t143 44q120 0 177 -62.5t57 -169.5v-782h-324v653q0 76 -59 76q-31 0 -56.5 -28.5t-39.5 -67.5v-633h-324v1073h-67v178h67v115h324v-115h239v-178z" />
    <glyph glyph-name="afii10109" unicode="&#x45c;" horiz-adv-x="911" 
d="M780 1434l-229 -295h-199l164 295h264zM922 0h-355l-104 340l-68 -131v-209h-323v989h323v-364l152 364h356l-221 -436z" />
    <glyph glyph-name="afii10110" unicode="&#x45e;" horiz-adv-x="890" 
d="M96 -385l45 279q18 -11 41 -11q66 0 80 49l17 50l-291 1007h340l116 -581l119 581h340l-325 -1120q-45 -156 -124 -213t-223 -57q-92 0 -135 16zM709 1235q-44 -63 -113.5 -98t-151.5 -35q-79 0 -148.5 35t-115.5 98l144 106q44 -63 120 -63q77 0 121 63z" />
    <glyph glyph-name="afii10193" unicode="&#x45f;" 
d="M311 -250v250h-239v989h323v-708h156v708h323v-989h-239v-250h-324z" />
    <glyph glyph-name="afii10050" unicode="&#x490;" horiz-adv-x="819" 
d="M446 1051v-1051h-362v1366h326v252h362v-567h-326z" />
    <glyph glyph-name="afii10098" unicode="&#x491;" horiz-adv-x="692" 
d="M395 709v-709h-323v989h274v250h324v-530h-275z" />
    <glyph glyph-name="uni1E02" unicode="&#x1e02;" horiz-adv-x="1028" 
d="M631 0h-547v1366h528q95 0 167 -30t113 -81t61 -110.5t20 -126.5q0 -124 -61.5 -206.5t-161.5 -106.5q106 -17 173.5 -111t67.5 -223q0 -77 -20 -141.5t-61 -117t-112.5 -82.5t-166.5 -30zM510 850q49 0 71.5 23.5t22.5 76.5q0 101 -94 101h-64v-201h64zM518 315
q105 0 105 111q0 53 -28.5 81t-76.5 28h-72v-220h72zM514 1440q-67 0 -115.5 47.5t-48.5 114.5t49 115t115 48q68 0 116 -48t48 -115t-48 -114.5t-116 -47.5z" />
    <glyph glyph-name="uni1E03" unicode="&#x1e03;" horiz-adv-x="944" 
d="M395 334q28 -74 84 -74q105 0 105 236q0 233 -105 233q-55 0 -84 -72v-323zM395 0h-323v1366h323v-487q29 68 84.5 101.5t116.5 33.5q150 0 233.5 -137.5t83.5 -380.5q0 -250 -83 -385.5t-234 -135.5q-60 0 -114.5 34t-86.5 102v-111zM481 1440q-67 0 -115.5 47.5
t-48.5 114.5t49 115t115 48q68 0 116 -48t48 -115t-48 -114.5t-116 -47.5z" />
    <glyph glyph-name="uni1E0A" unicode="&#x1e0a;" horiz-adv-x="1073" 
d="M508 0h-424v1366h422q136 0 239.5 -52.5t166 -146.5t93.5 -216t31 -269q0 -149 -30.5 -270.5t-92.5 -215t-165 -145t-240 -51.5zM506 315q162 0 162 367q0 199 -42.5 284t-119.5 85h-60v-736h60zM535 1440q-67 0 -115.5 47.5t-48.5 114.5t49 115t115 48q67 0 115 -47.5
t48 -115.5q0 -67 -47.5 -114.5t-115.5 -47.5z" />
    <glyph glyph-name="uni1E0B" unicode="&#x1e0b;" horiz-adv-x="944" 
d="M872 0h-321v111q-33 -68 -87 -102t-114 -34q-152 0 -234.5 135.5t-82.5 385.5q0 243 83 380.5t234 137.5q61 0 116.5 -33.5t84.5 -101.5v487h321v-1366zM465 260q53 0 86 74v325q-33 70 -86 70q-103 0 -103 -233q0 -236 103 -236zM469 1440q-67 0 -115.5 47.5
t-48.5 114.5t49 115t115 48q68 0 116 -48t48 -115t-48 -114.5t-116 -47.5z" />
    <glyph glyph-name="uni1E1E" unicode="&#x1e1e;" horiz-adv-x="819" 
d="M430 1440q-67 0 -115.5 47.5t-48.5 114.5t49 115t115 48q68 0 116 -48t48 -115t-48 -114.5t-116 -47.5zM446 0h-362v1366h688v-315h-326v-201h312v-315h-312v-535z" />
    <glyph glyph-name="uni1E1F" unicode="&#x1e1f;" horiz-adv-x="563" 
d="M422 1440q-67 0 -115.5 47.5t-48.5 114.5t49 115t115 48q68 0 116 -48t48 -115t-48 -114.5t-116 -47.5zM430 0h-324v709h-83v280h83v39q0 175 81.5 266.5t240.5 91.5q131 0 203 -53l-68 -246q-27 27 -63 27q-34 0 -52 -22.5t-18 -63.5v-39h115v-280h-115v-709z" />
    <glyph glyph-name="uni1E22" unicode="&#x1e22;" horiz-adv-x="1089" 
d="M1004 0h-361v545h-197v-545h-362v1366h362v-506h197v506h361v-1366zM543 1440q-67 0 -115.5 47.5t-48.5 114.5t49 115t115 48q68 0 116 -48t48 -115t-48 -114.5t-116 -47.5z" />
    <glyph glyph-name="uni1E23" unicode="&#x1e23;" 
d="M874 0h-323v653q0 76 -59 76q-31 0 -57 -29t-40 -67v-633h-323v1366h323v-496q28 55 102 99.5t144 44.5q120 0 176.5 -62t56.5 -170v-782zM473 1440q-67 0 -115.5 47.5t-48.5 114.5t49 115t115 48q68 0 116 -48t48 -115t-48 -114.5t-116 -47.5z" />
    <glyph glyph-name="uni1E56" unicode="&#x1e56;" horiz-adv-x="1015" 
d="M446 0h-362v1366h457q111 0 197.5 -37.5t139.5 -101.5t80 -145t27 -173t-27 -172.5t-80 -144t-139.5 -100.5t-197.5 -37h-95v-455zM500 770q55 0 86.5 37t31.5 104q0 66 -32 103t-86 37h-54v-281h54zM508 1440q-67 0 -115.5 47.5t-48.5 114.5t49 115t115 48q68 0 116 -48
t48 -115t-48 -114.5t-116 -47.5z" />
    <glyph glyph-name="uni1E57" unicode="&#x1e57;" horiz-adv-x="944" 
d="M596 -25q-61 0 -116.5 33.5t-84.5 102.5v-488h-323v1366h323v-110q32 68 86.5 101.5t114.5 33.5q151 0 234 -135t83 -385q0 -243 -83.5 -381t-233.5 -138zM479 260q105 0 105 234q0 235 -105 235q-57 0 -84 -67v-332q28 -70 84 -70zM483 1098q-67 0 -115.5 47.5
t-48.5 114.5t49 115t115 48q68 0 116 -48t48 -115t-48 -114.5t-116 -47.5z" />
    <glyph glyph-name="uni1E60" unicode="&#x1e60;" horiz-adv-x="894" 
d="M420 -25q-257 0 -412 146l146 282q45 -53 110 -80.5t131 -27.5q46 0 71.5 25t25.5 63q0 34 -24.5 63t-64 52.5t-86.5 49t-94.5 61t-87 81t-64 116.5t-24.5 159q0 81 28.5 156t82.5 135.5t141.5 96.5t194.5 36q103 0 194.5 -32.5t155.5 -92.5l-131 -279q-84 84 -205 84
q-43 0 -67.5 -23.5t-24.5 -60.5q0 -32 24.5 -60t63.5 -52t86 -50.5t94 -63t86 -82t63.5 -114.5t24.5 -153q0 -194 -119.5 -314.5t-318.5 -120.5zM446 1440q-66 0 -114.5 47.5t-48.5 114.5t48.5 115t114.5 48q68 0 116 -48t48 -115t-48 -114.5t-116 -47.5z" />
    <glyph glyph-name="uni1E61" unicode="&#x1e61;" horiz-adv-x="782" 
d="M381 -25q-125 0 -221.5 37.5t-151.5 96.5l123 221q45 -43 105 -73t114 -30q50 0 76.5 17t26.5 47q0 20 -22.5 34.5t-58.5 26t-79.5 25t-87 38t-79.5 58.5t-58.5 92t-22.5 133q0 63 23 119t67.5 100.5t117 70.5t163.5 26q95 0 184 -33.5t158 -89.5l-123 -217
q-32 32 -90.5 60t-122.5 28q-34 0 -57 -15t-23 -38q0 -21 31 -37.5t77.5 -28.5t100.5 -37t100.5 -58.5t77.5 -97.5t31 -149q0 -143 -105 -234.5t-274 -91.5zM389 1098q-67 0 -115.5 47.5t-48.5 114.5t49 115t115 48q68 0 116 -48t48 -115t-48 -114.5t-116 -47.5z" />
    <glyph glyph-name="uni1E6A" unicode="&#x1e6a;" horiz-adv-x="831" 
d="M598 0h-362v1051h-199v315h758v-315h-197v-1051zM416 1440q-67 0 -115.5 47.5t-48.5 114.5t49 115t115 48q68 0 116 -48t48 -115t-48 -114.5t-116 -47.5z" />
    <glyph glyph-name="uni1E6B" unicode="&#x1e6b;" horiz-adv-x="577" 
d="M383 -25q-148 0 -212.5 71t-64.5 220v443h-83v280h83v271h324v-271h115v-280h-115v-373q0 -76 45 -76q34 0 47 16l51 -258q-67 -43 -190 -43zM274 1440q-66 0 -114.5 47.5t-48.5 114.5t48.5 115t114.5 48q68 0 116 -48t48 -115t-48 -114.5t-116 -47.5z" />
    <glyph glyph-name="Wgrave" unicode="&#x1e80;" horiz-adv-x="1400" 
d="M1143 0h-361l-82 709l-84 -709h-358l-250 1366h365l82 -741l108 741h275l110 -741l80 741h365zM807 1481h-199l-229 295h264z" />
    <glyph glyph-name="wgrave" unicode="&#x1e81;" horiz-adv-x="1380" 
d="M1147 0h-340l-117 551l-117 -551h-340l-239 989h332l104 -559l100 559h299l121 -559l103 559h333zM797 1139h-199l-229 295h264z" />
    <glyph glyph-name="Wacute" unicode="&#x1e82;" horiz-adv-x="1400" 
d="M1022 1776l-229 -295h-199l164 295h264zM1143 0h-361l-82 709l-84 -709h-358l-250 1366h365l82 -741l108 741h275l110 -741l80 741h365z" />
    <glyph glyph-name="wacute" unicode="&#x1e83;" horiz-adv-x="1380" 
d="M1012 1434l-230 -295h-198l164 295h264zM1147 0h-340l-117 551l-117 -551h-340l-239 989h332l104 -559l100 559h299l121 -559l103 559h333z" />
    <glyph glyph-name="Wdieresis" unicode="&#x1e84;" horiz-adv-x="1400" 
d="M1053 1602q0 -69 -48.5 -116.5t-117.5 -47.5q-68 0 -116 47.5t-48 116.5t48 116t116 47q69 0 117.5 -47t48.5 -116zM672 1602q0 -68 -47.5 -116t-116.5 -48q-68 0 -116 48t-48 116q0 67 48 115t116 48q69 0 116.5 -47.5t47.5 -115.5zM1143 0h-361l-82 709l-84 -709h-358
l-250 1366h365l82 -741l108 741h275l110 -741l80 741h365z" />
    <glyph glyph-name="wdieresis" unicode="&#x1e85;" horiz-adv-x="1380" 
d="M1044 1260q0 -69 -48 -116.5t-117 -47.5q-68 0 -116 47.5t-48 116.5t48 116t116 47q69 0 117 -47t48 -116zM664 1260q0 -68 -47.5 -116t-116.5 -48q-68 0 -116 48t-48 116q0 67 48 115t116 48q69 0 116.5 -47.5t47.5 -115.5zM1147 0h-340l-117 551l-117 -551h-340
l-239 989h332l104 -559l100 559h299l121 -559l103 559h333z" />
    <glyph glyph-name="uni1EA0" unicode="&#x1ea0;" horiz-adv-x="991" 
d="M1004 0h-371l-29 190h-219l-27 -190h-370l299 1366h415zM563 506l-67 467l-68 -467h135zM498 -416q-67 0 -115.5 47.5t-48.5 114.5t49 115.5t115 48.5q68 0 116 -48t48 -116q0 -67 -48 -114.5t-116 -47.5z" />
    <glyph glyph-name="uni1EA1" unicode="&#x1ea1;" horiz-adv-x="927" 
d="M856 0h-321v96q-30 -53 -95 -87t-127 -34q-122 0 -202 88.5t-80 239.5t79 234.5t203 83.5q63 0 128.5 -30t93.5 -81v86q0 67 -39 106t-107 39q-97 0 -207 -92l-110 225q66 70 177.5 105t213.5 35q175 0 284 -85t109 -251v-678zM438 186q72 0 97 64v94q-25 66 -97 66
q-41 0 -64.5 -29.5t-23.5 -81.5q0 -54 23.5 -83.5t64.5 -29.5zM471 -416q-67 0 -115.5 47.5t-48.5 114.5t49 115.5t115 48.5q67 0 115.5 -48t48.5 -116q0 -67 -48 -114.5t-116 -47.5z" />
    <glyph glyph-name="uni1EA2" unicode="&#x1ea2;" horiz-adv-x="991" 
d="M1004 0h-371l-29 190h-219l-27 -190h-370l299 1366h415zM563 506l-67 467l-68 -467h135zM465 1540l-113 19q12 58 52 89t98 31q62 0 99.5 -36.5t37.5 -108.5q0 -51 -25 -107h-114q28 46 28 99t-32 53q-11 0 -19.5 -11t-11.5 -28z" />
    <glyph glyph-name="uni1EA3" unicode="&#x1ea3;" horiz-adv-x="927" 
d="M856 0h-321v96q-30 -53 -95 -87t-127 -34q-122 0 -202 88.5t-80 239.5t79 234.5t203 83.5q63 0 128.5 -30t93.5 -81v86q0 67 -39 106t-107 39q-97 0 -207 -92l-110 225q66 70 177.5 105t213.5 35q175 0 284 -85t109 -251v-678zM438 186q72 0 97 64v94q-25 66 -97 66
q-41 0 -64.5 -29.5t-23.5 -81.5q0 -54 23.5 -83.5t64.5 -29.5zM432 1192l-113 18q12 58 52 89.5t98 31.5q62 0 99.5 -36.5t37.5 -108.5q0 -53 -24 -107h-115q29 48 29 99q0 53 -33 53q-11 0 -19.5 -11t-11.5 -28z" />
    <glyph glyph-name="uni1EA4" unicode="&#x1ea4;" horiz-adv-x="991" 
d="M764 1397h-172l-98 121l-91 -121h-172l121 221h283zM1004 0h-371l-29 190h-219l-27 -190h-370l299 1366h415zM563 506l-67 467l-68 -467h135zM1143 1726l-230 -221h-198l164 221h264z" />
    <glyph glyph-name="uni1EA5" unicode="&#x1ea5;" horiz-adv-x="927" 
d="M856 0h-321v96q-30 -53 -95 -87t-127 -34q-122 0 -202 88.5t-80 239.5t79 234.5t203 83.5q63 0 128.5 -30t93.5 -81v86q0 67 -39 106t-107 39q-97 0 -207 -92l-110 225q66 70 177.5 105t213.5 35q175 0 284 -85t109 -251v-678zM438 186q72 0 97 64v94q-25 66 -97 66
q-41 0 -64.5 -29.5t-23.5 -81.5q0 -54 23.5 -83.5t64.5 -29.5zM739 1139h-172l-98 161l-90 -161h-172l121 295h282zM1110 1577l-229 -295h-199l164 295h264z" />
    <glyph glyph-name="uni1EA6" unicode="&#x1ea6;" horiz-adv-x="991" 
d="M764 1397h-172l-98 121l-91 -121h-172l121 221h283zM1004 0h-371l-29 190h-219l-27 -190h-370l299 1366h415zM563 506l-67 467l-68 -467h135zM279 1505h-199l-230 221h265z" />
    <glyph glyph-name="uni1EA7" unicode="&#x1ea7;" horiz-adv-x="927" 
d="M856 0h-321v96q-30 -53 -95 -87t-127 -34q-122 0 -202 88.5t-80 239.5t79 234.5t203 83.5q63 0 128.5 -30t93.5 -81v86q0 67 -39 106t-107 39q-97 0 -207 -92l-110 225q66 70 177.5 105t213.5 35q175 0 284 -85t109 -251v-678zM438 186q72 0 97 64v94q-25 66 -97 66
q-41 0 -64.5 -29.5t-23.5 -81.5q0 -54 23.5 -83.5t64.5 -29.5zM739 1139h-172l-98 161l-90 -161h-172l121 295h282zM248 1282h-199l-229 295h264z" />
    <glyph glyph-name="uni1EA8" unicode="&#x1ea8;" horiz-adv-x="991" 
d="M764 1397h-172l-98 121l-91 -121h-172l121 221h283zM1004 0h-371l-29 190h-219l-27 -190h-370l299 1366h415zM563 506l-67 467l-68 -467h135zM782 1610l-112 14q12 44 51.5 67t97.5 23q62 0 99.5 -27t37.5 -81q0 -40 -24 -80h-115q29 36 29 73q0 41 -33 41q-24 0 -31 -30
z" />
    <glyph glyph-name="uni1EA9" unicode="&#x1ea9;" horiz-adv-x="927" 
d="M856 0h-321v96q-30 -53 -95 -87t-127 -34q-122 0 -202 88.5t-80 239.5t79 234.5t203 83.5q63 0 128.5 -30t93.5 -81v86q0 67 -39 106t-107 39q-97 0 -207 -92l-110 225q66 70 177.5 105t213.5 35q175 0 284 -85t109 -251v-678zM438 186q72 0 97 64v94q-25 66 -97 66
q-41 0 -64.5 -29.5t-23.5 -81.5q0 -54 23.5 -83.5t64.5 -29.5zM739 1139h-172l-98 161l-90 -161h-172l121 295h282zM649 1479l-112 18q12 58 51.5 89.5t97.5 31.5q62 0 99.5 -36.5t37.5 -108.5q0 -53 -24 -107h-115q29 48 29 98q0 26 -9.5 40t-23.5 14q-11 0 -19.5 -11
t-11.5 -28z" />
    <glyph glyph-name="uni1EAA" unicode="&#x1eaa;" horiz-adv-x="991" 
d="M764 1389h-172l-98 79l-91 -79h-172l121 147h283zM1004 0h-371l-29 190h-219l-27 -190h-370l299 1366h415zM563 506l-67 467l-68 -467h135zM588 1550q-44 0 -79.5 13.5t-61 27t-46.5 13.5q-49 0 -49 -48h-151q0 62 53.5 100t144.5 38q44 0 79.5 -14t61 -28t46.5 -14
q49 0 49 50h151q0 -62 -53.5 -100t-144.5 -38z" />
    <glyph glyph-name="uni1EAB" unicode="&#x1eab;" horiz-adv-x="927" 
d="M856 0h-321v96q-30 -53 -95 -87t-127 -34q-122 0 -202 88.5t-80 239.5t79 234.5t203 83.5q63 0 128.5 -30t93.5 -81v86q0 67 -39 106t-107 39q-97 0 -207 -92l-110 225q66 70 177.5 105t213.5 35q175 0 284 -85t109 -251v-678zM438 186q72 0 97 64v94q-25 66 -97 66
q-41 0 -64.5 -29.5t-23.5 -81.5q0 -54 23.5 -83.5t64.5 -29.5zM739 1071h-172l-98 162l-90 -162h-172l121 295h282zM559 1397q-35 0 -64.5 17t-47 37t-37.5 37t-37 17q-49 0 -49 -96h-152q0 124 53.5 199t145.5 75q35 0 64.5 -17t47 -38t37.5 -38t37 -17q49 0 49 98h152
q0 -124 -53.5 -199t-145.5 -75z" />
    <glyph glyph-name="uni1EAC" unicode="&#x1eac;" horiz-adv-x="991" 
d="M1004 0h-371l-29 190h-219l-27 -190h-370l299 1366h415zM563 506l-67 467l-68 -467h135zM762 1481h-172l-98 161l-91 -161h-172l121 295h283zM498 -416q-67 0 -115.5 47.5t-48.5 114.5t49 115.5t115 48.5q68 0 116 -48t48 -116q0 -67 -48 -114.5t-116 -47.5z" />
    <glyph glyph-name="uni1EAD" unicode="&#x1ead;" horiz-adv-x="927" 
d="M856 0h-321v96q-30 -53 -95 -87t-127 -34q-122 0 -202 88.5t-80 239.5t79 234.5t203 83.5q63 0 128.5 -30t93.5 -81v86q0 67 -39 106t-107 39q-97 0 -207 -92l-110 225q66 70 177.5 105t213.5 35q175 0 284 -85t109 -251v-678zM438 186q72 0 97 64v94q-25 66 -97 66
q-41 0 -64.5 -29.5t-23.5 -81.5q0 -54 23.5 -83.5t64.5 -29.5zM731 1139h-172l-98 161l-90 -161h-172l120 295h283zM471 -416q-67 0 -115.5 47.5t-48.5 114.5t49 115.5t115 48.5q67 0 115.5 -48t48.5 -116q0 -67 -48 -114.5t-116 -47.5z" />
    <glyph glyph-name="uni1EAE" unicode="&#x1eae;" horiz-adv-x="991" 
d="M1004 0h-371l-29 190h-219l-27 -190h-370l299 1366h415zM563 506l-67 467l-68 -467h135zM813 1696l-229 -158h-199l164 158h264zM758 1473q-94 -78 -264 -78q-168 0 -265 78l144 61q43 -37 121 -37q77 0 120 37z" />
    <glyph glyph-name="uni1EAF" unicode="&#x1eaf;" horiz-adv-x="927" 
d="M856 0h-321v96q-30 -53 -95 -87t-127 -34q-122 0 -202 88.5t-80 239.5t79 234.5t203 83.5q63 0 128.5 -30t93.5 -81v86q0 67 -39 106t-107 39q-97 0 -207 -92l-110 225q66 70 177.5 105t213.5 35q175 0 284 -85t109 -251v-678zM438 186q72 0 97 64v94q-25 66 -97 66
q-41 0 -64.5 -29.5t-23.5 -81.5q0 -54 23.5 -83.5t64.5 -29.5zM782 1612l-229 -295h-199l164 295h264zM729 1186q-44 -63 -113 -98t-151 -35q-79 0 -148.5 35t-115.5 98l143 106q44 -63 121 -63t121 63z" />
    <glyph glyph-name="uni1EB0" unicode="&#x1eb0;" horiz-adv-x="991" 
d="M1004 0h-371l-29 190h-219l-27 -190h-370l299 1366h415zM563 506l-67 467l-68 -467h135zM608 1538h-198l-230 158h264zM758 1470q-93 -77 -264 -77q-169 0 -265 77l144 62q43 -37 121 -37q77 0 120 37z" />
    <glyph glyph-name="uni1EB1" unicode="&#x1eb1;" horiz-adv-x="927" 
d="M856 0h-321v96q-30 -53 -95 -87t-127 -34q-122 0 -202 88.5t-80 239.5t79 234.5t203 83.5q63 0 128.5 -30t93.5 -81v86q0 67 -39 106t-107 39q-97 0 -207 -92l-110 225q66 70 177.5 105t213.5 35q175 0 284 -85t109 -251v-678zM438 186q72 0 97 64v94q-25 66 -97 66
q-41 0 -64.5 -29.5t-23.5 -81.5q0 -54 23.5 -83.5t64.5 -29.5zM575 1317h-198l-230 295h265zM729 1186q-44 -63 -113 -98t-151 -35q-79 0 -148.5 35t-115.5 98l143 106q44 -63 121 -63t121 63z" />
    <glyph glyph-name="uni1EB2" unicode="&#x1eb2;" horiz-adv-x="991" 
d="M1004 0h-371l-29 190h-219l-27 -190h-370l299 1366h415zM563 506l-67 467l-68 -467h135zM467 1597l-113 11q12 31 52.5 48t97.5 17q62 0 99.5 -20t37.5 -60q0 -26 -25 -55h-114q28 22 28 51t-32 29q-24 0 -31 -21zM758 1470q-93 -77 -264 -77q-169 0 -265 77l144 62
q43 -37 121 -37q77 0 120 37z" />
    <glyph glyph-name="uni1EB3" unicode="&#x1eb3;" horiz-adv-x="927" 
d="M856 0h-321v96q-30 -53 -95 -87t-127 -34q-122 0 -202 88.5t-80 239.5t79 234.5t203 83.5q63 0 128.5 -30t93.5 -81v86q0 67 -39 106t-107 39q-97 0 -207 -92l-110 225q66 70 177.5 105t213.5 35q175 0 284 -85t109 -251v-678zM438 186q72 0 97 64v94q-25 66 -97 66
q-41 0 -64.5 -29.5t-23.5 -81.5q0 -54 23.5 -83.5t64.5 -29.5zM434 1432l-112 18q12 58 51.5 89.5t97.5 31.5q62 0 99.5 -37t37.5 -109q0 -52 -24 -106h-115q29 48 29 98q0 53 -33 53q-24 0 -31 -38zM729 1186q-44 -63 -113 -98t-151 -35q-79 0 -148.5 35t-115.5 98l143 106
q44 -63 121 -63t121 63z" />
    <glyph glyph-name="uni1EB4" unicode="&#x1eb4;" horiz-adv-x="991" 
d="M1004 0h-371l-29 190h-219l-27 -190h-370l299 1366h415zM563 506l-67 467l-68 -467h135zM762 1468q-93 -71 -264 -71q-169 0 -265 71l144 58q47 -35 121 -35q73 0 120 35zM588 1550q-44 0 -79.5 13.5t-61 27t-46.5 13.5q-49 0 -49 -48h-151q0 62 53.5 100t144.5 38
q44 0 79.5 -14t61 -28t46.5 -14q49 0 49 50h151q0 -62 -53.5 -100t-144.5 -38z" />
    <glyph glyph-name="uni1EB5" unicode="&#x1eb5;" horiz-adv-x="927" 
d="M856 0h-321v96q-30 -53 -95 -87t-127 -34q-122 0 -202 88.5t-80 239.5t79 234.5t203 83.5q63 0 128.5 -30t93.5 -81v86q0 67 -39 106t-107 39q-97 0 -207 -92l-110 225q66 70 177.5 105t213.5 35q175 0 284 -85t109 -251v-678zM438 186q72 0 97 64v94q-25 66 -97 66
q-41 0 -64.5 -29.5t-23.5 -81.5q0 -54 23.5 -83.5t64.5 -29.5zM729 1186q-44 -63 -113 -98t-151 -35q-79 0 -148.5 35t-115.5 98l143 106q44 -63 121 -63t121 63zM561 1331q-35 0 -64.5 17t-47 37.5t-37.5 37.5t-37 17q-49 0 -49 -97h-152q0 124 54 199.5t145 75.5
q35 0 64.5 -17.5t47 -38t37.5 -38t37 -17.5q49 0 49 99h152q0 -124 -54 -199.5t-145 -75.5z" />
    <glyph glyph-name="uni1EB6" unicode="&#x1eb6;" horiz-adv-x="991" 
d="M1004 0h-371l-29 190h-219l-27 -190h-370l299 1366h415zM563 506l-67 467l-68 -467h135zM498 -416q-67 0 -115.5 47.5t-48.5 114.5t49 115.5t115 48.5q68 0 116 -48t48 -116q0 -67 -48 -114.5t-116 -47.5zM758 1577q-44 -63 -113 -98t-151 -35q-80 0 -149.5 35t-115.5 98
l144 106q44 -63 121 -63q76 0 120 63z" />
    <glyph glyph-name="uni1EB7" unicode="&#x1eb7;" horiz-adv-x="927" 
d="M856 0h-321v96q-30 -53 -95 -87t-127 -34q-122 0 -202 88.5t-80 239.5t79 234.5t203 83.5q63 0 128.5 -30t93.5 -81v86q0 67 -39 106t-107 39q-97 0 -207 -92l-110 225q66 70 177.5 105t213.5 35q175 0 284 -85t109 -251v-678zM438 186q72 0 97 64v94q-25 66 -97 66
q-41 0 -64.5 -29.5t-23.5 -81.5q0 -54 23.5 -83.5t64.5 -29.5zM471 -416q-67 0 -115.5 47.5t-48.5 114.5t49 115.5t115 48.5q67 0 115.5 -48t48.5 -116q0 -67 -48 -114.5t-116 -47.5zM729 1235q-44 -63 -113 -98t-151 -35q-79 0 -148.5 35t-115.5 98l143 106q44 -63 121 -63
t121 63z" />
    <glyph glyph-name="uni1EB8" unicode="&#x1eb8;" horiz-adv-x="829" 
d="M772 0h-688v1366h688v-315h-326v-201h312v-315h-312v-220h326v-315zM436 -416q-67 0 -115.5 47.5t-48.5 114.5t49 115.5t115 48.5q68 0 116 -48t48 -116q0 -67 -48 -114.5t-116 -47.5z" />
    <glyph glyph-name="uni1EB9" unicode="&#x1eb9;" horiz-adv-x="890" 
d="M477 -25q-208 0 -326 142t-118 379q0 146 48 261.5t146.5 186t233.5 70.5q136 0 228 -66t133.5 -179t41.5 -267v-113h-522q2 -66 44.5 -109.5t127.5 -43.5q42 0 86.5 20t79.5 55l141 -184q-65 -74 -158 -113t-186 -39zM559 608q0 146 -108 146q-109 0 -109 -146h217z
M459 -416q-67 0 -115.5 47.5t-48.5 114.5t49 115.5t115 48.5q67 0 115.5 -48t48.5 -116q0 -67 -48 -114.5t-116 -47.5z" />
    <glyph glyph-name="uni1EBA" unicode="&#x1eba;" horiz-adv-x="829" 
d="M772 0h-688v1366h688v-315h-326v-201h312v-315h-312v-220h326v-315zM383 1540l-113 19q12 58 52 89t98 31q62 0 99.5 -36.5t37.5 -108.5q0 -51 -25 -107h-114q28 46 28 99t-32 53q-11 0 -19.5 -11t-11.5 -28z" />
    <glyph glyph-name="uni1EBB" unicode="&#x1ebb;" horiz-adv-x="890" 
d="M477 -25q-208 0 -326 142t-118 379q0 146 48 261.5t146.5 186t233.5 70.5q136 0 228 -66t133.5 -179t41.5 -267v-113h-522q2 -66 44.5 -109.5t127.5 -43.5q42 0 86.5 20t79.5 55l141 -184q-65 -74 -158 -113t-186 -39zM559 608q0 146 -108 146q-109 0 -109 -146h217z
M414 1192l-113 18q12 58 52 89.5t98 31.5q62 0 99.5 -36.5t37.5 -108.5q0 -51 -25 -107h-114q28 46 28 99t-33 53q-23 0 -30 -39z" />
    <glyph glyph-name="uni1EBC" unicode="&#x1ebc;" horiz-adv-x="829" 
d="M772 0h-688v1366h688v-315h-326v-201h312v-315h-312v-220h326v-315zM528 1477q-35 0 -64.5 17t-47 37t-37.5 37t-37 17q-49 0 -49 -96h-152q0 124 53.5 199t145.5 75q35 0 64.5 -17t47 -38t37.5 -38t37 -17q49 0 49 98h152q0 -124 -53.5 -199t-145.5 -75z" />
    <glyph glyph-name="uni1EBD" unicode="&#x1ebd;" horiz-adv-x="890" 
d="M477 -25q-208 0 -326 142t-118 379q0 146 48 261.5t146.5 186t233.5 70.5q136 0 228 -66t133.5 -179t41.5 -267v-113h-522q2 -66 44.5 -109.5t127.5 -43.5q42 0 86.5 20t79.5 55l141 -184q-65 -74 -158 -113t-186 -39zM559 608q0 146 -108 146q-109 0 -109 -146h217z
M541 1135q-35 0 -65 17t-47 37t-37.5 37t-37.5 17q-49 0 -49 -96h-151q0 124 53.5 199t144.5 75q35 0 65 -17t47 -38t37.5 -38t37.5 -17q49 0 49 98h151q0 -124 -53.5 -199t-144.5 -75z" />
    <glyph glyph-name="uni1EBE" unicode="&#x1ebe;" horiz-adv-x="829" 
d="M696 1397h-172l-98 121l-90 -121h-172l121 221h282zM1075 1726l-229 -221h-199l164 221h264zM772 0h-688v1366h688v-315h-326v-201h312v-315h-312v-220h326v-315z" />
    <glyph glyph-name="uni1EBF" unicode="&#x1ebf;" horiz-adv-x="890" 
d="M723 1139h-172l-98 161l-91 -161h-172l121 295h283zM1096 1577l-230 -295h-198l163 295h265zM477 -25q-208 0 -326 142t-118 379q0 146 48 261.5t146.5 186t233.5 70.5q136 0 228 -66t133.5 -179t41.5 -267v-113h-522q2 -66 44.5 -109.5t127.5 -43.5q42 0 86.5 20
t79.5 55l141 -184q-65 -74 -158 -113t-186 -39zM559 608q0 146 -108 146q-109 0 -109 -146h217z" />
    <glyph glyph-name="uni1EC0" unicode="&#x1ec0;" horiz-adv-x="829" 
d="M698 1397h-172l-98 121l-90 -121h-172l121 221h282zM772 0h-688v1366h688v-315h-326v-201h312v-315h-312v-220h326v-315zM213 1505h-199l-229 221h264z" />
    <glyph glyph-name="uni1EC1" unicode="&#x1ec1;" horiz-adv-x="890" 
d="M723 1139h-172l-98 161l-91 -161h-172l121 295h283zM477 -25q-208 0 -326 142t-118 379q0 146 48 261.5t146.5 186t233.5 70.5q136 0 228 -66t133.5 -179t41.5 -267v-113h-522q2 -66 44.5 -109.5t127.5 -43.5q42 0 86.5 20t79.5 55l141 -184q-65 -74 -158 -113t-186 -39z
M559 608q0 146 -108 146q-109 0 -109 -146h217zM229 1282h-198l-230 295h265z" />
    <glyph glyph-name="uni1EC2" unicode="&#x1ec2;" horiz-adv-x="829" 
d="M696 1397h-172l-98 121l-90 -121h-172l121 221h282zM772 0h-688v1366h688v-315h-326v-201h312v-315h-312v-220h326v-315zM715 1610l-113 14q12 43 52 66.5t98 23.5q62 0 99.5 -27t37.5 -81q0 -38 -25 -80h-114q28 35 28 73q0 41 -33 41q-23 0 -30 -30z" />
    <glyph glyph-name="uni1EC3" unicode="&#x1ec3;" horiz-adv-x="890" 
d="M721 1139h-172l-98 161l-91 -161h-172l121 295h283zM477 -25q-208 0 -326 142t-118 379q0 146 48 261.5t146.5 186t233.5 70.5q136 0 228 -66t133.5 -179t41.5 -267v-113h-522q2 -66 44.5 -109.5t127.5 -43.5q42 0 86.5 20t79.5 55l141 -184q-65 -74 -158 -113t-186 -39z
M559 608q0 146 -108 146q-109 0 -109 -146h217zM631 1479l-113 18q12 58 52 89.5t98 31.5q62 0 99.5 -36.5t37.5 -108.5q0 -51 -25 -107h-114q28 46 28 98q0 54 -32 54q-11 0 -19.5 -11t-11.5 -28z" />
    <glyph glyph-name="uni1EC4" unicode="&#x1ec4;" horiz-adv-x="829" 
d="M696 1389h-172l-98 79l-90 -79h-172l121 147h282zM772 0h-688v1366h688v-315h-326v-201h312v-315h-312v-220h326v-315zM520 1550q-44 0 -79 13.5t-60.5 27t-46.5 13.5q-49 0 -49 -48h-152q0 62 54 100t145 38q44 0 79 -14t60.5 -28t46.5 -14q49 0 49 50h152
q0 -62 -54 -100t-145 -38z" />
    <glyph glyph-name="uni1EC5" unicode="&#x1ec5;" horiz-adv-x="890" 
d="M717 1071h-172l-99 162l-90 -162h-172l121 295h283zM477 -25q-208 0 -326 142t-118 379q0 146 48 261.5t146.5 186t233.5 70.5q136 0 228 -66t133.5 -179t41.5 -267v-113h-522q2 -66 44.5 -109.5t127.5 -43.5q42 0 86.5 20t79.5 55l141 -184q-65 -74 -158 -113t-186 -39z
M559 608q0 146 -108 146q-109 0 -109 -146h217zM537 1397q-35 0 -65 17t-47 37t-37.5 37t-37.5 17q-49 0 -49 -96h-151q0 124 53.5 199t144.5 75q35 0 65 -17t47 -38t37.5 -38t37.5 -17q49 0 49 98h151q0 -124 -53.5 -199t-144.5 -75z" />
    <glyph glyph-name="uni1EC6" unicode="&#x1ec6;" horiz-adv-x="829" 
d="M694 1481h-172l-98 161l-90 -161h-172l121 295h282zM772 0h-688v1366h688v-315h-326v-201h312v-315h-312v-220h326v-315zM436 -416q-67 0 -115.5 47.5t-48.5 114.5t49 115.5t115 48.5q68 0 116 -48t48 -116q0 -67 -48 -114.5t-116 -47.5z" />
    <glyph glyph-name="uni1EC7" unicode="&#x1ec7;" horiz-adv-x="890" 
d="M723 1139h-172l-98 161l-91 -161h-172l121 295h283zM477 -25q-208 0 -326 142t-118 379q0 146 48 261.5t146.5 186t233.5 70.5q136 0 228 -66t133.5 -179t41.5 -267v-113h-522q2 -66 44.5 -109.5t127.5 -43.5q42 0 86.5 20t79.5 55l141 -184q-65 -74 -158 -113t-186 -39z
M559 608q0 146 -108 146q-109 0 -109 -146h217zM459 -416q-67 0 -115.5 47.5t-48.5 114.5t49 115.5t115 48.5q67 0 115.5 -48t48.5 -116q0 -67 -48 -114.5t-116 -47.5z" />
    <glyph glyph-name="uni1EC8" unicode="&#x1ec8;" horiz-adv-x="530" 
d="M446 0h-362v1366h362v-1366zM233 1540l-112 19q12 58 51.5 89t97.5 31q62 0 100 -36.5t38 -108.5q0 -51 -25 -107h-115q29 48 29 99q0 53 -33 53q-11 0 -19.5 -11t-11.5 -28z" />
    <glyph glyph-name="uni1EC9" unicode="&#x1ec9;" horiz-adv-x="466" 
d="M395 0h-323v989h323v-989zM203 1192l-113 18q12 58 52 89.5t98 31.5q62 0 99.5 -36.5t37.5 -108.5q0 -51 -25 -107h-114q28 46 28 99t-33 53q-23 0 -30 -39z" />
    <glyph glyph-name="uni1ECA" unicode="&#x1eca;" horiz-adv-x="530" 
d="M446 0h-362v1366h362v-1366zM268 -416q-67 0 -115.5 47.5t-48.5 114.5t49 115.5t115 48.5q68 0 116 -48t48 -116q0 -67 -48 -114.5t-116 -47.5z" />
    <glyph glyph-name="uni1ECB" unicode="&#x1ecb;" horiz-adv-x="466" 
d="M233 1075q-76 0 -130 54t-54 131t54 131.5t130 54.5t130.5 -54.5t54.5 -131.5q0 -76 -54 -130.5t-131 -54.5zM395 0h-323v989h323v-989zM238 -416q-67 0 -115.5 47.5t-48.5 114.5t49 115.5t115 48.5q67 0 115 -48t48 -116q0 -67 -47.5 -114.5t-115.5 -47.5z" />
    <glyph glyph-name="uni1ECC" unicode="&#x1ecc;" horiz-adv-x="1069" 
d="M535 -25q-166 0 -279.5 91.5t-166 248t-52.5 367.5t52.5 367.5t166 248t279.5 91.5t279 -91.5t165.5 -247.5t52.5 -368t-52.5 -368t-165.5 -247.5t-279 -91.5zM535 295q129 0 129 387t-129 387t-129 -387t129 -387zM541 -416q-67 0 -115.5 47.5t-48.5 114.5t49 115.5
t115 48.5q67 0 115.5 -48t48.5 -116q0 -67 -48 -114.5t-116 -47.5z" />
    <glyph glyph-name="uni1ECD" unicode="&#x1ecd;" horiz-adv-x="923" 
d="M461 -25q-106 0 -189 42t-134.5 115t-78 165.5t-26.5 198.5t26.5 198t78 164t134.5 114t189 42t190.5 -42t136 -114t78.5 -164t27 -198q0 -84 -16.5 -160t-51.5 -142.5t-85 -115t-121.5 -76t-157.5 -27.5zM461 260q54 0 77 60.5t23 175.5q0 113 -23 173t-77 60
q-53 0 -74.5 -59.5t-21.5 -173.5q0 -115 21.5 -175.5t74.5 -60.5zM463 -416q-67 0 -115.5 47.5t-48.5 114.5t49 115.5t115 48.5q67 0 115.5 -48t48.5 -116q0 -67 -48 -114.5t-116 -47.5z" />
    <glyph glyph-name="uni1ECE" unicode="&#x1ece;" horiz-adv-x="1069" 
d="M535 -25q-166 0 -279.5 91.5t-166 248t-52.5 367.5t52.5 367.5t166 248t279.5 91.5t279 -91.5t165.5 -247.5t52.5 -368t-52.5 -368t-165.5 -247.5t-279 -91.5zM535 295q129 0 129 387t-129 387t-129 -387t129 -387zM504 1540l-113 19q12 58 52 89t98 31q62 0 99.5 -36.5
t37.5 -108.5q0 -51 -25 -107h-114q28 46 28 99t-32 53q-11 0 -19.5 -11t-11.5 -28z" />
    <glyph glyph-name="uni1ECF" unicode="&#x1ecf;" horiz-adv-x="923" 
d="M461 -25q-106 0 -189 42t-134.5 115t-78 165.5t-26.5 198.5t26.5 198t78 164t134.5 114t189 42t190.5 -42t136 -114t78.5 -164t27 -198q0 -84 -16.5 -160t-51.5 -142.5t-85 -115t-121.5 -76t-157.5 -27.5zM461 260q54 0 77 60.5t23 175.5q0 113 -23 173t-77 60
q-53 0 -74.5 -59.5t-21.5 -173.5q0 -115 21.5 -175.5t74.5 -60.5zM434 1192l-112 18q12 58 51.5 89.5t97.5 31.5q62 0 99.5 -36.5t37.5 -108.5q0 -53 -24 -107h-115q29 48 29 99q0 53 -33 53q-11 0 -19.5 -11t-11.5 -28z" />
    <glyph glyph-name="uni1ED0" unicode="&#x1ed0;" horiz-adv-x="1069" 
d="M799 1397h-172l-99 121l-90 -121h-172l121 221h283zM1178 1726l-230 -221h-198l163 221h265zM535 -25q-166 0 -279.5 91.5t-166 248t-52.5 367.5t52.5 367.5t166 248t279.5 91.5t279 -91.5t165.5 -247.5t52.5 -368t-52.5 -368t-165.5 -247.5t-279 -91.5zM535 295
q129 0 129 387t-129 387t-129 -387t129 -387z" />
    <glyph glyph-name="uni1ED1" unicode="&#x1ed1;" horiz-adv-x="923" 
d="M723 1139h-172l-98 161l-91 -161h-172l121 295h283zM1096 1577l-230 -295h-198l163 295h265zM461 -25q-106 0 -189 42t-134.5 115t-78 165.5t-26.5 198.5t26.5 198t78 164t134.5 114t189 42t190.5 -42t136 -114t78.5 -164t27 -198q0 -84 -16.5 -160t-51.5 -142.5
t-85 -115t-121.5 -76t-157.5 -27.5zM461 260q54 0 77 60.5t23 175.5q0 113 -23 173t-77 60q-53 0 -74.5 -59.5t-21.5 -173.5q0 -115 21.5 -175.5t74.5 -60.5z" />
    <glyph glyph-name="uni1ED2" unicode="&#x1ed2;" horiz-adv-x="1069" 
d="M795 1397h-172l-99 121l-90 -121h-172l121 221h283zM535 -25q-166 0 -279.5 91.5t-166 248t-52.5 367.5t52.5 367.5t166 248t279.5 91.5t279 -91.5t165.5 -247.5t52.5 -368t-52.5 -368t-165.5 -247.5t-279 -91.5zM535 295q129 0 129 387t-129 387t-129 -387t129 -387z
M309 1505h-198l-230 221h264z" />
    <glyph glyph-name="uni1ED3" unicode="&#x1ed3;" horiz-adv-x="923" 
d="M723 1139h-172l-98 161l-91 -161h-172l121 295h283zM461 -25q-106 0 -189 42t-134.5 115t-78 165.5t-26.5 198.5t26.5 198t78 164t134.5 114t189 42t190.5 -42t136 -114t78.5 -164t27 -198q0 -84 -16.5 -160t-51.5 -142.5t-85 -115t-121.5 -76t-157.5 -27.5zM461 260
q54 0 77 60.5t23 175.5q0 113 -23 173t-77 60q-53 0 -74.5 -59.5t-21.5 -173.5q0 -115 21.5 -175.5t74.5 -60.5zM229 1282h-198l-230 295h265z" />
    <glyph glyph-name="uni1ED4" unicode="&#x1ed4;" horiz-adv-x="1069" 
d="M793 1397h-172l-99 121l-90 -121h-172l121 221h283zM535 -25q-166 0 -279.5 91.5t-166 248t-52.5 367.5t52.5 367.5t166 248t279.5 91.5t279 -91.5t165.5 -247.5t52.5 -368t-52.5 -368t-165.5 -247.5t-279 -91.5zM535 295q129 0 129 387t-129 387t-129 -387t129 -387z
M811 1610l-113 14q12 43 52 66.5t98 23.5q62 0 99.5 -27t37.5 -81q0 -40 -24 -80h-115q28 35 28 73q0 41 -32 41q-24 0 -31 -30z" />
    <glyph glyph-name="uni1ED5" unicode="&#x1ed5;" horiz-adv-x="923" 
d="M725 1139h-172l-98 161l-90 -161h-172l120 295h283zM461 -25q-106 0 -189 42t-134.5 115t-78 165.5t-26.5 198.5t26.5 198t78 164t134.5 114t189 42t190.5 -42t136 -114t78.5 -164t27 -198q0 -84 -16.5 -160t-51.5 -142.5t-85 -115t-121.5 -76t-157.5 -27.5zM461 260
q54 0 77 60.5t23 175.5q0 113 -23 173t-77 60q-53 0 -74.5 -59.5t-21.5 -173.5q0 -115 21.5 -175.5t74.5 -60.5zM635 1479l-113 18q12 58 52 89.5t98 31.5q62 0 99.5 -36.5t37.5 -108.5q0 -51 -25 -107h-114q28 46 28 98q0 54 -32 54q-11 0 -19.5 -11t-11.5 -28z" />
    <glyph glyph-name="uni1ED6" unicode="&#x1ed6;" horiz-adv-x="1069" 
d="M795 1389h-172l-99 79l-90 -79h-172l121 147h283zM535 -25q-166 0 -279.5 91.5t-166 248t-52.5 367.5t52.5 367.5t166 248t279.5 91.5t279 -91.5t165.5 -247.5t52.5 -368t-52.5 -368t-165.5 -247.5t-279 -91.5zM535 295q129 0 129 387t-129 387t-129 -387t129 -387z
M618 1550q-44 0 -79 13.5t-60.5 27t-46.5 13.5q-49 0 -49 -48h-152q0 62 54 100t145 38q44 0 79 -14t60.5 -28t46.5 -14q50 0 50 50h151q0 -62 -54 -100t-145 -38z" />
    <glyph glyph-name="uni1ED7" unicode="&#x1ed7;" horiz-adv-x="923" 
d="M729 1071h-172l-98 162l-90 -162h-172l120 295h283zM461 -25q-106 0 -189 42t-134.5 115t-78 165.5t-26.5 198.5t26.5 198t78 164t134.5 114t189 42t190.5 -42t136 -114t78.5 -164t27 -198q0 -84 -16.5 -160t-51.5 -142.5t-85 -115t-121.5 -76t-157.5 -27.5zM461 260
q54 0 77 60.5t23 175.5q0 113 -23 173t-77 60q-53 0 -74.5 -59.5t-21.5 -173.5q0 -115 21.5 -175.5t74.5 -60.5zM549 1397q-35 0 -65 17t-47 37t-37.5 37t-37.5 17q-49 0 -49 -96h-151q0 124 53.5 199t144.5 75q35 0 65 -17t47 -38t37.5 -38t37.5 -17q49 0 49 98h152
q0 -124 -53.5 -199t-145.5 -75z" />
    <glyph glyph-name="uni1ED8" unicode="&#x1ed8;" horiz-adv-x="1069" 
d="M803 1481h-172l-99 161l-90 -161h-172l121 295h283zM535 -25q-166 0 -279.5 91.5t-166 248t-52.5 367.5t52.5 367.5t166 248t279.5 91.5t279 -91.5t165.5 -247.5t52.5 -368t-52.5 -368t-165.5 -247.5t-279 -91.5zM535 295q129 0 129 387t-129 387t-129 -387t129 -387z
M541 -416q-67 0 -115.5 47.5t-48.5 114.5t49 115.5t115 48.5q67 0 115.5 -48t48.5 -116q0 -67 -48 -114.5t-116 -47.5z" />
    <glyph glyph-name="uni1ED9" unicode="&#x1ed9;" horiz-adv-x="923" 
d="M729 1139h-172l-98 161l-90 -161h-172l120 295h283zM461 -25q-106 0 -189 42t-134.5 115t-78 165.5t-26.5 198.5t26.5 198t78 164t134.5 114t189 42t190.5 -42t136 -114t78.5 -164t27 -198q0 -84 -16.5 -160t-51.5 -142.5t-85 -115t-121.5 -76t-157.5 -27.5zM461 260
q54 0 77 60.5t23 175.5q0 113 -23 173t-77 60q-53 0 -74.5 -59.5t-21.5 -173.5q0 -115 21.5 -175.5t74.5 -60.5zM463 -416q-67 0 -115.5 47.5t-48.5 114.5t49 115.5t115 48.5q67 0 115.5 -48t48.5 -116q0 -67 -48 -114.5t-116 -47.5z" />
    <glyph glyph-name="uni1EDA" unicode="&#x1eda;" horiz-adv-x="1069" 
d="M856 1776l-229 -295h-199l164 295h264zM535 -25q-166 0 -279.5 91.5t-166 248t-52.5 367.5t52.5 367.5t166 248t279.5 91.5q241 0 372 -193q51 47 62 94q-6 -6 -31 -6q-47 0 -78 32.5t-31 84.5q0 54 37 91.5t90 37.5q60 0 103 -45t43 -119q0 -157 -141 -272
q71 -164 71 -412q0 -212 -52.5 -368t-165.5 -247.5t-279 -91.5zM535 295q129 0 129 387t-129 387t-129 -387t129 -387z" />
    <glyph glyph-name="uni1EDB" unicode="&#x1edb;" horiz-adv-x="923" 
d="M782 1434l-229 -295h-199l164 295h264zM920 1092q0 -143 -121 -254q94 -137 94 -342q0 -84 -16.5 -160t-51.5 -142.5t-85 -115t-121.5 -76t-157.5 -27.5q-106 0 -189 42t-134.5 115t-78 165.5t-26.5 198.5t26.5 198t78 164t134.5 114t189 42q154 0 264 -92q50 50 61 94
q-6 -6 -30 -6q-47 0 -78 32t-31 84q0 54 37 91.5t90 37.5q60 0 103 -44.5t43 -118.5zM461 260q54 0 77 60.5t23 175.5q0 113 -23 173t-77 60q-53 0 -74.5 -59.5t-21.5 -173.5q0 -115 21.5 -175.5t74.5 -60.5z" />
    <glyph glyph-name="uni1EDC" unicode="&#x1edc;" horiz-adv-x="1069" 
d="M535 -25q-166 0 -279.5 91.5t-166 248t-52.5 367.5t52.5 367.5t166 248t279.5 91.5q241 0 372 -193q51 47 62 94q-6 -6 -31 -6q-47 0 -78 32.5t-31 84.5q0 54 37 91.5t90 37.5q60 0 103 -45t43 -119q0 -157 -141 -272q71 -164 71 -412q0 -212 -52.5 -368t-165.5 -247.5
t-279 -91.5zM535 295q129 0 129 387t-129 387t-129 -387t129 -387zM641 1481h-199l-229 295h264z" />
    <glyph glyph-name="uni1EDD" unicode="&#x1edd;" horiz-adv-x="923" 
d="M920 1092q0 -143 -121 -254q94 -137 94 -342q0 -84 -16.5 -160t-51.5 -142.5t-85 -115t-121.5 -76t-157.5 -27.5q-106 0 -189 42t-134.5 115t-78 165.5t-26.5 198.5t26.5 198t78 164t134.5 114t189 42q154 0 264 -92q50 50 61 94q-6 -6 -30 -6q-47 0 -78 32t-31 84
q0 54 37 91.5t90 37.5q60 0 103 -44.5t43 -118.5zM461 260q54 0 77 60.5t23 175.5q0 113 -23 173t-77 60q-53 0 -74.5 -59.5t-21.5 -173.5q0 -115 21.5 -175.5t74.5 -60.5zM567 1139h-198l-230 295h264z" />
    <glyph glyph-name="uni1EDE" unicode="&#x1ede;" horiz-adv-x="1069" 
d="M535 -25q-166 0 -279.5 91.5t-166 248t-52.5 367.5t52.5 367.5t166 248t279.5 91.5q241 0 372 -193q51 47 62 94q-6 -6 -31 -6q-47 0 -78 32.5t-31 84.5q0 54 37 91.5t90 37.5q60 0 103 -45t43 -119q0 -157 -141 -272q71 -164 71 -412q0 -212 -52.5 -368t-165.5 -247.5
t-279 -91.5zM535 295q129 0 129 387t-129 387t-129 -387t129 -387zM504 1540l-113 19q12 58 52 89t98 31q62 0 99.5 -36.5t37.5 -108.5q0 -51 -25 -107h-114q28 46 28 99t-32 53q-11 0 -19.5 -11t-11.5 -28z" />
    <glyph glyph-name="uni1EDF" unicode="&#x1edf;" horiz-adv-x="923" 
d="M920 1092q0 -143 -121 -254q94 -137 94 -342q0 -84 -16.5 -160t-51.5 -142.5t-85 -115t-121.5 -76t-157.5 -27.5q-106 0 -189 42t-134.5 115t-78 165.5t-26.5 198.5t26.5 198t78 164t134.5 114t189 42q154 0 264 -92q50 50 61 94q-6 -6 -30 -6q-47 0 -78 32t-31 84
q0 54 37 91.5t90 37.5q60 0 103 -44.5t43 -118.5zM461 260q54 0 77 60.5t23 175.5q0 113 -23 173t-77 60q-53 0 -74.5 -59.5t-21.5 -173.5q0 -115 21.5 -175.5t74.5 -60.5zM430 1192l-113 18q12 58 52 89.5t98 31.5q62 0 99.5 -36.5t37.5 -108.5q0 -53 -24 -107h-115
q29 48 29 99q0 53 -33 53q-11 0 -19.5 -11t-11.5 -28z" />
    <glyph glyph-name="uni1EE0" unicode="&#x1ee0;" horiz-adv-x="1069" 
d="M535 -25q-166 0 -279.5 91.5t-166 248t-52.5 367.5t52.5 367.5t166 248t279.5 91.5q241 0 372 -193q51 47 62 94q-6 -6 -31 -6q-47 0 -78 32.5t-31 84.5q0 54 37 91.5t90 37.5q60 0 103 -45t43 -119q0 -157 -141 -272q71 -164 71 -412q0 -212 -52.5 -368t-165.5 -247.5
t-279 -91.5zM535 295q129 0 129 387t-129 387t-129 -387t129 -387zM631 1477q-35 0 -65 17t-47 37t-37.5 37t-37.5 17q-49 0 -49 -96h-151q0 124 53.5 199t144.5 75q35 0 65 -17t47 -38t37.5 -38t37.5 -17q49 0 49 98h151q0 -124 -53.5 -199t-144.5 -75z" />
    <glyph glyph-name="uni1EE1" unicode="&#x1ee1;" horiz-adv-x="923" 
d="M920 1092q0 -143 -121 -254q94 -137 94 -342q0 -84 -16.5 -160t-51.5 -142.5t-85 -115t-121.5 -76t-157.5 -27.5q-106 0 -189 42t-134.5 115t-78 165.5t-26.5 198.5t26.5 198t78 164t134.5 114t189 42q154 0 264 -92q50 50 61 94q-6 -6 -30 -6q-47 0 -78 32t-31 84
q0 54 37 91.5t90 37.5q60 0 103 -44.5t43 -118.5zM461 260q54 0 77 60.5t23 175.5q0 113 -23 173t-77 60q-53 0 -74.5 -59.5t-21.5 -173.5q0 -115 21.5 -175.5t74.5 -60.5zM496 1135q-35 0 -65 17t-47 37t-37.5 37t-37.5 17q-49 0 -49 -96h-151q0 124 53.5 199t144.5 75
q35 0 65 -17t47 -38t37.5 -38t37.5 -17q49 0 49 98h151q0 -124 -53.5 -199t-144.5 -75z" />
    <glyph glyph-name="uni1EE2" unicode="&#x1ee2;" horiz-adv-x="1069" 
d="M535 -25q-166 0 -279.5 91.5t-166 248t-52.5 367.5t52.5 367.5t166 248t279.5 91.5q241 0 372 -193q51 47 62 94q-6 -6 -31 -6q-47 0 -78 32.5t-31 84.5q0 54 37 91.5t90 37.5q60 0 103 -45t43 -119q0 -157 -141 -272q71 -164 71 -412q0 -212 -52.5 -368t-165.5 -247.5
t-279 -91.5zM535 295q129 0 129 387t-129 387t-129 -387t129 -387zM541 -416q-67 0 -115.5 47.5t-48.5 114.5t49 115.5t115 48.5q67 0 115.5 -48t48.5 -116q0 -67 -48 -114.5t-116 -47.5z" />
    <glyph glyph-name="uni1EE3" unicode="&#x1ee3;" horiz-adv-x="923" 
d="M920 1092q0 -143 -121 -254q94 -137 94 -342q0 -84 -16.5 -160t-51.5 -142.5t-85 -115t-121.5 -76t-157.5 -27.5q-106 0 -189 42t-134.5 115t-78 165.5t-26.5 198.5t26.5 198t78 164t134.5 114t189 42q154 0 264 -92q50 50 61 94q-6 -6 -30 -6q-47 0 -78 32t-31 84
q0 54 37 91.5t90 37.5q60 0 103 -44.5t43 -118.5zM461 260q54 0 77 60.5t23 175.5q0 113 -23 173t-77 60q-53 0 -74.5 -59.5t-21.5 -173.5q0 -115 21.5 -175.5t74.5 -60.5zM463 -416q-67 0 -115.5 47.5t-48.5 114.5t49 115.5t115 48.5q67 0 115.5 -48t48.5 -116
q0 -67 -48 -114.5t-116 -47.5z" />
    <glyph glyph-name="uni1EE4" unicode="&#x1ee4;" horiz-adv-x="1089" 
d="M545 -25q-87 0 -167.5 27.5t-147 81.5t-106.5 145t-40 207v930h362v-948q0 -127 99 -127q98 0 98 127v948h363v-928q0 -94 -26.5 -172t-71 -131t-104 -90t-125 -53.5t-134.5 -16.5zM549 -416q-67 0 -115.5 47.5t-48.5 114.5t49 115.5t115 48.5q67 0 115.5 -48t48.5 -116
q0 -67 -48 -114.5t-116 -47.5z" />
    <glyph glyph-name="uni1EE5" unicode="&#x1ee5;" 
d="M874 0h-323v115q-30 -55 -102.5 -97.5t-143.5 -42.5q-120 0 -176.5 62t-56.5 170v782h323v-653q0 -76 60 -76q31 0 57 27t39 65v637h323v-989zM473 -416q-67 0 -115.5 47.5t-48.5 114.5t49 115.5t115 48.5q67 0 115.5 -48t48.5 -116q0 -67 -48 -114.5t-116 -47.5z" />
    <glyph glyph-name="uni1EE6" unicode="&#x1ee6;" horiz-adv-x="1089" 
d="M545 -25q-87 0 -167.5 27.5t-147 81.5t-106.5 145t-40 207v930h362v-948q0 -127 99 -127q98 0 98 127v948h363v-928q0 -94 -26.5 -172t-71 -131t-104 -90t-125 -53.5t-134.5 -16.5zM514 1540l-113 19q12 58 52 89t98 31q62 0 99.5 -36.5t37.5 -108.5q0 -53 -24 -107h-115
q29 48 29 99q0 53 -33 53q-11 0 -19.5 -11t-11.5 -28z" />
    <glyph glyph-name="uni1EE7" unicode="&#x1ee7;" 
d="M874 0h-323v115q-30 -55 -102.5 -97.5t-143.5 -42.5q-120 0 -176.5 62t-56.5 170v782h323v-653q0 -76 60 -76q31 0 57 27t39 65v637h323v-989zM440 1192l-112 18q12 58 51.5 89.5t97.5 31.5q62 0 99.5 -36.5t37.5 -108.5q0 -53 -24 -107h-115q29 48 29 99q0 53 -33 53
q-11 0 -19.5 -11t-11.5 -28z" />
    <glyph glyph-name="uni1EE8" unicode="&#x1ee8;" horiz-adv-x="1089" 
d="M866 1776l-229 -295h-199l164 295h264zM1204 1487q0 -88 -50 -170.5t-148 -140.5v-738q0 -94 -26.5 -172t-71 -131t-104 -90t-125 -53.5t-134.5 -16.5q-87 0 -167.5 27.5t-147 81.5t-106.5 145t-40 207v930h362v-948q0 -127 99 -127q98 0 98 127v948h363v-55q49 46 65 98
q-8 -4 -31 -4q-47 0 -77.5 31.5t-30.5 83.5q0 54 37.5 92.5t89.5 38.5q60 0 102.5 -45t42.5 -119z" />
    <glyph glyph-name="uni1EE9" unicode="&#x1ee9;" 
d="M795 1434l-230 -295h-198l163 295h265zM874 0h-323v115q-30 -55 -102.5 -97.5t-143.5 -42.5q-120 0 -176.5 62t-56.5 170v782h323v-653q0 -76 60 -76q31 0 57 27t39 65v637h278q25 36 33 62q-10 -7 -33 -7q-46 0 -77 32.5t-31 84.5q0 54 37 91.5t90 37.5q61 0 103 -45
t42 -119q0 -142 -119 -252v-874z" />
    <glyph glyph-name="uni1EEA" unicode="&#x1eea;" horiz-adv-x="1089" 
d="M651 1481h-198l-230 295h264zM1204 1487q0 -88 -50 -170.5t-148 -140.5v-738q0 -94 -26.5 -172t-71 -131t-104 -90t-125 -53.5t-134.5 -16.5q-87 0 -167.5 27.5t-147 81.5t-106.5 145t-40 207v930h362v-948q0 -127 99 -127q98 0 98 127v948h363v-55q49 46 65 98
q-8 -4 -31 -4q-47 0 -77.5 31.5t-30.5 83.5q0 54 37.5 92.5t89.5 38.5q60 0 102.5 -45t42.5 -119z" />
    <glyph glyph-name="uni1EEB" unicode="&#x1eeb;" 
d="M580 1139h-199l-229 295h264zM874 0h-323v115q-30 -55 -102.5 -97.5t-143.5 -42.5q-120 0 -176.5 62t-56.5 170v782h323v-653q0 -76 60 -76q31 0 57 27t39 65v637h278q25 36 33 62q-10 -7 -33 -7q-46 0 -77 32.5t-31 84.5q0 54 37 91.5t90 37.5q61 0 103 -45t42 -119
q0 -142 -119 -252v-874z" />
    <glyph glyph-name="uni1EEC" unicode="&#x1eec;" horiz-adv-x="1089" 
d="M514 1540l-113 19q12 58 52 89t98 31q62 0 99.5 -36.5t37.5 -108.5q0 -53 -24 -107h-115q29 48 29 99q0 53 -33 53q-11 0 -19.5 -11t-11.5 -28zM1204 1487q0 -88 -50 -170.5t-148 -140.5v-738q0 -94 -26.5 -172t-71 -131t-104 -90t-125 -53.5t-134.5 -16.5
q-87 0 -167.5 27.5t-147 81.5t-106.5 145t-40 207v930h362v-948q0 -127 99 -127q98 0 98 127v948h363v-55q49 46 65 98q-8 -4 -31 -4q-47 0 -77.5 31.5t-30.5 83.5q0 54 37.5 92.5t89.5 38.5q60 0 102.5 -45t42.5 -119z" />
    <glyph glyph-name="uni1EED" unicode="&#x1eed;" 
d="M440 1192l-112 18q12 58 51.5 89.5t97.5 31.5q62 0 99.5 -36.5t37.5 -108.5q0 -53 -24 -107h-115q29 48 29 99q0 53 -33 53q-11 0 -19.5 -11t-11.5 -28zM874 0h-323v115q-30 -55 -102.5 -97.5t-143.5 -42.5q-120 0 -176.5 62t-56.5 170v782h323v-653q0 -76 60 -76
q31 0 57 27t39 65v637h278q25 36 33 62q-10 -7 -33 -7q-46 0 -77 32.5t-31 84.5q0 54 37 91.5t90 37.5q61 0 103 -45t42 -119q0 -142 -119 -252v-874z" />
    <glyph glyph-name="uni1EEE" unicode="&#x1eee;" horiz-adv-x="1089" 
d="M1204 1487q0 -88 -50 -170.5t-148 -140.5v-738q0 -94 -26.5 -172t-71 -131t-104 -90t-125 -53.5t-134.5 -16.5q-87 0 -167.5 27.5t-147 81.5t-106.5 145t-40 207v930h362v-948q0 -127 99 -127q98 0 98 127v948h363v-55q49 46 65 98q-8 -4 -31 -4q-47 0 -77.5 31.5
t-30.5 83.5q0 54 37.5 92.5t89.5 38.5q60 0 102.5 -45t42.5 -119zM637 1477q-35 0 -64.5 17t-47 37t-37.5 37t-37 17q-50 0 -50 -96h-151q0 124 53.5 199t145.5 75q35 0 64.5 -17t47 -38t37.5 -38t37 -17q49 0 49 98h152q0 -124 -53.5 -199t-145.5 -75z" />
    <glyph glyph-name="uni1EEF" unicode="&#x1eef;" 
d="M874 0h-323v115q-30 -55 -102.5 -97.5t-143.5 -42.5q-120 0 -176.5 62t-56.5 170v782h323v-653q0 -76 60 -76q31 0 57 27t39 65v637h278q25 36 33 62q-10 -7 -33 -7q-46 0 -77 32.5t-31 84.5q0 54 37 91.5t90 37.5q61 0 103 -45t42 -119q0 -142 -119 -252v-874zM532 1135
q-35 0 -64.5 17t-47 37t-37.5 37t-37 17q-49 0 -49 -96h-152q0 124 53.5 199t145.5 75q35 0 64.5 -17t47 -38t37.5 -38t37 -17q50 0 50 98h151q0 -124 -53.5 -199t-145.5 -75z" />
    <glyph glyph-name="uni1EF0" unicode="&#x1ef0;" horiz-adv-x="1089" 
d="M549 -416q-67 0 -115.5 47.5t-48.5 114.5t49 115.5t115 48.5q67 0 115.5 -48t48.5 -116q0 -67 -48 -114.5t-116 -47.5zM1204 1487q0 -88 -50 -170.5t-148 -140.5v-738q0 -94 -26.5 -172t-71 -131t-104 -90t-125 -53.5t-134.5 -16.5q-87 0 -167.5 27.5t-147 81.5
t-106.5 145t-40 207v930h362v-948q0 -127 99 -127q98 0 98 127v948h363v-55q49 46 65 98q-8 -4 -31 -4q-47 0 -77.5 31.5t-30.5 83.5q0 54 37.5 92.5t89.5 38.5q60 0 102.5 -45t42.5 -119z" />
    <glyph glyph-name="uni1EF1" unicode="&#x1ef1;" 
d="M473 -416q-67 0 -115.5 47.5t-48.5 114.5t49 115.5t115 48.5q67 0 115.5 -48t48.5 -116q0 -67 -48 -114.5t-116 -47.5zM874 0h-323v115q-30 -55 -102.5 -97.5t-143.5 -42.5q-120 0 -176.5 62t-56.5 170v782h323v-653q0 -76 60 -76q31 0 57 27t39 65v637h278q25 36 33 62
q-10 -7 -33 -7q-46 0 -77 32.5t-31 84.5q0 54 37 91.5t90 37.5q61 0 103 -45t42 -119q0 -142 -119 -252v-874z" />
    <glyph glyph-name="Ygrave" unicode="&#x1ef2;" horiz-adv-x="1001" 
d="M682 0h-363v551l-333 815h381l133 -475l135 475h381l-334 -815v-551zM606 1481h-198l-230 295h264z" />
    <glyph glyph-name="ygrave" unicode="&#x1ef3;" horiz-adv-x="890" 
d="M96 -385l45 279q18 -11 41 -11q66 0 80 49l17 50l-291 1007h340l116 -581l119 581h340l-325 -1120q-45 -156 -124 -213t-223 -57q-92 0 -135 16zM551 1139h-199l-229 295h264z" />
    <glyph glyph-name="thinspace" unicode="&#x2009;" horiz-adv-x="63" 
 />
    <glyph glyph-name="endash" unicode="&#x2013;" horiz-adv-x="942" 
d="M881 360h-820v271h820v-271z" />
    <glyph glyph-name="emdash" unicode="&#x2014;" horiz-adv-x="1310" 
d="M1249 360h-1188v271h1188v-271z" />
    <glyph glyph-name="afii00208" unicode="&#x2015;" horiz-adv-x="942" 
d="M881 360h-820v271h820v-271z" />
    <glyph glyph-name="quoteleft" unicode="&#x2018;" horiz-adv-x="559" 
d="M68 971q0 123 63 231.5t174 186.5l133 -109q-52 -26 -104.5 -83.5t-69.5 -111.5q28 7 47 7q69 0 115.5 -48.5t46.5 -123.5q0 -79 -56.5 -136t-133.5 -57q-89 0 -152 66.5t-63 177.5z" />
    <glyph glyph-name="quoteright" unicode="&#x2019;" horiz-adv-x="559" 
d="M485 1145q0 -125 -62.5 -233.5t-174.5 -186.5l-133 109q52 26 104.5 83t69.5 111q-24 -6 -47 -6q-67 0 -113.5 48.5t-46.5 123.5q0 79 56 135.5t134 56.5q89 0 151 -65.5t62 -175.5z" />
    <glyph glyph-name="quotesinglbase" unicode="&#x201a;" horiz-adv-x="552" 
d="M483 127q0 -125 -62 -232.5t-175 -187.5l-133 109q52 26 104.5 83.5t69.5 112.5q-16 -8 -47 -8q-67 0 -113.5 48.5t-46.5 123.5q0 79 56 136t134 57q89 0 151 -66t62 -176z" />
    <glyph glyph-name="quotereversed" unicode="&#x201b;" horiz-adv-x="559" 
d="M74 1145q0 110 63 175.5t152 65.5q77 0 133.5 -56.5t56.5 -135.5q0 -75 -46.5 -123.5t-115.5 -48.5q-23 0 -47 6q17 -54 69.5 -111t104.5 -83l-133 -109q-111 78 -174 186.5t-63 233.5z" />
    <glyph glyph-name="quotedblleft" unicode="&#x201c;" horiz-adv-x="1028" 
d="M74 971q0 123 63 231.5t174 186.5l133 -109q-52 -26 -104.5 -83.5t-69.5 -111.5q28 7 47 7q69 0 115.5 -48.5t46.5 -123.5q0 -79 -56.5 -136t-133.5 -57q-89 0 -152 66.5t-63 177.5zM543 971q0 124 62 232t173 186l135 -109q-52 -26 -105.5 -84t-70.5 -111q35 7 49 7
q67 0 113.5 -48.5t46.5 -123.5q0 -79 -56 -136t-134 -57q-89 0 -151 66.5t-62 177.5z" />
    <glyph glyph-name="quotedblright" unicode="&#x201d;" horiz-adv-x="1028" 
d="M952 1145q0 -125 -62 -233.5t-173 -186.5l-133 109q52 26 104.5 83t69.5 111q-24 -6 -47 -6q-69 0 -115.5 48.5t-46.5 123.5q0 79 56.5 135.5t133.5 56.5q89 0 151 -65.5t62 -175.5zM485 1145q0 -125 -62.5 -233.5t-174.5 -186.5l-133 109q52 26 104.5 83t69.5 111
q-24 -6 -47 -6q-67 0 -113.5 48.5t-46.5 123.5q0 79 56 135.5t134 56.5q89 0 151 -65.5t62 -175.5z" />
    <glyph glyph-name="quotedblbase" unicode="&#x201e;" horiz-adv-x="1019" 
d="M483 127q0 -125 -62 -232.5t-175 -187.5l-133 109q52 26 104.5 83.5t69.5 112.5q-16 -8 -47 -8q-67 0 -113.5 48.5t-46.5 123.5q0 79 56 136t134 57q89 0 151 -66t62 -176zM950 127q0 -125 -62 -232.5t-173 -187.5l-133 109q52 26 104.5 83.5t69.5 112.5q-16 -8 -47 -8
q-69 0 -115.5 48.5t-46.5 123.5q0 79 56.5 136t133.5 57q89 0 151 -66t62 -176z" />
    <glyph glyph-name="dagger" unicode="&#x2020;" horiz-adv-x="583" 
d="M547 1059l-182 8l8 -397h-164l10 397l-182 -8v149l182 -6l-10 184h164l-8 -184l182 6v-149z" />
    <glyph glyph-name="daggerdbl" unicode="&#x2021;" horiz-adv-x="583" 
d="M547 1208v-149l-182 8v-375l182 8v-149l-182 6l8 -188h-164l8 188l-180 -6v149l180 -8v375l-180 -8v149l180 -6l-8 184h164l-8 -184z" />
    <glyph glyph-name="bullet" unicode="&#x2022;" horiz-adv-x="733" 
d="M625 496q0 -104 -75 -179t-181 -75t-181 75t-75 179q0 106 75 181t181 75t181 -75t75 -181z" />
    <glyph glyph-name="ellipsis" unicode="&#x2026;" horiz-adv-x="1658" 
d="M473 170q0 -79 -58.5 -137t-138.5 -58t-138 58t-58 137q0 82 58 140.5t138 58.5t138.5 -59t58.5 -140zM1026 170q0 -79 -58.5 -137t-138.5 -58t-138 58t-58 137q0 82 58 140.5t138 58.5t138.5 -59t58.5 -140zM1579 170q0 -80 -58 -137.5t-139 -57.5q-80 0 -138 58
t-58 137q0 82 58 140.5t138 58.5q82 0 139.5 -58.5t57.5 -140.5z" />
    <glyph glyph-name="perthousand" unicode="&#x2030;" horiz-adv-x="1828" 
d="M592 1042q0 -146 -77.5 -244t-205.5 -98t-206 98t-78 244q0 148 78 246t206 98t205.5 -98t77.5 -246zM973 1366l-584 -1366h-123l582 1366h125zM1212 315q0 -146 -77 -243t-205 -97q-129 0 -207 97t-78 243q0 148 78 246t207 98q128 0 205 -98t77 -246zM391 1042
q0 73 -22 112.5t-60 39.5t-60 -39.5t-22 -112.5q0 -72 22 -109.5t60 -37.5t60 37.5t22 109.5zM1012 315q0 74 -22 112t-60 38t-60 -38t-22 -112q0 -71 22 -109t60 -38t60 38t22 109zM1804 315q0 -146 -77 -243t-205 -97t-206.5 97t-78.5 243q0 148 78.5 246t206.5 98
t205 -98t77 -246zM1604 315q0 74 -22 112t-60 38t-60 -38t-22 -112q0 -71 22 -109t60 -38t60 38t22 109z" />
    <glyph glyph-name="guilsinglleft" unicode="&#x2039;" horiz-adv-x="546" 
d="M485 129h-239l-185 369l185 362h239l-184 -362z" />
    <glyph glyph-name="guilsinglright" unicode="&#x203a;" horiz-adv-x="546" 
d="M485 498l-184 -369h-240l185 369l-185 362h240z" />
    <glyph glyph-name="uni203E" unicode="&#x203e;" horiz-adv-x="548" 
d="M549 1137h-549v178h549v-178z" />
    <glyph glyph-name="fraction" unicode="&#x2044;" horiz-adv-x="309" 
d="M508 1366l-584 -1366h-123l582 1366h125z" />
    <glyph glyph-name="zerosuperior" unicode="&#x2070;" horiz-adv-x="659" 
d="M639 1272q0 -117 -34 -211.5t-105.5 -153.5t-169.5 -59q-147 0 -228.5 121.5t-81.5 302.5t81.5 301.5t228.5 120.5q98 0 169.5 -58.5t105.5 -152.5t34 -211zM395 1272q0 125 -13 179t-52 54q-40 0 -54 -54.5t-14 -178.5q0 -125 14 -180.5t54 -55.5q39 0 52 55.5t13 180.5
z" />
    <glyph glyph-name="foursuperior" unicode="&#x2074;" horiz-adv-x="659" 
d="M639 1020h-64v-158h-239v158h-316v180l269 481h286v-475h64v-186zM336 1206v224l-119 -224h119z" />
    <glyph glyph-name="fivesuperior" unicode="&#x2075;" horiz-adv-x="659" 
d="M635 1139q0 -132 -86 -211.5t-234 -79.5q-203 0 -301 129l144 147q66 -88 143 -88q43 0 67.5 27.5t24.5 71.5q0 41 -21.5 67.5t-58.5 26.5q-60 0 -104 -76l-172 51v477h549v-188h-312v-156q51 62 138 62q93 0 158 -68t65 -192z" />
    <glyph glyph-name="sixsuperior" unicode="&#x2076;" horiz-adv-x="659" 
d="M637 1141q0 -134 -82 -213.5t-205 -79.5q-109 0 -184 56.5t-109 149.5t-34 216q0 200 99 312t261 112q135 0 217 -72l-111 -164q-41 47 -102 47q-51 0 -89 -44.5t-38 -127.5v-8q53 92 164 92q89 0 151 -75t62 -201zM397 1130q0 52 -20.5 77.5t-46.5 25.5q-45 0 -70 -49
q7 -148 72 -148q30 0 47.5 28.5t17.5 65.5z" />
    <glyph glyph-name="sevensuperior" unicode="&#x2077;" horiz-adv-x="610" 
d="M590 1518l-236 -656h-227l244 631h-351v188h570v-163z" />
    <glyph glyph-name="eightsuperior" unicode="&#x2078;" horiz-adv-x="659" 
d="M637 1079q0 -112 -81.5 -171.5t-225.5 -59.5q-147 0 -228.5 58.5t-81.5 172.5q0 68 44.5 126.5t111.5 78.5q-65 19 -104 70t-39 121q0 57 25.5 100.5t69 68.5t94.5 37.5t108 12.5q76 0 140.5 -21t109.5 -72t45 -126q0 -70 -39.5 -121t-104.5 -70q66 -20 111 -79t45 -126z
M393 1438q0 75 -63 75q-66 0 -66 -75q0 -55 66 -80q63 27 63 80zM401 1104q0 43 -25 67t-46 29q-23 -5 -48.5 -29t-25.5 -67q0 -76 74 -76q31 0 51 18t20 58z" />
    <glyph glyph-name="ninesuperior" unicode="&#x2079;" horiz-adv-x="659" 
d="M20 1401q0 134 83 213.5t204 79.5q163 0 246.5 -116t83.5 -306q0 -200 -99.5 -312t-261.5 -112q-135 0 -217 72l111 163q38 -47 100 -47q49 0 88 44t39 128v9q-51 -93 -164 -93q-87 0 -150 76t-63 201zM260 1411q0 -52 21 -77t47 -25q43 0 71 51q-7 145 -71 145
q-32 0 -50 -28.5t-18 -65.5z" />
    <glyph glyph-name="parenleftsuperior" unicode="&#x207d;" horiz-adv-x="387" 
d="M350 788l-131 -59q-164 249 -164 543t164 543l131 -58q-55 -117 -76.5 -228.5t-21.5 -256.5q0 -146 21.5 -258t76.5 -226z" />
    <glyph glyph-name="parenrightsuperior" unicode="&#x207e;" horiz-adv-x="389" 
d="M332 1272q0 -294 -164 -543l-133 59q57 117 79.5 228.5t22.5 255.5t-22.5 255.5t-79.5 229.5l133 58q164 -249 164 -543z" />
    <glyph glyph-name="nsuperior" unicode="&#x207f;" horiz-adv-x="686" 
d="M625 668h-228v413q0 54 -45 54q-36 0 -63 -56v-411h-230v643h230v-74q22 35 71.5 62.5t100.5 27.5q76 0 120 -40.5t44 -121.5v-497z" />
    <glyph glyph-name="zeroinferior" unicode="&#x2080;" horiz-adv-x="659" 
d="M639 111q0 -117 -34 -211.5t-105.5 -153.5t-169.5 -59q-147 0 -228.5 121.5t-81.5 302.5q0 117 34 211t105.5 152t170.5 58q98 0 169.5 -58t105.5 -152t34 -211zM395 111q0 125 -13 179t-52 54q-40 0 -54 -54.5t-14 -178.5q0 -125 14 -180.5t54 -55.5q39 0 52 55.5
t13 180.5z" />
    <glyph glyph-name="oneinferior" unicode="&#x2081;" horiz-adv-x="559" 
d="M489 -299h-239v516l-109 -108l-135 139l279 272h204v-819z" />
    <glyph glyph-name="twoinferior" unicode="&#x2082;" horiz-adv-x="659" 
d="M637 -299h-586v172q156 135 228.5 206.5t95 108.5t22.5 76q0 35 -23.5 57.5t-64.5 22.5q-40 0 -80 -24.5t-69 -67.5l-140 143q118 137 306 137q140 0 223.5 -68.5t83.5 -191.5q0 -83 -62.5 -165t-222.5 -218h289v-188z" />
    <glyph glyph-name="threeinferior" unicode="&#x2083;" horiz-adv-x="659" 
d="M633 -70q0 -111 -85.5 -177t-221.5 -66q-102 0 -182 34.5t-124 94.5l144 145q63 -86 151 -86q43 0 65.5 21.5t22.5 50.5q0 76 -102 76q-43 0 -61 -3v187q10 -2 53 -2q100 0 100 69q0 34 -22.5 52t-61.5 18t-78.5 -19.5t-62.5 -56.5l-139 129q103 135 297 135
q136 0 215.5 -57.5t79.5 -167.5q0 -67 -44.5 -120.5t-111.5 -63.5q72 -10 120 -65.5t48 -127.5z" />
    <glyph glyph-name="fourinferior" unicode="&#x2084;" horiz-adv-x="659" 
d="M639 -141h-64v-158h-239v158h-316v180l269 481h286v-475h64v-186zM336 45v223l-119 -223h119z" />
    </font>
</defs>
</svg>
