<?xml version="1.0" standalone="no"?>
<!DOCTYPE svg PUBLIC "-//W3C//DTD SVG 1.1//EN" "http://www.w3.org/Graphics/SVG/1.1/DTD/svg11.dtd" >
<svg xmlns="http://www.w3.org/2000/svg" xmlns:xlink="http://www.w3.org/1999/xlink" version="1.1">
<metadata>
Created by FontForge 20201107 at Mon May  5 13:03:24 2025
 By 
Copyright (c) Mark Simonson, 2005. All rights reserved.
</metadata>
<defs>
<font id="ProximaNovaExCn-ExtrabldIt" horiz-adv-x="888" >
  <font-face 
    font-family="Proxima Nova ExCn Th"
    font-weight="800"
    font-style="italic"
    font-stretch="normal"
    units-per-em="2048"
    panose-1="2 0 5 6 3 0 0 2 0 4"
    ascent="1618"
    descent="-430"
    x-height="989"
    cap-height="1366"
    bbox="-311 -582 1808 1817"
    underline-thickness="40"
    underline-position="-271"
    unicode-range="U+000D-FB04"
  />
<missing-glyph horiz-adv-x="911" 
d="M856 -184h-719v1724h719v-1724zM791 -123v1602h-590v-1602h590z" />
    <glyph glyph-name="f_f_j" unicode="ffj" horiz-adv-x="1517" 
d="M819 0h-276l166 748h-91l56 241h88l14 70q37 168 116.5 247.5t209.5 79.5q96 0 168 -32l-88 -215q-15 12 -37 12q-36 0 -60 -25t-32 -67l-15 -70h121l-55 -241h-119zM963 -401q-114 0 -162 51l98 207q13 -23 47 -23q61 0 86 111l232 1044h278l-233 -1044
q-39 -178 -115.5 -262t-230.5 -84zM1440 1090q-64 0 -106 40.5t-42 98.5q0 85 59 136.5t128 51.5q63 0 105 -41t42 -100q0 -84 -58.5 -135t-127.5 -51zM283 0h-277l166 748h-90l55 241h88l15 70q12 57 28 103t42.5 89t61 71.5t84 46t109.5 17.5q66 0 125.5 -17.5t87.5 -43.5
l-106 -205q-28 31 -62 31q-77 0 -94 -92l-14 -70h121l-56 -241h-118z" />
    <glyph glyph-name="f_j" unicode="fj" horiz-adv-x="980" 
d="M283 0h-277l166 748h-90l55 241h88l15 70q37 168 116.5 247.5t208.5 79.5q96 0 168 -32l-88 -215q-15 12 -37 12q-36 0 -60 -25t-32 -67l-14 -70h121l-56 -241h-118zM426 -401q-114 0 -162 51l98 207q13 -23 48 -23q61 0 86 111l231 1044h279l-234 -1044
q-39 -178 -115.5 -262t-230.5 -84zM903 1090q-64 0 -105.5 40.5t-41.5 98.5q0 85 59 136.5t127 51.5q63 0 105.5 -41t42.5 -100q0 -84 -58.5 -135t-128.5 -51z" />
    <glyph glyph-name="f_f" unicode="ff" horiz-adv-x="1073" 
d="M283 0h-277l166 748h-90l55 241h88l15 70q12 57 28 103t42.5 89t61 71.5t84 46t109.5 17.5q66 0 125.5 -17.5t87.5 -43.5l-106 -205q-28 31 -62 31q-77 0 -94 -92l-14 -70h121l-56 -241h-118zM819 0h-276l166 748h-91l56 241h88l14 70q15 72 38 127t60.5 102.5t95 72.5
t132.5 25q66 0 125.5 -17.5t87.5 -43.5l-107 -205q-28 31 -61 31q-77 0 -94 -92l-15 -70h121l-55 -241h-119z" />
    <glyph glyph-name="fi" unicode="fi" horiz-adv-x="980" 
d="M283 0h-277l166 748h-90l55 241h88l15 70q37 168 116.5 247.5t208.5 79.5q96 0 168 -32l-88 -215q-15 12 -37 12q-36 0 -60 -25t-32 -67l-14 -70h121l-56 -241h-118zM903 1090q-64 0 -105.5 40.5t-41.5 98.5q0 85 59 136.5t127 51.5q63 0 105.5 -41t42.5 -100
q0 -84 -58.5 -135t-128.5 -51zM786 0h-278l219 989h279z" />
    <glyph glyph-name="fl" unicode="fl" horiz-adv-x="980" 
d="M283 0h-277l166 748h-90l55 241h88l15 70q37 168 116.5 247.5t208.5 79.5q96 0 168 -32l-88 -215q-15 12 -37 12q-36 0 -60 -25t-32 -67l-14 -70h121l-56 -241h-118zM786 0h-278l301 1366h278z" />
    <glyph glyph-name="f_f_i" unicode="ffi" horiz-adv-x="1517" 
d="M819 0h-276l166 748h-91l56 241h88l14 70q37 168 116.5 247.5t209.5 79.5q96 0 168 -32l-88 -215q-15 12 -37 12q-36 0 -60 -25t-32 -67l-15 -70h121l-55 -241h-119zM1440 1090q-64 0 -106 40.5t-42 98.5q0 85 59 136.5t128 51.5q63 0 105 -41t42 -100q0 -84 -58.5 -135
t-127.5 -51zM1323 0h-279l220 989h278zM283 0h-277l166 748h-90l55 241h88l15 70q12 57 28 103t42.5 89t61 71.5t84 46t109.5 17.5q66 0 125.5 -17.5t87.5 -43.5l-106 -205q-28 31 -62 31q-77 0 -94 -92l-14 -70h121l-56 -241h-118z" />
    <glyph glyph-name="f_f_l" unicode="ffl" horiz-adv-x="1517" 
d="M819 0h-276l166 748h-91l56 241h88l14 70q37 168 116.5 247.5t209.5 79.5q96 0 168 -32l-88 -215q-15 12 -37 12q-36 0 -60 -25t-32 -67l-15 -70h121l-55 -241h-119zM1323 0h-279l302 1366h278zM283 0h-277l166 748h-90l55 241h88l15 70q12 57 28 103t42.5 89t61 71.5
t84 46t109.5 17.5q66 0 125.5 -17.5t87.5 -43.5l-106 -205q-28 31 -62 31q-77 0 -94 -92l-14 -70h121l-56 -241h-118z" />
    <glyph glyph-name="f_b" unicode="fb" horiz-adv-x="1443" 
d="M283 0h-277l166 748h-90l55 241h88l15 70q37 168 116.5 247.5t208.5 79.5q96 0 168 -32l-88 -215q-15 12 -37 12q-36 0 -60 -25t-32 -67l-14 -70h121l-56 -241h-118zM1016 -25q-159 0 -205 146l-25 -121h-276l299 1366h278l-108 -489q92 137 211 137q229 0 229 -326
q0 -82 -15 -175.5t-48 -189.5t-79 -173t-114 -126t-147 -49zM946 219q46 0 84 49t59 120t32.5 139.5t11.5 119.5q0 123 -91 123q-28 0 -57 -26.5t-49 -65.5l-82 -365q7 -43 32.5 -68.5t59.5 -25.5z" />
    <glyph glyph-name="f_h" unicode="fh" horiz-adv-x="1439" 
d="M283 0h-277l166 748h-90l55 241h88l15 70q37 168 116.5 247.5t208.5 79.5q96 0 168 -32l-88 -215q-15 12 -37 12q-36 0 -60 -25t-32 -67l-14 -70h121l-56 -241h-118zM1247 0h-278l149 676q6 12 6 35q0 28 -14.5 43.5t-40.5 15.5q-67 0 -139 -115l-144 -655h-278l301 1366
h278l-110 -498q46 61 113.5 103.5t140.5 42.5q91 0 142.5 -48.5t51.5 -125.5q0 -18 -8 -58z" />
    <glyph glyph-name="f_k" unicode="fk" horiz-adv-x="1404" 
d="M283 0h-277l166 748h-90l55 241h88l15 70q37 168 116.5 247.5t208.5 79.5q96 0 168 -32l-88 -215q-15 12 -37 12q-36 0 -60 -25t-32 -67l-14 -70h121l-56 -241h-118zM1294 0h-299l-47 373l-114 -154l-48 -219h-278l301 1366h278l-169 -774l270 397h311l-325 -438z" />
    <glyph glyph-name=".notdef" horiz-adv-x="911" 
d="M856 -184h-719v1724h719v-1724zM791 -123v1602h-590v-1602h590z" />
    <glyph glyph-name=".null" horiz-adv-x="0" 
 />
    <glyph glyph-name=".null" horiz-adv-x="0" 
 />
    <glyph glyph-name="nonmarkingreturn" horiz-adv-x="682" 
 />
    <glyph glyph-name="CR" unicode="&#xd;" horiz-adv-x="0" 
 />
    <glyph glyph-name="space" unicode=" " horiz-adv-x="325" 
 />
    <glyph glyph-name="exclam" unicode="!" horiz-adv-x="530" 
d="M379 455h-246l158 911h334zM170 -25q-66 0 -111 47t-45 113q0 77 56 133t133 56q66 0 111.5 -47t45.5 -113q0 -76 -56.5 -132.5t-133.5 -56.5z" />
    <glyph glyph-name="quotedbl" unicode="&#x22;" horiz-adv-x="849" 
d="M348 758h-119q15 421 15 456q3 74 52.5 123t119.5 49q55 0 93 -37.5t38 -95.5q0 -35 -17 -63zM733 758h-119q15 421 15 456q1 73 51 122.5t121 49.5q53 0 91 -38t38 -95q0 -25 -15 -63z" />
    <glyph glyph-name="numbersign" unicode="#" horiz-adv-x="964" 
d="M473 0h-203l160 344h-123l-153 -344h-203l155 344h-110l78 174h114l148 328h-115l76 172h117l155 348h203l-156 -348h119l154 348h203l-156 -348h113l-76 -172h-115l-149 -328h120l-79 -174h-121zM508 518l147 328h-118l-148 -328h119z" />
    <glyph glyph-name="dollar" unicode="$" horiz-adv-x="843" 
d="M176 -205l43 193q-88 17 -158.5 56.5t-111.5 94.5l174 230q35 -54 94.5 -86.5t120.5 -32.5q55 0 93 40t38 105q0 40 -33.5 82t-81 84.5t-95 91t-81 119.5t-33.5 152q0 173 108.5 302.5t274.5 155.5l43 191h205l-45 -201q136 -38 215 -123l-162 -231q-34 45 -83.5 70.5
t-104.5 25.5q-56 0 -88.5 -38t-32.5 -91q0 -41 33 -84t79.5 -85t93 -90.5t79.5 -119.5t33 -153q0 -175 -102.5 -307.5t-268.5 -161.5l-41 -189h-205z" />
    <glyph glyph-name="percent" unicode="%" horiz-adv-x="1220" 
d="M268 0h-112l876 1366h115zM829 -25q-113 0 -177 73t-64 185q0 176 97.5 300t225.5 124q113 0 177.5 -73.5t64.5 -186.5q0 -175 -97.5 -298.5t-226.5 -123.5zM842 143q46 0 89.5 72.5t43.5 165.5q0 108 -76 108q-46 0 -89.5 -72.5t-43.5 -164.5q0 -109 76 -109zM387 705
q-112 0 -177 73.5t-65 186.5q0 175 97.5 298t226.5 123q112 0 177 -73.5t65 -184.5q0 -176 -97 -299.5t-227 -123.5zM399 874q46 0 88.5 72t42.5 164q0 109 -73 109q-46 0 -88.5 -72.5t-42.5 -165.5q0 -56 17.5 -81.5t55.5 -25.5z" />
    <glyph glyph-name="ampersand" unicode="&#x26;" horiz-adv-x="964" 
d="M852 0h-272q-18 37 -23 49q-120 -74 -246 -74q-140 0 -225.5 83.5t-85.5 232.5q0 93 25.5 170.5t73.5 136t98.5 99t119.5 81.5q-20 97 -20 189q0 175 105.5 297t248.5 122q121 0 192.5 -71t71.5 -201q0 -45 -11 -86.5t-25.5 -73t-44.5 -65.5t-51 -54.5t-64 -50.5
t-65.5 -44t-71.5 -44q8 -29 34 -104q7 -24 21 -65.5t18 -55.5q40 70 107 213l194 -117q-103 -210 -206 -338q48 -115 102 -229zM381 193q47 0 100 43q-29 69 -63 176q-9 26 -24 74.5t-19 60.5q-92 -92 -92 -211q0 -60 26.5 -101.5t71.5 -41.5zM537 963q0 -38 2 -56
q68 45 103.5 93t35.5 110q0 44 -11.5 61t-35.5 17q-37 0 -65.5 -69t-28.5 -156z" />
    <glyph glyph-name="quotesingle" unicode="'" horiz-adv-x="468" 
d="M348 758h-119q15 421 15 456q3 74 52.5 123t119.5 49q55 0 93 -37.5t38 -95.5q0 -35 -17 -63z" />
    <glyph glyph-name="parenleft" unicode="(" horiz-adv-x="577" 
d="M352 -336l-219 -72q-84 239 -84 510q0 706 483 1301l183 -111q-175 -293 -278 -644t-103 -681q0 -141 18 -303z" />
    <glyph glyph-name="parenright" unicode=")" horiz-adv-x="577" 
d="M225 1331l219 72q84 -239 84 -510q0 -706 -483 -1301l-182 111q175 293 277 643.5t102 681.5q0 150 -17 303z" />
    <glyph glyph-name="asterisk" unicode="*" horiz-adv-x="673" 
d="M459 743h-137l59 232l-215 -98l-39 122l221 78l-176 121l94 107l158 -136l41 217h137l-63 -231l213 98l41 -123l-218 -77l175 -121l-95 -107l-161 136z" />
    <glyph glyph-name="plus" unicode="+" horiz-adv-x="790" 
d="M754 606h-242l-66 -291h-186l64 291h-242l39 168h241l62 277h184l-59 -277h242z" />
    <glyph glyph-name="comma" unicode="," horiz-adv-x="530" 
d="M371 150q0 -119 -88.5 -237.5t-221.5 -182.5l-98 100q63 29 122 75t83 97q-4 -2 -23 -2q-55 0 -93 37.5t-38 103.5q0 74 59 128.5t132 54.5q69 0 117.5 -46t48.5 -128z" />
    <glyph glyph-name="hyphen" unicode="-" horiz-adv-x="499" 
d="M412 379h-377l51 233h377z" />
    <glyph glyph-name="period" unicode="." horiz-adv-x="530" 
d="M170 -25q-64 0 -110 47t-46 113q0 76 57 132.5t132 56.5q67 0 112 -46.5t45 -113.5q0 -77 -56 -133t-134 -56z" />
    <glyph glyph-name="slash" unicode="/" horiz-adv-x="493" 
d="M74 -41h-197l621 1448h198z" />
    <glyph glyph-name="zero" unicode="0" horiz-adv-x="970" 
d="M414 -25q-161 0 -260 121.5t-99 341.5q0 168 45 338t121 305t186 220t230 85q163 0 260.5 -120t97.5 -340q0 -169 -44.5 -339.5t-120 -306t-185.5 -220.5t-231 -85zM442 250q53 0 102 89t80 212t49.5 241t18.5 187q0 66 -18 99.5t-66 33.5q-53 0 -102.5 -88.5t-80 -211.5
t-49 -240t-18.5 -187q0 -66 18 -100.5t66 -34.5z" />
    <glyph glyph-name="one" unicode="1" horiz-adv-x="772" 
d="M565 0h-309l213 969l-223 -189l-135 185l487 401h268z" />
    <glyph glyph-name="two" unicode="2" horiz-adv-x="954" 
d="M786 0h-823l70 309q70 62 169 148t149 130t116 104.5t97.5 94.5t63.5 75t44 72.5t12 61.5q0 55 -33 86t-92 31q-66 0 -119.5 -26.5t-111.5 -92.5l-150 205q82 87 187 137.5t225 50.5q186 0 302 -93.5t116 -260.5q0 -60 -12 -112.5t-51 -115t-68 -103.5t-110 -122
t-127 -124t-166 -152l-36 -33h408z" />
    <glyph glyph-name="three" unicode="3" horiz-adv-x="952" 
d="M420 -25q-100 0 -192.5 31.5t-163.5 95.5t-99 150l244 158q28 -76 84 -118t127 -42q54 0 93 31.5t55 74.5t16 90q0 54 -40 82.5t-98 28.5t-81 -4l61 278q14 -2 113 -2q76 0 115.5 51.5t39.5 123.5q0 54 -38.5 81t-108.5 27q-51 0 -103.5 -26t-89.5 -72l-159 186
q175 186 405 186q183 0 297.5 -83t114.5 -234q0 -144 -95 -250t-219 -127q65 -21 108.5 -66t61 -95t17.5 -105q0 -188 -134.5 -319.5t-330.5 -131.5z" />
    <glyph glyph-name="four" unicode="4" horiz-adv-x="948" 
d="M705 0h-310l58 272h-471l67 299l582 795h375l-183 -821h101l-60 -273h-100zM514 545l102 463l-323 -463h221z" />
    <glyph glyph-name="five" unicode="5" horiz-adv-x="966" 
d="M420 -25q-167 0 -278.5 72.5t-164.5 202.5l238 160q27 -75 81.5 -117.5t119.5 -42.5q76 0 130 76.5t54 175.5q0 58 -31 92.5t-90 34.5q-89 0 -164 -88l-211 75l166 750h768l-59 -270h-457l-67 -305q76 90 200 90q122 0 196.5 -88t74.5 -244q0 -151 -61 -281
t-178.5 -211.5t-266.5 -81.5z" />
    <glyph glyph-name="six" unicode="6" horiz-adv-x="956" 
d="M438 -25q-187 0 -288 120.5t-101 340.5q0 90 17 191.5t49.5 209t87 205t122.5 175t163 123.5t202 46q111 0 199.5 -46t136.5 -126l-201 -208q-15 50 -54 78t-97 28q-83 0 -152 -93.5t-108 -227.5q-8 -23 -15 -58q45 71 113 111.5t139 40.5q117 0 192 -84.5t75 -229.5
q0 -108 -33.5 -213.5t-93.5 -191t-152.5 -138.5t-200.5 -53zM444 250q46 0 83 47t54 105.5t17 109.5q0 54 -25.5 89.5t-72.5 35.5q-77 0 -140 -119q-12 -44 -12 -121q0 -147 96 -147z" />
    <glyph glyph-name="seven" unicode="7" horiz-adv-x="862" 
d="M369 0h-342l581 1096h-444l59 270h797l-47 -213z" />
    <glyph glyph-name="eight" unicode="8" horiz-adv-x="954" 
d="M428 -25q-211 0 -319.5 77t-108.5 245q0 86 34 168.5t110 154.5t184 107q-68 35 -112 106t-44 158q0 114 64 206t164 140.5t212 48.5q78 0 147.5 -17t129.5 -52.5t95.5 -99t35.5 -148.5q0 -141 -87.5 -248t-221.5 -137q85 -44 128.5 -121t43.5 -170q0 -181 -126 -299.5
t-329 -118.5zM543 799q159 61 159 215q0 47 -25.5 72.5t-70.5 25.5q-61 0 -99 -52t-38 -128q0 -42 23.5 -78t50.5 -55zM426 250q62 0 107 59t45 144q0 57 -26.5 95t-53.5 48q-70 -17 -123 -79t-53 -155q0 -54 28 -83t76 -29z" />
    <glyph glyph-name="nine" unicode="9" horiz-adv-x="956" 
d="M598 1389q187 0 287 -120t100 -341q0 -76 -12 -162t-37.5 -178.5t-62 -180t-90 -166t-117 -137t-147 -93t-175.5 -34.5q-109 0 -197.5 46.5t-138.5 126.5l201 208q37 -106 151 -106q57 0 110 47.5t89.5 118t61.5 155.5q8 19 16 58q-46 -70 -114 -111t-140 -41
q-116 0 -191 85t-75 229q0 108 33.5 213.5t93.5 191t152.5 138.5t201.5 53zM592 1114q-47 0 -83 -47t-52.5 -105.5t-16.5 -109.5q0 -55 24.5 -90t72.5 -35q42 0 74.5 31t64.5 88q12 58 12 121q0 147 -96 147z" />
    <glyph glyph-name="colon" unicode=":" horiz-adv-x="530" 
d="M172 -25q-66 0 -112 47t-46 113q0 77 56 133t133 56q66 0 111.5 -47t45.5 -113q0 -77 -56 -133t-132 -56zM322 653q-66 0 -113 47.5t-47 112.5q0 78 56.5 134.5t133.5 56.5q66 0 112 -47t46 -113q0 -78 -55.5 -134.5t-132.5 -56.5z" />
    <glyph glyph-name="semicolon" unicode=";" horiz-adv-x="530" 
d="M371 150q0 -119 -88.5 -237.5t-221.5 -182.5l-98 100q63 29 122 75t83 97q-4 -2 -23 -2q-55 0 -93 37.5t-38 103.5q0 74 59 128.5t132 54.5q69 0 117.5 -46t48.5 -128zM322 653q-64 0 -111 47.5t-47 112.5q0 78 56 134.5t134 56.5q66 0 112 -47t46 -113q0 -78 -56 -134.5
t-134 -56.5z" />
    <glyph glyph-name="less" unicode="&#x3c;" horiz-adv-x="790" 
d="M686 313l-608 273l43 200l731 273l-45 -209l-514 -174l436 -170z" />
    <glyph glyph-name="equal" unicode="=" horiz-adv-x="790" 
d="M793 793h-670l37 168h671zM709 408h-670l37 167h669z" />
    <glyph glyph-name="greater" unicode="&#x3e;" horiz-adv-x="790" 
d="M748 586l-732 -273l50 209l512 170l-439 174l43 193l611 -273z" />
    <glyph glyph-name="question" unicode="?" horiz-adv-x="679" 
d="M459 504l-250 -78q-19 59 -19 123q0 67 20.5 125.5t51.5 97.5t67.5 77t67.5 66.5t51.5 63.5t20.5 70q0 34 -19.5 56.5t-56.5 22.5q-58 0 -106 -45l-84 201q130 102 291 102q128 0 213.5 -71t85.5 -182q0 -79 -35.5 -150t-86 -122.5t-101 -97.5t-86 -96t-35.5 -98
q0 -38 10 -65zM250 -25q-66 0 -112 47t-46 113q0 77 56.5 133t134.5 56q65 0 111 -47t46 -113q0 -76 -56.5 -132.5t-133.5 -56.5z" />
    <glyph glyph-name="at" unicode="@" horiz-adv-x="1337" 
d="M604 -143q-239 0 -365 155t-126 426q0 166 59 325t157 278.5t235 192.5t284 73q202 0 330.5 -133t128.5 -357q0 -170 -48 -318t-132 -236.5t-183 -88.5q-72 0 -123 35.5t-63 97.5l-2 21q-31 -47 -61 -77.5t-77 -53.5t-102 -23q-83 0 -140 62.5t-57 205.5q0 104 29 207
t79.5 185.5t126.5 134t163 51.5q59 0 96 -34t51 -93l23 98h243l-104 -493q-6 -30 -6 -56q0 -82 57 -82q15 0 33.5 19.5t37 59.5t34 93t25.5 126.5t10 154.5q0 194 -100.5 303t-272.5 109q-174 0 -325 -115t-236.5 -294.5t-85.5 -371.5q0 -86 15 -161t47 -139t80.5 -109.5
t118.5 -71.5t156 -26q87 0 160 27.5t154 84.5l43 -63q-181 -129 -367 -129zM649 369q22 0 41 8.5t36.5 29.5t25 32t24.5 38l53 258q-16 90 -73 90t-100 -59t-62 -134.5t-19 -146.5q0 -116 74 -116z" />
    <glyph glyph-name="A" unicode="A" horiz-adv-x="929" 
d="M825 0h-311l14 221h-237l-82 -221h-326l594 1366h357zM553 492l35 534l-199 -534h164z" />
    <glyph glyph-name="B" unicode="B" horiz-adv-x="976" 
d="M508 0h-522l301 1366h389q165 0 255.5 -86.5t90.5 -216.5q0 -138 -81 -252t-208 -131q82 -22 125 -92.5t43 -159.5q0 -61 -14 -120.5t-45.5 -115.5t-76.5 -98.5t-111.5 -68t-145.5 -25.5zM557 829q60 0 98.5 52t38.5 116q0 49 -29.5 74t-82.5 25h-45l-58 -267h78z
M440 270q65 0 107.5 53.5t42.5 131.5q0 104 -105 104h-67l-64 -289h86z" />
    <glyph glyph-name="C" unicode="C" horiz-adv-x="917" 
d="M444 -25q-189 0 -290 121.5t-101 335.5q0 72 10 155t33 176t56 181.5t83 169.5t110 142t141.5 97t172.5 36q79 0 141.5 -25.5t103 -66.5t67.5 -98t39 -115.5t14 -122.5l-287 -56q-7 209 -96 209q-60 0 -114.5 -80.5t-87.5 -194t-52.5 -226t-19.5 -187.5q0 -176 92 -176
q83 0 162 164l247 -101q-74 -166 -176.5 -252t-247.5 -86z" />
    <glyph glyph-name="D" unicode="D" horiz-adv-x="1024" 
d="M369 0h-383l301 1366h370q74 0 141.5 -30t121 -86.5t85 -146t31.5 -200.5q0 -68 -9.5 -144t-32 -164.5t-57 -171.5t-88 -161t-120.5 -135.5t-160 -92t-200 -34.5zM412 270h10q61 0 113 50t85.5 124t57 162.5t33.5 163.5t10 129q0 98 -34 147.5t-85 49.5h-65l-183 -826h58
z" />
    <glyph glyph-name="E" unicode="E" horiz-adv-x="802" 
d="M629 0h-643l301 1366h643l-62 -270h-331l-58 -267h318l-60 -270h-319l-64 -289h334z" />
    <glyph glyph-name="F" unicode="F" horiz-adv-x="794" 
d="M295 0h-309l301 1366h643l-62 -270h-331l-58 -267h318l-60 -270h-319z" />
    <glyph glyph-name="G" unicode="G" horiz-adv-x="970" 
d="M444 -25q-191 0 -291 123.5t-100 333.5q0 92 16 195.5t47 211.5t82 206t116 175t154 123t191 46q91 0 159.5 -31t108.5 -86t59.5 -122.5t21.5 -148.5l-260 -63q-2 76 -28 126t-79 50q-59 0 -112.5 -77t-87.5 -187.5t-54 -225.5t-20 -198q0 -96 22 -136t72 -40
q64 0 127 78l37 168h-140l62 270h409l-122 -551q-157 -240 -390 -240z" />
    <glyph glyph-name="H" unicode="H" horiz-adv-x="1040" 
d="M834 0h-310l125 567h-229l-125 -567h-309l301 1366h309l-117 -528h230l116 528h310z" />
    <glyph glyph-name="I" unicode="I" horiz-adv-x="501" 
d="M295 0h-309l301 1366h309z" />
    <glyph glyph-name="J" unicode="J" horiz-adv-x="741" 
d="M188 -25q-78 0 -149 21t-117 61l119 248q21 -26 54.5 -40.5t66.5 -14.5q119 0 149 133l217 983h312l-222 -999q-46 -205 -147.5 -298.5t-282.5 -93.5z" />
    <glyph glyph-name="K" unicode="K" horiz-adv-x="1017" 
d="M911 0h-327l-97 492l-122 -179l-70 -313h-309l301 1366h309l-121 -553l359 553h354l-467 -639z" />
    <glyph glyph-name="L" unicode="L" horiz-adv-x="778" 
d="M629 0h-643l301 1366h309l-242 -1096h334z" />
    <glyph glyph-name="M" unicode="M" horiz-adv-x="1323" 
d="M1116 0h-305l164 745l-375 -745h-100l-41 745l-164 -745h-309l301 1366h381l34 -639l326 639h389z" />
    <glyph glyph-name="N" unicode="N" horiz-adv-x="1040" 
d="M834 0h-289l-105 664l-145 -664h-309l301 1366h309l90 -631l139 631h310z" />
    <glyph glyph-name="O" unicode="O" horiz-adv-x="1024" 
d="M444 -25q-192 0 -291.5 127t-99.5 330q0 72 10.5 155.5t33.5 176.5t57 181.5t84 169.5t110 141.5t140.5 96.5t170.5 36q129 0 219 -63t131.5 -165t41.5 -233q0 -72 -10.5 -155.5t-34 -176t-57.5 -180.5t-84 -168.5t-110.5 -140.5t-140.5 -96t-170 -36zM459 250
q60 0 114.5 79.5t88 192t53.5 224.5t20 188q0 180 -94 180q-60 0 -114 -79.5t-87.5 -193t-53 -226t-19.5 -189.5q0 -176 92 -176z" />
    <glyph glyph-name="P" unicode="P" horiz-adv-x="960" 
d="M295 0h-309l301 1366h381q159 0 256.5 -103.5t97.5 -261.5q0 -102 -33 -194t-95.5 -166t-164.5 -118t-229 -44h-99zM461 750h65q79 0 126.5 66.5t47.5 152.5q0 60 -28.5 93.5t-75.5 33.5h-59z" />
    <glyph glyph-name="Q" unicode="Q" horiz-adv-x="1026" 
d="M444 -25q-192 0 -291.5 127t-99.5 330q0 72 10.5 155.5t33.5 176.5t57 181.5t84 169.5t110 141.5t140.5 96.5t170.5 36q129 0 219 -63t131.5 -165t41.5 -233q0 -92 -17.5 -200t-52 -222t-93.5 -221t-134 -179l22 -137l-225 -43l-10 62q-50 -13 -97 -13zM459 250
q23 0 39 8l-33 203l186 33q38 111 61 235.5t23 204.5q0 180 -94 180q-60 0 -114 -79.5t-87.5 -193t-53 -226t-19.5 -189.5q0 -176 92 -176z" />
    <glyph glyph-name="R" unicode="R" horiz-adv-x="993" 
d="M825 0h-323l-27 479h-74l-106 -479h-309l301 1366h383q153 0 252.5 -105.5t99.5 -261.5t-79.5 -289.5t-176.5 -172.5zM526 750h2q75 0 122.5 66t47.5 153q0 64 -28 95.5t-74 31.5h-59l-76 -346h65z" />
    <glyph glyph-name="S" unicode="S" horiz-adv-x="851" 
d="M338 -25q-122 0 -227 45.5t-162 118.5l174 230q35 -54 94.5 -86.5t120.5 -32.5q55 0 93 40t38 105q0 40 -33.5 82t-81 84.5t-95 91t-81 119.5t-33.5 152q0 193 132 329t323 136q98 0 192 -37t154 -103l-162 -231q-34 45 -83.5 70.5t-104.5 25.5q-56 0 -88.5 -38
t-32.5 -91q0 -41 33 -84t79.5 -85t93 -90.5t79.5 -119.5t33 -153q0 -96 -33.5 -183t-92 -152t-144.5 -104t-185 -39z" />
    <glyph glyph-name="T" unicode="T" horiz-adv-x="788" 
d="M440 0h-311l242 1096h-203l59 270h715l-59 -270h-203z" />
    <glyph glyph-name="U" unicode="U" horiz-adv-x="1040" 
d="M455 -25q-164 0 -274.5 102t-110.5 267q0 36 10 84l207 938h309l-213 -967q-6 -36 -6 -51q0 -47 28.5 -74.5t73.5 -27.5q51 0 83 35.5t50 117.5l213 967h312l-211 -948q-49 -222 -175 -332.5t-296 -110.5z" />
    <glyph glyph-name="V" unicode="V" horiz-adv-x="929" 
d="M532 0h-356l8 1366h312l-62 -971l365 971h327z" />
    <glyph glyph-name="W" unicode="W" horiz-adv-x="1331" 
d="M963 0h-310l78 795l-274 -795h-310l60 1366h309l-86 -827l301 827h240l-62 -827l279 827h319z" />
    <glyph glyph-name="X" unicode="X" horiz-adv-x="970" 
d="M868 0h-325l-70 416l-235 -416h-357l477 713l-159 653h327l54 -393l215 393h356l-453 -682z" />
    <glyph glyph-name="Y" unicode="Y" horiz-adv-x="942" 
d="M516 0h-311l123 559l-150 807h316l41 -514l270 514h338l-506 -807z" />
    <glyph glyph-name="Z" unicode="Z" horiz-adv-x="806" 
d="M639 0h-692l55 260l498 836h-312l60 270h678l-54 -248l-507 -848h335z" />
    <glyph glyph-name="bracketleft" unicode="[" horiz-adv-x="442" 
d="M207 -389h-330l393 1778h332l-39 -183h-137l-311 -1413h135z" />
    <glyph glyph-name="backslash" unicode="\" horiz-adv-x="493" 
d="M180 -41v1448h193v-1448h-193z" />
    <glyph glyph-name="bracketright" unicode="]" horiz-adv-x="442" 
d="M172 -389h-332l39 182h135l316 1413h-137l40 183h334z" />
    <glyph glyph-name="asciicircum" unicode="^" horiz-adv-x="698" 
d="M698 682h-190l-12 463l-217 -463h-201l362 684h201z" />
    <glyph glyph-name="underscore" unicode="_" horiz-adv-x="571" 
d="M408 -264h-582l41 182h582z" />
    <glyph glyph-name="grave" unicode="`" horiz-adv-x="395" 
d="M537 1139h-172l-158 295h233z" />
    <glyph glyph-name="a" unicode="a" horiz-adv-x="905" 
d="M426 1014q159 0 203 -144l28 119h275l-219 -989h-277l25 113q-89 -138 -211 -138q-113 0 -171.5 82t-58.5 244q0 82 15.5 175.5t49 189.5t80 173t114.5 126t147 49zM494 770q-46 0 -84.5 -49t-60 -120t-33 -139.5t-11.5 -119.5q0 -60 23.5 -91.5t66.5 -31.5q31 0 61 26.5
t50 65.5l80 365q-6 43 -31.5 68.5t-60.5 25.5z" />
    <glyph glyph-name="b" unicode="b" horiz-adv-x="905" 
d="M479 -25q-159 0 -205 146l-24 -121h-277l299 1366h279l-109 -489q92 137 211 137q113 0 171.5 -82t58.5 -244q0 -104 -25.5 -223.5t-73 -231t-128 -185t-177.5 -73.5zM410 219q46 0 84 49t59 120t32 139.5t11 119.5q0 123 -90 123q-28 0 -57.5 -26.5t-49.5 -65.5
l-82 -365q7 -42 33 -68t60 -26z" />
    <glyph glyph-name="c" unicode="c" horiz-adv-x="733" 
d="M389 -25q-168 0 -265 100t-97 285q0 93 21 186.5t63.5 177.5t100 149t136.5 103t168 38q85 0 158.5 -28.5t116.5 -74.5l-127 -206q-40 65 -123 65q-65 0 -119.5 -60t-82.5 -146t-28 -171q0 -86 39.5 -130t106.5 -44q65 0 116 51l39 -219q-92 -76 -223 -76z" />
    <glyph glyph-name="d" unicode="d" horiz-adv-x="905" 
d="M426 1014q159 0 203 -144l110 496h275l-301 -1366h-277l25 113q-89 -138 -211 -138q-113 0 -171.5 82t-58.5 244q0 82 15.5 175.5t49 189.5t80 173t114.5 126t147 49zM494 770q-46 0 -84.5 -49t-60 -120t-33 -139.5t-11.5 -119.5q0 -60 23.5 -91.5t66.5 -31.5
q31 0 61 26.5t50 65.5l80 365q-6 43 -31.5 68.5t-60.5 25.5z" />
    <glyph glyph-name="e" unicode="e" horiz-adv-x="860" 
d="M391 -25q-172 0 -268 103t-96 287q0 81 19 169t59.5 173.5t96 154t135.5 110.5t171 42q167 0 247.5 -94.5t80.5 -257.5q0 -106 -39 -259h-512q-4 -20 -4 -59q0 -24 7.5 -47t24 -46.5t51 -37.5t82.5 -14q84 0 168 73l91 -172q-61 -59 -145 -92t-169 -33zM324 594h256
q8 36 8 76q0 55 -29 88t-74 33q-47 0 -83 -33.5t-53 -75t-25 -88.5z" />
    <glyph glyph-name="f" unicode="f" horiz-adv-x="536" 
d="M283 0h-277l166 748h-90l55 241h88l15 70q12 57 28 103t42.5 89t61 71.5t84 46t109.5 17.5q66 0 125.5 -17.5t87.5 -43.5l-106 -205q-28 31 -62 31q-77 0 -94 -92l-14 -70h121l-56 -241h-118z" />
    <glyph glyph-name="g" unicode="g" horiz-adv-x="905" 
d="M266 -401q-111 0 -200.5 34t-143.5 97l137 204q34 -46 87 -73t112 -27q70 0 115 49.5t71 157.5l29 119q-43 -70 -98.5 -106t-114.5 -36q-114 0 -173.5 79.5t-59.5 230.5q0 79 13 167t44 181.5t75 167.5t113 122t152 48q66 0 128.5 -37.5t76.5 -106.5l26 119h277
l-211 -940q-28 -129 -74 -219t-106.5 -139.5t-127 -70.5t-147.5 -21zM403 266q29 0 59.5 25.5t51.5 64.5l72 320q-11 40 -38 67t-59 27q-45 0 -81.5 -42.5t-56.5 -106t-30 -124.5t-10 -110q0 -65 23 -93t69 -28z" />
    <glyph glyph-name="h" unicode="h" horiz-adv-x="903" 
d="M711 0h-279l150 676q6 12 6 35q0 28 -15 43.5t-41 15.5q-67 0 -139 -115l-143 -655h-279l301 1366h279l-111 -498q46 61 113.5 103.5t140.5 42.5q91 0 143 -48.5t52 -125.5q0 -18 -8 -58z" />
    <glyph glyph-name="i" unicode="i" horiz-adv-x="442" 
d="M367 1090q-64 0 -106 40.5t-42 98.5q0 85 59 136.5t128 51.5q63 0 105 -41t42 -100q0 -84 -58.5 -135t-127.5 -51zM250 0h-279l219 989h279z" />
    <glyph glyph-name="j" unicode="j" horiz-adv-x="442" 
d="M-111 -401q-113 0 -161 51l98 207q13 -23 47 -23q61 0 86 111l231 1044h279l-233 -1044q-39 -178 -116 -262t-231 -84zM367 1090q-64 0 -106 40.5t-42 98.5q0 85 59 136.5t128 51.5q63 0 105 -41t42 -100q0 -84 -58.5 -135t-127.5 -51z" />
    <glyph glyph-name="k" unicode="k" horiz-adv-x="868" 
d="M758 0h-299l-47 373l-115 -154l-47 -219h-279l301 1366h279l-170 -774l270 397h312l-326 -438z" />
    <glyph glyph-name="l" unicode="l" horiz-adv-x="442" 
d="M250 0h-279l301 1366h279z" />
    <glyph glyph-name="m" unicode="m" horiz-adv-x="1363" 
d="M1169 0h-276l149 676q0 1 2 7t3.5 14.5t1.5 13.5q0 27 -14.5 43t-41.5 16q-39 0 -76 -34.5t-63 -80.5l-143 -655h-279l150 676q6 12 6 35q0 28 -15 43.5t-41 15.5q-38 0 -75 -34.5t-64 -80.5l-143 -655h-279l219 989h279l-29 -121q45 63 114 104.5t140 41.5q85 0 140 -45
t55 -107q0 -4 -2 -12q46 70 120 117t148 47q88 0 141.5 -46.5t53.5 -127.5q0 -26 -9 -58z" />
    <glyph glyph-name="n" unicode="n" horiz-adv-x="903" 
d="M711 0h-279l150 676q6 18 6 35q0 28 -15 43.5t-41 15.5q-67 0 -139 -115l-143 -655h-279l219 989h279l-29 -121q46 61 113.5 103.5t140.5 42.5q91 0 143 -48t52 -126q0 -34 -8 -58z" />
    <glyph glyph-name="o" unicode="o" 
d="M377 -25q-170 0 -260 102.5t-90 280.5q0 87 19.5 178t60.5 177t96.5 153t134.5 107.5t168 40.5q173 0 263.5 -102t90.5 -281q0 -87 -20 -177.5t-61 -176.5t-97 -153t-135.5 -108t-169.5 -41zM393 219q44 0 81.5 49t59.5 118.5t34 137t12 113.5q0 133 -88 133
q-44 0 -81.5 -49t-59.5 -119t-34 -137t-12 -113q0 -133 88 -133z" />
    <glyph glyph-name="p" unicode="p" horiz-adv-x="905" 
d="M479 -25q-159 0 -205 146l-108 -498h-277l301 1366h279l-27 -112q92 137 211 137q113 0 171.5 -82t58.5 -244q0 -104 -25.5 -223.5t-73 -231t-128 -185t-177.5 -73.5zM410 219q46 0 84 49t59 120t32 139.5t11 119.5q0 123 -90 123q-28 0 -57.5 -26.5t-49.5 -65.5
l-82 -365q7 -42 33 -68t60 -26z" />
    <glyph glyph-name="q" unicode="q" horiz-adv-x="905" 
d="M426 1014q159 0 203 -144l26 119h275l-301 -1366h-277l109 490q-89 -138 -211 -138q-113 0 -171.5 82t-58.5 244q0 82 15.5 175.5t49 189.5t80 173t114.5 126t147 49zM494 770q-46 0 -84.5 -49t-60 -120t-33 -139.5t-11.5 -119.5q0 -60 23.5 -91.5t66.5 -31.5
q31 0 61 26.5t50 65.5l80 365q-6 43 -31.5 68.5t-60.5 25.5z" />
    <glyph glyph-name="r" unicode="r" horiz-adv-x="604" 
d="M250 0h-279l219 989h279l-27 -121q39 66 105.5 106t146.5 40l-63 -273q-23 13 -58 13q-102 0 -184 -113z" />
    <glyph glyph-name="s" unicode="s" horiz-adv-x="745" 
d="M295 -25q-115 0 -213.5 45t-138.5 107l147 178q34 -47 88.5 -79.5t116.5 -32.5q48 0 78 26t30 64q0 25 -23 49t-58 43t-75.5 46.5t-75.5 58t-58 79.5t-23 109q0 144 96 245t267 101q92 0 180 -37.5t147 -104.5l-141 -174q-24 35 -78 67t-110 32q-43 0 -69 -21.5
t-26 -58.5q0 -25 33.5 -50.5t81 -52.5t95 -61.5t81 -91.5t33.5 -129q0 -145 -106 -251t-279 -106z" />
    <glyph glyph-name="t" unicode="t" horiz-adv-x="552" 
d="M309 -25q-127 0 -193.5 48.5t-66.5 144.5q0 47 12 94l111 486h-90l53 241h90l60 271h276l-59 -271h121l-56 -241h-118l-97 -433q-6 -21 -6 -45q0 -51 51 -51q20 0 43 14l-2 -229q-49 -29 -129 -29z" />
    <glyph glyph-name="u" unicode="u" horiz-adv-x="903" 
d="M190 989h279l-150 -670q-6 -27 -6 -45q0 -25 15 -40t41 -15q38 0 74 32.5t63 78.5l145 659h279l-219 -989h-279l29 121q-48 -62 -114.5 -104t-139.5 -42q-91 0 -143 48.5t-52 126.5q0 33 8 57z" />
    <glyph glyph-name="v" unicode="v" horiz-adv-x="835" 
d="M455 0h-295l-56 989h285l-14 -641l274 641h299z" />
    <glyph glyph-name="w" unicode="w" horiz-adv-x="1312" 
d="M967 0h-291l4 612l-264 -612h-291l-14 989h278l-24 -616l253 616h261l-9 -616l254 616h295z" />
    <glyph glyph-name="x" unicode="x" horiz-adv-x="808" 
d="M700 0h-288l-45 295l-179 -295h-301l342 498l-112 491h282l41 -289l168 289h299l-334 -491z" />
    <glyph glyph-name="y" unicode="y" horiz-adv-x="835" 
d="M-104 -373l90 228q13 -13 47 -13q45 0 80 62l45 86l-54 999h285l-14 -639l274 639h299l-571 -1143q-74 -143 -144 -195t-174 -52q-97 0 -163 28z" />
    <glyph glyph-name="z" unicode="z" horiz-adv-x="720" 
d="M563 0h-626l43 207l399 541h-279l56 241h618l-45 -196l-401 -551h286z" />
    <glyph glyph-name="braceleft" unicode="{" horiz-adv-x="466" 
d="M233 -389h-36q-89 0 -160 58t-72 147q0 25 8 53l93 420q4 20 4 35q0 45 -22 72.5t-58 27.5l35 151q105 0 135 138l92 420q29 125 111 190.5t210 65.5h56l-39 -183h-55q-31 0 -54 -19t-30 -54l-103 -469q-16 -76 -45.5 -120.5t-87.5 -66.5q59 -29 59 -112q0 -37 -8 -70
l-90 -410q-6 -36 -6 -37q0 -26 14 -41.5t35 -15.5h55z" />
    <glyph glyph-name="bar" unicode="|" horiz-adv-x="372" 
d="M319 -41h-182v1448h182v-1448z" />
    <glyph glyph-name="braceright" unicode="}" horiz-adv-x="466" 
d="M231 1389h37q91 0 161.5 -58t70.5 -147q0 -33 -6 -54l-93 -417q-6 -30 -6 -39q0 -44 22 -71.5t60 -27.5l-35 -151q-107 0 -137 -135l-92 -422q-28 -125 -110.5 -190.5t-211.5 -65.5h-55l41 182h55q30 0 52.5 19.5t29.5 54.5l105 469q16 76 45.5 120t87.5 66
q-59 29 -59 113q0 37 8 70l90 409q6 36 6 37q0 25 -14.5 41t-34.5 16h-58z" />
    <glyph glyph-name="asciitilde" unicode="~" horiz-adv-x="874" 
d="M825 1366l183 -14q-12 -70 -27.5 -131.5t-44.5 -134t-65 -124t-90.5 -86t-118.5 -34.5q-59 0 -96 26.5t-49 66t-17.5 85.5t-4 85.5t-6 66t-26.5 26.5q-72 0 -150 -358l-184 14q13 69 29 131t46 135t66 124.5t90.5 86.5t118.5 35q70 0 108.5 -37t47 -89.5t9 -105
t6.5 -89.5t28 -37q73 0 147 358z" />
    <glyph glyph-name="nbspace" unicode="&#xa0;" horiz-adv-x="325" 
 />
    <glyph glyph-name="exclamdown" unicode="&#xa1;" horiz-adv-x="530" 
d="M154 535h243l-157 -912h-334zM360 1014q67 0 112.5 -46.5t45.5 -113.5q0 -76 -56 -132t-132 -56q-66 0 -113 46.5t-47 112.5q0 76 56.5 132.5t133.5 56.5z" />
    <glyph glyph-name="cent" unicode="&#xa2;" horiz-adv-x="733" 
d="M174 -205l47 211q-93 40 -143.5 130.5t-50.5 223.5q0 144 48.5 281.5t145 239t221.5 125.5l35 151h201l-37 -162q93 -24 150 -84l-127 -206q-40 65 -123 65q-65 0 -119.5 -60t-82.5 -146t-28 -171q0 -86 39.5 -130t106.5 -44q65 0 116 51l39 -219q-78 -67 -198 -76
l-39 -180h-201z" />
    <glyph glyph-name="sterling" unicode="&#xa3;" horiz-adv-x="915" 
d="M76 571l39 174h88q-19 82 -19 152q0 107 42.5 200.5t110.5 155.5t151.5 97.5t166.5 35.5q150 0 251 -81.5t104 -233.5l-267 -74q-3 70 -22.5 105t-61.5 35q-59 0 -102 -86.5t-43 -198.5q0 -49 14 -107h142l-39 -174h-101q-15 -94 -58.5 -170.5t-106.5 -119.5q41 16 71 16
q46 0 107 -23.5t98 -23.5q78 0 137 55l23 -250q-87 -80 -217 -80q-70 0 -131 21.5t-113 43t-100 21.5q-77 0 -179 -75l-38 209q97 57 157 151.5t60 198.5q0 18 -2 26h-162z" />
    <glyph glyph-name="currency" unicode="&#xa4;" horiz-adv-x="954" 
d="M463 203q-109 0 -189 41l-168 -135l-139 180l160 131q-25 70 -25 155q0 118 36.5 227.5t103.5 192.5l-109 140l184 147l113 -147q64 24 141 24q111 0 185 -41l174 142l143 -181l-166 -133q27 -73 27 -162q0 -116 -35.5 -224t-101.5 -189l106 -140l-184 -149l-113 145
q-68 -24 -143 -24zM367 586q0 -146 110 -146q76 0 133.5 99t57.5 233q0 70 -28 111t-83 41q-75 0 -132.5 -102.5t-57.5 -235.5z" />
    <glyph glyph-name="yen" unicode="&#xa5;" horiz-adv-x="942" 
d="M516 0h-311l51 233h-264l39 168h262l35 158h-262l38 168h193l-119 639h316l41 -514l270 514h338l-402 -639h193l-39 -168h-258l-35 -158h258l-39 -168h-256z" />
    <glyph glyph-name="brokenbar" unicode="&#xa6;" horiz-adv-x="372" 
d="M319 -41h-182v647h182v-647zM319 760h-182v647h182v-647z" />
    <glyph glyph-name="section" unicode="&#xa7;" horiz-adv-x="747" 
d="M754 698q0 -101 -53 -181.5t-156 -129.5q47 -34 71.5 -85.5t24.5 -106.5q0 -151 -107.5 -256t-267.5 -105q-125 0 -222.5 35.5t-143.5 103.5l149 177q30 -51 82.5 -81t116.5 -30q55 0 89 35.5t34 83.5q0 32 -23 59.5t-57 47t-74 46.5t-74 56t-57 78t-23 110
q0 101 60.5 180.5t161.5 110.5q-50 35 -79.5 92t-29.5 117q0 141 103 236t247 95q235 0 351 -139l-146 -151q-68 96 -184 96q-47 0 -77 -31.5t-30 -73.5q0 -30 23.5 -58t58 -49t75.5 -49.5t75.5 -57.5t58 -74.5t23.5 -100.5zM498 631q0 74 -60 119q-119 -26 -119 -140
q0 -86 84 -127q95 45 95 148z" />
    <glyph glyph-name="dieresis" unicode="&#xa8;" horiz-adv-x="581" 
d="M782 1270q0 -64 -50 -113t-114 -49q-56 0 -92.5 37t-36.5 92q0 64 49.5 113t114.5 49q55 0 92 -36.5t37 -92.5zM426 1270q0 -64 -49.5 -113t-114.5 -49q-55 0 -91 36.5t-36 92.5q0 64 49.5 113t112.5 49q55 0 92 -36.5t37 -92.5z" />
    <glyph glyph-name="copyright" unicode="&#xa9;" horiz-adv-x="1593" 
d="M1544 684q0 -143 -56.5 -274t-151.5 -226t-226 -151t-274 -56q-191 0 -353.5 95t-257 258t-94.5 354t94.5 354t257 258t353.5 95q143 0 274 -56t226 -151t151.5 -226t56.5 -274zM1466 684q0 169 -85 314t-230.5 230t-314.5 85t-313.5 -85t-229 -230t-84.5 -314t84.5 -314
t229 -230t313.5 -85t314.5 85t230.5 230t85 314zM1038 436l52 -71q-133 -113 -285 -113q-177 0 -284 106.5t-107 270.5q0 102 40 193.5t105.5 155t152.5 101t179 37.5q106 0 191 -42t135 -124l-80 -55q-75 137 -252 137q-68 0 -135.5 -30.5t-120.5 -82t-86 -127t-33 -159.5
q0 -124 81 -210.5t216 -86.5q63 0 124 28t107 72z" />
    <glyph glyph-name="ordfeminine" unicode="&#xaa;" horiz-adv-x="663" 
d="M467 1169q-54 0 -92.5 -90.5t-38.5 -179.5q0 -42 16.5 -66t46.5 -24q40 0 78 65l53 238q-8 26 -24.5 41.5t-38.5 15.5zM573 1311h199l-141 -643h-199l17 73q-64 -90 -150 -90q-75 0 -120.5 56.5t-45.5 173.5q0 72 19.5 149.5t54 144t89 109.5t116.5 43q47 0 85.5 -22.5
t59.5 -67.5z" />
    <glyph glyph-name="guillemotleft" unicode="&#xab;" horiz-adv-x="851" 
d="M367 129h-205l-103 369l267 362h213l-273 -371zM702 129h-206l-103 369l266 362h215l-272 -371z" />
    <glyph glyph-name="logicalnot" unicode="&#xac;" horiz-adv-x="790" 
d="M831 961l-122 -553h-174l83 385h-495l37 168h671z" />
    <glyph glyph-name="uni00AD" unicode="&#xad;" horiz-adv-x="499" 
d="M412 379h-377l51 233h377z" />
    <glyph glyph-name="registered" unicode="&#xae;" horiz-adv-x="1011" 
d="M1040 952q0 -180 -127.5 -307t-308.5 -127q-180 0 -306 127t-126 307q0 181 127 307.5t307 126.5q119 0 219 -57.5t157.5 -157.5t57.5 -219zM973 952q0 155 -107.5 261t-261.5 106t-259 -106t-105 -261q0 -153 105.5 -259.5t258.5 -106.5q154 0 261.5 107t107.5 259z
M756 702h-84l-86 197h-88l-43 -197h-72l109 498h192q65 0 105 -36.5t40 -94.5q0 -72 -50.5 -120t-112.5 -48zM754 1063q0 36 -23 56t-63 20h-117l-39 -176h131q45 0 78 28.5t33 71.5z" />
    <glyph glyph-name="macron" unicode="&#xaf;" horiz-adv-x="538" 
d="M682 1147h-537l33 156h537z" />
    <glyph glyph-name="degree" unicode="&#xb0;" horiz-adv-x="643" 
d="M735 1106q0 -117 -81.5 -199t-198.5 -82t-199 82t-82 199q0 116 82 198t199 82t198.5 -82t81.5 -198zM588 1106q0 54 -39 93.5t-94 39.5t-93 -39t-38 -94q0 -56 37 -94.5t92 -38.5q56 0 95.5 39t39.5 94z" />
    <glyph glyph-name="plusminus" unicode="&#xb1;" horiz-adv-x="790" 
d="M754 606h-242l-66 -291h-186l64 291h-242l39 168h241l62 277h184l-59 -277h242zM627 37h-670l37 170h670z" />
    <glyph glyph-name="twosuperior" unicode="&#xb2;" horiz-adv-x="630" 
d="M682 862h-549l37 162q270 208 350 287.5t80 140.5q0 37 -23.5 57.5t-64.5 20.5q-84 0 -162 -90l-94 135q119 119 272 119q122 0 202.5 -58t80.5 -161q0 -32 -9 -63t-21.5 -57.5t-41 -59.5t-53 -57.5t-72.5 -64.5t-83.5 -68t-102.5 -79h291z" />
    <glyph glyph-name="threesuperior" unicode="&#xb3;" horiz-adv-x="630" 
d="M731 1104q0 -99 -81.5 -177.5t-209.5 -78.5q-100 0 -179.5 37t-117.5 104l150 121q47 -98 137 -98q47 0 74.5 35t27.5 77q0 37 -24.5 55.5t-63.5 18.5q-47 0 -61 -2l35 162q10 -2 69 -2q52 0 81.5 28t29.5 74q0 33 -25 52.5t-65 19.5q-84 0 -148 -76l-102 119
q115 121 268 121q125 0 202 -54t77 -149q0 -77 -53 -144t-144 -75q63 -19 93 -64.5t30 -103.5z" />
    <glyph glyph-name="acute" unicode="&#xb4;" horiz-adv-x="395" 
d="M602 1434l-289 -295h-176l230 295h235z" />
    <glyph glyph-name="mu" unicode="&#xb5;" horiz-adv-x="931" 
d="M250 2l-82 -379h-279l301 1366h279l-152 -680q-8 -42 5.5 -66t46.5 -24q69 0 137 109l145 661h279l-156 -702q-14 -68 33 -68q15 0 31 4l-31 -229q-55 -19 -129 -19q-103 0 -141.5 41.5t-36.5 137.5q-29 -84 -79.5 -131.5t-98.5 -47.5q-42 0 -72 27z" />
    <glyph glyph-name="paragraph" unicode="&#xb6;" horiz-adv-x="919" 
d="M674 -205h-133l321 1438h-160l-319 -1438h-133l192 867q-116 0 -198 91t-82 228q0 97 50.5 185t143 144t203.5 56h463z" />
    <glyph glyph-name="periodcentered" unicode="&#xb7;" horiz-adv-x="530" 
d="M248 326q-66 0 -111 46.5t-45 112.5q0 77 56.5 134t132.5 57q66 0 111.5 -48t45.5 -114q0 -77 -56 -132.5t-134 -55.5z" />
    <glyph glyph-name="cedilla" unicode="&#xb8;" horiz-adv-x="391" 
d="M18 -401q-122 0 -198 82l67 98q52 -66 129 -66q36 0 57 21t21 51q0 41 -39 41q-27 0 -47 -27l-86 56l98 168h136l-82 -127q23 20 47 20q48 0 79 -34t31 -91q0 -83 -61 -137.5t-152 -54.5z" />
    <glyph glyph-name="onesuperior" unicode="&#xb9;" horiz-adv-x="530" 
d="M530 862h-208l118 547l-129 -109l-94 125l315 256h179z" />
    <glyph glyph-name="ordmasculine" unicode="&#xba;" horiz-adv-x="651" 
d="M393 651q-122 0 -188 71t-66 185q0 101 38.5 195.5t117.5 159.5t180 65q121 0 187.5 -71t66.5 -185q0 -101 -38.5 -195.5t-117.5 -159.5t-180 -65zM401 811q31 0 56.5 33t39.5 79t21.5 88.5t7.5 69.5q0 84 -63 84q-31 0 -56.5 -32.5t-39.5 -79t-21.5 -88.5t-7.5 -68
q0 -86 63 -86z" />
    <glyph glyph-name="guillemotright" unicode="&#xbb;" horiz-adv-x="851" 
d="M150 860h204l103 -368l-267 -363h-213l273 371zM483 860h207l103 -368l-267 -363h-215l273 371z" />
    <glyph glyph-name="onequarter" unicode="&#xbc;" horiz-adv-x="1400" 
d="M461 547h-209l119 547l-129 -109l-95 125l316 256h178zM1305 170h-68l-37 -170h-207l37 170h-311l37 160l374 489h250l-106 -485h65zM1065 334l57 256l-192 -256h135zM1239 1366l-881 -1366h-112l878 1366h115z" />
    <glyph glyph-name="onehalf" unicode="&#xbd;" horiz-adv-x="1476" 
d="M461 547h-209l119 547l-129 -109l-95 125l316 256h178zM1339 0h-548l36 162q270 208 350 287.5t80 140.5q0 37 -23.5 57.5t-64.5 20.5q-83 0 -161 -90l-95 135q118 118 273 118q122 0 202 -58t80 -161q0 -32 -9 -63t-21.5 -57t-41.5 -59.5t-52.5 -57.5t-72.5 -64.5
t-83.5 -67.5t-102.5 -79h291zM1239 1366l-881 -1366h-112l878 1366h115z" />
    <glyph glyph-name="threequarters" unicode="&#xbe;" horiz-adv-x="1474" 
d="M1378 170h-67l-37 -170h-207l37 170h-311l36 160l375 489h250l-106 -485h65zM1139 334l57 256l-192 -256h135zM1313 1366l-881 -1366h-113l879 1366h115zM662 788q0 -99 -81.5 -177.5t-209.5 -78.5q-99 0 -179 37.5t-118 104.5l149 121q22 -46 57.5 -72.5t79.5 -26.5
q47 0 75 35.5t28 77.5q0 37 -24.5 55.5t-63.5 18.5q-48 0 -62 -2l35 161q10 -2 70 -2q52 0 81 28t29 75q0 33 -25 52t-65 19q-84 0 -147 -75l-103 118q115 121 269 121q125 0 201.5 -53.5t76.5 -148.5q0 -49 -21.5 -96t-67.5 -82.5t-107 -41.5q63 -19 93 -64.5t30 -103.5z
" />
    <glyph glyph-name="questiondown" unicode="&#xbf;" horiz-adv-x="606" 
d="M217 483l250 78q16 -50 16 -121q0 -80 -28.5 -146.5t-69 -111t-81 -82.5t-69 -78t-28.5 -81q0 -35 20.5 -57.5t57.5 -22.5q59 0 102 43l84 -199q-126 -104 -287 -104q-128 0 -214.5 71.5t-86.5 182.5q0 68 25.5 129.5t64 105.5t83.5 88t83.5 79t64 77.5t25.5 83.5t-12 65
zM428 1012q64 0 110 -47t46 -113q0 -76 -57 -132t-132 -56q-67 0 -113 46.5t-46 114.5q0 75 57 131t135 56z" />
    <glyph glyph-name="Agrave" unicode="&#xc0;" horiz-adv-x="929" 
d="M825 0h-311l14 221h-237l-82 -221h-326l594 1366h357zM553 492l35 534l-199 -534h164zM778 1481h-172l-157 295h233z" />
    <glyph glyph-name="Aacute" unicode="&#xc1;" horiz-adv-x="929" 
d="M825 0h-311l14 221h-237l-82 -221h-326l594 1366h357zM553 492l35 534l-199 -534h164zM1042 1776l-288 -295h-176l229 295h235z" />
    <glyph glyph-name="Acircumflex" unicode="&#xc2;" horiz-adv-x="929" 
d="M932 1481h-146l-65 176l-135 -176h-156l191 295h245zM825 0h-311l14 221h-237l-82 -221h-326l594 1366h357zM553 492l35 534l-199 -534h164z" />
    <glyph glyph-name="Atilde" unicode="&#xc3;" horiz-adv-x="929" 
d="M825 0h-311l14 221h-237l-82 -221h-326l594 1366h357zM553 492l35 534l-199 -534h164zM793 1477q-42 0 -69 20.5t-37 45t-26.5 45t-39.5 20.5q-44 0 -70 -119h-143q63 274 225 274q34 0 58 -13.5t36.5 -32.5t22.5 -38.5t23.5 -33t33.5 -13.5q44 0 70 119h143
q-27 -127 -84.5 -200.5t-142.5 -73.5z" />
    <glyph glyph-name="Adieresis" unicode="&#xc4;" horiz-adv-x="929" 
d="M1030 1612q0 -64 -50 -113t-114 -49q-56 0 -92.5 37t-36.5 92q0 64 49.5 113t114.5 49q55 0 92 -36.5t37 -92.5zM674 1612q0 -64 -49.5 -113t-114.5 -49q-55 0 -91 36.5t-36 92.5q0 64 49.5 113t112.5 49q55 0 92 -36.5t37 -92.5zM825 0h-311l14 221h-237l-82 -221h-326
l594 1366h357zM553 492l35 534l-199 -534h164z" />
    <glyph glyph-name="Aring" unicode="&#xc5;" horiz-adv-x="929" 
d="M825 0h-311l14 221h-237l-82 -221h-326l594 1366h357zM553 492l35 534l-199 -534h164zM686 1413q-73 0 -119.5 47.5t-46.5 120.5q0 85 62.5 149t146.5 64q73 0 120.5 -48t47.5 -122q0 -85 -63 -148t-148 -63zM702 1530q31 0 55.5 24.5t24.5 57.5q0 29 -17 47t-46 18
q-33 0 -57.5 -24.5t-24.5 -57.5q0 -29 18 -47t47 -18z" />
    <glyph glyph-name="AE" unicode="&#xc6;" horiz-adv-x="1296" 
d="M1135 0h-641l47 221h-213l-113 -221h-324l768 1366h777l-60 -270h-332l-59 -267h320l-62 -270h-317l-64 -289h332zM600 492l113 503l-252 -503h139z" />
    <glyph glyph-name="Ccedilla" unicode="&#xc7;" horiz-adv-x="917" 
d="M338 -401q-123 0 -199 82l68 98q52 -66 129 -66q36 0 57 21t21 51q0 41 -39 41q-27 0 -47 -27l-86 56l80 137q-131 35 -200 150t-69 290q0 72 10 155t33 176t56 181.5t83 169.5t110 142t141.5 97t172.5 36q79 0 141.5 -25.5t103 -66.5t67.5 -98t39 -115.5t14 -122.5
l-287 -56q-7 209 -96 209q-60 0 -114.5 -80.5t-87.5 -194t-52.5 -226t-19.5 -187.5q0 -176 92 -176q83 0 162 164l247 -101q-74 -166 -176.5 -252t-247.5 -86l-51 -79q23 20 47 20q48 0 79.5 -34t31.5 -91q0 -83 -61 -137.5t-152 -54.5z" />
    <glyph glyph-name="Egrave" unicode="&#xc8;" horiz-adv-x="802" 
d="M629 0h-643l301 1366h643l-62 -270h-331l-58 -267h318l-60 -270h-319l-64 -289h334zM731 1481h-172l-158 295h234z" />
    <glyph glyph-name="Eacute" unicode="&#xc9;" horiz-adv-x="802" 
d="M997 1776l-288 -295h-177l230 295h235zM629 0h-643l301 1366h643l-62 -270h-331l-58 -267h318l-60 -270h-319l-64 -289h334z" />
    <glyph glyph-name="Ecircumflex" unicode="&#xca;" horiz-adv-x="802" 
d="M885 1481h-146l-65 176l-135 -176h-156l190 295h246zM629 0h-643l301 1366h643l-62 -270h-331l-58 -267h318l-60 -270h-319l-64 -289h334z" />
    <glyph glyph-name="Edieresis" unicode="&#xcb;" horiz-adv-x="802" 
d="M981 1612q0 -64 -50 -113t-114 -49q-55 0 -92 37t-37 92q0 64 49.5 113t114.5 49q56 0 92.5 -36.5t36.5 -92.5zM625 1612q0 -64 -49.5 -113t-114.5 -49q-55 0 -91 36.5t-36 92.5q0 64 49.5 113t112.5 49q56 0 92.5 -36.5t36.5 -92.5zM629 0h-643l301 1366h643l-62 -270
h-331l-58 -267h318l-60 -270h-319l-64 -289h334z" />
    <glyph glyph-name="Igrave" unicode="&#xcc;" horiz-adv-x="501" 
d="M295 0h-309l301 1366h309zM563 1481h-172l-158 295h234z" />
    <glyph glyph-name="Iacute" unicode="&#xcd;" horiz-adv-x="501" 
d="M295 0h-309l301 1366h309zM829 1776l-288 -295h-176l229 295h235z" />
    <glyph glyph-name="Icircumflex" unicode="&#xce;" horiz-adv-x="501" 
d="M719 1481h-146l-65 176l-135 -176h-156l191 295h245zM295 0h-309l301 1366h309z" />
    <glyph glyph-name="Idieresis" unicode="&#xcf;" horiz-adv-x="501" 
d="M817 1612q0 -64 -50 -113t-114 -49q-55 0 -92 37t-37 92q0 64 49.5 113t114.5 49q56 0 92.5 -36.5t36.5 -92.5zM461 1612q0 -64 -49.5 -113t-114.5 -49q-55 0 -91 36.5t-36 92.5q0 64 49.5 113t112.5 49q56 0 92.5 -36.5t36.5 -92.5zM295 0h-309l301 1366h309z" />
    <glyph glyph-name="Eth" unicode="&#xd0;" horiz-adv-x="1073" 
d="M418 0h-383l123 559h-117l53 248h117l125 559h371q74 0 141.5 -30t120.5 -86.5t84.5 -146t31.5 -200.5q0 -68 -9.5 -144t-32 -164.5t-57 -171.5t-88 -161t-120.5 -135.5t-160 -92t-200 -34.5zM596 559h-129l-64 -289h68q61 0 113 50t85.5 124t57 162.5t33.5 163.5t10 129
q0 98 -34 147.5t-85 49.5h-65l-64 -289h129z" />
    <glyph glyph-name="Ntilde" unicode="&#xd1;" horiz-adv-x="1040" 
d="M848 1477q-42 0 -69 20.5t-37 45t-26.5 45t-39.5 20.5q-44 0 -70 -119h-143q63 274 225 274q34 0 58 -13.5t36.5 -32.5t22.5 -38.5t23.5 -33t33.5 -13.5q44 0 70 119h143q-27 -127 -84.5 -200.5t-142.5 -73.5zM834 0h-289l-105 664l-145 -664h-309l301 1366h309l90 -631
l139 631h310z" />
    <glyph glyph-name="Ograve" unicode="&#xd2;" horiz-adv-x="1024" 
d="M825 1481h-172l-157 295h233zM444 -25q-192 0 -291.5 127t-99.5 330q0 72 10.5 155.5t33.5 176.5t57 181.5t84 169.5t110 141.5t140.5 96.5t170.5 36q129 0 219 -63t131.5 -165t41.5 -233q0 -72 -10.5 -155.5t-34 -176t-57.5 -180.5t-84 -168.5t-110.5 -140.5t-140.5 -96
t-170 -36zM459 250q60 0 114.5 79.5t88 192t53.5 224.5t20 188q0 180 -94 180q-60 0 -114 -79.5t-87.5 -193t-53 -226t-19.5 -189.5q0 -176 92 -176z" />
    <glyph glyph-name="Oacute" unicode="&#xd3;" horiz-adv-x="1024" 
d="M1092 1776l-289 -295h-176l229 295h236zM444 -25q-192 0 -291.5 127t-99.5 330q0 72 10.5 155.5t33.5 176.5t57 181.5t84 169.5t110 141.5t140.5 96.5t170.5 36q129 0 219 -63t131.5 -165t41.5 -233q0 -72 -10.5 -155.5t-34 -176t-57.5 -180.5t-84 -168.5t-110.5 -140.5
t-140.5 -96t-170 -36zM459 250q60 0 114.5 79.5t88 192t53.5 224.5t20 188q0 180 -94 180q-60 0 -114 -79.5t-87.5 -193t-53 -226t-19.5 -189.5q0 -176 92 -176z" />
    <glyph glyph-name="Ocircumflex" unicode="&#xd4;" horiz-adv-x="1024" 
d="M981 1481h-145l-66 176l-135 -176h-156l191 295h245zM444 -25q-192 0 -291.5 127t-99.5 330q0 72 10.5 155.5t33.5 176.5t57 181.5t84 169.5t110 141.5t140.5 96.5t170.5 36q129 0 219 -63t131.5 -165t41.5 -233q0 -72 -10.5 -155.5t-34 -176t-57.5 -180.5t-84 -168.5
t-110.5 -140.5t-140.5 -96t-170 -36zM459 250q60 0 114.5 79.5t88 192t53.5 224.5t20 188q0 180 -94 180q-60 0 -114 -79.5t-87.5 -193t-53 -226t-19.5 -189.5q0 -176 92 -176z" />
    <glyph glyph-name="Otilde" unicode="&#xd5;" horiz-adv-x="1024" 
d="M444 -25q-192 0 -291.5 127t-99.5 330q0 72 10.5 155.5t33.5 176.5t57 181.5t84 169.5t110 141.5t140.5 96.5t170.5 36q129 0 219 -63t131.5 -165t41.5 -233q0 -72 -10.5 -155.5t-34 -176t-57.5 -180.5t-84 -168.5t-110.5 -140.5t-140.5 -96t-170 -36zM459 250
q60 0 114.5 79.5t88 192t53.5 224.5t20 188q0 180 -94 180q-60 0 -114 -79.5t-87.5 -193t-53 -226t-19.5 -189.5q0 -176 92 -176zM840 1477q-42 0 -69 20.5t-37 45t-26.5 45t-39.5 20.5q-44 0 -70 -119h-143q63 274 225 274q34 0 58 -13.5t36.5 -32.5t22.5 -38.5t23.5 -33
t33.5 -13.5q44 0 70 119h143q-27 -127 -84.5 -200.5t-142.5 -73.5z" />
    <glyph glyph-name="Odieresis" unicode="&#xd6;" horiz-adv-x="1024" 
d="M1077 1612q0 -64 -50 -113t-114 -49q-55 0 -92 37t-37 92q0 64 49.5 113t114.5 49q56 0 92.5 -36.5t36.5 -92.5zM721 1612q0 -64 -49.5 -113t-114.5 -49q-55 0 -91 36.5t-36 92.5q0 64 49.5 113t112.5 49q56 0 92.5 -36.5t36.5 -92.5zM444 -25q-192 0 -291.5 127
t-99.5 330q0 72 10.5 155.5t33.5 176.5t57 181.5t84 169.5t110 141.5t140.5 96.5t170.5 36q129 0 219 -63t131.5 -165t41.5 -233q0 -72 -10.5 -155.5t-34 -176t-57.5 -180.5t-84 -168.5t-110.5 -140.5t-140.5 -96t-170 -36zM459 250q60 0 114.5 79.5t88 192t53.5 224.5
t20 188q0 180 -94 180q-60 0 -114 -79.5t-87.5 -193t-53 -226t-19.5 -189.5q0 -176 92 -176z" />
    <glyph glyph-name="multiply" unicode="&#xd7;" horiz-adv-x="790" 
d="M569 371l-149 192l-250 -205l-104 134l251 202l-149 195l131 108l152 -192l249 205l103 -131l-248 -205l150 -195z" />
    <glyph glyph-name="Oslash" unicode="&#xd8;" horiz-adv-x="1024" 
d="M444 -25q-161 0 -258 91l-49 -66h-172l135 184q-47 103 -47 248q0 72 10.5 155.5t33.5 176.5t57 181.5t84 169.5t110 141.5t140.5 96.5t170.5 36q158 0 259 -95l51 72h172l-140 -190q50 -109 50 -248q0 -72 -10.5 -155.5t-34 -176t-57.5 -180.5t-84 -168.5t-110.5 -140.5
t-140.5 -96t-170 -36zM641 1114q-49 0 -94.5 -53.5t-78.5 -139.5t-55.5 -177.5t-35.5 -182.5l348 473q-23 80 -84 80zM459 250q49 0 94.5 53.5t79 138.5t57 176.5t35.5 180.5l-348 -473q19 -76 82 -76z" />
    <glyph glyph-name="Ugrave" unicode="&#xd9;" horiz-adv-x="1040" 
d="M455 -25q-164 0 -274.5 102t-110.5 267q0 36 10 84l207 938h309l-213 -967q-6 -36 -6 -51q0 -47 28.5 -74.5t73.5 -27.5q51 0 83 35.5t50 117.5l213 967h312l-211 -948q-49 -222 -175 -332.5t-296 -110.5zM834 1481h-172l-158 295h233z" />
    <glyph glyph-name="Uacute" unicode="&#xda;" horiz-adv-x="1040" 
d="M1100 1776l-289 -295h-176l229 295h236zM455 -25q-164 0 -274.5 102t-110.5 267q0 36 10 84l207 938h309l-213 -967q-6 -36 -6 -51q0 -47 28.5 -74.5t73.5 -27.5q51 0 83 35.5t50 117.5l213 967h312l-211 -948q-49 -222 -175 -332.5t-296 -110.5z" />
    <glyph glyph-name="Ucircumflex" unicode="&#xdb;" horiz-adv-x="1040" 
d="M991 1481h-145l-66 176l-135 -176h-156l191 295h246zM455 -25q-164 0 -274.5 102t-110.5 267q0 36 10 84l207 938h309l-213 -967q-6 -36 -6 -51q0 -47 28.5 -74.5t73.5 -27.5q51 0 83 35.5t50 117.5l213 967h312l-211 -948q-49 -222 -175 -332.5t-296 -110.5z" />
    <glyph glyph-name="Udieresis" unicode="&#xdc;" horiz-adv-x="1040" 
d="M1085 1612q0 -64 -50 -113t-113 -49q-56 0 -92.5 37t-36.5 92q0 64 49 113t114 49q56 0 92.5 -36.5t36.5 -92.5zM729 1612q0 -64 -49.5 -113t-114.5 -49q-55 0 -91 36.5t-36 92.5q0 64 49.5 113t112.5 49q56 0 92.5 -36.5t36.5 -92.5zM455 -25q-164 0 -274.5 102
t-110.5 267q0 36 10 84l207 938h309l-213 -967q-6 -36 -6 -51q0 -47 28.5 -74.5t73.5 -27.5q51 0 83 35.5t50 117.5l213 967h312l-211 -948q-49 -222 -175 -332.5t-296 -110.5z" />
    <glyph glyph-name="Yacute" unicode="&#xdd;" horiz-adv-x="942" 
d="M516 0h-311l123 559l-150 807h316l41 -514l270 514h338l-506 -807zM1051 1776l-289 -295h-176l229 295h236z" />
    <glyph glyph-name="Thorn" unicode="&#xde;" horiz-adv-x="960" 
d="M295 0h-309l301 1366h309l-47 -217h72q154 0 254 -102t100 -263q0 -76 -18.5 -149.5t-60 -141.5t-101 -119t-148 -81.5t-194.5 -30.5h-101zM475 532q76 0 126 65.5t50 154.5q0 60 -28 93.5t-74 33.5h-60l-75 -347h61z" />
    <glyph glyph-name="germandbls" unicode="&#xdf;" horiz-adv-x="1124" 
d="M1061 334q0 -63 -25.5 -126t-70.5 -115.5t-116 -85t-153 -32.5q-228 0 -340 144l136 180q72 -102 170 -102q40 0 69 26t29 66q0 28 -26.5 54t-64.5 51t-76 55.5t-64.5 79.5t-26.5 110q0 74 28 129t67.5 87t79 58.5t67.5 58.5t28 72q0 44 -36 71.5t-95 27.5
q-64 0 -106.5 -40t-63.5 -130l-213 -973h-278l215 973q39 183 160 298t309 115q163 0 281 -88.5t118 -220.5q0 -59 -20.5 -108.5t-51.5 -80.5t-67.5 -59.5t-67.5 -48.5t-51.5 -43.5t-20.5 -46.5q0 -21 15.5 -39.5t39.5 -34t53.5 -32.5t59.5 -39.5t54 -50t39.5 -69
t15.5 -91.5z" />
    <glyph glyph-name="agrave" unicode="&#xe0;" horiz-adv-x="905" 
d="M426 1014q159 0 203 -144l28 119h275l-219 -989h-277l25 113q-89 -138 -211 -138q-113 0 -171.5 82t-58.5 244q0 82 15.5 175.5t49 189.5t80 173t114.5 126t147 49zM494 770q-46 0 -84.5 -49t-60 -120t-33 -139.5t-11.5 -119.5q0 -60 23.5 -91.5t66.5 -31.5q31 0 61 26.5
t50 65.5l80 365q-6 43 -31.5 68.5t-60.5 25.5zM684 1139h-172l-158 295h234z" />
    <glyph glyph-name="aacute" unicode="&#xe1;" horiz-adv-x="905" 
d="M426 1014q159 0 203 -144l28 119h275l-219 -989h-277l25 113q-89 -138 -211 -138q-113 0 -171.5 82t-58.5 244q0 82 15.5 175.5t49 189.5t80 173t114.5 126t147 49zM494 770q-46 0 -84.5 -49t-60 -120t-33 -139.5t-11.5 -119.5q0 -60 23.5 -91.5t66.5 -31.5q31 0 61 26.5
t50 65.5l80 365q-6 43 -31.5 68.5t-60.5 25.5zM950 1434l-288 -295h-177l230 295h235z" />
    <glyph glyph-name="acircumflex" unicode="&#xe2;" horiz-adv-x="905" 
d="M426 1014q159 0 203 -144l28 119h275l-219 -989h-277l25 113q-89 -138 -211 -138q-113 0 -171.5 82t-58.5 244q0 82 15.5 175.5t49 189.5t80 173t114.5 126t147 49zM494 770q-46 0 -84.5 -49t-60 -120t-33 -139.5t-11.5 -119.5q0 -60 23.5 -91.5t66.5 -31.5q31 0 61 26.5
t50 65.5l80 365q-6 43 -31.5 68.5t-60.5 25.5zM838 1139h-146l-65 176l-135 -176h-156l190 295h246z" />
    <glyph glyph-name="atilde" unicode="&#xe3;" horiz-adv-x="905" 
d="M426 1014q159 0 203 -144l28 119h275l-219 -989h-277l25 113q-89 -138 -211 -138q-113 0 -171.5 82t-58.5 244q0 82 15.5 175.5t49 189.5t80 173t114.5 126t147 49zM494 770q-46 0 -84.5 -49t-60 -120t-33 -139.5t-11.5 -119.5q0 -60 23.5 -91.5t66.5 -31.5q31 0 61 26.5
t50 65.5l80 365q-6 43 -31.5 68.5t-60.5 25.5zM696 1135q-42 0 -69 20.5t-37 45t-26.5 45t-39.5 20.5q-43 0 -69 -119h-144q63 274 226 274q34 0 58 -13.5t36.5 -32.5t22.5 -38.5t23.5 -33t33.5 -13.5q43 0 69 119h144q-27 -127 -85 -200.5t-143 -73.5z" />
    <glyph glyph-name="adieresis" unicode="&#xe4;" horiz-adv-x="905" 
d="M426 1014q159 0 203 -144l28 119h275l-219 -989h-277l25 113q-89 -138 -211 -138q-113 0 -171.5 82t-58.5 244q0 82 15.5 175.5t49 189.5t80 173t114.5 126t147 49zM494 770q-46 0 -84.5 -49t-60 -120t-33 -139.5t-11.5 -119.5q0 -60 23.5 -91.5t66.5 -31.5q31 0 61 26.5
t50 65.5l80 365q-6 43 -31.5 68.5t-60.5 25.5zM938 1270q0 -64 -50 -113t-114 -49q-56 0 -92.5 37t-36.5 92q0 64 49.5 113t114.5 49q55 0 92 -36.5t37 -92.5zM582 1270q0 -64 -49.5 -113t-114.5 -49q-55 0 -91 36.5t-36 92.5q0 64 49.5 113t112.5 49q55 0 92 -36.5
t37 -92.5z" />
    <glyph glyph-name="aring" unicode="&#xe5;" horiz-adv-x="905" 
d="M426 1014q159 0 203 -144l28 119h275l-219 -989h-277l25 113q-89 -138 -211 -138q-113 0 -171.5 82t-58.5 244q0 82 15.5 175.5t49 189.5t80 173t114.5 126t147 49zM494 770q-46 0 -84.5 -49t-60 -120t-33 -139.5t-11.5 -119.5q0 -60 23.5 -91.5t66.5 -31.5q31 0 61 26.5
t50 65.5l80 365q-6 43 -31.5 68.5t-60.5 25.5zM594 1075q-73 0 -119.5 47.5t-46.5 120.5q0 85 62.5 149t146.5 64q73 0 120.5 -48t47.5 -122q0 -85 -63 -148t-148 -63zM610 1192q31 0 55.5 24.5t24.5 57.5q0 29 -17 47t-46 18q-33 0 -57.5 -24.5t-24.5 -57.5q0 -29 18 -47
t47 -18z" />
    <glyph glyph-name="ae" unicode="&#xe6;" horiz-adv-x="1378" 
d="M494 770q-46 0 -84.5 -49t-60 -120t-33 -139.5t-11.5 -119.5q0 -60 23.5 -91.5t66.5 -31.5q31 0 61 26.5t50 65.5l80 365q-6 43 -31.5 68.5t-60.5 25.5zM745 145l-32 -145h-277l25 113q-89 -138 -211 -138q-113 0 -171.5 82t-58.5 244q0 82 15.5 175.5t49 189.5t80 173
t114.5 126t147 49q159 0 203 -144l28 119h275l-21 -96q38 50 93.5 86t117.5 35q119 -3 176.5 -83.5t57.5 -246.5q0 -142 -41 -281h-508q-6 -30 -6 -57q0 -54 41 -97.5t127 -43.5q83 0 166 76l88 -193q-107 -113 -250 -113q-185 0 -228 170zM846 594h252q10 48 10 78
q0 54 -27.5 86.5t-72.5 32.5q-47 0 -83 -33.5t-53.5 -75t-25.5 -88.5z" />
    <glyph glyph-name="ccedilla" unicode="&#xe7;" horiz-adv-x="733" 
d="M281 -401q-123 0 -199 82l68 98q52 -66 129 -66q35 0 56 20.5t21 51.5q0 41 -39 41q-27 0 -47 -27l-86 56l80 137q-113 33 -175 126.5t-62 241.5q0 93 21 186.5t63.5 177.5t100 149t136.5 103t168 38q85 0 158.5 -28.5t116.5 -74.5l-127 -206q-40 65 -123 65
q-65 0 -119.5 -60t-82.5 -146t-28 -171q0 -86 39.5 -130t106.5 -44q65 0 116 51l39 -219q-92 -76 -223 -76h-2l-51 -79q23 20 47 20q48 0 79.5 -34t31.5 -91q0 -83 -61 -137.5t-152 -54.5z" />
    <glyph glyph-name="egrave" unicode="&#xe8;" horiz-adv-x="860" 
d="M391 -25q-172 0 -268 103t-96 287q0 81 19 169t59.5 173.5t96 154t135.5 110.5t171 42q167 0 247.5 -94.5t80.5 -257.5q0 -106 -39 -259h-512q-4 -20 -4 -59q0 -24 7.5 -47t24 -46.5t51 -37.5t82.5 -14q84 0 168 73l91 -172q-61 -59 -145 -92t-169 -33zM324 594h256
q8 36 8 76q0 55 -29 88t-74 33q-47 0 -83 -33.5t-53 -75t-25 -88.5zM690 1139h-172l-158 295h234z" />
    <glyph glyph-name="eacute" unicode="&#xe9;" horiz-adv-x="860" 
d="M956 1434l-288 -295h-176l229 295h235zM391 -25q-172 0 -268 103t-96 287q0 81 19 169t59.5 173.5t96 154t135.5 110.5t171 42q167 0 247.5 -94.5t80.5 -257.5q0 -106 -39 -259h-512q-4 -20 -4 -59q0 -24 7.5 -47t24 -46.5t51 -37.5t82.5 -14q84 0 168 73l91 -172
q-61 -59 -145 -92t-169 -33zM324 594h256q8 36 8 76q0 55 -29 88t-74 33q-47 0 -83 -33.5t-53 -75t-25 -88.5z" />
    <glyph glyph-name="ecircumflex" unicode="&#xea;" horiz-adv-x="860" 
d="M842 1139h-146l-65 176l-135 -176h-156l190 295h246zM391 -25q-172 0 -268 103t-96 287q0 81 19 169t59.5 173.5t96 154t135.5 110.5t171 42q167 0 247.5 -94.5t80.5 -257.5q0 -106 -39 -259h-512q-4 -20 -4 -59q0 -24 7.5 -47t24 -46.5t51 -37.5t82.5 -14q84 0 168 73
l91 -172q-61 -59 -145 -92t-169 -33zM324 594h256q8 36 8 76q0 55 -29 88t-74 33q-47 0 -83 -33.5t-53 -75t-25 -88.5z" />
    <glyph glyph-name="edieresis" unicode="&#xeb;" horiz-adv-x="860" 
d="M942 1270q0 -64 -50 -113t-114 -49q-56 0 -92.5 37t-36.5 92q0 64 49.5 113t114.5 49q55 0 92 -36.5t37 -92.5zM586 1270q0 -64 -49.5 -113t-114.5 -49q-55 0 -91 36.5t-36 92.5q0 64 49.5 113t112.5 49q55 0 92 -36.5t37 -92.5zM391 -25q-172 0 -268 103t-96 287
q0 81 19 169t59.5 173.5t96 154t135.5 110.5t171 42q167 0 247.5 -94.5t80.5 -257.5q0 -106 -39 -259h-512q-4 -20 -4 -59q0 -24 7.5 -47t24 -46.5t51 -37.5t82.5 -14q84 0 168 73l91 -172q-61 -59 -145 -92t-169 -33zM324 594h256q8 36 8 76q0 55 -29 88t-74 33
q-47 0 -83 -33.5t-53 -75t-25 -88.5z" />
    <glyph glyph-name="igrave" unicode="&#xec;" horiz-adv-x="442" 
d="M250 0h-279l219 989h279zM461 1139h-172l-158 295h234z" />
    <glyph glyph-name="iacute" unicode="&#xed;" horiz-adv-x="442" 
d="M727 1434l-289 -295h-176l230 295h235zM250 0h-279l219 989h279z" />
    <glyph glyph-name="icircumflex" unicode="&#xee;" horiz-adv-x="442" 
d="M614 1139h-145l-66 176l-135 -176h-155l190 295h246zM250 0h-279l219 989h279z" />
    <glyph glyph-name="idieresis" unicode="&#xef;" horiz-adv-x="442" 
d="M713 1270q0 -64 -50 -113t-114 -49q-55 0 -92 37t-37 92q0 64 49.5 113t114.5 49q56 0 92.5 -36.5t36.5 -92.5zM356 1270q0 -64 -49 -113t-114 -49q-55 0 -91 36.5t-36 92.5q0 64 49 113t112 49q55 0 92 -36.5t37 -92.5zM250 0h-279l219 989h279z" />
    <glyph glyph-name="eth" unicode="&#xf0;" 
d="M410 1008l-31 129l209 61q-20 104 -45 170l268 82q34 -105 49 -172l133 39l29 -125l-137 -41q14 -118 14 -258q0 -120 -16.5 -242t-55.5 -245.5t-96 -217.5t-146.5 -153.5t-199.5 -59.5q-180 0 -271 99.5t-91 267.5q0 95 28 198t78 192.5t129.5 147.5t171.5 58
q83 0 132.5 -47t64.5 -123q-3 147 -21 299zM393 219q52 0 93 61.5t60 139t19 145.5q0 52 -21 89.5t-71 37.5q-40 0 -74 -37.5t-54 -93t-31 -112.5t-11 -101q0 -66 21.5 -97.5t68.5 -31.5z" />
    <glyph glyph-name="ntilde" unicode="&#xf1;" horiz-adv-x="903" 
d="M711 0h-279l150 676q6 18 6 35q0 28 -15 43.5t-41 15.5q-67 0 -139 -115l-143 -655h-279l219 989h279l-29 -121q46 61 113.5 103.5t140.5 42.5q91 0 143 -48t52 -126q0 -34 -8 -58zM705 1135q-29 0 -51 9.5t-33.5 24.5t-22 31.5t-17.5 31.5t-19.5 24.5t-29.5 9.5
q-43 0 -69 -119h-144q63 274 226 274q34 0 58 -13.5t36.5 -32.5t22.5 -38.5t23.5 -33t33.5 -13.5q43 0 69 119h144q-27 -127 -84.5 -200.5t-142.5 -73.5z" />
    <glyph glyph-name="ograve" unicode="&#xf2;" 
d="M377 -25q-170 0 -260 102.5t-90 280.5q0 87 19.5 178t60.5 177t96.5 153t134.5 107.5t168 40.5q173 0 263.5 -102t90.5 -281q0 -87 -20 -177.5t-61 -176.5t-97 -153t-135.5 -108t-169.5 -41zM393 219q44 0 81.5 49t59.5 118.5t34 137t12 113.5q0 133 -88 133
q-44 0 -81.5 -49t-59.5 -119t-34 -137t-12 -113q0 -133 88 -133zM684 1139h-172l-158 295h234z" />
    <glyph glyph-name="oacute" unicode="&#xf3;" 
d="M948 1434l-289 -295h-176l230 295h235zM377 -25q-170 0 -260 102.5t-90 280.5q0 87 19.5 178t60.5 177t96.5 153t134.5 107.5t168 40.5q173 0 263.5 -102t90.5 -281q0 -87 -20 -177.5t-61 -176.5t-97 -153t-135.5 -108t-169.5 -41zM393 219q44 0 81.5 49t59.5 118.5
t34 137t12 113.5q0 133 -88 133q-44 0 -81.5 -49t-59.5 -119t-34 -137t-12 -113q0 -133 88 -133z" />
    <glyph glyph-name="ocircumflex" unicode="&#xf4;" 
d="M838 1139h-146l-65 176l-135 -176h-156l190 295h246zM377 -25q-170 0 -260 102.5t-90 280.5q0 87 19.5 178t60.5 177t96.5 153t134.5 107.5t168 40.5q173 0 263.5 -102t90.5 -281q0 -87 -20 -177.5t-61 -176.5t-97 -153t-135.5 -108t-169.5 -41zM393 219q44 0 81.5 49
t59.5 118.5t34 137t12 113.5q0 133 -88 133q-44 0 -81.5 -49t-59.5 -119t-34 -137t-12 -113q0 -133 88 -133z" />
    <glyph glyph-name="otilde" unicode="&#xf5;" 
d="M377 -25q-170 0 -260 102.5t-90 280.5q0 87 19.5 178t60.5 177t96.5 153t134.5 107.5t168 40.5q173 0 263.5 -102t90.5 -281q0 -87 -20 -177.5t-61 -176.5t-97 -153t-135.5 -108t-169.5 -41zM393 219q44 0 81.5 49t59.5 118.5t34 137t12 113.5q0 133 -88 133
q-44 0 -81.5 -49t-59.5 -119t-34 -137t-12 -113q0 -133 88 -133zM696 1135q-42 0 -69 20.5t-37 45t-26.5 45t-39.5 20.5q-43 0 -69 -119h-144q63 274 226 274q34 0 58 -13.5t36.5 -32.5t22.5 -38.5t23.5 -33t33.5 -13.5q43 0 69 119h144q-27 -127 -85 -200.5t-143 -73.5z
" />
    <glyph glyph-name="odieresis" unicode="&#xf6;" 
d="M936 1270q0 -64 -50 -113t-114 -49q-56 0 -92.5 37t-36.5 92q0 64 49.5 113t114.5 49q55 0 92 -36.5t37 -92.5zM580 1270q0 -64 -49.5 -113t-114.5 -49q-55 0 -91 36.5t-36 92.5q0 64 49.5 113t112.5 49q55 0 92 -36.5t37 -92.5zM377 -25q-170 0 -260 102.5t-90 280.5
q0 87 19.5 178t60.5 177t96.5 153t134.5 107.5t168 40.5q173 0 263.5 -102t90.5 -281q0 -87 -20 -177.5t-61 -176.5t-97 -153t-135.5 -108t-169.5 -41zM393 219q44 0 81.5 49t59.5 118.5t34 137t12 113.5q0 133 -88 133q-44 0 -81.5 -49t-59.5 -119t-34 -137t-12 -113
q0 -133 88 -133z" />
    <glyph glyph-name="divide" unicode="&#xf7;" horiz-adv-x="765" 
d="M729 606h-647l39 168h647zM346 260q-49 0 -83 34.5t-34 82.5q0 59 42 100t100 41q49 0 82.5 -34.5t33.5 -84.5q0 -57 -42 -98t-99 -41zM479 860q-48 0 -82.5 34t-34.5 83q0 57 42 99t100 42q49 0 83 -34.5t34 -84.5q0 -58 -42 -98.5t-100 -40.5z" />
    <glyph glyph-name="oslash" unicode="&#xf8;" 
d="M98 0h-155l127 147q-43 85 -43 211q0 87 19.5 178t60.5 177t96.5 153t134.5 107.5t168 40.5q146 0 237 -78l48 53h153l-127 -149q43 -85 43 -209q0 -87 -20 -177.5t-61 -176.5t-97 -153t-135.5 -108t-169.5 -41q-148 0 -236 76zM492 770q-36 0 -68 -33.5t-54 -87.5
t-37 -110t-22 -111l252 297q-20 45 -71 45zM393 219q36 0 67.5 32.5t53.5 84.5t37 108t22 111l-251 -295q20 -41 71 -41z" />
    <glyph glyph-name="ugrave" unicode="&#xf9;" horiz-adv-x="903" 
d="M190 989h279l-150 -670q-6 -27 -6 -45q0 -25 15 -40t41 -15q38 0 74 32.5t63 78.5l145 659h279l-219 -989h-279l29 121q-48 -62 -114.5 -104t-139.5 -42q-91 0 -143 48.5t-52 126.5q0 33 8 57zM692 1139h-172l-158 295h234z" />
    <glyph glyph-name="uacute" unicode="&#xfa;" horiz-adv-x="903" 
d="M956 1434l-288 -295h-176l229 295h235zM190 989h279l-150 -670q-6 -27 -6 -45q0 -25 15 -40t41 -15q38 0 74 32.5t63 78.5l145 659h279l-219 -989h-279l29 121q-48 -62 -114.5 -104t-139.5 -42q-91 0 -143 48.5t-52 126.5q0 33 8 57z" />
    <glyph glyph-name="ucircumflex" unicode="&#xfb;" horiz-adv-x="903" 
d="M844 1139h-146l-65 176l-135 -176h-156l190 295h246zM190 989h279l-150 -670q-6 -27 -6 -45q0 -25 15 -40t41 -15q38 0 74 32.5t63 78.5l145 659h279l-219 -989h-279l29 121q-48 -62 -114.5 -104t-139.5 -42q-91 0 -143 48.5t-52 126.5q0 33 8 57z" />
    <glyph glyph-name="udieresis" unicode="&#xfc;" horiz-adv-x="903" 
d="M942 1270q0 -64 -50 -113t-114 -49q-56 0 -92.5 37t-36.5 92q0 64 49.5 113t114.5 49q55 0 92 -36.5t37 -92.5zM586 1270q0 -64 -49.5 -113t-114.5 -49q-55 0 -91 36.5t-36 92.5q0 64 49.5 113t112.5 49q55 0 92 -36.5t37 -92.5zM190 989h279l-150 -670q-6 -27 -6 -45
q0 -25 15 -40t41 -15q38 0 74 32.5t63 78.5l145 659h279l-219 -989h-279l29 121q-48 -62 -114.5 -104t-139.5 -42q-91 0 -143 48.5t-52 126.5q0 33 8 57z" />
    <glyph glyph-name="yacute" unicode="&#xfd;" horiz-adv-x="835" 
d="M-104 -373l90 228q13 -13 47 -13q45 0 80 62l45 86l-54 999h285l-14 -639l274 639h299l-571 -1143q-74 -143 -144 -195t-174 -52q-97 0 -163 28zM913 1434l-288 -295h-176l229 295h235z" />
    <glyph glyph-name="thorn" unicode="&#xfe;" horiz-adv-x="905" 
d="M479 -25q-159 0 -205 146l-108 -498h-277l383 1743h279l-109 -489q92 137 211 137q113 0 171.5 -82t58.5 -244q0 -104 -25.5 -223.5t-73 -231t-128 -185t-177.5 -73.5zM410 219q46 0 84 49t59 120t32 139.5t11 119.5q0 123 -90 123q-28 0 -57.5 -26.5t-49.5 -65.5
l-82 -365q7 -42 33 -68t60 -26z" />
    <glyph glyph-name="ydieresis" unicode="&#xff;" horiz-adv-x="835" 
d="M-104 -373l90 228q13 -13 47 -13q45 0 80 62l45 86l-54 999h285l-14 -639l274 639h299l-571 -1143q-74 -143 -144 -195t-174 -52q-97 0 -163 28zM901 1270q0 -64 -50 -113t-114 -49q-55 0 -92 37t-37 92q0 64 49.5 113t114.5 49q56 0 92.5 -36.5t36.5 -92.5zM545 1270
q0 -64 -49.5 -113t-114.5 -49q-55 0 -91 36.5t-36 92.5q0 64 49.5 113t112.5 49q56 0 92.5 -36.5t36.5 -92.5z" />
    <glyph glyph-name="Amacron" unicode="&#x100;" horiz-adv-x="929" 
d="M825 0h-311l14 221h-237l-82 -221h-326l594 1366h357zM553 492l35 534l-199 -534h164zM952 1489h-536l33 156h536z" />
    <glyph glyph-name="amacron" unicode="&#x101;" horiz-adv-x="905" 
d="M426 1014q159 0 203 -144l28 119h275l-219 -989h-277l25 113q-89 -138 -211 -138q-113 0 -171.5 82t-58.5 244q0 82 15.5 175.5t49 189.5t80 173t114.5 126t147 49zM494 770q-46 0 -84.5 -49t-60 -120t-33 -139.5t-11.5 -119.5q0 -60 23.5 -91.5t66.5 -31.5q31 0 61 26.5
t50 65.5l80 365q-6 43 -31.5 68.5t-60.5 25.5zM858 1147h-536l32 156h537z" />
    <glyph glyph-name="Abreve" unicode="&#x102;" horiz-adv-x="929" 
d="M825 0h-311l14 221h-237l-82 -221h-326l594 1366h357zM553 492l35 534l-199 -534h164zM958 1581q-58 -61 -132.5 -95t-153.5 -34t-140 34.5t-92 94.5l140 96q15 -33 46.5 -52t71.5 -19q86 0 148 71z" />
    <glyph glyph-name="abreve" unicode="&#x103;" horiz-adv-x="905" 
d="M426 1014q159 0 203 -144l28 119h275l-219 -989h-277l25 113q-89 -138 -211 -138q-113 0 -171.5 82t-58.5 244q0 82 15.5 175.5t49 189.5t80 173t114.5 126t147 49zM494 770q-46 0 -84.5 -49t-60 -120t-33 -139.5t-11.5 -119.5q0 -60 23.5 -91.5t66.5 -31.5q31 0 61 26.5
t50 65.5l80 365q-6 43 -31.5 68.5t-60.5 25.5zM866 1239q-58 -61 -132.5 -95t-153.5 -34t-140 34.5t-92 94.5l139 96q15 -33 47 -52t72 -19q86 0 148 71z" />
    <glyph glyph-name="Aogonek" unicode="&#x104;" horiz-adv-x="929" 
d="M762 -217l94 -68q-64 -96 -162 -96q-73 0 -117.5 35t-44.5 104q0 127 125 242h-143l14 221h-237l-82 -221h-326l594 1366h357l-9 -1366q-71 -45 -115 -104.5t-44 -122.5q0 -39 39 -39q38 0 57 49zM553 492l35 534l-199 -534h164z" />
    <glyph glyph-name="aogonek" unicode="&#x105;" horiz-adv-x="905" 
d="M649 -217l94 -68q-64 -96 -161 -96q-73 0 -117.5 35t-44.5 104q0 127 125 242h-109l25 113q-89 -138 -211 -138q-113 0 -171.5 82t-58.5 244q0 82 15.5 175.5t49 189.5t80 173t114.5 126t147 49q159 0 203 -144l28 119h275l-219 -989q-72 -45 -116 -104.5t-44 -122.5
q0 -39 39 -39q38 0 57 49zM494 770q-46 0 -84.5 -49t-60 -120t-33 -139.5t-11.5 -119.5q0 -60 23.5 -91.5t66.5 -31.5q31 0 61 26.5t50 65.5l80 365q-6 43 -31.5 68.5t-60.5 25.5z" />
    <glyph glyph-name="Cacute" unicode="&#x106;" horiz-adv-x="917" 
d="M1096 1786l-289 -295h-176l229 295h236zM444 -25q-189 0 -290 121.5t-101 335.5q0 72 10 155t33 176t56 181.5t83 169.5t110 142t141.5 97t172.5 36q79 0 141.5 -25.5t103 -66.5t67.5 -98t39 -115.5t14 -122.5l-287 -56q-7 209 -96 209q-60 0 -114.5 -80.5t-87.5 -194
t-52.5 -226t-19.5 -187.5q0 -176 92 -176q83 0 162 164l247 -101q-74 -166 -176.5 -252t-247.5 -86z" />
    <glyph glyph-name="cacute" unicode="&#x107;" horiz-adv-x="733" 
d="M967 1434l-289 -295h-176l229 295h236zM389 -25q-168 0 -265 100t-97 285q0 93 21 186.5t63.5 177.5t100 149t136.5 103t168 38q85 0 158.5 -28.5t116.5 -74.5l-127 -206q-40 65 -123 65q-65 0 -119.5 -60t-82.5 -146t-28 -171q0 -86 39.5 -130t106.5 -44q65 0 116 51
l39 -219q-92 -76 -223 -76z" />
    <glyph glyph-name="Ccircumflex" unicode="&#x108;" horiz-adv-x="917" 
d="M981 1481h-145l-66 176l-135 -176h-156l191 295h245zM444 -25q-189 0 -290 121.5t-101 335.5q0 72 10 155t33 176t56 181.5t83 169.5t110 142t141.5 97t172.5 36q79 0 141.5 -25.5t103 -66.5t67.5 -98t39 -115.5t14 -122.5l-287 -56q-7 209 -96 209q-60 0 -114.5 -80.5
t-87.5 -194t-52.5 -226t-19.5 -187.5q0 -176 92 -176q83 0 162 164l247 -101q-74 -166 -176.5 -252t-247.5 -86z" />
    <glyph glyph-name="ccircumflex" unicode="&#x109;" horiz-adv-x="733" 
d="M854 1139h-145l-66 176l-135 -176h-156l191 295h245zM389 -25q-168 0 -265 100t-97 285q0 93 21 186.5t63.5 177.5t100 149t136.5 103t168 38q85 0 158.5 -28.5t116.5 -74.5l-127 -206q-40 65 -123 65q-65 0 -119.5 -60t-82.5 -146t-28 -171q0 -86 39.5 -130t106.5 -44
q65 0 116 51l39 -219q-92 -76 -223 -76z" />
    <glyph glyph-name="Cdotaccent" unicode="&#x10a;" horiz-adv-x="917" 
d="M444 -25q-189 0 -290 121.5t-101 335.5q0 72 10 155t33 176t56 181.5t83 169.5t110 142t141.5 97t172.5 36q79 0 141.5 -25.5t103 -66.5t67.5 -98t39 -115.5t14 -122.5l-287 -56q-7 209 -96 209q-60 0 -114.5 -80.5t-87.5 -194t-52.5 -226t-19.5 -187.5q0 -176 92 -176
q83 0 162 164l247 -101q-74 -166 -176.5 -252t-247.5 -86zM905 1612q0 -64 -50.5 -113t-115.5 -49q-55 0 -92 37.5t-37 93.5q0 63 50.5 111.5t115.5 48.5q55 0 92 -36.5t37 -92.5z" />
    <glyph glyph-name="cdotaccent" unicode="&#x10b;" horiz-adv-x="733" 
d="M389 -25q-168 0 -265 100t-97 285q0 93 21 186.5t63.5 177.5t100 149t136.5 103t168 38q85 0 158.5 -28.5t116.5 -74.5l-127 -206q-40 65 -123 65q-65 0 -119.5 -60t-82.5 -146t-28 -171q0 -86 39.5 -130t106.5 -44q65 0 116 51l39 -219q-92 -76 -223 -76zM778 1270
q0 -64 -50.5 -113t-115.5 -49q-55 0 -92 37.5t-37 93.5q0 63 50.5 111.5t115.5 48.5q55 0 92 -36.5t37 -92.5z" />
    <glyph glyph-name="Ccaron" unicode="&#x10c;" horiz-adv-x="917" 
d="M858 1481h-246l-65 295h147l64 -177l137 177h154zM444 -25q-189 0 -290 121.5t-101 335.5q0 72 10 155t33 176t56 181.5t83 169.5t110 142t141.5 97t172.5 36q79 0 141.5 -25.5t103 -66.5t67.5 -98t39 -115.5t14 -122.5l-287 -56q-7 209 -96 209q-60 0 -114.5 -80.5
t-87.5 -194t-52.5 -226t-19.5 -187.5q0 -176 92 -176q83 0 162 164l247 -101q-74 -166 -176.5 -252t-247.5 -86z" />
    <glyph glyph-name="ccaron" unicode="&#x10d;" horiz-adv-x="733" 
d="M727 1139h-246l-65 295h147l64 -177l137 177h154zM389 -25q-168 0 -265 100t-97 285q0 93 21 186.5t63.5 177.5t100 149t136.5 103t168 38q85 0 158.5 -28.5t116.5 -74.5l-127 -206q-40 65 -123 65q-65 0 -119.5 -60t-82.5 -146t-28 -171q0 -86 39.5 -130t106.5 -44
q65 0 116 51l39 -219q-92 -76 -223 -76z" />
    <glyph glyph-name="Dcaron" unicode="&#x10e;" horiz-adv-x="1024" 
d="M870 1481h-245l-66 295h148l63 -177l137 177h154zM369 0h-383l301 1366h370q74 0 141.5 -30t121 -86.5t85 -146t31.5 -200.5q0 -68 -9.5 -144t-32 -164.5t-57 -171.5t-88 -161t-120.5 -135.5t-160 -92t-200 -34.5zM412 270h10q61 0 113 50t85.5 124t57 162.5t33.5 163.5
t10 129q0 98 -34 147.5t-85 49.5h-65l-183 -826h58z" />
    <glyph glyph-name="dcaron" unicode="&#x10f;" horiz-adv-x="1167" 
d="M1341 1255q0 -96 -69.5 -189.5t-175.5 -145.5l-74 77q49 25 96.5 64t67.5 78q-4 -2 -19 -2q-43 0 -72.5 29t-29.5 81q0 58 45.5 101t101.5 43q55 0 92 -36t37 -100zM426 1014q159 0 203 -144l110 496h275l-301 -1366h-277l25 113q-89 -138 -211 -138q-113 0 -171.5 82
t-58.5 244q0 82 15.5 175.5t49 189.5t80 173t114.5 126t147 49zM494 770q-46 0 -84.5 -49t-60 -120t-33 -139.5t-11.5 -119.5q0 -60 23.5 -91.5t66.5 -31.5q31 0 61 26.5t50 65.5l80 365q-6 43 -31.5 68.5t-60.5 25.5z" />
    <glyph glyph-name="Dcroat" unicode="&#x110;" horiz-adv-x="1073" 
d="M418 0h-383l123 559h-117l53 248h117l125 559h371q74 0 141.5 -30t120.5 -86.5t84.5 -146t31.5 -200.5q0 -68 -9.5 -144t-32 -164.5t-57 -171.5t-88 -161t-120.5 -135.5t-160 -92t-200 -34.5zM596 559h-129l-64 -289h68q61 0 113 50t85.5 124t57 162.5t33.5 163.5t10 129
q0 98 -34 147.5t-85 49.5h-65l-64 -289h129z" />
    <glyph glyph-name="dcroat" unicode="&#x111;" horiz-adv-x="917" 
d="M426 1014q159 0 203 -144l47 213h-230l35 156h230l28 127h275l-29 -127h86l-37 -156h-84l-237 -1083h-277l25 113q-89 -138 -211 -138q-113 0 -171.5 82t-58.5 244q0 82 15.5 175.5t49 189.5t80 173t114.5 126t147 49zM494 770q-46 0 -84.5 -49t-60 -120t-33 -139.5
t-11.5 -119.5q0 -60 23.5 -91.5t66.5 -31.5q31 0 61 26.5t50 65.5l80 365q-6 43 -31.5 68.5t-60.5 25.5z" />
    <glyph glyph-name="Emacron" unicode="&#x112;" horiz-adv-x="802" 
d="M629 0h-643l301 1366h643l-62 -270h-331l-58 -267h318l-60 -270h-319l-64 -289h334zM903 1489h-536l32 156h537z" />
    <glyph glyph-name="emacron" unicode="&#x113;" horiz-adv-x="860" 
d="M391 -25q-172 0 -268 103t-96 287q0 81 19 169t59.5 173.5t96 154t135.5 110.5t171 42q167 0 247.5 -94.5t80.5 -257.5q0 -106 -39 -259h-512q-4 -20 -4 -59q0 -24 7.5 -47t24 -46.5t51 -37.5t82.5 -14q84 0 168 73l91 -172q-61 -59 -145 -92t-169 -33zM324 594h256
q8 36 8 76q0 55 -29 88t-74 33q-47 0 -83 -33.5t-53 -75t-25 -88.5zM864 1147h-536l32 156h537z" />
    <glyph glyph-name="Ebreve" unicode="&#x114;" horiz-adv-x="802" 
d="M629 0h-643l301 1366h643l-62 -270h-331l-58 -267h318l-60 -270h-319l-64 -289h334zM911 1581q-58 -61 -132.5 -95t-153.5 -34t-140 34.5t-92 94.5l139 96q15 -33 47 -52t72 -19q86 0 148 71z" />
    <glyph glyph-name="ebreve" unicode="&#x115;" horiz-adv-x="860" 
d="M391 -25q-172 0 -268 103t-96 287q0 81 19 169t59.5 173.5t96 154t135.5 110.5t171 42q167 0 247.5 -94.5t80.5 -257.5q0 -106 -39 -259h-512q-4 -20 -4 -59q0 -24 7.5 -47t24 -46.5t51 -37.5t82.5 -14q84 0 168 73l91 -172q-61 -59 -145 -92t-169 -33zM324 594h256
q8 36 8 76q0 55 -29 88t-74 33q-47 0 -83 -33.5t-53 -75t-25 -88.5zM872 1239q-58 -61 -132.5 -95t-153.5 -34t-140 34.5t-92 94.5l140 96q15 -33 46.5 -52t71.5 -19q86 0 148 71z" />
    <glyph glyph-name="Edotaccent" unicode="&#x116;" horiz-adv-x="802" 
d="M629 0h-643l301 1366h643l-62 -270h-331l-58 -267h318l-60 -270h-319l-64 -289h334zM809 1624q0 -64 -50.5 -113t-115.5 -49q-55 0 -92 37.5t-37 93.5q0 63 50.5 111.5t115.5 48.5q55 0 92 -36.5t37 -92.5z" />
    <glyph glyph-name="edotaccent" unicode="&#x117;" horiz-adv-x="860" 
d="M391 -25q-172 0 -268 103t-96 287q0 81 19 169t59.5 173.5t96 154t135.5 110.5t171 42q167 0 247.5 -94.5t80.5 -257.5q0 -106 -39 -259h-512q-4 -20 -4 -59q0 -24 7.5 -47t24 -46.5t51 -37.5t82.5 -14q84 0 168 73l91 -172q-61 -59 -145 -92t-169 -33zM324 594h256
q8 36 8 76q0 55 -29 88t-74 33q-47 0 -83 -33.5t-53 -75t-25 -88.5zM766 1270q0 -64 -50.5 -113t-115.5 -49q-55 0 -92 37.5t-37 93.5q0 63 50.5 111.5t115.5 48.5q55 0 92 -36.5t37 -92.5z" />
    <glyph glyph-name="Eogonek" unicode="&#x118;" horiz-adv-x="802" 
d="M629 0q-72 -45 -116 -104.5t-44 -122.5q0 -39 39 -39q38 0 57 49l94 -68q-64 -96 -161 -96q-73 0 -117.5 35t-44.5 104q0 127 125 242h-475l301 1366h643l-62 -270h-331l-58 -267h318l-60 -270h-319l-64 -289h334z" />
    <glyph glyph-name="eogonek" unicode="&#x119;" horiz-adv-x="860" 
d="M473 -217l94 -68q-64 -96 -161 -96q-73 0 -117.5 35t-44.5 104q0 117 100 219q-151 14 -234 115t-83 273q0 81 19 169t59.5 173.5t96 154t135.5 110.5t171 42q167 0 247.5 -94.5t80.5 -257.5q0 -106 -39 -259h-512q-4 -20 -4 -59q0 -24 7.5 -47t24 -46.5t51 -37.5
t82.5 -14q84 0 168 73l91 -172q-71 -68 -168 -100q-72 -45 -116 -104.5t-44 -122.5q0 -39 39 -39q38 0 57 49zM324 594h256q8 36 8 76q0 55 -29 88t-74 33q-47 0 -83 -33.5t-53 -75t-25 -88.5z" />
    <glyph glyph-name="Ecaron" unicode="&#x11a;" horiz-adv-x="802" 
d="M760 1481h-246l-65 295h147l63 -177l138 177h153zM629 0h-643l301 1366h643l-62 -270h-331l-58 -267h318l-60 -270h-319l-64 -289h334z" />
    <glyph glyph-name="ecaron" unicode="&#x11b;" horiz-adv-x="860" 
d="M719 1139h-246l-65 295h147l63 -177l138 177h153zM391 -25q-172 0 -268 103t-96 287q0 81 19 169t59.5 173.5t96 154t135.5 110.5t171 42q167 0 247.5 -94.5t80.5 -257.5q0 -106 -39 -259h-512q-4 -20 -4 -59q0 -24 7.5 -47t24 -46.5t51 -37.5t82.5 -14q84 0 168 73
l91 -172q-61 -59 -145 -92t-169 -33zM324 594h256q8 36 8 76q0 55 -29 88t-74 33q-47 0 -83 -33.5t-53 -75t-25 -88.5z" />
    <glyph glyph-name="Gcircumflex" unicode="&#x11c;" horiz-adv-x="970" 
d="M983 1481h-145l-66 176l-135 -176h-156l191 295h246zM444 -25q-191 0 -291 123.5t-100 333.5q0 92 16 195.5t47 211.5t82 206t116 175t154 123t191 46q91 0 159.5 -31t108.5 -86t59.5 -122.5t21.5 -148.5l-260 -63q-2 76 -28 126t-79 50q-59 0 -112.5 -77t-87.5 -187.5
t-54 -225.5t-20 -198q0 -96 22 -136t72 -40q64 0 127 78l37 168h-140l62 270h409l-122 -551q-157 -240 -390 -240z" />
    <glyph glyph-name="gcircumflex" unicode="&#x11d;" horiz-adv-x="905" 
d="M829 1122h-145l-66 176l-135 -176h-155l190 295h246zM266 -401q-111 0 -200.5 34t-143.5 97l137 204q34 -46 87 -73t112 -27q70 0 115 49.5t71 157.5l29 119q-43 -70 -98.5 -106t-114.5 -36q-114 0 -173.5 79.5t-59.5 230.5q0 79 13 167t44 181.5t75 167.5t113 122
t152 48q66 0 128.5 -37.5t76.5 -106.5l26 119h277l-211 -940q-28 -129 -74 -219t-106.5 -139.5t-127 -70.5t-147.5 -21zM403 266q29 0 59.5 25.5t51.5 64.5l72 320q-11 40 -38 67t-59 27q-45 0 -81.5 -42.5t-56.5 -106t-30 -124.5t-10 -110q0 -65 23 -93t69 -28z" />
    <glyph glyph-name="Gbreve" unicode="&#x11e;" horiz-adv-x="970" 
d="M444 -25q-191 0 -291 123.5t-100 333.5q0 92 16 195.5t47 211.5t82 206t116 175t154 123t191 46q91 0 159.5 -31t108.5 -86t59.5 -122.5t21.5 -148.5l-260 -63q-2 76 -28 126t-79 50q-59 0 -112.5 -77t-87.5 -187.5t-54 -225.5t-20 -198q0 -96 22 -136t72 -40
q64 0 127 78l37 168h-140l62 270h409l-122 -551q-157 -240 -390 -240zM1008 1581q-58 -61 -133 -95t-154 -34t-140 34.5t-92 94.5l140 96q15 -33 47 -52t72 -19q85 0 147 71z" />
    <glyph glyph-name="gbreve" unicode="&#x11f;" horiz-adv-x="905" 
d="M266 -401q-111 0 -200.5 34t-143.5 97l137 204q34 -46 87 -73t112 -27q70 0 115 49.5t71 157.5l29 119q-43 -70 -98.5 -106t-114.5 -36q-114 0 -173.5 79.5t-59.5 230.5q0 79 13 167t44 181.5t75 167.5t113 122t152 48q66 0 128.5 -37.5t76.5 -106.5l26 119h277
l-211 -940q-28 -129 -74 -219t-106.5 -139.5t-127 -70.5t-147.5 -21zM403 266q29 0 59.5 25.5t51.5 64.5l72 320q-11 40 -38 67t-59 27q-45 0 -81.5 -42.5t-56.5 -106t-30 -124.5t-10 -110q0 -65 23 -93t69 -28zM864 1239q-58 -61 -132.5 -95t-153.5 -34t-140 34.5t-92 94.5
l139 96q15 -33 47 -52t72 -19q86 0 148 71z" />
    <glyph glyph-name="Gdotaccent" unicode="&#x120;" horiz-adv-x="970" 
d="M444 -25q-191 0 -291 123.5t-100 333.5q0 92 16 195.5t47 211.5t82 206t116 175t154 123t191 46q91 0 159.5 -31t108.5 -86t59.5 -122.5t21.5 -148.5l-260 -63q-2 76 -28 126t-79 50q-59 0 -112.5 -77t-87.5 -187.5t-54 -225.5t-20 -198q0 -96 22 -136t72 -40
q64 0 127 78l37 168h-140l62 270h409l-122 -551q-157 -240 -390 -240zM905 1614q0 -64 -50.5 -113t-115.5 -49q-55 0 -92 37.5t-37 93.5q0 63 50.5 111.5t115.5 48.5q55 0 92 -36.5t37 -92.5z" />
    <glyph glyph-name="gdotaccent" unicode="&#x121;" horiz-adv-x="905" 
d="M266 -401q-111 0 -200.5 34t-143.5 97l137 204q34 -46 87 -73t112 -27q70 0 115 49.5t71 157.5l29 119q-43 -70 -98.5 -106t-114.5 -36q-114 0 -173.5 79.5t-59.5 230.5q0 79 13 167t44 181.5t75 167.5t113 122t152 48q66 0 128.5 -37.5t76.5 -106.5l26 119h277
l-211 -940q-28 -129 -74 -219t-106.5 -139.5t-127 -70.5t-147.5 -21zM403 266q29 0 59.5 25.5t51.5 64.5l72 320q-11 40 -38 67t-59 27q-45 0 -81.5 -42.5t-56.5 -106t-30 -124.5t-10 -110q0 -65 23 -93t69 -28zM760 1270q0 -64 -50.5 -113t-115.5 -49q-55 0 -92 37.5
t-37 93.5q0 63 50.5 111.5t115.5 48.5q55 0 92 -36.5t37 -92.5z" />
    <glyph glyph-name="Gcommaaccent" unicode="&#x122;" horiz-adv-x="970" 
d="M483 -246q0 -96 -69.5 -190t-175.5 -146l-74 78q49 25 96.5 64t67.5 78q-6 -3 -19 -3q-43 0 -72.5 29.5t-29.5 81.5q0 57 45 100t102 43q55 0 92 -36t37 -99zM444 -25q-191 0 -291 123.5t-100 333.5q0 92 16 195.5t47 211.5t82 206t116 175t154 123t191 46
q91 0 159.5 -31t108.5 -86t59.5 -122.5t21.5 -148.5l-260 -63q-2 76 -28 126t-79 50q-59 0 -112.5 -77t-87.5 -187.5t-54 -225.5t-20 -198q0 -96 22 -136t72 -40q64 0 127 78l37 168h-140l62 270h409l-122 -551q-157 -240 -390 -240z" />
    <glyph glyph-name="gcommaaccent" unicode="&#x123;" horiz-adv-x="905" 
d="M467 1249q0 94 71.5 189.5t178.5 148.5l76 -80q-50 -22 -98.5 -62t-67.5 -81h16q45 0 76 -28.5t31 -80.5q0 -59 -47 -102t-105 -43q-56 0 -93.5 36.5t-37.5 102.5zM266 -401q-111 0 -200.5 34t-143.5 97l137 204q34 -46 87 -73t112 -27q70 0 115 49.5t71 157.5l29 119
q-43 -70 -98.5 -106t-114.5 -36q-114 0 -173.5 79.5t-59.5 230.5q0 79 13 167t44 181.5t75 167.5t113 122t152 48q66 0 128.5 -37.5t76.5 -106.5l26 119h277l-211 -940q-28 -129 -74 -219t-106.5 -139.5t-127 -70.5t-147.5 -21zM403 266q29 0 59.5 25.5t51.5 64.5l72 320
q-11 40 -38 67t-59 27q-45 0 -81.5 -42.5t-56.5 -106t-30 -124.5t-10 -110q0 -65 23 -93t69 -28z" />
    <glyph glyph-name="Hcircumflex" unicode="&#x124;" horiz-adv-x="1040" 
d="M987 1481h-145l-66 176l-135 -176h-156l191 295h246zM834 0h-310l125 567h-229l-125 -567h-309l301 1366h309l-117 -528h230l116 528h310z" />
    <glyph glyph-name="hcircumflex" unicode="&#x125;" horiz-adv-x="903" 
d="M924 1481h-146l-65 176l-135 -176h-156l190 295h246zM711 0h-279l150 676q6 12 6 35q0 28 -15 43.5t-41 15.5q-67 0 -139 -115l-143 -655h-279l301 1366h279l-111 -498q46 61 113.5 103.5t140.5 42.5q91 0 143 -48.5t52 -125.5q0 -18 -8 -58z" />
    <glyph glyph-name="Hbar" unicode="&#x126;" horiz-adv-x="1064" 
d="M846 0h-309l125 567h-230l-125 -567h-309l225 1026h-94l35 156h94l41 184h309l-41 -184h230l41 184h309l-41 -184h90l-33 -156h-92zM492 838h229l41 188h-230z" />
    <glyph glyph-name="hbar" unicode="&#x127;" horiz-adv-x="915" 
d="M723 0h-279l150 676q6 12 6 35q0 28 -14.5 43.5t-40.5 15.5q-67 0 -139 -115l-144 -655h-278l237 1081h-74l35 158h74l29 127h278l-28 -127h239l-35 -158h-239l-47 -213q46 61 113.5 103.5t140.5 42.5q91 0 142.5 -48.5t51.5 -125.5q0 -18 -8 -58z" />
    <glyph glyph-name="Itilde" unicode="&#x128;" horiz-adv-x="501" 
d="M295 0h-309l301 1366h309zM578 1477q-42 0 -69 20.5t-37 45t-26.5 45t-39.5 20.5q-44 0 -70 -119h-143q63 274 225 274q34 0 58 -13.5t36.5 -32.5t22.5 -38.5t23.5 -33t33.5 -13.5q44 0 70 119h143q-27 -127 -84.5 -200.5t-142.5 -73.5z" />
    <glyph glyph-name="itilde" unicode="&#x129;" horiz-adv-x="442" 
d="M250 0h-279l219 989h279zM475 1135q-42 0 -69 20.5t-37 45t-26.5 45t-39.5 20.5q-44 0 -70 -119h-143q63 274 225 274q34 0 58 -13.5t36.5 -32.5t22.5 -38.5t23.5 -33t33.5 -13.5q44 0 70 119h143q-27 -127 -84.5 -200.5t-142.5 -73.5z" />
    <glyph glyph-name="Imacron" unicode="&#x12a;" horiz-adv-x="501" 
d="M295 0h-309l301 1366h309zM739 1489h-536l33 156h536z" />
    <glyph glyph-name="imacron" unicode="&#x12b;" horiz-adv-x="442" 
d="M250 0h-279l219 989h279zM635 1147h-537l33 156h537z" />
    <glyph glyph-name="Ibreve" unicode="&#x12c;" horiz-adv-x="501" 
d="M295 0h-309l301 1366h309zM743 1581q-58 -61 -132.5 -95t-153.5 -34t-140 34.5t-92 94.5l140 96q15 -33 46.5 -52t71.5 -19q86 0 148 71z" />
    <glyph glyph-name="ibreve" unicode="&#x12d;" horiz-adv-x="442" 
d="M250 0h-279l219 989h279zM643 1239q-58 -61 -133 -95t-154 -34t-139.5 34t-91.5 95l139 96q15 -33 47 -52t72 -19q85 0 147 71z" />
    <glyph glyph-name="Iogonek" unicode="&#x12e;" horiz-adv-x="501" 
d="M233 -217l95 -68q-64 -96 -162 -96q-73 0 -117.5 35t-44.5 104q0 127 125 242h-143l301 1366h309l-301 -1366h2q-72 -45 -116 -104.5t-44 -122.5q0 -39 39 -39q38 0 57 49z" />
    <glyph glyph-name="iogonek" unicode="&#x12f;" horiz-adv-x="442" 
d="M186 -217l95 -68q-64 -96 -162 -96q-73 0 -117.5 35t-44.5 104q0 127 125 242h-111l219 989h279l-219 -989q-72 -45 -116 -104.5t-44 -122.5q0 -39 39 -39q38 0 57 49zM367 1090q-64 0 -106 40.5t-42 98.5q0 85 59 136.5t128 51.5q63 0 105 -41t42 -100q0 -84 -58.5 -135
t-127.5 -51z" />
    <glyph glyph-name="Idotaccent" unicode="&#x130;" horiz-adv-x="501" 
d="M295 0h-309l301 1366h309zM643 1612q0 -64 -50.5 -113t-115.5 -49q-55 0 -92 37.5t-37 93.5q0 63 50.5 111.5t115.5 48.5q55 0 92 -36.5t37 -92.5z" />
    <glyph glyph-name="dotlessi" unicode="&#x131;" horiz-adv-x="442" 
d="M250 0h-279l219 989h279z" />
    <glyph glyph-name="IJ" unicode="&#x132;" horiz-adv-x="1243" 
d="M295 0h-309l301 1366h309zM690 -25q-78 0 -149 21t-117 61l119 248q21 -26 54.5 -40.5t66.5 -14.5q119 0 149 133l217 983h311l-221 -999q-46 -205 -147.5 -298.5t-282.5 -93.5z" />
    <glyph glyph-name="ij" unicode="&#x133;" horiz-adv-x="884" 
d="M367 1090q-64 0 -106 40.5t-42 98.5q0 85 59 136.5t128 51.5q63 0 105 -41t42 -100q0 -84 -58.5 -135t-127.5 -51zM250 0h-279l219 989h279zM332 -401q-114 0 -162 51l98 207q13 -23 47 -23q61 0 86 111l232 1044h278l-233 -1044q-39 -178 -115.5 -262t-230.5 -84z
M809 1090q-64 0 -105.5 40.5t-41.5 98.5q0 85 59 136.5t127 51.5q63 0 105 -41t42 -100q0 -84 -58.5 -135t-127.5 -51z" />
    <glyph glyph-name="Jcircumflex" unicode="&#x134;" horiz-adv-x="741" 
d="M961 1481h-146l-65 176l-136 -176h-155l190 295h246zM188 -25q-78 0 -149 21t-117 61l119 248q21 -26 54.5 -40.5t66.5 -14.5q119 0 149 133l217 983h312l-222 -999q-46 -205 -147.5 -298.5t-282.5 -93.5z" />
    <glyph glyph-name="jcircumflex" unicode="&#x135;" horiz-adv-x="442" 
d="M614 1139h-145l-66 176l-135 -176h-155l190 295h246zM-111 -401q-113 0 -161 51l98 207q13 -23 47 -23q61 0 86 111l231 1044h279l-233 -1044q-39 -178 -116 -262t-231 -84z" />
    <glyph glyph-name="Kcommaaccent" unicode="&#x136;" horiz-adv-x="1017" 
d="M518 -246q0 -96 -70 -190t-176 -146l-73 78q49 25 96 63.5t67 78.5q-6 -3 -18 -3q-43 0 -72.5 29.5t-29.5 81.5q0 57 45 100t102 43q55 0 92 -36t37 -99zM911 0h-327l-97 492l-122 -179l-70 -313h-309l301 1366h309l-121 -553l359 553h354l-467 -639z" />
    <glyph glyph-name="kcommaaccent" unicode="&#x137;" horiz-adv-x="868" 
d="M428 -246q0 -96 -70 -190t-176 -146l-73 78q49 25 96 63.5t67 78.5q-6 -3 -18 -3q-43 0 -72.5 29.5t-29.5 81.5q0 57 45 100t102 43q55 0 92 -36t37 -99zM758 0h-299l-47 373l-115 -154l-47 -219h-279l301 1366h279l-170 -774l270 397h312l-326 -438z" />
    <glyph glyph-name="kgreenlandic" unicode="&#x138;" horiz-adv-x="868" 
d="M758 0h-299l-47 373l-115 -154l-47 -219h-279l219 989h279l-88 -397l270 397h312l-326 -438z" />
    <glyph glyph-name="Lacute" unicode="&#x139;" horiz-adv-x="778" 
d="M995 1776l-288 -295h-177l230 295h235zM629 0h-643l301 1366h309l-242 -1096h334z" />
    <glyph glyph-name="lacute" unicode="&#x13a;" horiz-adv-x="442" 
d="M803 1776l-289 -295h-176l229 295h236zM250 0h-279l301 1366h279z" />
    <glyph glyph-name="Lcommaaccent" unicode="&#x13b;" horiz-adv-x="778" 
d="M393 -246q0 -96 -70 -190t-176 -146l-73 78q49 25 96.5 64t67.5 78q-6 -3 -19 -3q-43 0 -72.5 29.5t-29.5 81.5q0 57 45 100t102 43q55 0 92 -36t37 -99zM629 0h-643l301 1366h309l-242 -1096h334z" />
    <glyph glyph-name="lcommaaccent" unicode="&#x13c;" horiz-adv-x="442" 
d="M188 -246q0 -96 -69.5 -190t-175.5 -146l-74 78q49 25 96.5 64t67.5 78q-6 -3 -19 -3q-43 0 -72.5 29.5t-29.5 81.5q0 57 45 100t102 43q55 0 92 -36t37 -99zM250 0h-279l301 1366h279z" />
    <glyph glyph-name="Lcaron" unicode="&#x13d;" horiz-adv-x="778" 
d="M936 1260q0 -96 -70 -190t-176 -146l-74 77q49 25 96.5 64t67.5 78q-4 -2 -18 -2q-44 0 -73.5 29t-29.5 81q0 57 45.5 100.5t102.5 43.5q55 0 92 -36t37 -99zM629 0h-643l301 1366h309l-242 -1096h334z" />
    <glyph glyph-name="lcaron" unicode="&#x13e;" horiz-adv-x="704" 
d="M899 1257q0 -95 -70 -189t-176 -146l-73 77q49 25 96 63.5t67 78.5q-4 -2 -18 -2q-43 0 -72.5 29t-29.5 81q0 58 45.5 101t101.5 43q55 0 92 -36t37 -100zM250 0h-279l301 1366h279z" />
    <glyph glyph-name="Ldot" unicode="&#x13f;" horiz-adv-x="946" 
d="M629 0h-643l301 1366h309l-242 -1096h334zM752 526q-66 0 -111 47t-45 113q0 77 56 134t132 57q66 0 112 -48t46 -114q0 -77 -56 -133t-134 -56z" />
    <glyph glyph-name="ldot" unicode="&#x140;" horiz-adv-x="800" 
d="M250 0h-279l301 1366h279zM604 326q-66 0 -110.5 46.5t-44.5 112.5q0 77 56 134t132 57q66 0 112 -48t46 -114q0 -77 -56.5 -132.5t-134.5 -55.5z" />
    <glyph glyph-name="Lslash" unicode="&#x141;" horiz-adv-x="794" 
d="M10 418l53 252l97 49l143 647h309l-104 -467l133 68l-53 -252l-135 -70l-82 -375h334l-60 -270h-643l102 467z" />
    <glyph glyph-name="lslash" unicode="&#x142;" horiz-adv-x="514" 
d="M16 453l43 200l101 52l147 661h279l-111 -504l105 53l-45 -200l-105 -53l-145 -662h-279l111 504z" />
    <glyph glyph-name="Nacute" unicode="&#x143;" horiz-adv-x="1040" 
d="M1102 1776l-289 -295h-176l229 295h236zM834 0h-289l-105 664l-145 -664h-309l301 1366h309l90 -631l139 631h310z" />
    <glyph glyph-name="nacute" unicode="&#x144;" horiz-adv-x="903" 
d="M958 1434l-288 -295h-176l229 295h235zM711 0h-279l150 676q6 18 6 35q0 28 -15 43.5t-41 15.5q-67 0 -139 -115l-143 -655h-279l219 989h279l-29 -121q46 61 113.5 103.5t140.5 42.5q91 0 143 -48t52 -126q0 -34 -8 -58z" />
    <glyph glyph-name="Ncommaaccent" unicode="&#x145;" horiz-adv-x="1040" 
d="M492 -246q0 -96 -70 -190t-176 -146l-74 78q49 25 96.5 64t67.5 78q-6 -3 -19 -3q-43 0 -72.5 29.5t-29.5 81.5q0 57 45 100t102 43q55 0 92.5 -36t37.5 -99zM834 0h-289l-105 664l-145 -664h-309l301 1366h309l90 -631l139 631h310z" />
    <glyph glyph-name="ncommaaccent" unicode="&#x146;" horiz-adv-x="903" 
d="M420 -246q0 -96 -70 -190t-176 -146l-74 78q49 25 96.5 64t67.5 78q-6 -3 -18 -3q-43 0 -73 29.5t-30 81.5q0 57 45.5 100t102.5 43q55 0 92 -36t37 -99zM711 0h-279l150 676q6 18 6 35q0 28 -15 43.5t-41 15.5q-67 0 -139 -115l-143 -655h-279l219 989h279l-29 -121
q46 61 113.5 103.5t140.5 42.5q91 0 143 -48t52 -126q0 -34 -8 -58z" />
    <glyph glyph-name="Ncaron" unicode="&#x147;" horiz-adv-x="1040" 
d="M864 1481h-246l-65 295h147l64 -177l137 177h154zM834 0h-289l-105 664l-145 -664h-309l301 1366h309l90 -631l139 631h310z" />
    <glyph glyph-name="ncaron" unicode="&#x148;" horiz-adv-x="903" 
d="M719 1139h-246l-65 295h147l63 -177l138 177h153zM711 0h-279l150 676q6 18 6 35q0 28 -15 43.5t-41 15.5q-67 0 -139 -115l-143 -655h-279l219 989h279l-29 -121q46 61 113.5 103.5t140.5 42.5q91 0 143 -48t52 -126q0 -34 -8 -58z" />
    <glyph glyph-name="napostrophe" unicode="&#x149;" horiz-adv-x="903" 
d="M522 1438q0 -96 -70 -190t-176 -146l-73 78q50 25 97 63.5t67 77.5q-4 -2 -19 -2q-43 0 -72.5 29.5t-29.5 81.5q0 57 45 100t102 43q55 0 92 -36t37 -99zM711 0h-279l150 676q6 18 6 35q0 28 -15 43.5t-41 15.5q-67 0 -139 -115l-143 -655h-279l219 989h279l-29 -121
q46 61 113.5 103.5t140.5 42.5q91 0 143 -48t52 -126q0 -34 -8 -58z" />
    <glyph glyph-name="Eng" unicode="&#x14a;" horiz-adv-x="1040" 
d="M403 -401q-171 0 -266 79l111 236q44 -47 125 -47q122 0 149 133l13 57l-95 607l-145 -664h-309l301 1366h309l90 -631l139 631h310l-304 -1376q-46 -206 -147 -298.5t-281 -92.5z" />
    <glyph glyph-name="eng" unicode="&#x14b;" horiz-adv-x="903" 
d="M881 782l-183 -835q-43 -189 -122.5 -268.5t-225.5 -79.5q-103 0 -162 51l101 215q13 -23 45 -23q65 0 88 105l160 729q6 30 6 33q0 61 -56 61q-37 0 -73.5 -33.5t-65.5 -81.5l-143 -655h-279l219 989h279l-29 -123q45 62 113.5 105t140.5 43q89 0 142 -47.5t53 -124.5
q0 -24 -8 -60z" />
    <glyph glyph-name="Omacron" unicode="&#x14c;" horiz-adv-x="1024" 
d="M999 1489h-536l33 156h536zM444 -25q-192 0 -291.5 127t-99.5 330q0 72 10.5 155.5t33.5 176.5t57 181.5t84 169.5t110 141.5t140.5 96.5t170.5 36q129 0 219 -63t131.5 -165t41.5 -233q0 -72 -10.5 -155.5t-34 -176t-57.5 -180.5t-84 -168.5t-110.5 -140.5t-140.5 -96
t-170 -36zM459 250q60 0 114.5 79.5t88 192t53.5 224.5t20 188q0 180 -94 180q-60 0 -114 -79.5t-87.5 -193t-53 -226t-19.5 -189.5q0 -176 92 -176z" />
    <glyph glyph-name="omacron" unicode="&#x14d;" 
d="M858 1147h-536l32 156h537zM377 -25q-170 0 -260 102.5t-90 280.5q0 87 19.5 178t60.5 177t96.5 153t134.5 107.5t168 40.5q173 0 263.5 -102t90.5 -281q0 -87 -20 -177.5t-61 -176.5t-97 -153t-135.5 -108t-169.5 -41zM393 219q44 0 81.5 49t59.5 118.5t34 137t12 113.5
q0 133 -88 133q-44 0 -81.5 -49t-59.5 -119t-34 -137t-12 -113q0 -133 88 -133z" />
    <glyph glyph-name="Obreve" unicode="&#x14e;" horiz-adv-x="1024" 
d="M444 -25q-192 0 -291.5 127t-99.5 330q0 72 10.5 155.5t33.5 176.5t57 181.5t84 169.5t110 141.5t140.5 96.5t170.5 36q129 0 219 -63t131.5 -165t41.5 -233q0 -72 -10.5 -155.5t-34 -176t-57.5 -180.5t-84 -168.5t-110.5 -140.5t-140.5 -96t-170 -36zM459 250
q60 0 114.5 79.5t88 192t53.5 224.5t20 188q0 180 -94 180q-60 0 -114 -79.5t-87.5 -193t-53 -226t-19.5 -189.5q0 -176 92 -176zM1008 1581q-58 -61 -133 -95t-154 -34t-140 34.5t-92 94.5l140 96q15 -33 47 -52t72 -19q85 0 147 71z" />
    <glyph glyph-name="obreve" unicode="&#x14f;" 
d="M377 -25q-170 0 -260 102.5t-90 280.5q0 87 19.5 178t60.5 177t96.5 153t134.5 107.5t168 40.5q173 0 263.5 -102t90.5 -281q0 -87 -20 -177.5t-61 -176.5t-97 -153t-135.5 -108t-169.5 -41zM393 219q44 0 81.5 49t59.5 118.5t34 137t12 113.5q0 133 -88 133
q-44 0 -81.5 -49t-59.5 -119t-34 -137t-12 -113q0 -133 88 -133zM864 1239q-58 -61 -132.5 -95t-153.5 -34t-140 34.5t-92 94.5l139 96q15 -33 47 -52t72 -19q86 0 148 71z" />
    <glyph glyph-name="Ohungarumlaut" unicode="&#x150;" horiz-adv-x="1024" 
d="M846 1776l-234 -295h-145l172 295h207zM1120 1776l-233 -295h-146l172 295h207zM444 -25q-192 0 -291.5 127t-99.5 330q0 72 10.5 155.5t33.5 176.5t57 181.5t84 169.5t110 141.5t140.5 96.5t170.5 36q129 0 219 -63t131.5 -165t41.5 -233q0 -72 -10.5 -155.5t-34 -176
t-57.5 -180.5t-84 -168.5t-110.5 -140.5t-140.5 -96t-170 -36zM459 250q60 0 114.5 79.5t88 192t53.5 224.5t20 188q0 180 -94 180q-60 0 -114 -79.5t-87.5 -193t-53 -226t-19.5 -189.5q0 -176 92 -176z" />
    <glyph glyph-name="ohungarumlaut" unicode="&#x151;" 
d="M709 1434l-234 -295h-145l172 295h207zM983 1434l-233 -295h-146l172 295h207zM377 -25q-170 0 -260 102.5t-90 280.5q0 87 19.5 178t60.5 177t96.5 153t134.5 107.5t168 40.5q173 0 263.5 -102t90.5 -281q0 -87 -20 -177.5t-61 -176.5t-97 -153t-135.5 -108t-169.5 -41z
M393 219q44 0 81.5 49t59.5 118.5t34 137t12 113.5q0 133 -88 133q-44 0 -81.5 -49t-59.5 -119t-34 -137t-12 -113q0 -133 88 -133z" />
    <glyph glyph-name="OE" unicode="&#x152;" horiz-adv-x="1335" 
d="M1174 0h-642l17 86q-41 -59 -98 -85t-107 -26q-132 0 -213.5 120.5t-81.5 336.5q0 110 23.5 236t73.5 253.5t118 231t166.5 168.5t210.5 65q56 0 105.5 -27t68.5 -79l19 86h641l-60 -270h-332l-59 -267h319l-61 -270h-317l-64 -289h334zM618 403l125 560q-5 149 -96 149
q-65 0 -121 -78.5t-89.5 -191.5t-52.5 -225t-19 -191q0 -87 21 -131.5t71 -44.5q41 0 85 39.5t76 113.5z" />
    <glyph glyph-name="oe" unicode="&#x153;" horiz-adv-x="1376" 
d="M1315 403h-504q-4 -16 -4 -57q0 -61 37 -103t123 -42q90 0 166 73l90 -174q-65 -62 -148 -93.5t-162 -31.5q-196 0 -260 160q-65 -82 -129.5 -121t-150.5 -39q-173 0 -259.5 103t-86.5 280q0 92 20.5 184.5t61 177t96.5 150.5t133 105t164 39q176 0 256 -156
q51 75 122.5 115.5t149.5 40.5q154 0 240 -86t86 -266q0 -90 -41 -259zM850 594h248q8 36 8 76q0 121 -96 121q-68 0 -107.5 -59.5t-52.5 -137.5zM571 637q0 133 -86 133q-43 0 -79.5 -46t-57 -114.5t-32 -136.5t-11.5 -121q0 -133 88 -133q43 0 78.5 48t56 117.5t32 137
t11.5 115.5z" />
    <glyph glyph-name="Racute" unicode="&#x154;" horiz-adv-x="993" 
d="M1079 1776l-288 -295h-177l230 295h235zM825 0h-323l-27 479h-74l-106 -479h-309l301 1366h383q153 0 252.5 -105.5t99.5 -261.5t-79.5 -289.5t-176.5 -172.5zM526 750h2q75 0 122.5 66t47.5 153q0 64 -28 95.5t-74 31.5h-59l-76 -346h65z" />
    <glyph glyph-name="racute" unicode="&#x155;" horiz-adv-x="604" 
d="M856 1434l-289 -295h-176l230 295h235zM250 0h-279l219 989h279l-27 -121q39 66 105.5 106t146.5 40l-63 -273q-23 13 -58 13q-102 0 -184 -113z" />
    <glyph glyph-name="Rcommaaccent" unicode="&#x156;" horiz-adv-x="993" 
d="M469 -246q0 -96 -70 -190t-176 -146l-73 78q49 25 96 63.5t67 78.5q-6 -3 -18 -3q-43 0 -72.5 29.5t-29.5 81.5q0 57 45 100t102 43q55 0 92 -36t37 -99zM825 0h-323l-27 479h-74l-106 -479h-309l301 1366h383q153 0 252.5 -105.5t99.5 -261.5t-79.5 -289.5
t-176.5 -172.5zM526 750h2q75 0 122.5 66t47.5 153q0 64 -28 95.5t-74 31.5h-59l-76 -346h65z" />
    <glyph glyph-name="rcommaaccent" unicode="&#x157;" horiz-adv-x="604" 
d="M309 -246q0 -96 -70 -190t-176 -146l-73 78q49 25 96.5 64t67.5 78q-6 -3 -19 -3q-43 0 -72.5 29.5t-29.5 81.5q0 57 45 100t102 43q55 0 92 -36t37 -99zM250 0h-279l219 989h279l-27 -121q39 66 105.5 106t146.5 40l-63 -273q-23 13 -58 13q-102 0 -184 -113z" />
    <glyph glyph-name="Rcaron" unicode="&#x158;" horiz-adv-x="993" 
d="M842 1481h-246l-66 295h148l63 -177l138 177h153zM825 0h-323l-27 479h-74l-106 -479h-309l301 1366h383q153 0 252.5 -105.5t99.5 -261.5t-79.5 -289.5t-176.5 -172.5zM526 750h2q75 0 122.5 66t47.5 153q0 64 -28 95.5t-74 31.5h-59l-76 -346h65z" />
    <glyph glyph-name="rcaron" unicode="&#x159;" horiz-adv-x="604" 
d="M612 1139h-245l-66 295h148l63 -177l137 177h154zM250 0h-279l219 989h279l-27 -121q39 66 105.5 106t146.5 40l-63 -273q-23 13 -58 13q-102 0 -184 -113z" />
    <glyph glyph-name="Sacute" unicode="&#x15a;" horiz-adv-x="851" 
d="M1012 1776l-289 -295h-176l229 295h236zM338 -25q-122 0 -227 45.5t-162 118.5l174 230q35 -54 94.5 -86.5t120.5 -32.5q55 0 93 40t38 105q0 40 -33.5 82t-81 84.5t-95 91t-81 119.5t-33.5 152q0 193 132 329t323 136q98 0 192 -37t154 -103l-162 -231
q-34 45 -83.5 70.5t-104.5 25.5q-56 0 -88.5 -38t-32.5 -91q0 -41 33 -84t79.5 -85t93 -90.5t79.5 -119.5t33 -153q0 -96 -33.5 -183t-92 -152t-144.5 -104t-185 -39z" />
    <glyph glyph-name="sacute" unicode="&#x15b;" horiz-adv-x="745" 
d="M883 1434l-289 -295h-176l229 295h236zM295 -25q-115 0 -213.5 45t-138.5 107l147 178q34 -47 88.5 -79.5t116.5 -32.5q48 0 78 26t30 64q0 25 -23 49t-58 43t-75.5 46.5t-75.5 58t-58 79.5t-23 109q0 144 96 245t267 101q92 0 180 -37.5t147 -104.5l-141 -174
q-24 35 -78 67t-110 32q-43 0 -69 -21.5t-26 -58.5q0 -25 33.5 -50.5t81 -52.5t95 -61.5t81 -91.5t33.5 -129q0 -145 -106 -251t-279 -106z" />
    <glyph glyph-name="Scircumflex" unicode="&#x15c;" horiz-adv-x="851" 
d="M899 1481h-145l-66 176l-135 -176h-156l191 295h246zM338 -25q-122 0 -227 45.5t-162 118.5l174 230q35 -54 94.5 -86.5t120.5 -32.5q55 0 93 40t38 105q0 40 -33.5 82t-81 84.5t-95 91t-81 119.5t-33.5 152q0 193 132 329t323 136q98 0 192 -37t154 -103l-162 -231
q-34 45 -83.5 70.5t-104.5 25.5q-56 0 -88.5 -38t-32.5 -91q0 -41 33 -84t79.5 -85t93 -90.5t79.5 -119.5t33 -153q0 -96 -33.5 -183t-92 -152t-144.5 -104t-185 -39z" />
    <glyph glyph-name="scircumflex" unicode="&#x15d;" horiz-adv-x="745" 
d="M770 1139h-145l-66 176l-135 -176h-156l191 295h246zM295 -25q-115 0 -213.5 45t-138.5 107l147 178q34 -47 88.5 -79.5t116.5 -32.5q48 0 78 26t30 64q0 25 -23 49t-58 43t-75.5 46.5t-75.5 58t-58 79.5t-23 109q0 144 96 245t267 101q92 0 180 -37.5t147 -104.5
l-141 -174q-24 35 -78 67t-110 32q-43 0 -69 -21.5t-26 -58.5q0 -25 33.5 -50.5t81 -52.5t95 -61.5t81 -91.5t33.5 -129q0 -145 -106 -251t-279 -106z" />
    <glyph glyph-name="Scedilla" unicode="&#x15e;" horiz-adv-x="851" 
d="M231 -401q-122 0 -198 82l67 98q52 -66 129 -66q36 0 57 21t21 51q0 41 -39 41q-27 0 -47 -27l-86 56l78 135q-86 17 -155 56t-109 93l174 230q35 -54 94.5 -86.5t120.5 -32.5q55 0 93 40t38 105q0 40 -33.5 82t-81 84.5t-95 91t-81 119.5t-33.5 152q0 193 132 329
t323 136q98 0 192 -37t154 -103l-162 -231q-34 45 -83.5 70.5t-104.5 25.5q-56 0 -88.5 -38t-32.5 -91q0 -41 33 -84t79.5 -85t93 -90.5t79.5 -119.5t33 -153q0 -96 -33.5 -183t-92 -152t-144.5 -104t-185 -39l-51 -79q23 20 47 20q48 0 79 -34t31 -91q0 -83 -61 -137.5
t-152 -54.5z" />
    <glyph glyph-name="scedilla" unicode="&#x15f;" horiz-adv-x="745" 
d="M184 -401q-122 0 -198 82l67 98q52 -66 129 -66q36 0 57 21t21 51q0 41 -39 41q-27 0 -47 -27l-86 56l80 137q-77 18 -137 54.5t-88 80.5l147 178q34 -47 88.5 -79.5t116.5 -32.5q48 0 78 26t30 64q0 25 -23 49t-58 43t-75.5 46.5t-75.5 58t-58 79.5t-23 109
q0 144 96 245t267 101q92 0 180 -37.5t147 -104.5l-141 -174q-24 35 -78 67t-110 32q-43 0 -69 -21.5t-26 -58.5q0 -25 33.5 -50.5t81 -52.5t95 -61.5t81 -91.5t33.5 -129q0 -145 -106 -251t-279 -106h-4l-51 -79q23 20 47 20q48 0 79 -34t31 -91q0 -83 -61 -137.5
t-152 -54.5z" />
    <glyph glyph-name="Scaron" unicode="&#x160;" horiz-adv-x="851" 
d="M776 1481h-246l-65 295h147l64 -177l137 177h154zM338 -25q-122 0 -227 45.5t-162 118.5l174 230q35 -54 94.5 -86.5t120.5 -32.5q55 0 93 40t38 105q0 40 -33.5 82t-81 84.5t-95 91t-81 119.5t-33.5 152q0 193 132 329t323 136q98 0 192 -37t154 -103l-162 -231
q-34 45 -83.5 70.5t-104.5 25.5q-56 0 -88.5 -38t-32.5 -91q0 -41 33 -84t79.5 -85t93 -90.5t79.5 -119.5t33 -153q0 -96 -33.5 -183t-92 -152t-144.5 -104t-185 -39z" />
    <glyph glyph-name="scaron" unicode="&#x161;" horiz-adv-x="745" 
d="M645 1139h-246l-65 295h147l64 -177l137 177h154zM295 -25q-115 0 -213.5 45t-138.5 107l147 178q34 -47 88.5 -79.5t116.5 -32.5q48 0 78 26t30 64q0 25 -23 49t-58 43t-75.5 46.5t-75.5 58t-58 79.5t-23 109q0 144 96 245t267 101q92 0 180 -37.5t147 -104.5l-141 -174
q-24 35 -78 67t-110 32q-43 0 -69 -21.5t-26 -58.5q0 -25 33.5 -50.5t81 -52.5t95 -61.5t81 -91.5t33.5 -129q0 -145 -106 -251t-279 -106z" />
    <glyph glyph-name="Tcommaaccent" unicode="&#x162;" horiz-adv-x="788" 
d="M373 -246q0 -96 -70 -190t-176 -146l-74 78q49 25 96.5 64t67.5 78q-6 -3 -18 -3q-43 0 -73 29.5t-30 81.5q0 57 45.5 100t102.5 43q55 0 92 -36t37 -99zM440 0h-311l242 1096h-203l59 270h715l-59 -270h-203z" />
    <glyph glyph-name="tcommaaccent" unicode="&#x163;" horiz-adv-x="552" 
d="M252 -246q0 -96 -70 -190t-176 -146l-74 78q49 25 96.5 64t67.5 78q-6 -3 -18 -3q-43 0 -73 29.5t-30 81.5q0 57 45.5 100t102.5 43q55 0 92 -36t37 -99zM309 -25q-127 0 -193.5 48.5t-66.5 144.5q0 47 12 94l111 486h-90l53 241h90l60 271h276l-59 -271h121l-56 -241
h-118l-97 -433q-6 -21 -6 -45q0 -51 51 -51q20 0 43 14l-2 -229q-49 -29 -129 -29z" />
    <glyph glyph-name="Tcaron" unicode="&#x164;" horiz-adv-x="788" 
d="M729 1481h-246l-65 295h147l64 -177l137 177h154zM440 0h-311l242 1096h-203l59 270h715l-59 -270h-203z" />
    <glyph glyph-name="tcaron" unicode="&#x165;" horiz-adv-x="677" 
d="M928 1438q0 -96 -70 -190t-176 -146l-74 78q50 25 97 63.5t67 77.5q-4 -2 -18 -2q-43 0 -73 29.5t-30 81.5q0 57 45.5 100t102.5 43q55 0 92 -36t37 -99zM309 -25q-127 0 -193.5 48.5t-66.5 144.5q0 47 12 94l111 486h-90l53 241h90l60 271h276l-59 -271h121l-56 -241
h-118l-97 -433q-6 -21 -6 -45q0 -51 51 -51q20 0 43 14l-2 -229q-49 -29 -129 -29z" />
    <glyph glyph-name="Tbar" unicode="&#x166;" horiz-adv-x="788" 
d="M440 0h-311l117 528h-140l35 156h138l92 412h-203l59 270h715l-59 -270h-203l-90 -412h137l-33 -156h-139z" />
    <glyph glyph-name="tbar" unicode="&#x167;" horiz-adv-x="552" 
d="M309 -25q-127 0 -193.5 48.5t-66.5 144.5q0 47 12 94l37 160h-88l33 156h90l39 170h-90l53 241h90l60 271h276l-59 -271h121l-56 -241h-118l-39 -170h71l-35 -156h-71l-23 -107q-6 -21 -6 -45q0 -51 51 -51q20 0 43 14l-2 -229q-49 -29 -129 -29z" />
    <glyph glyph-name="Utilde" unicode="&#x168;" horiz-adv-x="1040" 
d="M455 -25q-164 0 -274.5 102t-110.5 267q0 36 10 84l207 938h309l-213 -967q-6 -36 -6 -51q0 -47 28.5 -74.5t73.5 -27.5q51 0 83 35.5t50 117.5l213 967h312l-211 -948q-49 -222 -175 -332.5t-296 -110.5zM848 1477q-42 0 -69 20.5t-37 45t-26.5 45t-39.5 20.5
q-44 0 -70 -119h-143q63 274 225 274q34 0 58 -13.5t36.5 -32.5t22.5 -38.5t23.5 -33t33.5 -13.5q44 0 70 119h143q-27 -127 -84.5 -200.5t-142.5 -73.5z" />
    <glyph glyph-name="utilde" unicode="&#x169;" horiz-adv-x="903" 
d="M190 989h279l-150 -670q-6 -27 -6 -45q0 -25 15 -40t41 -15q38 0 74 32.5t63 78.5l145 659h279l-219 -989h-279l29 121q-48 -62 -114.5 -104t-139.5 -42q-91 0 -143 48.5t-52 126.5q0 33 8 57zM702 1135q-42 0 -69 20.5t-37 45t-26.5 45t-39.5 20.5q-43 0 -69 -119h-144
q63 274 226 274q34 0 58 -13.5t36.5 -32.5t22.5 -38.5t23.5 -33t33.5 -13.5q43 0 69 119h144q-27 -127 -85 -200.5t-143 -73.5z" />
    <glyph glyph-name="Umacron" unicode="&#x16a;" horiz-adv-x="1040" 
d="M455 -25q-164 0 -274.5 102t-110.5 267q0 36 10 84l207 938h309l-213 -967q-6 -36 -6 -51q0 -47 28.5 -74.5t73.5 -27.5q51 0 83 35.5t50 117.5l213 967h312l-211 -948q-49 -222 -175 -332.5t-296 -110.5zM1010 1489h-537l33 156h536z" />
    <glyph glyph-name="umacron" unicode="&#x16b;" horiz-adv-x="903" 
d="M190 989h279l-150 -670q-6 -27 -6 -45q0 -25 15 -40t41 -15q38 0 74 32.5t63 78.5l145 659h279l-219 -989h-279l29 121q-48 -62 -114.5 -104t-139.5 -42q-91 0 -143 48.5t-52 126.5q0 33 8 57zM866 1147h-536l32 156h537z" />
    <glyph glyph-name="Ubreve" unicode="&#x16c;" horiz-adv-x="1040" 
d="M455 -25q-164 0 -274.5 102t-110.5 267q0 36 10 84l207 938h309l-213 -967q-6 -36 -6 -51q0 -47 28.5 -74.5t73.5 -27.5q51 0 83 35.5t50 117.5l213 967h312l-211 -948q-49 -222 -175 -332.5t-296 -110.5zM1014 1581q-58 -61 -133 -95t-154 -34t-139.5 34t-91.5 95
l139 96q15 -33 47 -52t72 -19q85 0 147 71z" />
    <glyph glyph-name="ubreve" unicode="&#x16d;" horiz-adv-x="903" 
d="M190 989h279l-150 -670q-6 -27 -6 -45q0 -25 15 -40t41 -15q38 0 74 32.5t63 78.5l145 659h279l-219 -989h-279l29 121q-48 -62 -114.5 -104t-139.5 -42q-91 0 -143 48.5t-52 126.5q0 33 8 57zM872 1239q-58 -61 -132.5 -95t-153.5 -34t-140 34.5t-92 94.5l140 96
q15 -33 46.5 -52t71.5 -19q86 0 148 71z" />
    <glyph glyph-name="Uring" unicode="&#x16e;" horiz-adv-x="1040" 
d="M743 1413q-73 0 -119 47.5t-46 120.5q0 85 62 149t146 64q73 0 120.5 -48t47.5 -122q0 -85 -63 -148t-148 -63zM760 1530q31 0 55.5 24.5t24.5 57.5q0 29 -17.5 47t-46.5 18q-33 0 -57.5 -24.5t-24.5 -57.5q0 -29 18.5 -47t47.5 -18zM455 -25q-164 0 -274.5 102
t-110.5 267q0 36 10 84l207 938h309l-213 -967q-6 -36 -6 -51q0 -47 28.5 -74.5t73.5 -27.5q51 0 83 35.5t50 117.5l213 967h312l-211 -948q-49 -222 -175 -332.5t-296 -110.5z" />
    <glyph glyph-name="uring" unicode="&#x16f;" horiz-adv-x="903" 
d="M602 1090q-73 0 -119.5 47.5t-46.5 119.5q0 85 62.5 149t146.5 64q73 0 120.5 -48t47.5 -122q0 -85 -63 -147.5t-148 -62.5zM618 1206q31 0 55.5 24.5t24.5 57.5q0 30 -17 48t-46 18q-33 0 -57.5 -24.5t-24.5 -57.5q0 -29 18 -47.5t47 -18.5zM190 989h279l-150 -670
q-6 -27 -6 -45q0 -25 15 -40t41 -15q38 0 74 32.5t63 78.5l145 659h279l-219 -989h-279l29 121q-48 -62 -114.5 -104t-139.5 -42q-91 0 -143 48.5t-52 126.5q0 33 8 57z" />
    <glyph glyph-name="Uhungarumlaut" unicode="&#x170;" horiz-adv-x="1040" 
d="M455 -25q-164 0 -274.5 102t-110.5 267q0 36 10 84l207 938h309l-213 -967q-6 -36 -6 -51q0 -47 28.5 -74.5t73.5 -27.5q51 0 83 35.5t50 117.5l213 967h312l-211 -948q-49 -222 -175 -332.5t-296 -110.5zM856 1776l-233 -295h-146l172 295h207zM1130 1776l-233 -295
h-145l172 295h206z" />
    <glyph glyph-name="uhungarumlaut" unicode="&#x171;" horiz-adv-x="903" 
d="M190 989h279l-150 -670q-6 -27 -6 -45q0 -25 15 -40t41 -15q38 0 74 32.5t63 78.5l145 659h279l-219 -989h-279l29 121q-48 -62 -114.5 -104t-139.5 -42q-91 0 -143 48.5t-52 126.5q0 33 8 57zM715 1434l-234 -295h-145l172 295h207zM989 1434l-233 -295h-146l172 295
h207z" />
    <glyph glyph-name="Uogonek" unicode="&#x172;" horiz-adv-x="1040" 
d="M543 -217l94 -68q-64 -96 -162 -96q-73 0 -117.5 35t-44.5 104q0 116 101 219q-150 12 -247 112t-97 255q0 36 10 84l207 938h309l-213 -967q-6 -36 -6 -51q0 -47 28.5 -74.5t73.5 -27.5q51 0 83 35.5t50 117.5l213 967h312l-211 -948q-37 -168 -121 -273t-199 -145
q-72 -45 -116 -104.5t-44 -122.5q0 -39 39 -39t58 49z" />
    <glyph glyph-name="uogonek" unicode="&#x173;" horiz-adv-x="903" 
d="M190 989h279l-150 -670q-6 -27 -6 -45q0 -25 15 -40t41 -15q38 0 74 32.5t63 78.5l145 659h279l-219 -989q-72 -45 -116 -104.5t-44 -122.5q0 -39 39 -39q38 0 57 49l94 -68q-64 -96 -161 -96q-73 0 -117.5 35t-44.5 104q0 127 125 242h-111l29 121q-48 -62 -114.5 -104
t-139.5 -42q-91 0 -143 48.5t-52 126.5q0 33 8 57z" />
    <glyph glyph-name="Wcircumflex" unicode="&#x174;" horiz-adv-x="1331" 
d="M1128 1481h-145l-65 176l-136 -176h-155l190 295h246zM963 0h-310l78 795l-274 -795h-310l60 1366h309l-86 -827l301 827h240l-62 -827l279 827h319z" />
    <glyph glyph-name="wcircumflex" unicode="&#x175;" horiz-adv-x="1312" 
d="M1032 1139h-145l-66 176l-135 -176h-156l191 295h246zM967 0h-291l4 612l-264 -612h-291l-14 989h278l-24 -616l253 616h261l-9 -616l254 616h295z" />
    <glyph glyph-name="Ycircumflex" unicode="&#x176;" horiz-adv-x="942" 
d="M938 1481h-145l-66 176l-135 -176h-156l191 295h245zM516 0h-311l123 559l-150 807h316l41 -514l270 514h338l-506 -807z" />
    <glyph glyph-name="ycircumflex" unicode="&#x177;" horiz-adv-x="835" 
d="M-104 -373l90 228q13 -13 47 -13q45 0 80 62l45 86l-54 999h285l-14 -639l274 639h299l-571 -1143q-74 -143 -144 -195t-174 -52q-97 0 -163 28zM801 1139h-146l-65 176l-135 -176h-156l190 295h246z" />
    <glyph glyph-name="Ydieresis" unicode="&#x178;" horiz-adv-x="942" 
d="M1038 1612q0 -64 -50 -113t-114 -49q-56 0 -92.5 37t-36.5 92q0 64 49.5 113t114.5 49q55 0 92 -36.5t37 -92.5zM682 1612q0 -64 -49.5 -113t-114.5 -49q-55 0 -91 36.5t-36 92.5q0 64 49.5 113t112.5 49q55 0 92 -36.5t37 -92.5zM516 0h-311l123 559l-150 807h316
l41 -514l270 514h338l-506 -807z" />
    <glyph glyph-name="Zacute" unicode="&#x179;" horiz-adv-x="806" 
d="M975 1776l-289 -295h-176l229 295h236zM639 0h-692l55 260l498 836h-312l60 270h678l-54 -248l-507 -848h335z" />
    <glyph glyph-name="zacute" unicode="&#x17a;" horiz-adv-x="720" 
d="M858 1434l-289 -295h-176l230 295h235zM563 0h-626l43 207l399 541h-279l56 241h618l-45 -196l-401 -551h286z" />
    <glyph glyph-name="Zdotaccent" unicode="&#x17b;" horiz-adv-x="806" 
d="M639 0h-692l55 260l498 836h-312l60 270h678l-54 -248l-507 -848h335zM786 1612q0 -64 -50 -113t-115 -49q-55 0 -92 37.5t-37 93.5q0 63 50 111.5t115 48.5q55 0 92 -36.5t37 -92.5z" />
    <glyph glyph-name="zdotaccent" unicode="&#x17c;" horiz-adv-x="720" 
d="M563 0h-626l43 207l399 541h-279l56 241h618l-45 -196l-401 -551h286zM670 1270q0 -64 -50.5 -113t-115.5 -49q-55 0 -92 37.5t-37 93.5q0 63 50.5 111.5t115.5 48.5q55 0 92 -36.5t37 -92.5z" />
    <glyph glyph-name="Zcaron" unicode="&#x17d;" horiz-adv-x="806" 
d="M739 1481h-245l-66 295h147l64 -177l137 177h154zM639 0h-692l55 260l498 836h-312l60 270h678l-54 -248l-507 -848h335z" />
    <glyph glyph-name="zcaron" unicode="&#x17e;" horiz-adv-x="720" 
d="M621 1139h-246l-66 295h148l63 -177l137 177h154zM563 0h-626l43 207l399 541h-279l56 241h618l-45 -196l-401 -551h286z" />
    <glyph glyph-name="longs" unicode="&#x17f;" horiz-adv-x="536" 
d="M283 0h-277l166 748h-90l55 241h88l15 70q12 57 28 103t42.5 89t61 71.5t84 46t109.5 17.5q66 0 125.5 -17.5t87.5 -43.5l-106 -205q-28 31 -62 31q-77 0 -94 -92z" />
    <glyph glyph-name="florin" unicode="&#x192;" horiz-adv-x="847" 
d="M223 -330h-315l178 813h-80v244h135l80 371q31 136 114.5 212t211.5 76q138 0 211 -51l-80 -241q-25 22 -64 22q-71 0 -92 -100l-63 -289h147v-244h-203z" />
    <glyph glyph-name="Ohorn" unicode="&#x1a0;" horiz-adv-x="1024" 
d="M444 -25q-192 0 -291.5 127t-99.5 330q0 72 10.5 155.5t33.5 176.5t57 181.5t84 169.5t110 141.5t140.5 96.5t170.5 36q116 0 200.5 -51t131.5 -142q71 49 92 98h-14q-37 0 -63.5 26.5t-26.5 70.5q0 53 39 91t92 38q47 0 81 -33t34 -90q0 -82 -56 -162.5t-143 -128.5
q25 -86 25 -178q0 -72 -10.5 -155.5t-34 -176t-57.5 -180.5t-84 -168.5t-110.5 -140.5t-140.5 -96t-170 -36zM459 250q60 0 114.5 79.5t88 192t53.5 224.5t20 188q0 180 -94 180q-60 0 -114 -79.5t-87.5 -193t-53 -226t-19.5 -189.5q0 -176 92 -176z" />
    <glyph glyph-name="ohorn" unicode="&#x1a1;" 
d="M999 1122q0 -76 -51 -153t-131 -129q43 -85 43 -209q0 -87 -20 -177.5t-61 -176.5t-97 -153t-135.5 -108t-169.5 -41q-170 0 -260 102.5t-90 280.5q0 87 19.5 178t60.5 177t96.5 153t134.5 107.5t168 40.5q163 0 256 -96q73 48 98 102h-16q-38 0 -65 26t-27 70
q0 53 40.5 91t92.5 38q47 0 80.5 -33t33.5 -90zM393 219q44 0 81.5 49t59.5 118.5t34 137t12 113.5q0 133 -88 133q-44 0 -81.5 -49t-59.5 -119t-34 -137t-12 -113q0 -133 88 -133z" />
    <glyph glyph-name="Uhorn" unicode="&#x1af;" horiz-adv-x="1040" 
d="M1356 1520q0 -90 -71.5 -183t-184.5 -137l-174 -782q-49 -222 -175 -332.5t-296 -110.5q-164 0 -274.5 102t-110.5 267q0 36 10 84l207 938h309l-213 -967q-6 -36 -6 -51q0 -47 28.5 -74.5t73.5 -27.5q51 0 83 35.5t50 117.5l213 967h312l-11 -47q68 47 91 100
q-2 -2 -15 -2q-39 0 -65.5 25.5t-26.5 70.5q0 53 39.5 91t91.5 38q49 0 82 -31.5t33 -90.5z" />
    <glyph glyph-name="uhorn" unicode="&#x1b0;" horiz-adv-x="903" 
d="M1069 1151q0 -67 -44.5 -141t-119.5 -127l-194 -883h-279l29 121q-48 -62 -114.5 -104t-139.5 -42q-91 0 -143 48.5t-52 126.5q0 33 8 57l170 782h279l-150 -676q-6 -30 -6 -34q0 -28 15 -44t41 -16q38 0 74 32.5t63 78.5l145 659h232q27 25 45 60q-2 -2 -15 -2
q-38 0 -65 27t-27 71q0 53 40 91t93 38q47 0 81 -33t34 -90z" />
    <glyph glyph-name="AEacute" unicode="&#x1fc;" horiz-adv-x="1296" 
d="M1337 1776l-288 -295h-177l230 295h235zM1135 0h-641l47 221h-213l-113 -221h-324l768 1366h777l-60 -270h-332l-59 -267h320l-62 -270h-317l-64 -289h332zM600 492l113 503l-252 -503h139z" />
    <glyph glyph-name="aeacute" unicode="&#x1fd;" horiz-adv-x="1378" 
d="M1188 1434l-289 -295h-176l229 295h236zM494 770q-46 0 -84.5 -49t-60 -120t-33 -139.5t-11.5 -119.5q0 -60 23.5 -91.5t66.5 -31.5q31 0 61 26.5t50 65.5l80 365q-6 43 -31.5 68.5t-60.5 25.5zM745 145l-32 -145h-277l25 113q-89 -138 -211 -138q-113 0 -171.5 82
t-58.5 244q0 82 15.5 175.5t49 189.5t80 173t114.5 126t147 49q159 0 203 -144l28 119h275l-21 -96q38 50 93.5 86t117.5 35q119 -3 176.5 -83.5t57.5 -246.5q0 -142 -41 -281h-508q-6 -30 -6 -57q0 -54 41 -97.5t127 -43.5q83 0 166 76l88 -193q-107 -113 -250 -113
q-185 0 -228 170zM846 594h252q10 48 10 78q0 54 -27.5 86.5t-72.5 32.5q-47 0 -83 -33.5t-53.5 -75t-25.5 -88.5z" />
    <glyph glyph-name="Oslashacute" unicode="&#x1fe;" horiz-adv-x="1024" 
d="M1092 1776l-289 -295h-176l229 295h236zM444 -25q-161 0 -258 91l-49 -66h-172l135 184q-47 103 -47 248q0 72 10.5 155.5t33.5 176.5t57 181.5t84 169.5t110 141.5t140.5 96.5t170.5 36q158 0 259 -95l51 72h172l-140 -190q50 -109 50 -248q0 -72 -10.5 -155.5t-34 -176
t-57.5 -180.5t-84 -168.5t-110.5 -140.5t-140.5 -96t-170 -36zM641 1114q-49 0 -94.5 -53.5t-78.5 -139.5t-55.5 -177.5t-35.5 -182.5l348 473q-23 80 -84 80zM459 250q49 0 94.5 53.5t79 138.5t57 176.5t35.5 180.5l-348 -473q19 -76 82 -76z" />
    <glyph glyph-name="oslashacute" unicode="&#x1ff;" 
d="M952 1434l-288 -295h-177l230 295h235zM98 0h-155l127 147q-43 85 -43 211q0 87 19.5 178t60.5 177t96.5 153t134.5 107.5t168 40.5q146 0 237 -78l48 53h153l-127 -149q43 -85 43 -209q0 -87 -20 -177.5t-61 -176.5t-97 -153t-135.5 -108t-169.5 -41q-148 0 -236 76z
M492 770q-36 0 -68 -33.5t-54 -87.5t-37 -110t-22 -111l252 297q-20 45 -71 45zM393 219q36 0 67.5 32.5t53.5 84.5t37 108t22 111l-251 -295q20 -41 71 -41z" />
    <glyph glyph-name="Scommaaccent" unicode="&#x218;" horiz-adv-x="851" 
d="M399 -246q0 -96 -69.5 -190t-175.5 -146l-74 78q49 25 96.5 64t67.5 78q-6 -3 -19 -3q-43 0 -72.5 29.5t-29.5 81.5q0 57 45 100t102 43q55 0 92 -36t37 -99zM338 -25q-122 0 -227 45.5t-162 118.5l174 230q35 -54 94.5 -86.5t120.5 -32.5q55 0 93 40t38 105
q0 40 -33.5 82t-81 84.5t-95 91t-81 119.5t-33.5 152q0 193 132 329t323 136q98 0 192 -37t154 -103l-162 -231q-34 45 -83.5 70.5t-104.5 25.5q-56 0 -88.5 -38t-32.5 -91q0 -41 33 -84t79.5 -85t93 -90.5t79.5 -119.5t33 -153q0 -96 -33.5 -183t-92 -152t-144.5 -104
t-185 -39z" />
    <glyph glyph-name="scommaaccent" unicode="&#x219;" horiz-adv-x="745" 
d="M344 -246q0 -96 -70 -190t-176 -146l-73 78q49 25 96 63.5t67 78.5q-6 -3 -18 -3q-43 0 -72.5 29.5t-29.5 81.5q0 57 45 100t102 43q55 0 92 -36t37 -99zM295 -25q-115 0 -213.5 45t-138.5 107l147 178q34 -47 88.5 -79.5t116.5 -32.5q48 0 78 26t30 64q0 25 -23 49
t-58 43t-75.5 46.5t-75.5 58t-58 79.5t-23 109q0 144 96 245t267 101q92 0 180 -37.5t147 -104.5l-141 -174q-24 35 -78 67t-110 32q-43 0 -69 -21.5t-26 -58.5q0 -25 33.5 -50.5t81 -52.5t95 -61.5t81 -91.5t33.5 -129q0 -145 -106 -251t-279 -106z" />
    <glyph glyph-name="uni021A" unicode="&#x21a;" horiz-adv-x="788" 
d="M373 -246q0 -96 -70 -190t-176 -146l-74 78q49 25 96.5 64t67.5 78q-6 -3 -18 -3q-43 0 -73 29.5t-30 81.5q0 57 45.5 100t102.5 43q55 0 92 -36t37 -99zM440 0h-311l242 1096h-203l59 270h715l-59 -270h-203z" />
    <glyph glyph-name="uni021B" unicode="&#x21b;" horiz-adv-x="552" 
d="M252 -246q0 -96 -70 -190t-176 -146l-74 78q49 25 96.5 64t67.5 78q-6 -3 -18 -3q-43 0 -73 29.5t-30 81.5q0 57 45.5 100t102.5 43q55 0 92 -36t37 -99zM309 -25q-127 0 -193.5 48.5t-66.5 144.5q0 47 12 94l111 486h-90l53 241h90l60 271h276l-59 -271h121l-56 -241
h-118l-97 -433q-6 -21 -6 -45q0 -51 51 -51q20 0 43 14l-2 -229q-49 -29 -129 -29z" />
    <glyph glyph-name="uni0237" unicode="&#x237;" horiz-adv-x="442" 
d="M-111 -401q-113 0 -161 51l98 207q13 -23 47 -23q61 0 86 111l231 1044h279l-233 -1044q-39 -178 -116 -262t-231 -84z" />
    <glyph glyph-name="hsuperior" unicode="&#x2b0;" horiz-adv-x="657" 
d="M629 668h-197l92 422q6 24 6 30q0 39 -43 39q-42 0 -90 -74l-92 -417h-201l195 888h201l-70 -323q28 40 73.5 67t94.5 27q67 0 107 -32.5t40 -88.5q0 -7 -6 -43z" />
    <glyph glyph-name="uni02BC" unicode="&#x2bc;" horiz-adv-x="536" 
d="M606 1212q0 -119 -88 -238.5t-221 -182.5l-98 102q63 29 121.5 75t82.5 97q-6 -2 -22 -2q-56 0 -94.5 36.5t-38.5 102.5q0 74 59.5 129t132.5 55q69 0 117.5 -46t48.5 -128z" />
    <glyph glyph-name="circumflex" unicode="&#x2c6;" horiz-adv-x="501" 
d="M643 1139h-145l-66 176l-135 -176h-156l191 295h246z" />
    <glyph glyph-name="caron" unicode="&#x2c7;" horiz-adv-x="501" 
d="M518 1139h-246l-65 295h147l64 -177l137 177h154z" />
    <glyph glyph-name="uni02C9" unicode="&#x2c9;" horiz-adv-x="538" 
d="M694 1210h-536l35 156h536z" />
    <glyph glyph-name="uni02CB" unicode="&#x2cb;" horiz-adv-x="395" 
d="M537 1139h-172l-158 295h233z" />
    <glyph glyph-name="breve" unicode="&#x2d8;" horiz-adv-x="518" 
d="M682 1239q-58 -61 -133 -95t-154 -34t-139.5 34t-91.5 95l139 96q15 -33 47 -52t72 -19q85 0 147 71z" />
    <glyph glyph-name="dotaccent" unicode="&#x2d9;" horiz-adv-x="374" 
d="M504 1270q0 -64 -50.5 -113t-115.5 -49q-55 0 -92 37.5t-37 93.5q0 63 50.5 111.5t115.5 48.5q55 0 92 -36.5t37 -92.5z" />
    <glyph glyph-name="ring" unicode="&#x2da;" horiz-adv-x="372" 
d="M336 1090q-73 0 -119.5 47.5t-46.5 119.5q0 85 62.5 149t146.5 64q73 0 120.5 -48t47.5 -122q0 -85 -63 -147.5t-148 -62.5zM352 1206q31 0 55.5 24.5t24.5 57.5q0 30 -17 48t-46 18q-33 0 -57.5 -24.5t-24.5 -57.5q0 -29 18 -47.5t47 -18.5z" />
    <glyph glyph-name="ogonek" unicode="&#x2db;" horiz-adv-x="335" 
d="M70 -217l94 -68q-64 -96 -162 -96q-73 0 -117.5 35t-44.5 104q0 162 205 305l88 -63q-72 -45 -116 -104.5t-44 -122.5q0 -39 39 -39t58 49z" />
    <glyph glyph-name="tilde" unicode="&#x2dc;" horiz-adv-x="555" 
d="M528 1135q-42 0 -69 20.5t-37 45t-26.5 45t-39.5 20.5q-43 0 -69 -119h-144q63 274 226 274q34 0 58 -13.5t36.5 -32.5t22.5 -38.5t23.5 -33t33.5 -13.5q43 0 69 119h144q-27 -127 -85 -200.5t-143 -73.5z" />
    <glyph glyph-name="hungarumlaut" unicode="&#x2dd;" horiz-adv-x="583" 
d="M516 1434l-233 -295h-146l172 295h207zM791 1434l-234 -295h-145l172 295h207z" />
    <glyph glyph-name="hookabovecomb" unicode="&#x309;" horiz-adv-x="335" 
d="M465 1489l-90 24q46 105 141 105q57 0 90 -29t33 -86q0 -37 -16 -75t-37 -62h-109q52 59 58 113q9 49 -27 49q-27 0 -43 -39z" />
    <glyph glyph-name="uni037E" unicode="&#x37e;" horiz-adv-x="530" 
d="M371 150q0 -119 -88.5 -237.5t-221.5 -182.5l-98 100q63 29 122 75t83 97q-4 -2 -23 -2q-55 0 -93 37.5t-38 103.5q0 74 59 128.5t132 54.5q69 0 117.5 -46t48.5 -128zM322 653q-64 0 -111 47.5t-47 112.5q0 78 56 134.5t134 56.5q66 0 112 -47t46 -113q0 -78 -56 -134.5
t-134 -56.5z" />
    <glyph glyph-name="tonos" unicode="&#x384;" horiz-adv-x="903" 
d="M487 1128h-118l141 439h223z" />
    <glyph glyph-name="dieresistonos" unicode="&#x385;" horiz-adv-x="903" 
d="M623 1128h-121l141 439h225zM1071 1270q0 -64 -50 -113t-114 -49q-55 0 -92 37t-37 92q0 64 49.5 113t114.5 49q56 0 92.5 -36.5t36.5 -92.5zM473 1270q0 -64 -49.5 -113t-114.5 -49q-54 0 -91.5 37t-37.5 92q0 64 50.5 113t115.5 49q54 0 90.5 -37t36.5 -92z" />
    <glyph glyph-name="Alphatonos" unicode="&#x386;" horiz-adv-x="929" 
d="M283 1128h-119l141 439h223zM825 0h-311l14 221h-237l-82 -221h-326l594 1366h357zM553 492l35 534l-199 -534h164z" />
    <glyph glyph-name="Epsilontonos" unicode="&#x388;" horiz-adv-x="933" 
d="M258 1128h-119l142 439h223zM760 0h-643l301 1366h643l-62 -270h-331l-58 -267h318l-60 -270h-319l-64 -289h334z" />
    <glyph glyph-name="Etatonos" unicode="&#x389;" horiz-adv-x="1173" 
d="M258 1128h-119l142 439h223zM965 0h-310l125 567h-229l-125 -567h-309l301 1366h309l-117 -528h230l116 528h310z" />
    <glyph glyph-name="Iotatonos" unicode="&#x38a;" horiz-adv-x="632" 
d="M258 1128h-119l142 439h223zM426 0h-309l301 1366h309z" />
    <glyph glyph-name="Omicrontonos" unicode="&#x38c;" horiz-adv-x="1083" 
d="M274 1128h-118l141 439h223zM506 -25q-192 0 -291.5 127t-99.5 330q0 72 10.5 155.5t33.5 176.5t57 181.5t84 169.5t110 141.5t140.5 96.5t170.5 36q97 0 173 -36t123 -99t71 -145.5t24 -180.5q0 -85 -15 -184t-45 -207.5t-80.5 -207.5t-115 -179t-155.5 -127.5
t-195 -47.5zM520 250q60 0 114.5 79.5t88.5 192t54 224.5t20 188q0 180 -95 180q-60 0 -114 -79.5t-87.5 -193t-53 -226t-19.5 -189.5q0 -176 92 -176z" />
    <glyph glyph-name="Upsilontonos" unicode="&#x38e;" horiz-adv-x="1163" 
d="M252 1128h-119l141 439h224zM737 0h-311l123 559l-150 807h316l41 -514l270 514h338l-506 -807z" />
    <glyph glyph-name="Omegatonos" unicode="&#x38f;" horiz-adv-x="1083" 
d="M274 1128h-118l141 439h223zM88 270h186q-122 135 -122 344q0 98 24.5 205t73.5 208t114.5 182t155.5 130.5t189 49.5q87 0 161 -25t132 -74.5t91 -132.5t33 -192q0 -220 -87.5 -402t-229.5 -293h160l-60 -270h-387l62 270q47 38 89.5 129.5t69.5 193.5t42.5 194.5
t15.5 146.5q0 90 -21.5 134t-77.5 44q-55 0 -106 -71.5t-84.5 -176.5t-53.5 -220t-20 -206q0 -119 37 -168l-59 -270h-387z" />
    <glyph glyph-name="iotadieresistonos" unicode="&#x390;" horiz-adv-x="471" 
d="M408 1128h-121l141 439h225zM856 1270q0 -64 -50 -113t-114 -49q-56 0 -92.5 37t-36.5 92q0 64 49.5 113t114.5 49q55 0 92 -36.5t37 -92.5zM258 1270q0 -64 -49.5 -113t-114.5 -49q-54 0 -91.5 37t-37.5 92q0 64 50.5 113t115.5 49q54 0 90.5 -37t36.5 -92zM217 -25
q-133 0 -176.5 66.5t-13.5 206.5l161 741h279l-154 -702q-14 -68 33 -68q15 0 31 4l-31 -229q-55 -19 -129 -19z" />
    <glyph glyph-name="Alpha" unicode="&#x391;" horiz-adv-x="929" 
d="M825 0h-311l14 221h-237l-82 -221h-326l594 1366h357zM553 492l35 534l-199 -534h164z" />
    <glyph glyph-name="Beta" unicode="&#x392;" horiz-adv-x="976" 
d="M508 0h-522l301 1366h389q165 0 255.5 -86.5t90.5 -216.5q0 -138 -81 -252t-208 -131q82 -22 125 -92.5t43 -159.5q0 -61 -14 -120.5t-45.5 -115.5t-76.5 -98.5t-111.5 -68t-145.5 -25.5zM557 829q60 0 98.5 52t38.5 116q0 49 -29.5 74t-82.5 25h-45l-58 -267h78z
M440 270q65 0 107.5 53.5t42.5 131.5q0 104 -105 104h-67l-64 -289h86z" />
    <glyph glyph-name="Gamma" unicode="&#x393;" horiz-adv-x="794" 
d="M295 0h-309l301 1366h643l-62 -270h-331z" />
    <glyph glyph-name="uni0394" unicode="&#x394;" horiz-adv-x="929" 
d="M825 0h-942l594 1366h357zM541 270l45 756l-283 -756h238z" />
    <glyph glyph-name="Epsilon" unicode="&#x395;" horiz-adv-x="802" 
d="M629 0h-643l301 1366h643l-62 -270h-331l-58 -267h318l-60 -270h-319l-64 -289h334z" />
    <glyph glyph-name="Zeta" unicode="&#x396;" horiz-adv-x="806" 
d="M639 0h-692l55 260l498 836h-312l60 270h678l-54 -248l-507 -848h335z" />
    <glyph glyph-name="Eta" unicode="&#x397;" horiz-adv-x="1040" 
d="M834 0h-310l125 567h-229l-125 -567h-309l301 1366h309l-117 -528h230l116 528h310z" />
    <glyph glyph-name="Theta" unicode="&#x398;" horiz-adv-x="1024" 
d="M629 559h-209l59 270h209zM444 -25q-192 0 -291.5 127t-99.5 330q0 72 10.5 155.5t33.5 176.5t57 181.5t84 169.5t110 141.5t140.5 96.5t170.5 36q129 0 219 -63t131.5 -165t41.5 -233q0 -72 -10.5 -155.5t-34 -176t-57.5 -180.5t-84 -168.5t-110.5 -140.5t-140.5 -96
t-170 -36zM459 250q60 0 114.5 79.5t88 192t53.5 224.5t20 188q0 180 -94 180q-60 0 -114 -79.5t-87.5 -193t-53 -226t-19.5 -189.5q0 -176 92 -176z" />
    <glyph glyph-name="Iota" unicode="&#x399;" horiz-adv-x="501" 
d="M295 0h-309l301 1366h309z" />
    <glyph glyph-name="Kappa" unicode="&#x39a;" horiz-adv-x="1017" 
d="M911 0h-327l-97 492l-122 -179l-70 -313h-309l301 1366h309l-121 -553l359 553h354l-467 -639z" />
    <glyph glyph-name="Lambda" unicode="&#x39b;" horiz-adv-x="929" 
d="M825 0h-311l74 1026l-379 -1026h-326l594 1366h357z" />
    <glyph glyph-name="Mu" unicode="&#x39c;" horiz-adv-x="1323" 
d="M1116 0h-305l164 745l-375 -745h-100l-41 745l-164 -745h-309l301 1366h381l34 -639l326 639h389z" />
    <glyph glyph-name="Nu" unicode="&#x39d;" horiz-adv-x="1040" 
d="M834 0h-289l-105 664l-145 -664h-309l301 1366h309l90 -631l139 631h310z" />
    <glyph glyph-name="Xi" unicode="&#x39e;" horiz-adv-x="843" 
d="M909 1096h-716l61 270h715zM670 0h-717l61 270h715zM776 559h-686l60 270h686z" />
    <glyph glyph-name="Omicron" unicode="&#x39f;" horiz-adv-x="1024" 
d="M444 -25q-192 0 -291.5 127t-99.5 330q0 72 10.5 155.5t33.5 176.5t57 181.5t84 169.5t110 141.5t140.5 96.5t170.5 36q129 0 219 -63t131.5 -165t41.5 -233q0 -72 -10.5 -155.5t-34 -176t-57.5 -180.5t-84 -168.5t-110.5 -140.5t-140.5 -96t-170 -36zM459 250
q60 0 114.5 79.5t88 192t53.5 224.5t20 188q0 180 -94 180q-60 0 -114 -79.5t-87.5 -193t-53 -226t-19.5 -189.5q0 -176 92 -176z" />
    <glyph glyph-name="Pi" unicode="&#x3a0;" horiz-adv-x="1040" 
d="M834 0h-310l242 1096h-229l-242 -1096h-309l301 1366h848z" />
    <glyph glyph-name="Rho" unicode="&#x3a1;" horiz-adv-x="960" 
d="M295 0h-309l301 1366h381q159 0 256.5 -103.5t97.5 -261.5q0 -102 -33 -194t-95.5 -166t-164.5 -118t-229 -44h-99zM461 750h65q79 0 126.5 66.5t47.5 152.5q0 60 -28.5 93.5t-75.5 33.5h-59z" />
    <glyph glyph-name="Sigma" unicode="&#x3a3;" horiz-adv-x="772" 
d="M518 1096l137 -408l-319 -418h326l-60 -270h-643l68 317l321 420l-139 391l53 238h641l-59 -270h-326z" />
    <glyph glyph-name="Tau" unicode="&#x3a4;" horiz-adv-x="788" 
d="M440 0h-311l242 1096h-203l59 270h715l-59 -270h-203z" />
    <glyph glyph-name="Upsilon" unicode="&#x3a5;" horiz-adv-x="942" 
d="M516 0h-311l123 559l-150 807h316l41 -514l270 514h338l-506 -807z" />
    <glyph glyph-name="Phi" unicode="&#x3a6;" horiz-adv-x="1415" 
d="M752 0h-310l33 147q-399 71 -399 463q0 83 26 165.5t79.5 159.5t129 138t182 103t230.5 53l31 137h309l-35 -152q209 -37 304 -153.5t95 -306.5q0 -83 -25.5 -165.5t-79 -159.5t-129 -138t-181.5 -103t-230 -53zM399 610q0 -139 140 -186l118 516q-70 -18 -122 -53
t-80.5 -80.5t-42 -94.5t-13.5 -102zM1104 754q0 138 -139 184l-117 -514q69 18 120 52.5t80 80t42.5 94.5t13.5 103z" />
    <glyph glyph-name="Chi" unicode="&#x3a7;" horiz-adv-x="970" 
d="M868 0h-325l-70 416l-235 -416h-357l477 713l-159 653h327l54 -393l215 393h356l-453 -682z" />
    <glyph glyph-name="Psi" unicode="&#x3a8;" horiz-adv-x="1480" 
d="M784 0h-309l62 270q-181 33 -285.5 126t-104.5 253q0 48 17 139l133 578h313l-143 -623q-8 -40 -8 -63q3 -105 139 -141l188 827h310l-189 -825q185 44 221 202l144 623h313l-155 -676q-29 -126 -119 -221t-208.5 -145.5t-258.5 -65.5z" />
    <glyph glyph-name="uni03A9" unicode="&#x3a9;" horiz-adv-x="1011" 
d="M14 270h187q-123 136 -123 344q0 98 24.5 205t73.5 208t114.5 182t155.5 130.5t189 49.5q87 0 161 -25t132.5 -74.5t91.5 -132.5t33 -192q0 -220 -88 -402t-230 -293h160l-59 -270h-387l61 270q47 38 89.5 129.5t69.5 193.5t42.5 194.5t15.5 146.5q0 91 -21 134.5
t-77 43.5q-55 0 -106 -71.5t-84.5 -176.5t-53.5 -220t-20 -206q0 -120 36 -168l-59 -270h-387z" />
    <glyph glyph-name="Iotadieresis" unicode="&#x3aa;" horiz-adv-x="501" 
d="M295 0h-309l301 1366h309zM825 1647q0 -64 -50 -113t-113 -49q-56 0 -93 37t-37 92q0 64 49.5 113t114.5 49q56 0 92.5 -37t36.5 -92zM469 1647q0 -64 -49.5 -113t-114.5 -49q-55 0 -91 36.5t-36 92.5q0 64 49.5 113t112.5 49q56 0 92.5 -37t36.5 -92z" />
    <glyph glyph-name="Upsilondieresis" unicode="&#x3ab;" horiz-adv-x="942" 
d="M516 0h-311l123 559l-150 807h316l41 -514l270 514h338l-506 -807zM1047 1647q0 -64 -50 -113t-114 -49q-55 0 -92 36.5t-37 92.5q0 64 49.5 113t114.5 49q56 0 92.5 -37t36.5 -92zM690 1647q0 -64 -49.5 -113t-114.5 -49q-55 0 -91 36.5t-36 92.5q0 64 49.5 113
t112.5 49q55 0 92 -37t37 -92z" />
    <glyph glyph-name="alphatonos" unicode="&#x3ac;" horiz-adv-x="933" 
d="M641 1128h-119l142 439h223zM840 223l-29 -229q-55 -19 -131 -19q-113 0 -155.5 42.5t-45.5 121.5q-102 -164 -229 -164q-111 0 -170.5 86t-59.5 240q0 82 15.5 175.5t49 189.5t80 173t114.5 126t147 49q160 0 201 -144l30 119h275l-156 -702q-14 -68 33 -68q15 0 31 4z
M395 219q31 0 61 26.5t50 65.5l80 365q-6 43 -31.5 68.5t-60.5 25.5q-46 0 -84.5 -49t-60 -120t-33 -139.5t-11.5 -119.5q0 -60 23.5 -91.5t66.5 -31.5z" />
    <glyph glyph-name="epsilontonos" unicode="&#x3ad;" horiz-adv-x="800" 
d="M596 1128h-119l141 439h224zM301 -25q-146 0 -231.5 66.5t-85.5 179.5q0 107 79 188t195 99q-70 12 -113 68t-43 126q0 142 121 227t301 85q103 0 193 -39.5t139 -108.5l-158 -157q-66 84 -176 84q-70 0 -116 -29.5t-46 -83.5q0 -70 111 -70h162l-47 -221h-176
q-61 0 -106.5 -26.5t-45.5 -86.5q0 -36 27 -56.5t75 -20.5q151 0 252 94l99 -176q-176 -142 -410 -142z" />
    <glyph glyph-name="etatonos" unicode="&#x3ae;" horiz-adv-x="903" 
d="M641 1128h-119l142 439h223zM629 -377h-279l232 1053q6 18 6 35q0 28 -15 43.5t-41 15.5q-67 0 -139 -115l-143 -655h-279l219 989h279l-29 -121q46 61 113.5 103.5t140.5 42.5q91 0 143 -48t52 -126q0 -34 -8 -58z" />
    <glyph glyph-name="iotatonos" unicode="&#x3af;" horiz-adv-x="471" 
d="M420 1128h-119l141 439h224zM217 -25q-133 0 -176.5 66.5t-13.5 206.5l161 741h279l-154 -702q-14 -68 33 -68q15 0 31 4l-31 -229q-55 -19 -129 -19z" />
    <glyph glyph-name="upsilondieresistonos" unicode="&#x3b0;" horiz-adv-x="897" 
d="M637 1128h-121l141 439h226zM1085 1270q0 -64 -50 -113t-113 -49q-56 0 -92.5 37t-36.5 92q0 64 49 113t114 49q56 0 92.5 -36.5t36.5 -92.5zM487 1270q0 -64 -49 -113t-114 -49q-54 0 -91.5 37t-37.5 92q0 64 50 113t115 49q54 0 90.5 -37t36.5 -92zM352 -25
q-74 0 -136.5 23.5t-107.5 70.5t-61 117t2 164l139 639h279l-139 -635q-28 -135 61 -135q54 0 103.5 74t77.5 185.5t28 223.5q0 137 -23 222l283 90q33 -132 33 -281q0 -109 -20 -215.5t-63 -205t-104.5 -173t-152.5 -119.5t-199 -45z" />
    <glyph glyph-name="alpha" unicode="&#x3b1;" horiz-adv-x="933" 
d="M840 223l-29 -229q-55 -19 -131 -19q-113 0 -155.5 42.5t-45.5 121.5q-102 -164 -229 -164q-111 0 -170.5 86t-59.5 240q0 82 15.5 175.5t49 189.5t80 173t114.5 126t147 49q160 0 201 -144l30 119h275l-156 -702q-14 -68 33 -68q15 0 31 4zM395 219q31 0 61 26.5
t50 65.5l80 365q-6 43 -31.5 68.5t-60.5 25.5q-46 0 -84.5 -49t-60 -120t-33 -139.5t-11.5 -119.5q0 -60 23.5 -91.5t66.5 -31.5z" />
    <glyph glyph-name="beta" unicode="&#x3b2;" horiz-adv-x="905" 
d="M481 -25q-71 0 -126 36t-81 104l-106 -492h-279l289 1317q27 121 77.5 210.5t115 139t132.5 73t142 23.5q151 0 233.5 -72.5t82.5 -213.5q0 -60 -16 -120t-47 -115.5t-83.5 -98.5t-120.5 -61q148 -68 148 -261q0 -118 -47 -226t-131.5 -175.5t-182.5 -67.5zM455 938
l-138 -627q8 -42 30 -67t54 -25q68 0 112 76t44 158q0 58 -20.5 87t-53.5 29h-32l53 246h18q65 0 103.5 71t38.5 158q0 97 -62 97q-100 0 -147 -203z" />
    <glyph glyph-name="gamma" unicode="&#x3b3;" horiz-adv-x="835" 
d="M362 -377h-276l47 217q69 343 53 631.5t-104 517.5h301q19 -78 30.5 -141.5t18.5 -139.5t3.5 -157.5t-17.5 -169.5q66 122 124.5 285.5t92.5 322.5h276q-51 -235 -180.5 -497t-281.5 -467z" />
    <glyph glyph-name="delta" unicode="&#x3b4;" 
d="M360 -25q-91 0 -159 30.5t-107.5 83.5t-58.5 118.5t-19 142.5q0 160 75 284.5t216 233.5q-67 81 -67 189q0 141 108.5 237.5t286.5 96.5q200 0 311 -121l-151 -187q-24 36 -72 63.5t-109 27.5q-45 0 -77.5 -26t-32.5 -61q0 -25 25.5 -52t63.5 -53t83 -67.5t83 -90
t63.5 -127.5t25.5 -173q0 -65 -19.5 -138t-61 -146.5t-97.5 -132t-137 -95.5t-173 -37zM586 504q0 69 -28 119t-79 96q-174 -154 -174 -348q0 -66 25 -109t78 -43q52 0 94.5 49t63 113t20.5 123z" />
    <glyph glyph-name="epsilon" unicode="&#x3b5;" horiz-adv-x="800" 
d="M301 -25q-146 0 -231.5 66.5t-85.5 179.5q0 107 79 188t195 99q-70 12 -113 68t-43 126q0 142 121 227t301 85q103 0 193 -39.5t139 -108.5l-158 -157q-66 84 -176 84q-70 0 -116 -29.5t-46 -83.5q0 -70 111 -70h162l-47 -221h-176q-61 0 -106.5 -26.5t-45.5 -86.5
q0 -36 27 -56.5t75 -20.5q151 0 252 94l99 -176q-176 -142 -410 -142z" />
    <glyph glyph-name="zeta" unicode="&#x3b6;" horiz-adv-x="733" 
d="M336 -59q0 34 -43 34q-128 0 -207.5 92.5t-79.5 233.5q0 194 130.5 407.5t408.5 415.5h-352l53 242h626l-43 -197q-220 -170 -372 -394.5t-152 -399.5q0 -73 35 -114.5t102 -41.5q156 0 156 -147q0 -142 -168 -394h-248q154 178 154 263z" />
    <glyph glyph-name="eta" unicode="&#x3b7;" horiz-adv-x="903" 
d="M629 -377h-279l232 1053q6 18 6 35q0 28 -15 43.5t-41 15.5q-67 0 -139 -115l-143 -655h-279l219 989h279l-29 -121q46 61 113.5 103.5t140.5 42.5q91 0 143 -48t52 -126q0 -34 -8 -58z" />
    <glyph glyph-name="theta" unicode="&#x3b8;" 
d="M379 -23q-152 0 -244 120.5t-92 342.5q0 168 42.5 338.5t114 305.5t175.5 220t217 85q154 0 245 -120.5t91 -340.5q0 -169 -42 -339.5t-113 -306t-175 -220.5t-219 -85zM395 219q52 0 101 97.5t88 248.5h-246q-23 -141 -23 -207q0 -67 17 -103t63 -36zM575 1147
q-97 0 -186 -340h244q22 132 22 203q0 66 -17 101.5t-63 35.5z" />
    <glyph glyph-name="iota" unicode="&#x3b9;" horiz-adv-x="471" 
d="M217 -25q-133 0 -176.5 66.5t-13.5 206.5l161 741h279l-154 -702q-14 -68 33 -68q15 0 31 4l-31 -229q-55 -19 -129 -19z" />
    <glyph glyph-name="kappa" unicode="&#x3ba;" horiz-adv-x="868" 
d="M758 0h-299l-47 373l-115 -154l-47 -219h-279l219 989h279l-88 -397l270 397h312l-326 -438z" />
    <glyph glyph-name="lambda" unicode="&#x3bb;" horiz-adv-x="835" 
d="M270 1135l15 239q49 17 125 17q127 0 186.5 -53t71.5 -195l61 -1143h-285l15 639l-273 -639h-301l504 1010l-4 75q-6 62 -68 62q-26 0 -47 -12z" />
    <glyph glyph-name="uni03BC" unicode="&#x3bc;" horiz-adv-x="931" 
d="M250 2l-82 -379h-279l301 1366h279l-152 -680q-8 -42 5.5 -66t46.5 -24q69 0 137 109l145 661h279l-156 -702q-14 -68 33 -68q15 0 31 4l-31 -229q-55 -19 -129 -19q-103 0 -141.5 41.5t-36.5 137.5q-29 -84 -79.5 -131.5t-98.5 -47.5q-42 0 -72 27z" />
    <glyph glyph-name="nu" unicode="&#x3bd;" horiz-adv-x="835" 
d="M432 0h-272l-58 989h293l-14 -678q85 149 152 330.5t102 347.5h276q-53 -241 -188 -511.5t-291 -477.5z" />
    <glyph glyph-name="xi" unicode="&#x3be;" horiz-adv-x="733" 
d="M297 -25q-135 0 -217 79.5t-82 213.5q0 131 75 229t210 148q-75 14 -110.5 68t-35.5 129q0 78 59 157t158 125h-137l53 242h594l-55 -242h-262q-52 -26 -84.5 -78t-32.5 -108q0 -125 121 -125h176l-53 -242h-174q-77 0 -140 -57.5t-63 -157.5q0 -60 35.5 -98.5
t109.5 -38.5q156 0 156 -147q0 -142 -168 -394h-237q143 200 143 263q0 34 -39 34z" />
    <glyph glyph-name="omicron" unicode="&#x3bf;" 
d="M377 -25q-170 0 -260 102.5t-90 280.5q0 87 19.5 178t60.5 177t96.5 153t134.5 107.5t168 40.5q173 0 263.5 -102t90.5 -281q0 -87 -20 -177.5t-61 -176.5t-97 -153t-135.5 -108t-169.5 -41zM393 219q44 0 81.5 49t59.5 118.5t34 137t12 113.5q0 133 -88 133
q-44 0 -81.5 -49t-59.5 -119t-34 -137t-12 -113q0 -133 88 -133z" />
    <glyph glyph-name="pi" unicode="&#x3c0;" horiz-adv-x="970" 
d="M743 0h-278l166 748h-185l-163 -748h-277l164 748h-88l51 241h918l-54 -241h-90z" />
    <glyph glyph-name="rho" unicode="&#x3c1;" horiz-adv-x="905" 
d="M479 -25q-159 0 -205 146l-106 -498h-279l191 873q53 235 179 376.5t304 141.5q154 0 237 -92.5t83 -262.5q0 -74 -15 -162t-48.5 -181t-79.5 -168.5t-114.5 -124t-146.5 -48.5zM410 219q46 0 84 49t59 120t32 139.5t11 119.5q0 60 -19.5 91.5t-52.5 31.5
q-105 0 -166 -274l-41 -183q6 -41 32.5 -67.5t60.5 -26.5z" />
    <glyph glyph-name="sigma1" unicode="&#x3c2;" horiz-adv-x="727" 
d="M295 -25q-48 0 -95 25.5t-86 72.5t-63 122t-24 165q0 93 21 186.5t63.5 177.5t100 149t136.5 103t168 38q85 0 158.5 -28.5t116.5 -74.5l-127 -206q-40 65 -123 65q-65 0 -119.5 -60t-82.5 -146t-28 -171t37 -129.5t92 -44.5q154 0 154 -147q0 -142 -168 -394h-244
q62 70 108 144.5t46 118.5q0 18 -9 26t-32 8z" />
    <glyph glyph-name="sigma" unicode="&#x3c3;" 
d="M834 551q0 -57 -12.5 -119.5t-36.5 -127.5t-63 -124t-88 -105t-115.5 -73t-141.5 -27q-170 0 -260 102.5t-90 280.5q0 113 35 223.5t98.5 202t164.5 148.5t222 57h418l-54 -244h-125q48 -79 48 -194zM578 621q0 83 -21 124h-41q-63 0 -113.5 -66.5t-74 -154.5t-23.5 -172
q0 -133 88 -133q44 0 81 48.5t58.5 117t33.5 132.5t12 104z" />
    <glyph glyph-name="tau" unicode="&#x3c4;" horiz-adv-x="663" 
d="M328 -25q-133 0 -177.5 67t-11.5 206l109 500h-164l53 241h602l-51 -241h-164l-98 -443q-8 -43 -1 -64.5t32 -21.5q36 0 59 23v-219q-71 -48 -188 -48z" />
    <glyph glyph-name="upsilon" unicode="&#x3c5;" horiz-adv-x="897" 
d="M352 -25q-74 0 -136.5 23.5t-107.5 70.5t-61 117t2 164l139 639h279l-139 -635q-28 -135 61 -135q54 0 103.5 74t77.5 185.5t28 223.5q0 137 -23 222l283 90q33 -132 33 -281q0 -109 -20 -215.5t-63 -205t-104.5 -173t-152.5 -119.5t-199 -45z" />
    <glyph glyph-name="phi" unicode="&#x3c6;" horiz-adv-x="1327" 
d="M1298 588q0 -77 -24.5 -156t-75.5 -153.5t-122.5 -135.5t-171.5 -104t-216 -57l-78 -359h-276l80 367q-195 32 -290 145t-95 277q0 120 44 228.5t145.5 208t252.5 165.5l78 -215q-107 -55 -169.5 -149.5t-62.5 -209.5q0 -163 150 -207l172 781h135q132 0 234 -33
t164.5 -91.5t94 -135t31.5 -166.5zM860 756l-115 -518q71 20 125 59t82.5 85.5t42 90.5t13.5 84q0 84 -38.5 134.5t-109.5 64.5z" />
    <glyph glyph-name="chi" unicode="&#x3c7;" horiz-adv-x="808" 
d="M618 -377h-284l-23 410l-207 -410h-299l383 686l-73 680h280l21 -403l194 403h295l-373 -680z" />
    <glyph glyph-name="psi" unicode="&#x3c8;" horiz-adv-x="1329" 
d="M610 -377h-276l80 369q-163 31 -257 119t-94 237q0 60 17 144l108 497h277l-115 -526q-10 -42 -10 -86q0 -111 127 -144l250 1133h276l-248 -1133q174 46 216 230l114 526h277l-123 -563q-22 -100 -75 -181t-126 -134.5t-159 -86t-181 -42.5z" />
    <glyph glyph-name="omega" unicode="&#x3c9;" horiz-adv-x="1363" 
d="M1341 649q0 -88 -19 -181t-58 -181t-92.5 -157.5t-130 -112t-162.5 -42.5q-112 0 -184 64.5t-72 181.5q-50 -120 -133.5 -183t-186.5 -63q-130 0 -207.5 102.5t-77.5 256.5q0 207 97.5 395.5t244.5 284.5l179 -148q-101 -68 -168.5 -219t-67.5 -289q0 -62 17.5 -100.5
t52.5 -38.5q107 0 168 277l55 249h278l-55 -249q-61 -277 47 -277q47 0 91 74t68 166.5t24 161.5q0 74 -15.5 143t-46.5 102l242 148q54 -49 83 -149.5t29 -215.5z" />
    <glyph glyph-name="iotadieresis" unicode="&#x3ca;" horiz-adv-x="471" 
d="M721 1270q0 -64 -50 -113t-114 -49q-55 0 -92 37t-37 92q0 64 49.5 113t114.5 49q56 0 92.5 -36.5t36.5 -92.5zM365 1270q0 -64 -49.5 -113t-114.5 -49q-55 0 -91 36.5t-36 92.5q0 64 49.5 113t112.5 49q56 0 92.5 -36.5t36.5 -92.5zM217 -25q-133 0 -176.5 66.5
t-13.5 206.5l161 741h279l-154 -702q-14 -68 33 -68q15 0 31 4l-31 -229q-55 -19 -129 -19z" />
    <glyph glyph-name="upsilondieresis" unicode="&#x3cb;" horiz-adv-x="897" 
d="M952 1270q0 -64 -50 -113t-114 -49q-56 0 -92.5 37t-36.5 92q0 64 49.5 113t114.5 49q55 0 92 -36.5t37 -92.5zM596 1270q0 -64 -49.5 -113t-114.5 -49q-55 0 -91 36.5t-36 92.5q0 64 49.5 113t112.5 49q55 0 92 -36.5t37 -92.5zM352 -25q-74 0 -136.5 23.5t-107.5 70.5
t-61 117t2 164l139 639h279l-139 -635q-28 -135 61 -135q54 0 103.5 74t77.5 185.5t28 223.5q0 137 -23 222l283 90q33 -132 33 -281q0 -109 -20 -215.5t-63 -205t-104.5 -173t-152.5 -119.5t-199 -45z" />
    <glyph glyph-name="omicrontonos" unicode="&#x3cc;" 
d="M637 1128h-119l141 439h224zM377 -25q-170 0 -260 102.5t-90 280.5q0 87 19.5 178t60.5 177t96.5 153t134.5 107.5t168 40.5q173 0 263.5 -102t90.5 -281q0 -87 -20 -177.5t-61 -176.5t-97 -153t-135.5 -108t-169.5 -41zM393 219q44 0 81.5 49t59.5 118.5t34 137
t12 113.5q0 133 -88 133q-44 0 -81.5 -49t-59.5 -119t-34 -137t-12 -113q0 -133 88 -133z" />
    <glyph glyph-name="upsilontonos" unicode="&#x3cd;" horiz-adv-x="897" 
d="M647 1128h-119l142 439h223zM352 -25q-74 0 -136.5 23.5t-107.5 70.5t-61 117t2 164l139 639h279l-139 -635q-28 -135 61 -135q54 0 103.5 74t77.5 185.5t28 223.5q0 137 -23 222l283 90q33 -132 33 -281q0 -109 -20 -215.5t-63 -205t-104.5 -173t-152.5 -119.5t-199 -45
z" />
    <glyph glyph-name="omegatonos" unicode="&#x3ce;" horiz-adv-x="1363" 
d="M874 1128h-118l141 439h223zM1341 649q0 -88 -19 -181t-58 -181t-92.5 -157.5t-130 -112t-162.5 -42.5q-112 0 -184 64.5t-72 181.5q-50 -120 -133.5 -183t-186.5 -63q-130 0 -207.5 102.5t-77.5 256.5q0 207 97.5 395.5t244.5 284.5l179 -148q-101 -68 -168.5 -219
t-67.5 -289q0 -62 17.5 -100.5t52.5 -38.5q107 0 168 277l55 249h278l-55 -249q-61 -277 47 -277q47 0 91 74t68 166.5t24 161.5q0 74 -15.5 143t-46.5 102l242 148q54 -49 83 -149.5t29 -215.5z" />
    <glyph glyph-name="afii10023" unicode="&#x401;" horiz-adv-x="802" 
d="M983 1612q0 -64 -50 -113t-114 -49q-55 0 -92 37t-37 92q0 64 49.5 113t114.5 49q56 0 92.5 -36.5t36.5 -92.5zM627 1612q0 -64 -49.5 -113t-114.5 -49q-55 0 -91 36.5t-36 92.5q0 64 49.5 113t112.5 49q56 0 92.5 -36.5t36.5 -92.5zM629 0h-643l301 1366h643l-62 -270
h-331l-58 -267h318l-60 -270h-319l-64 -289h334z" />
    <glyph glyph-name="afii10051" unicode="&#x402;" horiz-adv-x="1060" 
d="M449 -25l59 275q123 0 160 162l6 30q19 79 -12 126.5t-99 47.5q-54 0 -90 -10l-131 -606h-311l239 1096h-202l59 270h715l-60 -270h-200l-50 -226q70 17 148 17q77 0 138 -23.5t98.5 -64.5t60 -97t23 -121t-12.5 -137l-10 -32q-25 -115 -77.5 -201t-123.5 -136.5
t-152.5 -75t-174.5 -24.5z" />
    <glyph glyph-name="afii10052" unicode="&#x403;" horiz-adv-x="794" 
d="M1010 1776l-289 -295h-176l229 295h236zM295 0h-309l301 1366h643l-62 -270h-331z" />
    <glyph glyph-name="afii10053" unicode="&#x404;" horiz-adv-x="917" 
d="M444 -25q-189 0 -290 121.5t-101 335.5q0 72 10 155t33 176t56 181.5t83 169.5t110 142t141.5 97t172.5 36q78 0 140.5 -24.5t101.5 -62.5t65.5 -89.5t38.5 -100t15 -98.5l-283 -80q-8 180 -96 180q-62 0 -115 -79.5t-92 -205.5h363l-60 -270h-360q-10 -64 -10 -133
q0 -176 92 -176q83 0 162 164l247 -101q-74 -166 -176.5 -252t-247.5 -86z" />
    <glyph glyph-name="afii10054" unicode="&#x405;" horiz-adv-x="851" 
d="M338 -25q-122 0 -227 45.5t-162 118.5l174 230q35 -54 94.5 -86.5t120.5 -32.5q55 0 93 40t38 105q0 40 -33.5 82t-81 84.5t-95 91t-81 119.5t-33.5 152q0 193 132 329t323 136q98 0 192 -37t154 -103l-162 -231q-34 45 -83.5 70.5t-104.5 25.5q-56 0 -88.5 -38
t-32.5 -91q0 -41 33 -84t79.5 -85t93 -90.5t79.5 -119.5t33 -153q0 -96 -33.5 -183t-92 -152t-144.5 -104t-185 -39z" />
    <glyph glyph-name="afii10055" unicode="&#x406;" horiz-adv-x="501" 
d="M295 0h-309l301 1366h309z" />
    <glyph glyph-name="afii10056" unicode="&#x407;" horiz-adv-x="501" 
d="M815 1612q0 -64 -50 -113t-114 -49q-55 0 -92 37t-37 92q0 64 49.5 113t114.5 49q56 0 92.5 -36.5t36.5 -92.5zM459 1612q0 -64 -49.5 -113t-114.5 -49q-55 0 -91 36.5t-36 92.5q0 64 49.5 113t112.5 49q56 0 92.5 -36.5t36.5 -92.5zM295 0h-309l301 1366h309z" />
    <glyph glyph-name="afii10057" unicode="&#x408;" horiz-adv-x="741" 
d="M188 -25q-78 0 -149 21t-117 61l119 248q21 -26 54.5 -40.5t66.5 -14.5q119 0 149 133l217 983h312l-222 -999q-46 -205 -147.5 -298.5t-282.5 -93.5z" />
    <glyph glyph-name="afii10058" unicode="&#x409;" horiz-adv-x="1499" 
d="M-86 -25l59 275q26 0 44 6t41 27.5t44 61.5t46.5 108.5t54.5 167.5l215 745h715l-105 -479h70q160 0 258 -103.5t98 -261.5q0 -102 -32.5 -194t-95 -166t-163.5 -118t-227 -44h-412l240 1096h-121l-131 -475q-38 -136 -81 -241t-90.5 -174.5t-95.5 -116t-104.5 -71
t-109 -34t-117.5 -9.5zM1032 616h-63l-78 -346h63q81 0 130 68t49 154q0 58 -28.5 91t-72.5 33z" />
    <glyph glyph-name="afii10059" unicode="&#x40a;" horiz-adv-x="1499" 
d="M928 0h-414l125 567h-227l-125 -567h-310l299 1366h310l-115 -528h227l117 528h309l-114 -528h71q159 0 258 -95.5t99 -248.5q0 -77 -20 -149t-62 -135t-101.5 -109.5t-143.5 -73.5t-183 -27zM1012 567h-62l-67 -297h63q76 0 123 57.5t47 131.5q0 108 -104 108z" />
    <glyph glyph-name="afii10060" unicode="&#x40b;" horiz-adv-x="1060" 
d="M569 0l97 442q19 80 -8.5 127t-94.5 47q-54 0 -90 -10l-131 -606h-311l239 1096h-202l59 270h715l-60 -270h-200l-50 -226q70 17 148 17q77 0 137 -23.5t96 -64.5t57.5 -97t20.5 -121t-14 -137l-98 -444h-310z" />
    <glyph glyph-name="afii10061" unicode="&#x40c;" horiz-adv-x="1017" 
d="M1106 1776l-289 -295h-176l229 295h236zM911 0h-327l-97 492l-122 -179l-70 -313h-309l301 1366h309l-121 -553l359 553h354l-467 -639z" />
    <glyph glyph-name="afii10062" unicode="&#x40e;" horiz-adv-x="942" 
d="M86 -25q-132 0 -203 58l127 254q32 -35 92 -35q72 0 129 100l64 113l-119 901h320l39 -537l268 539l338 -2l-596 -1047q-108 -187 -207 -265.5t-252 -78.5zM954 1581q-58 -61 -132.5 -95t-153.5 -34t-140 34.5t-92 94.5l139 96q15 -33 47 -52t72 -19q86 0 148 71z" />
    <glyph glyph-name="afii10145" unicode="&#x40f;" horiz-adv-x="1040" 
d="M195 -262l57 262h-266l299 1366h309l-240 -1096h228l241 1096h310l-299 -1366h-271l-57 -262h-311z" />
    <glyph glyph-name="afii10017" unicode="&#x410;" horiz-adv-x="929" 
d="M825 0h-311l14 221h-237l-82 -221h-326l594 1366h357zM553 492l35 534l-199 -534h164z" />
    <glyph glyph-name="afii10018" unicode="&#x411;" horiz-adv-x="960" 
d="M285 1366h751l-59 -270h-442l-46 -209h72q159 0 256.5 -103.5t97.5 -261.5q0 -102 -32.5 -194t-95 -166t-163.5 -118t-227 -44h-411zM489 616h-59l-76 -346h64q80 0 128 68t48 154q0 59 -29 91.5t-76 32.5z" />
    <glyph glyph-name="afii10019" unicode="&#x412;" horiz-adv-x="976" 
d="M508 0h-522l301 1366h389q165 0 255.5 -86.5t90.5 -216.5q0 -138 -81 -252t-208 -131q82 -22 125 -92.5t43 -159.5q0 -61 -14 -120.5t-45.5 -115.5t-76.5 -98.5t-111.5 -68t-145.5 -25.5zM557 829q60 0 98.5 52t38.5 116q0 49 -29.5 74t-82.5 25h-45l-58 -267h78z
M440 270q65 0 107.5 53.5t42.5 131.5q0 104 -105 104h-67l-64 -289h86z" />
    <glyph glyph-name="afii10020" unicode="&#x413;" horiz-adv-x="794" 
d="M295 0h-309l301 1366h643l-62 -270h-331z" />
    <glyph glyph-name="afii10021" unicode="&#x414;" horiz-adv-x="1064" 
d="M-139 -252l108 502q25 7 38 12t35 19t37.5 38.5t37 65.5t43.5 104.5t47 149.5l209 727h717l-242 -1096h96l-115 -522h-311l55 252h-391l-55 -252h-309zM643 1096l-115 -408q-78 -283 -204 -418h258l180 826h-119z" />
    <glyph glyph-name="afii10022" unicode="&#x415;" horiz-adv-x="802" 
d="M629 0h-643l301 1366h643l-62 -270h-331l-58 -267h318l-60 -270h-319l-64 -289h334z" />
    <glyph glyph-name="afii10024" unicode="&#x416;" horiz-adv-x="1421" 
d="M246 0h-359l510 727l-186 639h328l100 -483l106 483h310l-94 -432l278 432h350l-467 -639l191 -727h-338l-82 500l-41 -60l-96 -440h-312l97 436l-11 39z" />
    <glyph glyph-name="afii10025" unicode="&#x417;" horiz-adv-x="952" 
d="M420 -25q-100 0 -192.5 31.5t-163.5 95.5t-99 150l244 158q27 -76 83 -118t124 -42q78 0 122 57t44 117q0 131 -158 131h-145l59 272h174q88 0 134 51t46 117q0 58 -38 87.5t-107 29.5q-51 0 -103.5 -26t-89.5 -72l-159 186q175 186 405 186q183 0 297.5 -83t114.5 -234
q0 -144 -100 -250.5t-226 -126.5q102 -30 150.5 -104t48.5 -162q0 -188 -134.5 -319.5t-330.5 -131.5z" />
    <glyph glyph-name="afii10026" unicode="&#x418;" horiz-adv-x="1040" 
d="M274 0h-288l301 1366h309l-141 -631l370 631h310l-301 -1366h-310l144 664z" />
    <glyph glyph-name="afii10027" unicode="&#x419;" horiz-adv-x="1040" 
d="M274 0h-288l301 1366h309l-141 -631l370 631h310l-301 -1366h-310l144 664zM1014 1581q-58 -61 -133 -95t-154 -34t-139.5 34t-91.5 95l139 96q15 -33 47 -52t72 -19q85 0 147 71z" />
    <glyph glyph-name="afii10028" unicode="&#x41a;" horiz-adv-x="1017" 
d="M911 0h-327l-97 492l-122 -179l-70 -313h-309l301 1366h309l-121 -553l359 553h354l-467 -639z" />
    <glyph glyph-name="afii10029" unicode="&#x41b;" horiz-adv-x="1040" 
d="M-86 -25l59 275q32 0 55 11.5t51 48t58 114t66 201.5l213 741h717l-299 -1366h-312l240 1096h-119l-133 -475q-38 -136 -80.5 -241t-90 -174.5t-95.5 -116t-104.5 -71t-109 -34t-116.5 -9.5z" />
    <glyph glyph-name="afii10030" unicode="&#x41c;" horiz-adv-x="1323" 
d="M1116 0h-305l164 745l-375 -745h-100l-41 745l-164 -745h-309l301 1366h381l34 -639l326 639h389z" />
    <glyph glyph-name="afii10031" unicode="&#x41d;" horiz-adv-x="1040" 
d="M834 0h-310l125 567h-229l-125 -567h-309l301 1366h309l-117 -528h230l116 528h310z" />
    <glyph glyph-name="afii10032" unicode="&#x41e;" horiz-adv-x="1024" 
d="M444 -25q-192 0 -291.5 127t-99.5 330q0 72 10.5 155.5t33.5 176.5t57 181.5t84 169.5t110 141.5t140.5 96.5t170.5 36q129 0 219 -63t131.5 -165t41.5 -233q0 -72 -10.5 -155.5t-34 -176t-57.5 -180.5t-84 -168.5t-110.5 -140.5t-140.5 -96t-170 -36zM459 250
q60 0 114.5 79.5t88 192t53.5 224.5t20 188q0 180 -94 180q-60 0 -114 -79.5t-87.5 -193t-53 -226t-19.5 -189.5q0 -176 92 -176z" />
    <glyph glyph-name="afii10033" unicode="&#x41f;" horiz-adv-x="1040" 
d="M834 0h-310l242 1096h-229l-242 -1096h-309l301 1366h848z" />
    <glyph glyph-name="afii10034" unicode="&#x420;" horiz-adv-x="960" 
d="M295 0h-309l301 1366h381q159 0 256.5 -103.5t97.5 -261.5q0 -102 -33 -194t-95.5 -166t-164.5 -118t-229 -44h-99zM461 750h65q79 0 126.5 66.5t47.5 152.5q0 60 -28.5 93.5t-75.5 33.5h-59z" />
    <glyph glyph-name="afii10035" unicode="&#x421;" horiz-adv-x="917" 
d="M444 -25q-189 0 -290 121.5t-101 335.5q0 72 10 155t33 176t56 181.5t83 169.5t110 142t141.5 97t172.5 36q79 0 141.5 -25.5t103 -66.5t67.5 -98t39 -115.5t14 -122.5l-287 -56q-7 209 -96 209q-60 0 -114.5 -80.5t-87.5 -194t-52.5 -226t-19.5 -187.5q0 -176 92 -176
q83 0 162 164l247 -101q-74 -166 -176.5 -252t-247.5 -86z" />
    <glyph glyph-name="afii10036" unicode="&#x422;" horiz-adv-x="788" 
d="M440 0h-311l242 1096h-203l59 270h715l-59 -270h-203z" />
    <glyph glyph-name="afii10037" unicode="&#x423;" horiz-adv-x="942" 
d="M86 -25q-132 0 -203 58l127 254q32 -35 92 -35q72 0 129 100l64 113l-119 901h320l39 -537l268 539l338 -2l-596 -1047q-108 -187 -207 -265.5t-252 -78.5z" />
    <glyph glyph-name="afii10038" unicode="&#x424;" horiz-adv-x="1415" 
d="M752 0h-310l33 147q-399 71 -399 463q0 83 26 165.5t79.5 159.5t129 138t182 103t230.5 53l31 137h309l-35 -152q209 -37 304 -153.5t95 -306.5q0 -83 -25.5 -165.5t-79 -159.5t-129 -138t-181.5 -103t-230 -53zM399 610q0 -139 140 -186l118 516q-70 -18 -122 -53
t-80.5 -80.5t-42 -94.5t-13.5 -102zM1104 754q0 138 -139 184l-117 -514q69 18 120 52.5t80 80t42.5 94.5t13.5 103z" />
    <glyph glyph-name="afii10039" unicode="&#x425;" horiz-adv-x="970" 
d="M868 0h-325l-70 416l-235 -416h-357l477 713l-159 653h327l54 -393l215 393h356l-453 -682z" />
    <glyph glyph-name="afii10040" unicode="&#x426;" horiz-adv-x="1064" 
d="M563 -252l55 252h-632l299 1366h309l-240 -1096h228l241 1096h310l-242 -1096h98l-117 -522h-309z" />
    <glyph glyph-name="afii10041" unicode="&#x427;" horiz-adv-x="1015" 
d="M571 1366l-98 -442q-17 -81 9 -127.5t93 -46.5q43 0 91 10l133 606h311l-301 -1366h-311l110 496q-73 -17 -149 -17q-77 0 -137 23.5t-96 64.5t-57 97t-20 121t15 137l96 444h311z" />
    <glyph glyph-name="afii10042" unicode="&#x428;" horiz-adv-x="1503" 
d="M1286 1366h311l-301 -1366h-1310l299 1366h311l-242 -1096h191l241 1096h310l-240 -1096h191z" />
    <glyph glyph-name="afii10043" unicode="&#x429;" horiz-adv-x="1525" 
d="M1286 1366h311l-241 -1096h90l-115 -522h-309l55 252h-1091l299 1366h311l-242 -1096h191l241 1096h310l-240 -1096h191z" />
    <glyph glyph-name="afii10044" unicode="&#x42a;" horiz-adv-x="1103" 
d="M541 0h-412l240 1096h-203l59 270h514l-106 -479h72q159 0 256.5 -103.5t97.5 -261.5q0 -102 -32.5 -194t-95 -166t-163.5 -118t-227 -44zM637 616h-64l-75 -346h63q81 0 128.5 67.5t47.5 154.5q0 58 -28 91t-72 33z" />
    <glyph glyph-name="afii10045" unicode="&#x42b;" horiz-adv-x="1409" 
d="M1204 0h-311l301 1366h309zM285 1366h309l-105 -479h72q159 0 256.5 -103.5t97.5 -261.5q0 -102 -32.5 -194t-95 -166t-163.5 -118t-227 -44h-411zM494 616h-64l-76 -346h64q80 0 128 68t48 154q0 58 -28 91t-72 33z" />
    <glyph glyph-name="afii10046" unicode="&#x42c;" horiz-adv-x="960" 
d="M285 1366h309l-105 -479h72q159 0 256.5 -103.5t97.5 -261.5q0 -102 -32.5 -194t-95 -166t-163.5 -118t-227 -44h-411zM494 616h-64l-76 -346h64q80 0 128 68t48 154q0 58 -28 91t-72 33z" />
    <glyph glyph-name="afii10047" unicode="&#x42d;" horiz-adv-x="917" 
d="M551 1389q191 0 292 -121.5t101 -335.5q0 -72 -10 -155t-33 -176t-56.5 -181.5t-83.5 -169.5t-110 -142t-141 -97t-172 -36q-79 0 -141.5 24.5t-101.5 62.5t-65.5 90t-38 99.5t-14.5 98.5l283 80q8 -180 96 -180q65 0 119.5 87t91.5 222h-362l59 270h357q8 82 8 109
q0 176 -92 176q-84 0 -160 -164l-248 101q147 338 422 338z" />
    <glyph glyph-name="afii10048" unicode="&#x42e;" horiz-adv-x="1511" 
d="M932 -25q-99 0 -175 35t-123 97.5t-71 144.5t-24 180q0 70 8 135h-125l-125 -567h-311l299 1366h311l-115 -528h121q34 111 82 205t114 174t155 126t192 46q98 0 174 -35.5t123.5 -99t71.5 -146t24 -180.5q0 -85 -15 -184t-45 -207.5t-80.5 -207.5t-115 -179
t-155.5 -127.5t-195 -47.5zM946 250q60 0 114 79.5t88 192t53.5 224.5t19.5 188q0 180 -95 180q-60 0 -113.5 -79.5t-86.5 -193t-52.5 -226t-19.5 -189.5q0 -176 92 -176z" />
    <glyph glyph-name="afii10049" unicode="&#x42f;" horiz-adv-x="993" 
d="M295 0h-348l315 573q-44 40 -75 108.5t-31 162.5q0 102 33 194t95 166t163.5 118t228.5 44h411l-301 -1366h-311l107 479h-50zM582 750h59l76 346h-64q-81 0 -128.5 -67.5t-47.5 -154.5q0 -59 29 -91.5t76 -32.5z" />
    <glyph glyph-name="afii10065" unicode="&#x430;" horiz-adv-x="905" 
d="M426 1014q159 0 203 -144l28 119h275l-219 -989h-277l25 113q-89 -138 -211 -138q-113 0 -171.5 82t-58.5 244q0 82 15.5 175.5t49 189.5t80 173t114.5 126t147 49zM494 770q-46 0 -84.5 -49t-60 -120t-33 -139.5t-11.5 -119.5q0 -60 23.5 -91.5t66.5 -31.5q31 0 61 26.5
t50 65.5l80 365q-6 43 -31.5 68.5t-60.5 25.5z" />
    <glyph glyph-name="afii10066" unicode="&#x431;" horiz-adv-x="886" 
d="M393 219q44 0 81.5 49t59.5 118.5t34 137t12 113.5q0 133 -88 133q-44 0 -81.5 -49t-59.5 -119t-34 -137t-12 -113q0 -133 88 -133zM377 -25q-170 0 -260 102.5t-90 280.5q0 191 96 459q135 381 500 475q98 25 108 74h273q-15 -68 -54 -119t-94.5 -81t-100.5 -45
t-102 -27q-133 -28 -199.5 -69.5t-99.5 -121.5q92 111 234 111q118 0 195 -105.5t77 -277.5q0 -87 -20 -177.5t-61 -176.5t-97 -153t-135.5 -108t-169.5 -41z" />
    <glyph glyph-name="afii10067" unicode="&#x432;" horiz-adv-x="892" 
d="M457 0h-486l217 989h433q117 0 188.5 -57.5t71.5 -151.5q2 -97 -57.5 -176t-172.5 -100q142 -48 142 -185q1 -59 -18 -113.5t-57.5 -101.5t-106 -75.5t-154.5 -28.5zM297 219h117q44 0 71 34t27 73q0 67 -74 67h-102zM383 612h109q43 0 66.5 29.5t23.5 65.5
q0 33 -17.5 48t-56.5 15h-90z" />
    <glyph glyph-name="afii10068" unicode="&#x433;" horiz-adv-x="665" 
d="M745 989l-53 -241h-278l-164 -748h-279l217 989h557z" />
    <glyph glyph-name="afii10069" unicode="&#x434;" horiz-adv-x="933" 
d="M-133 -252l98 465q26 6 42.5 14.5t40.5 33.5t47.5 79t47.5 137l148 512h637l-164 -747h90l-109 -494h-276l55 252h-327l-56 -252h-274zM500 748l-86 -295q-37 -131 -123 -211h194l111 506h-96z" />
    <glyph glyph-name="afii10070" unicode="&#x435;" horiz-adv-x="860" 
d="M391 -25q-172 0 -268 103t-96 287q0 81 19 169t59.5 173.5t96 154t135.5 110.5t171 42q167 0 247.5 -94.5t80.5 -257.5q0 -106 -39 -259h-512q-4 -20 -4 -59q0 -24 7.5 -47t24 -46.5t51 -37.5t82.5 -14q84 0 168 73l91 -172q-61 -59 -145 -92t-169 -33zM324 594h256
q8 36 8 76q0 55 -29 88t-74 33q-47 0 -83 -33.5t-53 -75t-25 -88.5z" />
    <glyph glyph-name="afii10072" unicode="&#x436;" horiz-adv-x="1179" 
d="M205 0h-316l363 551l-131 438h295l73 -309l68 309h279l-58 -260l178 260h316l-326 -438l121 -551h-291l-49 379l-37 -47l-72 -332h-278l72 324l-11 30z" />
    <glyph glyph-name="afii10073" unicode="&#x437;" horiz-adv-x="800" 
d="M492 1014q147 0 232 -66.5t85 -179.5q0 -108 -72.5 -183.5t-187.5 -92.5q70 -12 117 -73.5t47 -131.5q0 -142 -121 -227t-301 -85q-103 0 -197 40t-143 108l158 158q65 -82 186 -82q70 0 116 28.5t46 81.5q0 35 -29 57.5t-84 22.5h-170l49 221h164q62 0 105 25.5t43 77.5
q0 37 -27 58.5t-74 21.5q-135 0 -239 -97l-99 176q176 142 396 142z" />
    <glyph glyph-name="afii10074" unicode="&#x438;" horiz-adv-x="903" 
d="M238 0h-267l217 989h279l-98 -444l272 444h285l-217 -989h-277l103 473z" />
    <glyph glyph-name="afii10075" unicode="&#x439;" horiz-adv-x="903" 
d="M238 0h-267l217 989h279l-98 -444l272 444h285l-217 -989h-277l103 473zM872 1239q-58 -61 -132.5 -95t-153.5 -34t-140 34.5t-92 94.5l140 96q15 -33 46.5 -52t71.5 -19q86 0 148 71z" />
    <glyph glyph-name="afii10076" unicode="&#x43a;" horiz-adv-x="868" 
d="M758 0h-299l-47 373l-115 -154l-47 -219h-279l219 989h279l-88 -397l270 397h312l-326 -438z" />
    <glyph glyph-name="afii10077" unicode="&#x43b;" horiz-adv-x="903" 
d="M-86 -25l51 238q24 0 42 8t40.5 33.5t46.5 81t49 141.5l148 512h637l-217 -989h-279l164 748h-96l-86 -295q-41 -142 -88 -235t-109 -147t-133 -75t-170 -21z" />
    <glyph glyph-name="afii10078" unicode="&#x43c;" horiz-adv-x="1138" 
d="M946 0h-272l108 502l-272 -502h-102l-50 502l-108 -502h-279l217 989h336l45 -465l258 465h336z" />
    <glyph glyph-name="afii10079" unicode="&#x43d;" horiz-adv-x="903" 
d="M250 0h-279l219 989h279l-80 -352h182l78 352h279l-219 -989h-277l86 395h-180z" />
    <glyph glyph-name="afii10080" unicode="&#x43e;" 
d="M377 -25q-170 0 -260 102.5t-90 280.5q0 87 19.5 178t60.5 177t96.5 153t134.5 107.5t168 40.5q173 0 263.5 -102t90.5 -281q0 -87 -20 -177.5t-61 -176.5t-97 -153t-135.5 -108t-169.5 -41zM393 219q44 0 81.5 49t59.5 118.5t34 137t12 113.5q0 133 -88 133
q-44 0 -81.5 -49t-59.5 -119t-34 -137t-12 -113q0 -133 88 -133z" />
    <glyph glyph-name="afii10081" unicode="&#x43f;" horiz-adv-x="903" 
d="M709 0h-277l164 748h-184l-164 -748h-277l217 989h738z" />
    <glyph glyph-name="afii10082" unicode="&#x440;" horiz-adv-x="905" 
d="M479 -25q-159 0 -205 146l-108 -498h-277l301 1366h279l-27 -112q92 137 211 137q113 0 171.5 -82t58.5 -244q0 -104 -25.5 -223.5t-73 -231t-128 -185t-177.5 -73.5zM410 219q46 0 84 49t59 120t32 139.5t11 119.5q0 123 -90 123q-28 0 -57.5 -26.5t-49.5 -65.5
l-82 -365q7 -42 33 -68t60 -26z" />
    <glyph glyph-name="afii10083" unicode="&#x441;" horiz-adv-x="733" 
d="M389 -25q-168 0 -265 100t-97 285q0 93 21 186.5t63.5 177.5t100 149t136.5 103t168 38q85 0 158.5 -28.5t116.5 -74.5l-127 -206q-40 65 -123 65q-65 0 -119.5 -60t-82.5 -146t-28 -171q0 -86 39.5 -130t106.5 -44q65 0 116 51l39 -219q-92 -76 -223 -76z" />
    <glyph glyph-name="afii10084" unicode="&#x442;" horiz-adv-x="645" 
d="M352 0h-278l164 748h-156l51 241h592l-53 -241h-156z" />
    <glyph glyph-name="afii10085" unicode="&#x443;" horiz-adv-x="835" 
d="M-104 -373l90 228q13 -13 47 -13q45 0 80 62l45 86l-54 999h285l-14 -639l274 639h299l-571 -1143q-74 -143 -144 -195t-174 -52q-97 0 -163 28z" />
    <glyph glyph-name="afii10086" unicode="&#x444;" horiz-adv-x="1331" 
d="M418 1014q64 0 115.5 -36t72.5 -108l109 496h278l-108 -492q90 140 209 140q106 0 160.5 -86.5t54.5 -229.5q0 -77 -15.5 -170.5t-49 -191.5t-79.5 -178t-113.5 -131.5t-144.5 -51.5q-64 0 -115.5 36t-72.5 108l-109 -496h-278l108 492q-90 -140 -207 -140
q-108 0 -161.5 86t-53.5 230q0 77 15.5 170.5t49 191.5t79.5 178t113 131.5t143 51.5zM492 770q-41 0 -78.5 -46t-60.5 -114t-36.5 -140.5t-13.5 -129.5q0 -121 78 -121q54 0 104 92l78 361q-14 98 -71 98zM834 219q42 0 79 46t60 114t36 140t13 130q0 121 -76 121
q-55 0 -104 -92l-78 -361q5 -44 23.5 -71t46.5 -27z" />
    <glyph glyph-name="afii10087" unicode="&#x445;" horiz-adv-x="808" 
d="M700 0h-288l-45 295l-179 -295h-301l342 498l-112 491h282l41 -289l168 289h299l-334 -491z" />
    <glyph glyph-name="afii10088" unicode="&#x446;" horiz-adv-x="933" 
d="M469 -252l55 252h-551l215 989h279l-164 -747h182l164 747h279l-164 -747h90l-106 -494h-279z" />
    <glyph glyph-name="afii10089" unicode="&#x447;" horiz-adv-x="894" 
d="M180 989h279l-78 -350q-9 -43 4.5 -64.5t56.5 -21.5q57 0 109 27l90 409h279l-218 -989h-278l80 369q-36 -25 -95.5 -42.5t-121.5 -17.5q-138 0 -184 60t-21 170z" />
    <glyph glyph-name="afii10090" unicode="&#x448;" horiz-adv-x="1318" 
d="M1065 989h278l-217 -989h-1153l215 989h279l-164 -747h160l164 747h278l-164 -747h160z" />
    <glyph glyph-name="afii10091" unicode="&#x449;" horiz-adv-x="1349" 
d="M1065 989h278l-165 -747h92l-109 -494h-276l55 252h-967l215 989h279l-164 -747h160l164 747h278l-164 -747h160z" />
    <glyph glyph-name="afii10092" unicode="&#x44a;" horiz-adv-x="976" 
d="M506 0h-432l164 748h-156l51 241h436l-73 -332h79q149 0 239.5 -75t90.5 -199q0 -70 -26 -137t-74 -122.5t-126 -89.5t-173 -34zM530 438h-81l-50 -219h103q52 0 82 41.5t30 95.5q0 38 -23 60t-61 22z" />
    <glyph glyph-name="afii10093" unicode="&#x44b;" horiz-adv-x="1288" 
d="M1096 0h-279l217 989h279zM188 989h279l-74 -332h80q149 0 239.5 -75t90.5 -199q0 -70 -26 -137t-74.5 -122.5t-126.5 -89.5t-173 -34h-432zM428 438h-82l-49 -219h102q52 0 82.5 41.5t30.5 95.5q0 38 -22 60t-62 22z" />
    <glyph glyph-name="afii10094" unicode="&#x44c;" horiz-adv-x="874" 
d="M188 989h279l-74 -332h80q149 0 239.5 -75t90.5 -199q0 -70 -26 -137t-74.5 -122.5t-126.5 -89.5t-173 -34h-432zM428 438h-82l-49 -219h102q52 0 82.5 41.5t30.5 95.5q0 38 -22 60t-62 22z" />
    <glyph glyph-name="afii10095" unicode="&#x44d;" horiz-adv-x="733" 
d="M342 1014q168 0 265.5 -100t97.5 -285q0 -93 -21.5 -186.5t-64 -177.5t-100.5 -149t-137.5 -103t-168.5 -38q-84 0 -156.5 28.5t-115.5 74.5l116 184q41 -61 123 -61q71 0 124.5 53t84.5 143h-266l43 203h254q-1 86 -43.5 138.5t-106.5 52.5q-60 0 -116 -46l-37 205
q92 64 225 64z" />
    <glyph glyph-name="afii10096" unicode="&#x44e;" horiz-adv-x="1306" 
d="M795 -25q-170 0 -260.5 102.5t-90.5 280.5v37h-108l-86 -395h-277l215 989h279l-78 -352h105q57 165 168 271t262 106q172 0 263 -102.5t91 -280.5q0 -109 -33 -223t-92 -211.5t-153 -159.5t-205 -62zM811 219q44 0 81.5 49t59 118.5t33.5 137t12 113.5q0 133 -88 133
q-44 0 -81.5 -49t-59 -119t-33.5 -137t-12 -113q0 -71 22 -102t66 -31z" />
    <glyph glyph-name="afii10097" unicode="&#x44f;" horiz-adv-x="903" 
d="M242 0h-310l250 401q-96 76 -96 205q0 70 26 137t74.5 122.5t126.5 89.5t172 34h443l-217 -989h-279l74 334h-86zM463 553h90l47 217h-108q-54 0 -84.5 -41.5t-30.5 -95.5q0 -38 23 -59t63 -21z" />
    <glyph glyph-name="afii10071" unicode="&#x451;" horiz-adv-x="860" 
d="M940 1270q0 -64 -50 -113t-114 -49q-56 0 -92.5 37t-36.5 92q0 64 49.5 113t114.5 49q55 0 92 -36.5t37 -92.5zM584 1270q0 -64 -49.5 -113t-114.5 -49q-55 0 -91 36.5t-36 92.5q0 64 49.5 113t112.5 49q55 0 92 -36.5t37 -92.5zM391 -25q-172 0 -268 103t-96 287
q0 81 19 169t59.5 173.5t96 154t135.5 110.5t171 42q167 0 247.5 -94.5t80.5 -257.5q0 -106 -39 -259h-512q-4 -20 -4 -59q0 -24 7.5 -47t24 -46.5t51 -37.5t82.5 -14q84 0 168 73l91 -172q-61 -59 -145 -92t-169 -33zM324 594h256q8 36 8 76q0 55 -29 88t-74 33
q-47 0 -83 -33.5t-53 -75t-25 -88.5z" />
    <glyph glyph-name="afii10099" unicode="&#x452;" horiz-adv-x="923" 
d="M748 1079h-240l-47 -213q43 57 123 102.5t147 45.5q115 0 155.5 -60.5t16.5 -167.5l-184 -841q-76 -346 -381 -346q-87 0 -131 41l100 217q15 -23 45 -23q66 0 88 111l164 735q18 90 -49 90q-37 0 -74.5 -33.5t-66.5 -79.5l-144 -657h-276l235 1079h-71l32 158h74l29 129
h278l-28 -129h239z" />
    <glyph glyph-name="afii10100" unicode="&#x453;" horiz-adv-x="665" 
d="M881 1434l-289 -295h-176l229 295h236zM745 989l-53 -241h-278l-164 -748h-279l217 989h557z" />
    <glyph glyph-name="afii10101" unicode="&#x454;" horiz-adv-x="733" 
d="M389 -25q-168 0 -265 100t-97 285q0 93 21 186.5t63.5 177.5t100 149t136.5 103t168 38q85 0 158.5 -28.5t116.5 -74.5l-117 -184q-46 64 -123 64q-71 0 -123.5 -51.5t-83.5 -139.5h266l-45 -203h-254v-4q0 -88 41.5 -140t108.5 -52q64 0 117 43l36 -205
q-92 -64 -225 -64z" />
    <glyph glyph-name="afii10102" unicode="&#x455;" horiz-adv-x="745" 
d="M295 -25q-115 0 -213.5 45t-138.5 107l147 178q34 -47 88.5 -79.5t116.5 -32.5q48 0 78 26t30 64q0 25 -23 49t-58 43t-75.5 46.5t-75.5 58t-58 79.5t-23 109q0 144 96 245t267 101q92 0 180 -37.5t147 -104.5l-141 -174q-24 35 -78 67t-110 32q-43 0 -69 -21.5
t-26 -58.5q0 -25 33.5 -50.5t81 -52.5t95 -61.5t81 -91.5t33.5 -129q0 -145 -106 -251t-279 -106z" />
    <glyph glyph-name="afii10103" unicode="&#x456;" horiz-adv-x="442" 
d="M367 1090q-64 0 -106 40.5t-42 98.5q0 85 59 136.5t128 51.5q63 0 105 -41t42 -100q0 -84 -58.5 -135t-127.5 -51zM250 0h-279l219 989h279z" />
    <glyph glyph-name="afii10104" unicode="&#x457;" horiz-adv-x="442" 
d="M711 1270q0 -64 -50 -113t-114 -49q-55 0 -92 37t-37 92q0 64 49.5 113t114.5 49q56 0 92.5 -36.5t36.5 -92.5zM354 1270q0 -64 -49.5 -113t-114.5 -49q-55 0 -91 36.5t-36 92.5q0 64 49.5 113t112.5 49q55 0 92 -36.5t37 -92.5zM250 0h-279l219 989h279z" />
    <glyph glyph-name="afii10105" unicode="&#x458;" horiz-adv-x="442" 
d="M-111 -401q-113 0 -161 51l98 207q13 -23 47 -23q61 0 86 111l231 1044h279l-233 -1044q-39 -178 -116 -262t-231 -84zM367 1090q-64 0 -106 40.5t-42 98.5q0 85 59 136.5t128 51.5q63 0 105 -41t42 -100q0 -84 -58.5 -135t-127.5 -51z" />
    <glyph glyph-name="afii10106" unicode="&#x459;" horiz-adv-x="1337" 
d="M-86 -25l51 238q24 0 42 8t40.5 33.5t46.5 81t49 141.5l148 512h637l-76 -340h106q124 0 200.5 -44.5t99.5 -116t2 -164.5q-31 -140 -146 -232t-297 -92h-385l164 748h-96l-86 -295q-41 -142 -88 -235t-109 -147t-133 -75t-170 -21zM885 430h-82l-45 -211h80
q57 0 93.5 29t47.5 76q9 47 -15 76.5t-79 29.5z" />
    <glyph glyph-name="afii10107" unicode="&#x45a;" horiz-adv-x="1306" 
d="M250 0h-279l217 989h279l-78 -352h182l78 352h279l-78 -352h102q169 0 249 -82t61 -213q-20 -142 -134 -242t-297 -100h-399l86 395h-182zM895 401h-98l-39 -182h106q47 0 76.5 32t32.5 75q5 35 -16 55t-62 20z" />
    <glyph glyph-name="afii10108" unicode="&#x45b;" horiz-adv-x="915" 
d="M723 0h-279l150 676q6 12 6 35q0 28 -14.5 43.5t-40.5 15.5q-67 0 -139 -115l-144 -655h-278l237 1081h-74l35 158h74l29 127h278l-28 -127h239l-35 -158h-239l-47 -213q46 61 113.5 103.5t140.5 42.5q91 0 142.5 -48.5t51.5 -125.5q0 -18 -8 -58z" />
    <glyph glyph-name="afii10109" unicode="&#x45c;" horiz-adv-x="868" 
d="M958 1434l-288 -295h-176l229 295h235zM758 0h-299l-47 373l-115 -154l-47 -219h-279l219 989h279l-88 -397l270 397h312l-326 -438z" />
    <glyph glyph-name="afii10110" unicode="&#x45e;" horiz-adv-x="835" 
d="M-104 -373l90 228q13 -13 47 -13q45 0 80 62l45 86l-54 999h285l-14 -639l274 639h299l-571 -1143q-74 -143 -144 -195t-174 -52q-97 0 -163 28zM831 1239q-58 -61 -132.5 -95t-153.5 -34t-140 34.5t-92 94.5l140 96q15 -33 46.5 -52t71.5 -19q86 0 148 71z" />
    <glyph glyph-name="afii10193" unicode="&#x45f;" horiz-adv-x="903" 
d="M145 -254l56 254h-228l215 989h279l-164 -747h182l164 747h279l-217 -989h-232l-55 -254h-279z" />
    <glyph glyph-name="afii10050" unicode="&#x490;" horiz-adv-x="794" 
d="M295 0h-309l299 1366h331l58 256h311l-117 -526h-333z" />
    <glyph glyph-name="afii10098" unicode="&#x491;" horiz-adv-x="665" 
d="M414 748l-164 -748h-279l217 989h279l55 254h279l-109 -495h-278z" />
    <glyph glyph-name="uni1E02" unicode="&#x1e02;" horiz-adv-x="976" 
d="M508 0h-522l301 1366h389q165 0 255.5 -86.5t90.5 -216.5q0 -138 -81 -252t-208 -131q82 -22 125 -92.5t43 -159.5q0 -61 -14 -120.5t-45.5 -115.5t-76.5 -98.5t-111.5 -68t-145.5 -25.5zM557 829q60 0 98.5 52t38.5 116q0 49 -29.5 74t-82.5 25h-45l-58 -267h78z
M440 270q65 0 107.5 53.5t42.5 131.5q0 104 -105 104h-67l-64 -289h86zM889 1612q0 -64 -50.5 -113t-115.5 -49q-55 0 -92 37.5t-37 93.5q0 63 50.5 111.5t115.5 48.5q55 0 92 -36.5t37 -92.5z" />
    <glyph glyph-name="uni1E03" unicode="&#x1e03;" horiz-adv-x="905" 
d="M479 -25q-159 0 -205 146l-24 -121h-277l299 1366h279l-109 -489q92 137 211 137q113 0 171.5 -82t58.5 -244q0 -104 -25.5 -223.5t-73 -231t-128 -185t-177.5 -73.5zM410 219q46 0 84 49t59 120t32 139.5t11 119.5q0 123 -90 123q-28 0 -57.5 -26.5t-49.5 -65.5
l-82 -365q7 -42 33 -68t60 -26zM858 1612q0 -64 -50.5 -113t-115.5 -49q-55 0 -92 37.5t-37 93.5q0 63 50.5 111.5t115.5 48.5q55 0 92 -36.5t37 -92.5z" />
    <glyph glyph-name="uni1E0A" unicode="&#x1e0a;" horiz-adv-x="1024" 
d="M369 0h-383l301 1366h370q74 0 141.5 -30t121 -86.5t85 -146t31.5 -200.5q0 -68 -9.5 -144t-32 -164.5t-57 -171.5t-88 -161t-120.5 -135.5t-160 -92t-200 -34.5zM412 270h10q61 0 113 50t85.5 124t57 162.5t33.5 163.5t10 129q0 98 -34 147.5t-85 49.5h-65l-183 -826h58
zM920 1612q0 -64 -50.5 -113t-115.5 -49q-55 0 -92 37.5t-37 93.5q0 63 50.5 111.5t115.5 48.5q55 0 92 -36.5t37 -92.5z" />
    <glyph glyph-name="uni1E0B" unicode="&#x1e0b;" horiz-adv-x="905" 
d="M426 1014q159 0 203 -144l110 496h275l-301 -1366h-277l25 113q-89 -138 -211 -138q-113 0 -171.5 82t-58.5 244q0 82 15.5 175.5t49 189.5t80 173t114.5 126t147 49zM494 770q-46 0 -84.5 -49t-60 -120t-33 -139.5t-11.5 -119.5q0 -60 23.5 -91.5t66.5 -31.5
q31 0 61 26.5t50 65.5l80 365q-6 43 -31.5 68.5t-60.5 25.5zM838 1612q0 -64 -50.5 -113t-115.5 -49q-55 0 -92 37.5t-37 93.5q0 63 50.5 111.5t115.5 48.5q55 0 92 -36.5t37 -92.5z" />
    <glyph glyph-name="uni1E1E" unicode="&#x1e1e;" horiz-adv-x="794" 
d="M807 1612q0 -64 -50.5 -113t-115.5 -49q-55 0 -92 37.5t-37 93.5q0 63 50.5 111.5t115.5 48.5q55 0 92 -36.5t37 -92.5zM295 0h-309l301 1366h643l-62 -270h-331l-58 -267h318l-60 -270h-319z" />
    <glyph glyph-name="uni1E1F" unicode="&#x1e1f;" horiz-adv-x="536" 
d="M754 1612q0 -64 -50.5 -113t-115.5 -49q-55 0 -92 37.5t-37 93.5q0 63 50.5 111.5t115.5 48.5q55 0 92 -36.5t37 -92.5zM283 0h-277l166 748h-90l55 241h88l15 70q12 57 28 103t42.5 89t61 71.5t84 46t109.5 17.5q66 0 125.5 -17.5t87.5 -43.5l-106 -205q-28 31 -62 31
q-77 0 -94 -92l-14 -70h121l-56 -241h-118z" />
    <glyph glyph-name="uni1E22" unicode="&#x1e22;" horiz-adv-x="1040" 
d="M834 0h-310l125 567h-229l-125 -567h-309l301 1366h309l-117 -528h230l116 528h310zM913 1612q0 -64 -50 -113t-115 -49q-55 0 -92.5 37.5t-37.5 93.5q0 63 50.5 111.5t115.5 48.5q55 0 92 -36.5t37 -92.5z" />
    <glyph glyph-name="uni1E23" unicode="&#x1e23;" horiz-adv-x="903" 
d="M711 0h-279l150 676q6 12 6 35q0 28 -15 43.5t-41 15.5q-67 0 -139 -115l-143 -655h-279l301 1366h279l-111 -498q46 61 113.5 103.5t140.5 42.5q91 0 143 -48.5t52 -125.5q0 -18 -8 -58zM846 1612q0 -64 -50.5 -113t-115.5 -49q-55 0 -92 37.5t-37 93.5q0 63 50.5 111.5
t115.5 48.5q55 0 92 -36.5t37 -92.5z" />
    <glyph glyph-name="uni1E56" unicode="&#x1e56;" horiz-adv-x="960" 
d="M295 0h-309l301 1366h381q159 0 256.5 -103.5t97.5 -261.5q0 -102 -33 -194t-95.5 -166t-164.5 -118t-229 -44h-99zM461 750h65q79 0 126.5 66.5t47.5 152.5q0 60 -28.5 93.5t-75.5 33.5h-59zM891 1612q0 -64 -50.5 -113t-115.5 -49q-55 0 -92 37.5t-37 93.5
q0 63 50.5 111.5t115.5 48.5q55 0 92 -36.5t37 -92.5z" />
    <glyph glyph-name="uni1E57" unicode="&#x1e57;" horiz-adv-x="905" 
d="M479 -25q-159 0 -205 146l-108 -498h-277l301 1366h279l-27 -112q92 137 211 137q113 0 171.5 -82t58.5 -244q0 -104 -25.5 -223.5t-73 -231t-128 -185t-177.5 -73.5zM410 219q46 0 84 49t59 120t32 139.5t11 119.5q0 123 -90 123q-28 0 -57.5 -26.5t-49.5 -65.5
l-82 -365q7 -42 33 -68t60 -26zM786 1270q0 -64 -50 -113t-115 -49q-55 0 -92 37.5t-37 93.5q0 63 50 111.5t115 48.5q55 0 92 -36.5t37 -92.5z" />
    <glyph glyph-name="uni1E60" unicode="&#x1e60;" horiz-adv-x="851" 
d="M338 -25q-122 0 -227 45.5t-162 118.5l174 230q35 -54 94.5 -86.5t120.5 -32.5q55 0 93 40t38 105q0 40 -33.5 82t-81 84.5t-95 91t-81 119.5t-33.5 152q0 193 132 329t323 136q98 0 192 -37t154 -103l-162 -231q-34 45 -83.5 70.5t-104.5 25.5q-56 0 -88.5 -38
t-32.5 -91q0 -41 33 -84t79.5 -85t93 -90.5t79.5 -119.5t33 -153q0 -96 -33.5 -183t-92 -152t-144.5 -104t-185 -39zM821 1612q0 -64 -50.5 -113t-115.5 -49q-55 0 -92 37.5t-37 93.5q0 63 50.5 111.5t115.5 48.5q55 0 92 -36.5t37 -92.5z" />
    <glyph glyph-name="uni1E61" unicode="&#x1e61;" horiz-adv-x="745" 
d="M295 -25q-115 0 -213.5 45t-138.5 107l147 178q34 -47 88.5 -79.5t116.5 -32.5q48 0 78 26t30 64q0 25 -23 49t-58 43t-75.5 46.5t-75.5 58t-58 79.5t-23 109q0 144 96 245t267 101q92 0 180 -37.5t147 -104.5l-141 -174q-24 35 -78 67t-110 32q-43 0 -69 -21.5
t-26 -58.5q0 -25 33.5 -50.5t81 -52.5t95 -61.5t81 -91.5t33.5 -129q0 -145 -106 -251t-279 -106zM692 1270q0 -64 -50.5 -113t-115.5 -49q-55 0 -92 37.5t-37 93.5q0 63 50.5 111.5t115.5 48.5q55 0 92 -36.5t37 -92.5z" />
    <glyph glyph-name="uni1E6A" unicode="&#x1e6a;" horiz-adv-x="788" 
d="M440 0h-311l242 1096h-203l59 270h715l-59 -270h-203zM784 1612q0 -64 -50.5 -113t-115.5 -49q-55 0 -92 37.5t-37 93.5q0 63 50.5 111.5t115.5 48.5q55 0 92 -36.5t37 -92.5z" />
    <glyph glyph-name="uni1E6B" unicode="&#x1e6b;" horiz-adv-x="552" 
d="M309 -25q-127 0 -193.5 48.5t-66.5 144.5q0 47 12 94l111 486h-90l53 241h90l60 271h276l-59 -271h121l-56 -241h-118l-97 -433q-6 -21 -6 -45q0 -51 51 -51q20 0 43 14l-2 -229q-49 -29 -129 -29zM645 1612q0 -64 -50.5 -113t-115.5 -49q-55 0 -92 37.5t-37 93.5
q0 63 50.5 111.5t115.5 48.5q55 0 92 -36.5t37 -92.5z" />
    <glyph glyph-name="Wgrave" unicode="&#x1e80;" horiz-adv-x="1331" 
d="M963 0h-310l78 795l-274 -795h-310l60 1366h309l-86 -827l301 827h240l-62 -827l279 827h319zM971 1481h-172l-158 295h233z" />
    <glyph glyph-name="wgrave" unicode="&#x1e81;" horiz-adv-x="1312" 
d="M967 0h-291l4 612l-264 -612h-291l-14 989h278l-24 -616l253 616h261l-9 -616l254 616h295zM877 1139h-172l-158 295h233z" />
    <glyph glyph-name="Wacute" unicode="&#x1e82;" horiz-adv-x="1331" 
d="M1237 1776l-289 -295h-176l229 295h236zM963 0h-310l78 795l-274 -795h-310l60 1366h309l-86 -827l301 827h240l-62 -827l279 827h319z" />
    <glyph glyph-name="wacute" unicode="&#x1e83;" horiz-adv-x="1312" 
d="M1143 1434l-289 -295h-176l229 295h236zM967 0h-291l4 612l-264 -612h-291l-14 989h278l-24 -616l253 616h261l-9 -616l254 616h295z" />
    <glyph glyph-name="Wdieresis" unicode="&#x1e84;" horiz-adv-x="1331" 
d="M1225 1612q0 -64 -50 -113t-114 -49q-55 0 -92 37t-37 92q0 64 49.5 113t114.5 49q56 0 92.5 -36.5t36.5 -92.5zM868 1612q0 -64 -49 -113t-114 -49q-55 0 -91 36.5t-36 92.5q0 64 49 113t112 49q55 0 92 -36.5t37 -92.5zM963 0h-310l78 795l-274 -795h-310l60 1366h309
l-86 -827l301 827h240l-62 -827l279 827h319z" />
    <glyph glyph-name="wdieresis" unicode="&#x1e85;" horiz-adv-x="1312" 
d="M1130 1270q0 -64 -50 -113t-113 -49q-55 0 -92 37t-37 92q0 64 49 113t114 49q55 0 92 -36.5t37 -92.5zM774 1270q0 -64 -49.5 -113t-114.5 -49q-55 0 -91 36.5t-36 92.5q0 64 49.5 113t112.5 49q55 0 92 -36.5t37 -92.5zM967 0h-291l4 612l-264 -612h-291l-14 989h278
l-24 -616l253 616h261l-9 -616l254 616h295z" />
    <glyph glyph-name="uni1EA0" unicode="&#x1ea0;" horiz-adv-x="929" 
d="M825 0h-311l14 221h-237l-82 -221h-326l594 1366h357zM553 492l35 534l-199 -534h164zM446 -244q0 -64 -50 -113t-115 -49q-55 0 -92 38t-37 94q0 63 50 111t115 48q55 0 92 -36.5t37 -92.5z" />
    <glyph glyph-name="uni1EA1" unicode="&#x1ea1;" horiz-adv-x="905" 
d="M426 1014q159 0 203 -144l28 119h275l-219 -989h-277l25 113q-89 -138 -211 -138q-113 0 -171.5 82t-58.5 244q0 82 15.5 175.5t49 189.5t80 173t114.5 126t147 49zM494 770q-46 0 -84.5 -49t-60 -120t-33 -139.5t-11.5 -119.5q0 -60 23.5 -91.5t66.5 -31.5q31 0 61 26.5
t50 65.5l80 365q-6 43 -31.5 68.5t-60.5 25.5zM426 -244q0 -64 -50.5 -113t-115.5 -49q-55 0 -92 38t-37 94q0 63 50.5 111t115.5 48q55 0 92 -36.5t37 -92.5z" />
    <glyph glyph-name="uni1EA2" unicode="&#x1ea2;" horiz-adv-x="929" 
d="M825 0h-311l14 221h-237l-82 -221h-326l594 1366h357zM553 492l35 534l-199 -534h164zM655 1550l-90 25q46 104 142 104q57 0 89.5 -28.5t32.5 -85.5q0 -37 -16 -75.5t-37 -62.5h-108q51 58 57 113q9 49 -27 49q-27 0 -43 -39z" />
    <glyph glyph-name="uni1EA3" unicode="&#x1ea3;" horiz-adv-x="905" 
d="M426 1014q159 0 203 -144l28 119h275l-219 -989h-277l25 113q-89 -138 -211 -138q-113 0 -171.5 82t-58.5 244q0 82 15.5 175.5t49 189.5t80 173t114.5 126t147 49zM494 770q-46 0 -84.5 -49t-60 -120t-33 -139.5t-11.5 -119.5q0 -60 23.5 -91.5t66.5 -31.5q31 0 61 26.5
t50 65.5l80 365q-6 43 -31.5 68.5t-60.5 25.5zM563 1202l-90 25q46 104 141 104q57 0 90 -28.5t33 -85.5q0 -37 -16 -75.5t-37 -62.5h-109q52 59 58 113q9 49 -27 49q-27 0 -43 -39z" />
    <glyph glyph-name="uni1EA4" unicode="&#x1ea4;" horiz-adv-x="929" 
d="M901 1397h-145l-66 131l-135 -131h-156l191 221h246zM825 0h-311l14 221h-237l-82 -221h-326l594 1366h357zM553 492l35 534l-199 -534h164zM1343 1726l-288 -221h-176l229 221h235z" />
    <glyph glyph-name="uni1EA5" unicode="&#x1ea5;" horiz-adv-x="905" 
d="M426 1014q159 0 203 -144l28 119h275l-219 -989h-277l25 113q-89 -138 -211 -138q-113 0 -171.5 82t-58.5 244q0 82 15.5 175.5t49 189.5t80 173t114.5 126t147 49zM494 770q-46 0 -84.5 -49t-60 -120t-33 -139.5t-11.5 -119.5q0 -60 23.5 -91.5t66.5 -31.5q31 0 61 26.5
t50 65.5l80 365q-6 43 -31.5 68.5t-60.5 25.5zM838 1139h-146l-65 176l-135 -176h-156l190 295h246zM1282 1577l-289 -295h-176l230 295h235z" />
    <glyph glyph-name="uni1EA6" unicode="&#x1ea6;" horiz-adv-x="929" 
d="M901 1397h-145l-66 131l-135 -131h-156l191 221h246zM825 0h-311l14 221h-237l-82 -221h-326l594 1366h357zM553 492l35 534l-199 -534h164zM479 1505h-172l-157 221h233z" />
    <glyph glyph-name="uni1EA7" unicode="&#x1ea7;" horiz-adv-x="905" 
d="M426 1014q159 0 203 -144l28 119h275l-219 -989h-277l25 113q-89 -138 -211 -138q-113 0 -171.5 82t-58.5 244q0 82 15.5 175.5t49 189.5t80 173t114.5 126t147 49zM494 770q-46 0 -84.5 -49t-60 -120t-33 -139.5t-11.5 -119.5q0 -60 23.5 -91.5t66.5 -31.5q31 0 61 26.5
t50 65.5l80 365q-6 43 -31.5 68.5t-60.5 25.5zM838 1139h-146l-65 176l-135 -176h-156l190 295h246zM416 1282h-172l-158 295h233z" />
    <glyph glyph-name="uni1EA8" unicode="&#x1ea8;" horiz-adv-x="929" 
d="M901 1397h-145l-66 131l-135 -131h-156l191 221h246zM825 0h-311l14 221h-237l-82 -221h-326l594 1366h357zM553 492l35 534l-199 -534h164zM872 1640l-90 19q45 78 142 78q57 0 90 -21.5t33 -64.5q0 -53 -54 -103h-108q52 45 57 84q9 37 -27 37q-27 0 -43 -29z" />
    <glyph glyph-name="uni1EA9" unicode="&#x1ea9;" horiz-adv-x="905" 
d="M426 1014q159 0 203 -144l28 119h275l-219 -989h-277l25 113q-89 -138 -211 -138q-113 0 -171.5 82t-58.5 244q0 82 15.5 175.5t49 189.5t80 173t114.5 126t147 49zM494 770q-46 0 -84.5 -49t-60 -120t-33 -139.5t-11.5 -119.5q0 -60 23.5 -91.5t66.5 -31.5q31 0 61 26.5
t50 65.5l80 365q-6 43 -31.5 68.5t-60.5 25.5zM838 1139h-146l-65 176l-135 -176h-156l190 295h246zM805 1489l-90 24q46 105 141 105q57 0 90 -29t33 -86q0 -37 -16 -75t-37 -62h-109q51 58 57 113q9 49 -26 49q-27 0 -43 -39z" />
    <glyph glyph-name="uni1EAA" unicode="&#x1eaa;" horiz-adv-x="929" 
d="M893 1391h-145l-66 88l-135 -88h-156l191 147h245zM825 0h-311l14 221h-237l-82 -221h-326l594 1366h357zM553 492l35 534l-199 -534h164zM793 1552q-42 0 -69 10.5t-37 22.5t-26.5 22.5t-39.5 10.5q-44 0 -70 -59h-143q63 137 225 137q42 0 69 -10.5t37.5 -22.5
t27.5 -22.5t40 -10.5q44 0 70 60h143q-27 -64 -84.5 -101t-142.5 -37z" />
    <glyph glyph-name="uni1EAB" unicode="&#x1eab;" horiz-adv-x="905" 
d="M426 1014q159 0 203 -144l28 119h275l-219 -989h-277l25 113q-89 -138 -211 -138q-113 0 -171.5 82t-58.5 244q0 82 15.5 175.5t49 189.5t80 173t114.5 126t147 49zM494 770q-46 0 -84.5 -49t-60 -120t-33 -139.5t-11.5 -119.5q0 -60 23.5 -91.5t66.5 -31.5q31 0 61 26.5
t50 65.5l80 365q-6 43 -31.5 68.5t-60.5 25.5zM823 1071h-145l-66 176l-135 -176h-155l190 295h246zM756 1397q-42 0 -69 20.5t-37 45t-26.5 45t-39.5 20.5q-44 0 -70 -119h-143q63 274 225 274q34 0 58 -13.5t36.5 -32.5t22.5 -38.5t23.5 -33t33.5 -13.5q44 0 70 119h143
q-27 -127 -84.5 -200.5t-142.5 -73.5z" />
    <glyph glyph-name="uni1EAC" unicode="&#x1eac;" horiz-adv-x="929" 
d="M825 0h-311l14 221h-237l-82 -221h-326l594 1366h357zM553 492l35 534l-199 -534h164zM930 1481h-146l-65 176l-135 -176h-156l190 295h246zM446 -244q0 -64 -50 -113t-115 -49q-55 0 -92 38t-37 94q0 63 50 111t115 48q55 0 92 -36.5t37 -92.5z" />
    <glyph glyph-name="uni1EAD" unicode="&#x1ead;" horiz-adv-x="905" 
d="M426 1014q159 0 203 -144l28 119h275l-219 -989h-277l25 113q-89 -138 -211 -138q-113 0 -171.5 82t-58.5 244q0 82 15.5 175.5t49 189.5t80 173t114.5 126t147 49zM494 770q-46 0 -84.5 -49t-60 -120t-33 -139.5t-11.5 -119.5q0 -60 23.5 -91.5t66.5 -31.5q31 0 61 26.5
t50 65.5l80 365q-6 43 -31.5 68.5t-60.5 25.5zM838 1139h-146l-65 176l-135 -176h-156l190 295h246zM426 -244q0 -64 -50.5 -113t-115.5 -49q-55 0 -92 38t-37 94q0 63 50.5 111t115.5 48q55 0 92 -36.5t37 -92.5z" />
    <glyph glyph-name="uni1EAE" unicode="&#x1eae;" horiz-adv-x="929" 
d="M825 0h-311l14 221h-237l-82 -221h-326l594 1366h357zM553 492l35 534l-199 -534h164zM1036 1702l-288 -168h-177l230 168h235zM938 1473q-125 -84 -287 -84q-78 0 -139 22.5t-92 61.5l139 61q31 -45 119 -45q86 0 147 45z" />
    <glyph glyph-name="uni1EAF" unicode="&#x1eaf;" horiz-adv-x="905" 
d="M426 1014q159 0 203 -144l28 119h275l-219 -989h-277l25 113q-89 -138 -211 -138q-113 0 -171.5 82t-58.5 244q0 82 15.5 175.5t49 189.5t80 173t114.5 126t147 49zM494 770q-46 0 -84.5 -49t-60 -120t-33 -139.5t-11.5 -119.5q0 -60 23.5 -91.5t66.5 -31.5q31 0 61 26.5
t50 65.5l80 365q-6 43 -31.5 68.5t-60.5 25.5zM973 1595l-289 -295h-176l229 295h236zM854 1182q-58 -61 -133 -95t-154 -34t-139.5 34t-91.5 95l139 96q15 -34 47 -53t72 -19q85 0 147 72z" />
    <glyph glyph-name="uni1EB0" unicode="&#x1eb0;" horiz-adv-x="929" 
d="M825 0h-311l14 221h-237l-82 -221h-326l594 1366h357zM553 492l35 534l-199 -534h164zM793 1534h-172l-158 168h233zM934 1473q-125 -84 -287 -84q-78 0 -139 22.5t-92 61.5l139 61q31 -45 119 -45q86 0 147 45z" />
    <glyph glyph-name="uni1EB1" unicode="&#x1eb1;" horiz-adv-x="905" 
d="M426 1014q159 0 203 -144l28 119h275l-219 -989h-277l25 113q-89 -138 -211 -138q-113 0 -171.5 82t-58.5 244q0 82 15.5 175.5t49 189.5t80 173t114.5 126t147 49zM494 770q-46 0 -84.5 -49t-60 -120t-33 -139.5t-11.5 -119.5q0 -60 23.5 -91.5t66.5 -31.5q31 0 61 26.5
t50 65.5l80 365q-6 43 -31.5 68.5t-60.5 25.5zM723 1305h-172l-158 294h234zM854 1182q-58 -61 -133 -95t-154 -34t-139.5 34t-91.5 95l139 96q15 -34 47 -53t72 -19q85 0 147 72z" />
    <glyph glyph-name="uni1EB2" unicode="&#x1eb2;" horiz-adv-x="929" 
d="M825 0h-311l14 221h-237l-82 -221h-326l594 1366h357zM553 492l35 534l-199 -534h164zM670 1604l-90 14q46 59 141 59q123 0 123 -65q0 -22 -16 -44.5t-37 -35.5h-109q51 33 57 65q10 29 -26 29q-27 0 -43 -22zM934 1473q-125 -84 -287 -84q-78 0 -139 22.5t-92 61.5
l139 61q31 -45 119 -45q86 0 147 45z" />
    <glyph glyph-name="uni1EB3" unicode="&#x1eb3;" horiz-adv-x="905" 
d="M426 1014q159 0 203 -144l28 119h275l-219 -989h-277l25 113q-89 -138 -211 -138q-113 0 -171.5 82t-58.5 244q0 82 15.5 175.5t49 189.5t80 173t114.5 126t147 49zM494 770q-46 0 -84.5 -49t-60 -120t-33 -139.5t-11.5 -119.5q0 -60 23.5 -91.5t66.5 -31.5q31 0 61 26.5
t50 65.5l80 365q-6 43 -31.5 68.5t-60.5 25.5zM610 1430l-90 24q46 105 142 105q57 0 89.5 -29t32.5 -86q0 -37 -16 -75t-37 -62h-108q51 58 57 112q9 49 -27 49q-28 0 -43 -38zM854 1182q-58 -61 -133 -95t-154 -34t-139.5 34t-91.5 95l139 96q15 -34 47 -53t72 -19
q85 0 147 72z" />
    <glyph glyph-name="uni1EB4" unicode="&#x1eb4;" horiz-adv-x="929" 
d="M825 0h-311l14 221h-237l-82 -221h-326l594 1366h357zM553 492l35 534l-199 -534h164zM936 1466q-121 -75 -287 -75t-231 75l139 56q30 -41 119 -41q88 0 147 41zM793 1550q-42 0 -69 10.5t-37 22.5t-26.5 22.5t-39.5 10.5q-44 0 -70 -60h-143q64 138 225 138
q42 0 69 -10.5t37.5 -22.5t27.5 -22.5t40 -10.5q44 0 70 60h143q-27 -64 -84.5 -101t-142.5 -37z" />
    <glyph glyph-name="uni1EB5" unicode="&#x1eb5;" horiz-adv-x="905" 
d="M426 1014q159 0 203 -144l28 119h275l-219 -989h-277l25 113q-89 -138 -211 -138q-113 0 -171.5 82t-58.5 244q0 82 15.5 175.5t49 189.5t80 173t114.5 126t147 49zM494 770q-46 0 -84.5 -49t-60 -120t-33 -139.5t-11.5 -119.5q0 -60 23.5 -91.5t66.5 -31.5q31 0 61 26.5
t50 65.5l80 365q-6 43 -31.5 68.5t-60.5 25.5zM854 1182q-58 -61 -133 -95t-154 -34t-139.5 34t-91.5 95l139 96q15 -34 47 -53t72 -19q85 0 147 72zM737 1313q-42 0 -69 20.5t-37 45t-26.5 45t-39.5 20.5q-43 0 -69 -119h-144q63 274 226 274q34 0 58 -13.5t36.5 -32.5
t22.5 -38.5t23.5 -33t33.5 -13.5q43 0 69 119h144q-27 -127 -85 -200.5t-143 -73.5z" />
    <glyph glyph-name="uni1EB6" unicode="&#x1eb6;" horiz-adv-x="929" 
d="M825 0h-311l14 221h-237l-82 -221h-326l594 1366h357zM553 492l35 534l-199 -534h164zM446 -244q0 -64 -50 -113t-115 -49q-55 0 -92 38t-37 94q0 63 50 111t115 48q55 0 92 -36.5t37 -92.5zM958 1581q-58 -61 -132.5 -95t-153.5 -34t-140 34.5t-92 94.5l140 96
q15 -33 46.5 -52t71.5 -19q86 0 148 71z" />
    <glyph glyph-name="uni1EB7" unicode="&#x1eb7;" horiz-adv-x="905" 
d="M426 1014q159 0 203 -144l28 119h275l-219 -989h-277l25 113q-89 -138 -211 -138q-113 0 -171.5 82t-58.5 244q0 82 15.5 175.5t49 189.5t80 173t114.5 126t147 49zM494 770q-46 0 -84.5 -49t-60 -120t-33 -139.5t-11.5 -119.5q0 -60 23.5 -91.5t66.5 -31.5q31 0 61 26.5
t50 65.5l80 365q-6 43 -31.5 68.5t-60.5 25.5zM424 -244q0 -64 -50.5 -113t-115.5 -49q-55 0 -92 38t-37 94q0 63 50.5 111t115.5 48q55 0 92 -36.5t37 -92.5zM864 1239q-58 -61 -132.5 -95t-153.5 -34t-140 34.5t-92 94.5l139 96q15 -33 47 -52t72 -19q86 0 148 71z" />
    <glyph glyph-name="uni1EB8" unicode="&#x1eb8;" horiz-adv-x="802" 
d="M629 0h-643l301 1366h643l-62 -270h-331l-58 -267h318l-60 -270h-319l-64 -289h334zM397 -244q0 -64 -50.5 -113t-115.5 -49q-55 0 -92 38t-37 94q0 63 50.5 111t115.5 48q55 0 92 -36.5t37 -92.5z" />
    <glyph glyph-name="uni1EB9" unicode="&#x1eb9;" horiz-adv-x="860" 
d="M391 -25q-172 0 -268 103t-96 287q0 81 19 169t59.5 173.5t96 154t135.5 110.5t171 42q167 0 247.5 -94.5t80.5 -257.5q0 -106 -39 -259h-512q-4 -20 -4 -59q0 -24 7.5 -47t24 -46.5t51 -37.5t82.5 -14q84 0 168 73l91 -172q-61 -59 -145 -92t-169 -33zM324 594h256
q8 36 8 76q0 55 -29 88t-74 33q-47 0 -83 -33.5t-53 -75t-25 -88.5zM432 -244q0 -64 -50.5 -113t-115.5 -49q-55 0 -92 38t-37 94q0 63 50.5 111t115.5 48q55 0 92 -36.5t37 -92.5z" />
    <glyph glyph-name="uni1EBA" unicode="&#x1eba;" horiz-adv-x="802" 
d="M629 0h-643l301 1366h643l-62 -270h-331l-58 -267h318l-60 -270h-319l-64 -289h334zM608 1550l-90 25q46 104 141 104q57 0 90 -28.5t33 -85.5q0 -37 -16 -75.5t-37 -62.5h-108q51 58 57 113q9 49 -27 49q-27 0 -43 -39z" />
    <glyph glyph-name="uni1EBB" unicode="&#x1ebb;" horiz-adv-x="860" 
d="M391 -25q-172 0 -268 103t-96 287q0 81 19 169t59.5 173.5t96 154t135.5 110.5t171 42q167 0 247.5 -94.5t80.5 -257.5q0 -106 -39 -259h-512q-4 -20 -4 -59q0 -24 7.5 -47t24 -46.5t51 -37.5t82.5 -14q84 0 168 73l91 -172q-61 -59 -145 -92t-169 -33zM324 594h256
q8 36 8 76q0 55 -29 88t-74 33q-47 0 -83 -33.5t-53 -75t-25 -88.5zM565 1202l-90 25q46 104 141 104q57 0 90 -28.5t33 -85.5q0 -37 -16 -75.5t-37 -62.5h-108q51 58 57 113q9 49 -27 49q-27 0 -43 -39z" />
    <glyph glyph-name="uni1EBC" unicode="&#x1ebc;" horiz-adv-x="802" 
d="M629 0h-643l301 1366h643l-62 -270h-331l-58 -267h318l-60 -270h-319l-64 -289h334zM743 1477q-42 0 -69 20.5t-37 45t-26.5 45t-39.5 20.5q-43 0 -69 -119h-144q63 274 226 274q34 0 58 -13.5t36.5 -32.5t22.5 -38.5t23.5 -33t33.5 -13.5q43 0 69 119h144
q-27 -127 -85 -200.5t-143 -73.5z" />
    <glyph glyph-name="uni1EBD" unicode="&#x1ebd;" horiz-adv-x="860" 
d="M391 -25q-172 0 -268 103t-96 287q0 81 19 169t59.5 173.5t96 154t135.5 110.5t171 42q167 0 247.5 -94.5t80.5 -257.5q0 -106 -39 -259h-512q-4 -20 -4 -59q0 -24 7.5 -47t24 -46.5t51 -37.5t82.5 -14q84 0 168 73l91 -172q-61 -59 -145 -92t-169 -33zM324 594h256
q8 36 8 76q0 55 -29 88t-74 33q-47 0 -83 -33.5t-53 -75t-25 -88.5zM702 1135q-42 0 -69 20.5t-37 45t-26.5 45t-39.5 20.5q-43 0 -69 -119h-144q63 274 226 274q34 0 58 -13.5t36.5 -32.5t22.5 -38.5t23.5 -33t33.5 -13.5q43 0 69 119h144q-27 -127 -85 -200.5t-143 -73.5z
" />
    <glyph glyph-name="uni1EBE" unicode="&#x1ebe;" horiz-adv-x="802" 
d="M856 1397h-145l-66 131l-135 -131h-156l191 221h246zM1303 1726l-289 -221h-176l229 221h236zM629 0h-643l301 1366h643l-62 -270h-331l-58 -267h318l-60 -270h-319l-64 -289h334z" />
    <glyph glyph-name="uni1EBF" unicode="&#x1ebf;" horiz-adv-x="860" 
d="M842 1139h-146l-65 176l-135 -176h-156l190 295h246zM1284 1577l-289 -295h-176l230 295h235zM391 -25q-172 0 -268 103t-96 287q0 81 19 169t59.5 173.5t96 154t135.5 110.5t171 42q167 0 247.5 -94.5t80.5 -257.5q0 -106 -39 -259h-512q-4 -20 -4 -59q0 -24 7.5 -47
t24 -46.5t51 -37.5t82.5 -14q84 0 168 73l91 -172q-61 -59 -145 -92t-169 -33zM324 594h256q8 36 8 76q0 55 -29 88t-74 33q-47 0 -83 -33.5t-53 -75t-25 -88.5z" />
    <glyph glyph-name="uni1EC0" unicode="&#x1ec0;" horiz-adv-x="802" 
d="M856 1397h-145l-66 131l-135 -131h-156l191 221h246zM629 0h-643l301 1366h643l-62 -270h-331l-58 -267h318l-60 -270h-319l-64 -289h334zM434 1505h-172l-158 221h234z" />
    <glyph glyph-name="uni1EC1" unicode="&#x1ec1;" horiz-adv-x="860" 
d="M844 1139h-146l-65 176l-135 -176h-156l190 295h246zM391 -25q-172 0 -268 103t-96 287q0 81 19 169t59.5 173.5t96 154t135.5 110.5t171 42q167 0 247.5 -94.5t80.5 -257.5q0 -106 -39 -259h-512q-4 -20 -4 -59q0 -24 7.5 -47t24 -46.5t51 -37.5t82.5 -14q84 0 168 73
l91 -172q-61 -59 -145 -92t-169 -33zM324 594h256q8 36 8 76q0 55 -29 88t-74 33q-47 0 -83 -33.5t-53 -75t-25 -88.5zM420 1282h-172l-158 295h234z" />
    <glyph glyph-name="uni1EC2" unicode="&#x1ec2;" horiz-adv-x="802" 
d="M854 1397h-145l-66 131l-135 -131h-156l191 221h245zM629 0h-643l301 1366h643l-62 -270h-331l-58 -267h318l-60 -270h-319l-64 -289h334zM825 1640l-90 19q45 78 142 78q122 0 122 -86q0 -54 -53 -103h-108q52 45 57 84q9 37 -27 37q-27 0 -43 -29z" />
    <glyph glyph-name="uni1EC3" unicode="&#x1ec3;" horiz-adv-x="860" 
d="M846 1139h-146l-65 176l-135 -176h-156l191 295h245zM391 -25q-172 0 -268 103t-96 287q0 81 19 169t59.5 173.5t96 154t135.5 110.5t171 42q167 0 247.5 -94.5t80.5 -257.5q0 -106 -39 -259h-512q-4 -20 -4 -59q0 -24 7.5 -47t24 -46.5t51 -37.5t82.5 -14q84 0 168 73
l91 -172q-61 -59 -145 -92t-169 -33zM324 594h256q8 36 8 76q0 55 -29 88t-74 33q-47 0 -83 -33.5t-53 -75t-25 -88.5zM811 1489l-90 24q46 105 141 105q57 0 90 -29t33 -86q0 -37 -16 -75t-37 -62h-109q52 59 58 113q9 49 -27 49q-27 0 -43 -39z" />
    <glyph glyph-name="uni1EC4" unicode="&#x1ec4;" horiz-adv-x="802" 
d="M846 1389h-146l-65 88l-135 -88h-156l191 147h245zM629 0h-643l301 1366h643l-62 -270h-331l-58 -267h318l-60 -270h-319l-64 -289h334zM745 1550q-42 0 -69 10.5t-37 22.5t-26.5 22.5t-39.5 10.5q-43 0 -69 -60h-144q64 138 226 138q42 0 69 -10.5t37.5 -22.5
t27.5 -22.5t40 -10.5q43 0 69 60h144q-27 -64 -85 -101t-143 -37z" />
    <glyph glyph-name="uni1EC5" unicode="&#x1ec5;" horiz-adv-x="860" 
d="M831 1071h-145l-65 176l-136 -176h-155l190 295h246zM391 -25q-172 0 -268 103t-96 287q0 81 19 169t59.5 173.5t96 154t135.5 110.5t171 42q167 0 247.5 -94.5t80.5 -257.5q0 -106 -39 -259h-512q-4 -20 -4 -59q0 -24 7.5 -47t24 -46.5t51 -37.5t82.5 -14q84 0 168 73
l91 -172q-61 -59 -145 -92t-169 -33zM324 594h256q8 36 8 76q0 55 -29 88t-74 33q-47 0 -83 -33.5t-53 -75t-25 -88.5zM762 1397q-42 0 -69 20.5t-37 45t-26.5 45t-39.5 20.5q-44 0 -70 -119h-143q63 274 225 274q34 0 58 -13.5t36.5 -32.5t22.5 -38.5t23.5 -33t33.5 -13.5
q44 0 70 119h143q-27 -127 -84.5 -200.5t-142.5 -73.5z" />
    <glyph glyph-name="uni1EC6" unicode="&#x1ec6;" horiz-adv-x="802" 
d="M885 1481h-146l-65 176l-135 -176h-156l190 295h246zM629 0h-643l301 1366h643l-62 -270h-331l-58 -267h318l-60 -270h-319l-64 -289h334zM403 -244q0 -64 -50 -113t-115 -49q-55 0 -92 38t-37 94q0 63 50 111t115 48q55 0 92 -36.5t37 -92.5z" />
    <glyph glyph-name="uni1EC7" unicode="&#x1ec7;" horiz-adv-x="860" 
d="M844 1139h-146l-65 176l-135 -176h-156l190 295h246zM391 -25q-172 0 -268 103t-96 287q0 81 19 169t59.5 173.5t96 154t135.5 110.5t171 42q167 0 247.5 -94.5t80.5 -257.5q0 -106 -39 -259h-512q-4 -20 -4 -59q0 -24 7.5 -47t24 -46.5t51 -37.5t82.5 -14q84 0 168 73
l91 -172q-61 -59 -145 -92t-169 -33zM324 594h256q8 36 8 76q0 55 -29 88t-74 33q-47 0 -83 -33.5t-53 -75t-25 -88.5zM432 -244q0 -64 -50.5 -113t-115.5 -49q-55 0 -92 38t-37 94q0 63 50.5 111t115.5 48q55 0 92 -36.5t37 -92.5z" />
    <glyph glyph-name="uni1EC8" unicode="&#x1ec8;" horiz-adv-x="501" 
d="M295 0h-309l301 1366h309zM442 1550l-90 25q46 104 142 104q57 0 89.5 -28.5t32.5 -85.5q0 -37 -16 -75.5t-37 -62.5h-108q51 58 57 113q9 49 -27 49q-27 0 -43 -39z" />
    <glyph glyph-name="uni1EC9" unicode="&#x1ec9;" horiz-adv-x="442" 
d="M250 0h-279l219 989h279zM336 1202l-90 25q46 104 141 104q57 0 90 -28.5t33 -85.5q0 -37 -16 -75.5t-37 -62.5h-109q52 59 58 113q9 49 -27 49q-27 0 -43 -39z" />
    <glyph glyph-name="uni1ECA" unicode="&#x1eca;" horiz-adv-x="501" 
d="M295 0h-309l301 1366h309zM231 -244q0 -64 -50 -113t-115 -49q-55 0 -92 38t-37 94q0 63 50 111t115 48q55 0 92 -36.5t37 -92.5z" />
    <glyph glyph-name="uni1ECB" unicode="&#x1ecb;" horiz-adv-x="442" 
d="M367 1090q-64 0 -106 40.5t-42 98.5q0 85 59 136.5t128 51.5q63 0 105 -41t42 -100q0 -84 -58.5 -135t-127.5 -51zM250 0h-279l219 989h279zM205 -244q0 -64 -50.5 -113t-115.5 -49q-55 0 -92 38t-37 94q0 63 50.5 111t115.5 48q55 0 92 -36.5t37 -92.5z" />
    <glyph glyph-name="uni1ECC" unicode="&#x1ecc;" horiz-adv-x="1024" 
d="M444 -25q-192 0 -291.5 127t-99.5 330q0 72 10.5 155.5t33.5 176.5t57 181.5t84 169.5t110 141.5t140.5 96.5t170.5 36q129 0 219 -63t131.5 -165t41.5 -233q0 -72 -10.5 -155.5t-34 -176t-57.5 -180.5t-84 -168.5t-110.5 -140.5t-140.5 -96t-170 -36zM459 250
q60 0 114.5 79.5t88 192t53.5 224.5t20 188q0 180 -94 180q-60 0 -114 -79.5t-87.5 -193t-53 -226t-19.5 -189.5q0 -176 92 -176zM489 -244q0 -64 -50 -113t-115 -49q-55 0 -92 38t-37 94q0 63 50 111t115 48q55 0 92 -36.5t37 -92.5z" />
    <glyph glyph-name="uni1ECD" unicode="&#x1ecd;" 
d="M377 -25q-170 0 -260 102.5t-90 280.5q0 87 19.5 178t60.5 177t96.5 153t134.5 107.5t168 40.5q173 0 263.5 -102t90.5 -281q0 -87 -20 -177.5t-61 -176.5t-97 -153t-135.5 -108t-169.5 -41zM393 219q44 0 81.5 49t59.5 118.5t34 137t12 113.5q0 133 -88 133
q-44 0 -81.5 -49t-59.5 -119t-34 -137t-12 -113q0 -133 88 -133zM426 -244q0 -64 -50.5 -113t-115.5 -49q-55 0 -92 38t-37 94q0 63 50.5 111t115.5 48q55 0 92 -36.5t37 -92.5z" />
    <glyph glyph-name="uni1ECE" unicode="&#x1ece;" horiz-adv-x="1024" 
d="M444 -25q-192 0 -291.5 127t-99.5 330q0 72 10.5 155.5t33.5 176.5t57 181.5t84 169.5t110 141.5t140.5 96.5t170.5 36q129 0 219 -63t131.5 -165t41.5 -233q0 -72 -10.5 -155.5t-34 -176t-57.5 -180.5t-84 -168.5t-110.5 -140.5t-140.5 -96t-170 -36zM459 250
q60 0 114.5 79.5t88 192t53.5 224.5t20 188q0 180 -94 180q-60 0 -114 -79.5t-87.5 -193t-53 -226t-19.5 -189.5q0 -176 92 -176zM702 1550l-90 25q46 104 142 104q57 0 90 -28.5t33 -85.5q0 -37 -16.5 -75t-37.5 -63h-108q51 58 57 113q9 49 -27 49q-27 0 -43 -39z" />
    <glyph glyph-name="uni1ECF" unicode="&#x1ecf;" 
d="M377 -25q-170 0 -260 102.5t-90 280.5q0 87 19.5 178t60.5 177t96.5 153t134.5 107.5t168 40.5q173 0 263.5 -102t90.5 -281q0 -87 -20 -177.5t-61 -176.5t-97 -153t-135.5 -108t-169.5 -41zM393 219q44 0 81.5 49t59.5 118.5t34 137t12 113.5q0 133 -88 133
q-44 0 -81.5 -49t-59.5 -119t-34 -137t-12 -113q0 -133 88 -133zM559 1202l-90 25q46 104 141 104q57 0 90 -28.5t33 -85.5q0 -37 -16 -75.5t-37 -62.5h-109q52 59 58 113q9 49 -27 49q-27 0 -43 -39z" />
    <glyph glyph-name="uni1ED0" unicode="&#x1ed0;" horiz-adv-x="1024" 
d="M948 1397h-145l-66 131l-135 -131h-156l191 221h246zM1391 1726l-289 -221h-176l229 221h236zM444 -25q-192 0 -291.5 127t-99.5 330q0 72 10.5 155.5t33.5 176.5t57 181.5t84 169.5t110 141.5t140.5 96.5t170.5 36q129 0 219 -63t131.5 -165t41.5 -233
q0 -72 -10.5 -155.5t-34 -176t-57.5 -180.5t-84 -168.5t-110.5 -140.5t-140.5 -96t-170 -36zM459 250q60 0 114.5 79.5t88 192t53.5 224.5t20 188q0 180 -94 180q-60 0 -114 -79.5t-87.5 -193t-53 -226t-19.5 -189.5q0 -176 92 -176z" />
    <glyph glyph-name="uni1ED1" unicode="&#x1ed1;" 
d="M838 1139h-146l-65 176l-135 -176h-156l190 295h246zM1280 1577l-289 -295h-176l229 295h236zM377 -25q-170 0 -260 102.5t-90 280.5q0 87 19.5 178t60.5 177t96.5 153t134.5 107.5t168 40.5q173 0 263.5 -102t90.5 -281q0 -87 -20 -177.5t-61 -176.5t-97 -153
t-135.5 -108t-169.5 -41zM393 219q44 0 81.5 49t59.5 118.5t34 137t12 113.5q0 133 -88 133q-44 0 -81.5 -49t-59.5 -119t-34 -137t-12 -113q0 -133 88 -133z" />
    <glyph glyph-name="uni1ED2" unicode="&#x1ed2;" horiz-adv-x="1024" 
d="M948 1397h-145l-66 131l-135 -131h-156l191 221h246zM444 -25q-192 0 -291.5 127t-99.5 330q0 72 10.5 155.5t33.5 176.5t57 181.5t84 169.5t110 141.5t140.5 96.5t170.5 36q129 0 219 -63t131.5 -165t41.5 -233q0 -72 -10.5 -155.5t-34 -176t-57.5 -180.5t-84 -168.5
t-110.5 -140.5t-140.5 -96t-170 -36zM459 250q60 0 114.5 79.5t88 192t53.5 224.5t20 188q0 180 -94 180q-60 0 -114 -79.5t-87.5 -193t-53 -226t-19.5 -189.5q0 -176 92 -176zM526 1505h-172l-157 221h233z" />
    <glyph glyph-name="uni1ED3" unicode="&#x1ed3;" 
d="M836 1139h-146l-65 176l-136 -176h-155l190 295h246zM377 -25q-170 0 -260 102.5t-90 280.5q0 87 19.5 178t60.5 177t96.5 153t134.5 107.5t168 40.5q173 0 263.5 -102t90.5 -281q0 -87 -20 -177.5t-61 -176.5t-97 -153t-135.5 -108t-169.5 -41zM393 219q44 0 81.5 49
t59.5 118.5t34 137t12 113.5q0 133 -88 133q-44 0 -81.5 -49t-59.5 -119t-34 -137t-12 -113q0 -133 88 -133zM412 1282h-172l-158 295h233z" />
    <glyph glyph-name="uni1ED4" unicode="&#x1ed4;" horiz-adv-x="1024" 
d="M948 1397h-145l-66 131l-135 -131h-156l191 221h246zM444 -25q-192 0 -291.5 127t-99.5 330q0 72 10.5 155.5t33.5 176.5t57 181.5t84 169.5t110 141.5t140.5 96.5t170.5 36q129 0 219 -63t131.5 -165t41.5 -233q0 -72 -10.5 -155.5t-34 -176t-57.5 -180.5t-84 -168.5
t-110.5 -140.5t-140.5 -96t-170 -36zM459 250q60 0 114.5 79.5t88 192t53.5 224.5t20 188q0 180 -94 180q-60 0 -114 -79.5t-87.5 -193t-53 -226t-19.5 -189.5q0 -176 92 -176zM920 1640l-91 19q45 78 142 78q57 0 90 -21.5t33 -64.5q0 -53 -54 -103h-108q52 45 57 84
q9 37 -26 37q-27 0 -43 -29z" />
    <glyph glyph-name="uni1ED5" unicode="&#x1ed5;" 
d="M838 1139h-146l-65 176l-135 -176h-156l190 295h246zM377 -25q-170 0 -260 102.5t-90 280.5q0 87 19.5 178t60.5 177t96.5 153t134.5 107.5t168 40.5q173 0 263.5 -102t90.5 -281q0 -87 -20 -177.5t-61 -176.5t-97 -153t-135.5 -108t-169.5 -41zM393 219q44 0 81.5 49
t59.5 118.5t34 137t12 113.5q0 133 -88 133q-44 0 -81.5 -49t-59.5 -119t-34 -137t-12 -113q0 -133 88 -133zM803 1489l-90 24q46 105 141 105q57 0 90 -29t33 -86q0 -37 -16 -75t-37 -62h-109q51 58 57 113q9 49 -26 49q-27 0 -43 -39z" />
    <glyph glyph-name="uni1ED6" unicode="&#x1ed6;" horiz-adv-x="1024" 
d="M938 1389h-145l-66 88l-135 -88h-156l191 147h245zM444 -25q-192 0 -291.5 127t-99.5 330q0 72 10.5 155.5t33.5 176.5t57 181.5t84 169.5t110 141.5t140.5 96.5t170.5 36q129 0 219 -63t131.5 -165t41.5 -233q0 -72 -10.5 -155.5t-34 -176t-57.5 -180.5t-84 -168.5
t-110.5 -140.5t-140.5 -96t-170 -36zM459 250q60 0 114.5 79.5t88 192t53.5 224.5t20 188q0 180 -94 180q-60 0 -114 -79.5t-87.5 -193t-53 -226t-19.5 -189.5q0 -176 92 -176zM840 1550q-42 0 -69 10.5t-37 22.5t-26.5 22.5t-39.5 10.5q-44 0 -70 -60h-143q64 138 225 138
q42 0 69 -10.5t37.5 -22.5t27.5 -22.5t40 -10.5q44 0 70 60h143q-27 -64 -84.5 -101t-142.5 -37z" />
    <glyph glyph-name="uni1ED7" unicode="&#x1ed7;" 
d="M821 1071h-145l-66 176l-135 -176h-156l191 295h246zM377 -25q-170 0 -260 102.5t-90 280.5q0 87 19.5 178t60.5 177t96.5 153t134.5 107.5t168 40.5q173 0 263.5 -102t90.5 -281q0 -87 -20 -177.5t-61 -176.5t-97 -153t-135.5 -108t-169.5 -41zM393 219q44 0 81.5 49
t59.5 118.5t34 137t12 113.5q0 133 -88 133q-44 0 -81.5 -49t-59.5 -119t-34 -137t-12 -113q0 -133 88 -133zM756 1397q-42 0 -69 20.5t-37 45t-26.5 45t-39.5 20.5q-44 0 -70 -119h-143q63 274 225 274q34 0 58 -13.5t36.5 -32.5t22.5 -38.5t23.5 -33t33.5 -13.5
q44 0 70 119h143q-27 -127 -84.5 -200.5t-142.5 -73.5z" />
    <glyph glyph-name="uni1ED8" unicode="&#x1ed8;" horiz-adv-x="1024" 
d="M979 1481h-145l-66 176l-135 -176h-156l191 295h245zM444 -25q-192 0 -291.5 127t-99.5 330q0 72 10.5 155.5t33.5 176.5t57 181.5t84 169.5t110 141.5t140.5 96.5t170.5 36q129 0 219 -63t131.5 -165t41.5 -233q0 -72 -10.5 -155.5t-34 -176t-57.5 -180.5t-84 -168.5
t-110.5 -140.5t-140.5 -96t-170 -36zM459 250q60 0 114.5 79.5t88 192t53.5 224.5t20 188q0 180 -94 180q-60 0 -114 -79.5t-87.5 -193t-53 -226t-19.5 -189.5q0 -176 92 -176zM492 -244q0 -64 -50.5 -113t-115.5 -49q-55 0 -92 38t-37 94q0 63 50 111t115 48
q55 0 92.5 -36.5t37.5 -92.5z" />
    <glyph glyph-name="uni1ED9" unicode="&#x1ed9;" 
d="M838 1139h-146l-65 176l-135 -176h-156l190 295h246zM377 -25q-170 0 -260 102.5t-90 280.5q0 87 19.5 178t60.5 177t96.5 153t134.5 107.5t168 40.5q173 0 263.5 -102t90.5 -281q0 -87 -20 -177.5t-61 -176.5t-97 -153t-135.5 -108t-169.5 -41zM393 219q44 0 81.5 49
t59.5 118.5t34 137t12 113.5q0 133 -88 133q-44 0 -81.5 -49t-59.5 -119t-34 -137t-12 -113q0 -133 88 -133zM426 -244q0 -64 -50.5 -113t-115.5 -49q-55 0 -92 38t-37 94q0 63 50.5 111t115.5 48q55 0 92 -36.5t37 -92.5z" />
    <glyph glyph-name="uni1EDA" unicode="&#x1eda;" horiz-adv-x="1024" 
d="M1092 1776l-289 -295h-176l229 295h236zM444 -25q-192 0 -291.5 127t-99.5 330q0 72 10.5 155.5t33.5 176.5t57 181.5t84 169.5t110 141.5t140.5 96.5t170.5 36q116 0 200.5 -51t131.5 -142q71 49 92 98h-14q-37 0 -63.5 26.5t-26.5 70.5q0 53 39 91t92 38q47 0 81 -33
t34 -90q0 -82 -56 -162.5t-143 -128.5q25 -86 25 -178q0 -72 -10.5 -155.5t-34 -176t-57.5 -180.5t-84 -168.5t-110.5 -140.5t-140.5 -96t-170 -36zM459 250q60 0 114.5 79.5t88 192t53.5 224.5t20 188q0 180 -94 180q-60 0 -114 -79.5t-87.5 -193t-53 -226t-19.5 -189.5
q0 -176 92 -176z" />
    <glyph glyph-name="uni1EDB" unicode="&#x1edb;" 
d="M948 1434l-289 -295h-176l230 295h235zM999 1122q0 -76 -51 -153t-131 -129q43 -85 43 -209q0 -87 -20 -177.5t-61 -176.5t-97 -153t-135.5 -108t-169.5 -41q-170 0 -260 102.5t-90 280.5q0 87 19.5 178t60.5 177t96.5 153t134.5 107.5t168 40.5q163 0 256 -96
q73 48 98 102h-16q-38 0 -65 26t-27 70q0 53 40.5 91t92.5 38q47 0 80.5 -33t33.5 -90zM393 219q44 0 81.5 49t59.5 118.5t34 137t12 113.5q0 133 -88 133q-44 0 -81.5 -49t-59.5 -119t-34 -137t-12 -113q0 -133 88 -133z" />
    <glyph glyph-name="uni1EDC" unicode="&#x1edc;" horiz-adv-x="1024" 
d="M444 -25q-192 0 -291.5 127t-99.5 330q0 72 10.5 155.5t33.5 176.5t57 181.5t84 169.5t110 141.5t140.5 96.5t170.5 36q116 0 200.5 -51t131.5 -142q71 49 92 98h-14q-37 0 -63.5 26.5t-26.5 70.5q0 53 39 91t92 38q47 0 81 -33t34 -90q0 -82 -56 -162.5t-143 -128.5
q25 -86 25 -178q0 -72 -10.5 -155.5t-34 -176t-57.5 -180.5t-84 -168.5t-110.5 -140.5t-140.5 -96t-170 -36zM459 250q60 0 114.5 79.5t88 192t53.5 224.5t20 188q0 180 -94 180q-60 0 -114 -79.5t-87.5 -193t-53 -226t-19.5 -189.5q0 -176 92 -176zM825 1481h-172l-157 295
h233z" />
    <glyph glyph-name="uni1EDD" unicode="&#x1edd;" 
d="M999 1122q0 -76 -51 -153t-131 -129q43 -85 43 -209q0 -87 -20 -177.5t-61 -176.5t-97 -153t-135.5 -108t-169.5 -41q-170 0 -260 102.5t-90 280.5q0 87 19.5 178t60.5 177t96.5 153t134.5 107.5t168 40.5q163 0 256 -96q73 48 98 102h-16q-38 0 -65 26t-27 70
q0 53 40.5 91t92.5 38q47 0 80.5 -33t33.5 -90zM393 219q44 0 81.5 49t59.5 118.5t34 137t12 113.5q0 133 -88 133q-44 0 -81.5 -49t-59.5 -119t-34 -137t-12 -113q0 -133 88 -133zM684 1139h-172l-158 295h234z" />
    <glyph glyph-name="uni1EDE" unicode="&#x1ede;" horiz-adv-x="1024" 
d="M444 -25q-192 0 -291.5 127t-99.5 330q0 72 10.5 155.5t33.5 176.5t57 181.5t84 169.5t110 141.5t140.5 96.5t170.5 36q116 0 200.5 -51t131.5 -142q71 49 92 98h-14q-37 0 -63.5 26.5t-26.5 70.5q0 53 39 91t92 38q47 0 81 -33t34 -90q0 -82 -56 -162.5t-143 -128.5
q25 -86 25 -178q0 -72 -10.5 -155.5t-34 -176t-57.5 -180.5t-84 -168.5t-110.5 -140.5t-140.5 -96t-170 -36zM459 250q60 0 114.5 79.5t88 192t53.5 224.5t20 188q0 180 -94 180q-60 0 -114 -79.5t-87.5 -193t-53 -226t-19.5 -189.5q0 -176 92 -176zM702 1550l-90 25
q46 104 142 104q57 0 90 -28.5t33 -85.5q0 -37 -16.5 -75t-37.5 -63h-108q51 58 57 113q9 49 -27 49q-27 0 -43 -39z" />
    <glyph glyph-name="uni1EDF" unicode="&#x1edf;" 
d="M999 1122q0 -76 -51 -153t-131 -129q43 -85 43 -209q0 -87 -20 -177.5t-61 -176.5t-97 -153t-135.5 -108t-169.5 -41q-170 0 -260 102.5t-90 280.5q0 87 19.5 178t60.5 177t96.5 153t134.5 107.5t168 40.5q163 0 256 -96q73 48 98 102h-16q-38 0 -65 26t-27 70
q0 53 40.5 91t92.5 38q47 0 80.5 -33t33.5 -90zM393 219q44 0 81.5 49t59.5 118.5t34 137t12 113.5q0 133 -88 133q-44 0 -81.5 -49t-59.5 -119t-34 -137t-12 -113q0 -133 88 -133zM559 1202l-90 25q46 104 141 104q57 0 90 -28.5t33 -85.5q0 -37 -16 -75.5t-37 -62.5h-109
q52 59 58 113q9 49 -27 49q-27 0 -43 -39z" />
    <glyph glyph-name="uni1EE0" unicode="&#x1ee0;" horiz-adv-x="1024" 
d="M444 -25q-192 0 -291.5 127t-99.5 330q0 72 10.5 155.5t33.5 176.5t57 181.5t84 169.5t110 141.5t140.5 96.5t170.5 36q116 0 200.5 -51t131.5 -142q71 49 92 98h-14q-37 0 -63.5 26.5t-26.5 70.5q0 53 39 91t92 38q47 0 81 -33t34 -90q0 -82 -56 -162.5t-143 -128.5
q25 -86 25 -178q0 -72 -10.5 -155.5t-34 -176t-57.5 -180.5t-84 -168.5t-110.5 -140.5t-140.5 -96t-170 -36zM459 250q60 0 114.5 79.5t88 192t53.5 224.5t20 188q0 180 -94 180q-60 0 -114 -79.5t-87.5 -193t-53 -226t-19.5 -189.5q0 -176 92 -176zM840 1477
q-42 0 -69 20.5t-37 45t-26.5 45t-39.5 20.5q-44 0 -70 -119h-143q63 274 225 274q34 0 58 -13.5t36.5 -32.5t22.5 -38.5t23.5 -33t33.5 -13.5q44 0 70 119h143q-27 -127 -84.5 -200.5t-142.5 -73.5z" />
    <glyph glyph-name="uni1EE1" unicode="&#x1ee1;" 
d="M999 1122q0 -76 -51 -153t-131 -129q43 -85 43 -209q0 -87 -20 -177.5t-61 -176.5t-97 -153t-135.5 -108t-169.5 -41q-170 0 -260 102.5t-90 280.5q0 87 19.5 178t60.5 177t96.5 153t134.5 107.5t168 40.5q163 0 256 -96q73 48 98 102h-16q-38 0 -65 26t-27 70
q0 53 40.5 91t92.5 38q47 0 80.5 -33t33.5 -90zM393 219q44 0 81.5 49t59.5 118.5t34 137t12 113.5q0 133 -88 133q-44 0 -81.5 -49t-59.5 -119t-34 -137t-12 -113q0 -133 88 -133zM610 1135q-42 0 -69 20.5t-37 45t-26.5 45t-39.5 20.5q-43 0 -69 -119h-144q63 274 226 274
q34 0 58 -13.5t36.5 -32.5t22.5 -38.5t23.5 -33t33.5 -13.5q43 0 69 119h144q-27 -127 -85 -200.5t-143 -73.5z" />
    <glyph glyph-name="uni1EE2" unicode="&#x1ee2;" horiz-adv-x="1024" 
d="M444 -25q-192 0 -291.5 127t-99.5 330q0 72 10.5 155.5t33.5 176.5t57 181.5t84 169.5t110 141.5t140.5 96.5t170.5 36q116 0 200.5 -51t131.5 -142q71 49 92 98h-14q-37 0 -63.5 26.5t-26.5 70.5q0 53 39 91t92 38q47 0 81 -33t34 -90q0 -82 -56 -162.5t-143 -128.5
q25 -86 25 -178q0 -72 -10.5 -155.5t-34 -176t-57.5 -180.5t-84 -168.5t-110.5 -140.5t-140.5 -96t-170 -36zM459 250q60 0 114.5 79.5t88 192t53.5 224.5t20 188q0 180 -94 180q-60 0 -114 -79.5t-87.5 -193t-53 -226t-19.5 -189.5q0 -176 92 -176zM489 -244
q0 -64 -50 -113t-115 -49q-55 0 -92 38t-37 94q0 63 50 111t115 48q55 0 92 -36.5t37 -92.5z" />
    <glyph glyph-name="uni1EE3" unicode="&#x1ee3;" 
d="M999 1122q0 -76 -51 -153t-131 -129q43 -85 43 -209q0 -87 -20 -177.5t-61 -176.5t-97 -153t-135.5 -108t-169.5 -41q-170 0 -260 102.5t-90 280.5q0 87 19.5 178t60.5 177t96.5 153t134.5 107.5t168 40.5q163 0 256 -96q73 48 98 102h-16q-38 0 -65 26t-27 70
q0 53 40.5 91t92.5 38q47 0 80.5 -33t33.5 -90zM393 219q44 0 81.5 49t59.5 118.5t34 137t12 113.5q0 133 -88 133q-44 0 -81.5 -49t-59.5 -119t-34 -137t-12 -113q0 -133 88 -133zM426 -244q0 -64 -50.5 -113t-115.5 -49q-55 0 -92 38t-37 94q0 63 50.5 111t115.5 48
q55 0 92 -36.5t37 -92.5z" />
    <glyph glyph-name="uni1EE4" unicode="&#x1ee4;" horiz-adv-x="1040" 
d="M455 -25q-164 0 -274.5 102t-110.5 267q0 36 10 84l207 938h309l-213 -967q-6 -36 -6 -51q0 -47 28.5 -74.5t73.5 -27.5q51 0 83 35.5t50 117.5l213 967h312l-211 -948q-49 -222 -175 -332.5t-296 -110.5zM500 -244q0 -64 -50.5 -113t-115.5 -49q-55 0 -92 38t-37 94
q0 63 50.5 111t115.5 48q55 0 92 -36.5t37 -92.5z" />
    <glyph glyph-name="uni1EE5" unicode="&#x1ee5;" horiz-adv-x="903" 
d="M190 989h279l-150 -670q-6 -27 -6 -45q0 -25 15 -40t41 -15q38 0 74 32.5t63 78.5l145 659h279l-219 -989h-279l29 121q-48 -62 -114.5 -104t-139.5 -42q-91 0 -143 48.5t-52 126.5q0 33 8 57zM430 -244q0 -64 -50.5 -113t-115.5 -49q-55 0 -92 38t-37 94q0 63 50.5 111
t115.5 48q55 0 92 -36.5t37 -92.5z" />
    </font>
</defs>
</svg>
