<?xml version="1.0" standalone="no"?>
<!DOCTYPE svg PUBLIC "-//W3C//DTD SVG 1.1//EN" "http://www.w3.org/Graphics/SVG/1.1/DTD/svg11.dtd" >
<svg xmlns="http://www.w3.org/2000/svg" xmlns:xlink="http://www.w3.org/1999/xlink" version="1.1">
<metadata>
Created by FontForge 20201107 at Mon May  5 13:03:26 2025
 By 
Copyright (c) Mark Simonson, 2005. All rights reserved.
</metadata>
<defs>
<font id="ProximaNovaExCn-Extrabld" horiz-adv-x="888" >
  <font-face 
    font-family="Proxima Nova ExCn Th"
    font-weight="800"
    font-stretch="normal"
    units-per-em="2048"
    panose-1="2 0 5 6 3 0 0 2 0 4"
    ascent="1618"
    descent="-430"
    x-height="989"
    cap-height="1366"
    bbox="-233 -594 1788 1815"
    underline-thickness="40"
    underline-position="-271"
    unicode-range="U+000D-FB04"
  />
<missing-glyph horiz-adv-x="911" 
d="M815 -184h-719v1724h719v-1724zM750 -123v1602h-590v-1602h590z" />
    <glyph glyph-name="f_f_j" unicode="ffj" horiz-adv-x="1517" 
d="M930 0h-277v748h-88v241h88v70q0 158 71 242.5t198 84.5q96 0 157 -26l-39 -221q-12 12 -39 12q-32 0 -51.5 -24t-19.5 -68v-70h121v-241h-121v-748zM1294 1090q-68 0 -114.5 47t-46.5 116q0 68 47 116t114 48q68 0 116 -48.5t48 -115.5q0 -69 -48 -116t-116 -47z
M1128 -401q-86 0 -141 41l53 217q19 -23 52 -23q63 0 63 111v1044h279v-1044q0 -346 -306 -346zM393 0h-276v748h-88v241h88v70q0 160 74.5 243.5t218.5 83.5q119 0 188 -53l-63 -213q-31 31 -66 31q-36 0 -56 -24.5t-20 -67.5v-70h121v-241h-121v-748z" />
    <glyph glyph-name="f_j" unicode="fj" horiz-adv-x="980" 
d="M393 0h-276v748h-88v241h88v70q0 158 70.5 242.5t197.5 84.5q97 0 158 -26l-39 -221q-12 12 -39 12q-32 0 -52 -24t-20 -68v-70h121v-241h-121v-748zM758 1090q-68 0 -115 47t-47 116q0 68 47.5 116t114.5 48q68 0 116 -48.5t48 -115.5q0 -69 -48 -116t-116 -47z
M592 -401q-86 0 -141 41l53 217q19 -23 51 -23q63 0 63 111v1044h279v-1044q0 -346 -305 -346z" />
    <glyph glyph-name="f_f" unicode="ff" horiz-adv-x="1073" 
d="M393 0h-276v748h-88v241h88v70q0 160 74.5 243.5t218.5 83.5q119 0 188 -53l-63 -213q-31 31 -66 31q-36 0 -56 -24.5t-20 -67.5v-70h121v-241h-121v-748zM930 0h-277v748h-88v241h88v70q0 160 74.5 243.5t218.5 83.5q120 0 189 -53l-64 -213q-31 31 -65 31
q-36 0 -56 -24.5t-20 -67.5v-70h121v-241h-121v-748z" />
    <glyph glyph-name="fi" unicode="fi" horiz-adv-x="980" 
d="M393 0h-276v748h-88v241h88v70q0 158 70.5 242.5t197.5 84.5q97 0 158 -26l-39 -221q-12 12 -39 12q-32 0 -52 -24t-20 -68v-70h121v-241h-121v-748zM758 1090q-68 0 -115 47t-47 116q0 68 47.5 116t114.5 48q68 0 116 -48.5t48 -115.5q0 -69 -48 -116t-116 -47zM897 0
h-279v989h279v-989z" />
    <glyph glyph-name="fl" unicode="fl" horiz-adv-x="980" 
d="M393 0h-276v748h-88v241h88v70q0 158 70.5 242.5t197.5 84.5q97 0 158 -26l-39 -221q-12 12 -39 12q-32 0 -52 -24t-20 -68v-70h121v-241h-121v-748zM897 0h-279v1366h279v-1366z" />
    <glyph glyph-name="f_f_i" unicode="ffi" horiz-adv-x="1517" 
d="M930 0h-277v748h-88v241h88v70q0 158 71 242.5t198 84.5q96 0 157 -26l-39 -221q-12 12 -39 12q-32 0 -51.5 -24t-19.5 -68v-70h121v-241h-121v-748zM1294 1090q-68 0 -114.5 47t-46.5 116q0 68 47 116t114 48q68 0 116 -48.5t48 -115.5q0 -69 -48 -116t-116 -47zM1434 0
h-279v989h279v-989zM393 0h-276v748h-88v241h88v70q0 160 74.5 243.5t218.5 83.5q119 0 188 -53l-63 -213q-31 31 -66 31q-36 0 -56 -24.5t-20 -67.5v-70h121v-241h-121v-748z" />
    <glyph glyph-name="f_f_l" unicode="ffl" horiz-adv-x="1517" 
d="M930 0h-277v748h-88v241h88v70q0 158 71 242.5t198 84.5q96 0 157 -26l-39 -221q-12 12 -39 12q-32 0 -51.5 -24t-19.5 -68v-70h121v-241h-121v-748zM1434 0h-279v1366h279v-1366zM393 0h-276v748h-88v241h88v70q0 160 74.5 243.5t218.5 83.5q119 0 188 -53l-63 -213
q-31 31 -66 31q-36 0 -56 -24.5t-20 -67.5v-70h121v-241h-121v-748z" />
    <glyph glyph-name="f_b" unicode="fb" horiz-adv-x="1443" 
d="M393 0h-276v748h-88v241h88v70q0 158 70.5 242.5t197.5 84.5q97 0 158 -26l-39 -221q-12 12 -39 12q-32 0 -52 -24t-20 -68v-70h121v-241h-121v-748zM897 317q15 -44 42 -71t58 -27q119 0 119 277q0 274 -119 274q-31 0 -57.5 -26.5t-42.5 -69.5v-357zM897 0h-279v1366
h279v-494q29 71 83.5 106.5t113.5 35.5q146 0 225.5 -139t79.5 -379q0 -246 -79 -383.5t-226 -137.5q-58 0 -111.5 36t-85.5 106v-117z" />
    <glyph glyph-name="f_h" unicode="fh" horiz-adv-x="1439" 
d="M393 0h-276v748h-88v241h88v70q0 158 70.5 242.5t197.5 84.5q97 0 158 -26l-39 -221q-12 12 -39 12q-32 0 -52 -24t-20 -68v-70h121v-241h-121v-748zM1358 0h-279v680q0 90 -67 90q-37 0 -67.5 -33.5t-47.5 -79.5v-657h-279v1366h279v-500q30 58 101 103t139 45
q221 0 221 -228v-786z" />
    <glyph glyph-name="f_k" unicode="fk" horiz-adv-x="1404" 
d="M393 0h-276v748h-88v241h88v70q0 158 70.5 242.5t197.5 84.5q97 0 158 -26l-39 -221q-12 12 -39 12q-32 0 -52 -24t-20 -68v-70h121v-241h-121v-748zM1405 0h-303l-127 367l-78 -148v-219h-279v1366h279v-786l188 409h306l-228 -438z" />
    <glyph glyph-name=".notdef" horiz-adv-x="911" 
d="M815 -184h-719v1724h719v-1724zM750 -123v1602h-590v-1602h590z" />
    <glyph glyph-name=".null" horiz-adv-x="0" 
 />
    <glyph glyph-name=".null" horiz-adv-x="0" 
 />
    <glyph glyph-name="nonmarkingreturn" horiz-adv-x="682" 
 />
    <glyph glyph-name="CR" unicode="&#xd;" horiz-adv-x="0" 
 />
    <glyph glyph-name="space" unicode=" " horiz-adv-x="325" 
 />
    <glyph glyph-name="exclam" unicode="!" horiz-adv-x="530" 
d="M389 455h-246l-45 911h334zM264 -25q-70 0 -121 52t-51 123q0 72 50.5 123t121.5 51q72 0 124 -51t52 -123q0 -71 -52 -123t-124 -52z" />
    <glyph glyph-name="quotedbl" unicode="&#x22;" horiz-adv-x="849" 
d="M295 758h-121q-88 442 -88 481q0 61 44 104t103 43q62 0 106 -43t44 -104q0 -17 -22 -137.5t-44 -231.5zM676 758h-117q-90 442 -90 481q0 62 43 104.5t106 42.5q60 0 103 -43t43 -104q0 -17 -22 -137.5t-44 -231.5z" />
    <glyph glyph-name="numbersign" unicode="#" horiz-adv-x="964" 
d="M584 0h-203l82 344h-121l-78 -344h-203l80 344h-110l41 174h110l78 328h-117l39 172h117l80 348h203l-80 -348h119l77 348h203l-80 -348h113l-37 -172h-117l-75 -328h120l-41 -174h-122zM502 518l78 328h-119l-76 -328h117z" />
    <glyph glyph-name="dollar" unicode="$" horiz-adv-x="843" 
d="M334 -205v182q-199 18 -318 140l129 241q43 -52 106.5 -80t127.5 -28q53 0 84 33.5t31 85.5q0 42 -24 77t-63 62.5t-85.5 56.5t-93.5 66.5t-86 83.5t-63 116t-24 156q0 131 73.5 238t205.5 145v203h205v-189q149 -18 254 -112l-115 -240q-82 82 -199 82q-49 0 -78.5 -30
t-29.5 -80q0 -37 24 -70t63 -61t85.5 -58t93 -69t85.5 -85.5t63 -116t24 -153.5q0 -146 -72 -251.5t-198 -143.5v-201h-205z" />
    <glyph glyph-name="percent" unicode="%" horiz-adv-x="1220" 
d="M309 705q-125 0 -200.5 96.5t-75.5 242.5q0 148 75.5 245t200.5 97q124 0 198.5 -97t74.5 -245q0 -146 -75 -242.5t-198 -96.5zM379 0h-113l576 1366h114zM913 -25q-125 0 -200.5 96t-75.5 242q0 148 75.5 246t200.5 98q123 0 198 -98t75 -246q0 -146 -75 -242t-198 -96z
M309 874q45 0 71 45.5t26 124.5q0 81 -26 128t-71 47q-44 0 -70 -47t-26 -128q0 -79 26 -124.5t70 -45.5zM913 143q44 0 70.5 46t26.5 124q0 84 -26 130t-71 46t-70.5 -46t-25.5 -130q0 -78 26 -124t70 -46z" />
    <glyph glyph-name="ampersand" unicode="&#x26;" horiz-adv-x="964" 
d="M981 0h-291l-47 72q-118 -97 -266 -97q-146 0 -240 105t-94 287q0 138 57.5 230.5t157.5 168.5q-74 176 -74 278q0 148 87 245t216 97q122 0 208.5 -88t86.5 -215q0 -47 -8.5 -88t-29 -76.5t-38.5 -61.5t-52.5 -56.5t-54.5 -47t-60 -46.5q16 -32 63 -115l55 -98
q32 96 58 211l219 -101q-58 -205 -133 -338q75 -116 180 -266zM438 193q52 0 97 51q-60 97 -97 168l-73 133q-48 -71 -48 -160q0 -78 35.5 -135t85.5 -57zM426 1044q0 -53 27 -139q94 80 94 168q0 56 -17 85.5t-43 29.5q-33 0 -47 -35t-14 -109z" />
    <glyph glyph-name="quotesingle" unicode="'" horiz-adv-x="468" 
d="M295 758h-121q-88 442 -88 481q0 61 44 104t103 43q62 0 106 -43t44 -104q0 -17 -22 -137.5t-44 -231.5z" />
    <glyph glyph-name="parenleft" unicode="(" horiz-adv-x="577" 
d="M535 -315l-205 -93q-234 424 -234 906q0 481 234 905l205 -90q-138 -395 -138 -815q0 -421 138 -813z" />
    <glyph glyph-name="parenright" unicode=")" horiz-adv-x="577" 
d="M248 -408l-205 93q137 389 137 813q0 423 -137 815l205 90q233 -422 233 -905q0 -484 -233 -906z" />
    <glyph glyph-name="asterisk" unicode="*" horiz-adv-x="673" 
d="M406 743h-136l11 224l-189 -119l-67 115l198 102l-198 102l67 115l189 -119l-11 223h136l-11 -223l187 119l67 -115l-198 -102l198 -102l-67 -115l-187 119z" />
    <glyph glyph-name="plus" unicode="+" horiz-adv-x="790" 
d="M731 606h-244v-291h-186v291h-242v168h242v277h186v-277h244v-168z" />
    <glyph glyph-name="comma" unicode="," horiz-adv-x="530" 
d="M451 106q0 -117 -58.5 -217.5t-161.5 -171.5l-116 95q52 29 100 86t61 110q-12 -8 -40 -8q-61 0 -102.5 43.5t-41.5 110.5q0 70 49.5 120t118.5 50q79 0 135 -59.5t56 -158.5z" />
    <glyph glyph-name="hyphen" unicode="-" horiz-adv-x="499" 
d="M438 379h-377v233h377v-233z" />
    <glyph glyph-name="period" unicode="." horiz-adv-x="530" 
d="M264 -23q-71 0 -121.5 51.5t-50.5 123.5q0 70 51 121t121 51q71 0 122.5 -51t51.5 -121q0 -72 -51.5 -123.5t-122.5 -51.5z" />
    <glyph glyph-name="slash" unicode="/" horiz-adv-x="493" 
d="M193 -41h-193l301 1448h193z" />
    <glyph glyph-name="zero" unicode="0" horiz-adv-x="970" 
d="M487 -25q-88 0 -161.5 39t-124 105.5t-85.5 157t-51 192.5t-16 213q0 141 26.5 265t78.5 223.5t137.5 157.5t195.5 58q88 0 160.5 -38.5t123 -104.5t85 -156t50.5 -191.5t16 -213.5q0 -140 -26.5 -264t-77.5 -224.5t-136.5 -159.5t-194.5 -59zM487 250q71 0 95 102
t24 330q0 229 -24 329.5t-95 100.5q-73 0 -96.5 -99t-23.5 -331q0 -231 23.5 -331.5t96.5 -100.5z" />
    <glyph glyph-name="one" unicode="1" horiz-adv-x="772" 
d="M676 0h-309v969l-183 -189l-176 185l400 401h268v-1366z" />
    <glyph glyph-name="two" unicode="2" horiz-adv-x="954" 
d="M897 0h-823v256q123 139 197.5 224.5t136.5 161.5t91 117t49.5 81.5t25 65.5t4.5 59q0 63 -35 105t-97 42q-132 0 -223 -141l-190 188q79 111 183 169t247 58q194 0 311 -112.5t117 -300.5q0 -134 -81.5 -273.5t-320.5 -429.5h408v-270z" />
    <glyph glyph-name="three" unicode="3" horiz-adv-x="952" 
d="M467 -25q-144 0 -257.5 61t-176.5 159l205 184q83 -129 215 -129q147 0 147 153q0 81 -47 117.5t-113 36.5q-63 0 -86 -4v278q16 -2 74 -2q74 0 116 35.5t42 104.5q0 143 -137 143q-60 0 -116 -30.5t-87 -86.5l-197 168q72 110 180.5 166.5t237.5 56.5q190 0 304 -94
t114 -278q0 -107 -66 -197.5t-166 -111.5q110 -20 180 -112.5t70 -213.5q0 -183 -119.5 -293.5t-316.5 -110.5z" />
    <glyph glyph-name="four" unicode="4" horiz-adv-x="948" 
d="M815 0h-309v272h-473v275l422 819h360v-821h100v-273h-100v-272zM506 545v467l-221 -467h221z" />
    <glyph glyph-name="five" unicode="5" horiz-adv-x="966" 
d="M471 -25q-282 0 -426 220l199 188q84 -133 207 -133q71 0 112 55t41 135q0 89 -35.5 138t-99.5 49q-50 0 -87.5 -26t-72.5 -81l-229 55v791h768v-270h-457v-310q30 48 84 77.5t117 29.5q148 0 238 -117.5t90 -329.5q0 -209 -121.5 -340t-327.5 -131z" />
    <glyph glyph-name="six" unicode="6" horiz-adv-x="956" 
d="M508 -25q-96 0 -173.5 37t-130 101t-88 153.5t-51.5 192.5t-16 221q0 321 135 513.5t369 192.5q94 0 177 -38t138 -105l-155 -225q-57 94 -152 94q-87 0 -143 -105t-56 -259v-15q29 73 93 116.5t143 43.5q134 0 223.5 -118.5t89.5 -328.5q0 -208 -113.5 -339.5
t-289.5 -131.5zM487 250q56 0 83.5 55t27.5 131q0 101 -33.5 147t-79.5 46q-72 0 -125 -119q13 -260 127 -260z" />
    <glyph glyph-name="seven" unicode="7" horiz-adv-x="862" 
d="M475 0h-330l342 1096h-454v270h796v-213z" />
    <glyph glyph-name="eight" unicode="8" horiz-adv-x="954" 
d="M477 -25q-210 0 -320 98t-110 277q0 116 69.5 216.5t166.5 138.5q-94 35 -157 121t-63 204q0 90 35 160.5t94 112t131.5 62.5t153.5 21q64 0 123 -13t112 -41t92.5 -68.5t63 -100.5t23.5 -133q0 -119 -63 -205t-158 -120q98 -38 167.5 -138t69.5 -215
q0 -180 -110.5 -278.5t-319.5 -98.5zM477 801q12 6 26 16.5t35 30.5t34.5 52t13.5 69q0 68 -28.5 105.5t-80.5 37.5t-81 -37.5t-29 -105.5q0 -37 13.5 -69t34.5 -52t35.5 -30.5t26.5 -16.5zM477 250q51 0 86 37.5t35 111.5q0 80 -44.5 133.5t-76.5 61.5q-32 -7 -76.5 -61
t-44.5 -134q0 -74 33.5 -111.5t87.5 -37.5z" />
    <glyph glyph-name="nine" unicode="9" horiz-adv-x="956" 
d="M401 -23q-94 0 -177 38.5t-136 105.5l156 225q57 -94 151 -94q81 0 139 102t58 260v17q-30 -72 -93 -116t-141 -44q-135 0 -224 118.5t-89 328.5q0 208 114 339.5t290 131.5q95 0 172 -37t129.5 -101t87.5 -153.5t51 -192.5t16 -221q0 -322 -134.5 -514.5t-369.5 -192.5z
M471 735q43 0 70.5 31.5t52.5 87.5q-3 53 -8.5 93t-18 81t-37 63.5t-59.5 22.5q-57 0 -86 -55t-29 -129q0 -101 33.5 -148t81.5 -47z" />
    <glyph glyph-name="colon" unicode=":" horiz-adv-x="530" 
d="M264 655q-70 0 -121 51.5t-51 122.5t51 123t121 52t122 -52t52 -123t-52 -122.5t-122 -51.5zM264 -23q-71 0 -121.5 51.5t-50.5 123.5q0 70 51 121t121 51q71 0 122.5 -51t51.5 -121q0 -72 -51.5 -123.5t-122.5 -51.5z" />
    <glyph glyph-name="semicolon" unicode=";" horiz-adv-x="530" 
d="M264 655q-70 0 -121 52.5t-51 123.5t51 122t121 51q71 0 122.5 -51.5t51.5 -121.5q0 -71 -52 -123.5t-122 -52.5zM451 109q0 -117 -58.5 -218t-161.5 -174l-116 97q51 27 99.5 84t61.5 110q-18 -6 -40 -6q-61 0 -102.5 43t-41.5 111q0 70 49.5 120t118.5 50q79 0 135 -59
t56 -158z" />
    <glyph glyph-name="less" unicode="&#x3c;" horiz-adv-x="790" 
d="M731 313l-672 273v200l672 273v-201l-477 -174l477 -170v-201z" />
    <glyph glyph-name="equal" unicode="=" horiz-adv-x="790" 
d="M731 793h-672v168h672v-168zM731 408h-672v167h672v-167z" />
    <glyph glyph-name="greater" unicode="&#x3e;" horiz-adv-x="790" 
d="M731 586l-672 -273v201l476 170l-476 174v201l672 -273v-200z" />
    <glyph glyph-name="question" unicode="?" horiz-adv-x="679" 
d="M227 426q-49 60 -49 184q0 59 18 110t43.5 87t51 68.5t43.5 70t18 76.5q0 41 -24.5 69.5t-63.5 28.5q-60 0 -100 -57l-125 188q129 135 301 135q148 0 232.5 -82t84.5 -214q0 -63 -23 -122t-56.5 -104.5t-66.5 -88t-56 -90t-23 -93.5q0 -42 27 -86zM344 -23
q-71 0 -123.5 51.5t-52.5 123.5q0 70 52.5 121t123.5 51q70 0 121 -51t51 -121q0 -72 -50.5 -123.5t-121.5 -51.5z" />
    <glyph glyph-name="at" unicode="@" horiz-adv-x="1337" 
d="M563 -143q-239 0 -365 155t-126 426q0 166 59 325t157 278.5t235 192.5t284 73q202 0 330.5 -133t128.5 -357q0 -170 -48 -318t-132 -236.5t-183 -88.5q-72 0 -123 35.5t-63 97.5l-2 21q-31 -47 -61 -77.5t-77 -53.5t-102 -23q-83 0 -139.5 62.5t-56.5 205.5
q0 140 48 271.5t141 219t208 87.5q59 0 96 -34t51 -93l23 98h244l-105 -493q-6 -30 -6 -52q0 -44 13 -65t44 -21q15 0 33.5 19.5t37 59.5t34 93t25.5 126.5t10 154.5q0 194 -100.5 303t-272.5 109q-174 0 -325 -115t-236.5 -294.5t-85.5 -371.5q0 -86 15 -161t47 -139
t80.5 -109.5t118.5 -71.5t156 -26q87 0 160 27.5t154 84.5l43 -63q-181 -129 -367 -129zM608 369q10 0 19 2t16.5 4.5t16 8.5t13.5 9.5t12.5 12.5t11 12.5t11 14.5t9.5 14t9.5 15.5t8.5 14.5l53 258q-16 90 -73 90q-43 0 -79 -34.5t-57 -87t-32.5 -110t-11.5 -108.5
q0 -116 73 -116z" />
    <glyph glyph-name="A" unicode="A" horiz-adv-x="929" 
d="M936 0h-318l-34 221h-238l-35 -221h-317l293 1366h356zM547 492l-82 534l-82 -534h164z" />
    <glyph glyph-name="B" unicode="B" horiz-adv-x="976" 
d="M582 0h-486v1366h469q89 0 157 -28.5t108 -78.5t59.5 -110.5t19.5 -130.5q0 -124 -58 -205.5t-155 -107.5q102 -17 167 -111.5t65 -222.5q0 -79 -19.5 -144t-59.5 -117t-108 -81t-159 -29zM481 829q111 0 111 134q0 133 -111 133h-75v-267h75zM489 270q59 0 90 37t31 109
q0 66 -31.5 104.5t-89.5 38.5h-83v-289h83z" />
    <glyph glyph-name="C" unicode="C" horiz-adv-x="917" 
d="M514 -25q-118 0 -208 52t-145.5 147.5t-83.5 223t-28 284.5q0 158 28 285.5t83.5 222.5t145.5 147t208 52q71 0 129 -22.5t95.5 -56t68.5 -84t47.5 -93t32.5 -97.5l-246 -90q-19 85 -47 126.5t-80 41.5q-147 0 -147 -432t147 -432q105 0 129 194l246 -88
q-14 -57 -29.5 -103t-46 -100.5t-69 -91t-98 -61.5t-132.5 -25z" />
    <glyph glyph-name="D" unicode="D" horiz-adv-x="1024" 
d="M479 0h-383v1366h381q103 0 186 -34.5t140.5 -95.5t96.5 -147t57 -187.5t18 -219.5q0 -149 -29 -271t-87.5 -215t-155 -144.5t-224.5 -51.5zM477 270q180 0 180 412q0 414 -180 414h-71v-826h71z" />
    <glyph glyph-name="E" unicode="E" horiz-adv-x="802" 
d="M739 0h-643v1366h643v-270h-333v-267h319v-270h-319v-289h333v-270z" />
    <glyph glyph-name="F" unicode="F" horiz-adv-x="794" 
d="M406 0h-310v1366h643v-270h-333v-267h319v-270h-319v-559z" />
    <glyph glyph-name="G" unicode="G" horiz-adv-x="970" 
d="M514 -25q-117 0 -206.5 51.5t-146 146t-84.5 222.5t-28 287t28.5 288t85 223t145.5 145t206 51q145 0 240 -98.5t133 -254.5l-246 -90q-15 79 -44 123.5t-83 44.5q-147 0 -147 -432t147 -432q75 0 111 51v193h-140v270h412v-600q-78 -93 -169.5 -141t-213.5 -48z" />
    <glyph glyph-name="H" unicode="H" horiz-adv-x="1040" 
d="M944 0h-309v567h-229v-567h-310v1366h310v-528h229v528h309v-1366z" />
    <glyph glyph-name="I" unicode="I" horiz-adv-x="501" 
d="M406 0h-310v1366h310v-1366z" />
    <glyph glyph-name="J" unicode="J" horiz-adv-x="741" 
d="M244 -25q-139 0 -228 66l78 254q42 -45 113 -45q61 0 96 33.5t35 99.5v983h311v-999q0 -197 -108.5 -294.5t-296.5 -97.5z" />
    <glyph glyph-name="K" unicode="K" horiz-adv-x="1017" 
d="M1022 0h-350l-185 485l-81 -172v-313h-310v1366h310v-592l253 592h338l-325 -639z" />
    <glyph glyph-name="L" unicode="L" horiz-adv-x="778" 
d="M739 0h-643v1366h310v-1096h333v-270z" />
    <glyph glyph-name="M" unicode="M" horiz-adv-x="1323" 
d="M1227 0h-305v731l-211 -731h-101l-204 731v-731h-310v1366h387l179 -625l182 625h383v-1366z" />
    <glyph glyph-name="N" unicode="N" horiz-adv-x="1040" 
d="M944 0h-289l-249 645v-645h-310v1366h310l229 -614v614h309v-1366z" />
    <glyph glyph-name="O" unicode="O" horiz-adv-x="1024" 
d="M512 -25q-155 0 -261 93t-154 249t-48 365t48 365t154 249t261 93t261 -93t154 -249t48 -365t-48 -365t-154 -249t-261 -93zM512 250q145 0 145 432t-145 432t-145 -432t145 -432z" />
    <glyph glyph-name="P" unicode="P" horiz-adv-x="960" 
d="M406 0h-310v1366h412q104 0 185 -36t130.5 -98t75 -141t25.5 -169t-25.5 -169t-75 -141t-130.5 -97.5t-185 -35.5h-102v-479zM473 750q63 0 99 47t36 127q0 79 -36 125.5t-99 46.5h-67v-346h67z" />
    <glyph glyph-name="Q" unicode="Q" horiz-adv-x="1026" 
d="M512 -25q-155 0 -261 93t-154 249t-48 365t48 365t154 249t261 93t261 -93t154 -249t48 -365q0 -356 -137 -545l49 -127l-211 -84l-27 72q-71 -23 -137 -23zM512 250q21 0 37 8l-78 203l180 69q6 71 6 152q0 432 -145 432t-145 -432t145 -432z" />
    <glyph glyph-name="R" unicode="R" horiz-adv-x="993" 
d="M936 0h-332l-133 479h-65v-479h-310v1366h428q173 0 286.5 -122.5t113.5 -309.5q0 -273 -170 -381zM473 750q63 0 99 46.5t36 125.5q0 80 -36 127t-99 47h-67v-346h67z" />
    <glyph glyph-name="S" unicode="S" horiz-adv-x="851" 
d="M399 -25q-241 0 -383 142l129 241q43 -52 106.5 -80t127.5 -28q53 0 84 33.5t31 85.5q0 42 -24 77t-63 62.5t-85.5 56.5t-93.5 66.5t-86 83.5t-63 116t-24 156q0 106 46 196t142 148t226 58q95 0 179.5 -30.5t144.5 -86.5l-115 -240q-82 82 -199 82q-49 0 -78.5 -30
t-29.5 -80q0 -37 24 -70t63 -61t85.5 -58t93 -69t85.5 -85.5t63 -116t24 -153.5q0 -185 -112 -300.5t-298 -115.5z" />
    <glyph glyph-name="T" unicode="T" horiz-adv-x="788" 
d="M551 0h-311v1096h-203v270h715v-270h-201v-1096z" />
    <glyph glyph-name="U" unicode="U" horiz-adv-x="1040" 
d="M520 -25q-82 0 -156.5 26.5t-135 78t-96.5 138.5t-36 198v950h310v-967q0 -153 114 -153q115 0 115 153v967h311v-948q0 -112 -36 -199t-97 -139t-135.5 -78.5t-157.5 -26.5z" />
    <glyph glyph-name="V" unicode="V" horiz-adv-x="929" 
d="M643 0h-356l-293 1366h317l154 -971l153 971h318z" />
    <glyph glyph-name="W" unicode="W" horiz-adv-x="1331" 
d="M1073 0h-309l-98 795l-99 -795h-309l-242 1366h314l96 -827l121 827h237l123 -827l94 827h316z" />
    <glyph glyph-name="X" unicode="X" horiz-adv-x="970" 
d="M979 0h-342l-152 430l-151 -430h-342l313 698l-297 668h342l135 -408l133 408h343l-297 -668z" />
    <glyph glyph-name="Y" unicode="Y" horiz-adv-x="942" 
d="M627 0h-312v559l-327 807h329l154 -514l156 514h325l-325 -807v-559z" />
    <glyph glyph-name="Z" unicode="Z" horiz-adv-x="806" 
d="M750 0h-693v260l328 836h-328v270h678v-248l-336 -848h351v-270z" />
    <glyph glyph-name="bracketleft" unicode="[" horiz-adv-x="442" 
d="M406 -389h-332v1778h332v-183h-136v-1413h136v-182z" />
    <glyph glyph-name="backslash" unicode="\" horiz-adv-x="493" 
d="M301 -41l-301 1448h193l301 -1448h-193z" />
    <glyph glyph-name="bracketright" unicode="]" horiz-adv-x="442" 
d="M371 -389h-334v182h135v1413h-135v183h334v-1778z" />
    <glyph glyph-name="asciicircum" unicode="^" horiz-adv-x="698" 
d="M659 682h-196l-115 463l-115 -463h-194l211 684h201z" />
    <glyph glyph-name="underscore" unicode="_" horiz-adv-x="571" 
d="M578 -264h-584v182h584v-182z" />
    <glyph glyph-name="grave" unicode="`" horiz-adv-x="395" 
d="M395 1139h-172l-223 295h233z" />
    <glyph glyph-name="a" unicode="a" 
d="M807 0h-277v94q-31 -53 -93 -86t-122 -33q-121 0 -197.5 88.5t-76.5 239.5t76 235.5t198 84.5q62 0 124 -29.5t91 -81.5v104q0 76 -38 120t-109 44q-98 0 -205 -96l-98 195q64 68 166 101.5t196 33.5q167 0 266 -83t99 -247v-684zM420 160q76 0 110 82v112
q-35 84 -110 84q-50 0 -77.5 -37.5t-27.5 -101.5q0 -63 27.5 -101t77.5 -38z" />
    <glyph glyph-name="b" unicode="b" horiz-adv-x="905" 
d="M360 317q15 -44 42.5 -71t58.5 -27q119 0 119 277q0 274 -119 274q-31 0 -58 -26.5t-43 -69.5v-357zM360 0h-278v1366h278v-494q29 71 83.5 106.5t113.5 35.5q146 0 225.5 -139t79.5 -379q0 -246 -79 -383.5t-226 -137.5q-58 0 -111.5 36t-85.5 106v-117z" />
    <glyph glyph-name="c" unicode="c" horiz-adv-x="733" 
d="M449 -25q-185 0 -295.5 144.5t-110.5 376.5q0 231 110 374.5t296 143.5q83 0 151.5 -25t106.5 -63l-84 -215q-62 59 -121 59q-82 0 -128 -76.5t-46 -197.5t46 -199t128 -78q58 0 121 60l84 -216q-37 -39 -105.5 -63.5t-152.5 -24.5z" />
    <glyph glyph-name="d" unicode="d" horiz-adv-x="905" 
d="M823 0h-276v117q-34 -70 -87 -106t-112 -36q-148 0 -226.5 137t-78.5 384q0 241 79 379.5t226 138.5q60 0 115 -35.5t84 -106.5v494h276v-1366zM444 219q30 0 59 28t44 70v359q-15 40 -44 67t-59 27q-116 0 -116 -274q0 -277 116 -277z" />
    <glyph glyph-name="e" unicode="e" horiz-adv-x="860" 
d="M463 -25q-197 0 -308.5 143t-111.5 378q0 146 44 261.5t136.5 186t220.5 70.5q97 0 170.5 -38t118.5 -107.5t67.5 -161.5t22.5 -205v-99h-512q2 -91 47 -146.5t136 -55.5q42 0 86 22.5t79 63.5l127 -158q-62 -73 -148.5 -113.5t-174.5 -40.5zM559 594q0 197 -125 197
q-47 0 -76 -32.5t-38 -73t-9 -91.5h248z" />
    <glyph glyph-name="f" unicode="f" horiz-adv-x="536" 
d="M393 0h-276v748h-88v241h88v70q0 160 74.5 243.5t218.5 83.5q119 0 188 -53l-63 -213q-31 31 -66 31q-36 0 -56 -24.5t-20 -67.5v-70h121v-241h-121v-748z" />
    <glyph glyph-name="g" unicode="g" horiz-adv-x="905" 
d="M412 -401q-208 0 -326 110l90 219q97 -94 205 -94q76 0 121 51.5t45 155.5v121q-34 -70 -87.5 -107t-111.5 -37q-149 0 -227 127t-78 371q0 238 78.5 368t226.5 130q60 0 115 -35.5t84 -106.5v117h276v-940q0 -103 -23 -182.5t-61.5 -129t-93 -81.5t-111 -44.5
t-122.5 -12.5zM444 264q30 0 59 26t44 66v320q-15 41 -43.5 67.5t-59.5 26.5q-64 0 -90 -64.5t-26 -189.5q0 -126 26 -189t90 -63z" />
    <glyph glyph-name="h" unicode="h" horiz-adv-x="903" 
d="M821 0h-278v680q0 90 -68 90q-37 0 -67.5 -33.5t-47.5 -79.5v-657h-278v1366h278v-500q30 58 101 103t139 45q221 0 221 -228v-786z" />
    <glyph glyph-name="i" unicode="i" horiz-adv-x="442" 
d="M221 1090q-68 0 -115 47t-47 116q0 68 47.5 116t114.5 48t115.5 -48.5t48.5 -115.5q0 -69 -48 -116t-116 -47zM360 0h-278v989h278v-989z" />
    <glyph glyph-name="j" unicode="j" horiz-adv-x="442" 
d="M221 1090q-68 0 -115 47t-47 116q0 68 47.5 116t114.5 48t115.5 -48.5t48.5 -115.5q0 -69 -48 -116t-116 -47zM55 -401q-86 0 -141 41l53 217q19 -23 51 -23q64 0 64 111v1044h278v-1044q0 -346 -305 -346z" />
    <glyph glyph-name="k" unicode="k" horiz-adv-x="868" 
d="M868 0h-303l-127 367l-78 -148v-219h-278v1366h278v-786l189 409h305l-227 -438z" />
    <glyph glyph-name="l" unicode="l" horiz-adv-x="442" 
d="M360 0h-278v1366h278v-1366z" />
    <glyph glyph-name="m" unicode="m" horiz-adv-x="1363" 
d="M1280 0h-276v678q0 92 -68 92q-37 0 -67.5 -35t-47.5 -78v-657h-278v678q0 92 -68 92q-37 0 -67.5 -35t-47.5 -78v-657h-278v989h278v-123q25 53 97.5 100.5t142.5 47.5q83 0 140.5 -40.5t70.5 -121.5q29 63 102 112.5t148 49.5q101 0 160 -56t59 -176v-782z" />
    <glyph glyph-name="n" unicode="n" horiz-adv-x="903" 
d="M821 0h-278v678q0 92 -68 92q-37 0 -67.5 -33.5t-47.5 -79.5v-657h-278v989h278v-123q30 58 101 103t139 45q114 0 167.5 -62t53.5 -170v-782z" />
    <glyph glyph-name="o" unicode="o" 
d="M444 -25q-100 0 -178.5 42.5t-126 115.5t-72 165.5t-24.5 197.5t24.5 197t72 164.5t126 114.5t178.5 42t178.5 -42t126.5 -114.5t72.5 -164.5t24.5 -197t-24.5 -197.5t-72.5 -165.5t-126.5 -115.5t-178.5 -42.5zM444 219q117 0 117 277q0 274 -117 274q-63 0 -88.5 -72.5
t-25.5 -201.5q0 -131 25.5 -204t88.5 -73z" />
    <glyph glyph-name="p" unicode="p" horiz-adv-x="905" 
d="M557 -25q-59 0 -113.5 35.5t-83.5 106.5v-494h-278v1366h278v-117q32 70 85.5 106t111.5 36q147 0 226 -136.5t79 -383.5q0 -240 -79.5 -379.5t-225.5 -139.5zM461 219q119 0 119 275q0 276 -119 276q-32 0 -59 -25t-42 -67v-365q15 -42 42 -68t59 -26z" />
    <glyph glyph-name="q" unicode="q" horiz-adv-x="905" 
d="M444 219q31 0 59.5 26.5t43.5 67.5v365q-15 41 -43.5 66.5t-59.5 25.5q-116 0 -116 -276q0 -275 116 -275zM348 -25q-147 0 -226 139t-79 380q0 248 78.5 384t226.5 136q59 0 112 -36t87 -106v117h276v-1366h-276v494q-29 -71 -84 -106.5t-115 -35.5z" />
    <glyph glyph-name="r" unicode="r" horiz-adv-x="604" 
d="M360 0h-278v989h278v-129q27 64 93 109t127 45v-269q-36 9 -50 9q-44 0 -92.5 -31t-77.5 -78v-645z" />
    <glyph glyph-name="s" unicode="s" horiz-adv-x="745" 
d="M365 -25q-116 0 -205.5 36t-143.5 95l111 191q43 -44 100 -74t111 -30q52 0 82.5 22.5t30.5 60.5q0 26 -22 46.5t-57 36t-77.5 32.5t-85 43t-77.5 60.5t-57 91.5t-22 129q0 127 89.5 213t252.5 86q90 0 172 -32.5t144 -88.5l-109 -186q-30 35 -85.5 62.5t-115.5 27.5
q-40 0 -66 -20.5t-26 -51.5q0 -24 22.5 -43.5t58 -35t79 -33.5t87 -44.5t79 -61.5t58 -91.5t22.5 -128.5q0 -137 -97.5 -224.5t-252.5 -87.5z" />
    <glyph glyph-name="t" unicode="t" horiz-adv-x="552" 
d="M367 -25q-133 0 -191.5 67t-58.5 206v500h-90v241h90v271h276v-271h121v-241h-121v-443q0 -86 49 -86q38 0 54 23l49 -219q-61 -48 -178 -48z" />
    <glyph glyph-name="u" unicode="u" horiz-adv-x="903" 
d="M821 0h-278v119q-30 -57 -100 -100.5t-140 -43.5q-221 0 -221 228v786h278v-680q0 -90 68 -90q37 0 67.5 32t47.5 77v661h278v-989z" />
    <glyph glyph-name="v" unicode="v" horiz-adv-x="835" 
d="M565 0h-295l-274 989h293l127 -641l131 641h293z" />
    <glyph glyph-name="w" unicode="w" horiz-adv-x="1312" 
d="M1077 0h-291l-129 612l-131 -612h-290l-234 989h285l116 -616l115 616h260l131 -616l115 616h287z" />
    <glyph glyph-name="x" unicode="x" horiz-adv-x="808" 
d="M811 0h-295l-113 295l-112 -295h-293l233 498l-223 491h291l104 -289l105 289h291l-224 -491z" />
    <glyph glyph-name="y" unicode="y" horiz-adv-x="835" 
d="M90 -385l39 240q16 -13 43 -13q63 0 80 62l22 76l-278 1009h293l127 -639l131 639h293l-318 -1143q-41 -142 -111.5 -194.5t-197.5 -52.5q-86 0 -123 16z" />
    <glyph glyph-name="z" unicode="z" horiz-adv-x="720" 
d="M674 0h-627v207l285 541h-285v241h619v-196l-287 -551h295v-242z" />
    <glyph glyph-name="braceleft" unicode="{" horiz-adv-x="466" 
d="M432 -389h-55q-106 0 -184 72t-78 182v424q0 60 -27.5 97.5t-79.5 37.5v151q52 0 79.5 39t27.5 99v420q0 110 78 183t184 73h55v-183h-55q-28 0 -47 -20.5t-19 -52.5v-449q0 -145 -92 -184q92 -39 92 -185v-450q0 -31 19 -52.5t47 -21.5h55v-180z" />
    <glyph glyph-name="bar" unicode="|" horiz-adv-x="372" 
d="M279 -41h-183v1448h183v-1448z" />
    <glyph glyph-name="braceright" unicode="}" horiz-adv-x="466" 
d="M35 -389v180h55q28 0 48 21.5t20 52.5v450q0 146 92 185q-92 39 -92 184v449q0 32 -20 52.5t-48 20.5h-55v183h55q106 0 185 -73t79 -183v-420q0 -60 27.5 -99t79.5 -39v-151q-52 0 -79.5 -37.5t-27.5 -97.5v-424q0 -109 -79 -181.5t-185 -72.5h-55z" />
    <glyph glyph-name="asciitilde" unicode="~" horiz-adv-x="874" 
d="M635 1366l186 -14q-3 -53 -6 -92t-11 -96t-19 -98t-30.5 -86t-45 -73t-63.5 -46.5t-85 -18.5q-52 0 -89.5 26.5t-55.5 66t-31.5 85.5t-20 85.5t-19 66t-30.5 26.5q-34 0 -48 -72.5t-27 -285.5l-187 14q2 60 7 109t15 112.5t28.5 111t46 90.5t69.5 66t96 23
q52 0 89.5 -26.5t55.5 -66.5t31.5 -86t20 -86t19 -66.5t30.5 -26.5q34 0 47.5 71t26.5 287z" />
    <glyph glyph-name="nbspace" unicode="&#xa0;" horiz-adv-x="325" 
 />
    <glyph glyph-name="exclamdown" unicode="&#xa1;" horiz-adv-x="530" 
d="M98 -377l45 912h244l45 -912h-334zM92 840q0 71 51 121.5t123 50.5q71 0 122.5 -51t51.5 -121q0 -72 -51.5 -124t-122.5 -52q-72 0 -123 52t-51 124z" />
    <glyph glyph-name="cent" unicode="&#xa2;" horiz-adv-x="733" 
d="M332 -205v199q-135 41 -212 176t-77 326t77 324.5t212 174.5v162h200v-151q112 -17 175 -80l-84 -215q-62 59 -121 59q-82 0 -128 -76.5t-46 -197.5t46 -199t128 -78q58 0 121 60l84 -216q-58 -61 -175 -79v-189h-200z" />
    <glyph glyph-name="sterling" unicode="&#xa3;" horiz-adv-x="915" 
d="M61 571v174h78q-49 114 -49 226q0 118 61 214.5t157 148.5t202 52q141 0 241.5 -73t125.5 -213l-250 -103q-23 140 -99 140q-43 0 -72.5 -46.5t-29.5 -123.5q0 -47 8 -90t16.5 -68t24.5 -64h143v-174h-102q2 -14 2 -47q0 -60 -30.5 -132t-75.5 -111q39 16 75 16
q45 0 100 -23.5t93 -23.5q93 0 141 55l78 -244q-30 -35 -100 -60.5t-146 -25.5q-51 0 -96 13.5t-72 29.5t-61 29.5t-66 13.5q-86 0 -182 -75l-84 209q68 45 110 111.5t42 133.5q0 58 -25 131h-158z" />
    <glyph glyph-name="currency" unicode="&#xa4;" horiz-adv-x="954" 
d="M477 197q-103 0 -174 36l-133 -133l-164 162l133 133q-63 120 -63 287q0 171 65 289l-135 135l164 162l137 -140q76 37 170 37q91 0 170 -37l139 140l162 -162l-135 -135q66 -126 66 -289q0 -169 -66 -289l135 -133l-162 -162l-137 135q-71 -36 -172 -36zM477 434
q67 0 103 69t36 179q0 109 -36 177.5t-103 68.5t-103 -68.5t-36 -177.5q0 -110 36 -179t103 -69z" />
    <glyph glyph-name="yen" unicode="&#xa5;" horiz-adv-x="942" 
d="M883 559h-830v168h830v-168zM883 233h-830v168h830v-168zM627 0h-312v559l-327 807h329l154 -514l156 514h325l-325 -807v-559z" />
    <glyph glyph-name="brokenbar" unicode="&#xa6;" horiz-adv-x="372" 
d="M279 -41h-183v647h183v-647zM279 760h-183v647h183v-647z" />
    <glyph glyph-name="section" unicode="&#xa7;" horiz-adv-x="747" 
d="M715 659q0 -76 -37.5 -144t-108.5 -112q76 -51 111 -113t35 -145q0 -131 -100 -221t-250 -90q-227 0 -349 131l111 185q35 -40 94 -75.5t117 -35.5q55 0 84 28.5t29 69.5q0 32 -22 58t-57 44.5t-77.5 38t-85 45t-77.5 58.5t-57 86.5t-22 120.5q0 87 44 151t116 95
q-160 97 -160 268q0 126 90.5 205t231.5 79q121 0 197 -31.5t137 -92.5l-107 -166q-93 96 -194 96q-45 0 -72 -23.5t-27 -62.5q0 -30 22.5 -54t58 -42.5t79 -38t87 -45.5t79 -59.5t58 -87t22.5 -120.5zM473 592q0 111 -88 158q-90 -21 -90 -109q0 -50 25.5 -88.5t87.5 -69.5
q65 36 65 109z" />
    <glyph glyph-name="dieresis" unicode="&#xa8;" horiz-adv-x="581" 
d="M616 1253q0 -61 -42.5 -103t-104.5 -42q-60 0 -102.5 42t-42.5 103t42.5 103.5t102.5 42.5q62 0 104.5 -42.5t42.5 -103.5zM258 1253q0 -60 -42 -102.5t-103 -42.5q-60 0 -103 42.5t-43 102.5t43 103t103 43q61 0 103 -43t42 -103z" />
    <glyph glyph-name="copyright" unicode="&#xa9;" horiz-adv-x="1593" 
d="M1503 684q0 -143 -56 -274t-150.5 -226t-225.5 -151t-274 -56q-191 0 -354 95t-258 258t-95 354t95 354t258 258t354 95q143 0 274 -56t225.5 -151t150.5 -226t56 -274zM1425 684q0 169 -84.5 314t-229.5 230t-314 85t-314 -85t-230 -230t-85 -314t85 -314t230 -230
t314 -85t314 85t229.5 230t84.5 314zM1047 457l69 -64q-121 -141 -307 -141q-179 0 -302.5 124t-123.5 310q0 185 123.5 307.5t302.5 122.5q186 0 303 -137l-65 -66q-40 55 -103.5 87t-134.5 32q-137 0 -233.5 -97.5t-96.5 -248.5q0 -149 97 -249.5t233 -100.5
q72 0 134.5 33t103.5 88z" />
    <glyph glyph-name="ordfeminine" unicode="&#xaa;" horiz-adv-x="638" 
d="M569 668h-198v63q-19 -34 -58.5 -57t-91.5 -23q-81 0 -134.5 54.5t-53.5 154.5t53.5 155.5t134.5 55.5q52 0 91.5 -21t58.5 -51v68q0 52 -27 81.5t-74 29.5q-73 0 -141 -74l-70 131q43 47 115 69.5t139 22.5q118 0 187 -57.5t69 -175.5v-426zM297 780q55 0 74 51v74
q-20 49 -74 49q-31 0 -49.5 -23t-18.5 -63q0 -41 18.5 -64.5t49.5 -23.5z" />
    <glyph glyph-name="guillemotleft" unicode="&#xab;" horiz-adv-x="851" 
d="M791 129h-211l-185 369l185 362h211l-185 -362zM455 129h-209l-185 369l185 362h209l-185 -362z" />
    <glyph glyph-name="logicalnot" unicode="&#xac;" horiz-adv-x="790" 
d="M731 961v-553h-176v385h-496v168h672z" />
    <glyph glyph-name="uni00AD" unicode="&#xad;" horiz-adv-x="499" 
d="M438 379h-377v233h377v-233z" />
    <glyph glyph-name="registered" unicode="&#xae;" horiz-adv-x="1011" 
d="M940 952q0 -180 -126.5 -307t-307.5 -127q-180 0 -307 127t-127 307q0 181 127 307.5t307 126.5q119 0 219 -57.5t157.5 -157.5t57.5 -219zM872 952q0 155 -106 261t-260 106t-260.5 -106t-106.5 -261q0 -152 106.5 -259t260.5 -107q153 0 259.5 106.5t106.5 259.5z
M711 702h-88l-129 197h-84v-197h-72v498h203q66 0 115 -42t49 -109q0 -72 -46 -110t-81 -38zM631 1049q0 39 -28 64.5t-62 25.5h-131v-176h131q34 0 62 24.5t28 61.5z" />
    <glyph glyph-name="macron" unicode="&#xaf;" horiz-adv-x="538" 
d="M539 1147h-539v156h539v-156z" />
    <glyph glyph-name="degree" unicode="&#xb0;" horiz-adv-x="643" 
d="M602 1106q0 -117 -83 -199t-200 -82q-116 0 -198 82t-82 199q0 116 82.5 198t197.5 82q117 0 200 -82t83 -198zM455 1106q0 54 -40.5 93.5t-95.5 39.5q-54 0 -92.5 -39.5t-38.5 -93.5q0 -55 38.5 -94t92.5 -39q56 0 96 39t40 94z" />
    <glyph glyph-name="plusminus" unicode="&#xb1;" horiz-adv-x="790" 
d="M731 606h-244v-291h-186v291h-242v168h242v277h186v-277h244v-168zM731 37h-672v170h672v-170z" />
    <glyph glyph-name="twosuperior" unicode="&#xb2;" horiz-adv-x="630" 
d="M602 862h-549v152q153 148 222 222.5t93.5 117t24.5 84.5q0 40 -26 66t-68 26q-41 0 -80 -25.5t-69 -70.5l-121 122q109 138 282 138q131 0 209 -65.5t78 -182.5q0 -83 -61 -171t-224 -249h289v-164z" />
    <glyph glyph-name="threesuperior" unicode="&#xb3;" horiz-adv-x="630" 
d="M600 1090q0 -109 -80.5 -175.5t-208.5 -66.5q-96 0 -170.5 35.5t-115.5 95.5l129 125q62 -92 149 -92q48 0 72 26t24 66q0 51 -31.5 72.5t-76.5 21.5q-50 0 -62 -2v162q10 -2 54 -2q51 0 78.5 22.5t27.5 63.5q0 43 -24 65.5t-68 22.5q-38 0 -76.5 -22t-62.5 -60l-125 113
q100 133 278 133q127 0 202 -57.5t75 -166.5q0 -66 -43 -120t-107 -66q69 -11 115.5 -65.5t46.5 -128.5z" />
    <glyph glyph-name="acute" unicode="&#xb4;" horiz-adv-x="395" 
d="M395 1434l-223 -295h-172l164 295h231z" />
    <glyph glyph-name="mu" unicode="&#xb5;" horiz-adv-x="931" 
d="M360 -6v-371h-278v1366h278v-680q0 -90 70 -90q37 0 66.5 32t46.5 77v661h278v-702q0 -68 49 -68q13 0 29 4l19 -229q-47 -19 -123 -19q-106 0 -164.5 43.5t-77.5 135.5q-19 -79 -58 -129t-83 -50q-33 0 -52 19z" />
    <glyph glyph-name="paragraph" unicode="&#xb6;" horiz-adv-x="919" 
d="M831 -205h-133v1438h-157v-1438h-133v867q-146 0 -249.5 103t-103.5 249t103.5 249t249.5 103h423v-1571z" />
    <glyph glyph-name="periodcentered" unicode="&#xb7;" horiz-adv-x="530" 
d="M440 500q0 -71 -52 -122.5t-124 -51.5q-70 0 -121 51.5t-51 122.5q0 72 51 124t121 52q72 0 124 -52t52 -124z" />
    <glyph glyph-name="cedilla" unicode="&#xb8;" horiz-adv-x="391" 
d="M184 -401q-51 0 -101 18t-83 47l51 105q66 -56 127 -56q34 0 56 17.5t22 46.5q0 22 -11.5 35.5t-31.5 13.5q-27 0 -51 -27l-96 56l61 168h135l-53 -127q26 20 59 20q52 0 87.5 -40.5t35.5 -102.5q0 -80 -57.5 -127t-149.5 -47z" />
    <glyph glyph-name="onesuperior" unicode="&#xb9;" horiz-adv-x="530" 
d="M451 862h-209v555l-113 -114l-117 122l260 256h179v-819z" />
    <glyph glyph-name="ordmasculine" unicode="&#xba;" horiz-adv-x="651" 
d="M324 651q-134 0 -208.5 98t-74.5 240q0 143 74 240.5t209 97.5q138 0 212 -97t74 -241q0 -92 -30.5 -167t-96.5 -123t-159 -48zM324 811q47 0 63 44t16 134q0 91 -15.5 133.5t-63.5 42.5q-42 0 -60 -44.5t-18 -131.5q0 -178 78 -178z" />
    <glyph glyph-name="guillemotright" unicode="&#xbb;" horiz-adv-x="851" 
d="M455 498l-185 -369h-209l185 369l-185 362h209zM791 498l-185 -369h-211l185 369l-185 362h211z" />
    <glyph glyph-name="onequarter" unicode="&#xbc;" horiz-adv-x="1400" 
d="M451 547h-209v555l-113 -115l-117 123l260 256h179v-819zM1376 170h-65v-170h-207v170h-309v160l266 489h250v-485h65v-164zM1104 334v264l-137 -264h137zM1049 1366l-580 -1366h-113l578 1366h115z" />
    <glyph glyph-name="onehalf" unicode="&#xbd;" horiz-adv-x="1476" 
d="M451 547h-209v555l-113 -115l-117 123l260 256h179v-819zM1450 0h-549v152q221 213 280.5 287.5t59.5 135.5q0 40 -26 66.5t-68 26.5q-41 0 -80.5 -26t-69.5 -71l-120 123q108 137 282 137q131 0 209 -65t78 -182q0 -83 -61 -171t-224 -249h289v-164zM1049 1366
l-580 -1366h-113l578 1366h115z" />
    <glyph glyph-name="threequarters" unicode="&#xbe;" horiz-adv-x="1474" 
d="M1450 170h-66v-170h-206v170h-310v160l267 489h249v-485h66v-164zM1178 334v264l-138 -264h138zM1122 1366l-579 -1366h-113l578 1366h114zM600 774q0 -109 -80.5 -175.5t-208.5 -66.5q-96 0 -170.5 36t-115.5 96l129 124q62 -92 149 -92q48 0 72 26t24 66q0 51 -31.5 73
t-76.5 22q-50 0 -62 -2v161q10 -2 54 -2q51 0 78.5 22.5t27.5 63.5q0 43 -24 65.5t-68 22.5q-38 0 -76.5 -21.5t-62.5 -59.5l-125 112q100 133 278 133q127 0 202 -57t75 -166q0 -66 -43 -120t-107 -66q68 -11 115 -66t47 -129z" />
    <glyph glyph-name="questiondown" unicode="&#xbf;" horiz-adv-x="606" 
d="M453 563q49 -70 49 -184q0 -59 -18 -111t-43.5 -88.5t-51 -69.5t-43.5 -70.5t-18 -76.5t25 -68.5t63 -29.5q54 0 100 61l123 -190q-123 -135 -301 -135q-147 0 -231 82.5t-84 212.5q0 64 23 123t55.5 104.5t65.5 88t56 90t23 93.5q0 47 -27 86zM336 1012q71 0 122.5 -51
t51.5 -121q0 -72 -51.5 -123t-122.5 -51q-72 0 -123 51t-51 123q0 71 51 121.5t123 50.5z" />
    <glyph glyph-name="Agrave" unicode="&#xc0;" horiz-adv-x="929" 
d="M936 0h-318l-34 221h-238l-35 -221h-317l293 1366h356zM547 492l-82 534l-82 -534h164zM563 1481h-172l-223 295h233z" />
    <glyph glyph-name="Aacute" unicode="&#xc1;" horiz-adv-x="929" 
d="M936 0h-318l-34 221h-238l-35 -221h-317l293 1366h356zM547 492l-82 534l-82 -534h164zM762 1776l-223 -295h-172l163 295h232z" />
    <glyph glyph-name="Acircumflex" unicode="&#xc2;" horiz-adv-x="929" 
d="M717 1481h-150l-104 176l-96 -176h-152l125 295h246zM936 0h-318l-34 221h-238l-35 -221h-317l293 1366h356zM547 492l-82 534l-82 -534h164z" />
    <glyph glyph-name="Atilde" unicode="&#xc3;" horiz-adv-x="929" 
d="M936 0h-318l-34 221h-238l-35 -221h-317l293 1366h356zM547 492l-82 534l-82 -534h164zM557 1477q-35 0 -64.5 20.5t-45.5 45t-35.5 45t-36.5 20.5q-23 0 -37 -30t-14 -89h-136q0 123 50 198.5t137 75.5q35 0 64.5 -20.5t46 -45t36 -45t37.5 -20.5q49 0 49 119h135
q0 -124 -49 -199t-137 -75z" />
    <glyph glyph-name="Adieresis" unicode="&#xc4;" horiz-adv-x="929" 
d="M788 1595q0 -61 -42.5 -103t-104.5 -42q-60 0 -102.5 42t-42.5 103t42.5 103.5t102.5 42.5q62 0 104.5 -42.5t42.5 -103.5zM430 1595q0 -60 -42 -102.5t-103 -42.5q-60 0 -103 42.5t-43 102.5t43 103t103 43q61 0 103 -43t42 -103zM936 0h-318l-34 221h-238l-35 -221
h-317l293 1366h356zM547 492l-82 534l-82 -534h164z" />
    <glyph glyph-name="Aring" unicode="&#xc5;" horiz-adv-x="929" 
d="M936 0h-318l-34 221h-238l-35 -221h-317l293 1366h356zM547 492l-82 534l-82 -534h164zM467 1413q-77 0 -132.5 55.5t-55.5 133.5t55.5 133t132.5 55q76 0 130 -55t54 -133t-54 -133.5t-130 -55.5zM467 1530q29 0 49.5 20.5t20.5 51.5q0 30 -20.5 50.5t-49.5 20.5
q-30 0 -51 -20.5t-21 -50.5t21 -51t51 -21z" />
    <glyph glyph-name="AE" unicode="&#xc6;" horiz-adv-x="1296" 
d="M1245 0h-641v221h-223l-64 -221h-315l467 1366h776v-270h-332v-267h318v-270h-318v-289h332v-270zM604 492v534l-151 -534h151z" />
    <glyph glyph-name="Ccedilla" unicode="&#xc7;" horiz-adv-x="917" 
d="M504 -393q-51 0 -101.5 18t-83.5 47l52 105q66 -56 127 -56q34 0 55.5 17.5t21.5 46.5q0 22 -11.5 35.5t-31.5 13.5q-27 0 -51 -27l-96 56l43 121q-128 23 -214 119t-125.5 241.5t-39.5 337.5q0 158 28 285.5t83.5 222.5t145.5 147t208 52q71 0 129 -22.5t95.5 -56
t68.5 -84t47.5 -93t32.5 -97.5l-246 -90q-19 85 -47 126.5t-80 41.5q-147 0 -147 -432t147 -432q105 0 129 194l246 -88q-13 -53 -27.5 -96.5t-42 -95t-61 -88t-85.5 -64.5t-114 -35l-31 -73q26 20 60 20q52 0 87.5 -40.5t35.5 -102.5q0 -80 -57.5 -127t-149.5 -47z" />
    <glyph glyph-name="Egrave" unicode="&#xc8;" horiz-adv-x="802" 
d="M739 0h-643v1366h643v-270h-333v-267h319v-270h-319v-289h333v-270zM514 1481h-172l-223 295h233z" />
    <glyph glyph-name="Eacute" unicode="&#xc9;" horiz-adv-x="802" 
d="M713 1776l-224 -295h-172l164 295h232zM739 0h-643v1366h643v-270h-333v-267h319v-270h-319v-289h333v-270z" />
    <glyph glyph-name="Ecircumflex" unicode="&#xca;" horiz-adv-x="802" 
d="M668 1481h-150l-104 176l-97 -176h-151l125 295h246zM739 0h-643v1366h643v-270h-333v-267h319v-270h-319v-289h333v-270z" />
    <glyph glyph-name="Edieresis" unicode="&#xcb;" horiz-adv-x="802" 
d="M748 1595q0 -61 -43 -103t-105 -42q-60 0 -102.5 42t-42.5 103t42.5 103.5t102.5 42.5q62 0 105 -42.5t43 -103.5zM389 1595q0 -60 -42 -102.5t-103 -42.5q-60 0 -103 42.5t-43 102.5t43 103t103 43q61 0 103 -43t42 -103zM739 0h-643v1366h643v-270h-333v-267h319v-270
h-319v-289h333v-270z" />
    <glyph glyph-name="Igrave" unicode="&#xcc;" horiz-adv-x="501" 
d="M406 0h-310v1366h310v-1366zM348 1481h-172l-223 295h233z" />
    <glyph glyph-name="Iacute" unicode="&#xcd;" horiz-adv-x="501" 
d="M406 0h-310v1366h310v-1366zM547 1776l-223 -295h-172l163 295h232z" />
    <glyph glyph-name="Icircumflex" unicode="&#xce;" horiz-adv-x="501" 
d="M502 1481h-150l-104 176l-96 -176h-152l125 295h246zM406 0h-310v1366h310v-1366z" />
    <glyph glyph-name="Idieresis" unicode="&#xcf;" horiz-adv-x="501" 
d="M578 1595q0 -61 -43 -103t-105 -42q-60 0 -102.5 42t-42.5 103t42.5 103.5t102.5 42.5q62 0 105 -42.5t43 -103.5zM219 1595q0 -60 -42 -102.5t-103 -42.5q-60 0 -103 42.5t-43 102.5t43 103t103 43q61 0 103 -43t42 -103zM406 0h-310v1366h310v-1366z" />
    <glyph glyph-name="Eth" unicode="&#xd0;" horiz-adv-x="1073" 
d="M528 0h-383v563h-118v230h118v573h381q103 0 186 -34.5t140.5 -95.5t96.5 -147t57 -187.5t18 -219.5q0 -149 -29 -271t-87.5 -215t-155 -144.5t-224.5 -51.5zM526 270q88 0 134.5 104t46.5 308q0 414 -181 414h-71v-303h125v-230h-125v-293h71z" />
    <glyph glyph-name="Ntilde" unicode="&#xd1;" horiz-adv-x="1040" 
d="M610 1477q-35 0 -64.5 20.5t-45.5 45t-35.5 45t-36.5 20.5q-23 0 -37 -30t-14 -89h-135q0 123 49.5 198.5t136.5 75.5q35 0 64.5 -20.5t46 -45t36 -45t37.5 -20.5q50 0 50 119h135q0 -124 -49.5 -199t-137.5 -75zM944 0h-289l-249 645v-645h-310v1366h310l229 -614v614
h309v-1366z" />
    <glyph glyph-name="Ograve" unicode="&#xd2;" horiz-adv-x="1024" 
d="M610 1481h-172l-223 295h234zM512 -25q-155 0 -261 93t-154 249t-48 365t48 365t154 249t261 93t261 -93t154 -249t48 -365t-48 -365t-154 -249t-261 -93zM512 250q145 0 145 432t-145 432t-145 -432t145 -432z" />
    <glyph glyph-name="Oacute" unicode="&#xd3;" horiz-adv-x="1024" 
d="M809 1776l-223 -295h-172l164 295h231zM512 -25q-155 0 -261 93t-154 249t-48 365t48 365t154 249t261 93t261 -93t154 -249t48 -365t-48 -365t-154 -249t-261 -93zM512 250q145 0 145 432t-145 432t-145 -432t145 -432z" />
    <glyph glyph-name="Ocircumflex" unicode="&#xd4;" horiz-adv-x="1024" 
d="M766 1481h-150l-104 176l-96 -176h-152l125 295h246zM512 -25q-155 0 -261 93t-154 249t-48 365t48 365t154 249t261 93t261 -93t154 -249t48 -365t-48 -365t-154 -249t-261 -93zM512 250q145 0 145 432t-145 432t-145 -432t145 -432z" />
    <glyph glyph-name="Otilde" unicode="&#xd5;" horiz-adv-x="1024" 
d="M512 -25q-155 0 -261 93t-154 249t-48 365t48 365t154 249t261 93t261 -93t154 -249t48 -365t-48 -365t-154 -249t-261 -93zM512 250q145 0 145 432t-145 432t-145 -432t145 -432zM606 1477q-35 0 -64.5 20.5t-45.5 45t-35.5 45t-36.5 20.5q-23 0 -37 -30t-14 -89h-135
q0 123 49.5 198.5t136.5 75.5q35 0 64.5 -20.5t46 -45t36 -45t37.5 -20.5q49 0 49 119h136q0 -124 -49.5 -199t-137.5 -75z" />
    <glyph glyph-name="Odieresis" unicode="&#xd6;" horiz-adv-x="1024" 
d="M838 1595q0 -61 -43 -103t-105 -42q-60 0 -102.5 42t-42.5 103t42.5 103.5t102.5 42.5q62 0 105 -42.5t43 -103.5zM479 1595q0 -60 -42 -102.5t-103 -42.5q-60 0 -103 42.5t-43 102.5t43 103t103 43q61 0 103 -43t42 -103zM512 -25q-155 0 -261 93t-154 249t-48 365
t48 365t154 249t261 93t261 -93t154 -249t48 -365t-48 -365t-154 -249t-261 -93zM512 250q145 0 145 432t-145 432t-145 -432t145 -432z" />
    <glyph glyph-name="multiply" unicode="&#xd7;" horiz-adv-x="790" 
d="M596 367l-201 198l-200 -198l-119 118l200 199l-200 199l119 118l200 -198l201 198l119 -118l-199 -199l199 -199z" />
    <glyph glyph-name="Oslash" unicode="&#xd8;" horiz-adv-x="1024" 
d="M512 -25q-136 0 -240 74l-24 -49h-172l88 170q-115 187 -115 512q0 209 48 365t154 249t261 93q138 0 240 -76l26 53h172l-90 -174q115 -187 115 -510q0 -209 -48 -365t-154 -249t-261 -93zM367 682q0 -76 2 -113l239 467q-37 78 -96 78q-145 0 -145 -432zM512 250
q145 0 145 432q0 74 -2 109l-239 -465q36 -76 96 -76z" />
    <glyph glyph-name="Ugrave" unicode="&#xd9;" horiz-adv-x="1040" 
d="M520 -25q-82 0 -156.5 26.5t-135 78t-96.5 138.5t-36 198v950h310v-967q0 -153 114 -153q115 0 115 153v967h311v-948q0 -112 -36 -199t-97 -139t-135.5 -78.5t-157.5 -26.5zM618 1481h-172l-223 295h234z" />
    <glyph glyph-name="Uacute" unicode="&#xda;" horiz-adv-x="1040" 
d="M817 1776l-223 -295h-172l164 295h231zM520 -25q-82 0 -156.5 26.5t-135 78t-96.5 138.5t-36 198v950h310v-967q0 -153 114 -153q115 0 115 153v967h311v-948q0 -112 -36 -199t-97 -139t-135.5 -78.5t-157.5 -26.5z" />
    <glyph glyph-name="Ucircumflex" unicode="&#xdb;" horiz-adv-x="1040" 
d="M774 1481h-149l-105 176l-96 -176h-152l125 295h246zM520 -25q-82 0 -156.5 26.5t-135 78t-96.5 138.5t-36 198v950h310v-967q0 -153 114 -153q115 0 115 153v967h311v-948q0 -112 -36 -199t-97 -139t-135.5 -78.5t-157.5 -26.5z" />
    <glyph glyph-name="Udieresis" unicode="&#xdc;" horiz-adv-x="1040" 
d="M846 1595q0 -61 -43 -103t-105 -42q-60 0 -102.5 42t-42.5 103t42.5 103.5t102.5 42.5q62 0 105 -42.5t43 -103.5zM487 1595q0 -60 -42 -102.5t-103 -42.5q-60 0 -102.5 42.5t-42.5 102.5t42.5 103t102.5 43q61 0 103 -43t42 -103zM520 -25q-82 0 -156.5 26.5t-135 78
t-96.5 138.5t-36 198v950h310v-967q0 -153 114 -153q115 0 115 153v967h311v-948q0 -112 -36 -199t-97 -139t-135.5 -78.5t-157.5 -26.5z" />
    <glyph glyph-name="Yacute" unicode="&#xdd;" horiz-adv-x="942" 
d="M627 0h-312v559l-327 807h329l154 -514l156 514h325l-325 -807v-559zM768 1776l-223 -295h-172l164 295h231z" />
    <glyph glyph-name="Thorn" unicode="&#xde;" horiz-adv-x="960" 
d="M406 0h-310v1366h310v-217h102q103 0 184.5 -36.5t131 -98.5t75 -141t25.5 -168t-25.5 -167.5t-75 -141t-131 -98.5t-184.5 -36h-102v-262zM473 532q63 0 99 46.5t36 126.5q0 79 -36.5 126.5t-98.5 47.5h-67v-347h67z" />
    <glyph glyph-name="germandbls" unicode="&#xdf;" horiz-adv-x="1124" 
d="M1100 287q0 -123 -94 -217.5t-240 -94.5q-199 0 -324 131l95 193q88 -102 172 -102q45 0 71.5 22t26.5 60q0 26 -19 48.5t-49 40.5t-66.5 37t-73 45t-66.5 58t-49 81.5t-19 110.5q0 54 19 97.5t46.5 71.5t55 53t46.5 54t19 62q0 44 -37.5 74.5t-95.5 30.5q-69 0 -109 -41
t-40 -129v-973h-279v973q0 174 117 293.5t311 119.5q166 0 289 -92t123 -223q0 -61 -20.5 -111t-49 -80.5t-57.5 -55t-49.5 -49.5t-20.5 -50t20 -44.5t52.5 -35.5t71.5 -33.5t78.5 -44t72 -61.5t52.5 -91.5t20 -127.5z" />
    <glyph glyph-name="agrave" unicode="&#xe0;" 
d="M807 0h-277v94q-31 -53 -93 -86t-122 -33q-121 0 -197.5 88.5t-76.5 239.5t76 235.5t198 84.5q62 0 124 -29.5t91 -81.5v104q0 76 -38 120t-109 44q-98 0 -205 -96l-98 195q64 68 166 101.5t196 33.5q167 0 266 -83t99 -247v-684zM420 160q76 0 110 82v112
q-35 84 -110 84q-50 0 -77.5 -37.5t-27.5 -101.5q0 -63 27.5 -101t77.5 -38zM541 1139h-172l-224 295h234z" />
    <glyph glyph-name="aacute" unicode="&#xe1;" 
d="M807 0h-277v94q-31 -53 -93 -86t-122 -33q-121 0 -197.5 88.5t-76.5 239.5t76 235.5t198 84.5q62 0 124 -29.5t91 -81.5v104q0 76 -38 120t-109 44q-98 0 -205 -96l-98 195q64 68 166 101.5t196 33.5q167 0 266 -83t99 -247v-684zM420 160q76 0 110 82v112
q-35 84 -110 84q-50 0 -77.5 -37.5t-27.5 -101.5q0 -63 27.5 -101t77.5 -38zM739 1434l-223 -295h-172l164 295h231z" />
    <glyph glyph-name="acircumflex" unicode="&#xe2;" 
d="M807 0h-277v94q-31 -53 -93 -86t-122 -33q-121 0 -197.5 88.5t-76.5 239.5t76 235.5t198 84.5q62 0 124 -29.5t91 -81.5v104q0 76 -38 120t-109 44q-98 0 -205 -96l-98 195q64 68 166 101.5t196 33.5q167 0 266 -83t99 -247v-684zM420 160q76 0 110 82v112
q-35 84 -110 84q-50 0 -77.5 -37.5t-27.5 -101.5q0 -63 27.5 -101t77.5 -38zM702 1139h-149l-104 176l-97 -176h-151l125 295h245z" />
    <glyph glyph-name="atilde" unicode="&#xe3;" 
d="M807 0h-277v94q-31 -53 -93 -86t-122 -33q-121 0 -197.5 88.5t-76.5 239.5t76 235.5t198 84.5q62 0 124 -29.5t91 -81.5v104q0 76 -38 120t-109 44q-98 0 -205 -96l-98 195q64 68 166 101.5t196 33.5q167 0 266 -83t99 -247v-684zM420 160q76 0 110 82v112
q-35 84 -110 84q-50 0 -77.5 -37.5t-27.5 -101.5q0 -63 27.5 -101t77.5 -38zM539 1135q-35 0 -64.5 20.5t-46 45t-36 45t-36.5 20.5q-23 0 -37 -30t-14 -89h-135q0 123 49.5 198.5t136.5 75.5q29 0 53.5 -13.5t41 -32.5t31 -38.5t29.5 -33t30 -13.5q49 0 49 119h135
q0 -124 -49 -199t-137 -75z" />
    <glyph glyph-name="adieresis" unicode="&#xe4;" 
d="M807 0h-277v94q-31 -53 -93 -86t-122 -33q-121 0 -197.5 88.5t-76.5 239.5t76 235.5t198 84.5q62 0 124 -29.5t91 -81.5v104q0 76 -38 120t-109 44q-98 0 -205 -96l-98 195q64 68 166 101.5t196 33.5q167 0 266 -83t99 -247v-684zM420 160q76 0 110 82v112
q-35 84 -110 84q-50 0 -77.5 -37.5t-27.5 -101.5q0 -63 27.5 -101t77.5 -38zM774 1253q0 -61 -42.5 -103t-104.5 -42q-60 0 -103 42t-43 103t43 103.5t103 42.5q62 0 104.5 -42.5t42.5 -103.5zM416 1253q0 -60 -42.5 -102.5t-103.5 -42.5q-60 0 -102.5 42.5t-42.5 102.5
t42.5 103t102.5 43q61 0 103.5 -43t42.5 -103z" />
    <glyph glyph-name="aring" unicode="&#xe5;" 
d="M807 0h-277v94q-31 -53 -93 -86t-122 -33q-121 0 -197.5 88.5t-76.5 239.5t76 235.5t198 84.5q62 0 124 -29.5t91 -81.5v104q0 76 -38 120t-109 44q-98 0 -205 -96l-98 195q64 68 166 101.5t196 33.5q167 0 266 -83t99 -247v-684zM420 160q76 0 110 82v112
q-35 84 -110 84q-50 0 -77.5 -37.5t-27.5 -101.5q0 -63 27.5 -101t77.5 -38zM444 1090q-77 0 -132.5 55t-55.5 133t55.5 133t132.5 55t131 -55t54 -133t-54 -133t-131 -55zM444 1206q29 0 49.5 20.5t20.5 51.5t-20.5 51.5t-49.5 20.5q-30 0 -50.5 -21t-20.5 -51t20.5 -51
t50.5 -21z" />
    <glyph glyph-name="ae" unicode="&#xe6;" horiz-adv-x="1343" 
d="M1307 403h-510q5 -93 49.5 -147.5t132.5 -54.5q42 0 85.5 22.5t76.5 63.5l129 -158q-62 -74 -148 -114t-174 -40q-97 0 -159.5 36t-118.5 112q-54 -69 -126.5 -108.5t-181.5 -39.5q-144 0 -232.5 85.5t-88.5 236.5t77 238.5t199 87.5q62 0 124 -29.5t91 -81.5v104
q0 76 -37.5 120t-109.5 44q-100 0 -207 -96l-98 195q63 67 163 101t179 34q183 0 252 -127q46 60 108 93.5t156 33.5q122 0 206.5 -68.5t123.5 -183t39 -266.5v-93zM797 594h245q0 37 -5.5 69t-17.5 62.5t-37 48t-60 17.5q-47 0 -76.5 -33.5t-39 -74.5t-9.5 -89zM532 326v28
q-34 84 -116 84q-49 0 -79 -35t-30 -90q0 -62 29 -93.5t80 -31.5t83.5 41t32.5 97z" />
    <glyph glyph-name="ccedilla" unicode="&#xe7;" horiz-adv-x="733" 
d="M446 -397q-51 0 -101 18t-83 47l51 105q66 -56 127 -56q34 0 56 17.5t22 46.5q0 22 -11.5 35.5t-31.5 13.5q-27 0 -51 -27l-96 56l45 125q-153 29 -241.5 168t-88.5 344q0 231 110 374.5t296 143.5q83 0 151.5 -25t106.5 -63l-84 -215q-62 59 -121 59q-82 0 -128 -76.5
t-46 -197.5t46 -199t128 -78q58 0 121 60l84 -216q-68 -68 -203 -83l-33 -80q26 20 59 20q52 0 87.5 -40.5t35.5 -102.5q0 -80 -57.5 -127t-149.5 -47z" />
    <glyph glyph-name="egrave" unicode="&#xe8;" horiz-adv-x="860" 
d="M463 -25q-197 0 -308.5 143t-111.5 378q0 146 44 261.5t136.5 186t220.5 70.5q97 0 170.5 -38t118.5 -107.5t67.5 -161.5t22.5 -205v-99h-512q2 -91 47 -146.5t136 -55.5q42 0 86 22.5t79 63.5l127 -158q-62 -73 -148.5 -113.5t-174.5 -40.5zM559 594q0 197 -125 197
q-47 0 -76 -32.5t-38 -73t-9 -91.5h248zM543 1139h-172l-224 295h234z" />
    <glyph glyph-name="eacute" unicode="&#xe9;" horiz-adv-x="860" 
d="M739 1434l-223 -295h-172l164 295h231zM463 -25q-197 0 -308.5 143t-111.5 378q0 146 44 261.5t136.5 186t220.5 70.5q97 0 170.5 -38t118.5 -107.5t67.5 -161.5t22.5 -205v-99h-512q2 -91 47 -146.5t136 -55.5q42 0 86 22.5t79 63.5l127 -158q-62 -73 -148.5 -113.5
t-174.5 -40.5zM559 594q0 197 -125 197q-47 0 -76 -32.5t-38 -73t-9 -91.5h248z" />
    <glyph glyph-name="ecircumflex" unicode="&#xea;" horiz-adv-x="860" 
d="M690 1139h-149l-105 176l-96 -176h-152l125 295h246zM463 -25q-197 0 -308.5 143t-111.5 378q0 146 44 261.5t136.5 186t220.5 70.5q97 0 170.5 -38t118.5 -107.5t67.5 -161.5t22.5 -205v-99h-512q2 -91 47 -146.5t136 -55.5q42 0 86 22.5t79 63.5l127 -158
q-62 -73 -148.5 -113.5t-174.5 -40.5zM559 594q0 197 -125 197q-47 0 -76 -32.5t-38 -73t-9 -91.5h248z" />
    <glyph glyph-name="edieresis" unicode="&#xeb;" horiz-adv-x="860" 
d="M764 1253q0 -61 -43 -103t-105 -42q-60 0 -102.5 42t-42.5 103t42.5 103.5t102.5 42.5q62 0 105 -42.5t43 -103.5zM406 1253q0 -60 -42.5 -102.5t-103.5 -42.5q-60 0 -102.5 42.5t-42.5 102.5t42.5 103t102.5 43q61 0 103.5 -43t42.5 -103zM463 -25q-197 0 -308.5 143
t-111.5 378q0 146 44 261.5t136.5 186t220.5 70.5q97 0 170.5 -38t118.5 -107.5t67.5 -161.5t22.5 -205v-99h-512q2 -91 47 -146.5t136 -55.5q42 0 86 22.5t79 63.5l127 -158q-62 -73 -148.5 -113.5t-174.5 -40.5zM559 594q0 197 -125 197q-47 0 -76 -32.5t-38 -73t-9 -91.5
h248z" />
    <glyph glyph-name="igrave" unicode="&#xec;" horiz-adv-x="442" 
d="M360 0h-278v989h278v-989zM319 1139h-172l-223 295h234z" />
    <glyph glyph-name="iacute" unicode="&#xed;" horiz-adv-x="442" 
d="M518 1434l-223 -295h-172l164 295h231zM360 0h-278v989h278v-989z" />
    <glyph glyph-name="icircumflex" unicode="&#xee;" horiz-adv-x="442" 
d="M473 1139h-149l-105 176l-96 -176h-152l125 295h246zM360 0h-278v989h278v-989z" />
    <glyph glyph-name="idieresis" unicode="&#xef;" horiz-adv-x="442" 
d="M547 1253q0 -61 -43 -103t-105 -42q-60 0 -102.5 42t-42.5 103t42.5 103.5t102.5 42.5q62 0 105 -42.5t43 -103.5zM188 1253q0 -60 -42 -102.5t-103 -42.5q-60 0 -102.5 42.5t-42.5 102.5t42.5 103t102.5 43q61 0 103 -43t42 -103zM360 0h-278v989h278v-989z" />
    <glyph glyph-name="eth" unicode="&#xf0;" 
d="M297 1004l-57 126l188 82q-18 42 -68 127l242 111q50 -86 70 -131l129 57l53 -125l-127 -57q119 -302 119 -625q0 -283 -100 -438.5t-302 -155.5q-81 0 -147.5 26t-113 71t-78.5 106.5t-47 132t-15 148.5q0 130 35.5 237t109 174.5t172.5 67.5q136 0 201 -147
q-22 146 -78 294zM444 219q117 0 117 238q0 235 -117 235q-114 0 -114 -235q0 -238 114 -238z" />
    <glyph glyph-name="ntilde" unicode="&#xf1;" horiz-adv-x="903" 
d="M821 0h-278v678q0 92 -68 92q-37 0 -67.5 -33.5t-47.5 -79.5v-657h-278v989h278v-123q30 58 101 103t139 45q114 0 167.5 -62t53.5 -170v-782zM545 1135q-35 0 -64.5 20.5t-46 45t-36 45t-36.5 20.5q-23 0 -37 -30t-14 -89h-135q0 123 49.5 198.5t136.5 75.5
q29 0 53.5 -13.5t41 -32.5t31 -38.5t29.5 -33t30 -13.5q49 0 49 119h135q0 -124 -49 -199t-137 -75z" />
    <glyph glyph-name="ograve" unicode="&#xf2;" 
d="M444 -25q-100 0 -178.5 42.5t-126 115.5t-72 165.5t-24.5 197.5t24.5 197t72 164.5t126 114.5t178.5 42t178.5 -42t126.5 -114.5t72.5 -164.5t24.5 -197t-24.5 -197.5t-72.5 -165.5t-126.5 -115.5t-178.5 -42.5zM444 219q117 0 117 277q0 274 -117 274q-63 0 -88.5 -72.5
t-25.5 -201.5q0 -131 25.5 -204t88.5 -73zM543 1139h-172l-224 295h234z" />
    <glyph glyph-name="oacute" unicode="&#xf3;" 
d="M739 1434l-223 -295h-172l164 295h231zM444 -25q-100 0 -178.5 42.5t-126 115.5t-72 165.5t-24.5 197.5t24.5 197t72 164.5t126 114.5t178.5 42t178.5 -42t126.5 -114.5t72.5 -164.5t24.5 -197t-24.5 -197.5t-72.5 -165.5t-126.5 -115.5t-178.5 -42.5zM444 219
q117 0 117 277q0 274 -117 274q-63 0 -88.5 -72.5t-25.5 -201.5q0 -131 25.5 -204t88.5 -73z" />
    <glyph glyph-name="ocircumflex" unicode="&#xf4;" 
d="M698 1139h-149l-105 176l-96 -176h-151l125 295h245zM444 -25q-100 0 -178.5 42.5t-126 115.5t-72 165.5t-24.5 197.5t24.5 197t72 164.5t126 114.5t178.5 42t178.5 -42t126.5 -114.5t72.5 -164.5t24.5 -197t-24.5 -197.5t-72.5 -165.5t-126.5 -115.5t-178.5 -42.5z
M444 219q117 0 117 277q0 274 -117 274q-63 0 -88.5 -72.5t-25.5 -201.5q0 -131 25.5 -204t88.5 -73z" />
    <glyph glyph-name="otilde" unicode="&#xf5;" 
d="M444 -25q-100 0 -178.5 42.5t-126 115.5t-72 165.5t-24.5 197.5t24.5 197t72 164.5t126 114.5t178.5 42t178.5 -42t126.5 -114.5t72.5 -164.5t24.5 -197t-24.5 -197.5t-72.5 -165.5t-126.5 -115.5t-178.5 -42.5zM444 219q117 0 117 277q0 274 -117 274q-63 0 -88.5 -72.5
t-25.5 -201.5q0 -131 25.5 -204t88.5 -73zM537 1135q-35 0 -64.5 20.5t-46 45t-36 45t-36.5 20.5q-23 0 -37 -30t-14 -89h-135q0 123 49.5 198.5t136.5 75.5q29 0 53.5 -13.5t41 -32.5t31 -38.5t29.5 -33t30 -13.5q49 0 49 119h135q0 -124 -49 -199t-137 -75z" />
    <glyph glyph-name="odieresis" unicode="&#xf6;" 
d="M770 1253q0 -61 -42.5 -103t-104.5 -42q-60 0 -103 42t-43 103t43 103.5t103 42.5q62 0 104.5 -42.5t42.5 -103.5zM412 1253q0 -60 -42.5 -102.5t-103.5 -42.5q-60 0 -102.5 42.5t-42.5 102.5t42.5 103t102.5 43q61 0 103.5 -43t42.5 -103zM444 -25q-100 0 -178.5 42.5
t-126 115.5t-72 165.5t-24.5 197.5t24.5 197t72 164.5t126 114.5t178.5 42t178.5 -42t126.5 -114.5t72.5 -164.5t24.5 -197t-24.5 -197.5t-72.5 -165.5t-126.5 -115.5t-178.5 -42.5zM444 219q117 0 117 277q0 274 -117 274q-63 0 -88.5 -72.5t-25.5 -201.5q0 -131 25.5 -204
t88.5 -73z" />
    <glyph glyph-name="divide" unicode="&#xf7;" horiz-adv-x="765" 
d="M514 989q0 -53 -38 -91t-93 -38q-52 0 -89.5 38t-37.5 91q0 54 37 91.5t90 37.5q55 0 93 -37.5t38 -91.5zM707 606h-648v168h648v-168zM514 389q0 -54 -38 -91.5t-93 -37.5q-53 0 -90 37.5t-37 91.5t37 91.5t90 37.5q55 0 93 -37.5t38 -91.5z" />
    <glyph glyph-name="oslash" unicode="&#xf8;" 
d="M205 0h-150l84 133q-96 137 -96 363q0 105 24.5 197t72 164.5t126 114.5t178.5 42q123 0 215 -66l27 41h148l-84 -133q96 -137 96 -360q0 -105 -24.5 -197.5t-72.5 -165.5t-126.5 -115.5t-178.5 -42.5q-121 0 -215 64zM330 496v-64l188 295q-25 43 -74 43
q-63 0 -88.5 -72.5t-25.5 -201.5zM444 219q117 0 117 277q0 41 -2 61l-188 -297q24 -41 73 -41z" />
    <glyph glyph-name="ugrave" unicode="&#xf9;" horiz-adv-x="903" 
d="M821 0h-278v119q-30 -57 -100 -100.5t-140 -43.5q-221 0 -221 228v786h278v-680q0 -90 68 -90q37 0 67.5 32t47.5 77v661h278v-989zM549 1139h-172l-223 295h233z" />
    <glyph glyph-name="uacute" unicode="&#xfa;" horiz-adv-x="903" 
d="M748 1434l-224 -295h-172l164 295h232zM821 0h-278v119q-30 -57 -100 -100.5t-140 -43.5q-221 0 -221 228v786h278v-680q0 -90 68 -90q37 0 67.5 32t47.5 77v661h278v-989z" />
    <glyph glyph-name="ucircumflex" unicode="&#xfb;" horiz-adv-x="903" 
d="M705 1139h-150l-104 176l-97 -176h-151l125 295h245zM821 0h-278v119q-30 -57 -100 -100.5t-140 -43.5q-221 0 -221 228v786h278v-680q0 -90 68 -90q37 0 67.5 32t47.5 77v661h278v-989z" />
    <glyph glyph-name="udieresis" unicode="&#xfc;" horiz-adv-x="903" 
d="M778 1253q0 -61 -42.5 -103t-104.5 -42q-60 0 -103 42t-43 103t43 103.5t103 42.5q62 0 104.5 -42.5t42.5 -103.5zM420 1253q0 -60 -42.5 -102.5t-103.5 -42.5q-60 0 -102.5 42.5t-42.5 102.5t42.5 103t102.5 43q61 0 103.5 -43t42.5 -103zM821 0h-278v119
q-30 -57 -100 -100.5t-140 -43.5q-221 0 -221 228v786h278v-680q0 -90 68 -90q37 0 67.5 32t47.5 77v661h278v-989z" />
    <glyph glyph-name="yacute" unicode="&#xfd;" horiz-adv-x="835" 
d="M90 -385l39 240q16 -13 43 -13q63 0 80 62l22 76l-278 1009h293l127 -639l131 639h293l-318 -1143q-41 -142 -111.5 -194.5t-197.5 -52.5q-86 0 -123 16zM713 1434l-224 -295h-172l164 295h232z" />
    <glyph glyph-name="thorn" unicode="&#xfe;" horiz-adv-x="905" 
d="M557 -25q-60 0 -114 34.5t-83 103.5v-490h-278v1743h278v-489q32 69 84.5 103t112.5 34q147 0 226 -136.5t79 -383.5q0 -240 -79.5 -379.5t-225.5 -139.5zM461 219q119 0 119 275q0 276 -119 276q-32 0 -59 -25t-42 -67v-365q15 -42 42 -68t59 -26z" />
    <glyph glyph-name="ydieresis" unicode="&#xff;" horiz-adv-x="835" 
d="M90 -385l39 240q16 -13 43 -13q63 0 80 62l22 76l-278 1009h293l127 -639l131 639h293l-318 -1143q-41 -142 -111.5 -194.5t-197.5 -52.5q-86 0 -123 16zM745 1253q0 -61 -42.5 -103t-104.5 -42q-60 0 -102.5 42t-42.5 103t42.5 103.5t102.5 42.5q62 0 104.5 -42.5
t42.5 -103.5zM387 1253q0 -60 -42 -102.5t-103 -42.5q-60 0 -103 42.5t-43 102.5t43 103t103 43q61 0 103 -43t42 -103z" />
    <glyph glyph-name="Amacron" unicode="&#x100;" horiz-adv-x="929" 
d="M936 0h-318l-34 221h-238l-35 -221h-317l293 1366h356zM547 492l-82 534l-82 -534h164zM733 1489h-538v156h538v-156z" />
    <glyph glyph-name="amacron" unicode="&#x101;" 
d="M807 0h-277v94q-31 -53 -93 -86t-122 -33q-121 0 -197.5 88.5t-76.5 239.5t76 235.5t198 84.5q62 0 124 -29.5t91 -81.5v104q0 76 -38 120t-109 44q-98 0 -205 -96l-98 195q64 68 166 101.5t196 33.5q167 0 266 -83t99 -247v-684zM420 160q76 0 110 82v112
q-35 84 -110 84q-50 0 -77.5 -37.5t-27.5 -101.5q0 -63 27.5 -101t77.5 -38zM715 1147h-539v156h539v-156z" />
    <glyph glyph-name="Abreve" unicode="&#x102;" horiz-adv-x="929" 
d="M936 0h-318l-34 221h-238l-35 -221h-317l293 1366h356zM547 492l-82 534l-82 -534h164zM723 1581q-45 -61 -112 -95t-146 -34q-78 0 -147 34.5t-113 94.5l127 96q22 -33 57.5 -52t75.5 -19q84 0 133 71z" />
    <glyph glyph-name="abreve" unicode="&#x103;" 
d="M807 0h-277v94q-31 -53 -93 -86t-122 -33q-121 0 -197.5 88.5t-76.5 239.5t76 235.5t198 84.5q62 0 124 -29.5t91 -81.5v104q0 76 -38 120t-109 44q-98 0 -205 -96l-98 195q64 68 166 101.5t196 33.5q167 0 266 -83t99 -247v-684zM420 160q76 0 110 82v112
q-35 84 -110 84q-50 0 -77.5 -37.5t-27.5 -101.5q0 -63 27.5 -101t77.5 -38zM705 1239q-45 -61 -112.5 -95t-146.5 -34q-78 0 -147 34.5t-113 94.5l127 96q22 -33 57.5 -52t75.5 -19q85 0 134 71z" />
    <glyph glyph-name="Aogonek" unicode="&#x104;" horiz-adv-x="929" 
d="M920 -215l108 -57q-50 -109 -160 -109q-81 0 -128.5 44t-47.5 130q0 109 80 207h-154l-34 221h-238l-35 -221h-317l293 1366h356l293 -1366q-53 -37 -82 -90t-29 -107q0 -69 45 -69q37 0 50 51zM547 492l-82 534l-82 -534h164z" />
    <glyph glyph-name="aogonek" unicode="&#x105;" 
d="M791 -215l108 -57q-50 -109 -160 -109q-81 0 -128.5 44t-47.5 130q0 109 80 207h-113v94q-31 -53 -93 -86t-122 -33q-121 0 -197.5 88.5t-76.5 239.5t76 235.5t198 84.5q62 0 124 -29.5t91 -81.5v104q0 76 -38 120t-109 44q-98 0 -205 -96l-98 195q64 68 166 101.5
t196 33.5q167 0 266 -83t99 -247v-684q-53 -37 -82 -90t-29 -107q0 -69 45 -69q37 0 50 51zM420 160q76 0 110 82v112q-35 84 -110 84q-50 0 -77.5 -37.5t-27.5 -101.5q0 -63 27.5 -101t77.5 -38z" />
    <glyph glyph-name="Cacute" unicode="&#x106;" horiz-adv-x="917" 
d="M811 1776l-223 -295h-172l164 295h231zM514 -25q-118 0 -208 52t-145.5 147.5t-83.5 223t-28 284.5q0 158 28 285.5t83.5 222.5t145.5 147t208 52q71 0 129 -22.5t95.5 -56t68.5 -84t47.5 -93t32.5 -97.5l-246 -90q-19 85 -47 126.5t-80 41.5q-147 0 -147 -432t147 -432
q105 0 129 194l246 -88q-14 -57 -29.5 -103t-46 -100.5t-69 -91t-98 -61.5t-132.5 -25z" />
    <glyph glyph-name="cacute" unicode="&#x107;" horiz-adv-x="733" 
d="M745 1434l-223 -295h-172l164 295h231zM449 -25q-185 0 -295.5 144.5t-110.5 376.5q0 231 110 374.5t296 143.5q83 0 151.5 -25t106.5 -63l-84 -215q-62 59 -121 59q-82 0 -128 -76.5t-46 -197.5t46 -199t128 -78q58 0 121 60l84 -216q-37 -39 -105.5 -63.5t-152.5 -24.5
z" />
    <glyph glyph-name="Ccircumflex" unicode="&#x108;" horiz-adv-x="917" 
d="M766 1481h-150l-104 176l-96 -176h-152l125 295h246zM514 -25q-118 0 -208 52t-145.5 147.5t-83.5 223t-28 284.5q0 158 28 285.5t83.5 222.5t145.5 147t208 52q71 0 129 -22.5t95.5 -56t68.5 -84t47.5 -93t32.5 -97.5l-246 -90q-19 85 -47 126.5t-80 41.5
q-147 0 -147 -432t147 -432q105 0 129 194l246 -88q-14 -57 -29.5 -103t-46 -100.5t-69 -91t-98 -61.5t-132.5 -25z" />
    <glyph glyph-name="ccircumflex" unicode="&#x109;" horiz-adv-x="733" 
d="M702 1139h-149l-104 176l-97 -176h-151l125 295h245zM449 -25q-185 0 -295.5 144.5t-110.5 376.5q0 231 110 374.5t296 143.5q83 0 151.5 -25t106.5 -63l-84 -215q-62 59 -121 59q-82 0 -128 -76.5t-46 -197.5t46 -199t128 -78q58 0 121 60l84 -216q-37 -39 -105.5 -63.5
t-152.5 -24.5z" />
    <glyph glyph-name="Cdotaccent" unicode="&#x10a;" horiz-adv-x="917" 
d="M514 -25q-118 0 -208 52t-145.5 147.5t-83.5 223t-28 284.5q0 158 28 285.5t83.5 222.5t145.5 147t208 52q71 0 129 -22.5t95.5 -56t68.5 -84t47.5 -93t32.5 -97.5l-246 -90q-19 85 -47 126.5t-80 41.5q-147 0 -147 -432t147 -432q105 0 129 194l246 -88
q-14 -57 -29.5 -103t-46 -100.5t-69 -91t-98 -61.5t-132.5 -25zM510 1450q-59 0 -102 42t-43 103q0 60 43 102t102 42q60 0 102.5 -42t42.5 -102q0 -61 -42.5 -103t-102.5 -42z" />
    <glyph glyph-name="cdotaccent" unicode="&#x10b;" horiz-adv-x="733" 
d="M449 -25q-185 0 -295.5 144.5t-110.5 376.5q0 231 110 374.5t296 143.5q83 0 151.5 -25t106.5 -63l-84 -215q-62 59 -121 59q-82 0 -128 -76.5t-46 -197.5t46 -199t128 -78q58 0 121 60l84 -216q-37 -39 -105.5 -63.5t-152.5 -24.5zM451 1108q-59 0 -102.5 42t-43.5 103
q0 59 43.5 101.5t102.5 42.5q60 0 102.5 -42t42.5 -102q0 -61 -42.5 -103t-102.5 -42z" />
    <glyph glyph-name="Ccaron" unicode="&#x10c;" horiz-adv-x="917" 
d="M641 1481h-246l-131 295h152l102 -177l98 177h150zM514 -25q-118 0 -208 52t-145.5 147.5t-83.5 223t-28 284.5q0 158 28 285.5t83.5 222.5t145.5 147t208 52q71 0 129 -22.5t95.5 -56t68.5 -84t47.5 -93t32.5 -97.5l-246 -90q-19 85 -47 126.5t-80 41.5
q-147 0 -147 -432t147 -432q105 0 129 194l246 -88q-14 -57 -29.5 -103t-46 -100.5t-69 -91t-98 -61.5t-132.5 -25z" />
    <glyph glyph-name="ccaron" unicode="&#x10d;" horiz-adv-x="733" 
d="M578 1139h-246l-131 295h151l103 -177l98 177h149zM449 -25q-185 0 -295.5 144.5t-110.5 376.5q0 231 110 374.5t296 143.5q83 0 151.5 -25t106.5 -63l-84 -215q-62 59 -121 59q-82 0 -128 -76.5t-46 -197.5t46 -199t128 -78q58 0 121 60l84 -216q-37 -39 -105.5 -63.5
t-152.5 -24.5z" />
    <glyph glyph-name="Dcaron" unicode="&#x10e;" horiz-adv-x="1024" 
d="M633 1481h-246l-131 295h152l102 -177l98 177h150zM479 0h-383v1366h381q103 0 186 -34.5t140.5 -95.5t96.5 -147t57 -187.5t18 -219.5q0 -149 -29 -271t-87.5 -215t-155 -144.5t-224.5 -51.5zM477 270q180 0 180 412q0 414 -180 414h-71v-826h71z" />
    <glyph glyph-name="dcaron" unicode="&#x10f;" horiz-adv-x="1167" 
d="M1180 1217q0 -91 -46.5 -172.5t-125.5 -137.5l-93 74q42 25 82 72.5t50 89.5q-9 -6 -31 -6q-50 0 -82.5 33.5t-32.5 86.5q0 54 38.5 94t92.5 40q61 0 104.5 -47.5t43.5 -126.5zM823 0h-276v117q-34 -70 -87 -106t-112 -36q-148 0 -226.5 137t-78.5 384q0 241 79 379.5
t226 138.5q60 0 115 -35.5t84 -106.5v494h276v-1366zM444 219q30 0 59 28t44 70v359q-15 40 -44 67t-59 27q-116 0 -116 -274q0 -277 116 -277z" />
    <glyph glyph-name="Dcroat" unicode="&#x110;" horiz-adv-x="1073" 
d="M528 0h-383v563h-118v230h118v573h381q103 0 186 -34.5t140.5 -95.5t96.5 -147t57 -187.5t18 -219.5q0 -149 -29 -271t-87.5 -215t-155 -144.5t-224.5 -51.5zM526 270q88 0 134.5 104t46.5 308q0 414 -181 414h-71v-303h125v-230h-125v-293h71z" />
    <glyph glyph-name="dcroat" unicode="&#x111;" horiz-adv-x="913" 
d="M823 0h-276v117q-34 -70 -87 -106t-112 -36q-148 0 -226.5 137t-78.5 384q0 241 79 379.5t226 138.5q60 0 115 -35.5t84 -106.5v209h-244v156h244v129h276v-129h70v-156h-70v-1081zM444 219q30 0 59 28t44 70v359q-15 40 -44 67t-59 27q-116 0 -116 -274q0 -277 116 -277
z" />
    <glyph glyph-name="Emacron" unicode="&#x112;" horiz-adv-x="802" 
d="M739 0h-643v1366h643v-270h-333v-267h319v-270h-319v-289h333v-270zM686 1489h-539v156h539v-156z" />
    <glyph glyph-name="emacron" unicode="&#x113;" horiz-adv-x="860" 
d="M463 -25q-197 0 -308.5 143t-111.5 378q0 146 44 261.5t136.5 186t220.5 70.5q97 0 170.5 -38t118.5 -107.5t67.5 -161.5t22.5 -205v-99h-512q2 -91 47 -146.5t136 -55.5q42 0 86 22.5t79 63.5l127 -158q-62 -73 -148.5 -113.5t-174.5 -40.5zM559 594q0 197 -125 197
q-47 0 -76 -32.5t-38 -73t-9 -91.5h248zM705 1147h-539v156h539v-156z" />
    <glyph glyph-name="Ebreve" unicode="&#x114;" horiz-adv-x="802" 
d="M739 0h-643v1366h643v-270h-333v-267h319v-270h-319v-289h333v-270zM676 1581q-45 -61 -112 -95t-146 -34q-78 0 -147 34.5t-113 94.5l127 96q22 -33 57.5 -52t75.5 -19q84 0 133 71z" />
    <glyph glyph-name="ebreve" unicode="&#x115;" horiz-adv-x="860" 
d="M463 -25q-197 0 -308.5 143t-111.5 378q0 146 44 261.5t136.5 186t220.5 70.5q97 0 170.5 -38t118.5 -107.5t67.5 -161.5t22.5 -205v-99h-512q2 -91 47 -146.5t136 -55.5q42 0 86 22.5t79 63.5l127 -158q-62 -73 -148.5 -113.5t-174.5 -40.5zM559 594q0 197 -125 197
q-47 0 -76 -32.5t-38 -73t-9 -91.5h248zM705 1239q-45 -61 -112.5 -95t-146.5 -34q-78 0 -147 34.5t-113 94.5l127 96q22 -33 57.5 -52t75.5 -19q85 0 134 71z" />
    <glyph glyph-name="Edotaccent" unicode="&#x116;" horiz-adv-x="802" 
d="M739 0h-643v1366h643v-270h-333v-267h319v-270h-319v-289h333v-270zM426 1450q-59 0 -102 42t-43 103q0 60 43 102t102 42q60 0 102.5 -42t42.5 -102q0 -61 -42.5 -103t-102.5 -42z" />
    <glyph glyph-name="edotaccent" unicode="&#x117;" horiz-adv-x="860" 
d="M463 -25q-197 0 -308.5 143t-111.5 378q0 146 44 261.5t136.5 186t220.5 70.5q97 0 170.5 -38t118.5 -107.5t67.5 -161.5t22.5 -205v-99h-512q2 -91 47 -146.5t136 -55.5q42 0 86 22.5t79 63.5l127 -158q-62 -73 -148.5 -113.5t-174.5 -40.5zM559 594q0 197 -125 197
q-47 0 -76 -32.5t-38 -73t-9 -91.5h248zM442 1108q-59 0 -102 42t-43 103q0 60 43 102t102 42q60 0 103 -42t43 -102q0 -61 -43 -103t-103 -42z" />
    <glyph glyph-name="Eogonek" unicode="&#x118;" horiz-adv-x="802" 
d="M739 0q-53 -37 -81.5 -90t-28.5 -107q0 -69 45 -69q36 0 49 51l108 -57q-50 -109 -159 -109q-81 0 -128.5 44t-47.5 130q0 110 79 207h-479v1366h643v-270h-333v-267h319v-270h-319v-289h333v-270z" />
    <glyph glyph-name="eogonek" unicode="&#x119;" horiz-adv-x="860" 
d="M584 -215l108 -57q-50 -109 -160 -109q-81 0 -128.5 44t-47.5 130q0 101 64 184q-179 17 -278 157t-99 362q0 146 44 261.5t136.5 186t220.5 70.5q97 0 170.5 -38t118.5 -107.5t67.5 -161.5t22.5 -205v-99h-512q2 -91 47 -146.5t136 -55.5q42 0 86 22.5t79 63.5l127 -158
q-75 -89 -186 -129q-53 -37 -82 -90t-29 -107q0 -69 46 -69q36 0 49 51zM559 594q0 197 -125 197q-47 0 -76 -32.5t-38 -73t-9 -91.5h248z" />
    <glyph glyph-name="Ecaron" unicode="&#x11a;" horiz-adv-x="802" 
d="M539 1481h-246l-131 295h151l103 -177l98 177h150zM739 0h-643v1366h643v-270h-333v-267h319v-270h-319v-289h333v-270z" />
    <glyph glyph-name="ecaron" unicode="&#x11b;" horiz-adv-x="860" 
d="M571 1139h-245l-131 295h151l103 -177l98 177h149zM463 -25q-197 0 -308.5 143t-111.5 378q0 146 44 261.5t136.5 186t220.5 70.5q97 0 170.5 -38t118.5 -107.5t67.5 -161.5t22.5 -205v-99h-512q2 -91 47 -146.5t136 -55.5q42 0 86 22.5t79 63.5l127 -158
q-62 -73 -148.5 -113.5t-174.5 -40.5zM559 594q0 197 -125 197q-47 0 -76 -32.5t-38 -73t-9 -91.5h248z" />
    <glyph glyph-name="Gcircumflex" unicode="&#x11c;" horiz-adv-x="970" 
d="M766 1481h-150l-104 176l-96 -176h-152l125 295h246zM514 -25q-117 0 -206.5 51.5t-146 146t-84.5 222.5t-28 287t28.5 288t85 223t145.5 145t206 51q145 0 240 -98.5t133 -254.5l-246 -90q-15 79 -44 123.5t-83 44.5q-147 0 -147 -432t147 -432q75 0 111 51v193h-140
v270h412v-600q-78 -93 -169.5 -141t-213.5 -48z" />
    <glyph glyph-name="gcircumflex" unicode="&#x11d;" horiz-adv-x="905" 
d="M707 1139h-150l-104 176l-97 -176h-151l125 295h245zM412 -401q-208 0 -326 110l90 219q97 -94 205 -94q76 0 121 51.5t45 155.5v121q-34 -70 -87.5 -107t-111.5 -37q-149 0 -227 127t-78 371q0 238 78.5 368t226.5 130q60 0 115 -35.5t84 -106.5v117h276v-940
q0 -103 -23 -182.5t-61.5 -129t-93 -81.5t-111 -44.5t-122.5 -12.5zM444 264q30 0 59 26t44 66v320q-15 41 -43.5 67.5t-59.5 26.5q-64 0 -90 -64.5t-26 -189.5q0 -126 26 -189t90 -63z" />
    <glyph glyph-name="Gbreve" unicode="&#x11e;" horiz-adv-x="970" 
d="M514 -25q-117 0 -206.5 51.5t-146 146t-84.5 222.5t-28 287t28.5 288t85 223t145.5 145t206 51q145 0 240 -98.5t133 -254.5l-246 -90q-15 79 -44 123.5t-83 44.5q-147 0 -147 -432t147 -432q75 0 111 51v193h-140v270h412v-600q-78 -93 -169.5 -141t-213.5 -48z
M776 1581q-45 -61 -112 -95t-146 -34q-78 0 -147 34.5t-113 94.5l127 96q22 -33 57.5 -52t75.5 -19q84 0 133 71z" />
    <glyph glyph-name="gbreve" unicode="&#x11f;" horiz-adv-x="905" 
d="M412 -401q-208 0 -326 110l90 219q97 -94 205 -94q76 0 121 51.5t45 155.5v121q-34 -70 -87.5 -107t-111.5 -37q-149 0 -227 127t-78 371q0 238 78.5 368t226.5 130q60 0 115 -35.5t84 -106.5v117h276v-940q0 -103 -23 -182.5t-61.5 -129t-93 -81.5t-111 -44.5
t-122.5 -12.5zM444 264q30 0 59 26t44 66v320q-15 41 -43.5 67.5t-59.5 26.5q-64 0 -90 -64.5t-26 -189.5q0 -126 26 -189t90 -63zM709 1239q-45 -61 -112 -95t-146 -34q-78 0 -147.5 34.5t-113.5 94.5l127 96q21 -33 57.5 -52t76.5 -19q84 0 133 71z" />
    <glyph glyph-name="Gdotaccent" unicode="&#x120;" horiz-adv-x="970" 
d="M514 -25q-117 0 -206.5 51.5t-146 146t-84.5 222.5t-28 287t28.5 288t85 223t145.5 145t206 51q145 0 240 -98.5t133 -254.5l-246 -90q-15 79 -44 123.5t-83 44.5q-147 0 -147 -432t147 -432q75 0 111 51v193h-140v270h412v-600q-78 -93 -169.5 -141t-213.5 -48z
M514 1450q-59 0 -102 42t-43 103q0 60 43 102t102 42q60 0 102.5 -42t42.5 -102q0 -61 -42.5 -103t-102.5 -42z" />
    <glyph glyph-name="gdotaccent" unicode="&#x121;" horiz-adv-x="905" 
d="M412 -401q-208 0 -326 110l90 219q97 -94 205 -94q76 0 121 51.5t45 155.5v121q-34 -70 -87.5 -107t-111.5 -37q-149 0 -227 127t-78 371q0 238 78.5 368t226.5 130q60 0 115 -35.5t84 -106.5v117h276v-940q0 -103 -23 -182.5t-61.5 -129t-93 -81.5t-111 -44.5
t-122.5 -12.5zM444 264q30 0 59 26t44 66v320q-15 41 -43.5 67.5t-59.5 26.5q-64 0 -90 -64.5t-26 -189.5q0 -126 26 -189t90 -63zM461 1108q-59 0 -102.5 42t-43.5 103q0 59 43.5 101.5t102.5 42.5q60 0 102.5 -42t42.5 -102q0 -61 -42.5 -103t-102.5 -42z" />
    <glyph glyph-name="Gcommaaccent" unicode="&#x122;" horiz-adv-x="970" 
d="M637 -285q0 -91 -46.5 -172t-125.5 -137l-92 74q42 24 81.5 71.5t49.5 90.5q-10 -7 -31 -7q-50 0 -82.5 33.5t-32.5 87.5t38.5 93.5t92.5 39.5q61 0 104.5 -47.5t43.5 -126.5zM514 -25q-117 0 -206.5 51.5t-146 146t-84.5 222.5t-28 287t28.5 288t85 223t145.5 145
t206 51q145 0 240 -98.5t133 -254.5l-246 -90q-15 79 -44 123.5t-83 44.5q-147 0 -147 -432t147 -432q75 0 111 51v193h-140v270h412v-600q-78 -93 -169.5 -141t-213.5 -48z" />
    <glyph glyph-name="gcommaaccent" unicode="&#x123;" horiz-adv-x="905" 
d="M311 1253q0 97 43.5 182t122.5 140l94 -74q-42 -21 -82.5 -65.5t-46.5 -85.5q7 2 13 2q49 0 89 -36.5t40 -88.5q0 -55 -39.5 -95t-95.5 -40q-52 0 -95 38.5t-43 122.5zM412 -401q-208 0 -326 110l90 219q97 -94 205 -94q76 0 121 51.5t45 155.5v121q-34 -70 -87.5 -107
t-111.5 -37q-149 0 -227 127t-78 371q0 238 78.5 368t226.5 130q60 0 115 -35.5t84 -106.5v117h276v-940q0 -103 -23 -182.5t-61.5 -129t-93 -81.5t-111 -44.5t-122.5 -12.5zM444 264q30 0 59 26t44 66v320q-15 41 -43.5 67.5t-59.5 26.5q-64 0 -90 -64.5t-26 -189.5
q0 -126 26 -189t90 -63z" />
    <glyph glyph-name="Hcircumflex" unicode="&#x124;" horiz-adv-x="1040" 
d="M770 1481h-149l-105 176l-96 -176h-152l125 295h246zM944 0h-309v567h-229v-567h-310v1366h310v-528h229v528h309v-1366z" />
    <glyph glyph-name="hcircumflex" unicode="&#x125;" horiz-adv-x="903" 
d="M702 1481h-149l-104 176l-97 -176h-151l125 295h245zM821 0h-278v680q0 90 -68 90q-37 0 -67.5 -33.5t-47.5 -79.5v-657h-278v1366h278v-500q30 58 101 103t139 45q221 0 221 -228v-786z" />
    <glyph glyph-name="Hbar" unicode="&#x126;" horiz-adv-x="1091" 
d="M971 0h-309v567h-230v-567h-309v1026h-96v156h96v184h309v-184h230v184h309v-184h86v-156h-86v-1026zM432 838h230v188h-230v-188z" />
    <glyph glyph-name="hbar" unicode="&#x127;" horiz-adv-x="923" 
d="M616 1081h-235v-215q30 58 101 103t139 45q221 0 221 -228v-786h-279v680q0 90 -67 90q-37 0 -67.5 -33.5t-47.5 -79.5v-657h-279v1081h-75v156h75v129h279v-129h235v-156z" />
    <glyph glyph-name="Itilde" unicode="&#x128;" horiz-adv-x="501" 
d="M406 0h-310v1366h310v-1366zM348 1477q-35 0 -64.5 20.5t-45.5 45t-35.5 45t-36.5 20.5q-23 0 -37 -30t-14 -89h-135q0 123 49.5 198.5t136.5 75.5q35 0 64.5 -20.5t46 -45t36 -45t37.5 -20.5q49 0 49 119h136q0 -124 -49.5 -199t-137.5 -75z" />
    <glyph glyph-name="itilde" unicode="&#x129;" horiz-adv-x="442" 
d="M360 0h-278v989h278v-989zM313 1135q-35 0 -64.5 20.5t-45.5 45t-35.5 45t-36.5 20.5q-23 0 -37 -30t-14 -89h-135q0 123 49.5 198.5t136.5 75.5q35 0 64.5 -20.5t46 -45t36 -45t37.5 -20.5q50 0 50 119h135q0 -124 -49.5 -199t-137.5 -75z" />
    <glyph glyph-name="Imacron" unicode="&#x12a;" horiz-adv-x="501" 
d="M406 0h-310v1366h310v-1366zM518 1489h-538v156h538v-156z" />
    <glyph glyph-name="imacron" unicode="&#x12b;" horiz-adv-x="442" 
d="M360 0h-278v989h278v-989zM489 1147h-538v156h538v-156z" />
    <glyph glyph-name="Ibreve" unicode="&#x12c;" horiz-adv-x="501" 
d="M406 0h-310v1366h310v-1366zM512 1581q-45 -61 -112 -95t-146 -34q-78 0 -147 34.5t-113 94.5l127 96q22 -33 57.5 -52t75.5 -19q84 0 133 71z" />
    <glyph glyph-name="ibreve" unicode="&#x12d;" horiz-adv-x="442" 
d="M360 0h-278v989h278v-989zM479 1239q-45 -61 -112 -95t-146 -34q-78 0 -147 34.5t-113 94.5l127 96q22 -33 57.5 -52t75.5 -19q84 0 133 71z" />
    <glyph glyph-name="Iogonek" unicode="&#x12e;" horiz-adv-x="501" 
d="M391 -215l109 -57q-50 -109 -160 -109q-81 0 -128.5 44t-47.5 130q0 109 80 207h-148v1366h310v-1366h2q-53 -37 -82 -90t-29 -107q0 -69 45 -69q36 0 49 51z" />
    <glyph glyph-name="iogonek" unicode="&#x12f;" horiz-adv-x="442" 
d="M344 -215l109 -57q-50 -109 -160 -109q-81 0 -128.5 44t-47.5 130q0 109 80 207h-115v989h278v-989q-53 -37 -81.5 -90t-28.5 -107q0 -69 45 -69q36 0 49 51zM221 1090q-68 0 -115 47t-47 116q0 68 47.5 116t114.5 48t115.5 -48.5t48.5 -115.5q0 -69 -48 -116t-116 -47z
" />
    <glyph glyph-name="Idotaccent" unicode="&#x130;" horiz-adv-x="501" 
d="M406 0h-310v1366h310v-1366zM252 1450q-59 0 -102.5 42t-43.5 103q0 59 43.5 101.5t102.5 42.5q60 0 102.5 -42t42.5 -102q0 -61 -42.5 -103t-102.5 -42z" />
    <glyph glyph-name="dotlessi" unicode="&#x131;" horiz-adv-x="442" 
d="M360 0h-278v989h278v-989z" />
    <glyph glyph-name="IJ" unicode="&#x132;" horiz-adv-x="1243" 
d="M406 0h-310v1366h310v-1366zM745 -25q-138 0 -227 66l78 254q42 -45 113 -45q61 0 96 33.5t35 99.5v983h311v-999q0 -197 -109 -294.5t-297 -97.5z" />
    <glyph glyph-name="ij" unicode="&#x133;" horiz-adv-x="884" 
d="M221 1090q-68 0 -115 47t-47 116q0 68 47.5 116t114.5 48t115.5 -48.5t48.5 -115.5q0 -69 -48 -116t-116 -47zM360 0h-278v989h278v-989zM664 1090q-68 0 -115 47t-47 116q0 68 47.5 116t114.5 48t115 -48t48 -116q0 -69 -47.5 -116t-115.5 -47zM498 -401q-87 0 -142 41
l54 217q19 -23 51 -23q63 0 63 111v1044h279v-1044q0 -346 -305 -346z" />
    <glyph glyph-name="Jcircumflex" unicode="&#x134;" horiz-adv-x="741" 
d="M745 1481h-149l-104 176l-97 -176h-151l125 295h245zM244 -25q-139 0 -228 66l78 254q42 -45 113 -45q61 0 96 33.5t35 99.5v983h311v-999q0 -197 -108.5 -294.5t-296.5 -97.5z" />
    <glyph glyph-name="jcircumflex" unicode="&#x135;" horiz-adv-x="442" 
d="M475 1139h-149l-105 176l-96 -176h-152l125 295h246zM39 -401q-81 0 -125 41l53 225q16 -23 51 -23q64 0 64 103v1044h278v-1044q0 -173 -74.5 -259.5t-246.5 -86.5z" />
    <glyph glyph-name="Kcommaaccent" unicode="&#x136;" horiz-adv-x="1017" 
d="M657 -285q0 -91 -46.5 -172t-125.5 -137l-92 74q42 24 81.5 71.5t49.5 90.5q-11 -7 -30 -7q-50 0 -82.5 33.5t-32.5 87.5t38.5 93.5t92.5 39.5q61 0 104 -47.5t43 -126.5zM1022 0h-350l-185 485l-81 -172v-313h-310v1366h310v-592l253 592h338l-325 -639z" />
    <glyph glyph-name="kcommaaccent" unicode="&#x137;" horiz-adv-x="868" 
d="M584 -285q0 -91 -46.5 -172t-125.5 -137l-93 74q42 25 82 72.5t50 89.5q-11 -7 -31 -7q-50 0 -82.5 33.5t-32.5 87.5t38.5 93.5t92.5 39.5q61 0 104.5 -47.5t43.5 -126.5zM868 0h-303l-127 367l-78 -148v-219h-278v1366h278v-786l189 409h305l-227 -438z" />
    <glyph glyph-name="kgreenlandic" unicode="&#x138;" horiz-adv-x="868" 
d="M868 0h-303l-127 367l-78 -148v-219h-278v989h278v-409l189 409h305l-227 -438z" />
    <glyph glyph-name="Lacute" unicode="&#x139;" horiz-adv-x="778" 
d="M713 1776l-224 -295h-172l164 295h232zM739 0h-643v1366h310v-1096h333v-270z" />
    <glyph glyph-name="lacute" unicode="&#x13a;" horiz-adv-x="442" 
d="M518 1776l-223 -295h-172l164 295h231zM360 0h-278v1366h278v-1366z" />
    <glyph glyph-name="Lcommaaccent" unicode="&#x13b;" horiz-adv-x="778" 
d="M539 -285q0 -91 -46.5 -172t-125.5 -137l-93 74q42 25 82 72.5t50 89.5q-11 -7 -31 -7q-50 0 -82.5 33.5t-32.5 87.5t38.5 93.5t92.5 39.5q61 0 104.5 -47.5t43.5 -126.5zM739 0h-643v1366h310v-1096h333v-270z" />
    <glyph glyph-name="lcommaaccent" unicode="&#x13c;" horiz-adv-x="442" 
d="M371 -285q0 -91 -46.5 -172t-125.5 -137l-93 74q42 25 82 72.5t50 89.5q-11 -7 -31 -7q-50 0 -82.5 33.5t-32.5 87.5t38.5 93.5t92.5 39.5q61 0 104.5 -47.5t43.5 -126.5zM360 0h-278v1366h278v-1366z" />
    <glyph glyph-name="Lcaron" unicode="&#x13d;" horiz-adv-x="778" 
d="M774 1221q0 -91 -46.5 -172.5t-125.5 -137.5l-92 74q42 24 81.5 71.5t49.5 90.5q-9 -6 -31 -6q-50 0 -82 33.5t-32 87.5t38.5 93.5t92.5 39.5q61 0 104 -47.5t43 -126.5zM739 0h-643v1366h310v-1096h333v-270z" />
    <glyph glyph-name="lcaron" unicode="&#x13e;" horiz-adv-x="704" 
d="M739 1221q0 -91 -46.5 -172.5t-125.5 -137.5l-92 74q42 24 81.5 71.5t49.5 90.5q-9 -6 -31 -6q-50 0 -82 33.5t-32 87.5t38.5 93.5t92.5 39.5q61 0 104 -47.5t43 -126.5zM360 0h-278v1366h278v-1366z" />
    <glyph glyph-name="Ldot" unicode="&#x13f;" horiz-adv-x="946" 
d="M739 0h-643v1366h310v-1096h333v-270zM899 700q0 -71 -52 -122.5t-124 -51.5q-70 0 -121 51.5t-51 122.5q0 72 51 124.5t121 52.5q72 0 124 -52.5t52 -124.5z" />
    <glyph glyph-name="ldot" unicode="&#x140;" horiz-adv-x="800" 
d="M360 0h-278v1366h278v-1366zM797 500q0 -71 -52 -122.5t-124 -51.5q-70 0 -121 51.5t-51 122.5q0 72 51 124t121 52q72 0 124 -52t52 -124z" />
    <glyph glyph-name="Lslash" unicode="&#x141;" horiz-adv-x="794" 
d="M27 418v252l86 49v647h309v-469l119 70v-252l-119 -70v-375h334v-270h-643v467z" />
    <glyph glyph-name="lslash" unicode="&#x142;" horiz-adv-x="514" 
d="M27 453v200l90 52v661h278v-504l92 53v-200l-92 -53v-662h-278v504z" />
    <glyph glyph-name="Nacute" unicode="&#x143;" horiz-adv-x="1040" 
d="M815 1776l-223 -295h-172l164 295h231zM944 0h-289l-249 645v-645h-310v1366h310l229 -614v614h309v-1366z" />
    <glyph glyph-name="nacute" unicode="&#x144;" horiz-adv-x="903" 
d="M748 1434l-224 -295h-172l164 295h232zM821 0h-278v678q0 92 -68 92q-37 0 -67.5 -33.5t-47.5 -79.5v-657h-278v989h278v-123q30 58 101 103t139 45q114 0 167.5 -62t53.5 -170v-782z" />
    <glyph glyph-name="Ncommaaccent" unicode="&#x145;" horiz-adv-x="1040" 
d="M668 -285q0 -91 -46.5 -172t-125.5 -137l-93 74q42 25 82 72.5t50 89.5q-11 -7 -31 -7q-50 0 -82.5 33.5t-32.5 87.5t38.5 93.5t92.5 39.5q61 0 104.5 -47.5t43.5 -126.5zM944 0h-289l-249 645v-645h-310v1366h310l229 -614v614h309v-1366z" />
    <glyph glyph-name="ncommaaccent" unicode="&#x146;" horiz-adv-x="903" 
d="M600 -285q0 -91 -46.5 -172t-125.5 -137l-92 74q42 24 81.5 71.5t49.5 90.5q-11 -7 -31 -7q-50 0 -82 33.5t-32 87.5t38.5 93.5t92.5 39.5q61 0 104 -47.5t43 -126.5zM821 0h-278v678q0 92 -68 92q-37 0 -67.5 -33.5t-47.5 -79.5v-657h-278v989h278v-123q30 58 101 103
t139 45q114 0 167.5 -62t53.5 -170v-782z" />
    <glyph glyph-name="Ncaron" unicode="&#x147;" horiz-adv-x="1040" 
d="M645 1481h-246l-131 295h152l102 -177l99 177h149zM944 0h-289l-249 645v-645h-310v1366h310l229 -614v614h309v-1366z" />
    <glyph glyph-name="ncaron" unicode="&#x148;" horiz-adv-x="903" 
d="M578 1139h-246l-131 295h151l103 -177l98 177h149zM821 0h-278v678q0 92 -68 92q-37 0 -67.5 -33.5t-47.5 -79.5v-657h-278v989h278v-123q30 58 101 103t139 45q114 0 167.5 -62t53.5 -170v-782z" />
    <glyph glyph-name="napostrophe" unicode="&#x149;" horiz-adv-x="903" 
d="M336 1399q0 -91 -46.5 -172t-125.5 -137l-92 73q42 24 81.5 71.5t49.5 90.5q-9 -6 -31 -6q-50 0 -82.5 33.5t-32.5 87.5t38.5 93.5t92.5 39.5q61 0 104.5 -47.5t43.5 -126.5zM821 0h-278v678q0 92 -68 92q-37 0 -67.5 -33.5t-47.5 -79.5v-657h-278v989h278v-123
q30 58 101 103t139 45q114 0 167.5 -62t53.5 -170v-782z" />
    <glyph glyph-name="Eng" unicode="&#x14a;" horiz-adv-x="1040" 
d="M541 -401q-140 0 -228 65l76 248q45 -45 115 -45q59 0 95 34t36 99v53l-229 592v-645h-310v1366h310l229 -614v614h309v-1376q0 -198 -107.5 -294.5t-295.5 -96.5z" />
    <glyph glyph-name="eng" unicode="&#x14b;" horiz-adv-x="903" 
d="M821 782v-837q0 -173 -74.5 -259.5t-246.5 -86.5q-81 0 -125 41l53 225q16 -23 49 -23q66 0 66 103v733q0 92 -68 92q-37 0 -67.5 -33.5t-47.5 -79.5v-657h-278v989h278v-123q30 58 101 103t139 45q114 0 167.5 -62t53.5 -170z" />
    <glyph glyph-name="Omacron" unicode="&#x14c;" horiz-adv-x="1024" 
d="M780 1489h-538v156h538v-156zM512 -25q-155 0 -261 93t-154 249t-48 365t48 365t154 249t261 93t261 -93t154 -249t48 -365t-48 -365t-154 -249t-261 -93zM512 250q145 0 145 432t-145 432t-145 -432t145 -432z" />
    <glyph glyph-name="omacron" unicode="&#x14d;" 
d="M715 1147h-539v156h539v-156zM444 -25q-100 0 -178.5 42.5t-126 115.5t-72 165.5t-24.5 197.5t24.5 197t72 164.5t126 114.5t178.5 42t178.5 -42t126.5 -114.5t72.5 -164.5t24.5 -197t-24.5 -197.5t-72.5 -165.5t-126.5 -115.5t-178.5 -42.5zM444 219q117 0 117 277
q0 274 -117 274q-63 0 -88.5 -72.5t-25.5 -201.5q0 -131 25.5 -204t88.5 -73z" />
    <glyph glyph-name="Obreve" unicode="&#x14e;" horiz-adv-x="1024" 
d="M512 -25q-155 0 -261 93t-154 249t-48 365t48 365t154 249t261 93t261 -93t154 -249t48 -365t-48 -365t-154 -249t-261 -93zM512 250q145 0 145 432t-145 432t-145 -432t145 -432zM774 1581q-45 -61 -112 -95t-146 -34q-78 0 -147 34.5t-113 94.5l127 96q22 -33 57.5 -52
t75.5 -19q84 0 133 71z" />
    <glyph glyph-name="obreve" unicode="&#x14f;" 
d="M444 -25q-100 0 -178.5 42.5t-126 115.5t-72 165.5t-24.5 197.5t24.5 197t72 164.5t126 114.5t178.5 42t178.5 -42t126.5 -114.5t72.5 -164.5t24.5 -197t-24.5 -197.5t-72.5 -165.5t-126.5 -115.5t-178.5 -42.5zM444 219q117 0 117 277q0 274 -117 274q-63 0 -88.5 -72.5
t-25.5 -201.5q0 -131 25.5 -204t88.5 -73zM705 1239q-45 -61 -112.5 -95t-146.5 -34q-78 0 -147 34.5t-113 94.5l127 96q22 -33 57.5 -52t75.5 -19q85 0 134 71z" />
    <glyph glyph-name="Ohungarumlaut" unicode="&#x150;" horiz-adv-x="1024" 
d="M590 1776l-168 -295h-141l106 295h203zM864 1776l-168 -295h-141l107 295h202zM512 -25q-155 0 -261 93t-154 249t-48 365t48 365t154 249t261 93t261 -93t154 -249t48 -365t-48 -365t-154 -249t-261 -93zM512 250q145 0 145 432t-145 432t-145 -432t145 -432z" />
    <glyph glyph-name="ohungarumlaut" unicode="&#x151;" 
d="M522 1434l-168 -295h-141l106 295h203zM797 1434l-168 -295h-142l107 295h203zM444 -25q-100 0 -178.5 42.5t-126 115.5t-72 165.5t-24.5 197.5t24.5 197t72 164.5t126 114.5t178.5 42t178.5 -42t126.5 -114.5t72.5 -164.5t24.5 -197t-24.5 -197.5t-72.5 -165.5
t-126.5 -115.5t-178.5 -42.5zM444 219q117 0 117 277q0 274 -117 274q-63 0 -88.5 -72.5t-25.5 -201.5q0 -131 25.5 -204t88.5 -73z" />
    <glyph glyph-name="OE" unicode="&#x152;" horiz-adv-x="1335" 
d="M1284 0h-641v86q-30 -54 -85.5 -82.5t-111.5 -28.5q-101 0 -178 52.5t-124.5 148.5t-71 223t-23.5 283q0 210 40.5 364.5t131.5 247t225 92.5q56 0 111.5 -27t85.5 -79v86h641v-270h-332v-267h318v-270h-318v-289h332v-270zM643 403v558q-19 75 -54 113t-75 38
q-80 0 -113.5 -112.5t-33.5 -317.5q0 -432 147 -432q40 0 75 39t54 114z" />
    <glyph glyph-name="oe" unicode="&#x153;" horiz-adv-x="1376" 
d="M1339 403h-512q3 -91 48 -146.5t135 -55.5q43 0 87 22.5t79 63.5l127 -158q-62 -74 -148.5 -114t-175.5 -40q-95 0 -160.5 40t-113.5 120q-94 -160 -261 -160q-100 0 -178.5 42.5t-126 115.5t-72 165.5t-24.5 197.5t24.5 197t72 164.5t126 114.5t178.5 42q168 0 258 -156
q95 156 259 156q97 0 170 -39t118 -109t67.5 -163t22.5 -207v-93zM827 594h248q0 51 -9 92t-38 73t-76 32t-76.5 -33.5t-39 -74.5t-9.5 -89zM561 496q0 274 -117 274q-63 0 -88.5 -72.5t-25.5 -201.5q0 -277 114 -277q117 0 117 277z" />
    <glyph glyph-name="Racute" unicode="&#x154;" horiz-adv-x="993" 
d="M807 1776l-223 -295h-172l163 295h232zM936 0h-332l-133 479h-65v-479h-310v1366h428q173 0 286.5 -122.5t113.5 -309.5q0 -273 -170 -381zM473 750q63 0 99 46.5t36 125.5q0 80 -36 127t-99 47h-67v-346h67z" />
    <glyph glyph-name="racute" unicode="&#x155;" horiz-adv-x="604" 
d="M627 1434l-224 -295h-172l164 295h232zM360 0h-278v989h278v-129q27 64 93 109t127 45v-269q-36 9 -50 9q-44 0 -92.5 -31t-77.5 -78v-645z" />
    <glyph glyph-name="Rcommaaccent" unicode="&#x156;" horiz-adv-x="993" 
d="M643 -285q0 -91 -46.5 -172t-125.5 -137l-92 74q42 24 81.5 71.5t49.5 90.5q-10 -7 -31 -7q-50 0 -82 33.5t-32 87.5t38.5 93.5t92.5 39.5q61 0 104 -47.5t43 -126.5zM936 0h-332l-133 479h-65v-479h-310v1366h428q173 0 286.5 -122.5t113.5 -309.5q0 -273 -170 -381z
M473 750q63 0 99 46.5t36 125.5q0 80 -36 127t-99 47h-67v-346h67z" />
    <glyph glyph-name="rcommaaccent" unicode="&#x157;" horiz-adv-x="604" 
d="M449 -285q0 -91 -47 -172t-126 -137l-92 74q42 24 81.5 71.5t49.5 90.5q-11 -7 -30 -7q-50 0 -82.5 33.5t-32.5 87.5t38.5 93.5t92.5 39.5q61 0 104.5 -47.5t43.5 -126.5zM360 0h-278v989h278v-129q27 64 93 109t127 45v-269q-36 9 -50 9q-44 0 -92.5 -31t-77.5 -78v-645
z" />
    <glyph glyph-name="Rcaron" unicode="&#x158;" horiz-adv-x="993" 
d="M621 1481h-246l-131 295h151l103 -177l98 177h149zM936 0h-332l-133 479h-65v-479h-310v1366h428q173 0 286.5 -122.5t113.5 -309.5q0 -273 -170 -381zM473 750q63 0 99 46.5t36 125.5q0 80 -36 127t-99 47h-67v-346h67z" />
    <glyph glyph-name="rcaron" unicode="&#x159;" horiz-adv-x="604" 
d="M455 1139h-246l-131 295h151l103 -177l98 177h150zM360 0h-278v989h278v-129q27 64 93 109t127 45v-269q-36 9 -50 9q-44 0 -92.5 -31t-77.5 -78v-645z" />
    <glyph glyph-name="Sacute" unicode="&#x15a;" horiz-adv-x="851" 
d="M731 1776l-223 -295h-172l164 295h231zM399 -25q-241 0 -383 142l129 241q43 -52 106.5 -80t127.5 -28q53 0 84 33.5t31 85.5q0 42 -24 77t-63 62.5t-85.5 56.5t-93.5 66.5t-86 83.5t-63 116t-24 156q0 106 46 196t142 148t226 58q95 0 179.5 -30.5t144.5 -86.5
l-115 -240q-82 82 -199 82q-49 0 -78.5 -30t-29.5 -80q0 -37 24 -70t63 -61t85.5 -58t93 -69t85.5 -85.5t63 -116t24 -153.5q0 -185 -112 -300.5t-298 -115.5z" />
    <glyph glyph-name="sacute" unicode="&#x15b;" horiz-adv-x="745" 
d="M674 1434l-223 -295h-172l163 295h232zM365 -25q-116 0 -205.5 36t-143.5 95l111 191q43 -44 100 -74t111 -30q52 0 82.5 22.5t30.5 60.5q0 26 -22 46.5t-57 36t-77.5 32.5t-85 43t-77.5 60.5t-57 91.5t-22 129q0 127 89.5 213t252.5 86q90 0 172 -32.5t144 -88.5
l-109 -186q-30 35 -85.5 62.5t-115.5 27.5q-40 0 -66 -20.5t-26 -51.5q0 -24 22.5 -43.5t58 -35t79 -33.5t87 -44.5t79 -61.5t58 -91.5t22.5 -128.5q0 -137 -97.5 -224.5t-252.5 -87.5z" />
    <glyph glyph-name="Scircumflex" unicode="&#x15c;" horiz-adv-x="851" 
d="M721 1481h-150l-104 176l-96 -176h-152l125 295h246zM399 -25q-241 0 -383 142l129 241q43 -52 106.5 -80t127.5 -28q53 0 84 33.5t31 85.5q0 42 -24 77t-63 62.5t-85.5 56.5t-93.5 66.5t-86 83.5t-63 116t-24 156q0 106 46 196t142 148t226 58q95 0 179.5 -30.5
t144.5 -86.5l-115 -240q-82 82 -199 82q-49 0 -78.5 -30t-29.5 -80q0 -37 24 -70t63 -61t85.5 -58t93 -69t85.5 -85.5t63 -116t24 -153.5q0 -185 -112 -300.5t-298 -115.5z" />
    <glyph glyph-name="scircumflex" unicode="&#x15d;" horiz-adv-x="745" 
d="M633 1139h-150l-104 176l-96 -176h-152l125 295h246zM365 -25q-116 0 -205.5 36t-143.5 95l111 191q43 -44 100 -74t111 -30q52 0 82.5 22.5t30.5 60.5q0 26 -22 46.5t-57 36t-77.5 32.5t-85 43t-77.5 60.5t-57 91.5t-22 129q0 127 89.5 213t252.5 86q90 0 172 -32.5
t144 -88.5l-109 -186q-30 35 -85.5 62.5t-115.5 27.5q-40 0 -66 -20.5t-26 -51.5q0 -24 22.5 -43.5t58 -35t79 -33.5t87 -44.5t79 -61.5t58 -91.5t22.5 -128.5q0 -137 -97.5 -224.5t-252.5 -87.5z" />
    <glyph glyph-name="Scedilla" unicode="&#x15e;" horiz-adv-x="851" 
d="M389 -401q-51 0 -101 18t-83 47l51 105q66 -56 127 -56q34 0 56 17.5t22 46.5q0 22 -11.5 35.5t-31.5 13.5q-27 0 -51 -27l-97 56l45 125q-182 20 -299 137l129 241q43 -52 106.5 -80t127.5 -28q53 0 84 33.5t31 85.5q0 42 -24 77t-63 62.5t-85.5 56.5t-93.5 66.5
t-86 83.5t-63 116t-24 156q0 106 46 196t142 148t226 58q95 0 179.5 -30.5t144.5 -86.5l-115 -240q-82 82 -199 82q-49 0 -78.5 -30t-29.5 -80q0 -37 24 -70t63 -61t85.5 -58t93 -69t85.5 -85.5t63 -116t24 -153.5q0 -171 -97.5 -284t-262.5 -130l-35 -81q26 20 59 20
q52 0 87.5 -40.5t35.5 -102.5q0 -80 -57.5 -127t-149.5 -47z" />
    <glyph glyph-name="scedilla" unicode="&#x15f;" horiz-adv-x="745" 
d="M350 -401q-51 0 -101 18t-83 47l51 105q66 -56 127 -56q34 0 56 17.5t22 46.5q0 22 -11.5 35.5t-31.5 13.5q-27 0 -51 -27l-97 56l45 127q-166 23 -260 124l111 191q43 -44 100 -74t111 -30q52 0 82.5 22.5t30.5 60.5q0 26 -22 46.5t-57 36t-77.5 32.5t-85 43t-77.5 60.5
t-57 91.5t-22 129q0 127 89.5 213t252.5 86q90 0 172 -32.5t144 -88.5l-109 -186q-30 35 -85.5 62.5t-115.5 27.5q-40 0 -66 -20.5t-26 -51.5q0 -24 22.5 -43.5t58 -35t79 -33.5t87 -44.5t79 -61.5t58 -91.5t22.5 -128.5q0 -127 -84 -211.5t-221 -98.5l-35 -81q26 20 59 20
q52 0 87.5 -40.5t35.5 -102.5q0 -80 -57.5 -127t-149.5 -47z" />
    <glyph glyph-name="Scaron" unicode="&#x160;" horiz-adv-x="851" 
d="M596 1481h-246l-131 295h152l102 -177l98 177h150zM399 -25q-241 0 -383 142l129 241q43 -52 106.5 -80t127.5 -28q53 0 84 33.5t31 85.5q0 42 -24 77t-63 62.5t-85.5 56.5t-93.5 66.5t-86 83.5t-63 116t-24 156q0 106 46 196t142 148t226 58q95 0 179.5 -30.5
t144.5 -86.5l-115 -240q-82 82 -199 82q-49 0 -78.5 -30t-29.5 -80q0 -37 24 -70t63 -61t85.5 -58t93 -69t85.5 -85.5t63 -116t24 -153.5q0 -185 -112 -300.5t-298 -115.5z" />
    <glyph glyph-name="scaron" unicode="&#x161;" horiz-adv-x="745" 
d="M508 1139h-246l-131 295h152l102 -177l98 177h150zM365 -25q-116 0 -205.5 36t-143.5 95l111 191q43 -44 100 -74t111 -30q52 0 82.5 22.5t30.5 60.5q0 26 -22 46.5t-57 36t-77.5 32.5t-85 43t-77.5 60.5t-57 91.5t-22 129q0 127 89.5 213t252.5 86q90 0 172 -32.5
t144 -88.5l-109 -186q-30 35 -85.5 62.5t-115.5 27.5q-40 0 -66 -20.5t-26 -51.5q0 -24 22.5 -43.5t58 -35t79 -33.5t87 -44.5t79 -61.5t58 -91.5t22.5 -128.5q0 -137 -97.5 -224.5t-252.5 -87.5z" />
    <glyph glyph-name="Tcommaaccent" unicode="&#x162;" horiz-adv-x="788" 
d="M543 -285q0 -91 -46.5 -172t-125.5 -137l-92 74q42 24 81.5 71.5t49.5 90.5q-11 -7 -31 -7q-50 0 -82.5 33.5t-32.5 87.5t38.5 93.5t92.5 39.5q61 0 104.5 -47.5t43.5 -126.5zM551 0h-311v1096h-203v270h715v-270h-201v-1096z" />
    <glyph glyph-name="tcommaaccent" unicode="&#x163;" horiz-adv-x="552" 
d="M424 -285q0 -91 -46.5 -172t-125.5 -137l-92 74q42 24 81.5 71.5t49.5 90.5q-11 -7 -31 -7q-50 0 -82.5 33.5t-32.5 87.5t38.5 93.5t92.5 39.5q61 0 104.5 -47.5t43.5 -126.5zM367 -25q-133 0 -191.5 67t-58.5 206v500h-90v241h90v271h276v-271h121v-241h-121v-443
q0 -86 49 -86q38 0 54 23l49 -219q-61 -48 -178 -48z" />
    <glyph glyph-name="Tcaron" unicode="&#x164;" horiz-adv-x="788" 
d="M520 1481h-246l-131 295h152l102 -177l99 177h149zM551 0h-311v1096h-203v270h715v-270h-201v-1096z" />
    <glyph glyph-name="tcaron" unicode="&#x165;" horiz-adv-x="552" 
d="M729 1399q0 -91 -46.5 -172t-125.5 -137l-92 73q42 24 81.5 71.5t49.5 90.5q-9 -6 -31 -6q-50 0 -82 33.5t-32 87.5t38.5 93.5t92.5 39.5q61 0 104 -47.5t43 -126.5zM367 -25q-133 0 -191.5 67t-58.5 206v500h-90v241h90v271h276v-271h121v-241h-121v-443q0 -86 49 -86
q38 0 54 23l49 -219q-61 -48 -178 -48z" />
    <glyph glyph-name="Tbar" unicode="&#x166;" horiz-adv-x="788" 
d="M551 0h-311v530h-138v156h138v410h-203v270h715v-270h-201v-410h133v-156h-133v-530z" />
    <glyph glyph-name="tbar" unicode="&#x167;" horiz-adv-x="552" 
d="M367 -25q-133 0 -191.5 67t-58.5 206v176h-90v156h90v168h-90v241h90v271h276v-271h121v-241h-121v-168h66v-156h-66v-119q0 -86 49 -86q38 0 54 23l49 -219q-61 -48 -178 -48z" />
    <glyph glyph-name="Utilde" unicode="&#x168;" horiz-adv-x="1040" 
d="M520 -25q-82 0 -156.5 26.5t-135 78t-96.5 138.5t-36 198v950h310v-967q0 -153 114 -153q115 0 115 153v967h311v-948q0 -112 -36 -199t-97 -139t-135.5 -78.5t-157.5 -26.5zM614 1477q-35 0 -64.5 20.5t-45.5 45t-35.5 45t-36.5 20.5q-23 0 -37 -30t-14 -89h-135
q0 123 49.5 198.5t136.5 75.5q35 0 64.5 -20.5t46 -45t36 -45t37.5 -20.5q50 0 50 119h135q0 -124 -49.5 -199t-137.5 -75z" />
    <glyph glyph-name="utilde" unicode="&#x169;" horiz-adv-x="903" 
d="M821 0h-278v119q-30 -57 -100 -100.5t-140 -43.5q-221 0 -221 228v786h278v-680q0 -90 68 -90q37 0 67.5 32t47.5 77v661h278v-989zM543 1135q-35 0 -64.5 20.5t-46 45t-36 45t-36.5 20.5q-23 0 -37 -30t-14 -89h-135q0 123 49.5 198.5t136.5 75.5q29 0 53.5 -13.5
t41 -32.5t31 -38.5t29.5 -33t30 -13.5q49 0 49 119h135q0 -124 -49 -199t-137 -75z" />
    <glyph glyph-name="Umacron" unicode="&#x16a;" horiz-adv-x="1040" 
d="M520 -25q-82 0 -156.5 26.5t-135 78t-96.5 138.5t-36 198v950h310v-967q0 -153 114 -153q115 0 115 153v967h311v-948q0 -112 -36 -199t-97 -139t-135.5 -78.5t-157.5 -26.5zM791 1489h-539v156h539v-156z" />
    <glyph glyph-name="umacron" unicode="&#x16b;" horiz-adv-x="903" 
d="M821 0h-278v119q-30 -57 -100 -100.5t-140 -43.5q-221 0 -221 228v786h278v-680q0 -90 68 -90q37 0 67.5 32t47.5 77v661h278v-989zM721 1147h-539v156h539v-156z" />
    <glyph glyph-name="Ubreve" unicode="&#x16c;" horiz-adv-x="1040" 
d="M520 -25q-82 0 -156.5 26.5t-135 78t-96.5 138.5t-36 198v950h310v-967q0 -153 114 -153q115 0 115 153v967h311v-948q0 -112 -36 -199t-97 -139t-135.5 -78.5t-157.5 -26.5zM782 1581q-45 -61 -112 -95t-146 -34q-78 0 -147 34.5t-113 94.5l127 96q22 -33 57.5 -52
t75.5 -19q84 0 133 71z" />
    <glyph glyph-name="ubreve" unicode="&#x16d;" horiz-adv-x="903" 
d="M821 0h-278v119q-30 -57 -100 -100.5t-140 -43.5q-221 0 -221 228v786h278v-680q0 -90 68 -90q37 0 67.5 32t47.5 77v661h278v-989zM713 1239q-45 -61 -112 -95t-146 -34q-78 0 -147 34.5t-113 94.5l127 96q22 -33 57.5 -52t75.5 -19q84 0 133 71z" />
    <glyph glyph-name="Uring" unicode="&#x16e;" horiz-adv-x="1040" 
d="M522 1413q-77 0 -132.5 55.5t-55.5 133.5t55.5 133t132.5 55t131 -55t54 -133t-54.5 -133.5t-130.5 -55.5zM522 1530q29 0 49.5 20.5t20.5 51.5q0 30 -20 50.5t-50 20.5t-50.5 -20.5t-20.5 -50.5t20.5 -51t50.5 -21zM520 -25q-82 0 -156.5 26.5t-135 78t-96.5 138.5
t-36 198v950h310v-967q0 -153 114 -153q115 0 115 153v967h311v-948q0 -112 -36 -199t-97 -139t-135.5 -78.5t-157.5 -26.5z" />
    <glyph glyph-name="uring" unicode="&#x16f;" horiz-adv-x="903" 
d="M453 1090q-77 0 -133 55t-56 133t56 133t133 55q76 0 130 -55t54 -133t-54 -133t-130 -55zM453 1206q29 0 49 20.5t20 51.5t-20 51.5t-49 20.5q-30 0 -51 -21t-21 -51t21 -51t51 -21zM821 0h-278v119q-30 -57 -100 -100.5t-140 -43.5q-221 0 -221 228v786h278v-680
q0 -90 68 -90q37 0 67.5 32t47.5 77v661h278v-989z" />
    <glyph glyph-name="Uhungarumlaut" unicode="&#x170;" horiz-adv-x="1040" 
d="M520 -25q-82 0 -156.5 26.5t-135 78t-96.5 138.5t-36 198v950h310v-967q0 -153 114 -153q115 0 115 153v967h311v-948q0 -112 -36 -199t-97 -139t-135.5 -78.5t-157.5 -26.5zM598 1776l-168 -295h-141l106 295h203zM872 1776l-167 -295h-142l107 295h202z" />
    <glyph glyph-name="uhungarumlaut" unicode="&#x171;" horiz-adv-x="903" 
d="M821 0h-278v119q-30 -57 -100 -100.5t-140 -43.5q-221 0 -221 228v786h278v-680q0 -90 68 -90q37 0 67.5 32t47.5 77v661h278v-989zM530 1434l-168 -295h-141l107 295h202zM805 1434l-168 -295h-141l106 295h203z" />
    <glyph glyph-name="Uogonek" unicode="&#x172;" horiz-adv-x="1040" 
d="M657 -215l109 -57q-50 -109 -160 -109q-81 0 -128.5 44t-47.5 130q0 100 62 184q-79 4 -148 32t-125.5 80t-89.5 136t-33 191v950h310v-967q0 -153 114 -153q115 0 115 153v967h311v-948q0 -166 -75 -271.5t-197 -146.5q-53 -37 -82 -90t-29 -107q0 -69 45 -69
q36 0 49 51z" />
    <glyph glyph-name="uogonek" unicode="&#x173;" horiz-adv-x="903" 
d="M821 0q-53 -37 -81.5 -90t-28.5 -107q0 -69 45 -69q36 0 49 51l108 -57q-50 -109 -159 -109q-81 0 -128.5 44t-47.5 130q0 110 79 207h-114v119q-30 -57 -100 -100.5t-140 -43.5q-221 0 -221 228v786h278v-680q0 -90 68 -90q37 0 67.5 32t47.5 77v661h278v-989z" />
    <glyph glyph-name="Wcircumflex" unicode="&#x174;" horiz-adv-x="1331" 
d="M918 1481h-150l-104 176l-97 -176h-151l125 295h245zM1073 0h-309l-98 795l-99 -795h-309l-242 1366h314l96 -827l121 827h237l123 -827l94 827h316z" />
    <glyph glyph-name="wcircumflex" unicode="&#x175;" horiz-adv-x="1312" 
d="M909 1139h-149l-105 176l-96 -176h-151l124 295h246zM1077 0h-291l-129 612l-131 -612h-290l-234 989h285l116 -616l115 616h260l131 -616l115 616h287z" />
    <glyph glyph-name="Ycircumflex" unicode="&#x176;" horiz-adv-x="942" 
d="M723 1481h-150l-104 176l-96 -176h-152l125 295h246zM627 0h-312v559l-327 807h329l154 -514l156 514h325l-325 -807v-559z" />
    <glyph glyph-name="ycircumflex" unicode="&#x177;" horiz-adv-x="835" 
d="M90 -385l39 240q16 -13 43 -13q63 0 80 62l22 76l-278 1009h293l127 -639l131 639h293l-318 -1143q-41 -142 -111.5 -194.5t-197.5 -52.5q-86 0 -123 16zM672 1139h-150l-104 176l-96 -176h-152l125 295h246z" />
    <glyph glyph-name="Ydieresis" unicode="&#x178;" horiz-adv-x="942" 
d="M799 1595q0 -61 -43 -103t-105 -42q-60 0 -102.5 42t-42.5 103t42.5 103.5t102.5 42.5q62 0 105 -42.5t43 -103.5zM440 1595q0 -60 -42 -102.5t-103 -42.5q-60 0 -102.5 42.5t-42.5 102.5t42.5 103t102.5 43q61 0 103 -43t42 -103zM627 0h-312v559l-327 807h329l154 -514
l156 514h325l-325 -807v-559z" />
    <glyph glyph-name="Zacute" unicode="&#x179;" horiz-adv-x="806" 
d="M700 1776l-223 -295h-172l164 295h231zM750 0h-693v260l328 836h-328v270h678v-248l-336 -848h351v-270z" />
    <glyph glyph-name="zacute" unicode="&#x17a;" horiz-adv-x="720" 
d="M655 1434l-223 -295h-172l164 295h231zM674 0h-627v207l285 541h-285v241h619v-196l-287 -551h295v-242z" />
    <glyph glyph-name="Zdotaccent" unicode="&#x17b;" horiz-adv-x="806" 
d="M750 0h-693v260l328 836h-328v270h678v-248l-336 -848h351v-270zM401 1450q-59 0 -102 42t-43 103q0 60 43 102t102 42q60 0 103 -42t43 -102q0 -61 -43 -103t-103 -42z" />
    <glyph glyph-name="zdotaccent" unicode="&#x17c;" horiz-adv-x="720" 
d="M674 0h-627v207l285 541h-285v241h619v-196l-287 -551h295v-242zM356 1108q-59 0 -102 42t-43 103q0 60 43 102t102 42q60 0 103 -42t43 -102q0 -61 -43 -103t-103 -42z" />
    <glyph glyph-name="Zcaron" unicode="&#x17d;" horiz-adv-x="806" 
d="M530 1481h-245l-131 295h151l103 -177l98 177h149zM750 0h-693v260l328 836h-328v270h678v-248l-336 -848h351v-270z" />
    <glyph glyph-name="zcaron" unicode="&#x17e;" horiz-adv-x="720" 
d="M481 1139h-245l-132 295h152l102 -177l99 177h149zM674 0h-627v207l285 541h-285v241h619v-196l-287 -551h295v-242z" />
    <glyph glyph-name="longs" unicode="&#x17f;" horiz-adv-x="536" 
d="M393 0h-276v748h-88v241h88v70q0 160 74.5 243.5t218.5 83.5q119 0 188 -53l-63 -213q-31 31 -66 31q-36 0 -56 -24.5t-20 -67.5v-1059z" />
    <glyph glyph-name="florin" unicode="&#x192;" horiz-adv-x="847" 
d="M334 -330h-316l179 813h-80v244h135l80 371q29 128 130.5 208t225.5 80q116 0 180 -47l-80 -245q-22 22 -57 22q-38 0 -63.5 -26.5t-34.5 -73.5l-64 -289h148v-244h-203z" />
    <glyph glyph-name="Ohorn" unicode="&#x1a0;" horiz-adv-x="1024" 
d="M512 -25q-155 0 -261 93t-154 249t-48 365t48 365t154 249t261 93q226 0 348 -197q55 55 66 106q-6 -6 -29 -6q-43 0 -71.5 31t-28.5 78q0 50 33.5 84.5t82.5 34.5q55 0 94.5 -42.5t39.5 -113.5q0 -77 -37.5 -146t-102.5 -122q68 -174 68 -414q0 -209 -48 -365t-154 -249
t-261 -93zM512 250q145 0 145 432t-145 432t-145 -432t145 -432z" />
    <glyph glyph-name="ohorn" unicode="&#x1a1;" 
d="M879 1090q0 -141 -119 -250q86 -142 86 -344q0 -105 -24.5 -197.5t-72.5 -165.5t-126.5 -115.5t-178.5 -42.5t-178.5 42.5t-126 115.5t-72 165.5t-24.5 197.5t24.5 197t72 164.5t126 114.5t178.5 42q150 0 250 -94q52 52 64 104q-6 -6 -29 -6q-43 0 -71.5 30.5
t-28.5 77.5q0 50 33.5 84.5t82.5 34.5q55 0 94.5 -42t39.5 -113zM444 219q117 0 117 277q0 274 -117 274q-63 0 -88.5 -72.5t-25.5 -201.5q0 -131 25.5 -204t88.5 -73z" />
    <glyph glyph-name="Uhorn" unicode="&#x1af;" horiz-adv-x="1040" 
d="M1143 1489q0 -88 -50.5 -170t-146.5 -137v-764q0 -112 -36 -199t-97 -139t-135.5 -78.5t-157.5 -26.5q-82 0 -156.5 26.5t-135 78t-96.5 138.5t-36 198v950h310v-967q0 -153 114 -153q115 0 115 153v967h311v-61q64 60 76 116q-8 -4 -29 -4q-43 0 -71.5 30t-28.5 77
q0 50 34 84t83 34q55 0 94 -42t39 -111z" />
    <glyph glyph-name="uhorn" unicode="&#x1b0;" horiz-adv-x="903" 
d="M821 0h-278v119q-30 -57 -100 -100.5t-140 -43.5q-221 0 -221 228v786h278v-680q0 -90 68 -90q37 0 67.5 32t47.5 77v661h256q19 27 30 64q-9 -6 -30 -6q-43 0 -72 30.5t-29 77.5q0 50 34 84.5t83 34.5q56 0 94.5 -42t38.5 -112q0 -149 -127 -258v-862z" />
    <glyph glyph-name="AEacute" unicode="&#x1fc;" horiz-adv-x="1296" 
d="M1059 1776l-223 -295h-172l163 295h232zM1245 0h-641v221h-223l-64 -221h-315l467 1366h776v-270h-332v-267h318v-270h-318v-289h332v-270zM604 492v534l-151 -534h151z" />
    <glyph glyph-name="aeacute" unicode="&#x1fd;" horiz-adv-x="1343" 
d="M958 1434l-223 -295h-172l164 295h231zM1307 403h-510q5 -93 49.5 -147.5t132.5 -54.5q42 0 85.5 22.5t76.5 63.5l129 -158q-62 -74 -148 -114t-174 -40q-97 0 -159.5 36t-118.5 112q-54 -69 -126.5 -108.5t-181.5 -39.5q-144 0 -232.5 85.5t-88.5 236.5t77 238.5
t199 87.5q62 0 124 -29.5t91 -81.5v104q0 76 -37.5 120t-109.5 44q-100 0 -207 -96l-98 195q63 67 163 101t179 34q183 0 252 -127q46 60 108 93.5t156 33.5q122 0 206.5 -68.5t123.5 -183t39 -266.5v-93zM797 594h245q0 37 -5.5 69t-17.5 62.5t-37 48t-60 17.5
q-47 0 -76.5 -33.5t-39 -74.5t-9.5 -89zM532 326v28q-34 84 -116 84q-49 0 -79 -35t-30 -90q0 -62 29 -93.5t80 -31.5t83.5 41t32.5 97z" />
    <glyph glyph-name="Oslashacute" unicode="&#x1fe;" horiz-adv-x="1024" 
d="M809 1776l-223 -295h-172l164 295h231zM512 -25q-136 0 -240 74l-24 -49h-172l88 170q-115 187 -115 512q0 209 48 365t154 249t261 93q138 0 240 -76l26 53h172l-90 -174q115 -187 115 -510q0 -209 -48 -365t-154 -249t-261 -93zM367 682q0 -76 2 -113l239 467
q-37 78 -96 78q-145 0 -145 -432zM512 250q145 0 145 432q0 74 -2 109l-239 -465q36 -76 96 -76z" />
    <glyph glyph-name="oslashacute" unicode="&#x1ff;" 
d="M739 1434l-223 -295h-172l164 295h231zM205 0h-150l84 133q-96 137 -96 363q0 105 24.5 197t72 164.5t126 114.5t178.5 42q123 0 215 -66l27 41h148l-84 -133q96 -137 96 -360q0 -105 -24.5 -197.5t-72.5 -165.5t-126.5 -115.5t-178.5 -42.5q-121 0 -215 64zM330 496v-64
l188 295q-25 43 -74 43q-63 0 -88.5 -72.5t-25.5 -201.5zM444 219q117 0 117 277q0 41 -2 61l-188 -297q24 -41 73 -41z" />
    <glyph glyph-name="Scommaaccent" unicode="&#x218;" horiz-adv-x="851" 
d="M569 -285q0 -91 -46.5 -172t-125.5 -137l-92 74q42 24 81.5 71.5t49.5 90.5q-11 -7 -30 -7q-50 0 -82.5 33.5t-32.5 87.5t38.5 93.5t92.5 39.5q61 0 104 -47.5t43 -126.5zM399 -25q-241 0 -383 142l129 241q43 -52 106.5 -80t127.5 -28q53 0 84 33.5t31 85.5q0 42 -24 77
t-63 62.5t-85.5 56.5t-93.5 66.5t-86 83.5t-63 116t-24 156q0 106 46 196t142 148t226 58q95 0 179.5 -30.5t144.5 -86.5l-115 -240q-82 82 -199 82q-49 0 -78.5 -30t-29.5 -80q0 -37 24 -70t63 -61t85.5 -58t93 -69t85.5 -85.5t63 -116t24 -153.5q0 -185 -112 -300.5
t-298 -115.5z" />
    <glyph glyph-name="scommaaccent" unicode="&#x219;" horiz-adv-x="745" 
d="M526 -285q0 -91 -46.5 -172t-125.5 -137l-92 74q42 24 81.5 71.5t49.5 90.5q-11 -7 -31 -7q-50 0 -82 33.5t-32 87.5t38.5 93.5t92.5 39.5q61 0 104 -47.5t43 -126.5zM365 -25q-116 0 -205.5 36t-143.5 95l111 191q43 -44 100 -74t111 -30q52 0 82.5 22.5t30.5 60.5
q0 26 -22 46.5t-57 36t-77.5 32.5t-85 43t-77.5 60.5t-57 91.5t-22 129q0 127 89.5 213t252.5 86q90 0 172 -32.5t144 -88.5l-109 -186q-30 35 -85.5 62.5t-115.5 27.5q-40 0 -66 -20.5t-26 -51.5q0 -24 22.5 -43.5t58 -35t79 -33.5t87 -44.5t79 -61.5t58 -91.5t22.5 -128.5
q0 -137 -97.5 -224.5t-252.5 -87.5z" />
    <glyph glyph-name="uni021A" unicode="&#x21a;" horiz-adv-x="788" 
d="M543 -285q0 -91 -46.5 -172t-125.5 -137l-92 74q42 24 81.5 71.5t49.5 90.5q-11 -7 -31 -7q-50 0 -82.5 33.5t-32.5 87.5t38.5 93.5t92.5 39.5q61 0 104.5 -47.5t43.5 -126.5zM551 0h-311v1096h-203v270h715v-270h-201v-1096z" />
    <glyph glyph-name="uni021B" unicode="&#x21b;" horiz-adv-x="552" 
d="M424 -285q0 -91 -46.5 -172t-125.5 -137l-92 74q42 24 81.5 71.5t49.5 90.5q-11 -7 -31 -7q-50 0 -82.5 33.5t-32.5 87.5t38.5 93.5t92.5 39.5q61 0 104.5 -47.5t43.5 -126.5zM367 -25q-133 0 -191.5 67t-58.5 206v500h-90v241h90v271h276v-271h121v-241h-121v-443
q0 -86 49 -86q38 0 54 23l49 -219q-61 -48 -178 -48z" />
    <glyph glyph-name="uni0237" unicode="&#x237;" horiz-adv-x="442" 
d="M39 -401q-81 0 -125 41l53 225q16 -23 51 -23q64 0 64 103v1044h278v-1044q0 -173 -74.5 -259.5t-246.5 -86.5z" />
    <glyph glyph-name="hsuperior" unicode="&#x2b0;" horiz-adv-x="657" 
d="M592 668h-199v428q0 59 -51 59q-47 0 -76 -68v-419h-198v888h198v-323q24 37 71.5 65.5t96.5 28.5q73 0 115.5 -38.5t42.5 -119.5v-501z" />
    <glyph glyph-name="uni02BC" unicode="&#x2bc;" horiz-adv-x="536" 
d="M451 1167q0 -116 -58 -217t-160 -172l-118 96q52 28 101.5 85t62.5 110q-24 -6 -41 -6q-62 0 -104 43t-42 111q0 70 49.5 119.5t120.5 49.5q79 0 134 -59.5t55 -159.5z" />
    <glyph glyph-name="circumflex" unicode="&#x2c6;" horiz-adv-x="501" 
d="M502 1139h-150l-104 176l-96 -176h-152l125 295h246z" />
    <glyph glyph-name="caron" unicode="&#x2c7;" horiz-adv-x="501" 
d="M377 1139h-246l-131 295h152l102 -177l98 177h150z" />
    <glyph glyph-name="uni02C9" unicode="&#x2c9;" horiz-adv-x="538" 
d="M539 1210h-539v156h539v-156z" />
    <glyph glyph-name="uni02CB" unicode="&#x2cb;" horiz-adv-x="395" 
d="M395 1139h-172l-223 295h233z" />
    <glyph glyph-name="breve" unicode="&#x2d8;" horiz-adv-x="518" 
d="M518 1239q-45 -61 -112 -95t-146 -34q-78 0 -147 34.5t-113 94.5l127 96q22 -33 57.5 -52t75.5 -19q84 0 133 71z" />
    <glyph glyph-name="dotaccent" unicode="&#x2d9;" horiz-adv-x="374" 
d="M188 1108q-59 0 -102 42t-43 103q0 60 43 102t102 42q60 0 103 -42t43 -102q0 -61 -43 -103t-103 -42z" />
    <glyph glyph-name="ring" unicode="&#x2da;" horiz-adv-x="372" 
d="M188 1090q-77 0 -132.5 55t-55.5 133t55.5 133t132.5 55t131 -55t54 -133t-54 -133t-131 -55zM188 1206q29 0 49.5 20.5t20.5 51.5t-20.5 51.5t-49.5 20.5q-30 0 -50.5 -21t-20.5 -51t20.5 -51t50.5 -21z" />
    <glyph glyph-name="ogonek" unicode="&#x2db;" horiz-adv-x="335" 
d="M227 -215l109 -57q-50 -109 -160 -109q-81 0 -128.5 44t-47.5 130q0 147 145 270l99 -63q-53 -37 -82 -90t-29 -107q0 -69 45 -69q36 0 49 51z" />
    <glyph glyph-name="tilde" unicode="&#x2dc;" horiz-adv-x="555" 
d="M369 1135q-35 0 -64.5 20.5t-46 45t-36 45t-36.5 20.5q-23 0 -37 -30t-14 -89h-135q0 123 49.5 198.5t136.5 75.5q29 0 53.5 -13.5t41 -32.5t31 -38.5t29.5 -33t30 -13.5q49 0 49 119h135q0 -124 -49 -199t-137 -75z" />
    <glyph glyph-name="hungarumlaut" unicode="&#x2dd;" horiz-adv-x="583" 
d="M309 1434l-168 -295h-141l106 295h203zM584 1434l-168 -295h-142l107 295h203z" />
    <glyph glyph-name="hookabovecomb" unicode="&#x309;" horiz-adv-x="335" 
d="M129 1487l-100 16q10 54 47.5 84.5t93.5 30.5q59 0 95 -35.5t36 -105.5q0 -51 -29 -111h-104q33 46 33 104q0 29 -10 43.5t-25 14.5q-30 0 -37 -41z" />
    <glyph glyph-name="uni037E" unicode="&#x37e;" horiz-adv-x="530" 
d="M264 655q-70 0 -121 52.5t-51 123.5t51 122t121 51q71 0 122.5 -51.5t51.5 -121.5q0 -71 -52 -123.5t-122 -52.5zM451 109q0 -117 -58.5 -218t-161.5 -174l-116 97q51 27 99.5 84t61.5 110q-18 -6 -40 -6q-61 0 -102.5 43t-41.5 111q0 70 49.5 120t118.5 50q79 0 135 -59
t56 -158z" />
    <glyph glyph-name="tonos" unicode="&#x384;" horiz-adv-x="468" 
d="M344 1128h-121l43 439h223z" />
    <glyph glyph-name="dieresistonos" unicode="&#x385;" horiz-adv-x="903" 
d="M477 1128h-119l41 439h226zM895 1253q0 -61 -42.5 -103t-102.5 -42t-103 42t-43 103t43 103.5t103 42.5t102.5 -42.5t42.5 -103.5zM299 1253q0 -60 -42.5 -102.5t-102.5 -42.5q-59 0 -102.5 42.5t-43.5 102.5t43.5 103t102.5 43q60 0 102.5 -43t42.5 -103z" />
    <glyph glyph-name="Alphatonos" unicode="&#x386;" horiz-adv-x="929" 
d="M147 1128h-120l43 439h223zM936 0h-318l-34 221h-238l-35 -221h-317l293 1366h356zM547 492l-82 534l-82 -534h164z" />
    <glyph glyph-name="Epsilontonos" unicode="&#x388;" horiz-adv-x="933" 
d="M115 1128h-121l43 439h223zM870 0h-643v1366h643v-270h-333v-267h319v-270h-319v-289h333v-270z" />
    <glyph glyph-name="Etatonos" unicode="&#x389;" horiz-adv-x="1173" 
d="M115 1128h-121l43 439h223zM1075 0h-309v567h-229v-567h-310v1366h310v-528h229v528h309v-1366z" />
    <glyph glyph-name="Iotatonos" unicode="&#x38a;" horiz-adv-x="632" 
d="M115 1128h-121l43 439h223zM537 0h-310v1366h310v-1366z" />
    <glyph glyph-name="Omicrontonos" unicode="&#x38c;" horiz-adv-x="1083" 
d="M131 1128h-121l43 439h223zM573 -25q-117 0 -206.5 52.5t-144.5 148.5t-83 223t-28 283t28 283t83 223t144.5 148.5t206.5 52.5q155 0 261 -93t154 -249t48 -365t-48 -365t-154 -249t-261 -93zM573 250q146 0 146 432t-146 432q-145 0 -145 -432t145 -432z" />
    <glyph glyph-name="Upsilontonos" unicode="&#x38e;" horiz-adv-x="1163" 
d="M109 1128h-121l43 439h223zM848 0h-311v559l-328 807h330l153 -514l156 514h326l-326 -807v-559z" />
    <glyph glyph-name="Omegatonos" unicode="&#x38f;" horiz-adv-x="1083" 
d="M131 1128h-121l43 439h223zM139 270h160q-180 176 -180 484q0 191 49 331.5t154 222t258 81.5t258 -81t154.5 -221.5t49.5 -332.5q0 -305 -186 -484h164v-270h-387v270q40 41 66 162.5t26 249.5q0 430 -145 430q-148 0 -148 -430q0 -128 27 -249t67 -163v-270h-387v270z
" />
    <glyph glyph-name="iotadieresistonos" unicode="&#x390;" horiz-adv-x="471" 
d="M262 1128h-119l41 439h226zM680 1253q0 -61 -42.5 -103t-102.5 -42t-103 42t-43 103t43 103.5t103 42.5t102.5 -42.5t42.5 -103.5zM84 1253q0 -60 -42.5 -102.5t-102.5 -42.5q-59 0 -102.5 42.5t-43.5 102.5t43.5 103t102.5 43q60 0 102.5 -43t42.5 -103zM334 -25
q-134 0 -193 67t-59 206v741h278v-702q0 -68 50 -68q12 0 28 4l21 -229q-51 -19 -125 -19z" />
    <glyph glyph-name="Alpha" unicode="&#x391;" horiz-adv-x="929" 
d="M936 0h-318l-34 221h-238l-35 -221h-317l293 1366h356zM547 492l-82 534l-82 -534h164z" />
    <glyph glyph-name="Beta" unicode="&#x392;" horiz-adv-x="976" 
d="M582 0h-486v1366h469q89 0 157 -28.5t108 -78.5t59.5 -110.5t19.5 -130.5q0 -124 -58 -205.5t-155 -107.5q102 -17 167 -111.5t65 -222.5q0 -79 -19.5 -144t-59.5 -117t-108 -81t-159 -29zM481 829q111 0 111 134q0 133 -111 133h-75v-267h75zM489 270q59 0 90 37t31 109
q0 66 -31.5 104.5t-89.5 38.5h-83v-289h83z" />
    <glyph glyph-name="Gamma" unicode="&#x393;" horiz-adv-x="794" 
d="M406 0h-310v1366h643v-270h-333v-1096z" />
    <glyph glyph-name="uni0394" unicode="&#x394;" horiz-adv-x="954" 
d="M961 0h-967l303 1366h358zM602 270l-125 756l-127 -756h252z" />
    <glyph glyph-name="Epsilon" unicode="&#x395;" horiz-adv-x="802" 
d="M739 0h-643v1366h643v-270h-333v-267h319v-270h-319v-289h333v-270z" />
    <glyph glyph-name="Zeta" unicode="&#x396;" horiz-adv-x="806" 
d="M750 0h-693v260l328 836h-328v270h678v-248l-336 -848h351v-270z" />
    <glyph glyph-name="Eta" unicode="&#x397;" horiz-adv-x="1040" 
d="M944 0h-309v567h-229v-567h-310v1366h310v-528h229v528h309v-1366z" />
    <glyph glyph-name="Theta" unicode="&#x398;" horiz-adv-x="1024" 
d="M614 559h-204v270h204v-270zM512 -25q-155 0 -261 93t-154 249t-48 365t48 365t154 249t261 93t261 -93t154 -249t48 -365t-48 -365t-154 -249t-261 -93zM512 250q145 0 145 432t-145 432t-145 -432t145 -432z" />
    <glyph glyph-name="Iota" unicode="&#x399;" horiz-adv-x="501" 
d="M406 0h-310v1366h310v-1366z" />
    <glyph glyph-name="Kappa" unicode="&#x39a;" horiz-adv-x="1017" 
d="M1022 0h-350l-185 485l-81 -172v-313h-310v1366h310v-592l253 592h338l-325 -639z" />
    <glyph glyph-name="Lambda" unicode="&#x39b;" horiz-adv-x="929" 
d="M936 0h-318l-153 1026l-154 -1026h-317l293 1366h356z" />
    <glyph glyph-name="Mu" unicode="&#x39c;" horiz-adv-x="1323" 
d="M1227 0h-305v731l-211 -731h-101l-204 731v-731h-310v1366h387l179 -625l182 625h383v-1366z" />
    <glyph glyph-name="Nu" unicode="&#x39d;" horiz-adv-x="1040" 
d="M944 0h-289l-249 645v-645h-310v1366h310l229 -614v614h309v-1366z" />
    <glyph glyph-name="Xi" unicode="&#x39e;" horiz-adv-x="843" 
d="M780 1096h-714v270h714v-270zM780 0h-714v270h714v-270zM766 559h-686v270h686v-270z" />
    <glyph glyph-name="Omicron" unicode="&#x39f;" horiz-adv-x="1024" 
d="M512 -25q-155 0 -261 93t-154 249t-48 365t48 365t154 249t261 93t261 -93t154 -249t48 -365t-48 -365t-154 -249t-261 -93zM512 250q145 0 145 432t-145 432t-145 -432t145 -432z" />
    <glyph glyph-name="Pi" unicode="&#x3a0;" horiz-adv-x="1040" 
d="M944 0h-309v1096h-229v-1096h-310v1366h848v-1366z" />
    <glyph glyph-name="Rho" unicode="&#x3a1;" horiz-adv-x="960" 
d="M406 0h-310v1366h412q104 0 185 -36t130.5 -98t75 -141t25.5 -169t-25.5 -169t-75 -141t-130.5 -97.5t-185 -35.5h-102v-479zM473 750q63 0 99 47t36 127q0 79 -36 125.5t-99 46.5h-67v-346h67z" />
    <glyph glyph-name="Sigma" unicode="&#x3a3;" horiz-adv-x="780" 
d="M387 1096l223 -396l-233 -430h348v-270h-659v283l225 419l-225 394v270h659v-270h-338z" />
    <glyph glyph-name="Tau" unicode="&#x3a4;" horiz-adv-x="788" 
d="M551 0h-311v1096h-203v270h715v-270h-201v-1096z" />
    <glyph glyph-name="Upsilon" unicode="&#x3a5;" horiz-adv-x="942" 
d="M627 0h-312v559l-327 807h329l154 -514l156 514h325l-325 -807v-559z" />
    <glyph glyph-name="Phi" unicode="&#x3a6;" horiz-adv-x="1415" 
d="M862 0h-309v141q-128 18 -225 66t-157.5 119.5t-91 161t-30.5 194.5t30.5 194.5t91 161t157.5 119.5t225 66v143h309v-143q250 -34 377 -179.5t127 -361.5t-127 -361.5t-377 -179.5v-141zM1051 682q0 204 -189 258v-516q189 57 189 258zM367 682q0 -202 186 -258v516
q-186 -53 -186 -258z" />
    <glyph glyph-name="Chi" unicode="&#x3a7;" horiz-adv-x="970" 
d="M979 0h-342l-152 430l-151 -430h-342l313 698l-297 668h342l135 -408l133 408h343l-297 -668z" />
    <glyph glyph-name="Psi" unicode="&#x3a8;" horiz-adv-x="1480" 
d="M895 0h-309v264q-102 16 -188.5 52t-155 93.5t-107.5 142.5t-39 189v625h314v-623q0 -162 176 -204v827h309v-825q176 44 176 202v623h313v-623q0 -105 -39 -190.5t-108 -143t-154.5 -93.5t-187.5 -52v-264z" />
    <glyph glyph-name="uni03A9" unicode="&#x3a9;" horiz-adv-x="1011" 
d="M66 270h159q-180 176 -180 484q0 191 49 331.5t154 222t258 81.5t258.5 -81t155 -221.5t49.5 -332.5q0 -304 -187 -484h164v-270h-387v270q40 41 66 162.5t26 249.5q0 430 -145 430q-148 0 -148 -430q0 -127 27.5 -248.5t67.5 -163.5v-270h-387v270z" />
    <glyph glyph-name="Iotadieresis" unicode="&#x3aa;" horiz-adv-x="501" 
d="M406 0h-310v1366h310v-1366zM575 1630q0 -61 -42.5 -103t-104.5 -42q-60 0 -102.5 42t-42.5 103t42.5 103.5t102.5 42.5q62 0 104.5 -42.5t42.5 -103.5zM217 1630q0 -60 -42 -102.5t-103 -42.5q-60 0 -103 42.5t-43 102.5t43 103t103 43q61 0 103 -43t42 -103z" />
    <glyph glyph-name="Upsilondieresis" unicode="&#x3ab;" horiz-adv-x="942" 
d="M627 0h-312v559l-327 807h329l154 -514l156 514h325l-325 -807v-559zM795 1630q0 -61 -43 -103t-105 -42q-60 0 -102.5 42t-42.5 103t42.5 103.5t102.5 42.5q62 0 105 -42.5t43 -103.5zM436 1630q0 -60 -42 -102.5t-103 -42.5q-60 0 -103 42.5t-43 102.5t43 103t103 43
q61 0 103 -43t42 -103z" />
    <glyph glyph-name="alphatonos" unicode="&#x3ac;" horiz-adv-x="933" 
d="M504 1128h-121l43 439h223zM901 223l21 -229q-51 -19 -125 -19q-114 0 -166 42.5t-72 121.5q-28 -72 -86.5 -118t-124.5 -46q-148 0 -226.5 137t-78.5 384q0 241 79 379.5t226 138.5q60 0 115 -35.5t84 -106.5v117h276v-702q0 -68 49 -68q13 0 29 4zM444 219q30 0 59 28
t44 70v357q-15 40 -44 67t-59 27q-116 0 -116 -272q0 -277 116 -277z" />
    <glyph glyph-name="epsilontonos" unicode="&#x3ad;" horiz-adv-x="800" 
d="M436 1128h-121l43 439h224zM414 -25q-166 0 -268.5 82.5t-102.5 214.5q0 90 59 156.5t154 79.5q-86 15 -143.5 83t-57.5 148q0 133 106 204t288 71q197 0 327 -148l-129 -166q-77 93 -198 93q-60 0 -93.5 -23.5t-33.5 -69.5q0 -90 124 -90h164v-221h-176q-22 0 -37.5 -1
t-34 -6.5t-30 -14.5t-19.5 -26.5t-8 -41.5q0 -47 32.5 -73.5t90.5 -26.5q152 0 229 94l129 -164q-132 -154 -372 -154z" />
    <glyph glyph-name="etatonos" unicode="&#x3ae;" horiz-adv-x="903" 
d="M487 1128h-120l43 439h223zM821 -377h-278v1055q0 92 -68 92q-37 0 -67.5 -33.5t-47.5 -79.5v-657h-278v989h278v-123q30 58 101 103t139 45q114 0 167.5 -62t53.5 -170v-1159z" />
    <glyph glyph-name="iotatonos" unicode="&#x3af;" horiz-adv-x="471" 
d="M272 1128h-120l43 439h223zM334 -25q-134 0 -193 67t-59 206v741h278v-702q0 -68 50 -68q12 0 28 4l21 -229q-51 -19 -125 -19z" />
    <glyph glyph-name="upsilondieresistonos" unicode="&#x3b0;" horiz-adv-x="897" 
d="M475 1128h-119l41 439h226zM893 1253q0 -61 -42.5 -103t-102.5 -42t-103 42t-43 103t43 103.5t103 42.5t102.5 -42.5t42.5 -103.5zM297 1253q0 -60 -42.5 -102.5t-102.5 -42.5q-59 0 -102.5 42.5t-43.5 102.5t43.5 103t102.5 43q60 0 102.5 -43t42.5 -103zM451 -25
q-74 0 -139.5 24t-117 69.5t-82 118t-30.5 163.5v639h278v-635q0 -135 93 -135q65 0 90.5 78.5t25.5 237.5q0 200 -86 389l262 90q109 -223 109 -479q0 -95 -15 -178.5t-47 -154t-78.5 -120.5t-113.5 -78.5t-149 -28.5z" />
    <glyph glyph-name="alpha" unicode="&#x3b1;" horiz-adv-x="933" 
d="M901 223l21 -229q-51 -19 -125 -19q-114 0 -166 42.5t-72 121.5q-28 -72 -86.5 -118t-124.5 -46q-148 0 -226.5 137t-78.5 384q0 241 79 379.5t226 138.5q60 0 115 -35.5t84 -106.5v117h276v-702q0 -68 49 -68q13 0 29 4zM444 219q30 0 59 28t44 70v357q-15 40 -44 67
t-59 27q-116 0 -116 -272q0 -277 116 -277z" />
    <glyph glyph-name="beta" unicode="&#x3b2;" horiz-adv-x="905" 
d="M360 938v-621q16 -44 43.5 -71t61.5 -27q54 0 80 51.5t26 122.5q0 90 -30 133t-74 43h-33v246h21q45 0 69.5 43t24.5 119q0 164 -84 164q-105 0 -105 -203zM360 117v-494h-278v1315q0 121 31.5 210.5t86.5 139.5t122 74t147 24q167 0 267 -95.5t100 -276.5
q0 -113 -46 -197t-141 -112q99 -25 156 -121t57 -244q0 -67 -19.5 -131.5t-56 -117t-95 -84.5t-130.5 -32q-60 0 -114.5 36t-86.5 106z" />
    <glyph glyph-name="gamma" unicode="&#x3b3;" horiz-adv-x="835" 
d="M555 -377h-276v217q0 323 -82.5 621.5t-221.5 527.5h301q73 -158 115 -299t53 -309q39 120 61.5 283.5t22.5 324.5h277q0 -235 -71.5 -496.5t-178.5 -465.5v-404z" />
    <glyph glyph-name="delta" unicode="&#x3b4;" 
d="M457 -25q-105 0 -186 37t-130 101t-73.5 143.5t-24.5 171.5q0 126 47.5 236.5t126.5 191.5q-98 98 -98 236q0 128 89.5 213.5t254.5 85.5q87 0 169 -32.5t144 -88.5l-106 -187q-32 36 -87 63.5t-116 27.5q-40 0 -66 -20.5t-26 -51.5q0 -25 26 -51.5t67.5 -54t91.5 -61.5
t100.5 -83t92 -109t67.5 -148t26 -192q0 -84 -22 -158t-66.5 -136t-122 -98t-178.5 -36zM590 403q0 103 -44.5 172.5t-123.5 129.5q-92 -118 -92 -275q0 -211 131 -211q67 0 98 52t31 132z" />
    <glyph glyph-name="epsilon" unicode="&#x3b5;" horiz-adv-x="800" 
d="M414 -25q-166 0 -268.5 82.5t-102.5 214.5q0 90 59 156.5t154 79.5q-86 15 -143.5 83t-57.5 148q0 133 106 204t288 71q197 0 327 -148l-129 -166q-77 93 -198 93q-60 0 -93.5 -23.5t-33.5 -69.5q0 -90 124 -90h164v-221h-176q-22 0 -37.5 -1t-34 -6.5t-30 -14.5
t-19.5 -26.5t-8 -41.5q0 -47 32.5 -73.5t90.5 -26.5q152 0 229 94l129 -164q-132 -154 -372 -154z" />
    <glyph glyph-name="zeta" unicode="&#x3b6;" horiz-adv-x="733" 
d="M459 -78q0 28 -10.5 40.5t-38.5 12.5q-154 0 -260.5 120.5t-106.5 293.5q0 425 365 735h-353v242h627v-197q-163 -155 -258.5 -351.5t-95.5 -373.5q0 -104 44 -164.5t132 -60.5q194 0 194 -211q0 -128 -86 -330h-237q32 60 58 130.5t26 113.5z" />
    <glyph glyph-name="eta" unicode="&#x3b7;" horiz-adv-x="903" 
d="M821 -377h-278v1055q0 92 -68 92q-37 0 -67.5 -33.5t-47.5 -79.5v-657h-278v989h278v-123q30 58 101 103t139 45q114 0 167.5 -62t53.5 -170v-1159z" />
    <glyph glyph-name="theta" unicode="&#x3b8;" 
d="M444 -25q-101 0 -179 55t-125.5 152t-72 224t-24.5 278q0 152 24.5 278.5t72.5 223.5t125.5 151t178.5 54q102 0 180 -54t126 -151t72 -223.5t24 -278.5q0 -151 -24 -278t-72 -224.5t-126 -152t-180 -54.5zM444 219q58 0 84 79.5t31 266.5h-229q5 -189 30 -267.5
t84 -78.5zM444 1147q-58 0 -83.5 -78.5t-30.5 -261.5h229q-5 183 -31 261.5t-84 78.5z" />
    <glyph glyph-name="iota" unicode="&#x3b9;" horiz-adv-x="471" 
d="M334 -25q-134 0 -193 67t-59 206v741h278v-702q0 -68 50 -68q12 0 28 4l21 -229q-51 -19 -125 -19z" />
    <glyph glyph-name="kappa" unicode="&#x3ba;" horiz-adv-x="868" 
d="M868 0h-303l-127 367l-78 -148v-219h-278v989h278v-409l189 409h305l-227 -438z" />
    <glyph glyph-name="lambda" unicode="&#x3bb;" horiz-adv-x="835" 
d="M129 1135l-39 239q39 17 123 17q127 0 197.5 -52.5t111.5 -195.5l318 -1143h-293l-131 639l-127 -639h-293l278 1010l-22 75q-17 62 -80 62q-28 0 -43 -12z" />
    <glyph glyph-name="uni03BC" unicode="&#x3bc;" horiz-adv-x="931" 
d="M360 -6v-371h-278v1366h278v-680q0 -90 70 -90q37 0 66.5 32t46.5 77v661h278v-702q0 -68 49 -68q13 0 29 4l19 -229q-47 -19 -123 -19q-106 0 -164.5 43.5t-77.5 135.5q-19 -79 -58 -129t-83 -50q-33 0 -52 19z" />
    <glyph glyph-name="nu" unicode="&#x3bd;" horiz-adv-x="835" 
d="M543 0h-273l-274 989h293l135 -678q52 147 78 327.5t26 350.5h277q0 -242 -75.5 -512t-186.5 -477z" />
    <glyph glyph-name="xi" unicode="&#x3be;" horiz-adv-x="733" 
d="M410 -25q-156 0 -261.5 101.5t-105.5 261.5q0 107 55.5 188.5t151.5 118.5q-95 19 -142 86t-47 150q0 70 42 138t116 105h-139v242h594v-242h-264q-36 -21 -57 -62t-21 -85q0 -81 40.5 -122.5t110.5 -41.5h176v-242h-176q-63 0 -109 -44t-46 -132q0 -72 43.5 -124
t132.5 -52q194 0 194 -211q0 -128 -86 -330h-237q32 60 58 130.5t26 113.5q0 28 -10.5 40.5t-38.5 12.5z" />
    <glyph glyph-name="omicron" unicode="&#x3bf;" 
d="M444 -25q-100 0 -178.5 42.5t-126 115.5t-72 165.5t-24.5 197.5t24.5 197t72 164.5t126 114.5t178.5 42t178.5 -42t126.5 -114.5t72.5 -164.5t24.5 -197t-24.5 -197.5t-72.5 -165.5t-126.5 -115.5t-178.5 -42.5zM444 219q117 0 117 277q0 274 -117 274q-63 0 -88.5 -72.5
t-25.5 -201.5q0 -131 25.5 -204t88.5 -73z" />
    <glyph glyph-name="pi" unicode="&#x3c0;" horiz-adv-x="970" 
d="M854 0h-279v748h-182v-748h-276v748h-90v241h917v-241h-90v-748z" />
    <glyph glyph-name="rho" unicode="&#x3c1;" horiz-adv-x="905" 
d="M557 -25q-59 0 -113.5 35.5t-83.5 106.5v-494h-278v873q0 105 24 197t71 164.5t122.5 114.5t171.5 42q78 0 142.5 -27t110 -74.5t77 -113t46.5 -142.5t15 -163q0 -240 -79.5 -379.5t-225.5 -139.5zM461 219q119 0 119 275q0 276 -111 276q-60 0 -84.5 -72.5t-24.5 -201.5
v-183q15 -42 42 -68t59 -26z" />
    <glyph glyph-name="sigma1" unicode="&#x3c2;" horiz-adv-x="727" 
d="M412 -25q-151 0 -260 148.5t-109 372.5q0 231 110 374.5t296 143.5q83 0 151.5 -25t106.5 -63l-84 -215q-62 59 -121 59q-82 0 -128 -76.5t-46 -197.5t46 -199t128 -78q103 0 147.5 -55t44.5 -156q0 -136 -86 -330h-233q86 162 86 244q0 27 -11 40t-38 13z" />
    <glyph glyph-name="sigma" unicode="&#x3c3;" 
d="M831 436q0 -85 -22.5 -164t-67 -147t-121.5 -109t-176 -41q-125 0 -217 69t-138 186t-46 266q0 99 25 185t75 156t135 111t195 41h385v-244h-129q102 -122 102 -309zM561 465q0 207 -65 280h-21q-44 0 -73.5 -19t-44.5 -55.5t-21 -78t-6 -96.5q0 -131 25.5 -204t88.5 -73
q43 0 70 36.5t37 88.5t10 121z" />
    <glyph glyph-name="tau" unicode="&#x3c4;" horiz-adv-x="663" 
d="M444 -25q-132 0 -190.5 66.5t-58.5 206.5v500h-164v241h602v-241h-162v-443q0 -86 49 -86q33 0 53 23l48 -219q-58 -48 -177 -48z" />
    <glyph glyph-name="upsilon" unicode="&#x3c5;" horiz-adv-x="897" 
d="M451 -25q-74 0 -139.5 24t-117 69.5t-82 118t-30.5 163.5v639h278v-635q0 -135 93 -135q65 0 90.5 78.5t25.5 237.5q0 200 -86 389l262 90q109 -223 109 -479q0 -95 -15 -178.5t-47 -154t-78.5 -120.5t-113.5 -78.5t-149 -28.5z" />
    <glyph glyph-name="phi" unicode="&#x3c6;" horiz-adv-x="1327" 
d="M1284 496q0 -194 -123 -335t-358 -175v-363h-277v363q-121 16 -215 64t-151.5 118.5t-87 156t-29.5 181.5q0 344 315 508l125 -215q-153 -93 -153 -293q0 -223 196 -273v781h136q155 0 276 -42t195.5 -114.5t112.5 -164.5t38 -197zM999 496q0 107 -50.5 176t-145.5 84
v-520q196 50 196 260z" />
    <glyph glyph-name="chi" unicode="&#x3c7;" horiz-adv-x="808" 
d="M811 -377h-293l-115 410l-114 -410h-291l233 686l-223 680h289l106 -403l107 403h289l-224 -680z" />
    <glyph glyph-name="psi" unicode="&#x3c8;" horiz-adv-x="1329" 
d="M803 -377h-277v365q-93 14 -171.5 49.5t-140.5 92.5t-97 142.5t-35 190.5v526h276v-526q0 -185 168 -230v1133h277v-1133q166 46 166 230v526h276v-526q0 -106 -34.5 -191t-96 -142t-139.5 -92.5t-172 -49.5v-365z" />
    <glyph glyph-name="omega" unicode="&#x3c9;" horiz-adv-x="1363" 
d="M1321 496q0 -145 -39 -261.5t-119.5 -188t-191.5 -71.5q-109 0 -187.5 64t-99.5 182q-23 -118 -102 -182t-187 -64q-112 0 -193 71.5t-120 188t-39 261.5q0 163 55.5 304t149.5 214l211 -148q-64 -53 -96.5 -161t-32.5 -216q0 -270 106 -270q107 0 107 277v249h278v-249
q0 -277 107 -277q108 0 108 277q0 102 -33 209.5t-96 160.5l209 148q95 -73 150 -213.5t55 -304.5z" />
    <glyph glyph-name="iotadieresis" unicode="&#x3ca;" horiz-adv-x="471" 
d="M561 1253q0 -61 -42.5 -103t-104.5 -42q-60 0 -103 42t-43 103t43 103.5t103 42.5q62 0 104.5 -42.5t42.5 -103.5zM203 1253q0 -60 -42.5 -102.5t-103.5 -42.5q-60 0 -102.5 42.5t-42.5 102.5t42.5 103t102.5 43q61 0 103.5 -43t42.5 -103zM334 -25q-134 0 -193 67
t-59 206v741h278v-702q0 -68 50 -68q12 0 28 4l21 -229q-51 -19 -125 -19z" />
    <glyph glyph-name="upsilondieresis" unicode="&#x3cb;" horiz-adv-x="897" 
d="M774 1253q0 -61 -42.5 -103t-104.5 -42q-60 0 -103 42t-43 103t43 103.5t103 42.5q62 0 104.5 -42.5t42.5 -103.5zM416 1253q0 -60 -42.5 -102.5t-103.5 -42.5q-60 0 -102.5 42.5t-42.5 102.5t42.5 103t102.5 43q61 0 103.5 -43t42.5 -103zM451 -25q-74 0 -139.5 24
t-117 69.5t-82 118t-30.5 163.5v639h278v-635q0 -135 93 -135q65 0 90.5 78.5t25.5 237.5q0 200 -86 389l262 90q109 -223 109 -479q0 -95 -15 -178.5t-47 -154t-78.5 -120.5t-113.5 -78.5t-149 -28.5z" />
    <glyph glyph-name="omicrontonos" unicode="&#x3cc;" 
d="M479 1128h-121l43 439h224zM444 -25q-100 0 -178.5 42.5t-126 115.5t-72 165.5t-24.5 197.5t24.5 197t72 164.5t126 114.5t178.5 42t178.5 -42t126.5 -114.5t72.5 -164.5t24.5 -197t-24.5 -197.5t-72.5 -165.5t-126.5 -115.5t-178.5 -42.5zM444 219q117 0 117 277
q0 274 -117 274q-63 0 -88.5 -72.5t-25.5 -201.5q0 -131 25.5 -204t88.5 -73z" />
    <glyph glyph-name="upsilontonos" unicode="&#x3cd;" horiz-adv-x="897" 
d="M485 1128h-120l43 439h223zM451 -25q-74 0 -139.5 24t-117 69.5t-82 118t-30.5 163.5v639h278v-635q0 -135 93 -135q65 0 90.5 78.5t25.5 237.5q0 200 -86 389l262 90q109 -223 109 -479q0 -95 -15 -178.5t-47 -154t-78.5 -120.5t-113.5 -78.5t-149 -28.5z" />
    <glyph glyph-name="omegatonos" unicode="&#x3ce;" horiz-adv-x="1363" 
d="M717 1128h-121l43 439h223zM1321 496q0 -145 -39 -261.5t-119.5 -188t-191.5 -71.5q-109 0 -187.5 64t-99.5 182q-23 -118 -102 -182t-187 -64q-112 0 -193 71.5t-120 188t-39 261.5q0 163 55.5 304t149.5 214l211 -148q-64 -53 -96.5 -161t-32.5 -216q0 -270 106 -270
q107 0 107 277v249h278v-249q0 -277 107 -277q108 0 108 277q0 102 -33 209.5t-96 160.5l209 148q95 -73 150 -213.5t55 -304.5z" />
    <glyph glyph-name="afii10023" unicode="&#x401;" horiz-adv-x="802" 
d="M741 1595q0 -61 -42.5 -103t-104.5 -42q-60 0 -102.5 42t-42.5 103t42.5 103.5t102.5 42.5q62 0 104.5 -42.5t42.5 -103.5zM383 1595q0 -60 -42 -102.5t-103 -42.5q-60 0 -103 42.5t-43 102.5t43 103t103 43q61 0 103 -43t42 -103zM739 0h-643v1366h643v-270h-333v-267
h319v-270h-319v-289h333v-270z" />
    <glyph glyph-name="afii10051" unicode="&#x402;" horiz-adv-x="1060" 
d="M563 -25v275q61 0 93 38t32 124v30q0 80 -40 127t-109 47q-52 0 -88 -10l2 -606h-312v1096h-202v270h714v-270h-202v-226q70 17 145 17q96 0 174 -36t127 -97.5t75.5 -140.5t26.5 -169v-32q0 -115 -34 -201.5t-94.5 -136.5t-137.5 -74.5t-170 -24.5z" />
    <glyph glyph-name="afii10052" unicode="&#x403;" horiz-adv-x="794" 
d="M715 1776l-223 -295h-173l164 295h232zM406 0h-310v1366h643v-270h-333v-1096z" />
    <glyph glyph-name="afii10053" unicode="&#x404;" horiz-adv-x="917" 
d="M514 -25q-118 0 -208 52t-145.5 147.5t-83.5 223t-28 284.5q0 158 28 285.5t83.5 222.5t145.5 147t208 52q71 0 129 -22.5t95.5 -56t68.5 -84t47.5 -93t32.5 -97.5l-246 -90q-19 85 -47 126.5t-80 41.5q-120 0 -143 -285h354v-270h-354q16 -309 143 -309q105 0 129 194
l246 -88q-14 -57 -29.5 -103t-46 -100.5t-69 -91t-98 -61.5t-132.5 -25z" />
    <glyph glyph-name="afii10054" unicode="&#x405;" horiz-adv-x="851" 
d="M399 -25q-241 0 -383 142l129 241q43 -52 106.5 -80t127.5 -28q53 0 84 33.5t31 85.5q0 42 -24 77t-63 62.5t-85.5 56.5t-93.5 66.5t-86 83.5t-63 116t-24 156q0 106 46 196t142 148t226 58q95 0 179.5 -30.5t144.5 -86.5l-115 -240q-82 82 -199 82q-49 0 -78.5 -30
t-29.5 -80q0 -37 24 -70t63 -61t85.5 -58t93 -69t85.5 -85.5t63 -116t24 -153.5q0 -185 -112 -300.5t-298 -115.5z" />
    <glyph glyph-name="afii10055" unicode="&#x406;" horiz-adv-x="501" 
d="M406 0h-310v1366h310v-1366z" />
    <glyph glyph-name="afii10056" unicode="&#x407;" horiz-adv-x="501" 
d="M406 0h-310v1366h310v-1366zM575 1595q0 -61 -42.5 -103t-104.5 -42q-60 0 -102.5 42t-42.5 103t42.5 103.5t102.5 42.5q62 0 104.5 -42.5t42.5 -103.5zM217 1595q0 -60 -42 -102.5t-103 -42.5q-60 0 -103 42.5t-43 102.5t43 103t103 43q61 0 103 -43t42 -103z" />
    <glyph glyph-name="afii10057" unicode="&#x408;" horiz-adv-x="741" 
d="M244 -25q-139 0 -228 66l78 254q42 -45 113 -45q61 0 96 33.5t35 99.5v983h311v-999q0 -197 -108.5 -294.5t-296.5 -97.5z" />
    <glyph glyph-name="afii10058" unicode="&#x409;" horiz-adv-x="1499" 
d="M29 -25v275q33 0 53.5 11t40.5 48.5t33 114t22 201.5l49 741h717v-479h103q104 0 184.5 -35.5t129.5 -97.5t74 -140.5t25 -169.5q0 -71 -15.5 -135.5t-48.5 -121t-80.5 -98t-116.5 -65.5t-152 -24h-412v1096h-121l-29 -475q-8 -136 -27.5 -241t-51.5 -174.5t-70 -116
t-89.5 -71t-102 -34t-115.5 -9.5zM1012 616h-68v-346h68q63 0 99 46.5t36 125.5q0 80 -36 127t-99 47z" />
    <glyph glyph-name="afii10059" unicode="&#x40a;" horiz-adv-x="1499" 
d="M96 0v1366h310v-528h229v528h309v-528h103q103 0 184 -34t130 -92.5t74 -132.5t25 -159t-25 -159t-74 -133.5t-130 -93.5t-184 -34h-412v567h-229v-567h-310zM944 270h68q63 0 99 40.5t36 109.5q0 68 -36 107.5t-99 39.5h-68v-297z" />
    <glyph glyph-name="afii10060" unicode="&#x40b;" horiz-adv-x="1060" 
d="M680 0v442q0 81 -36.5 127.5t-104.5 46.5q-52 0 -88 -10l2 -606h-312v1096h-202v270h714v-270h-202v-226q70 17 145 17q96 0 172.5 -36t123.5 -97.5t72 -140.5t25 -169v-444h-309z" />
    <glyph glyph-name="afii10061" unicode="&#x40c;" horiz-adv-x="1017" 
d="M811 1776l-223 -295h-172l164 295h231zM1022 0h-350l-185 485l-81 -172v-313h-310v1366h310v-592l253 592h338l-325 -639z" />
    <glyph glyph-name="afii10062" unicode="&#x40e;" horiz-adv-x="942" 
d="M203 -25q-132 0 -217 58l71 254q41 -35 103 -35q39 0 66.5 29.5t41.5 70.5l37 107l-317 907h329l154 -528l154 530l327 -2l-366 -1047q-34 -94 -66.5 -154.5t-77 -105.5t-102.5 -64.5t-137 -19.5zM729 1581q-45 -61 -112 -95t-146 -34q-78 0 -147 34.5t-113 94.5l127 96
q22 -33 57.5 -52t75.5 -19q84 0 133 71z" />
    <glyph glyph-name="afii10145" unicode="&#x40f;" horiz-adv-x="1040" 
d="M96 0v1366h310v-1096h229v1096h309v-1366h-268v-262h-311v262h-269z" />
    <glyph glyph-name="afii10017" unicode="&#x410;" horiz-adv-x="929" 
d="M936 0h-318l-34 221h-238l-35 -221h-317l293 1366h356zM547 492l-82 534l-82 -534h164z" />
    <glyph glyph-name="afii10018" unicode="&#x411;" horiz-adv-x="960" 
d="M96 1366h750v-270h-440v-209h102q104 0 185 -35.5t130.5 -97.5t75 -141t25.5 -169q0 -89 -25.5 -168t-75 -141t-131 -98.5t-184.5 -36.5h-412v1366zM473 616h-67v-346h67q63 0 99 46.5t36 125.5q0 80 -36 127t-99 47z" />
    <glyph glyph-name="afii10019" unicode="&#x412;" horiz-adv-x="976" 
d="M582 0h-486v1366h469q89 0 157 -28.5t108 -78.5t59.5 -110.5t19.5 -130.5q0 -124 -58 -205.5t-155 -107.5q102 -17 167 -111.5t65 -222.5q0 -79 -19.5 -144t-59.5 -117t-108 -81t-159 -29zM481 829q111 0 111 134q0 133 -111 133h-75v-267h75zM489 270q59 0 90 37t31 109
q0 66 -31.5 104.5t-89.5 38.5h-83v-289h83z" />
    <glyph glyph-name="afii10020" unicode="&#x413;" horiz-adv-x="794" 
d="M406 0h-310v1366h643v-270h-333v-1096z" />
    <glyph glyph-name="afii10021" unicode="&#x414;" horiz-adv-x="1064" 
d="M27 -252v502q28 5 44 12t35.5 29t31 62t22.5 111t18 175l49 727h717v-1096h96v-522h-311v252h-391v-252h-311zM489 688q-17 -281 -114 -418h260v826h-121z" />
    <glyph glyph-name="afii10022" unicode="&#x415;" horiz-adv-x="802" 
d="M739 0h-643v1366h643v-270h-333v-267h319v-270h-319v-289h333v-270z" />
    <glyph glyph-name="afii10024" unicode="&#x416;" horiz-adv-x="1421" 
d="M346 0h-348l350 727l-325 639h337l195 -457v457h311v-457l195 457h340l-328 -639l350 -727h-348l-186 485l-23 -49v-436h-311v436l-23 49z" />
    <glyph glyph-name="afii10025" unicode="&#x417;" horiz-adv-x="952" 
d="M467 -25q-144 0 -257.5 61t-176.5 159l205 184q83 -129 208 -129q146 0 146 153q0 76 -46.5 114t-113.5 38h-160v272h140q76 0 118.5 36.5t42.5 105.5q0 143 -139 143q-55 0 -106 -30.5t-82 -86.5l-197 168q72 110 180.5 166.5t237.5 56.5q190 0 306 -94.5t116 -277.5
q0 -109 -67.5 -198.5t-174.5 -110.5q119 -21 189.5 -112t70.5 -214q0 -182 -121.5 -293t-318.5 -111z" />
    <glyph glyph-name="afii10026" unicode="&#x418;" horiz-adv-x="1040" 
d="M385 0h-289v1366h310v-637l229 637h309v-1366h-309v668z" />
    <glyph glyph-name="afii10027" unicode="&#x419;" horiz-adv-x="1040" 
d="M385 0h-289v1366h310v-637l229 637h309v-1366h-309v668zM778 1581q-45 -61 -112 -95t-146 -34q-78 0 -147 34.5t-113 94.5l127 96q22 -33 57.5 -52t75.5 -19q84 0 133 71z" />
    <glyph glyph-name="afii10028" unicode="&#x41a;" horiz-adv-x="1017" 
d="M1022 0h-350l-185 485l-81 -172v-313h-310v1366h310v-592l253 592h338l-325 -639z" />
    <glyph glyph-name="afii10029" unicode="&#x41b;" horiz-adv-x="1040" 
d="M29 -25v275q33 0 53.5 11t40.5 48.5t33 114t22 201.5l49 741h717v-1366h-311v1096h-119l-29 -475q-8 -136 -27.5 -241t-51.5 -174.5t-70 -116t-89.5 -71t-102 -34t-115.5 -9.5z" />
    <glyph glyph-name="afii10030" unicode="&#x41c;" horiz-adv-x="1323" 
d="M1227 0h-305v731l-211 -731h-101l-204 731v-731h-310v1366h387l179 -625l182 625h383v-1366z" />
    <glyph glyph-name="afii10031" unicode="&#x41d;" horiz-adv-x="1040" 
d="M944 0h-309v567h-229v-567h-310v1366h310v-528h229v528h309v-1366z" />
    <glyph glyph-name="afii10032" unicode="&#x41e;" horiz-adv-x="1024" 
d="M512 -25q-155 0 -261 93t-154 249t-48 365t48 365t154 249t261 93t261 -93t154 -249t48 -365t-48 -365t-154 -249t-261 -93zM512 250q145 0 145 432t-145 432t-145 -432t145 -432z" />
    <glyph glyph-name="afii10033" unicode="&#x41f;" horiz-adv-x="1040" 
d="M944 0h-309v1096h-229v-1096h-310v1366h848v-1366z" />
    <glyph glyph-name="afii10034" unicode="&#x420;" horiz-adv-x="960" 
d="M406 0h-310v1366h412q104 0 185 -36t130.5 -98t75 -141t25.5 -169t-25.5 -169t-75 -141t-130.5 -97.5t-185 -35.5h-102v-479zM473 750q63 0 99 47t36 127q0 79 -36 125.5t-99 46.5h-67v-346h67z" />
    <glyph glyph-name="afii10035" unicode="&#x421;" horiz-adv-x="917" 
d="M514 -25q-118 0 -208 52t-145.5 147.5t-83.5 223t-28 284.5q0 158 28 285.5t83.5 222.5t145.5 147t208 52q71 0 129 -22.5t95.5 -56t68.5 -84t47.5 -93t32.5 -97.5l-246 -90q-19 85 -47 126.5t-80 41.5q-147 0 -147 -432t147 -432q105 0 129 194l246 -88
q-14 -57 -29.5 -103t-46 -100.5t-69 -91t-98 -61.5t-132.5 -25z" />
    <glyph glyph-name="afii10036" unicode="&#x422;" horiz-adv-x="788" 
d="M551 0h-311v1096h-203v270h715v-270h-201v-1096z" />
    <glyph glyph-name="afii10037" unicode="&#x423;" horiz-adv-x="942" 
d="M203 -25q-132 0 -217 58l71 254q41 -35 103 -35q39 0 66.5 29.5t41.5 70.5l37 107l-317 907h329l154 -528l154 530l327 -2l-366 -1047q-34 -94 -66.5 -154.5t-77 -105.5t-102.5 -64.5t-137 -19.5z" />
    <glyph glyph-name="afii10038" unicode="&#x424;" horiz-adv-x="1415" 
d="M862 0h-309v141q-128 18 -225 66t-157.5 119.5t-91 161t-30.5 194.5t30.5 194.5t91 161t157.5 119.5t225 66v143h309v-143q250 -34 377 -179.5t127 -361.5t-127 -361.5t-377 -179.5v-141zM1051 682q0 204 -189 258v-516q189 57 189 258zM367 682q0 -202 186 -258v516
q-186 -53 -186 -258z" />
    <glyph glyph-name="afii10039" unicode="&#x425;" horiz-adv-x="970" 
d="M979 0h-342l-152 430l-151 -430h-342l313 698l-297 668h342l135 -408l133 408h343l-297 -668z" />
    <glyph glyph-name="afii10040" unicode="&#x426;" horiz-adv-x="1064" 
d="M729 -252v252h-633v1366h310v-1096h229v1096h309v-1096h96v-522h-311z" />
    <glyph glyph-name="afii10041" unicode="&#x427;" horiz-adv-x="1015" 
d="M381 1366v-442q0 -80 37 -127t104 -47q41 0 86 10v606h312v-1366h-312v496q-66 -17 -143 -17q-96 0 -172.5 36t-123.5 97.5t-72 140.5t-25 169v444h309z" />
    <glyph glyph-name="afii10042" unicode="&#x428;" horiz-adv-x="1503" 
d="M1098 1366h309v-1366h-1311v1366h310v-1096h190v1096h311v-1096h191v1096z" />
    <glyph glyph-name="afii10043" unicode="&#x429;" horiz-adv-x="1525" 
d="M1098 1366h309v-1096h94v-522h-309v252h-1096v1366h310v-1096h190v1096h311v-1096h191v1096z" />
    <glyph glyph-name="afii10044" unicode="&#x42a;" horiz-adv-x="1103" 
d="M651 0h-411v1096h-203v270h514v-479h100q84 0 153.5 -23.5t117.5 -64.5t81 -97t48.5 -121t15.5 -137q0 -71 -15.5 -135.5t-48.5 -121t-81 -98t-117.5 -65.5t-153.5 -24zM618 616h-67v-346h67q62 0 98 46.5t36 125.5q0 80 -35.5 127t-98.5 47z" />
    <glyph glyph-name="afii10045" unicode="&#x42b;" horiz-adv-x="1409" 
d="M96 1366h310v-479h102q104 0 185 -35.5t130.5 -97.5t75 -141t25.5 -169q0 -89 -25.5 -168t-75 -141t-131 -98.5t-184.5 -36.5h-412v1366zM473 616h-67v-346h67q63 0 99 46.5t36 125.5q0 80 -36 127t-99 47zM1315 0h-311v1366h311v-1366z" />
    <glyph glyph-name="afii10046" unicode="&#x42c;" horiz-adv-x="960" 
d="M96 1366h310v-479h102q104 0 185 -35.5t130.5 -97.5t75 -141t25.5 -169q0 -89 -25.5 -168t-75 -141t-131 -98.5t-184.5 -36.5h-412v1366zM473 616h-67v-346h67q63 0 99 46.5t36 125.5q0 80 -36 127t-99 47z" />
    <glyph glyph-name="afii10047" unicode="&#x42d;" horiz-adv-x="917" 
d="M403 -25q-73 0 -132.5 25t-97.5 61.5t-68.5 91t-46 100.5t-29.5 103l243 88q28 -194 131 -194q124 0 144 309h-354v270h352q-20 285 -142 285q-52 0 -80 -41t-49 -127l-243 90q16 55 32.5 97.5t47 93t68 84t95.5 56t129 22.5q117 0 206.5 -52t145 -147t83.5 -222.5
t28 -285.5q0 -157 -28 -284.5t-83.5 -223t-145 -147.5t-206.5 -52z" />
    <glyph glyph-name="afii10048" unicode="&#x42e;" horiz-adv-x="1511" 
d="M999 -25q-141 0 -241 76.5t-152 206.5t-65 309h-133v-567h-312v1366h312v-528h137q17 167 69.5 288t150.5 192t234 71q155 0 261 -93t154 -249t48 -365t-48 -365t-154 -249t-261 -93zM999 250q146 0 146 432t-146 432q-145 0 -145 -432t145 -432z" />
    <glyph glyph-name="afii10049" unicode="&#x42f;" horiz-adv-x="993" 
d="M389 0h-332l183 553q-170 108 -170 381q0 188 113 310t286 122h428v-1366h-309v479h-66zM518 750h70v346h-70q-62 0 -97.5 -47t-35.5 -127q0 -79 35.5 -125.5t97.5 -46.5z" />
    <glyph glyph-name="afii10065" unicode="&#x430;" 
d="M807 0h-277v94q-31 -53 -93 -86t-122 -33q-121 0 -197.5 88.5t-76.5 239.5t76 235.5t198 84.5q62 0 124 -29.5t91 -81.5v104q0 76 -38 120t-109 44q-98 0 -205 -96l-98 195q64 68 166 101.5t196 33.5q167 0 266 -83t99 -247v-684zM420 160q76 0 110 82v112
q-35 84 -110 84q-50 0 -77.5 -37.5t-27.5 -101.5q0 -63 27.5 -101t77.5 -38z" />
    <glyph glyph-name="afii10066" unicode="&#x431;" horiz-adv-x="886" 
d="M442 219q117 0 117 279q0 272 -117 272q-114 0 -114 -272q0 -279 114 -279zM442 -25q-104 0 -182 42t-125 118.5t-69.5 178t-22.5 227.5q0 131 7 227.5t25.5 177t47.5 135.5t74 97t104.5 68.5t140.5 43.5q101 21 101 76h272q0 -55 -20 -100t-48.5 -72t-71 -49t-75 -32
t-74.5 -19q-125 -28 -182.5 -70t-77.5 -121q86 111 234 111q88 0 155.5 -42t108 -114.5t60.5 -163.5t20 -196q0 -83 -14.5 -158.5t-46 -143t-77.5 -116t-113.5 -77t-150.5 -28.5z" />
    <glyph glyph-name="afii10067" unicode="&#x432;" horiz-adv-x="892" 
d="M535 0h-453v989h438q157 0 233 -72t76 -182q0 -85 -48 -142.5t-128 -80.5q87 -19 140 -85.5t53 -156.5q0 -121 -75.5 -195.5t-235.5 -74.5zM469 219q46 0 70 22.5t24 63.5q0 38 -25 63t-69 25h-109v-174h109zM461 612q86 0 86 80q0 78 -86 78h-101v-158h101z" />
    <glyph glyph-name="afii10068" unicode="&#x433;" horiz-adv-x="665" 
d="M639 989v-241h-279v-748h-278v989h557z" />
    <glyph glyph-name="afii10069" unicode="&#x434;" horiz-adv-x="933" 
d="M31 -252v465q23 4 39.5 15t33.5 38t28.5 79.5t17.5 131.5l34 512h637v-747h92v-494h-278v252h-326v-252h-278zM444 748l-16 -259q-11 -168 -78 -247h193v506h-99z" />
    <glyph glyph-name="afii10070" unicode="&#x435;" horiz-adv-x="860" 
d="M463 -25q-197 0 -308.5 143t-111.5 378q0 146 44 261.5t136.5 186t220.5 70.5q97 0 170.5 -38t118.5 -107.5t67.5 -161.5t22.5 -205v-99h-512q2 -91 47 -146.5t136 -55.5q42 0 86 22.5t79 63.5l127 -158q-62 -73 -148.5 -113.5t-174.5 -40.5zM559 594q0 197 -125 197
q-47 0 -76 -32.5t-38 -73t-9 -91.5h248z" />
    <glyph glyph-name="afii10072" unicode="&#x436;" horiz-adv-x="1179" 
d="M303 0h-303l242 551l-228 438h305l132 -284v284h278v-282l131 282h305l-229 -438l242 -551h-304l-124 367l-21 -39v-328h-278v328l-21 39z" />
    <glyph glyph-name="afii10073" unicode="&#x437;" horiz-adv-x="800" 
d="M387 -25q-242 0 -371 154l129 164q77 -94 228 -94q58 0 90.5 26.5t32.5 73.5q0 30 -10.5 49t-31.5 27.5t-39.5 11t-47.5 2.5h-174v221h161q127 0 127 90q0 46 -34.5 69.5t-94.5 23.5q-118 0 -196 -93l-129 166q130 148 325 148q182 0 287.5 -71t105.5 -204
q0 -80 -57 -148t-143 -83q96 -13 155.5 -79.5t59.5 -156.5q0 -132 -103.5 -214.5t-269.5 -82.5z" />
    <glyph glyph-name="afii10074" unicode="&#x438;" horiz-adv-x="903" 
d="M348 0h-266v989h278v-444l175 444h284v-989h-276v473z" />
    <glyph glyph-name="afii10075" unicode="&#x439;" horiz-adv-x="903" 
d="M348 0h-266v989h278v-444l175 444h284v-989h-276v473zM711 1239q-45 -61 -112 -95t-146 -34q-78 0 -147 34.5t-113 94.5l126 96q21 -33 57.5 -52t76.5 -19q84 0 133 71z" />
    <glyph glyph-name="afii10076" unicode="&#x43a;" horiz-adv-x="868" 
d="M868 0h-303l-127 367l-78 -148v-219h-278v989h278v-409l189 409h305l-227 -438z" />
    <glyph glyph-name="afii10077" unicode="&#x43b;" horiz-adv-x="903" 
d="M31 -25v238q18 0 31.5 4t28.5 20t25.5 43.5t19.5 77t14 119.5l34 512h637v-989h-278v748h-99l-18 -295q-10 -143 -37 -235.5t-77 -146.5t-116 -75t-165 -21z" />
    <glyph glyph-name="afii10078" unicode="&#x43c;" horiz-adv-x="1138" 
d="M1057 0h-273v502l-163 -502h-103l-158 502v-502h-278v989h340l147 -465l156 465h332v-989z" />
    <glyph glyph-name="afii10079" unicode="&#x43d;" horiz-adv-x="903" 
d="M360 0h-278v989h278v-352h183v352h278v-989h-278v395h-183v-395z" />
    <glyph glyph-name="afii10080" unicode="&#x43e;" 
d="M444 -25q-100 0 -178.5 42.5t-126 115.5t-72 165.5t-24.5 197.5t24.5 197t72 164.5t126 114.5t178.5 42t178.5 -42t126.5 -114.5t72.5 -164.5t24.5 -197t-24.5 -197.5t-72.5 -165.5t-126.5 -115.5t-178.5 -42.5zM444 219q117 0 117 277q0 274 -117 274q-63 0 -88.5 -72.5
t-25.5 -201.5q0 -131 25.5 -204t88.5 -73z" />
    <glyph glyph-name="afii10081" unicode="&#x43f;" horiz-adv-x="903" 
d="M821 0h-278v748h-183v-748h-278v989h739v-989z" />
    <glyph glyph-name="afii10082" unicode="&#x440;" horiz-adv-x="905" 
d="M557 -25q-59 0 -113.5 35.5t-83.5 106.5v-494h-278v1366h278v-117q32 70 85.5 106t111.5 36q147 0 226 -136.5t79 -383.5q0 -240 -79.5 -379.5t-225.5 -139.5zM461 219q119 0 119 275q0 276 -119 276q-32 0 -59 -25t-42 -67v-365q15 -42 42 -68t59 -26z" />
    <glyph glyph-name="afii10083" unicode="&#x441;" horiz-adv-x="733" 
d="M449 -25q-185 0 -295.5 144.5t-110.5 376.5q0 231 110 374.5t296 143.5q83 0 151.5 -25t106.5 -63l-84 -215q-62 59 -121 59q-82 0 -128 -76.5t-46 -197.5t46 -199t128 -78q58 0 121 60l84 -216q-37 -39 -105.5 -63.5t-152.5 -24.5z" />
    <glyph glyph-name="afii10084" unicode="&#x442;" horiz-adv-x="645" 
d="M463 0h-279v748h-157v241h591v-241h-155v-748z" />
    <glyph glyph-name="afii10085" unicode="&#x443;" horiz-adv-x="835" 
d="M90 -385l39 240q16 -13 43 -13q63 0 80 62l22 76l-278 1009h293l127 -639l131 639h293l-318 -1143q-41 -142 -111.5 -194.5t-197.5 -52.5q-86 0 -123 16z" />
    <glyph glyph-name="afii10086" unicode="&#x444;" horiz-adv-x="1331" 
d="M338 1014q56 0 108 -36t80 -106v494h279v-494q31 70 81.5 106t106.5 36q139 0 215 -136.5t76 -383.5q0 -239 -76.5 -379t-214.5 -140q-57 0 -108.5 35.5t-79.5 106.5v-494h-279v494q-29 -71 -80 -106.5t-108 -35.5q-138 0 -213.5 138t-75.5 383q0 241 75.5 379.5
t213.5 138.5zM436 770q-31 0 -52 -20.5t-32.5 -59t-16.5 -85.5t-5 -109q0 -277 108 -277q27 0 51.5 26t36.5 68v363q-12 42 -36.5 68t-53.5 26zM893 219q111 0 111 275q0 276 -109 276q-28 0 -52 -25t-38 -67v-365q14 -42 37.5 -68t50.5 -26z" />
    <glyph glyph-name="afii10087" unicode="&#x445;" horiz-adv-x="808" 
d="M811 0h-295l-113 295l-112 -295h-293l233 498l-223 491h291l104 -289l105 289h291l-224 -491z" />
    <glyph glyph-name="afii10088" unicode="&#x446;" horiz-adv-x="933" 
d="M635 -252v252h-553v989h278v-747h183v747h278v-747h92v-494h-278z" />
    <glyph glyph-name="afii10089" unicode="&#x447;" horiz-adv-x="894" 
d="M74 989h278v-350q0 -86 78 -86q60 0 105 27v409h278v-989h-278v369q-32 -25 -87.5 -42.5t-117.5 -17.5q-138 0 -197 60t-59 170v450z" />
    <glyph glyph-name="afii10090" unicode="&#x448;" horiz-adv-x="1318" 
d="M958 989h279v-989h-1155v989h278v-747h160v747h279v-747h159v747z" />
    <glyph glyph-name="afii10091" unicode="&#x449;" horiz-adv-x="1349" 
d="M958 989h279v-747h90v-494h-276v252h-969v989h278v-747h160v747h279v-747h159v747z" />
    <glyph glyph-name="afii10092" unicode="&#x44a;" horiz-adv-x="976" 
d="M567 0h-383v748h-157v241h436v-332h104q182 0 277.5 -93.5t95.5 -235.5q0 -140 -96 -234t-277 -94zM541 438h-78v-219h78q55 0 85.5 30.5t30.5 78.5q0 47 -30.5 78.5t-85.5 31.5z" />
    <glyph glyph-name="afii10093" unicode="&#x44b;" horiz-adv-x="1288" 
d="M82 989h278v-332h105q182 0 277.5 -93.5t95.5 -235.5q0 -140 -96 -234t-277 -94h-383v989zM438 438h-78v-219h78q55 0 86 30.5t31 78.5q0 47 -31 78.5t-86 31.5zM1206 0h-278v989h278v-989z" />
    <glyph glyph-name="afii10094" unicode="&#x44c;" horiz-adv-x="874" 
d="M82 989h278v-332h105q182 0 277.5 -93.5t95.5 -235.5q0 -140 -96 -234t-277 -94h-383v989zM438 438h-78v-219h78q55 0 86 30.5t31 78.5q0 47 -31 78.5t-86 31.5z" />
    <glyph glyph-name="afii10095" unicode="&#x44d;" horiz-adv-x="733" 
d="M285 -25q-84 0 -152.5 24.5t-105.5 63.5l82 193q55 -55 129 -55q68 0 113 52.5t59 145.5h-269v201h267q-15 90 -59 140.5t-111 50.5q-68 0 -129 -58l-82 193q38 38 106.5 63t151.5 25q185 0 294 -143t109 -375t-109 -376.5t-294 -144.5z" />
    <glyph glyph-name="afii10096" unicode="&#x44e;" horiz-adv-x="1306" 
d="M860 -25q-172 0 -271.5 117t-121.5 303h-107v-395h-278v989h278v-352h111q30 169 128.5 273t260.5 104q100 0 179 -42t127 -114.5t73 -164.5t25 -197t-25 -197.5t-73 -165.5t-127 -115.5t-179 -42.5zM860 219q119 0 119 277q0 274 -119 274q-112 0 -112 -274
q0 -277 112 -277z" />
    <glyph glyph-name="afii10097" unicode="&#x44f;" horiz-adv-x="903" 
d="M342 0h-299l158 391q-59 31 -101.5 100t-42.5 175q0 140 98.5 231.5t274.5 91.5h391v-989h-278v334h-94zM457 553h86v217h-86q-57 0 -87 -29.5t-30 -78.5q0 -48 30.5 -78.5t86.5 -30.5z" />
    <glyph glyph-name="afii10071" unicode="&#x451;" horiz-adv-x="860" 
d="M768 1253q0 -61 -42.5 -103t-104.5 -42q-60 0 -103 42t-43 103t43 103.5t103 42.5q62 0 104.5 -42.5t42.5 -103.5zM410 1253q0 -60 -42.5 -102.5t-103.5 -42.5q-60 0 -102.5 42.5t-42.5 102.5t42.5 103t102.5 43q61 0 103.5 -43t42.5 -103zM463 -25q-197 0 -308.5 143
t-111.5 378q0 146 44 261.5t136.5 186t220.5 70.5q97 0 170.5 -38t118.5 -107.5t67.5 -161.5t22.5 -205v-99h-512q2 -91 47 -146.5t136 -55.5q42 0 86 22.5t79 63.5l127 -158q-62 -73 -148.5 -113.5t-174.5 -40.5zM559 594q0 197 -125 197q-47 0 -76 -32.5t-38 -73t-9 -91.5
h248z" />
    <glyph glyph-name="afii10099" unicode="&#x452;" horiz-adv-x="923" 
d="M621 1079h-240v-213q30 58 101 103t139 45q221 0 221 -228v-841q0 -346 -303 -346q-90 0 -142 41l54 217q19 -23 49 -23q65 0 65 111v735q0 90 -69 90q-35 0 -66.5 -34t-48.5 -79v-657h-277v1079h-77v158h77v129h277v-129h240v-158z" />
    <glyph glyph-name="afii10100" unicode="&#x453;" horiz-adv-x="665" 
d="M657 1434l-223 -295h-172l164 295h231zM639 989v-241h-279v-748h-278v989h557z" />
    <glyph glyph-name="afii10101" unicode="&#x454;" horiz-adv-x="733" 
d="M449 -25q-185 0 -295.5 144.5t-110.5 376.5q0 231 110 374.5t296 143.5q83 0 151.5 -25t106.5 -63l-84 -193q-61 58 -127 58q-68 0 -112 -50t-62 -141h270v-201h-273q15 -93 61.5 -145.5t115.5 -52.5q72 0 127 55l84 -193q-37 -39 -105.5 -63.5t-152.5 -24.5z" />
    <glyph glyph-name="afii10102" unicode="&#x455;" horiz-adv-x="745" 
d="M365 -25q-116 0 -205.5 36t-143.5 95l111 191q43 -44 100 -74t111 -30q52 0 82.5 22.5t30.5 60.5q0 26 -22 46.5t-57 36t-77.5 32.5t-85 43t-77.5 60.5t-57 91.5t-22 129q0 127 89.5 213t252.5 86q90 0 172 -32.5t144 -88.5l-109 -186q-30 35 -85.5 62.5t-115.5 27.5
q-40 0 -66 -20.5t-26 -51.5q0 -24 22.5 -43.5t58 -35t79 -33.5t87 -44.5t79 -61.5t58 -91.5t22.5 -128.5q0 -137 -97.5 -224.5t-252.5 -87.5z" />
    <glyph glyph-name="afii10103" unicode="&#x456;" horiz-adv-x="442" 
d="M221 1090q-68 0 -115 47t-47 116q0 68 47.5 116t114.5 48t115.5 -48.5t48.5 -115.5q0 -69 -48 -116t-116 -47zM360 0h-278v989h278v-989z" />
    <glyph glyph-name="afii10104" unicode="&#x457;" horiz-adv-x="442" 
d="M547 1253q0 -61 -43 -103t-105 -42q-60 0 -102.5 42t-42.5 103t42.5 103.5t102.5 42.5q62 0 105 -42.5t43 -103.5zM188 1253q0 -60 -42 -102.5t-103 -42.5q-60 0 -102.5 42.5t-42.5 102.5t42.5 103t102.5 43q61 0 103 -43t42 -103zM360 0h-278v989h278v-989z" />
    <glyph glyph-name="afii10105" unicode="&#x458;" horiz-adv-x="442" 
d="M221 1090q-68 0 -115 47t-47 116q0 68 47.5 116t114.5 48t115.5 -48.5t48.5 -115.5q0 -69 -48 -116t-116 -47zM55 -401q-86 0 -141 41l53 217q19 -23 51 -23q64 0 64 111v1044h278v-1044q0 -346 -305 -346z" />
    <glyph glyph-name="afii10106" unicode="&#x459;" horiz-adv-x="1337" 
d="M31 -25v238q18 0 31.5 4t28.5 20t25.5 43.5t19.5 77t14 119.5l34 512h637v-332h105q181 0 275.5 -93t94.5 -236q0 -67 -22.5 -125t-66.5 -104t-116.5 -72.5t-164.5 -26.5h-383v748h-99l-18 -295q-10 -143 -37 -235.5t-77 -146.5t-116 -75t-165 -21zM899 438h-78v-219h78
q55 0 86 30.5t31 78.5q0 47 -31 78.5t-86 31.5z" />
    <glyph glyph-name="afii10107" unicode="&#x45a;" horiz-adv-x="1306" 
d="M360 0h-278v989h278v-352h183v352h278v-352h105q182 0 276 -90t94 -230q0 -137 -94.5 -227t-275.5 -90h-383v395h-183v-395zM913 401h-92v-182h92q50 0 76.5 24.5t26.5 65.5t-27 66.5t-76 25.5z" />
    <glyph glyph-name="afii10108" unicode="&#x45b;" horiz-adv-x="923" 
d="M616 1081h-235v-215q30 58 101 103t139 45q221 0 221 -228v-786h-279v680q0 90 -67 90q-37 0 -67.5 -33.5t-47.5 -79.5v-657h-279v1081h-75v156h75v129h279v-129h235v-156z" />
    <glyph glyph-name="afii10109" unicode="&#x45c;" horiz-adv-x="868" 
d="M733 1434l-223 -295h-172l164 295h231zM868 0h-303l-127 367l-78 -148v-219h-278v989h278v-409l189 409h305l-227 -438z" />
    <glyph glyph-name="afii10110" unicode="&#x45e;" horiz-adv-x="835" 
d="M90 -385l39 240q16 -13 43 -13q63 0 80 62l22 76l-278 1009h293l127 -639l131 639h293l-318 -1143q-41 -142 -111.5 -194.5t-197.5 -52.5q-86 0 -123 16zM676 1239q-45 -61 -112 -95t-146 -34q-78 0 -147 34.5t-113 94.5l127 96q22 -33 57.5 -52t75.5 -19q84 0 133 71z
" />
    <glyph glyph-name="afii10193" unicode="&#x45f;" horiz-adv-x="903" 
d="M313 -254v254h-231v989h278v-747h183v747h278v-989h-231v-254h-277z" />
    <glyph glyph-name="afii10050" unicode="&#x490;" horiz-adv-x="794" 
d="M406 1096v-1096h-310v1366h332v252h311v-522h-333z" />
    <glyph glyph-name="afii10098" unicode="&#x491;" horiz-adv-x="665" 
d="M360 748v-748h-278v989h278v254h279v-495h-279z" />
    <glyph glyph-name="uni1E02" unicode="&#x1e02;" horiz-adv-x="976" 
d="M582 0h-486v1366h469q89 0 157 -28.5t108 -78.5t59.5 -110.5t19.5 -130.5q0 -124 -58 -205.5t-155 -107.5q102 -17 167 -111.5t65 -222.5q0 -79 -19.5 -144t-59.5 -117t-108 -81t-159 -29zM481 829q111 0 111 134q0 133 -111 133h-75v-267h75zM489 270q59 0 90 37t31 109
q0 66 -31.5 104.5t-89.5 38.5h-83v-289h83zM489 1450q-59 0 -102 42t-43 103q0 60 43 102t102 42q60 0 103 -42t43 -102q0 -61 -43 -103t-103 -42z" />
    <glyph glyph-name="uni1E03" unicode="&#x1e03;" horiz-adv-x="905" 
d="M360 317q15 -44 42.5 -71t58.5 -27q119 0 119 277q0 274 -119 274q-31 0 -58 -26.5t-43 -69.5v-357zM360 0h-278v1366h278v-494q29 71 83.5 106.5t113.5 35.5q146 0 225.5 -139t79.5 -379q0 -246 -79 -383.5t-226 -137.5q-58 0 -111.5 36t-85.5 106v-117zM465 1450
q-59 0 -102.5 42t-43.5 103q0 59 43.5 101.5t102.5 42.5q60 0 102.5 -42t42.5 -102q0 -61 -42.5 -103t-102.5 -42z" />
    <glyph glyph-name="uni1E0A" unicode="&#x1e0a;" horiz-adv-x="1024" 
d="M479 0h-383v1366h381q103 0 186 -34.5t140.5 -95.5t96.5 -147t57 -187.5t18 -219.5q0 -149 -29 -271t-87.5 -215t-155 -144.5t-224.5 -51.5zM477 270q180 0 180 412q0 414 -180 414h-71v-826h71zM510 1450q-59 0 -102 42t-43 103q0 60 43 102t102 42q60 0 102.5 -42
t42.5 -102q0 -61 -42.5 -103t-102.5 -42z" />
    <glyph glyph-name="uni1E0B" unicode="&#x1e0b;" horiz-adv-x="905" 
d="M823 0h-276v117q-34 -70 -87 -106t-112 -36q-148 0 -226.5 137t-78.5 384q0 241 79 379.5t226 138.5q60 0 115 -35.5t84 -106.5v494h276v-1366zM444 219q30 0 59 28t44 70v359q-15 40 -44 67t-59 27q-116 0 -116 -274q0 -277 116 -277zM446 1450q-59 0 -102 42t-43 103
q0 60 43 102t102 42q60 0 103 -42t43 -102q0 -61 -43 -103t-103 -42z" />
    <glyph glyph-name="uni1E1E" unicode="&#x1e1e;" horiz-adv-x="794" 
d="M420 1450q-59 0 -102.5 42t-43.5 103q0 59 43.5 101.5t102.5 42.5q60 0 102.5 -42t42.5 -102q0 -61 -42.5 -103t-102.5 -42zM406 0h-310v1366h643v-270h-333v-267h319v-270h-319v-559z" />
    <glyph glyph-name="uni1E1F" unicode="&#x1e1f;" horiz-adv-x="536" 
d="M406 1450q-59 0 -102.5 42t-43.5 103q0 59 43.5 101.5t102.5 42.5q60 0 102.5 -42t42.5 -102q0 -61 -42.5 -103t-102.5 -42zM393 0h-276v748h-88v241h88v70q0 160 74.5 243.5t218.5 83.5q119 0 188 -53l-63 -213q-31 31 -66 31q-36 0 -56 -24.5t-20 -67.5v-70h121v-241
h-121v-748z" />
    <glyph glyph-name="uni1E22" unicode="&#x1e22;" horiz-adv-x="1040" 
d="M944 0h-309v567h-229v-567h-310v1366h310v-528h229v528h309v-1366zM518 1450q-59 0 -102 42t-43 103q0 60 43 102t102 42q60 0 103 -42t43 -102q0 -61 -43 -103t-103 -42z" />
    <glyph glyph-name="uni1E23" unicode="&#x1e23;" horiz-adv-x="903" 
d="M821 0h-278v680q0 90 -68 90q-37 0 -67.5 -33.5t-47.5 -79.5v-657h-278v1366h278v-500q30 58 101 103t139 45q221 0 221 -228v-786zM453 1450q-59 0 -102.5 42t-43.5 103q0 59 43.5 101.5t102.5 42.5q60 0 102.5 -42t42.5 -102q0 -61 -42.5 -103t-102.5 -42z" />
    <glyph glyph-name="uni1E56" unicode="&#x1e56;" horiz-adv-x="960" 
d="M406 0h-310v1366h412q104 0 185 -36t130.5 -98t75 -141t25.5 -169t-25.5 -169t-75 -141t-130.5 -97.5t-185 -35.5h-102v-479zM473 750q63 0 99 47t36 127q0 79 -36 125.5t-99 46.5h-67v-346h67zM481 1450q-59 0 -102 42t-43 103q0 60 43 102t102 42q60 0 103 -42t43 -102
q0 -61 -43 -103t-103 -42z" />
    <glyph glyph-name="uni1E57" unicode="&#x1e57;" horiz-adv-x="905" 
d="M557 -25q-59 0 -113.5 35.5t-83.5 106.5v-494h-278v1366h278v-117q32 70 85.5 106t111.5 36q147 0 226 -136.5t79 -383.5q0 -240 -79.5 -379.5t-225.5 -139.5zM461 219q119 0 119 275q0 276 -119 276q-32 0 -59 -25t-42 -67v-365q15 -42 42 -68t59 -26zM467 1108
q-59 0 -102 42t-43 103q0 60 43 102t102 42q60 0 102.5 -42t42.5 -102q0 -61 -42.5 -103t-102.5 -42z" />
    <glyph glyph-name="uni1E60" unicode="&#x1e60;" horiz-adv-x="851" 
d="M399 -25q-241 0 -383 142l129 241q43 -52 106.5 -80t127.5 -28q53 0 84 33.5t31 85.5q0 42 -24 77t-63 62.5t-85.5 56.5t-93.5 66.5t-86 83.5t-63 116t-24 156q0 106 46 196t142 148t226 58q95 0 179.5 -30.5t144.5 -86.5l-115 -240q-82 82 -199 82q-49 0 -78.5 -30
t-29.5 -80q0 -37 24 -70t63 -61t85.5 -58t93 -69t85.5 -85.5t63 -116t24 -153.5q0 -185 -112 -300.5t-298 -115.5zM426 1450q-59 0 -102 42t-43 103q0 60 43 102t102 42q60 0 102.5 -42t42.5 -102q0 -61 -42.5 -103t-102.5 -42z" />
    <glyph glyph-name="uni1E61" unicode="&#x1e61;" horiz-adv-x="745" 
d="M365 -25q-116 0 -205.5 36t-143.5 95l111 191q43 -44 100 -74t111 -30q52 0 82.5 22.5t30.5 60.5q0 26 -22 46.5t-57 36t-77.5 32.5t-85 43t-77.5 60.5t-57 91.5t-22 129q0 127 89.5 213t252.5 86q90 0 172 -32.5t144 -88.5l-109 -186q-30 35 -85.5 62.5t-115.5 27.5
q-40 0 -66 -20.5t-26 -51.5q0 -24 22.5 -43.5t58 -35t79 -33.5t87 -44.5t79 -61.5t58 -91.5t22.5 -128.5q0 -137 -97.5 -224.5t-252.5 -87.5zM373 1108q-59 0 -102.5 42t-43.5 103q0 59 43.5 101.5t102.5 42.5q60 0 102.5 -42t42.5 -102q0 -61 -42.5 -103t-102.5 -42z" />
    <glyph glyph-name="uni1E6A" unicode="&#x1e6a;" horiz-adv-x="788" 
d="M551 0h-311v1096h-203v270h715v-270h-201v-1096zM395 1450q-59 0 -102 42t-43 103q0 60 43 102t102 42q60 0 103 -42t43 -102q0 -61 -43 -103t-103 -42z" />
    <glyph glyph-name="uni1E6B" unicode="&#x1e6b;" horiz-adv-x="552" 
d="M367 -25q-133 0 -191.5 67t-58.5 206v500h-90v241h90v271h276v-271h121v-241h-121v-443q0 -86 49 -86q38 0 54 23l49 -219q-61 -48 -178 -48zM260 1450q-59 0 -102 42t-43 103q0 60 43 102t102 42q60 0 103 -42t43 -102q0 -61 -43 -103t-103 -42z" />
    <glyph glyph-name="Wgrave" unicode="&#x1e80;" horiz-adv-x="1331" 
d="M1073 0h-309l-98 795l-99 -795h-309l-242 1366h314l96 -827l121 827h237l123 -827l94 827h316zM764 1481h-172l-223 295h233z" />
    <glyph glyph-name="wgrave" unicode="&#x1e81;" horiz-adv-x="1312" 
d="M1077 0h-291l-129 612l-131 -612h-290l-234 989h285l116 -616l115 616h260l131 -616l115 616h287zM754 1139h-172l-224 295h234z" />
    <glyph glyph-name="Wacute" unicode="&#x1e82;" horiz-adv-x="1331" 
d="M963 1776l-224 -295h-172l164 295h232zM1073 0h-309l-98 795l-99 -795h-309l-242 1366h314l96 -827l121 827h237l123 -827l94 827h316z" />
    <glyph glyph-name="wacute" unicode="&#x1e83;" horiz-adv-x="1312" 
d="M952 1434l-223 -295h-172l164 295h231zM1077 0h-291l-129 612l-131 -612h-290l-234 989h285l116 -616l115 616h260l131 -616l115 616h287z" />
    <glyph glyph-name="Wdieresis" unicode="&#x1e84;" horiz-adv-x="1331" 
d="M989 1595q0 -61 -42.5 -103t-104.5 -42q-60 0 -103 42t-43 103t43 103.5t103 42.5q62 0 104.5 -42.5t42.5 -103.5zM631 1595q0 -60 -42.5 -102.5t-103.5 -42.5q-60 0 -102.5 42.5t-42.5 102.5t42.5 103t102.5 43q61 0 103.5 -43t42.5 -103zM1073 0h-309l-98 795l-99 -795
h-309l-242 1366h314l96 -827l121 827h237l123 -827l94 827h316z" />
    <glyph glyph-name="wdieresis" unicode="&#x1e85;" horiz-adv-x="1312" 
d="M981 1253q0 -61 -42.5 -103t-104.5 -42q-60 0 -103 42t-43 103t43 103.5t103 42.5q62 0 104.5 -42.5t42.5 -103.5zM623 1253q0 -60 -42.5 -102.5t-103.5 -42.5q-60 0 -102.5 42.5t-42.5 102.5t42.5 103t102.5 43q61 0 103.5 -43t42.5 -103zM1077 0h-291l-129 612
l-131 -612h-290l-234 989h285l116 -616l115 616h260l131 -616l115 616h287z" />
    <glyph glyph-name="uni1EA0" unicode="&#x1ea0;" horiz-adv-x="929" 
d="M936 0h-318l-34 221h-238l-35 -221h-317l293 1366h356zM547 492l-82 534l-82 -534h164zM467 -406q-59 0 -102 42.5t-43 103.5q0 59 43 101t102 42q60 0 102.5 -41.5t42.5 -101.5q0 -61 -42.5 -103.5t-102.5 -42.5z" />
    <glyph glyph-name="uni1EA1" unicode="&#x1ea1;" 
d="M807 0h-277v94q-31 -53 -93 -86t-122 -33q-121 0 -197.5 88.5t-76.5 239.5t76 235.5t198 84.5q62 0 124 -29.5t91 -81.5v104q0 76 -38 120t-109 44q-98 0 -205 -96l-98 195q64 68 166 101.5t196 33.5q167 0 266 -83t99 -247v-684zM420 160q76 0 110 82v112
q-35 84 -110 84q-50 0 -77.5 -37.5t-27.5 -101.5q0 -63 27.5 -101t77.5 -38zM451 -406q-59 0 -102.5 42.5t-43.5 103.5q0 59 43.5 101t102.5 42q60 0 102.5 -41.5t42.5 -101.5q0 -61 -42.5 -103.5t-102.5 -42.5z" />
    <glyph glyph-name="uni1EA2" unicode="&#x1ea2;" horiz-adv-x="929" 
d="M936 0h-318l-34 221h-238l-35 -221h-317l293 1366h356zM547 492l-82 534l-82 -534h164zM428 1548l-100 17q10 54 47.5 84t93.5 30q59 0 95 -35.5t36 -105.5q0 -51 -29 -111h-104q33 46 33 105q0 29 -10 43t-25 14q-30 0 -37 -41z" />
    <glyph glyph-name="uni1EA3" unicode="&#x1ea3;" 
d="M807 0h-277v94q-31 -53 -93 -86t-122 -33q-121 0 -197.5 88.5t-76.5 239.5t76 235.5t198 84.5q62 0 124 -29.5t91 -81.5v104q0 76 -38 120t-109 44q-98 0 -205 -96l-98 195q64 68 166 101.5t196 33.5q167 0 266 -83t99 -247v-684zM420 160q76 0 110 82v112
q-35 84 -110 84q-50 0 -77.5 -37.5t-27.5 -101.5q0 -63 27.5 -101t77.5 -38zM408 1200l-101 17q10 54 48 84t94 30q59 0 95 -35.5t36 -105.5q0 -51 -29 -111h-105q33 46 33 105q0 29 -10 43t-25 14q-29 0 -36 -41z" />
    <glyph glyph-name="uni1EA4" unicode="&#x1ea4;" horiz-adv-x="929" 
d="M717 1397h-150l-104 131l-96 -131h-152l125 221h246zM936 0h-318l-34 221h-238l-35 -221h-317l293 1366h356zM547 492l-82 534l-82 -534h164zM1065 1726l-223 -221h-172l164 221h231z" />
    <glyph glyph-name="uni1EA5" unicode="&#x1ea5;" 
d="M807 0h-277v94q-31 -53 -93 -86t-122 -33q-121 0 -197.5 88.5t-76.5 239.5t76 235.5t198 84.5q62 0 124 -29.5t91 -81.5v104q0 76 -38 120t-109 44q-98 0 -205 -96l-98 195q64 68 166 101.5t196 33.5q167 0 266 -83t99 -247v-684zM420 160q76 0 110 82v112
q-35 84 -110 84q-50 0 -77.5 -37.5t-27.5 -101.5q0 -63 27.5 -101t77.5 -38zM702 1139h-149l-104 176l-97 -176h-151l125 295h245zM1042 1577l-223 -295h-172l164 295h231z" />
    <glyph glyph-name="uni1EA6" unicode="&#x1ea6;" horiz-adv-x="929" 
d="M717 1397h-150l-104 131l-96 -131h-152l125 221h246zM936 0h-318l-34 221h-238l-35 -221h-317l293 1366h356zM547 492l-82 534l-82 -534h164zM262 1505h-172l-223 221h233z" />
    <glyph glyph-name="uni1EA7" unicode="&#x1ea7;" 
d="M807 0h-277v94q-31 -53 -93 -86t-122 -33q-121 0 -197.5 88.5t-76.5 239.5t76 235.5t198 84.5q62 0 124 -29.5t91 -81.5v104q0 76 -38 120t-109 44q-98 0 -205 -96l-98 195q64 68 166 101.5t196 33.5q167 0 266 -83t99 -247v-684zM420 160q76 0 110 82v112
q-35 84 -110 84q-50 0 -77.5 -37.5t-27.5 -101.5q0 -63 27.5 -101t77.5 -38zM702 1139h-149l-104 176l-97 -176h-151l125 295h245zM244 1282h-172l-224 295h234z" />
    <glyph glyph-name="uni1EA8" unicode="&#x1ea8;" horiz-adv-x="929" 
d="M717 1397h-150l-104 131l-96 -131h-152l125 221h246zM936 0h-318l-34 221h-238l-35 -221h-317l293 1366h356zM547 492l-82 534l-82 -534h164zM721 1614l-100 12q10 41 47.5 63.5t93.5 22.5q59 0 95 -25.5t36 -78.5q0 -36 -29 -84h-104q33 36 33 78q0 43 -35 43
q-30 0 -37 -31z" />
    <glyph glyph-name="uni1EA9" unicode="&#x1ea9;" 
d="M807 0h-277v94q-31 -53 -93 -86t-122 -33q-121 0 -197.5 88.5t-76.5 239.5t76 235.5t198 84.5q62 0 124 -29.5t91 -81.5v104q0 76 -38 120t-109 44q-98 0 -205 -96l-98 195q64 68 166 101.5t196 33.5q167 0 266 -83t99 -247v-684zM420 160q76 0 110 82v112
q-35 84 -110 84q-50 0 -77.5 -37.5t-27.5 -101.5q0 -63 27.5 -101t77.5 -38zM702 1139h-149l-104 176l-97 -176h-151l125 295h245zM606 1487l-100 16q10 54 47.5 84.5t93.5 30.5q59 0 95 -35.5t36 -105.5q0 -53 -28 -111h-105q33 46 33 104q0 29 -10 43.5t-25 14.5
q-30 0 -37 -41z" />
    <glyph glyph-name="uni1EAA" unicode="&#x1eaa;" horiz-adv-x="929" 
d="M717 1389h-150l-104 88l-96 -88h-152l125 147h246zM936 0h-318l-34 221h-238l-35 -221h-317l293 1366h356zM547 492l-82 534l-82 -534h164zM555 1550q-45 0 -79 16.5t-58 33t-45 16.5q-23 0 -37 -15t-14 -45h-136q0 61 50.5 99.5t136.5 38.5q45 0 79 -16.5t58.5 -33
t46.5 -16.5q49 0 49 60h135q0 -63 -49 -100.5t-137 -37.5z" />
    <glyph glyph-name="uni1EAB" unicode="&#x1eab;" 
d="M807 0h-277v94q-31 -53 -93 -86t-122 -33q-121 0 -197.5 88.5t-76.5 239.5t76 235.5t198 84.5q62 0 124 -29.5t91 -81.5v104q0 76 -38 120t-109 44q-98 0 -205 -96l-98 195q64 68 166 101.5t196 33.5q167 0 266 -83t99 -247v-684zM420 160q76 0 110 82v112
q-35 84 -110 84q-50 0 -77.5 -37.5t-27.5 -101.5q0 -63 27.5 -101t77.5 -38zM702 1071h-149l-104 176l-97 -176h-151l125 295h245zM537 1397q-35 0 -64.5 20.5t-46 45t-36 45t-36.5 20.5q-23 0 -37 -30t-14 -89h-135q0 123 49.5 198.5t136.5 75.5q29 0 53.5 -13.5t41 -32.5
t31 -38.5t29.5 -33t30 -13.5q49 0 49 119h135q0 -124 -49 -199t-137 -75z" />
    <glyph glyph-name="uni1EAC" unicode="&#x1eac;" horiz-adv-x="929" 
d="M936 0h-318l-34 221h-238l-35 -221h-317l293 1366h356zM547 492l-82 534l-82 -534h164zM717 1481h-150l-104 176l-96 -176h-152l125 295h246zM467 -406q-59 0 -102 42.5t-43 103.5q0 59 43 101t102 42q60 0 102.5 -41.5t42.5 -101.5q0 -61 -42.5 -103.5t-102.5 -42.5z
" />
    <glyph glyph-name="uni1EAD" unicode="&#x1ead;" 
d="M807 0h-277v94q-31 -53 -93 -86t-122 -33q-121 0 -197.5 88.5t-76.5 239.5t76 235.5t198 84.5q62 0 124 -29.5t91 -81.5v104q0 76 -38 120t-109 44q-98 0 -205 -96l-98 195q64 68 166 101.5t196 33.5q167 0 266 -83t99 -247v-684zM420 160q76 0 110 82v112
q-35 84 -110 84q-50 0 -77.5 -37.5t-27.5 -101.5q0 -63 27.5 -101t77.5 -38zM696 1139h-149l-105 176l-96 -176h-151l124 295h246zM451 -406q-59 0 -102.5 42.5t-43.5 103.5q0 59 43.5 101t102.5 42q60 0 102.5 -41.5t42.5 -101.5q0 -61 -42.5 -103.5t-102.5 -42.5z" />
    <glyph glyph-name="uni1EAE" unicode="&#x1eae;" horiz-adv-x="929" 
d="M936 0h-318l-34 221h-238l-35 -221h-317l293 1366h356zM547 492l-82 534l-82 -534h164zM758 1702l-223 -168h-173l164 168h232zM723 1481q-97 -84 -258 -84q-77 0 -146 22.5t-114 61.5l127 61q45 -45 133 -45q85 0 133 45z" />
    <glyph glyph-name="uni1EAF" unicode="&#x1eaf;" 
d="M807 0h-277v94q-31 -53 -93 -86t-122 -33q-121 0 -197.5 88.5t-76.5 239.5t76 235.5t198 84.5q62 0 124 -29.5t91 -81.5v104q0 76 -38 120t-109 44q-98 0 -205 -96l-98 195q64 68 166 101.5t196 33.5q167 0 266 -83t99 -247v-684zM420 160q76 0 110 82v112
q-35 84 -110 84q-50 0 -77.5 -37.5t-27.5 -101.5q0 -63 27.5 -101t77.5 -38zM737 1599l-223 -294h-172l164 294h231zM705 1188q-45 -61 -112.5 -95t-146.5 -34q-78 0 -147 34.5t-113 94.5l127 96q22 -34 57.5 -53t75.5 -19q84 0 134 72z" />
    <glyph glyph-name="uni1EB0" unicode="&#x1eb0;" horiz-adv-x="929" 
d="M936 0h-318l-34 221h-238l-35 -221h-317l293 1366h356zM547 492l-82 534l-82 -534h164zM569 1534h-172l-223 168h234zM723 1479q-97 -84 -258 -84q-77 0 -146 22.5t-114 61.5l127 61q45 -45 133 -45q85 0 133 45z" />
    <glyph glyph-name="uni1EB1" unicode="&#x1eb1;" 
d="M807 0h-277v94q-31 -53 -93 -86t-122 -33q-121 0 -197.5 88.5t-76.5 239.5t76 235.5t198 84.5q62 0 124 -29.5t91 -81.5v104q0 76 -38 120t-109 44q-98 0 -205 -96l-98 195q64 68 166 101.5t196 33.5q167 0 266 -83t99 -247v-684zM420 160q76 0 110 82v112
q-35 84 -110 84q-50 0 -77.5 -37.5t-27.5 -101.5q0 -63 27.5 -101t77.5 -38zM547 1305h-172l-223 294h233zM705 1188q-45 -61 -112.5 -95t-146.5 -34q-78 0 -147 34.5t-113 94.5l127 96q22 -34 57.5 -53t75.5 -19q84 0 134 72z" />
    <glyph glyph-name="uni1EB2" unicode="&#x1eb2;" horiz-adv-x="929" 
d="M936 0h-318l-34 221h-238l-35 -221h-317l293 1366h356zM547 492l-82 534l-82 -534h164zM430 1602l-100 10q10 31 47.5 48t93.5 17q59 0 95 -20.5t36 -61.5q0 -30 -29 -63h-104q33 26 33 61q0 16 -10 24.5t-25 8.5q-30 0 -37 -24zM723 1479q-97 -84 -258 -84
q-77 0 -146 22.5t-114 61.5l127 61q45 -45 133 -45q85 0 133 45z" />
    <glyph glyph-name="uni1EB3" unicode="&#x1eb3;" 
d="M807 0h-277v94q-31 -53 -93 -86t-122 -33q-121 0 -197.5 88.5t-76.5 239.5t76 235.5t198 84.5q62 0 124 -29.5t91 -81.5v104q0 76 -38 120t-109 44q-98 0 -205 -96l-98 195q64 68 166 101.5t196 33.5q167 0 266 -83t99 -247v-684zM420 160q76 0 110 82v112
q-35 84 -110 84q-50 0 -77.5 -37.5t-27.5 -101.5q0 -63 27.5 -101t77.5 -38zM412 1425l-101 17q10 54 48 84t94 30q59 0 95 -35.5t36 -105.5q0 -50 -29 -110h-104q32 45 32 104q0 57 -34 57q-30 0 -37 -41zM705 1188q-45 -61 -112.5 -95t-146.5 -34q-78 0 -147 34.5
t-113 94.5l127 96q22 -34 57.5 -53t75.5 -19q84 0 134 72z" />
    <glyph glyph-name="uni1EB4" unicode="&#x1eb4;" horiz-adv-x="929" 
d="M936 0h-318l-34 221h-238l-35 -221h-317l293 1366h356zM547 492l-82 534l-82 -534h164zM725 1475q-95 -76 -258 -76q-78 0 -147 20.5t-113 55.5l127 55q44 -41 133 -41q86 0 133 41zM555 1550q-45 0 -79 16.5t-58 33t-45 16.5q-23 0 -37 -15t-14 -45h-136q0 61 50.5 99.5
t136.5 38.5q45 0 79 -16.5t58.5 -33t46.5 -16.5q49 0 49 60h135q0 -63 -49 -100.5t-137 -37.5z" />
    <glyph glyph-name="uni1EB5" unicode="&#x1eb5;" 
d="M807 0h-277v94q-31 -53 -93 -86t-122 -33q-121 0 -197.5 88.5t-76.5 239.5t76 235.5t198 84.5q62 0 124 -29.5t91 -81.5v104q0 76 -38 120t-109 44q-98 0 -205 -96l-98 195q64 68 166 101.5t196 33.5q167 0 266 -83t99 -247v-684zM420 160q76 0 110 82v112
q-35 84 -110 84q-50 0 -77.5 -37.5t-27.5 -101.5q0 -63 27.5 -101t77.5 -38zM705 1188q-45 -61 -112.5 -95t-146.5 -34q-78 0 -147 34.5t-113 94.5l127 96q22 -34 57.5 -53t75.5 -19q84 0 134 72zM537 1329q-35 0 -64.5 20.5t-46 45t-36 45t-36.5 20.5q-23 0 -37 -30
t-14 -89h-135q0 124 50 199.5t136 75.5q29 0 53.5 -13.5t41 -33t31 -38.5t29.5 -32.5t30 -13.5q49 0 49 119h135q0 -124 -49 -199.5t-137 -75.5z" />
    <glyph glyph-name="uni1EB6" unicode="&#x1eb6;" horiz-adv-x="929" 
d="M936 0h-318l-34 221h-238l-35 -221h-317l293 1366h356zM547 492l-82 534l-82 -534h164zM467 -406q-59 0 -102 42.5t-43 103.5q0 59 43 101t102 42q60 0 102.5 -41.5t42.5 -101.5q0 -61 -42.5 -103.5t-102.5 -42.5zM723 1581q-45 -61 -112 -95t-146 -34q-78 0 -147 34.5
t-113 94.5l127 96q22 -33 57.5 -52t75.5 -19q84 0 133 71z" />
    <glyph glyph-name="uni1EB7" unicode="&#x1eb7;" 
d="M807 0h-277v94q-31 -53 -93 -86t-122 -33q-121 0 -197.5 88.5t-76.5 239.5t76 235.5t198 84.5q62 0 124 -29.5t91 -81.5v104q0 76 -38 120t-109 44q-98 0 -205 -96l-98 195q64 68 166 101.5t196 33.5q167 0 266 -83t99 -247v-684zM420 160q76 0 110 82v112
q-35 84 -110 84q-50 0 -77.5 -37.5t-27.5 -101.5q0 -63 27.5 -101t77.5 -38zM451 -406q-59 0 -102.5 42.5t-43.5 103.5q0 59 43.5 101t102.5 42q60 0 102.5 -41.5t42.5 -101.5q0 -61 -42.5 -103.5t-102.5 -42.5zM705 1239q-45 -61 -112.5 -95t-146.5 -34q-78 0 -147 34.5
t-113 94.5l127 96q22 -33 57.5 -52t75.5 -19q85 0 134 71z" />
    <glyph glyph-name="uni1EB8" unicode="&#x1eb8;" horiz-adv-x="802" 
d="M739 0h-643v1366h643v-270h-333v-267h319v-270h-319v-289h333v-270zM426 -406q-59 0 -102 42.5t-43 103.5q0 59 43 101t102 42q60 0 102.5 -41.5t42.5 -101.5q0 -61 -42.5 -103.5t-102.5 -42.5z" />
    <glyph glyph-name="uni1EB9" unicode="&#x1eb9;" horiz-adv-x="860" 
d="M463 -25q-197 0 -308.5 143t-111.5 378q0 146 44 261.5t136.5 186t220.5 70.5q97 0 170.5 -38t118.5 -107.5t67.5 -161.5t22.5 -205v-99h-512q2 -91 47 -146.5t136 -55.5q42 0 86 22.5t79 63.5l127 -158q-62 -73 -148.5 -113.5t-174.5 -40.5zM559 594q0 197 -125 197
q-47 0 -76 -32.5t-38 -73t-9 -91.5h248zM442 -406q-59 0 -102 42.5t-43 103.5q0 59 43 101t102 42q60 0 103 -41.5t43 -101.5q0 -61 -43 -103.5t-103 -42.5z" />
    <glyph glyph-name="uni1EBA" unicode="&#x1eba;" horiz-adv-x="802" 
d="M739 0h-643v1366h643v-270h-333v-267h319v-270h-319v-289h333v-270zM365 1548l-101 17q10 54 48 84t94 30q59 0 95 -35.5t36 -105.5q0 -51 -29 -111h-105q33 46 33 105q0 29 -10 43t-25 14q-29 0 -36 -41z" />
    <glyph glyph-name="uni1EBB" unicode="&#x1ebb;" horiz-adv-x="860" 
d="M463 -25q-197 0 -308.5 143t-111.5 378q0 146 44 261.5t136.5 186t220.5 70.5q97 0 170.5 -38t118.5 -107.5t67.5 -161.5t22.5 -205v-99h-512q2 -91 47 -146.5t136 -55.5q42 0 86 22.5t79 63.5l127 -158q-62 -73 -148.5 -113.5t-174.5 -40.5zM559 594q0 197 -125 197
q-47 0 -76 -32.5t-38 -73t-9 -91.5h248zM397 1200l-100 17q10 54 47.5 84t93.5 30q59 0 95 -35.5t36 -105.5q0 -53 -28 -111h-105q33 46 33 105q0 29 -10 43t-25 14q-30 0 -37 -41z" />
    <glyph glyph-name="uni1EBC" unicode="&#x1ebc;" horiz-adv-x="802" 
d="M739 0h-643v1366h643v-270h-333v-267h319v-270h-319v-289h333v-270zM512 1477q-35 0 -64.5 20.5t-45.5 45t-35.5 45t-36.5 20.5q-23 0 -37 -30t-14 -89h-136q0 123 50 198.5t137 75.5q35 0 64.5 -20.5t46 -45t36 -45t37.5 -20.5q49 0 49 119h135q0 -124 -49 -199
t-137 -75z" />
    <glyph glyph-name="uni1EBD" unicode="&#x1ebd;" horiz-adv-x="860" 
d="M463 -25q-197 0 -308.5 143t-111.5 378q0 146 44 261.5t136.5 186t220.5 70.5q97 0 170.5 -38t118.5 -107.5t67.5 -161.5t22.5 -205v-99h-512q2 -91 47 -146.5t136 -55.5q42 0 86 22.5t79 63.5l127 -158q-62 -73 -148.5 -113.5t-174.5 -40.5zM559 594q0 197 -125 197
q-47 0 -76 -32.5t-38 -73t-9 -91.5h248zM526 1135q-35 0 -64.5 20.5t-45.5 45t-35.5 45t-36.5 20.5q-23 0 -37 -30t-14 -89h-135q0 123 49.5 198.5t136.5 75.5q35 0 64.5 -20.5t46 -45t36 -45t37.5 -20.5q50 0 50 119h135q0 -124 -49.5 -199t-137.5 -75z" />
    <glyph glyph-name="uni1EBE" unicode="&#x1ebe;" horiz-adv-x="802" 
d="M670 1397h-150l-104 131l-97 -131h-151l125 221h246zM1016 1726l-223 -221h-172l163 221h232zM739 0h-643v1366h643v-270h-333v-267h319v-270h-319v-289h333v-270z" />
    <glyph glyph-name="uni1EBF" unicode="&#x1ebf;" horiz-adv-x="860" 
d="M692 1139h-149l-105 176l-96 -176h-152l125 295h246zM1034 1577l-223 -295h-172l164 295h231zM463 -25q-197 0 -308.5 143t-111.5 378q0 146 44 261.5t136.5 186t220.5 70.5q97 0 170.5 -38t118.5 -107.5t67.5 -161.5t22.5 -205v-99h-512q2 -91 47 -146.5t136 -55.5
q42 0 86 22.5t79 63.5l127 -158q-62 -73 -148.5 -113.5t-174.5 -40.5zM559 594q0 197 -125 197q-47 0 -76 -32.5t-38 -73t-9 -91.5h248z" />
    <glyph glyph-name="uni1EC0" unicode="&#x1ec0;" horiz-adv-x="802" 
d="M670 1397h-150l-104 131l-97 -131h-151l125 221h246zM739 0h-643v1366h643v-270h-333v-267h319v-270h-319v-289h333v-270zM215 1505h-172l-223 221h233z" />
    <glyph glyph-name="uni1EC1" unicode="&#x1ec1;" horiz-adv-x="860" 
d="M692 1139h-149l-105 176l-96 -176h-152l125 295h246zM463 -25q-197 0 -308.5 143t-111.5 378q0 146 44 261.5t136.5 186t220.5 70.5q97 0 170.5 -38t118.5 -107.5t67.5 -161.5t22.5 -205v-99h-512q2 -91 47 -146.5t136 -55.5q42 0 86 22.5t79 63.5l127 -158
q-62 -73 -148.5 -113.5t-174.5 -40.5zM559 594q0 197 -125 197q-47 0 -76 -32.5t-38 -73t-9 -91.5h248zM231 1282h-172l-223 295h234z" />
    <glyph glyph-name="uni1EC2" unicode="&#x1ec2;" horiz-adv-x="802" 
d="M670 1397h-150l-104 131l-97 -131h-151l125 221h246zM739 0h-643v1366h643v-270h-333v-267h319v-270h-319v-289h333v-270zM672 1614l-101 12q10 41 48 63.5t94 22.5q59 0 95 -25.5t36 -78.5q0 -36 -29 -84h-104q32 35 32 78t-34 43q-30 0 -37 -31z" />
    <glyph glyph-name="uni1EC3" unicode="&#x1ec3;" horiz-adv-x="860" 
d="M690 1139h-149l-105 176l-96 -176h-152l125 295h246zM463 -25q-197 0 -308.5 143t-111.5 378q0 146 44 261.5t136.5 186t220.5 70.5q97 0 170.5 -38t118.5 -107.5t67.5 -161.5t22.5 -205v-99h-512q2 -91 47 -146.5t136 -55.5q42 0 86 22.5t79 63.5l127 -158
q-62 -73 -148.5 -113.5t-174.5 -40.5zM559 594q0 197 -125 197q-47 0 -76 -32.5t-38 -73t-9 -91.5h248zM594 1487l-100 16q10 54 47.5 84.5t93.5 30.5q59 0 95 -35.5t36 -105.5q0 -51 -29 -111h-104q33 46 33 104q0 29 -10 43.5t-25 14.5q-30 0 -37 -41z" />
    <glyph glyph-name="uni1EC4" unicode="&#x1ec4;" horiz-adv-x="802" 
d="M668 1389h-150l-104 88l-97 -88h-151l125 147h246zM739 0h-643v1366h643v-270h-333v-267h319v-270h-319v-289h333v-270zM506 1550q-45 0 -79 16.5t-58 33t-45 16.5q-23 0 -37.5 -15.5t-14.5 -44.5h-135q0 61 50.5 99.5t136.5 38.5q45 0 79 -16.5t58.5 -33t46.5 -16.5
q49 0 49 60h135q0 -63 -49 -100.5t-137 -37.5z" />
    <glyph glyph-name="uni1EC5" unicode="&#x1ec5;" horiz-adv-x="860" 
d="M688 1071h-149l-105 176l-96 -176h-152l125 295h246zM463 -25q-197 0 -308.5 143t-111.5 378q0 146 44 261.5t136.5 186t220.5 70.5q97 0 170.5 -38t118.5 -107.5t67.5 -161.5t22.5 -205v-99h-512q2 -91 47 -146.5t136 -55.5q42 0 86 22.5t79 63.5l127 -158
q-62 -73 -148.5 -113.5t-174.5 -40.5zM559 594q0 197 -125 197q-47 0 -76 -32.5t-38 -73t-9 -91.5h248zM522 1397q-35 0 -64.5 20.5t-45.5 45t-35.5 45t-36.5 20.5q-23 0 -37 -30t-14 -89h-135q0 123 49.5 198.5t136.5 75.5q35 0 64.5 -20.5t46 -45t36 -45t37.5 -20.5
q49 0 49 119h136q0 -124 -49.5 -199t-137.5 -75z" />
    <glyph glyph-name="uni1EC6" unicode="&#x1ec6;" horiz-adv-x="802" 
d="M668 1481h-150l-104 176l-97 -176h-151l125 295h246zM739 0h-643v1366h643v-270h-333v-267h319v-270h-319v-289h333v-270zM426 -406q-59 0 -102 42.5t-43 103.5q0 59 43 101t102 42q60 0 102.5 -41.5t42.5 -101.5q0 -61 -42.5 -103.5t-102.5 -42.5z" />
    <glyph glyph-name="uni1EC7" unicode="&#x1ec7;" horiz-adv-x="860" 
d="M692 1139h-149l-105 176l-96 -176h-152l125 295h246zM463 -25q-197 0 -308.5 143t-111.5 378q0 146 44 261.5t136.5 186t220.5 70.5q97 0 170.5 -38t118.5 -107.5t67.5 -161.5t22.5 -205v-99h-512q2 -91 47 -146.5t136 -55.5q42 0 86 22.5t79 63.5l127 -158
q-62 -73 -148.5 -113.5t-174.5 -40.5zM559 594q0 197 -125 197q-47 0 -76 -32.5t-38 -73t-9 -91.5h248zM442 -406q-59 0 -102 42.5t-43 103.5q0 59 43 101t102 42q60 0 103 -41.5t43 -101.5q0 -61 -43 -103.5t-103 -42.5z" />
    <glyph glyph-name="uni1EC8" unicode="&#x1ec8;" horiz-adv-x="501" 
d="M406 0h-310v1366h310v-1366zM215 1548l-100 17q10 54 47.5 84t93.5 30q59 0 95 -35.5t36 -105.5q0 -51 -29 -111h-104q33 46 33 105q0 29 -10 43t-25 14q-30 0 -37 -41z" />
    <glyph glyph-name="uni1EC9" unicode="&#x1ec9;" horiz-adv-x="442" 
d="M360 0h-278v989h278v-989zM186 1200l-100 17q10 54 47.5 84t93.5 30q59 0 95 -35.5t36 -105.5q0 -53 -28 -111h-105q33 46 33 105q0 29 -10 43t-25 14q-30 0 -37 -41z" />
    <glyph glyph-name="uni1ECA" unicode="&#x1eca;" horiz-adv-x="501" 
d="M406 0h-310v1366h310v-1366zM254 -406q-59 0 -102 42.5t-43 103.5q0 59 43 101t102 42q60 0 102.5 -41.5t42.5 -101.5q0 -61 -42.5 -103.5t-102.5 -42.5z" />
    <glyph glyph-name="uni1ECB" unicode="&#x1ecb;" horiz-adv-x="442" 
d="M221 1090q-68 0 -115 47t-47 116q0 68 47.5 116t114.5 48t115.5 -48.5t48.5 -115.5q0 -69 -48 -116t-116 -47zM360 0h-278v989h278v-989zM225 -406q-59 0 -102 42.5t-43 103.5q0 59 43 101t102 42q60 0 103 -41.5t43 -101.5q0 -61 -43 -103.5t-103 -42.5z" />
    <glyph glyph-name="uni1ECC" unicode="&#x1ecc;" horiz-adv-x="1024" 
d="M512 -25q-155 0 -261 93t-154 249t-48 365t48 365t154 249t261 93t261 -93t154 -249t48 -365t-48 -365t-154 -249t-261 -93zM512 250q145 0 145 432t-145 432t-145 -432t145 -432zM518 -406q-59 0 -102 42.5t-43 103.5q0 59 43 101t102 42q60 0 103 -41.5t43 -101.5
q0 -61 -43 -103.5t-103 -42.5z" />
    <glyph glyph-name="uni1ECD" unicode="&#x1ecd;" 
d="M444 -25q-100 0 -178.5 42.5t-126 115.5t-72 165.5t-24.5 197.5t24.5 197t72 164.5t126 114.5t178.5 42t178.5 -42t126.5 -114.5t72.5 -164.5t24.5 -197t-24.5 -197.5t-72.5 -165.5t-126.5 -115.5t-178.5 -42.5zM444 219q117 0 117 277q0 274 -117 274q-63 0 -88.5 -72.5
t-25.5 -201.5q0 -131 25.5 -204t88.5 -73zM446 -406q-59 0 -102 42.5t-43 103.5q0 59 43 101t102 42q60 0 103 -41.5t43 -101.5q0 -61 -43 -103.5t-103 -42.5z" />
    <glyph glyph-name="uni1ECE" unicode="&#x1ece;" horiz-adv-x="1024" 
d="M512 -25q-155 0 -261 93t-154 249t-48 365t48 365t154 249t261 93t261 -93t154 -249t48 -365t-48 -365t-154 -249t-261 -93zM512 250q145 0 145 432t-145 432t-145 -432t145 -432zM477 1548l-100 17q10 54 47.5 84t93.5 30q59 0 95 -35.5t36 -105.5q0 -53 -28 -111h-105
q33 46 33 105q0 29 -10 43t-25 14q-30 0 -37 -41z" />
    <glyph glyph-name="uni1ECF" unicode="&#x1ecf;" 
d="M444 -25q-100 0 -178.5 42.5t-126 115.5t-72 165.5t-24.5 197.5t24.5 197t72 164.5t126 114.5t178.5 42t178.5 -42t126.5 -114.5t72.5 -164.5t24.5 -197t-24.5 -197.5t-72.5 -165.5t-126.5 -115.5t-178.5 -42.5zM444 219q117 0 117 277q0 274 -117 274q-63 0 -88.5 -72.5
t-25.5 -201.5q0 -131 25.5 -204t88.5 -73zM412 1200l-101 17q10 54 48 84t94 30q59 0 95 -35.5t36 -105.5q0 -51 -29 -111h-104q32 45 32 105q0 57 -34 57q-30 0 -37 -41z" />
    <glyph glyph-name="uni1ED0" unicode="&#x1ed0;" horiz-adv-x="1024" 
d="M760 1397h-150l-104 131l-96 -131h-152l125 221h246zM1106 1726l-223 -221h-172l163 221h232zM512 -25q-155 0 -261 93t-154 249t-48 365t48 365t154 249t261 93t261 -93t154 -249t48 -365t-48 -365t-154 -249t-261 -93zM512 250q145 0 145 432t-145 432t-145 -432
t145 -432z" />
    <glyph glyph-name="uni1ED1" unicode="&#x1ed1;" 
d="M692 1139h-149l-105 176l-96 -176h-152l125 295h246zM1032 1577l-223 -295h-172l164 295h231zM444 -25q-100 0 -178.5 42.5t-126 115.5t-72 165.5t-24.5 197.5t24.5 197t72 164.5t126 114.5t178.5 42t178.5 -42t126.5 -114.5t72.5 -164.5t24.5 -197t-24.5 -197.5
t-72.5 -165.5t-126.5 -115.5t-178.5 -42.5zM444 219q117 0 117 277q0 274 -117 274q-63 0 -88.5 -72.5t-25.5 -201.5q0 -131 25.5 -204t88.5 -73z" />
    <glyph glyph-name="uni1ED2" unicode="&#x1ed2;" horiz-adv-x="1024" 
d="M756 1397h-150l-104 131l-96 -131h-152l125 221h246zM512 -25q-155 0 -261 93t-154 249t-48 365t48 365t154 249t261 93t261 -93t154 -249t48 -365t-48 -365t-154 -249t-261 -93zM512 250q145 0 145 432t-145 432t-145 -432t145 -432zM301 1505h-172l-223 221h233z" />
    <glyph glyph-name="uni1ED3" unicode="&#x1ed3;" 
d="M692 1139h-149l-105 176l-96 -176h-152l125 295h246zM444 -25q-100 0 -178.5 42.5t-126 115.5t-72 165.5t-24.5 197.5t24.5 197t72 164.5t126 114.5t178.5 42t178.5 -42t126.5 -114.5t72.5 -164.5t24.5 -197t-24.5 -197.5t-72.5 -165.5t-126.5 -115.5t-178.5 -42.5z
M444 219q117 0 117 277q0 274 -117 274q-63 0 -88.5 -72.5t-25.5 -201.5q0 -131 25.5 -204t88.5 -73zM231 1282h-172l-223 295h234z" />
    <glyph glyph-name="uni1ED4" unicode="&#x1ed4;" horiz-adv-x="1024" 
d="M756 1397h-150l-104 131l-96 -131h-152l125 221h246zM512 -25q-155 0 -261 93t-154 249t-48 365t48 365t154 249t261 93t261 -93t154 -249t48 -365t-48 -365t-154 -249t-261 -93zM512 250q145 0 145 432t-145 432t-145 -432t145 -432zM758 1614l-101 12q10 41 48 63.5
t94 22.5q59 0 95 -25.5t36 -78.5q0 -36 -29 -84h-104q32 35 32 78t-34 43q-30 0 -37 -31z" />
    <glyph glyph-name="uni1ED5" unicode="&#x1ed5;" 
d="M694 1139h-149l-105 176l-96 -176h-151l124 295h246zM444 -25q-100 0 -178.5 42.5t-126 115.5t-72 165.5t-24.5 197.5t24.5 197t72 164.5t126 114.5t178.5 42t178.5 -42t126.5 -114.5t72.5 -164.5t24.5 -197t-24.5 -197.5t-72.5 -165.5t-126.5 -115.5t-178.5 -42.5z
M444 219q117 0 117 277q0 274 -117 274q-63 0 -88.5 -72.5t-25.5 -201.5q0 -131 25.5 -204t88.5 -73zM598 1487l-100 16q10 54 47.5 84.5t93.5 30.5q59 0 95 -35.5t36 -105.5q0 -51 -29 -111h-104q33 46 33 104q0 29 -10 43.5t-25 14.5q-30 0 -37 -41z" />
    <glyph glyph-name="uni1ED6" unicode="&#x1ed6;" horiz-adv-x="1024" 
d="M758 1389h-150l-104 88l-96 -88h-152l125 147h246zM512 -25q-155 0 -261 93t-154 249t-48 365t48 365t154 249t261 93t261 -93t154 -249t48 -365t-48 -365t-154 -249t-261 -93zM512 250q145 0 145 432t-145 432t-145 -432t145 -432zM596 1550q-45 0 -79 16.5t-58 33
t-45 16.5q-23 0 -37.5 -15.5t-14.5 -44.5h-135q0 61 50.5 99.5t136.5 38.5q45 0 79 -16.5t58.5 -33t46.5 -16.5q49 0 49 60h135q0 -63 -49 -100.5t-137 -37.5z" />
    <glyph glyph-name="uni1ED7" unicode="&#x1ed7;" 
d="M696 1071h-149l-105 176l-96 -176h-151l124 295h246zM444 -25q-100 0 -178.5 42.5t-126 115.5t-72 165.5t-24.5 197.5t24.5 197t72 164.5t126 114.5t178.5 42t178.5 -42t126.5 -114.5t72.5 -164.5t24.5 -197t-24.5 -197.5t-72.5 -165.5t-126.5 -115.5t-178.5 -42.5z
M444 219q117 0 117 277q0 274 -117 274q-63 0 -88.5 -72.5t-25.5 -201.5q0 -131 25.5 -204t88.5 -73zM530 1397q-35 0 -64.5 20.5t-45.5 45t-35.5 45t-36.5 20.5q-23 0 -37 -30t-14 -89h-135q0 123 49.5 198.5t136.5 75.5q35 0 64.5 -20.5t46 -45t36 -45t37.5 -20.5
q50 0 50 119h135q0 -124 -49.5 -199t-137.5 -75z" />
    <glyph glyph-name="uni1ED8" unicode="&#x1ed8;" horiz-adv-x="1024" 
d="M766 1481h-150l-104 176l-96 -176h-152l125 295h246zM512 -25q-155 0 -261 93t-154 249t-48 365t48 365t154 249t261 93t261 -93t154 -249t48 -365t-48 -365t-154 -249t-261 -93zM512 250q145 0 145 432t-145 432t-145 -432t145 -432zM518 -406q-59 0 -102 42.5
t-43 103.5q0 59 43 101t102 42q60 0 103 -41.5t43 -101.5q0 -61 -43 -103.5t-103 -42.5z" />
    <glyph glyph-name="uni1ED9" unicode="&#x1ed9;" 
d="M696 1139h-149l-105 176l-96 -176h-151l124 295h246zM444 -25q-100 0 -178.5 42.5t-126 115.5t-72 165.5t-24.5 197.5t24.5 197t72 164.5t126 114.5t178.5 42t178.5 -42t126.5 -114.5t72.5 -164.5t24.5 -197t-24.5 -197.5t-72.5 -165.5t-126.5 -115.5t-178.5 -42.5z
M444 219q117 0 117 277q0 274 -117 274q-63 0 -88.5 -72.5t-25.5 -201.5q0 -131 25.5 -204t88.5 -73zM444 -406q-59 0 -102 42.5t-43 103.5q0 59 43 101t102 42q60 0 103 -41.5t43 -101.5q0 -61 -43 -103.5t-103 -42.5z" />
    <glyph glyph-name="uni1EDA" unicode="&#x1eda;" horiz-adv-x="1024" 
d="M809 1776l-223 -295h-172l164 295h231zM512 -25q-155 0 -261 93t-154 249t-48 365t48 365t154 249t261 93q226 0 348 -197q55 55 66 106q-6 -6 -29 -6q-43 0 -71.5 31t-28.5 78q0 50 33.5 84.5t82.5 34.5q55 0 94.5 -42.5t39.5 -113.5q0 -77 -37.5 -146t-102.5 -122
q68 -174 68 -414q0 -209 -48 -365t-154 -249t-261 -93zM512 250q145 0 145 432t-145 432t-145 -432t145 -432z" />
    <glyph glyph-name="uni1EDB" unicode="&#x1edb;" 
d="M739 1434l-223 -295h-172l164 295h231zM879 1090q0 -141 -119 -250q86 -142 86 -344q0 -105 -24.5 -197.5t-72.5 -165.5t-126.5 -115.5t-178.5 -42.5t-178.5 42.5t-126 115.5t-72 165.5t-24.5 197.5t24.5 197t72 164.5t126 114.5t178.5 42q150 0 250 -94q52 52 64 104
q-6 -6 -29 -6q-43 0 -71.5 30.5t-28.5 77.5q0 50 33.5 84.5t82.5 34.5q55 0 94.5 -42t39.5 -113zM444 219q117 0 117 277q0 274 -117 274q-63 0 -88.5 -72.5t-25.5 -201.5q0 -131 25.5 -204t88.5 -73z" />
    <glyph glyph-name="uni1EDC" unicode="&#x1edc;" horiz-adv-x="1024" 
d="M512 -25q-155 0 -261 93t-154 249t-48 365t48 365t154 249t261 93q226 0 348 -197q55 55 66 106q-6 -6 -29 -6q-43 0 -71.5 31t-28.5 78q0 50 33.5 84.5t82.5 34.5q55 0 94.5 -42.5t39.5 -113.5q0 -77 -37.5 -146t-102.5 -122q68 -174 68 -414q0 -209 -48 -365t-154 -249
t-261 -93zM512 250q145 0 145 432t-145 432t-145 -432t145 -432zM610 1481h-172l-223 295h234z" />
    <glyph glyph-name="uni1EDD" unicode="&#x1edd;" 
d="M879 1090q0 -141 -119 -250q86 -142 86 -344q0 -105 -24.5 -197.5t-72.5 -165.5t-126.5 -115.5t-178.5 -42.5t-178.5 42.5t-126 115.5t-72 165.5t-24.5 197.5t24.5 197t72 164.5t126 114.5t178.5 42q150 0 250 -94q52 52 64 104q-6 -6 -29 -6q-43 0 -71.5 30.5
t-28.5 77.5q0 50 33.5 84.5t82.5 34.5q55 0 94.5 -42t39.5 -113zM444 219q117 0 117 277q0 274 -117 274q-63 0 -88.5 -72.5t-25.5 -201.5q0 -131 25.5 -204t88.5 -73zM543 1139h-172l-224 295h234z" />
    <glyph glyph-name="uni1EDE" unicode="&#x1ede;" horiz-adv-x="1024" 
d="M512 -25q-155 0 -261 93t-154 249t-48 365t48 365t154 249t261 93q226 0 348 -197q55 55 66 106q-6 -6 -29 -6q-43 0 -71.5 31t-28.5 78q0 50 33.5 84.5t82.5 34.5q55 0 94.5 -42.5t39.5 -113.5q0 -77 -37.5 -146t-102.5 -122q68 -174 68 -414q0 -209 -48 -365t-154 -249
t-261 -93zM512 250q145 0 145 432t-145 432t-145 -432t145 -432zM477 1548l-100 17q10 54 47.5 84t93.5 30q59 0 95 -35.5t36 -105.5q0 -53 -28 -111h-105q33 46 33 105q0 29 -10 43t-25 14q-30 0 -37 -41z" />
    <glyph glyph-name="uni1EDF" unicode="&#x1edf;" 
d="M879 1090q0 -141 -119 -250q86 -142 86 -344q0 -105 -24.5 -197.5t-72.5 -165.5t-126.5 -115.5t-178.5 -42.5t-178.5 42.5t-126 115.5t-72 165.5t-24.5 197.5t24.5 197t72 164.5t126 114.5t178.5 42q150 0 250 -94q52 52 64 104q-6 -6 -29 -6q-43 0 -71.5 30.5
t-28.5 77.5q0 50 33.5 84.5t82.5 34.5q55 0 94.5 -42t39.5 -113zM444 219q117 0 117 277q0 274 -117 274q-63 0 -88.5 -72.5t-25.5 -201.5q0 -131 25.5 -204t88.5 -73zM408 1200l-101 17q10 54 48 84t94 30q59 0 95 -35.5t36 -105.5q0 -51 -29 -111h-105q33 46 33 105
q0 29 -10 43t-25 14q-29 0 -36 -41z" />
    <glyph glyph-name="uni1EE0" unicode="&#x1ee0;" horiz-adv-x="1024" 
d="M512 -25q-155 0 -261 93t-154 249t-48 365t48 365t154 249t261 93q226 0 348 -197q55 55 66 106q-6 -6 -29 -6q-43 0 -71.5 31t-28.5 78q0 50 33.5 84.5t82.5 34.5q55 0 94.5 -42.5t39.5 -113.5q0 -77 -37.5 -146t-102.5 -122q68 -174 68 -414q0 -209 -48 -365t-154 -249
t-261 -93zM512 250q145 0 145 432t-145 432t-145 -432t145 -432zM606 1477q-35 0 -64.5 20.5t-45.5 45t-35.5 45t-36.5 20.5q-23 0 -37 -30t-14 -89h-135q0 123 49.5 198.5t136.5 75.5q35 0 64.5 -20.5t46 -45t36 -45t37.5 -20.5q49 0 49 119h136q0 -124 -49.5 -199
t-137.5 -75z" />
    <glyph glyph-name="uni1EE1" unicode="&#x1ee1;" 
d="M879 1090q0 -141 -119 -250q86 -142 86 -344q0 -105 -24.5 -197.5t-72.5 -165.5t-126.5 -115.5t-178.5 -42.5t-178.5 42.5t-126 115.5t-72 165.5t-24.5 197.5t24.5 197t72 164.5t126 114.5t178.5 42q150 0 250 -94q52 52 64 104q-6 -6 -29 -6q-43 0 -71.5 30.5
t-28.5 77.5q0 50 33.5 84.5t82.5 34.5q55 0 94.5 -42t39.5 -113zM444 219q117 0 117 277q0 274 -117 274q-63 0 -88.5 -72.5t-25.5 -201.5q0 -131 25.5 -204t88.5 -73zM485 1135q-35 0 -64.5 20.5t-45.5 45t-35.5 45t-36.5 20.5q-23 0 -37 -30t-14 -89h-135
q0 123 49.5 198.5t136.5 75.5q35 0 64.5 -20.5t46 -45t36 -45t37.5 -20.5q50 0 50 119h135q0 -124 -49.5 -199t-137.5 -75z" />
    <glyph glyph-name="uni1EE2" unicode="&#x1ee2;" horiz-adv-x="1024" 
d="M512 -25q-155 0 -261 93t-154 249t-48 365t48 365t154 249t261 93q226 0 348 -197q55 55 66 106q-6 -6 -29 -6q-43 0 -71.5 31t-28.5 78q0 50 33.5 84.5t82.5 34.5q55 0 94.5 -42.5t39.5 -113.5q0 -77 -37.5 -146t-102.5 -122q68 -174 68 -414q0 -209 -48 -365t-154 -249
t-261 -93zM512 250q145 0 145 432t-145 432t-145 -432t145 -432zM518 -406q-59 0 -102 42.5t-43 103.5q0 59 43 101t102 42q60 0 103 -41.5t43 -101.5q0 -61 -43 -103.5t-103 -42.5z" />
    <glyph glyph-name="uni1EE3" unicode="&#x1ee3;" 
d="M879 1090q0 -141 -119 -250q86 -142 86 -344q0 -105 -24.5 -197.5t-72.5 -165.5t-126.5 -115.5t-178.5 -42.5t-178.5 42.5t-126 115.5t-72 165.5t-24.5 197.5t24.5 197t72 164.5t126 114.5t178.5 42q150 0 250 -94q52 52 64 104q-6 -6 -29 -6q-43 0 -71.5 30.5
t-28.5 77.5q0 50 33.5 84.5t82.5 34.5q55 0 94.5 -42t39.5 -113zM444 219q117 0 117 277q0 274 -117 274q-63 0 -88.5 -72.5t-25.5 -201.5q0 -131 25.5 -204t88.5 -73zM446 -406q-59 0 -102 42.5t-43 103.5q0 59 43 101t102 42q60 0 103 -41.5t43 -101.5q0 -61 -43 -103.5
t-103 -42.5z" />
    <glyph glyph-name="uni1EE4" unicode="&#x1ee4;" horiz-adv-x="1040" 
d="M520 -25q-82 0 -156.5 26.5t-135 78t-96.5 138.5t-36 198v950h310v-967q0 -153 114 -153q115 0 115 153v967h311v-948q0 -112 -36 -199t-97 -139t-135.5 -78.5t-157.5 -26.5zM524 -406q-59 0 -102 42.5t-43 103.5q0 59 43 101t102 42q60 0 103 -41.5t43 -101.5
q0 -61 -43 -103.5t-103 -42.5z" />
    <glyph glyph-name="uni1EE5" unicode="&#x1ee5;" horiz-adv-x="903" 
d="M821 0h-278v119q-30 -57 -100 -100.5t-140 -43.5q-221 0 -221 228v786h278v-680q0 -90 68 -90q37 0 67.5 32t47.5 77v661h278v-989zM453 -406q-59 0 -102.5 42.5t-43.5 103.5q0 59 43.5 101t102.5 42q60 0 102.5 -41.5t42.5 -101.5q0 -61 -42.5 -103.5t-102.5 -42.5z" />
    <glyph glyph-name="uni1EE6" unicode="&#x1ee6;" horiz-adv-x="1040" 
d="M520 -25q-82 0 -156.5 26.5t-135 78t-96.5 138.5t-36 198v950h310v-967q0 -153 114 -153q115 0 115 153v967h311v-948q0 -112 -36 -199t-97 -139t-135.5 -78.5t-157.5 -26.5zM485 1548l-100 17q10 54 47.5 84t93.5 30q59 0 95 -35.5t36 -105.5q0 -53 -28 -111h-105
q33 46 33 105q0 29 -10 43t-25 14q-30 0 -37 -41z" />
    <glyph glyph-name="uni1EE7" unicode="&#x1ee7;" horiz-adv-x="903" 
d="M821 0h-278v119q-30 -57 -100 -100.5t-140 -43.5q-221 0 -221 228v786h278v-680q0 -90 68 -90q37 0 67.5 32t47.5 77v661h278v-989zM416 1200l-101 17q10 54 48 84t94 30q59 0 95 -35.5t36 -105.5q0 -51 -29 -111h-104q32 45 32 105q0 57 -34 57q-30 0 -37 -41z" />
    <glyph glyph-name="uni1EE8" unicode="&#x1ee8;" horiz-adv-x="1040" 
d="M817 1776l-223 -295h-172l164 295h231zM1143 1489q0 -88 -50.5 -170t-146.5 -137v-764q0 -112 -36 -199t-97 -139t-135.5 -78.5t-157.5 -26.5q-82 0 -156.5 26.5t-135 78t-96.5 138.5t-36 198v950h310v-967q0 -153 114 -153q115 0 115 153v967h311v-61q64 60 76 116
q-8 -4 -29 -4q-43 0 -71.5 30t-28.5 77q0 50 34 84t83 34q55 0 94 -42t39 -111z" />
    <glyph glyph-name="uni1EE9" unicode="&#x1ee9;" horiz-adv-x="903" 
d="M748 1434l-224 -295h-172l164 295h232zM821 0h-278v119q-30 -57 -100 -100.5t-140 -43.5q-221 0 -221 228v786h278v-680q0 -90 68 -90q37 0 67.5 32t47.5 77v661h256q19 27 30 64q-9 -6 -30 -6q-43 0 -72 30.5t-29 77.5q0 50 34 84.5t83 34.5q56 0 94.5 -42t38.5 -112
q0 -149 -127 -258v-862z" />
    <glyph glyph-name="uni1EEA" unicode="&#x1eea;" horiz-adv-x="1040" 
d="M618 1481h-172l-223 295h234zM1143 1489q0 -88 -50.5 -170t-146.5 -137v-764q0 -112 -36 -199t-97 -139t-135.5 -78.5t-157.5 -26.5q-82 0 -156.5 26.5t-135 78t-96.5 138.5t-36 198v950h310v-967q0 -153 114 -153q115 0 115 153v967h311v-61q64 60 76 116q-8 -4 -29 -4
q-43 0 -71.5 30t-28.5 77q0 50 34 84t83 34q55 0 94 -42t39 -111z" />
    <glyph glyph-name="uni1EEB" unicode="&#x1eeb;" horiz-adv-x="903" 
d="M549 1139h-172l-223 295h233zM821 0h-278v119q-30 -57 -100 -100.5t-140 -43.5q-221 0 -221 228v786h278v-680q0 -90 68 -90q37 0 67.5 32t47.5 77v661h256q19 27 30 64q-9 -6 -30 -6q-43 0 -72 30.5t-29 77.5q0 50 34 84.5t83 34.5q56 0 94.5 -42t38.5 -112
q0 -149 -127 -258v-862z" />
    <glyph glyph-name="uni1EEC" unicode="&#x1eec;" horiz-adv-x="1040" 
d="M485 1548l-100 17q10 54 47.5 84t93.5 30q59 0 95 -35.5t36 -105.5q0 -53 -28 -111h-105q33 46 33 105q0 29 -10 43t-25 14q-30 0 -37 -41zM1143 1489q0 -88 -50.5 -170t-146.5 -137v-764q0 -112 -36 -199t-97 -139t-135.5 -78.5t-157.5 -26.5q-82 0 -156.5 26.5t-135 78
t-96.5 138.5t-36 198v950h310v-967q0 -153 114 -153q115 0 115 153v967h311v-61q64 60 76 116q-8 -4 -29 -4q-43 0 -71.5 30t-28.5 77q0 50 34 84t83 34q55 0 94 -42t39 -111z" />
    <glyph glyph-name="uni1EED" unicode="&#x1eed;" horiz-adv-x="903" 
d="M416 1200l-101 17q10 54 48 84t94 30q59 0 95 -35.5t36 -105.5q0 -51 -29 -111h-104q32 45 32 105q0 57 -34 57q-30 0 -37 -41zM821 0h-278v119q-30 -57 -100 -100.5t-140 -43.5q-221 0 -221 228v786h278v-680q0 -90 68 -90q37 0 67.5 32t47.5 77v661h256q19 27 30 64
q-9 -6 -30 -6q-43 0 -72 30.5t-29 77.5q0 50 34 84.5t83 34.5q56 0 94.5 -42t38.5 -112q0 -149 -127 -258v-862z" />
    <glyph glyph-name="uni1EEE" unicode="&#x1eee;" horiz-adv-x="1040" 
d="M1143 1489q0 -88 -50.5 -170t-146.5 -137v-764q0 -112 -36 -199t-97 -139t-135.5 -78.5t-157.5 -26.5q-82 0 -156.5 26.5t-135 78t-96.5 138.5t-36 198v950h310v-967q0 -153 114 -153q115 0 115 153v967h311v-61q64 60 76 116q-8 -4 -29 -4q-43 0 -71.5 30t-28.5 77
q0 50 34 84t83 34q55 0 94 -42t39 -111zM610 1477q-35 0 -64.5 20.5t-45.5 45t-35.5 45t-36.5 20.5q-23 0 -37 -30t-14 -89h-135q0 123 49.5 198.5t136.5 75.5q35 0 64.5 -20.5t46 -45t36 -45t37.5 -20.5q50 0 50 119h135q0 -124 -49.5 -199t-137.5 -75z" />
    <glyph glyph-name="uni1EEF" unicode="&#x1eef;" horiz-adv-x="903" 
d="M821 0h-278v119q-30 -57 -100 -100.5t-140 -43.5q-221 0 -221 228v786h278v-680q0 -90 68 -90q37 0 67.5 32t47.5 77v661h256q19 27 30 64q-9 -6 -30 -6q-43 0 -72 30.5t-29 77.5q0 50 34 84.5t83 34.5q56 0 94.5 -42t38.5 -112q0 -149 -127 -258v-862zM520 1135
q-35 0 -64.5 20.5t-45.5 45t-35.5 45t-36.5 20.5q-23 0 -37 -30t-14 -89h-135q0 123 49.5 198.5t136.5 75.5q35 0 64.5 -20.5t46 -45t36 -45t37.5 -20.5q49 0 49 119h136q0 -124 -49.5 -199t-137.5 -75z" />
    <glyph glyph-name="uni1EF0" unicode="&#x1ef0;" horiz-adv-x="1040" 
d="M524 -406q-59 0 -102 42.5t-43 103.5q0 59 43 101t102 42q60 0 103 -41.5t43 -101.5q0 -61 -43 -103.5t-103 -42.5zM1143 1489q0 -88 -50.5 -170t-146.5 -137v-764q0 -112 -36 -199t-97 -139t-135.5 -78.5t-157.5 -26.5q-82 0 -156.5 26.5t-135 78t-96.5 138.5t-36 198
v950h310v-967q0 -153 114 -153q115 0 115 153v967h311v-61q64 60 76 116q-8 -4 -29 -4q-43 0 -71.5 30t-28.5 77q0 50 34 84t83 34q55 0 94 -42t39 -111z" />
    <glyph glyph-name="uni1EF1" unicode="&#x1ef1;" horiz-adv-x="903" 
d="M453 -406q-59 0 -102.5 42.5t-43.5 103.5q0 59 43.5 101t102.5 42q60 0 102.5 -41.5t42.5 -101.5q0 -61 -42.5 -103.5t-102.5 -42.5zM821 0h-278v119q-30 -57 -100 -100.5t-140 -43.5q-221 0 -221 228v786h278v-680q0 -90 68 -90q37 0 67.5 32t47.5 77v661h256
q19 27 30 64q-9 -6 -30 -6q-43 0 -72 30.5t-29 77.5q0 50 34 84.5t83 34.5q56 0 94.5 -42t38.5 -112q0 -149 -127 -258v-862z" />
    <glyph glyph-name="Ygrave" unicode="&#x1ef2;" horiz-adv-x="942" 
d="M627 0h-312v559l-327 807h329l154 -514l156 514h325l-325 -807v-559zM569 1481h-172l-223 295h234z" />
    <glyph glyph-name="ygrave" unicode="&#x1ef3;" horiz-adv-x="835" 
d="M90 -385l39 240q16 -13 43 -13q63 0 80 62l22 76l-278 1009h293l127 -639l131 639h293l-318 -1143q-41 -142 -111.5 -194.5t-197.5 -52.5q-86 0 -123 16zM514 1139h-172l-223 295h233z" />
    <glyph glyph-name="thinspace" unicode="&#x2009;" horiz-adv-x="65" 
 />
    <glyph glyph-name="endash" unicode="&#x2013;" horiz-adv-x="942" 
d="M881 379h-820v233h820v-233z" />
    <glyph glyph-name="emdash" unicode="&#x2014;" horiz-adv-x="1310" 
d="M1249 379h-1188v233h1188v-233z" />
    <glyph glyph-name="afii00208" unicode="&#x2015;" horiz-adv-x="942" 
d="M881 379h-820v233h820v-233z" />
    <glyph glyph-name="quoteleft" unicode="&#x2018;" horiz-adv-x="536" 
d="M80 999q0 116 59 217.5t160 172.5l119 -97q-52 -28 -101.5 -84.5t-62.5 -109.5q18 6 41 6q62 0 103.5 -43.5t41.5 -110.5q0 -70 -50.5 -120t-119.5 -50q-79 0 -134.5 59.5t-55.5 159.5z" />
    <glyph glyph-name="quoteright" unicode="&#x2019;" horiz-adv-x="536" 
d="M451 1167q0 -116 -58 -217t-160 -172l-118 96q52 28 101.5 85t62.5 110q-24 -6 -41 -6q-62 0 -104 43t-42 111q0 70 49.5 119.5t120.5 49.5q79 0 134 -59.5t55 -159.5z" />
    <glyph glyph-name="quotesinglbase" unicode="&#x201a;" horiz-adv-x="530" 
d="M451 106q0 -117 -58.5 -217.5t-161.5 -171.5l-116 95q52 29 100 86t61 110q-12 -8 -40 -8q-61 0 -102.5 43.5t-41.5 110.5q0 70 49.5 120t118.5 50q79 0 135 -59.5t56 -158.5z" />
    <glyph glyph-name="quotereversed" unicode="&#x201b;" horiz-adv-x="536" 
d="M86 1167q0 100 55.5 159.5t134.5 59.5q68 0 118 -49.5t50 -119.5q0 -68 -41.5 -111t-103.5 -43q-23 0 -41 6q13 -54 61.5 -111t100.5 -84l-117 -96q-101 71 -159 172t-58 217z" />
    <glyph glyph-name="quotedblleft" unicode="&#x201c;" horiz-adv-x="966" 
d="M86 999q0 116 58 217.5t159 172.5l117 -97q-52 -27 -100.5 -83.5t-61.5 -110.5q18 6 41 6q62 0 103.5 -43.5t41.5 -110.5q0 -70 -50 -120t-118 -50q-79 0 -134.5 59.5t-55.5 159.5zM516 999q0 116 58 217.5t159 172.5l119 -97q-52 -28 -101.5 -84.5t-62.5 -109.5
q24 6 43 6q61 0 102 -43.5t41 -110.5q0 -70 -49 -120t-118 -50q-80 0 -135.5 59.5t-55.5 159.5z" />
    <glyph glyph-name="quotedblright" unicode="&#x201d;" horiz-adv-x="966" 
d="M881 1167q0 -116 -58 -217t-159 -172l-119 96q52 28 101.5 85t62.5 110q-18 -6 -41 -6q-62 0 -104 43t-42 111q0 70 50.5 119.5t119.5 49.5q79 0 134 -59.5t55 -159.5zM451 1167q0 -116 -58 -217t-160 -172l-118 96q52 28 101.5 85t62.5 110q-24 -6 -41 -6q-62 0 -104 43
t-42 111q0 70 49.5 119.5t120.5 49.5q79 0 134 -59.5t55 -159.5z" />
    <glyph glyph-name="quotedblbase" unicode="&#x201e;" horiz-adv-x="960" 
d="M451 106q0 -117 -58.5 -217.5t-161.5 -171.5l-116 95q52 29 100 86t61 110q-12 -8 -40 -8q-61 0 -102.5 43.5t-41.5 110.5q0 70 49.5 120t118.5 50q79 0 135 -59.5t56 -158.5zM879 106q0 -117 -58 -217.5t-159 -171.5l-117 95q52 29 100.5 86t61.5 110q-12 -8 -41 -8
q-61 0 -103.5 43.5t-42.5 110.5q0 70 50.5 120t119.5 50q78 0 133.5 -59.5t55.5 -158.5z" />
    <glyph glyph-name="dagger" unicode="&#x2020;" horiz-adv-x="571" 
d="M532 1067l-182 8l8 -405h-147l10 405l-182 -8v133l182 -6l-10 192h147l-8 -192l182 6v-133z" />
    <glyph glyph-name="daggerdbl" unicode="&#x2021;" horiz-adv-x="571" 
d="M532 1200v-133l-182 8v-391l182 8v-133l-182 6l8 -196h-147l8 196l-180 -6v133l180 -8v391l-180 -8v133l180 -6l-8 192h147l-8 -192z" />
    <glyph glyph-name="bullet" unicode="&#x2022;" horiz-adv-x="733" 
d="M614 496q0 -102 -71 -173t-174 -71t-174.5 71.5t-71.5 172.5q0 103 71.5 174t174.5 71t174 -71t71 -174z" />
    <glyph glyph-name="ellipsis" unicode="&#x2026;" horiz-adv-x="1591" 
d="M440 150q0 -71 -52 -123t-124 -52q-70 0 -121 52t-51 123q0 72 50.5 123t121.5 51q72 0 124 -51t52 -123zM971 150q0 -71 -52 -123t-122 -52t-122 52t-52 123q0 72 51.5 123t122.5 51t122.5 -51t51.5 -123zM1501 150q0 -71 -51 -123t-123 -52q-70 0 -122 52t-52 123
q0 72 51.5 123t122.5 51q72 0 123 -51t51 -123z" />
    <glyph glyph-name="perthousand" unicode="&#x2030;" horiz-adv-x="1802" 
d="M582 1044q0 -146 -75 -242.5t-198 -96.5q-125 0 -200.5 96.5t-75.5 242.5q0 148 75.5 245t200.5 97q124 0 198.5 -97t74.5 -245zM956 1366l-577 -1366h-113l576 1366h114zM1186 313q0 -146 -75 -242t-198 -96q-125 0 -200.5 96t-75.5 242q0 148 75.5 246t200.5 98
q123 0 198 -98t75 -246zM406 1044q0 81 -26 128t-71 47q-44 0 -70 -47t-26 -128q0 -79 26 -124.5t70 -45.5q45 0 71 45.5t26 124.5zM1010 313q0 83 -26 128.5t-71 45.5t-70.5 -45t-25.5 -129q0 -78 26 -124t70 -46t70.5 46t26.5 124zM1769 313q0 -146 -75 -242t-199 -96
t-199 96t-75 242q0 148 75 246t199 98t199 -98t75 -246zM1591 313q0 84 -25.5 129t-70.5 45t-70.5 -45t-25.5 -129q0 -78 26 -124t70 -46t70 46t26 124z" />
    <glyph glyph-name="guilsinglleft" unicode="&#x2039;" horiz-adv-x="516" 
d="M455 129h-209l-185 369l185 362h209l-185 -362z" />
    <glyph glyph-name="guilsinglright" unicode="&#x203a;" horiz-adv-x="516" 
d="M455 498l-185 -369h-209l185 369l-185 362h209z" />
    <glyph glyph-name="uni203E" unicode="&#x203e;" horiz-adv-x="538" 
d="M539 1147h-539v156h539v-156z" />
    <glyph glyph-name="fraction" unicode="&#x2044;" horiz-adv-x="290" 
d="M492 1366l-580 -1366h-113l578 1366h115z" />
    <glyph glyph-name="zerosuperior" unicode="&#x2070;" horiz-adv-x="630" 
d="M606 1272q0 -114 -30.5 -208t-98.5 -155t-162 -61t-161.5 61t-98 154.5t-30.5 208.5t30.5 208.5t97.5 153.5t162 60t162.5 -60t98 -153.5t30.5 -208.5zM393 1272q0 131 -15.5 194.5t-62.5 63.5q-48 0 -63.5 -63t-15.5 -195q0 -133 15.5 -196.5t63.5 -63.5q47 0 62.5 64
t15.5 196z" />
    <glyph glyph-name="foursuperior" unicode="&#x2074;" horiz-adv-x="630" 
d="M606 1032h-65v-170h-207v170h-309v160l266 489h250v-485h65v-164zM334 1196v264l-137 -264h137z" />
    <glyph glyph-name="fivesuperior" unicode="&#x2075;" horiz-adv-x="630" 
d="M600 1135q0 -129 -80 -208t-217 -79q-188 0 -280 131l124 127q62 -94 144 -94q46 0 72 33.5t26 84.5q0 53 -23 84t-65 31q-60 0 -106 -78l-150 47v467h508v-163h-303v-187q53 64 135 64q90 0 152.5 -68.5t62.5 -191.5z" />
    <glyph glyph-name="sixsuperior" unicode="&#x2076;" horiz-adv-x="630" 
d="M602 1135q0 -129 -75.5 -208t-192.5 -79q-104 0 -174.5 58t-101.5 150.5t-31 213.5q0 196 90.5 310t244.5 114q62 0 117 -20.5t90 -57.5l-98 -143q-42 57 -104 57q-56 0 -93.5 -57.5t-37.5 -149.5v-12q53 98 159 98q87 0 147 -74t60 -200zM393 1126q0 62 -23 91.5
t-55 29.5q-50 0 -82 -65q8 -170 84 -170q36 0 56 34.5t20 79.5z" />
    <glyph glyph-name="sevensuperior" unicode="&#x2077;" horiz-adv-x="579" 
d="M557 1540l-233 -678h-199l240 656h-340v163h532v-141z" />
    <glyph glyph-name="eightsuperior" unicode="&#x2078;" horiz-adv-x="630" 
d="M602 1075q0 -109 -76.5 -168t-210.5 -59q-137 0 -212.5 58t-75.5 169q0 70 44 129.5t109 79.5q-62 19 -101.5 71t-39.5 122q0 56 23.5 99t63.5 68t87.5 37.5t101.5 12.5q72 0 132 -21t101.5 -71.5t41.5 -124.5q0 -70 -40 -121.5t-101 -71.5q64 -21 108.5 -80.5
t44.5 -128.5zM389 1446q0 43 -20 66.5t-54 23.5q-36 0 -55.5 -23t-19.5 -67q0 -22 9 -40.5t23 -29.5t24 -17t19 -9q74 32 74 96zM397 1098q0 48 -29.5 77t-52.5 35q-24 -5 -54 -34.5t-30 -79.5q0 -90 84 -90q35 0 58.5 22.5t23.5 69.5z" />
    <glyph glyph-name="ninesuperior" unicode="&#x2079;" horiz-adv-x="630" 
d="M27 1407q0 128 77 207.5t193 79.5q104 0 174.5 -58t101.5 -150.5t31 -213.5q0 -196 -91 -310t-245 -114q-62 0 -117 21t-90 59l99 141q39 -57 104 -57q53 0 92 58t39 151v10q-53 -98 -162 -98q-86 0 -146 74t-60 200zM236 1415q0 -62 23 -91.5t54 -29.5q51 0 82 68
q-4 168 -82 168q-37 0 -57 -34.5t-20 -80.5z" />
    <glyph glyph-name="parenleftsuperior" unicode="&#x207d;" horiz-adv-x="358" 
d="M324 780l-111 -51q-158 253 -158 543t158 543l111 -50q-54 -121 -76.5 -234.5t-22.5 -258.5q0 -144 23 -259.5t76 -232.5z" />
    <glyph glyph-name="parenrightsuperior" unicode="&#x207e;" horiz-adv-x="360" 
d="M303 1272q0 -288 -156 -543l-114 51q55 118 77.5 232.5t22.5 259.5q0 147 -22.5 260t-77.5 233l114 50q156 -255 156 -543z" />
    <glyph glyph-name="nsuperior" unicode="&#x207f;" horiz-adv-x="661" 
d="M592 668h-197v430q0 61 -51 61q-47 0 -76 -65v-426h-200v643h200v-78q22 37 69 65.5t97 28.5q158 0 158 -162v-497z" />
    <glyph glyph-name="zeroinferior" unicode="&#x2080;" horiz-adv-x="630" 
d="M606 111q0 -114 -30.5 -208t-98.5 -155t-162 -61t-161.5 61t-98 154.5t-30.5 208.5t30.5 208.5t97.5 153t162 59.5q72 0 128.5 -34t91.5 -93t53 -134t18 -160zM393 111q0 131 -15.5 194.5t-62.5 63.5q-48 0 -63.5 -63t-15.5 -195q0 -133 15.5 -197t63.5 -64
q47 0 62.5 64.5t15.5 196.5z" />
    <glyph glyph-name="oneinferior" unicode="&#x2081;" horiz-adv-x="530" 
d="M451 -299h-209v555l-113 -115l-117 123l260 256h179v-819z" />
    <glyph glyph-name="twoinferior" unicode="&#x2082;" horiz-adv-x="630" 
d="M602 -299h-549v152q221 213 280.5 287.5t59.5 135.5q0 40 -26 66.5t-68 26.5q-41 0 -80 -26t-69 -71l-121 123q108 137 282 137q131 0 209 -65t78 -182q0 -83 -61 -171t-224 -249h289v-164z" />
    </font>
</defs>
</svg>
