<?xml version="1.0" standalone="no"?>
<!DOCTYPE svg PUBLIC "-//W3C//DTD SVG 1.1//EN" "http://www.w3.org/Graphics/SVG/1.1/DTD/svg11.dtd" >
<svg xmlns="http://www.w3.org/2000/svg" xmlns:xlink="http://www.w3.org/1999/xlink" version="1.1">
<metadata>
Created by FontForge 20201107 at Mon May  5 13:03:29 2025
 By 
Copyright (c) Mark Simonson, 2005. All rights reserved.
</metadata>
<defs>
<font id="ProximaNovaExCn-SemiboldIt" horiz-adv-x="823" >
  <font-face 
    font-family="Proxima Nova ExCn Lt"
    font-weight="600"
    font-style="italic"
    font-stretch="normal"
    units-per-em="2048"
    panose-1="2 0 5 6 3 0 0 2 0 4"
    ascent="1618"
    descent="-430"
    x-height="989"
    cap-height="1366"
    bbox="-313 -557 1700 1815"
    underline-thickness="40"
    underline-position="-271"
    unicode-range="U+000D-FB04"
  />
<missing-glyph horiz-adv-x="950" 
d="M877 -184h-719v1724h719v-1724zM811 -123v1602h-590v-1602h590z" />
    <glyph glyph-name="f_f_j" unicode="ffj" horiz-adv-x="1374" 
d="M705 0h-193l182 821h-94l37 168h94l27 129q58 268 272 268q72 0 129 -26l-65 -156q-20 13 -43 13q-78 0 -101 -99l-26 -129h129l-39 -168h-127zM862 -401q-102 0 -143 61l84 141q13 -32 51 -32q64 0 88 120l246 1100h192l-245 -1100q-35 -155 -96 -222.5t-177 -67.5z
M1323 1118q-47 0 -79 31t-32 74q0 62 44.5 100.5t95.5 38.5q46 0 78 -32t32 -75q0 -62 -43.5 -99.5t-95.5 -37.5zM215 0h-192l182 821h-94l36 168h95l26 129q58 268 273 268q53 0 102 -16.5t72 -42.5l-84 -147q-25 37 -70 37q-77 0 -100 -99l-27 -129h129l-39 -168h-127z
" />
    <glyph glyph-name="f_j" unicode="fj" horiz-adv-x="886" 
d="M215 0h-192l182 821h-94l36 168h95l26 129q58 268 273 268q72 0 129 -26l-66 -156q-20 13 -43 13q-77 0 -100 -99l-27 -129h129l-39 -168h-127zM375 -401q-103 0 -144 61l84 141q13 -32 52 -32q64 0 88 120l245 1100h193l-246 -1100q-35 -155 -95.5 -222.5t-176.5 -67.5z
M836 1118q-47 0 -79 31t-32 74q0 62 44 100.5t95 38.5q47 0 79 -32t32 -75q0 -62 -43.5 -99.5t-95.5 -37.5z" />
    <glyph glyph-name="f_f" unicode="ff" horiz-adv-x="976" 
d="M215 0h-192l182 821h-94l36 168h95l26 129q58 268 273 268q53 0 102 -16.5t72 -42.5l-84 -147q-25 37 -70 37q-77 0 -100 -99l-27 -129h129l-39 -168h-127zM705 0h-193l182 821h-94l37 168h94l27 129q58 268 272 268q53 0 102 -16.5t72 -42.5l-84 -147q-25 37 -69 37
q-78 0 -101 -99l-26 -129h129l-39 -168h-127z" />
    <glyph glyph-name="fi" unicode="fi" horiz-adv-x="886" 
d="M215 0h-192l182 821h-94l36 168h95l26 129q58 268 273 268q72 0 129 -26l-66 -156q-20 13 -43 13q-77 0 -100 -99l-27 -129h129l-39 -168h-127zM836 1118q-47 0 -79 31t-32 74q0 62 44 100.5t95 38.5q47 0 79 -32t32 -75q0 -62 -43.5 -99.5t-95.5 -37.5zM674 0h-193
l219 989h193z" />
    <glyph glyph-name="fl" unicode="fl" horiz-adv-x="886" 
d="M215 0h-192l182 821h-94l36 168h95l26 129q58 268 273 268q72 0 129 -26l-66 -156q-20 13 -43 13q-77 0 -100 -99l-27 -129h129l-39 -168h-127zM674 0h-193l301 1366h193z" />
    <glyph glyph-name="f_f_i" unicode="ffi" horiz-adv-x="1374" 
d="M705 0h-193l182 821h-94l37 168h94l27 129q58 268 272 268q72 0 129 -26l-65 -156q-20 13 -43 13q-78 0 -101 -99l-26 -129h129l-39 -168h-127zM1323 1118q-47 0 -79 31t-32 74q0 62 44.5 100.5t95.5 38.5q46 0 78 -32t32 -75q0 -62 -43.5 -99.5t-95.5 -37.5zM1161 0
h-192l219 989h192zM215 0h-192l182 821h-94l36 168h95l26 129q58 268 273 268q53 0 102 -16.5t72 -42.5l-84 -147q-25 37 -70 37q-77 0 -100 -99l-27 -129h129l-39 -168h-127z" />
    <glyph glyph-name="f_f_l" unicode="ffl" horiz-adv-x="1374" 
d="M705 0h-193l182 821h-94l37 168h94l27 129q58 268 272 268q72 0 129 -26l-65 -156q-20 13 -43 13q-78 0 -101 -99l-26 -129h129l-39 -168h-127zM1161 0h-192l301 1366h192zM215 0h-192l182 821h-94l36 168h95l26 129q58 268 273 268q53 0 102 -16.5t72 -42.5l-84 -147
q-25 37 -70 37q-77 0 -100 -99l-27 -129h129l-39 -168h-127z" />
    <glyph glyph-name="f_b" unicode="fb" horiz-adv-x="1320" 
d="M215 0h-192l182 821h-94l36 168h95l26 129q58 268 273 268q72 0 129 -26l-66 -156q-20 13 -43 13q-77 0 -100 -99l-27 -129h129l-39 -168h-127zM891 -25q-68 0 -117.5 39t-71.5 119l-28 -133h-191l299 1366h193l-111 -500q91 148 209 148q102 0 155.5 -78t53.5 -227
q0 -79 -14.5 -173t-47 -194t-76.5 -181.5t-110.5 -133.5t-142.5 -52zM852 145q55 0 101.5 61.5t73 151t41.5 177t15 151.5q0 158 -104 158q-40 0 -82 -40t-68 -97l-94 -422q6 -60 39.5 -100t77.5 -40z" />
    <glyph glyph-name="f_h" unicode="fh" horiz-adv-x="1310" 
d="M215 0h-192l182 821h-94l36 168h95l26 129q58 268 273 268q72 0 129 -26l-66 -156q-20 13 -43 13q-77 0 -100 -99l-27 -129h129l-39 -168h-127zM1100 0h-193l162 727q6 24 6 45q0 72 -69 72q-47 0 -95.5 -43.5t-85.5 -104.5l-151 -696h-193l301 1366h193l-111 -504
q48 67 112 109.5t134 42.5q82 0 127 -44.5t45 -115.5q0 -21 -8 -61z" />
    <glyph glyph-name="f_k" unicode="fk" horiz-adv-x="1275" 
d="M215 0h-192l182 821h-94l36 168h95l26 129q58 268 273 268q72 0 129 -26l-66 -156q-20 13 -43 13q-77 0 -100 -99l-27 -129h129l-39 -168h-127zM1147 0h-205l-74 424l-143 -184l-51 -240h-193l301 1366h193l-191 -860l363 483h215l-340 -440z" />
    <glyph glyph-name=".notdef" horiz-adv-x="950" 
d="M877 -184h-719v1724h719v-1724zM811 -123v1602h-590v-1602h590z" />
    <glyph glyph-name=".null" horiz-adv-x="0" 
 />
    <glyph glyph-name=".null" horiz-adv-x="0" 
 />
    <glyph glyph-name="nonmarkingreturn" horiz-adv-x="682" 
 />
    <glyph glyph-name="CR" unicode="&#xd;" horiz-adv-x="0" 
 />
    <glyph glyph-name="space" unicode=" " horiz-adv-x="342" 
 />
    <glyph glyph-name="exclam" unicode="!" horiz-adv-x="489" 
d="M307 406h-164l176 960h236zM145 -23q-50 0 -84 35t-34 86q0 59 42.5 101.5t100.5 42.5q51 0 86 -35.5t35 -85.5q0 -60 -43 -102t-103 -42z" />
    <glyph glyph-name="quotedbl" unicode="&#x22;" horiz-adv-x="749" 
d="M324 817h-88q32 418 32 438q3 57 39 94t90 37q40 0 69.5 -29t29.5 -71q0 -8 -2.5 -18.5t-6 -21l-4.5 -13.5zM651 817h-88q31 418 31 438q3 57 39 94t90 37q40 0 69 -29t29 -71q0 -23 -12 -53z" />
    <glyph glyph-name="numbersign" unicode="#" horiz-adv-x="903" 
d="M397 0h-149l168 362h-137l-164 -362h-148l164 362h-129l57 130h131l175 382h-134l56 127h133l166 365h147l-164 -365h136l163 365h148l-164 -365h129l-55 -127h-131l-177 -382h138l-58 -130h-137zM471 492l174 382h-133l-174 -382h133z" />
    <glyph glyph-name="dollar" unicode="$" horiz-adv-x="755" 
d="M166 -205l43 187q-80 14 -147 51.5t-103 91.5l127 158q32 -52 88 -84.5t113 -32.5q74 0 129 61.5t55 161.5q0 52 -31 104.5t-75.5 100.5t-88.5 100t-75 123t-31 150q0 161 100 279.5t248 137.5l43 189h150l-45 -197q115 -28 188 -110l-117 -158q-67 90 -174 90
q-74 0 -121 -57.5t-47 -136.5q0 -48 30.5 -99t74 -100t87.5 -102.5t74.5 -126.5t30.5 -152q0 -168 -93 -292t-241 -150l-43 -187h-149z" />
    <glyph glyph-name="percent" unicode="%" horiz-adv-x="1187" 
d="M248 0h-94l866 1366h96zM795 -25q-107 0 -165.5 72t-58.5 180q0 175 94.5 299.5t217.5 124.5q106 0 164.5 -72t58.5 -180q0 -175 -95 -299.5t-216 -124.5zM803 100q61 0 113.5 85.5t52.5 201.5q0 141 -95 141q-61 0 -114 -86t-53 -202q0 -140 96 -140zM385 711
q-108 0 -165.5 71.5t-57.5 180.5q0 175 94 299t215 124q107 0 165 -71.5t58 -179.5q0 -175 -94 -299.5t-215 -124.5zM393 834q60 0 113 86.5t53 201.5q0 140 -96 140q-61 0 -113.5 -85.5t-52.5 -201.5q0 -141 96 -141z" />
    <glyph glyph-name="ampersand" unicode="&#x26;" horiz-adv-x="872" 
d="M745 0h-194l-31 78q-119 -103 -246 -103q-117 0 -187.5 73.5t-70.5 205.5q0 77 17 144.5t43.5 117.5t68.5 98t81 81t91 71q-16 109 -16 192q0 114 43 213t114.5 157t151.5 58q95 0 152 -58.5t57 -174.5q0 -62 -20 -119t-39 -92.5t-74 -87t-75.5 -67.5t-92.5 -69
q-9 -7 -14 -11q6 -26 39 -148l45 -156q50 87 123 256l141 -79q-103 -225 -201 -357q58 -142 94 -223zM317 131q68 0 150 92q-38 105 -68 209t-43 156q-141 -134 -141 -307q0 -66 28 -108t74 -42zM473 946q0 -46 2 -69q85 66 129.5 129t44.5 147q0 52 -13.5 71t-41.5 19
q-46 0 -83.5 -94t-37.5 -203z" />
    <glyph glyph-name="quotesingle" unicode="'" horiz-adv-x="425" 
d="M324 817h-88q32 418 32 438q3 57 39 94t90 37q40 0 69.5 -29t29.5 -71q0 -8 -2.5 -18.5t-6 -21l-4.5 -13.5z" />
    <glyph glyph-name="parenleft" unicode="(" horiz-adv-x="485" 
d="M256 -360l-147 -48q-66 214 -66 459q0 724 465 1352l123 -74q-176 -302 -283.5 -669.5t-107.5 -712.5q0 -157 16 -307z" />
    <glyph glyph-name="parenright" unicode=")" horiz-adv-x="485" 
d="M227 1356l148 47q65 -214 65 -459q0 -724 -465 -1352l-122 74q176 302 283.5 670t107.5 713q0 147 -17 307z" />
    <glyph glyph-name="asterisk" unicode="*" horiz-adv-x="641" 
d="M434 780h-106l63 238l-223 -103l-31 97l228 82l-181 125l72 84l166 -144l41 227h106l-63 -237l221 102l31 -96l-226 -82l181 -125l-74 -84l-166 144z" />
    <glyph glyph-name="plus" unicode="+" horiz-adv-x="780" 
d="M748 627h-261l-69 -305h-137l67 305h-260l27 127h262l63 293h140l-64 -293h260z" />
    <glyph glyph-name="comma" unicode="," horiz-adv-x="489" 
d="M297 106q0 -102 -75.5 -204t-184.5 -156l-74 78q59 28 111 75t71 97q-2 -2 -18 -2q-41 0 -70.5 29t-29.5 77q0 58 43.5 100t99.5 42q54 0 90.5 -36.5t36.5 -99.5z" />
    <glyph glyph-name="hyphen" unicode="-" horiz-adv-x="487" 
d="M408 412h-367l37 166h364z" />
    <glyph glyph-name="period" unicode="." horiz-adv-x="489" 
d="M145 -23q-51 0 -84.5 35t-33.5 86q0 59 42.5 101.5t100.5 42.5q51 0 86 -35.5t35 -85.5q0 -59 -43.5 -101.5t-102.5 -42.5z" />
    <glyph glyph-name="slash" unicode="/" horiz-adv-x="442" 
d="M23 -41h-144l621 1448h145z" />
    <glyph glyph-name="zero" unicode="0" horiz-adv-x="892" 
d="M367 -25q-134 0 -214.5 104.5t-80.5 303.5q0 163 40 339t108 324t170 244t214 96q136 0 216.5 -103.5t80.5 -303.5q0 -163 -40 -339t-108 -324.5t-170.5 -244.5t-215.5 -96zM387 166q52 0 101 66t84.5 166.5t63 217.5t41 222.5t13.5 177.5q0 90 -23.5 135t-82.5 45
q-64 0 -123.5 -99t-97 -238.5t-60 -279.5t-22.5 -233q0 -89 24 -134.5t82 -45.5z" />
    <glyph glyph-name="one" unicode="1" horiz-adv-x="663" 
d="M436 0h-213l240 1087l-240 -206l-96 131l424 354h186z" />
    <glyph glyph-name="two" unicode="2" horiz-adv-x="858" 
d="M672 0h-688l47 217q63 69 144 156.5t127 137t103.5 113t88.5 99.5t67.5 82t53.5 74.5t34 61.5t23 60t6 54q0 65 -36 103t-97 38q-63 0 -116 -31.5t-107 -105.5l-115 137q155 190 358 190q151 0 244.5 -80.5t93.5 -224.5q0 -38 -7 -75.5t-17 -71.5t-34 -77.5t-44.5 -77.5
t-63 -88.5t-74.5 -94.5t-94.5 -111.5t-108.5 -122.5t-129 -143q-19 -20 -28 -31h410z" />
    <glyph glyph-name="three" unicode="3" horiz-adv-x="856" 
d="M356 -25q-133 0 -236.5 71.5t-137.5 203.5l176 104q21 -92 73 -140t125 -48q62 0 109 46.5t68.5 111.5t21.5 135q0 72 -41.5 108.5t-103.5 36.5q-52 0 -70 -4l43 195q14 -2 100 -2q92 0 143.5 80t51.5 186q0 69 -39 103t-109 34q-56 0 -109.5 -34.5t-90.5 -92.5l-119 125
q67 86 157.5 139t196.5 53q149 0 241.5 -75.5t92.5 -212.5q0 -142 -86 -260t-209 -144q84 -29 123 -99.5t39 -158.5q0 -120 -52.5 -225.5t-147.5 -170.5t-210 -65z" />
    <glyph glyph-name="four" unicode="4" horiz-adv-x="825" 
d="M580 0h-213l69 324h-446l45 206l583 836h263l-191 -854h107l-41 -188h-107zM477 512l133 592l-399 -592h266z" />
    <glyph glyph-name="five" unicode="5" horiz-adv-x="866" 
d="M356 -25q-276 0 -358 273l174 102q17 -89 65 -136.5t119 -47.5q59 0 111 55t82.5 141.5t30.5 176.5q0 69 -32 109t-93 40q-93 0 -179 -102l-147 59l162 721h637l-41 -188h-424l-90 -408q75 94 194 94q107 0 171.5 -80t64.5 -219q0 -150 -55.5 -284.5t-160 -220
t-231.5 -85.5z" />
    <glyph glyph-name="six" unicode="6" horiz-adv-x="862" 
d="M377 -25q-156 0 -233.5 107t-77.5 291q0 66 10 148.5t32 180t54 193t79.5 185t104.5 157t134 108.5t163 41q99 0 175.5 -53t107.5 -143l-148 -135q-11 66 -49 103.5t-98 37.5q-43 0 -83.5 -28t-72 -72t-60 -106t-48.5 -122.5t-37 -128.5q-5 -20 -11 -49
q47 77 112.5 125.5t135.5 48.5q105 0 171.5 -77t66.5 -214q0 -100 -29.5 -204t-82 -193t-135.5 -145t-181 -56zM385 166q47 0 86.5 40t63 100t36.5 122t13 113q0 65 -28 106t-85 41q-98 0 -184 -176q-17 -91 -17 -164q0 -182 115 -182z" />
    <glyph glyph-name="seven" unicode="7" horiz-adv-x="745" 
d="M272 0h-235l577 1178h-426l41 188h668l-33 -147z" />
    <glyph glyph-name="eight" unicode="8" horiz-adv-x="858" 
d="M367 -25q-171 0 -261 70t-90 223q0 140 82.5 265t237.5 188q-61 38 -102 112.5t-41 159.5q0 159 114.5 276t270.5 117q64 0 120.5 -15.5t104.5 -48t76 -90t28 -134.5q0 -151 -86 -259.5t-211 -148.5q74 -49 114 -128t40 -167q0 -182 -112 -301t-285 -119zM489 774
q80 31 139.5 103t59.5 188q0 62 -31 96.5t-88 34.5q-71 0 -119.5 -71.5t-48.5 -172.5q0 -56 26.5 -105t61.5 -73zM365 166q74 0 131 78t57 188q0 76 -31.5 128.5t-64.5 68.5q-85 -28 -151 -114t-66 -204q0 -72 34 -108.5t91 -36.5z" />
    <glyph glyph-name="nine" unicode="9" horiz-adv-x="862" 
d="M565 1389q156 0 234 -107t78 -291q0 -65 -10 -148.5t-32.5 -181t-54.5 -193t-80 -184.5t-105 -157t-134 -109t-162 -41q-98 0 -175.5 53t-109.5 144l148 135q11 -65 49.5 -103t97.5 -38q54 0 102.5 40.5t85.5 111t64 144.5t49 161q2 9 5 18t4.5 15.5t3.5 15.5
q-47 -78 -112.5 -126t-137.5 -48q-103 0 -169.5 77t-66.5 214q0 80 18 163t54.5 161t86.5 139t120 98t149 37zM557 1198q-47 0 -86.5 -40t-63 -100t-36.5 -122t-13 -113q0 -65 27 -106t84 -41q100 0 186 176q17 91 17 164q0 182 -115 182z" />
    <glyph glyph-name="colon" unicode=":" horiz-adv-x="489" 
d="M147 -23q-51 0 -85.5 35t-34.5 86q0 59 42.5 101.5t100.5 42.5q51 0 86 -35.5t35 -85.5q0 -60 -42.5 -102t-101.5 -42zM315 739q-51 0 -85.5 35t-34.5 86q0 59 42.5 101.5t100.5 42.5q51 0 86 -35.5t35 -85.5q0 -60 -42.5 -102t-101.5 -42z" />
    <glyph glyph-name="semicolon" unicode=";" horiz-adv-x="489" 
d="M297 106q0 -102 -75.5 -204t-184.5 -156l-74 78q59 28 111 75t71 97q-2 -2 -18 -2q-41 0 -70.5 29t-29.5 77q0 58 43.5 100t99.5 42q54 0 90.5 -36.5t36.5 -99.5zM315 739q-51 0 -85.5 35t-34.5 86q0 59 42.5 101.5t100.5 42.5q51 0 86 -35.5t35 -85.5q0 -60 -42.5 -102
t-101.5 -42z" />
    <glyph glyph-name="less" unicode="&#x3c;" horiz-adv-x="780" 
d="M680 324l-596 292l31 138l725 293l-35 -158l-555 -211l463 -211z" />
    <glyph glyph-name="equal" unicode="=" horiz-adv-x="780" 
d="M791 817h-662l29 127h659zM702 424h-661l29 127h661z" />
    <glyph glyph-name="greater" unicode="&#x3e;" horiz-adv-x="780" 
d="M745 616l-727 -292l37 157l557 209l-462 213l30 144l596 -293z" />
    <glyph glyph-name="question" unicode="?" horiz-adv-x="655" 
d="M408 457l-175 -64q-22 55 -22 127q0 58 17.5 110t45.5 91.5t62 75.5t68.5 69t62.5 65.5t45.5 72t17.5 81.5q0 49 -29.5 85t-82.5 36q-70 0 -125 -49l-62 143q117 89 248 89q119 0 196 -72.5t77 -175.5q0 -83 -37 -157.5t-90 -128.5t-105.5 -103.5t-89.5 -104t-37 -108.5
q0 -52 15 -82zM233 -23q-50 0 -84 35t-34 86q0 59 42.5 101.5t100.5 42.5q51 0 86 -35.5t35 -85.5q0 -60 -43 -102t-103 -42z" />
    <glyph glyph-name="at" unicode="@" horiz-adv-x="1269" 
d="M588 -143q-222 0 -348.5 156.5t-126.5 426.5q0 164 56 322.5t149.5 278.5t223.5 194t269 74q191 0 309.5 -134t118.5 -364q0 -173 -46 -320.5t-121.5 -232t-160.5 -84.5q-67 0 -111 38t-52 101l-3 17q-46 -72 -99.5 -114t-127.5 -42q-80 0 -135 60.5t-55 197.5
q0 141 46.5 275t136.5 224.5t200 90.5q59 0 96 -38.5t51 -102.5l23 108h172l-115 -538q-6 -30 -6 -58q0 -44 13.5 -64t45.5 -20q22 0 50.5 34.5t55.5 95t45.5 159t18.5 211.5q0 203 -96 314.5t-258 111.5q-99 0 -193.5 -44.5t-170 -122.5t-133 -177.5t-89 -216t-31.5 -232.5
q0 -232 106.5 -373t301.5 -141q83 0 152.5 29t140.5 86l37 -57q-164 -129 -340 -129zM598 313q28 0 53.5 12t47 36.5t35 44t32.5 51.5l65 303q-25 121 -96 121q-52 0 -97 -42t-72 -107t-42.5 -137t-15.5 -136q0 -146 90 -146z" />
    <glyph glyph-name="A" unicode="A" horiz-adv-x="815" 
d="M698 0h-213l15 279h-273l-106 -279h-225l579 1366h246zM514 467l35 655l-254 -655h219z" />
    <glyph glyph-name="B" unicode="B" horiz-adv-x="882" 
d="M412 0h-406l301 1366h297q143 0 223 -80.5t80 -206.5q0 -139 -74.5 -255.5t-195.5 -137.5q73 -22 110 -91t37 -153q0 -81 -23.5 -158t-67.5 -141t-117 -103.5t-164 -39.5zM502 791q56 0 98 42t61 97t19 110q0 68 -36.5 103t-100.5 35h-64l-86 -387h109zM375 188
q84 0 139 81t55 190q0 143 -139 143h-78l-92 -414h115z" />
    <glyph glyph-name="C" unicode="C" horiz-adv-x="843" 
d="M391 -25q-154 0 -237.5 107.5t-83.5 306.5q0 69 9.5 153t31 180.5t52.5 190t77 180t101 152t129 105t157 39.5q77 0 136 -30t93 -82t52 -113.5t22 -133.5l-199 -39q-13 207 -119 207q-73 0 -137.5 -96t-103 -232t-60.5 -268t-22 -219q0 -115 28 -166t86 -51q49 0 93 42.5
t88 127.5l170 -74q-140 -287 -363 -287z" />
    <glyph glyph-name="D" unicode="D" horiz-adv-x="931" 
d="M313 0h-307l301 1366h299q63 0 119 -26t102.5 -77t73.5 -135.5t27 -191.5q0 -58 -8.5 -130.5t-29 -163.5t-51.5 -179t-80.5 -172.5t-111 -148.5t-148 -103t-186.5 -39zM260 188h90q75 0 138.5 62t102.5 152.5t67 197.5t39.5 192.5t11.5 141.5q0 123 -41 183.5t-103 60.5
h-86z" />
    <glyph glyph-name="E" unicode="E" horiz-adv-x="751" 
d="M565 0h-559l301 1366h559l-41 -188h-346l-86 -387h332l-43 -189h-330l-92 -414h346z" />
    <glyph glyph-name="F" unicode="F" horiz-adv-x="747" 
d="M219 0h-213l301 1366h559l-41 -188h-346l-86 -387h332l-43 -189h-330z" />
    <glyph glyph-name="G" unicode="G" horiz-adv-x="890" 
d="M391 -25q-155 0 -238 107t-83 307q0 74 10.5 161.5t32.5 184.5t54 189.5t78.5 177t101.5 148.5t127.5 101.5t152.5 37.5q61 0 110.5 -18.5t82 -50t55 -75t33 -90.5t12.5 -100l-183 -43q-11 186 -125 186q-72 0 -135.5 -92.5t-103 -225t-62 -267t-22.5 -230.5
q0 -118 27 -167.5t87 -49.5q43 0 77.5 25.5t72.5 74.5l57 269h-166l43 188h357l-119 -533q-139 -215 -334 -215z" />
    <glyph glyph-name="H" unicode="H" horiz-adv-x="948" 
d="M723 0h-215l135 608h-291l-133 -608h-213l301 1366h213l-125 -569h289l125 569h215z" />
    <glyph glyph-name="I" unicode="I" horiz-adv-x="446" 
d="M219 0h-213l301 1366h213z" />
    <glyph glyph-name="J" unicode="J" horiz-adv-x="690" 
d="M168 -25q-74 0 -139 24.5t-105 70.5l92 168q24 -35 61 -53.5t75 -18.5q69 0 110 39t60 125l231 1036h213l-231 -1047q-40 -180 -127.5 -262t-239.5 -82z" />
    <glyph glyph-name="K" unicode="K" horiz-adv-x="917" 
d="M795 0h-228l-137 557l-129 -180l-82 -377h-213l301 1366h213l-139 -635l440 635h248l-479 -645z" />
    <glyph glyph-name="L" unicode="L" horiz-adv-x="718" 
d="M565 0h-559l301 1366h213l-260 -1178h346z" />
    <glyph glyph-name="M" unicode="M" horiz-adv-x="1210" 
d="M985 0h-211l201 911l-443 -911h-75l-35 911l-203 -911h-213l301 1366h273l32 -805l396 805h278z" />
    <glyph glyph-name="N" unicode="N" horiz-adv-x="948" 
d="M723 0h-203l-117 838l-184 -838h-213l301 1366h213l109 -811l180 811h215z" />
    <glyph glyph-name="O" unicode="O" horiz-adv-x="940" 
d="M391 -25q-82 0 -144.5 32t-100.5 89.5t-57 131t-19 161.5q0 98 19 221.5t63.5 262t106.5 252.5t158.5 189t209.5 75q82 0 144.5 -32.5t100.5 -90.5t57 -132.5t19 -162.5q0 -67 -10 -150.5t-31.5 -179.5t-52.5 -189.5t-77.5 -180t-101.5 -152t-128.5 -105t-155.5 -39.5z
M403 166q71 0 135.5 93.5t104.5 226.5t63 266t23 225q0 221 -117 221q-72 0 -136 -93.5t-103 -227.5t-61.5 -267.5t-22.5 -226.5q0 -217 114 -217z" />
    <glyph glyph-name="P" unicode="P" horiz-adv-x="856" 
d="M219 0h-213l301 1366h303q134 0 217.5 -92.5t83.5 -239.5q0 -77 -18 -150t-55.5 -139t-91 -115.5t-130.5 -78.5t-167 -29h-115zM375 711h90q53 0 96.5 27.5t70.5 72t41.5 97.5t14.5 108q0 79 -34.5 120.5t-92.5 41.5h-82z" />
    <glyph glyph-name="Q" unicode="Q" horiz-adv-x="940" 
d="M391 -25q-82 0 -144.5 32t-100.5 89.5t-57 131t-19 161.5q0 98 19 221.5t63.5 262t106.5 252.5t158.5 189t209.5 75q82 0 144.5 -32.5t100.5 -90.5t57 -132.5t19 -162.5q0 -98 -20.5 -223t-60.5 -259t-110 -255t-157 -187l14 -90l-161 -29l-9 52q-45 -5 -53 -5zM403 166
h11l-43 274l161 29l29 -176q74 128 121 337t47 347q0 221 -117 221q-72 0 -136 -93.5t-103 -227.5t-61.5 -267.5t-22.5 -226.5q0 -217 114 -217z" />
    <glyph glyph-name="R" unicode="R" horiz-adv-x="897" 
d="M709 0h-224l-43 522h-108l-115 -522h-213l301 1366h301q134 0 219.5 -94.5t85.5 -235.5q0 -167 -81.5 -302.5t-190.5 -172.5zM375 711h94q68 0 119.5 47t75.5 115.5t24 144.5q0 80 -33.5 120t-91.5 40h-84z" />
    <glyph glyph-name="S" unicode="S" horiz-adv-x="774" 
d="M287 -25q-102 0 -192 41.5t-136 108.5l127 158q32 -52 88 -84.5t113 -32.5q74 0 129 61.5t55 161.5q0 52 -31 104.5t-75.5 100.5t-88.5 100t-75 123t-31 150q0 176 116.5 299t278.5 123q82 0 160.5 -32.5t128.5 -90.5l-117 -158q-67 90 -174 90q-74 0 -121 -57.5
t-47 -136.5q0 -48 30.5 -99t74 -100t87.5 -102.5t74.5 -126.5t30.5 -152q0 -189 -114.5 -319t-290.5 -130z" />
    <glyph glyph-name="T" unicode="T" horiz-adv-x="708" 
d="M350 0h-213l260 1178h-211l41 188h635l-41 -188h-211z" />
    <glyph glyph-name="U" unicode="U" horiz-adv-x="950" 
d="M403 -25q-140 0 -231.5 86t-91.5 232q0 44 10 92l217 981h213l-221 -999q-6 -42 -6 -66q0 -66 35 -101.5t92 -35.5q64 0 106 47.5t66 155.5l219 999h213l-217 -989q-46 -205 -150 -303.5t-254 -98.5z" />
    <glyph glyph-name="V" unicode="V" horiz-adv-x="815" 
d="M420 0h-246l23 1366h213l-58 -1090l422 1090h225z" />
    <glyph glyph-name="W" unicode="W" horiz-adv-x="1202" 
d="M836 0h-220l86 954l-337 -954h-220l74 1366h215l-92 -989l360 989h172l-75 -989l344 989h221z" />
    <glyph glyph-name="X" unicode="X" horiz-adv-x="835" 
d="M725 0h-225l-78 494l-285 -494h-246l453 707l-135 659h225l64 -471l264 471h248l-432 -680z" />
    <glyph glyph-name="Y" unicode="Y" horiz-adv-x="829" 
d="M412 0h-213l125 571l-140 795h219l64 -584l324 584h235l-489 -795z" />
    <glyph glyph-name="Z" unicode="Z" horiz-adv-x="737" 
d="M565 0h-612l39 182l567 996h-346l41 188h598l-39 -174l-573 -1004h366z" />
    <glyph glyph-name="bracketleft" unicode="[" horiz-adv-x="399" 
d="M164 -389h-289l393 1778h291l-29 -136h-147l-336 -1507h148z" />
    <glyph glyph-name="backslash" unicode="\" horiz-adv-x="442" 
d="M182 -41v1448h140v-1448h-140z" />
    <glyph glyph-name="bracketright" unicode="]" horiz-adv-x="399" 
d="M129 -389h-291l31 135h147l334 1507h-147l28 136h293z" />
    <glyph glyph-name="asciicircum" unicode="^" horiz-adv-x="684" 
d="M684 682h-139l-43 526l-275 -526h-149l383 684h143z" />
    <glyph glyph-name="underscore" unicode="_" horiz-adv-x="571" 
d="M418 -217h-582l31 135h582z" />
    <glyph glyph-name="grave" unicode="`" horiz-adv-x="335" 
d="M477 1139h-125l-145 295h174z" />
    <glyph glyph-name="a" unicode="a" horiz-adv-x="831" 
d="M428 1014q68 0 117.5 -39t70.5 -119l31 133h191l-220 -989h-192l29 123q-91 -148 -209 -148q-101 0 -155 78.5t-54 227.5q0 79 15 173t47 193.5t76.5 181t110.5 133.5t142 52zM469 844q-56 0 -102.5 -61.5t-73.5 -151t-42 -177t-15 -151.5q0 -158 104 -158
q40 0 81.5 40.5t67.5 97.5l95 422q-6 60 -39 99.5t-76 39.5z" />
    <glyph glyph-name="b" unicode="b" horiz-adv-x="831" 
d="M401 -25q-144 0 -188 158l-29 -133h-190l299 1366h192l-110 -500q91 148 209 148q102 0 155.5 -78t53.5 -227q0 -79 -15 -173t-47 -194t-76.5 -181.5t-111 -133.5t-142.5 -52zM362 145q55 0 101.5 62t73.5 151t42 177t15 151q0 158 -105 158q-40 0 -81.5 -40t-67.5 -97
l-94 -422q6 -60 39 -100t77 -40z" />
    <glyph glyph-name="c" unicode="c" horiz-adv-x="681" 
d="M348 -25q-143 0 -224 91t-81 266q0 88 18.5 181.5t57 183t91 160t127 114t159.5 43.5q73 0 134 -27.5t97 -73.5l-96 -143q-42 74 -123 74q-61 0 -113.5 -51.5t-84.5 -129t-50 -161.5t-18 -156q0 -102 39 -151.5t108 -49.5q66 0 123 60l39 -152q-87 -78 -203 -78z" />
    <glyph glyph-name="d" unicode="d" horiz-adv-x="831" 
d="M428 1014q68 0 117.5 -39t70.5 -119l113 510h193l-304 -1366h-192l29 123q-91 -148 -209 -148q-101 0 -155 78.5t-54 227.5q0 79 15 173t47 193.5t76.5 181t110.5 133.5t142 52zM469 844q-56 0 -102.5 -61.5t-73.5 -151t-42 -177t-15 -151.5q0 -158 104 -158
q40 0 81.5 40.5t67.5 97.5l95 422q-6 60 -39 99.5t-76 39.5z" />
    <glyph glyph-name="e" unicode="e" horiz-adv-x="800" 
d="M356 -25q-149 0 -232 93t-83 266q0 71 16 156.5t51.5 179t85 169.5t125.5 125.5t164 49.5q139 0 211 -82.5t72 -241.5q0 -97 -39 -258h-494q-12 -47 -12 -108q0 -82 40.5 -136.5t127.5 -54.5q44 0 90.5 26.5t83.5 69.5l74 -118q-58 -65 -131.5 -100.5t-149.5 -35.5z
M260 569h313q17 70 17 123q0 72 -32 118t-89 46q-44 0 -81.5 -27.5t-62.5 -72.5t-41 -92t-24 -95z" />
    <glyph glyph-name="f" unicode="f" horiz-adv-x="489" 
d="M215 0h-192l182 821h-94l36 168h95l26 129q58 268 273 268q53 0 102 -16.5t72 -42.5l-84 -147q-25 37 -70 37q-77 0 -100 -99l-27 -129h129l-39 -168h-127z" />
    <glyph glyph-name="g" unicode="g" horiz-adv-x="831" 
d="M227 -401q-93 0 -172 30.5t-127 89.5l105 150q30 -45 80.5 -72.5t109.5 -27.5q76 0 125.5 54t75.5 171l39 156q-87 -148 -211 -148q-101 0 -157 74t-56 219q0 77 13.5 168t44.5 189.5t74.5 178.5t111 131.5t147.5 51.5q60 0 117 -42.5t71 -115.5l29 133h191l-215 -971
q-27 -119 -67 -202.5t-92 -130t-109 -66.5t-128 -20zM344 172q41 0 82.5 39.5t69.5 97.5l88 396q-8 56 -42 97.5t-77 41.5q-54 0 -99 -57t-72 -140.5t-41.5 -168t-14.5 -148.5q0 -85 26.5 -121.5t79.5 -36.5z" />
    <glyph glyph-name="h" unicode="h" 
d="M610 0h-192l162 727q6 24 6 45q0 72 -70 72q-47 0 -95 -43t-85 -105l-152 -696h-192l301 1366h192l-110 -504q48 67 111.5 109.5t134.5 42.5q82 0 127 -44.5t45 -115.5q0 -16 -9 -61z" />
    <glyph glyph-name="i" unicode="i" horiz-adv-x="397" 
d="M346 1118q-47 0 -78.5 31t-31.5 74q0 62 44 100.5t95 38.5q47 0 78.5 -32t31.5 -75q0 -62 -43.5 -99.5t-95.5 -37.5zM184 0h-192l219 989h192z" />
    <glyph glyph-name="j" unicode="j" horiz-adv-x="397" 
d="M-115 -401q-102 0 -143 61l84 141q13 -32 51 -32q64 0 88 120l246 1100h192l-245 -1100q-35 -155 -96 -222.5t-177 -67.5zM346 1118q-47 0 -78.5 31t-31.5 74q0 62 44 100.5t95 38.5q47 0 78.5 -32t31.5 -75q0 -62 -43.5 -99.5t-95.5 -37.5z" />
    <glyph glyph-name="k" unicode="k" horiz-adv-x="788" 
d="M657 0h-204l-74 424l-143 -184l-52 -240h-192l301 1366h192l-190 -860l362 483h215l-340 -440z" />
    <glyph glyph-name="l" unicode="l" horiz-adv-x="397" 
d="M184 0h-192l301 1366h192z" />
    <glyph glyph-name="m" unicode="m" horiz-adv-x="1249" 
d="M1036 0h-192l160 727q8 24 8 45q0 72 -70 72q-47 0 -96 -44t-84 -104l-152 -696h-192l162 727q6 36 6 47q0 70 -70 70q-48 0 -95 -43t-85 -105l-152 -696h-192l219 989h192l-28 -127q47 67 112.5 109.5t133.5 42.5q76 0 124 -42t48 -102q0 -10 -2 -20q50 73 117 118.5
t136 45.5q80 0 127.5 -42.5t47.5 -115.5q0 -27 -9 -63z" />
    <glyph glyph-name="n" unicode="n" 
d="M610 0h-192l162 727q6 30 6 45q0 72 -70 72q-47 0 -95 -43t-85 -105l-152 -696h-192l219 989h192l-28 -127q48 67 111.5 109.5t134.5 42.5q79 0 125.5 -43t46.5 -117q0 -34 -9 -61z" />
    <glyph glyph-name="o" unicode="o" 
d="M334 -25q-140 0 -216.5 89t-76.5 255q0 87 18 181.5t55 186.5t88.5 164.5t125 117.5t157.5 45q141 0 217 -88.5t76 -255.5q0 -87 -18 -181.5t-55 -186.5t-88.5 -164.5t-125 -117.5t-157.5 -45zM346 145q54 0 101.5 59.5t76 145.5t44.5 172.5t16 149.5q0 172 -109 172
q-55 0 -102.5 -59.5t-76 -146t-44.5 -173.5t-16 -150q0 -92 28 -131t82 -39z" />
    <glyph glyph-name="p" unicode="p" horiz-adv-x="831" 
d="M401 -25q-144 0 -188 158l-113 -510h-190l301 1366h192l-28 -123q91 148 209 148q102 0 155.5 -78t53.5 -227q0 -79 -15 -173t-47 -194t-76.5 -181.5t-111 -133.5t-142.5 -52zM362 145q55 0 101.5 62t73.5 151t42 177t15 151q0 158 -105 158q-40 0 -81.5 -40t-67.5 -97
l-94 -422q6 -60 39 -100t77 -40z" />
    <glyph glyph-name="q" unicode="q" horiz-adv-x="831" 
d="M428 1014q68 0 117.5 -39t70.5 -119l29 133h193l-303 -1366h-193l113 500q-91 -148 -209 -148q-101 0 -155 78.5t-54 227.5q0 79 15 173t47 193.5t76.5 181t110.5 133.5t142 52zM469 844q-56 0 -102.5 -61.5t-73.5 -151t-42 -177t-15 -151.5q0 -158 104 -158
q40 0 81.5 40.5t67.5 97.5l95 422q-6 60 -39 99.5t-76 39.5z" />
    <glyph glyph-name="r" unicode="r" horiz-adv-x="548" 
d="M184 0h-192l219 989h192l-28 -133q89 156 260 156l-45 -193q-24 8 -51 8q-116 0 -205 -147z" />
    <glyph glyph-name="s" unicode="s" horiz-adv-x="675" 
d="M252 -25q-98 0 -178.5 39.5t-116.5 102.5l109 125q30 -50 79 -81.5t111 -31.5q59 0 100 41.5t41 99.5q0 41 -29.5 78.5t-71.5 70t-84 69t-71.5 91.5t-29.5 121q0 130 85 222t232 92q78 0 151.5 -34.5t118.5 -94.5l-104 -121q-21 40 -69 68t-101 28q-57 0 -92 -34.5
t-35 -90.5q0 -27 16 -52.5t42 -48.5t57 -47t62.5 -52.5t57.5 -60t42 -75t16 -92.5q0 -137 -94.5 -234.5t-243.5 -97.5z" />
    <glyph glyph-name="t" unicode="t" horiz-adv-x="505" 
d="M262 -25q-203 0 -203 164q0 35 11 80l135 602h-96l36 168h97l59 271h193l-60 -271h129l-39 -168h-127l-127 -569q-8 -32 -8 -51q0 -56 57 -56q27 0 56 19l12 -154q-53 -35 -125 -35z" />
    <glyph glyph-name="u" unicode="u" 
d="M211 989h192l-161 -727q-6 -27 -6 -45q0 -72 69 -72q47 0 93.5 40.5t82.5 101.5l156 702h192l-219 -989h-192l28 127q-49 -67 -112 -109.5t-133 -42.5q-79 0 -125.5 43t-46.5 117q0 38 8 62z" />
    <glyph glyph-name="v" unicode="v" horiz-adv-x="731" 
d="M358 0h-208l-31 989h198l-16 -749l320 749h208z" />
    <glyph glyph-name="w" unicode="w" horiz-adv-x="1185" 
d="M836 0h-201l6 727l-311 -727h-201l-2 989h192l-24 -725l303 725h186l-10 -725l297 725h207z" />
    <glyph glyph-name="x" unicode="x" horiz-adv-x="720" 
d="M596 0h-201l-61 354l-219 -354h-211l336 500l-107 489h199l53 -344l209 344h209l-326 -489z" />
    <glyph glyph-name="y" unicode="y" horiz-adv-x="731" 
d="M-117 -379l64 160q12 -12 47 -12q28 0 47.5 18t42.5 61l63 132l-28 1009h198l-16 -745l320 745h208l-565 -1182q-59 -119 -117 -163.5t-139 -44.5q-70 0 -125 22z" />
    <glyph glyph-name="z" unicode="z" horiz-adv-x="657" 
d="M485 0h-534l31 147l444 674h-293l37 168h526l-30 -141l-447 -680h303z" />
    <glyph glyph-name="braceleft" unicode="{" horiz-adv-x="434" 
d="M201 -389h-45q-76 0 -134 50t-59 130q0 31 8 55l101 455q4 20 4 39q0 46 -20.5 73t-59.5 27l27 119q106 0 137 139l102 459q26 115 97 173.5t178 58.5h59l-31 -136h-59q-37 0 -63.5 -24t-36.5 -72l-109 -491q-16 -73 -46 -117t-87 -66q59 -29 59 -112q0 -37 -8 -70
l-98 -448q-6 -36 -6 -37q0 -32 18 -52t43 -20h59z" />
    <glyph glyph-name="bar" unicode="|" horiz-adv-x="366" 
d="M291 -41h-133v1448h133v-1448z" />
    <glyph glyph-name="braceright" unicode="}" horiz-adv-x="434" 
d="M231 1389h45q76 0 134.5 -51t58.5 -132q0 -29 -8 -53l-101 -455q-4 -20 -4 -41q0 -44 20.5 -71t59.5 -27l-26 -119q-107 0 -138 -139l-102 -459q-26 -115 -96.5 -173t-177.5 -58h-60l31 135h59q37 0 64 24t37 72l108 492q16 73 46 116.5t87 65.5q-59 29 -59 113
q0 36 8 69l98 449q0 3 3.5 16.5t3.5 20.5q0 33 -18 52t-44 19h-59z" />
    <glyph glyph-name="asciitilde" unicode="~" horiz-adv-x="833" 
d="M831 1366l136 -12q-101 -496 -326 -496q-49 0 -81 21t-45.5 54.5t-19.5 73.5t-7 80.5t-3.5 74t-13.5 54.5t-33 21q-83 0 -168 -381l-135 14q101 494 328 494q56 0 90 -28t44 -70.5t14 -92t4 -92t11.5 -70.5t37.5 -28q82 0 167 383z" />
    <glyph glyph-name="nbspace" unicode="&#xa0;" horiz-adv-x="342" 
 />
    <glyph glyph-name="exclamdown" unicode="&#xa1;" horiz-adv-x="489" 
d="M182 584h164l-176 -961h-236zM344 1012q50 0 84.5 -35t34.5 -86q0 -58 -42.5 -100.5t-101.5 -42.5q-51 0 -85.5 35t-34.5 85q0 60 42.5 102t102.5 42z" />
    <glyph glyph-name="cent" unicode="&#xa2;" horiz-adv-x="681" 
d="M201 -205l43 195q-96 28 -148.5 115t-52.5 227q0 108 28.5 222t80 214.5t135.5 168.5t184 75l33 145h145l-37 -164q71 -27 115 -80l-96 -143q-20 35 -56 57l-151 -677q48 12 88 55l39 -152q-73 -64 -166 -76l-39 -182h-145zM242 346q0 -109 45 -160l141 633
q-84 -54 -135 -198.5t-51 -274.5z" />
    <glyph glyph-name="sterling" unicode="&#xa3;" horiz-adv-x="829" 
d="M74 561l28 129h123q-35 115 -35 205q0 102 36.5 194.5t95 157t134 102t152.5 37.5q127 0 212 -71t89 -201l-184 -55q-10 151 -115 151q-75 0 -133.5 -101t-58.5 -241q0 -31 5 -60t15 -67t13 -51h149l-29 -129h-112q-12 -112 -67 -209.5t-128 -146.5q40 18 72 18
q47 0 110.5 -28.5t98.5 -28.5q78 0 139 65l25 -172q-36 -37 -89.5 -60.5t-113.5 -23.5q-64 0 -115.5 21t-94.5 42t-85 21q-72 0 -168 -73l-35 149q104 61 175 170.5t71 222.5q0 23 -2 33h-178z" />
    <glyph glyph-name="currency" unicode="&#xa4;" horiz-adv-x="858" 
d="M408 205q-113 0 -185 57l-164 -133l-102 131l172 139q-20 72 -20 148q0 127 36.5 248t104.5 209l-111 143l133 108l107 -141q75 43 160 43q110 0 184 -55l168 137l104 -131l-178 -143q23 -77 23 -152q0 -125 -38.5 -245t-105.5 -208l113 -145l-133 -109l-109 142
q-78 -43 -159 -43zM297 551q0 -47 10.5 -84.5t40.5 -64.5t76 -27q64 0 117.5 68t81.5 166t28 198q0 81 -30 130.5t-95 49.5q-66 0 -120 -69.5t-81.5 -168.5t-27.5 -198z" />
    <glyph glyph-name="yen" unicode="&#xa5;" horiz-adv-x="829" 
d="M414 0h-213l53 246h-264l28 127h263l45 198h-263l27 127h213l-117 668h220l63 -584l324 584h235l-412 -668h205l-26 -127h-256l-45 -198h256l-29 -127h-254z" />
    <glyph glyph-name="brokenbar" unicode="&#xa6;" horiz-adv-x="366" 
d="M291 -41h-133v647h133v-647zM291 760h-133v647h133v-647z" />
    <glyph glyph-name="section" unicode="&#xa7;" horiz-adv-x="677" 
d="M666 678q0 -103 -53.5 -181.5t-155.5 -119.5q44 -38 70 -93t26 -110q0 -140 -94 -240t-234 -100q-228 0 -311 133l111 123q62 -110 188 -110q64 0 108 49t44 118q0 33 -15.5 61.5t-40.5 51t-55 45.5t-59.5 49t-54.5 55.5t-40.5 72.5t-15.5 93q0 103 60.5 180.5
t164.5 100.5q-53 43 -82.5 101.5t-29.5 121.5q0 131 90 219t215 88q197 0 289 -126l-107 -107q-59 94 -172 94q-57 0 -94 -43t-37 -102q0 -43 29.5 -81.5t71.5 -71t83.5 -68t71 -88t29.5 -115.5zM485 633q0 82 -67 149q-85 -14 -120.5 -60.5t-35.5 -109.5q0 -44 24.5 -87.5
t71.5 -75.5q127 52 127 184z" />
    <glyph glyph-name="dieresis" unicode="&#xa8;" horiz-adv-x="557" 
d="M711 1253q0 -47 -38 -83.5t-87 -36.5q-42 0 -70.5 28t-28.5 70q0 47 38 84t87 37q42 0 70.5 -28.5t28.5 -70.5zM397 1253q0 -47 -38 -83.5t-87 -36.5q-42 0 -70 28t-28 70q0 47 38 84t87 37q41 0 69.5 -28t28.5 -71z" />
    <glyph glyph-name="copyright" unicode="&#xa9;" horiz-adv-x="1593" 
d="M1544 684q0 -143 -56.5 -274t-151.5 -226t-226 -151t-274 -56q-191 0 -353.5 95t-257 258t-94.5 354t94.5 354t257 258t353.5 95q143 0 274 -56t226 -151t151.5 -226t56.5 -274zM1477 684q0 129 -51.5 247t-137.5 204t-204.5 137t-247.5 51t-247 -51t-203.5 -137
t-136 -204t-50.5 -247t50.5 -247t136 -204t203.5 -137t247 -51t247.5 51t204.5 137t137.5 204t51.5 247zM1036 420l43 -62q-127 -108 -278 -108q-179 0 -286 107.5t-107 271.5q0 102 40.5 194.5t107.5 157t154.5 102t178.5 37.5q221 0 321 -164l-67 -49q-37 69 -103 105.5
t-153 36.5q-97 0 -188 -53t-150.5 -151t-59.5 -214q0 -128 86.5 -218.5t225.5 -90.5q64 0 127 27.5t108 70.5z" />
    <glyph glyph-name="ordfeminine" unicode="&#xaa;" horiz-adv-x="622" 
d="M453 1212q-45 0 -83 -57t-57.5 -131.5t-19.5 -140.5q0 -56 19.5 -86.5t56.5 -30.5q53 0 106 92l57 270q-5 36 -27 60t-52 24zM573 1311h144l-142 -643h-143l19 84q-64 -101 -150 -101q-72 0 -114 54t-42 167q0 71 18.5 149t52 147t87 114t115.5 45q44 0 81.5 -25.5
t55.5 -72.5z" />
    <glyph glyph-name="guillemotleft" unicode="&#xab;" horiz-adv-x="735" 
d="M311 129h-149l-103 369l267 362h157l-272 -371zM586 129h-150l-102 369l266 362h158l-273 -371z" />
    <glyph glyph-name="logicalnot" unicode="&#xac;" horiz-adv-x="780" 
d="M817 944l-115 -520h-131l86 393h-528l29 127h659z" />
    <glyph glyph-name="uni00AD" unicode="&#xad;" horiz-adv-x="487" 
d="M408 412h-367l37 166h364z" />
    <glyph glyph-name="registered" unicode="&#xae;" horiz-adv-x="1011" 
d="M1040 952q0 -180 -127.5 -307t-308.5 -127q-180 0 -306 127t-126 307q0 181 127 307.5t307 126.5q119 0 219 -57.5t157.5 -157.5t57.5 -219zM979 952q0 156 -109.5 264.5t-265.5 108.5q-155 0 -263 -108t-108 -265q0 -154 108 -263t263 -109t265 109t110 263zM754 702
h-80l-86 197h-92l-43 -197h-68l109 498h188q63 0 104 -36t41 -95q0 -71 -50.5 -119.5t-112.5 -48.5zM756 1061q0 38 -24 59t-62 21h-121l-41 -180h137q45 0 78 29t33 71z" />
    <glyph glyph-name="macron" unicode="&#xaf;" horiz-adv-x="520" 
d="M666 1163h-519l25 117h518z" />
    <glyph glyph-name="degree" unicode="&#xb0;" horiz-adv-x="610" 
d="M702 1126q0 -107 -76.5 -182.5t-183.5 -75.5t-182.5 75.5t-75.5 182.5t75.5 183.5t182.5 76.5t183.5 -76.5t76.5 -183.5zM590 1126q0 60 -44 103t-104 43t-101.5 -43t-41.5 -103t40.5 -101.5t100.5 -41.5q61 0 105.5 42t44.5 101z" />
    <glyph glyph-name="plusminus" unicode="&#xb1;" horiz-adv-x="780" 
d="M748 627h-261l-69 -305h-137l67 305h-260l27 127h262l63 293h140l-64 -293h260zM625 70h-662l29 127h659z" />
    <glyph glyph-name="twosuperior" unicode="&#xb2;" horiz-adv-x="575" 
d="M614 862h-475l27 119q265 239 347.5 333.5t82.5 166.5q0 43 -26 67.5t-68 24.5q-87 0 -158 -96l-76 96q108 121 244 121q101 0 168.5 -53t67.5 -146q0 -53 -21 -102.5t-74 -111t-115 -122t-169 -159.5q-13 -11 -19 -17h291z" />
    <glyph glyph-name="threesuperior" unicode="&#xb3;" horiz-adv-x="575" 
d="M668 1110q0 -98 -73.5 -180t-191.5 -82q-90 0 -156.5 38t-94.5 105l112 82q15 -48 50.5 -76t82.5 -28q59 0 92 50.5t33 110.5q0 45 -26.5 69t-67.5 24q-45 0 -57 -2l26 120q10 -2 66 -2q57 0 94 39.5t37 104.5q0 41 -26 65.5t-70 24.5q-83 0 -150 -86l-78 84
q101 123 240 123q107 0 170 -50t63 -141q0 -77 -50.5 -146.5t-135.5 -82.5q55 -17 83 -60.5t28 -103.5z" />
    <glyph glyph-name="acute" unicode="&#xb4;" horiz-adv-x="335" 
d="M543 1434l-277 -295h-129l228 295h178z" />
    <glyph glyph-name="mu" unicode="&#xb5;" horiz-adv-x="845" 
d="M188 14l-86 -391h-192l301 1366h192l-161 -731q-12 -55 4.5 -85t58.5 -30q47 0 93.5 40.5t82.5 101.5l156 704h192l-167 -753q-11 -43 -3 -67t39 -24q6 0 31 5l-20 -162q-43 -13 -95 -13q-88 0 -119.5 41.5t-23.5 133.5q-37 -80 -91.5 -127.5t-109.5 -47.5q-54 0 -82 39z
" />
    <glyph glyph-name="paragraph" unicode="&#xb6;" horiz-adv-x="919" 
d="M635 -205h-107l328 1467h-174l-328 -1467h-104l192 867q-116 0 -198 91t-82 228q0 97 50.5 185t143 144t203.5 56h424z" />
    <glyph glyph-name="periodcentered" unicode="&#xb7;" horiz-adv-x="489" 
d="M231 369q-50 0 -84 34.5t-34 85.5q0 59 42.5 101.5t100.5 42.5q51 0 86 -35.5t35 -85.5q0 -60 -43 -101.5t-103 -41.5z" />
    <glyph glyph-name="cedilla" unicode="&#xb8;" horiz-adv-x="358" 
d="M-2 -395q-111 0 -180 78l57 79q49 -65 125 -65q40 0 66 27t26 63q0 49 -47 49q-30 0 -53 -26l-68 43l103 170h104l-84 -134q21 21 49 21q45 0 74 -32.5t29 -84.5q0 -79 -58 -133.5t-143 -54.5z" />
    <glyph glyph-name="onesuperior" unicode="&#xb9;" horiz-adv-x="475" 
d="M457 862h-150l135 619l-137 -117l-72 90l275 227h129z" />
    <glyph glyph-name="ordmasculine" unicode="&#xba;" horiz-adv-x="614" 
d="M369 651q-106 0 -161.5 64.5t-55.5 175.5q0 68 20 142t57 141t98 110t134 43q106 0 161.5 -64.5t55.5 -175.5q0 -68 -20 -142t-57 -141t-98 -110t-134 -43zM375 768q39 0 71 38.5t49.5 93.5t27 107t9.5 87q0 114 -79 114q-39 0 -71 -38t-50 -93t-27.5 -106.5t-9.5 -87.5
q0 -115 80 -115z" />
    <glyph glyph-name="guillemotright" unicode="&#xbb;" horiz-adv-x="735" 
d="M150 860h149l102 -368l-266 -363h-158l273 371zM424 860h149l103 -368l-266 -363h-158l272 371z" />
    <glyph glyph-name="onequarter" unicode="&#xbc;" horiz-adv-x="1263" 
d="M387 547h-149l135 618l-137 -116l-72 90l274 227h129zM1167 195h-71l-43 -195h-148l41 195h-295l25 118l377 506h180l-111 -506h70zM973 313l74 332l-242 -332h168zM1151 1366l-868 -1366h-95l867 1366h96z" />
    <glyph glyph-name="onehalf" unicode="&#xbd;" horiz-adv-x="1333" 
d="M387 547h-149l135 618l-137 -116l-72 90l274 227h129zM1182 0h-475l26 119q184 166 267.5 249t123 141.5t39.5 108.5q0 43 -26 68t-68 25q-86 0 -158 -97l-75 97q107 120 243 120q101 0 168.5 -52.5t67.5 -145.5q0 -36 -8.5 -68.5t-35 -73.5t-48.5 -69.5t-78.5 -85
t-92 -90t-120.5 -112.5q-9 -9 -14 -13h290zM1151 1366l-868 -1366h-95l867 1366h96z" />
    <glyph glyph-name="threequarters" unicode="&#xbe;" horiz-adv-x="1337" 
d="M1241 195h-72l-43 -195h-147l41 195h-295l25 118l376 506h181l-111 -506h70zM1047 313l73 332l-241 -332h168zM1225 1366l-869 -1366h-94l866 1366h97zM598 795q0 -98 -73 -180.5t-191 -82.5q-90 0 -157 38.5t-95 105.5l113 82q15 -48 50.5 -76.5t82.5 -28.5q59 0 92 51
t33 111q0 45 -27 68.5t-68 23.5q-45 0 -57 -2l27 121q10 -2 65 -2q57 0 94 39t37 104q0 41 -26 65.5t-70 24.5q-82 0 -149 -86l-78 84q101 123 239 123q108 0 171 -49.5t63 -140.5q0 -77 -51 -147t-136 -83q55 -17 83 -60.5t28 -102.5z" />
    <glyph glyph-name="questiondown" unicode="&#xbf;" horiz-adv-x="573" 
d="M244 532l176 62q20 -50 20 -125q0 -67 -23.5 -127t-58.5 -101t-76.5 -84t-76.5 -77.5t-58.5 -80.5t-23.5 -95q0 -51 28.5 -86t81.5 -35q69 0 125 47l62 -141q-112 -88 -246 -88q-121 0 -197.5 71.5t-76.5 175.5q0 61 19.5 117t51.5 99.5t70 83.5t76 76.5t70 71.5
t51.5 74.5t19.5 80.5q0 49 -14 81zM418 1010q51 0 85 -35t34 -86q0 -58 -42.5 -99.5t-101.5 -41.5q-51 0 -86 34.5t-35 85.5q0 58 43.5 100t102.5 42z" />
    <glyph glyph-name="Agrave" unicode="&#xc0;" horiz-adv-x="815" 
d="M698 0h-213l15 279h-273l-106 -279h-225l579 1366h246zM514 467l35 655l-254 -655h219zM709 1481h-125l-146 295h174z" />
    <glyph glyph-name="Aacute" unicode="&#xc1;" horiz-adv-x="815" 
d="M698 0h-213l15 279h-273l-106 -279h-225l579 1366h246zM514 467l35 655l-254 -655h219zM942 1776l-276 -295h-129l227 295h178z" />
    <glyph glyph-name="Acircumflex" unicode="&#xc2;" horiz-adv-x="815" 
d="M848 1481h-105l-73 200l-152 -200h-115l197 295h178zM698 0h-213l15 279h-273l-106 -279h-225l579 1366h246zM514 467l35 655l-254 -655h219z" />
    <glyph glyph-name="Atilde" unicode="&#xc3;" horiz-adv-x="815" 
d="M698 0h-213l15 279h-273l-106 -279h-225l579 1366h246zM514 467l35 655l-254 -655h219zM729 1477q-35 0 -58.5 17.5t-34 42.5t-18.5 50t-20 42.5t-31 17.5q-48 0 -84 -158h-104q61 274 203 274q36 0 59.5 -17.5t34 -42.5t18.5 -50t20 -42.5t31 -17.5q48 0 84 158h105
q-26 -125 -77.5 -199.5t-127.5 -74.5z" />
    <glyph glyph-name="Adieresis" unicode="&#xc4;" horiz-adv-x="815" 
d="M915 1595q0 -47 -37.5 -83.5t-86.5 -36.5q-42 0 -70.5 28t-28.5 70q0 47 38 84t87 37q41 0 69.5 -28t28.5 -71zM602 1595q0 -47 -38 -83.5t-87 -36.5q-42 0 -70 28t-28 70q0 47 38 84t87 37q42 0 70 -28t28 -71zM698 0h-213l15 279h-273l-106 -279h-225l579 1366h246z
M514 467l35 655l-254 -655h219z" />
    <glyph glyph-name="Aring" unicode="&#xc5;" horiz-adv-x="815" 
d="M698 0h-213l15 279h-273l-106 -279h-225l579 1366h246zM514 467l35 655l-254 -655h219zM629 1419q-70 0 -114 45.5t-44 116.5q0 78 59.5 137.5t137.5 59.5q69 0 113 -45.5t44 -116.5q0 -78 -59 -137.5t-137 -59.5zM637 1509q40 0 70 29.5t30 69.5q0 34 -21.5 57t-53.5 23
q-40 0 -70.5 -29.5t-30.5 -69.5q0 -34 21.5 -57t54.5 -23z" />
    <glyph glyph-name="AE" unicode="&#xc6;" horiz-adv-x="1196" 
d="M1012 0h-559l61 279h-238l-143 -279h-225l754 1366h651l-41 -188h-344l-86 -387h332l-44 -189h-331l-90 -414h344zM557 467l139 633l-325 -633h186z" />
    <glyph glyph-name="Ccedilla" unicode="&#xc7;" horiz-adv-x="843" 
d="M291 -395q-111 0 -180 78l57 79q49 -65 125 -65q40 0 66 27t26 63q0 49 -47 49q-30 0 -53 -26l-68 43l80 135q-109 29 -168 132t-59 269q0 69 9.5 153t31 180.5t52.5 190t77 180t101 152t129 105t157 39.5q77 0 136 -30t93 -82t52 -113.5t22 -133.5l-199 -39
q-13 207 -119 207q-73 0 -137.5 -96t-103 -232t-60.5 -268t-22 -219q0 -115 28 -166t86 -51q49 0 93 42.5t88 127.5l170 -74q-68 -140 -156.5 -213t-204.5 -74l-53 -86q21 21 49 21q45 0 74 -32.5t29 -84.5q0 -79 -58 -133.5t-143 -54.5z" />
    <glyph glyph-name="Egrave" unicode="&#xc8;" horiz-adv-x="751" 
d="M565 0h-559l301 1366h559l-41 -188h-346l-86 -387h332l-43 -189h-330l-92 -414h346zM696 1481h-125l-145 295h174z" />
    <glyph glyph-name="Eacute" unicode="&#xc9;" horiz-adv-x="751" 
d="M930 1776l-277 -295h-129l228 295h178zM565 0h-559l301 1366h559l-41 -188h-346l-86 -387h332l-43 -189h-330l-92 -414h346z" />
    <glyph glyph-name="Ecircumflex" unicode="&#xca;" horiz-adv-x="751" 
d="M838 1481h-105l-74 200l-151 -200h-115l197 295h178zM565 0h-559l301 1366h559l-41 -188h-346l-86 -387h332l-43 -189h-330l-92 -414h346z" />
    <glyph glyph-name="Edieresis" unicode="&#xcb;" horiz-adv-x="751" 
d="M903 1595q0 -47 -38 -83.5t-87 -36.5q-42 0 -70 28t-28 70q0 47 38 84t87 37q41 0 69.5 -28t28.5 -71zM590 1595q0 -47 -38 -83.5t-87 -36.5q-42 0 -70 28t-28 70q0 47 38 84t87 37q42 0 70 -28t28 -71zM565 0h-559l301 1366h559l-41 -188h-346l-86 -387h332l-43 -189
h-330l-92 -414h346z" />
    <glyph glyph-name="Igrave" unicode="&#xcc;" horiz-adv-x="446" 
d="M219 0h-213l301 1366h213zM520 1481h-125l-145 295h174z" />
    <glyph glyph-name="Iacute" unicode="&#xcd;" horiz-adv-x="446" 
d="M219 0h-213l301 1366h213zM756 1776l-277 -295h-129l228 295h178z" />
    <glyph glyph-name="Icircumflex" unicode="&#xce;" horiz-adv-x="446" 
d="M664 1481h-105l-74 200l-151 -200h-115l197 295h178zM219 0h-213l301 1366h213z" />
    <glyph glyph-name="Idieresis" unicode="&#xcf;" horiz-adv-x="446" 
d="M729 1595q0 -47 -38 -83.5t-87 -36.5q-42 0 -70 28t-28 70q0 47 38 84t87 37q41 0 69.5 -28t28.5 -71zM416 1595q0 -47 -38 -83.5t-87 -36.5q-42 0 -70 28t-28 70q0 47 37.5 84t86.5 37q42 0 70.5 -28.5t28.5 -70.5zM219 0h-213l301 1366h213z" />
    <glyph glyph-name="Eth" unicode="&#xd0;" horiz-adv-x="974" 
d="M356 0h-307l131 596h-123l39 174h123l131 596h299q63 0 119 -26t102.5 -77t73.5 -135.5t27 -191.5q0 -58 -8.5 -130.5t-29 -163.5t-51.5 -179t-80.5 -172.5t-111 -148.5t-148 -103t-186.5 -39zM549 596h-156l-90 -408h90q75 0 138.5 62t102.5 152.5t67 197.5t39.5 192.5
t11.5 141.5q0 123 -41 183.5t-103 60.5h-86l-90 -408h156z" />
    <glyph glyph-name="Ntilde" unicode="&#xd1;" horiz-adv-x="948" 
d="M797 1477q-35 0 -58.5 17.5t-34 42.5t-18.5 50t-20 42.5t-31 17.5q-48 0 -84 -158h-105q61 274 203 274q36 0 59.5 -17.5t34.5 -42.5t19 -50t20 -42.5t31 -17.5q48 0 84 158h104q-27 -125 -77.5 -199.5t-126.5 -74.5zM723 0h-203l-117 838l-184 -838h-213l301 1366h213
l109 -811l180 811h215z" />
    <glyph glyph-name="Ograve" unicode="&#xd2;" horiz-adv-x="940" 
d="M768 1481h-125l-145 295h174zM391 -25q-82 0 -144.5 32t-100.5 89.5t-57 131t-19 161.5q0 98 19 221.5t63.5 262t106.5 252.5t158.5 189t209.5 75q82 0 144.5 -32.5t100.5 -90.5t57 -132.5t19 -162.5q0 -67 -10 -150.5t-31.5 -179.5t-52.5 -189.5t-77.5 -180t-101.5 -152
t-128.5 -105t-155.5 -39.5zM403 166q71 0 135.5 93.5t104.5 226.5t63 266t23 225q0 221 -117 221q-72 0 -136 -93.5t-103 -227.5t-61.5 -267.5t-22.5 -226.5q0 -217 114 -217z" />
    <glyph glyph-name="Oacute" unicode="&#xd3;" horiz-adv-x="940" 
d="M1006 1776l-277 -295h-129l227 295h179zM391 -25q-82 0 -144.5 32t-100.5 89.5t-57 131t-19 161.5q0 98 19 221.5t63.5 262t106.5 252.5t158.5 189t209.5 75q82 0 144.5 -32.5t100.5 -90.5t57 -132.5t19 -162.5q0 -67 -10 -150.5t-31.5 -179.5t-52.5 -189.5t-77.5 -180
t-101.5 -152t-128.5 -105t-155.5 -39.5zM403 166q71 0 135.5 93.5t104.5 226.5t63 266t23 225q0 221 -117 221q-72 0 -136 -93.5t-103 -227.5t-61.5 -267.5t-22.5 -226.5q0 -217 114 -217z" />
    <glyph glyph-name="Ocircumflex" unicode="&#xd4;" horiz-adv-x="940" 
d="M909 1481h-104l-74 200l-151 -200h-115l197 295h178zM391 -25q-82 0 -144.5 32t-100.5 89.5t-57 131t-19 161.5q0 98 19 221.5t63.5 262t106.5 252.5t158.5 189t209.5 75q82 0 144.5 -32.5t100.5 -90.5t57 -132.5t19 -162.5q0 -67 -10 -150.5t-31.5 -179.5t-52.5 -189.5
t-77.5 -180t-101.5 -152t-128.5 -105t-155.5 -39.5zM403 166q71 0 135.5 93.5t104.5 226.5t63 266t23 225q0 221 -117 221q-72 0 -136 -93.5t-103 -227.5t-61.5 -267.5t-22.5 -226.5q0 -217 114 -217z" />
    <glyph glyph-name="Otilde" unicode="&#xd5;" horiz-adv-x="940" 
d="M391 -25q-82 0 -144.5 32t-100.5 89.5t-57 131t-19 161.5q0 98 19 221.5t63.5 262t106.5 252.5t158.5 189t209.5 75q82 0 144.5 -32.5t100.5 -90.5t57 -132.5t19 -162.5q0 -67 -10 -150.5t-31.5 -179.5t-52.5 -189.5t-77.5 -180t-101.5 -152t-128.5 -105t-155.5 -39.5z
M403 166q71 0 135.5 93.5t104.5 226.5t63 266t23 225q0 221 -117 221q-72 0 -136 -93.5t-103 -227.5t-61.5 -267.5t-22.5 -226.5q0 -217 114 -217zM791 1477q-35 0 -58.5 17.5t-34 42.5t-18.5 50t-20 42.5t-31 17.5q-48 0 -84 -158h-105q61 274 203 274q36 0 59.5 -17.5
t34.5 -42.5t19 -50t20 -42.5t31 -17.5q48 0 84 158h104q-27 -125 -77.5 -199.5t-126.5 -74.5z" />
    <glyph glyph-name="Odieresis" unicode="&#xd6;" horiz-adv-x="940" 
d="M977 1595q0 -47 -38 -83.5t-87 -36.5q-42 0 -70 28t-28 70q0 47 38 84t87 37q41 0 69.5 -28t28.5 -71zM664 1595q0 -47 -38 -83.5t-87 -36.5q-42 0 -70.5 28t-28.5 70q0 47 38 84t87 37q42 0 70.5 -28.5t28.5 -70.5zM391 -25q-82 0 -144.5 32t-100.5 89.5t-57 131
t-19 161.5q0 98 19 221.5t63.5 262t106.5 252.5t158.5 189t209.5 75q82 0 144.5 -32.5t100.5 -90.5t57 -132.5t19 -162.5q0 -67 -10 -150.5t-31.5 -179.5t-52.5 -189.5t-77.5 -180t-101.5 -152t-128.5 -105t-155.5 -39.5zM403 166q71 0 135.5 93.5t104.5 226.5t63 266
t23 225q0 221 -117 221q-72 0 -136 -93.5t-103 -227.5t-61.5 -267.5t-22.5 -226.5q0 -217 114 -217z" />
    <glyph glyph-name="multiply" unicode="&#xd7;" horiz-adv-x="780" 
d="M580 387l-162 207l-262 -215l-78 98l264 215l-162 207l101 82l159 -207l265 215l77 -98l-262 -215l160 -207z" />
    <glyph glyph-name="Oslash" unicode="&#xd8;" horiz-adv-x="940" 
d="M391 -25q-143 0 -227 97l-47 -72h-131l118 176q-34 83 -34 213q0 98 19 221.5t63.5 262t106.5 252.5t158.5 189t209.5 75q139 0 227 -101l51 78h131l-123 -182q35 -96 35 -213q0 -67 -10 -150.5t-31.5 -179.5t-52.5 -189.5t-77.5 -180t-101.5 -152t-128.5 -105
t-155.5 -39.5zM612 1198q-66 0 -125 -78.5t-98.5 -197t-64.5 -241t-33 -228.5l428 634q-25 111 -107 111zM403 166q53 0 102 52t85.5 132.5t65.5 180.5t46 195t23 177l-426 -633q22 -104 104 -104z" />
    <glyph glyph-name="Ugrave" unicode="&#xd9;" horiz-adv-x="950" 
d="M403 -25q-140 0 -231.5 86t-91.5 232q0 44 10 92l217 981h213l-221 -999q-6 -42 -6 -66q0 -66 35 -101.5t92 -35.5q64 0 106 47.5t66 155.5l219 999h213l-217 -989q-46 -205 -150 -303.5t-254 -98.5zM770 1481h-125l-145 295h174z" />
    <glyph glyph-name="Uacute" unicode="&#xda;" horiz-adv-x="950" 
d="M1008 1776l-277 -295h-129l227 295h179zM403 -25q-140 0 -231.5 86t-91.5 232q0 44 10 92l217 981h213l-221 -999q-6 -42 -6 -66q0 -66 35 -101.5t92 -35.5q64 0 106 47.5t66 155.5l219 999h213l-217 -989q-46 -205 -150 -303.5t-254 -98.5z" />
    <glyph glyph-name="Ucircumflex" unicode="&#xdb;" horiz-adv-x="950" 
d="M913 1481h-104l-74 200l-151 -200h-115l197 295h178zM403 -25q-140 0 -231.5 86t-91.5 232q0 44 10 92l217 981h213l-221 -999q-6 -42 -6 -66q0 -66 35 -101.5t92 -35.5q64 0 106 47.5t66 155.5l219 999h213l-217 -989q-46 -205 -150 -303.5t-254 -98.5z" />
    <glyph glyph-name="Udieresis" unicode="&#xdc;" horiz-adv-x="950" 
d="M979 1595q0 -47 -38 -83.5t-87 -36.5q-42 0 -70 28t-28 70q0 47 38 84t87 37q41 0 69.5 -28t28.5 -71zM666 1595q0 -47 -38 -83.5t-87 -36.5q-42 0 -70.5 28t-28.5 70q0 47 38 84t87 37q42 0 70.5 -28.5t28.5 -70.5zM403 -25q-140 0 -231.5 86t-91.5 232q0 44 10 92
l217 981h213l-221 -999q-6 -42 -6 -66q0 -66 35 -101.5t92 -35.5q64 0 106 47.5t66 155.5l219 999h213l-217 -989q-46 -205 -150 -303.5t-254 -98.5z" />
    <glyph glyph-name="Yacute" unicode="&#xdd;" horiz-adv-x="829" 
d="M412 0h-213l125 571l-140 795h219l64 -584l324 584h235l-489 -795zM952 1776l-276 -295h-129l227 295h178z" />
    <glyph glyph-name="Thorn" unicode="&#xde;" horiz-adv-x="856" 
d="M219 0h-213l301 1366h213l-51 -236h88q134 0 217.5 -91.5t83.5 -237.5q0 -72 -16 -142.5t-52.5 -138t-89 -119t-131.5 -83t-174 -31.5h-112zM414 475q100 0 160.5 92t60.5 213q0 75 -33.5 118.5t-93.5 43.5h-82l-102 -467h90z" />
    <glyph glyph-name="germandbls" unicode="&#xdf;" horiz-adv-x="1001" 
d="M928 305q0 -81 -38 -155.5t-114 -124.5t-172 -50q-195 0 -293 138l103 125q68 -107 170 -107q54 0 94.5 41t40.5 104q0 37 -26 71.5t-63 64.5t-74 63.5t-63 84.5t-26 112q0 73 29.5 128t71.5 88t83.5 62t71 66.5t29.5 83.5q0 53 -38.5 85t-103.5 32q-141 0 -184 -189
l-227 -1028h-191l225 1028q36 164 138.5 261t255.5 97q137 0 230 -74.5t93 -191.5q0 -59 -21 -107t-53 -78t-69 -59t-69 -51t-53 -52.5t-21 -65.5q0 -32 19.5 -61t49 -51t63.5 -51t63.5 -59t49 -77t19.5 -103z" />
    <glyph glyph-name="agrave" unicode="&#xe0;" horiz-adv-x="831" 
d="M428 1014q68 0 117.5 -39t70.5 -119l31 133h191l-220 -989h-192l29 123q-91 -148 -209 -148q-101 0 -155 78.5t-54 227.5q0 79 15 173t47 193.5t76.5 181t110.5 133.5t142 52zM469 844q-56 0 -102.5 -61.5t-73.5 -151t-42 -177t-15 -151.5q0 -158 104 -158
q40 0 81.5 40.5t67.5 97.5l95 422q-6 60 -39 99.5t-76 39.5zM635 1139h-125l-145 295h174z" />
    <glyph glyph-name="aacute" unicode="&#xe1;" horiz-adv-x="831" 
d="M428 1014q68 0 117.5 -39t70.5 -119l31 133h191l-220 -989h-192l29 123q-91 -148 -209 -148q-101 0 -155 78.5t-54 227.5q0 79 15 173t47 193.5t76.5 181t110.5 133.5t142 52zM469 844q-56 0 -102.5 -61.5t-73.5 -151t-42 -177t-15 -151.5q0 -158 104 -158
q40 0 81.5 40.5t67.5 97.5l95 422q-6 60 -39 99.5t-76 39.5zM868 1434l-276 -295h-129l227 295h178z" />
    <glyph glyph-name="acircumflex" unicode="&#xe2;" horiz-adv-x="831" 
d="M428 1014q68 0 117.5 -39t70.5 -119l31 133h191l-220 -989h-192l29 123q-91 -148 -209 -148q-101 0 -155 78.5t-54 227.5q0 79 15 173t47 193.5t76.5 181t110.5 133.5t142 52zM469 844q-56 0 -102.5 -61.5t-73.5 -151t-42 -177t-15 -151.5q0 -158 104 -158
q40 0 81.5 40.5t67.5 97.5l95 422q-6 60 -39 99.5t-76 39.5zM774 1139h-104l-74 200l-152 -200h-114l196 295h179z" />
    <glyph glyph-name="atilde" unicode="&#xe3;" horiz-adv-x="831" 
d="M428 1014q68 0 117.5 -39t70.5 -119l31 133h191l-220 -989h-192l29 123q-91 -148 -209 -148q-101 0 -155 78.5t-54 227.5q0 79 15 173t47 193.5t76.5 181t110.5 133.5t142 52zM469 844q-56 0 -102.5 -61.5t-73.5 -151t-42 -177t-15 -151.5q0 -158 104 -158
q40 0 81.5 40.5t67.5 97.5l95 422q-6 60 -39 99.5t-76 39.5zM655 1135q-43 0 -68.5 26.5t-33.5 58.5t-22 58.5t-37 26.5q-48 0 -84 -158h-105q61 274 203 274q36 0 59.5 -17.5t34.5 -42.5t19 -50t20 -42.5t31 -17.5q48 0 84 158h104q-26 -125 -77.5 -199.5t-127.5 -74.5z
" />
    <glyph glyph-name="adieresis" unicode="&#xe4;" horiz-adv-x="831" 
d="M428 1014q68 0 117.5 -39t70.5 -119l31 133h191l-220 -989h-192l29 123q-91 -148 -209 -148q-101 0 -155 78.5t-54 227.5q0 79 15 173t47 193.5t76.5 181t110.5 133.5t142 52zM469 844q-56 0 -102.5 -61.5t-73.5 -151t-42 -177t-15 -151.5q0 -158 104 -158
q40 0 81.5 40.5t67.5 97.5l95 422q-6 60 -39 99.5t-76 39.5zM842 1253q0 -47 -38 -83.5t-87 -36.5q-42 0 -70.5 28t-28.5 70q0 47 38 84t87 37q42 0 70.5 -28.5t28.5 -70.5zM528 1253q0 -47 -38 -83.5t-87 -36.5q-42 0 -70 28t-28 70q0 47 38 84t87 37q42 0 70 -28t28 -71z
" />
    <glyph glyph-name="aring" unicode="&#xe5;" horiz-adv-x="831" 
d="M428 1014q68 0 117.5 -39t70.5 -119l31 133h191l-220 -989h-192l29 123q-91 -148 -209 -148q-101 0 -155 78.5t-54 227.5q0 79 15 173t47 193.5t76.5 181t110.5 133.5t142 52zM469 844q-56 0 -102.5 -61.5t-73.5 -151t-42 -177t-15 -151.5q0 -158 104 -158
q40 0 81.5 40.5t67.5 97.5l95 422q-6 60 -39 99.5t-76 39.5zM563 1092q-70 0 -113.5 45t-43.5 116q0 78 59 137.5t137 59.5q69 0 113.5 -45.5t44.5 -116.5q0 -78 -59.5 -137t-137.5 -59zM571 1182q40 0 70.5 29.5t30.5 68.5q0 34 -22 57t-54 23q-40 0 -70 -29t-30 -69
q0 -34 21 -57t54 -23z" />
    <glyph glyph-name="ae" unicode="&#xe6;" horiz-adv-x="1282" 
d="M469 844q-56 0 -102.5 -61.5t-73.5 -151t-42 -177t-15 -151.5q0 -158 104 -158q40 0 81.5 40.5t67.5 97.5l95 422q-6 60 -39 99.5t-76 39.5zM659 178l-41 -178h-192l29 123q-91 -148 -209 -148q-101 0 -155 78.5t-54 227.5q0 79 15 173t47 193.5t76.5 181t110.5 133.5
t142 52q68 0 117.5 -39t70.5 -119l31 133h191l-27 -121q40 62 96.5 104t120.5 42q108 -2 163.5 -75.5t55.5 -233.5q0 -121 -39 -273h-491q-10 -49 -10 -108q0 -82 42.5 -135.5t127.5 -53.5t172 98l71 -133q-110 -125 -239 -125q-192 0 -222 203zM745 569h310q16 69 16 123
q0 73 -29.5 118.5t-85.5 45.5q-44 0 -81.5 -28t-63 -72.5t-42 -91.5t-24.5 -95z" />
    <glyph glyph-name="ccedilla" unicode="&#xe7;" horiz-adv-x="681" 
d="M246 -395q-111 0 -180 78l57 79q49 -65 125 -65q40 0 66 27t26 63q0 49 -47 49q-30 0 -53 -26l-68 43l80 135q-99 27 -154 114t-55 230q0 88 18.5 181.5t57 183t91 160t127 114t159.5 43.5q73 0 134 -27.5t97 -73.5l-96 -143q-42 74 -123 74q-61 0 -113.5 -51.5
t-84.5 -129t-50 -161.5t-18 -156q0 -102 39 -151.5t108 -49.5q66 0 123 60l39 -152q-87 -78 -203 -78l-53 -86q21 21 49 21q45 0 73.5 -32.5t28.5 -84.5q0 -80 -57.5 -134t-142.5 -54z" />
    <glyph glyph-name="egrave" unicode="&#xe8;" horiz-adv-x="800" 
d="M356 -25q-149 0 -232 93t-83 266q0 71 16 156.5t51.5 179t85 169.5t125.5 125.5t164 49.5q139 0 211 -82.5t72 -241.5q0 -97 -39 -258h-494q-12 -47 -12 -108q0 -82 40.5 -136.5t127.5 -54.5q44 0 90.5 26.5t83.5 69.5l74 -118q-58 -65 -131.5 -100.5t-149.5 -35.5z
M260 569h313q17 70 17 123q0 72 -32 118t-89 46q-44 0 -81.5 -27.5t-62.5 -72.5t-41 -92t-24 -95zM643 1139h-125l-145 295h174z" />
    <glyph glyph-name="eacute" unicode="&#xe9;" horiz-adv-x="800" 
d="M881 1434l-277 -295h-129l227 295h179zM356 -25q-149 0 -232 93t-83 266q0 71 16 156.5t51.5 179t85 169.5t125.5 125.5t164 49.5q139 0 211 -82.5t72 -241.5q0 -97 -39 -258h-494q-12 -47 -12 -108q0 -82 40.5 -136.5t127.5 -54.5q44 0 90.5 26.5t83.5 69.5l74 -118
q-58 -65 -131.5 -100.5t-149.5 -35.5zM260 569h313q17 70 17 123q0 72 -32 118t-89 46q-44 0 -81.5 -27.5t-62.5 -72.5t-41 -92t-24 -95z" />
    <glyph glyph-name="ecircumflex" unicode="&#xea;" horiz-adv-x="800" 
d="M784 1139h-104l-74 200l-151 -200h-115l197 295h178zM356 -25q-149 0 -232 93t-83 266q0 71 16 156.5t51.5 179t85 169.5t125.5 125.5t164 49.5q139 0 211 -82.5t72 -241.5q0 -97 -39 -258h-494q-12 -47 -12 -108q0 -82 40.5 -136.5t127.5 -54.5q44 0 90.5 26.5
t83.5 69.5l74 -118q-58 -65 -131.5 -100.5t-149.5 -35.5zM260 569h313q17 70 17 123q0 72 -32 118t-89 46q-44 0 -81.5 -27.5t-62.5 -72.5t-41 -92t-24 -95z" />
    <glyph glyph-name="edieresis" unicode="&#xeb;" horiz-adv-x="800" 
d="M852 1253q0 -47 -38 -83.5t-87 -36.5q-42 0 -70 28t-28 70q0 47 38 84t87 37q42 0 70 -28t28 -71zM539 1253q0 -47 -38 -83.5t-87 -36.5q-42 0 -70.5 28t-28.5 70q0 47 38 84t87 37q42 0 70.5 -28.5t28.5 -70.5zM356 -25q-149 0 -232 93t-83 266q0 71 16 156.5t51.5 179
t85 169.5t125.5 125.5t164 49.5q139 0 211 -82.5t72 -241.5q0 -97 -39 -258h-494q-12 -47 -12 -108q0 -82 40.5 -136.5t127.5 -54.5q44 0 90.5 26.5t83.5 69.5l74 -118q-58 -65 -131.5 -100.5t-149.5 -35.5zM260 569h313q17 70 17 123q0 72 -32 118t-89 46
q-44 0 -81.5 -27.5t-62.5 -72.5t-41 -92t-24 -95z" />
    <glyph glyph-name="igrave" unicode="&#xec;" horiz-adv-x="397" 
d="M184 0h-192l219 989h192zM422 1139h-125l-145 295h174z" />
    <glyph glyph-name="iacute" unicode="&#xed;" horiz-adv-x="397" 
d="M655 1434l-276 -295h-129l227 295h178zM184 0h-192l219 989h192z" />
    <glyph glyph-name="icircumflex" unicode="&#xee;" horiz-adv-x="397" 
d="M565 1139h-104l-74 200l-151 -200h-115l196 295h179zM184 0h-192l219 989h192z" />
    <glyph glyph-name="idieresis" unicode="&#xef;" horiz-adv-x="397" 
d="M631 1253q0 -47 -38 -83.5t-87 -36.5q-42 0 -70 28t-28 70q0 47 37.5 84t86.5 37q42 0 70.5 -28.5t28.5 -70.5zM317 1253q0 -47 -37.5 -83.5t-86.5 -36.5q-42 0 -70.5 28t-28.5 70q0 47 38 84t87 37q41 0 69.5 -28t28.5 -71zM184 0h-192l219 989h192z" />
    <glyph glyph-name="eth" unicode="&#xf0;" 
d="M381 1038l-23 99l215 63q-19 102 -45 166l191 59q29 -88 47 -168l143 43l23 -96l-146 -45q21 -129 21 -291q0 -111 -15 -228t-51 -237.5t-88 -214.5t-132.5 -153.5t-178.5 -59.5q-152 0 -227.5 89.5t-75.5 252.5q0 100 27.5 211t76 210t126 164t167.5 65q71 0 118.5 -42
t61.5 -114q-3 141 -24 291zM346 145q52 0 97.5 54t73 133t43 159.5t15.5 141.5q0 41 -9.5 76t-36 61.5t-66.5 26.5q-53 0 -98.5 -55t-72 -134t-41.5 -157.5t-15 -135.5q0 -92 28 -131t82 -39z" />
    <glyph glyph-name="ntilde" unicode="&#xf1;" 
d="M610 0h-192l162 727q6 30 6 45q0 72 -70 72q-47 0 -95 -43t-85 -105l-152 -696h-192l219 989h192l-28 -127q48 67 111.5 109.5t134.5 42.5q79 0 125.5 -43t46.5 -117q0 -34 -9 -61zM659 1135q-43 0 -68.5 26.5t-33.5 58.5t-22 58.5t-37 26.5q-48 0 -84 -158h-105
q61 274 203 274q36 0 59.5 -17.5t34.5 -42.5t19 -50t20 -42.5t31 -17.5q48 0 84 158h104q-26 -125 -77.5 -199.5t-127.5 -74.5z" />
    <glyph glyph-name="ograve" unicode="&#xf2;" 
d="M334 -25q-140 0 -216.5 89t-76.5 255q0 87 18 181.5t55 186.5t88.5 164.5t125 117.5t157.5 45q141 0 217 -88.5t76 -255.5q0 -87 -18 -181.5t-55 -186.5t-88.5 -164.5t-125 -117.5t-157.5 -45zM346 145q54 0 101.5 59.5t76 145.5t44.5 172.5t16 149.5q0 172 -109 172
q-55 0 -102.5 -59.5t-76 -146t-44.5 -173.5t-16 -150q0 -92 28 -131t82 -39zM637 1139h-125l-145 295h174z" />
    <glyph glyph-name="oacute" unicode="&#xf3;" 
d="M872 1434l-276 -295h-129l227 295h178zM334 -25q-140 0 -216.5 89t-76.5 255q0 87 18 181.5t55 186.5t88.5 164.5t125 117.5t157.5 45q141 0 217 -88.5t76 -255.5q0 -87 -18 -181.5t-55 -186.5t-88.5 -164.5t-125 -117.5t-157.5 -45zM346 145q54 0 101.5 59.5t76 145.5
t44.5 172.5t16 149.5q0 172 -109 172q-55 0 -102.5 -59.5t-76 -146t-44.5 -173.5t-16 -150q0 -92 28 -131t82 -39z" />
    <glyph glyph-name="ocircumflex" unicode="&#xf4;" 
d="M778 1139h-104l-74 200l-151 -200h-115l196 295h179zM334 -25q-140 0 -216.5 89t-76.5 255q0 87 18 181.5t55 186.5t88.5 164.5t125 117.5t157.5 45q141 0 217 -88.5t76 -255.5q0 -87 -18 -181.5t-55 -186.5t-88.5 -164.5t-125 -117.5t-157.5 -45zM346 145
q54 0 101.5 59.5t76 145.5t44.5 172.5t16 149.5q0 172 -109 172q-55 0 -102.5 -59.5t-76 -146t-44.5 -173.5t-16 -150q0 -92 28 -131t82 -39z" />
    <glyph glyph-name="otilde" unicode="&#xf5;" 
d="M334 -25q-140 0 -216.5 89t-76.5 255q0 87 18 181.5t55 186.5t88.5 164.5t125 117.5t157.5 45q141 0 217 -88.5t76 -255.5q0 -87 -18 -181.5t-55 -186.5t-88.5 -164.5t-125 -117.5t-157.5 -45zM346 145q54 0 101.5 59.5t76 145.5t44.5 172.5t16 149.5q0 172 -109 172
q-55 0 -102.5 -59.5t-76 -146t-44.5 -173.5t-16 -150q0 -92 28 -131t82 -39zM659 1135q-43 0 -68.5 26.5t-33.5 58.5t-22 58.5t-37 26.5q-48 0 -84 -158h-105q61 274 203 274q36 0 59.5 -17.5t34.5 -42.5t19 -50t20 -42.5t31 -17.5q48 0 84 158h104q-26 -125 -77.5 -199.5
t-127.5 -74.5z" />
    <glyph glyph-name="odieresis" unicode="&#xf6;" 
d="M846 1253q0 -47 -38 -83.5t-87 -36.5q-42 0 -70 28t-28 70q0 47 38 84t87 37q42 0 70 -28t28 -71zM532 1253q0 -47 -37.5 -83.5t-86.5 -36.5q-42 0 -70.5 28t-28.5 70q0 47 38 84t87 37q42 0 70 -28t28 -71zM334 -25q-140 0 -216.5 89t-76.5 255q0 87 18 181.5t55 186.5
t88.5 164.5t125 117.5t157.5 45q141 0 217 -88.5t76 -255.5q0 -87 -18 -181.5t-55 -186.5t-88.5 -164.5t-125 -117.5t-157.5 -45zM346 145q54 0 101.5 59.5t76 145.5t44.5 172.5t16 149.5q0 172 -109 172q-55 0 -102.5 -59.5t-76 -146t-44.5 -173.5t-16 -150q0 -92 28 -131
t82 -39z" />
    <glyph glyph-name="divide" unicode="&#xf7;" horiz-adv-x="765" 
d="M735 627h-647l27 127h647zM350 289q-40 0 -68 27t-28 67q0 47 34.5 81t80.5 34q39 0 67.5 -29t28.5 -68q0 -47 -34.5 -79.5t-80.5 -32.5zM481 879q-40 0 -67 28t-27 68q0 46 34 79t81 33q40 0 67 -28t27 -68q0 -47 -34.5 -79.5t-80.5 -32.5z" />
    <glyph glyph-name="oslash" unicode="&#xf8;" 
d="M86 0h-119l105 135q-31 79 -31 184q0 87 18 181.5t55 186.5t88.5 164.5t125 117.5t157.5 45q132 0 207 -78l43 53h119l-109 -139q33 -81 33 -180q0 -87 -18 -181.5t-55 -186.5t-88.5 -164.5t-125 -117.5t-157.5 -45q-132 0 -207 78zM475 844q-52 0 -97.5 -53t-74 -132.5
t-46 -161.5t-21.5 -151l333 428q-25 70 -94 70zM346 145q51 0 95.5 52.5t73.5 131.5t46.5 160.5t20.5 149.5l-332 -428q24 -66 96 -66z" />
    <glyph glyph-name="ugrave" unicode="&#xf9;" 
d="M211 989h192l-161 -727q-6 -27 -6 -45q0 -72 69 -72q47 0 93.5 40.5t82.5 101.5l156 702h192l-219 -989h-192l28 127q-49 -67 -112 -109.5t-133 -42.5q-79 0 -125.5 43t-46.5 117q0 38 8 62zM639 1139h-125l-145 295h174z" />
    <glyph glyph-name="uacute" unicode="&#xfa;" 
d="M872 1434l-276 -295h-129l227 295h178zM211 989h192l-161 -727q-6 -27 -6 -45q0 -72 69 -72q47 0 93.5 40.5t82.5 101.5l156 702h192l-219 -989h-192l28 127q-49 -67 -112 -109.5t-133 -42.5q-79 0 -125.5 43t-46.5 117q0 38 8 62z" />
    <glyph glyph-name="ucircumflex" unicode="&#xfb;" 
d="M778 1139h-104l-74 200l-151 -200h-115l196 295h179zM211 989h192l-161 -727q-6 -27 -6 -45q0 -72 69 -72q47 0 93.5 40.5t82.5 101.5l156 702h192l-219 -989h-192l28 127q-49 -67 -112 -109.5t-133 -42.5q-79 0 -125.5 43t-46.5 117q0 38 8 62z" />
    <glyph glyph-name="udieresis" unicode="&#xfc;" 
d="M846 1253q0 -47 -38 -83.5t-87 -36.5q-42 0 -70 28t-28 70q0 47 38 84t87 37q42 0 70 -28t28 -71zM532 1253q0 -47 -37.5 -83.5t-86.5 -36.5q-42 0 -70.5 28t-28.5 70q0 47 38 84t87 37q42 0 70 -28t28 -71zM211 989h192l-161 -727q-6 -27 -6 -45q0 -72 69 -72
q47 0 93.5 40.5t82.5 101.5l156 702h192l-219 -989h-192l28 127q-49 -67 -112 -109.5t-133 -42.5q-79 0 -125.5 43t-46.5 117q0 38 8 62z" />
    <glyph glyph-name="yacute" unicode="&#xfd;" horiz-adv-x="731" 
d="M-117 -379l64 160q12 -12 47 -12q28 0 47.5 18t42.5 61l63 132l-28 1009h198l-16 -745l320 745h208l-565 -1182q-59 -119 -117 -163.5t-139 -44.5q-70 0 -125 22zM817 1434l-276 -295h-129l227 295h178z" />
    <glyph glyph-name="thorn" unicode="&#xfe;" horiz-adv-x="831" 
d="M401 -25q-144 0 -188 158l-113 -510h-190l383 1743h192l-110 -500q91 148 209 148q102 0 155.5 -78t53.5 -227q0 -79 -15 -173t-47 -194t-76.5 -181.5t-111 -133.5t-142.5 -52zM362 145q55 0 101.5 62t73.5 151t42 177t15 151q0 158 -105 158q-40 0 -81.5 -40t-67.5 -97
l-94 -422q6 -60 39 -100t77 -40z" />
    <glyph glyph-name="ydieresis" unicode="&#xff;" horiz-adv-x="731" 
d="M-117 -379l64 160q12 -12 47 -12q28 0 47.5 18t42.5 61l63 132l-28 1009h198l-16 -745l320 745h208l-565 -1182q-59 -119 -117 -163.5t-139 -44.5q-70 0 -125 22zM793 1253q0 -47 -38 -83.5t-87 -36.5q-42 0 -70.5 28t-28.5 70q0 47 38 84t87 37q42 0 70.5 -28.5
t28.5 -70.5zM479 1253q0 -47 -38 -83.5t-87 -36.5q-42 0 -70 28t-28 70q0 47 38 84t87 37q41 0 69.5 -28t28.5 -71z" />
    <glyph glyph-name="Amacron" unicode="&#x100;" horiz-adv-x="815" 
d="M698 0h-213l15 279h-273l-106 -279h-225l579 1366h246zM514 467l35 655l-254 -655h219zM891 1505h-518l24 117h518z" />
    <glyph glyph-name="amacron" unicode="&#x101;" horiz-adv-x="831" 
d="M428 1014q68 0 117.5 -39t70.5 -119l31 133h191l-220 -989h-192l29 123q-91 -148 -209 -148q-101 0 -155 78.5t-54 227.5q0 79 15 173t47 193.5t76.5 181t110.5 133.5t142 52zM469 844q-56 0 -102.5 -61.5t-73.5 -151t-42 -177t-15 -151.5q0 -158 104 -158
q40 0 81.5 40.5t67.5 97.5l95 422q-6 60 -39 99.5t-76 39.5zM817 1163h-518l25 117h518z" />
    <glyph glyph-name="Abreve" unicode="&#x102;" horiz-adv-x="815" 
d="M698 0h-213l15 279h-273l-106 -279h-225l579 1366h246zM514 467l35 655l-254 -655h219zM893 1591q-56 -59 -129 -93t-148 -34t-133.5 34t-89.5 93l103 72q17 -38 55.5 -60t83.5 -22q46 0 93 22t79 60z" />
    <glyph glyph-name="abreve" unicode="&#x103;" horiz-adv-x="831" 
d="M428 1014q68 0 117.5 -39t70.5 -119l31 133h191l-220 -989h-192l29 123q-91 -148 -209 -148q-101 0 -155 78.5t-54 227.5q0 79 15 173t47 193.5t76.5 181t110.5 133.5t142 52zM469 844q-56 0 -102.5 -61.5t-73.5 -151t-42 -177t-15 -151.5q0 -158 104 -158
q40 0 81.5 40.5t67.5 97.5l95 422q-6 60 -39 99.5t-76 39.5zM819 1249q-56 -59 -128.5 -93t-147.5 -34q-76 0 -134.5 34t-89.5 93l103 72q17 -38 55.5 -60t83.5 -22q46 0 93 22t79 60z" />
    <glyph glyph-name="Aogonek" unicode="&#x104;" horiz-adv-x="815" 
d="M635 -229l76 -54q-58 -98 -154 -98q-64 0 -101.5 32t-37.5 95q0 139 141 254h-74l15 279h-273l-106 -279h-225l579 1366h246l-23 -1366q-178 -112 -178 -244q0 -22 12.5 -34.5t34.5 -12.5t40.5 17.5t27.5 44.5zM514 467l35 655l-254 -655h219z" />
    <glyph glyph-name="aogonek" unicode="&#x105;" horiz-adv-x="831" 
d="M555 -229l76 -54q-58 -98 -154 -98q-64 0 -101.5 32t-37.5 95q0 139 141 254h-53l29 123q-91 -148 -209 -148q-101 0 -155 78.5t-54 227.5q0 79 15 173t47 193.5t76.5 181t110.5 133.5t142 52q68 0 117.5 -39t70.5 -119l31 133h191l-220 -989q-178 -112 -178 -244
q0 -22 12.5 -34.5t34.5 -12.5t40.5 17.5t27.5 44.5zM469 844q-56 0 -102.5 -61.5t-73.5 -151t-42 -177t-15 -151.5q0 -158 104 -158q40 0 81.5 40.5t67.5 97.5l95 422q-6 60 -39 99.5t-76 39.5z" />
    <glyph glyph-name="Cacute" unicode="&#x106;" horiz-adv-x="843" 
d="M1004 1786l-277 -295h-129l227 295h179zM391 -25q-154 0 -237.5 107.5t-83.5 306.5q0 69 9.5 153t31 180.5t52.5 190t77 180t101 152t129 105t157 39.5q77 0 136 -30t93 -82t52 -113.5t22 -133.5l-199 -39q-13 207 -119 207q-73 0 -137.5 -96t-103 -232t-60.5 -268
t-22 -219q0 -115 28 -166t86 -51q49 0 93 42.5t88 127.5l170 -74q-140 -287 -363 -287z" />
    <glyph glyph-name="cacute" unicode="&#x107;" horiz-adv-x="681" 
d="M887 1434l-277 -295h-129l228 295h178zM348 -25q-143 0 -224 91t-81 266q0 88 18.5 181.5t57 183t91 160t127 114t159.5 43.5q73 0 134 -27.5t97 -73.5l-96 -143q-42 74 -123 74q-61 0 -113.5 -51.5t-84.5 -129t-50 -161.5t-18 -156q0 -102 39 -151.5t108 -49.5
q66 0 123 60l39 -152q-87 -78 -203 -78z" />
    <glyph glyph-name="Ccircumflex" unicode="&#x108;" horiz-adv-x="843" 
d="M909 1481h-104l-74 200l-151 -200h-115l197 295h178zM391 -25q-154 0 -237.5 107.5t-83.5 306.5q0 69 9.5 153t31 180.5t52.5 190t77 180t101 152t129 105t157 39.5q77 0 136 -30t93 -82t52 -113.5t22 -133.5l-199 -39q-13 207 -119 207q-73 0 -137.5 -96t-103 -232
t-60.5 -268t-22 -219q0 -115 28 -166t86 -51q49 0 93 42.5t88 127.5l170 -74q-140 -287 -363 -287z" />
    <glyph glyph-name="ccircumflex" unicode="&#x109;" horiz-adv-x="681" 
d="M793 1139h-105l-74 200l-151 -200h-115l197 295h178zM348 -25q-143 0 -224 91t-81 266q0 88 18.5 181.5t57 183t91 160t127 114t159.5 43.5q73 0 134 -27.5t97 -73.5l-96 -143q-42 74 -123 74q-61 0 -113.5 -51.5t-84.5 -129t-50 -161.5t-18 -156q0 -102 39 -151.5
t108 -49.5q66 0 123 60l39 -152q-87 -78 -203 -78z" />
    <glyph glyph-name="Cdotaccent" unicode="&#x10a;" horiz-adv-x="843" 
d="M391 -25q-154 0 -237.5 107.5t-83.5 306.5q0 69 9.5 153t31 180.5t52.5 190t77 180t101 152t129 105t157 39.5q77 0 136 -30t93 -82t52 -113.5t22 -133.5l-199 -39q-13 207 -119 207q-73 0 -137.5 -96t-103 -232t-60.5 -268t-22 -219q0 -115 28 -166t86 -51q49 0 93 42.5
t88 127.5l170 -74q-140 -287 -363 -287zM819 1595q0 -51 -37.5 -88t-87.5 -37q-43 0 -71.5 29t-28.5 72q0 49 38 86t89 37q42 0 70 -28.5t28 -70.5z" />
    <glyph glyph-name="cdotaccent" unicode="&#x10b;" horiz-adv-x="681" 
d="M348 -25q-143 0 -224 91t-81 266q0 88 18.5 181.5t57 183t91 160t127 114t159.5 43.5q73 0 134 -27.5t97 -73.5l-96 -143q-42 74 -123 74q-61 0 -113.5 -51.5t-84.5 -129t-50 -161.5t-18 -156q0 -102 39 -151.5t108 -49.5q66 0 123 60l39 -152q-87 -78 -203 -78z
M705 1253q0 -51 -37.5 -88t-87.5 -37q-43 0 -72 29t-29 72q0 49 38 86t89 37q42 0 70.5 -28.5t28.5 -70.5z" />
    <glyph glyph-name="Ccaron" unicode="&#x10c;" horiz-adv-x="843" 
d="M782 1481h-178l-72 295h107l70 -201l155 201h113zM391 -25q-154 0 -237.5 107.5t-83.5 306.5q0 69 9.5 153t31 180.5t52.5 190t77 180t101 152t129 105t157 39.5q77 0 136 -30t93 -82t52 -113.5t22 -133.5l-199 -39q-13 207 -119 207q-73 0 -137.5 -96t-103 -232
t-60.5 -268t-22 -219q0 -115 28 -166t86 -51q49 0 93 42.5t88 127.5l170 -74q-140 -287 -363 -287z" />
    <glyph glyph-name="ccaron" unicode="&#x10d;" horiz-adv-x="681" 
d="M659 1139h-178l-71 295h106l70 -201l155 201h113zM348 -25q-143 0 -224 91t-81 266q0 88 18.5 181.5t57 183t91 160t127 114t159.5 43.5q73 0 134 -27.5t97 -73.5l-96 -143q-42 74 -123 74q-61 0 -113.5 -51.5t-84.5 -129t-50 -161.5t-18 -156q0 -102 39 -151.5
t108 -49.5q66 0 123 60l39 -152q-87 -78 -203 -78z" />
    <glyph glyph-name="Dcaron" unicode="&#x10e;" horiz-adv-x="931" 
d="M793 1481h-179l-71 295h106l70 -201l155 201h113zM313 0h-307l301 1366h299q63 0 119 -26t102.5 -77t73.5 -135.5t27 -191.5q0 -58 -8.5 -130.5t-29 -163.5t-51.5 -179t-80.5 -172.5t-111 -148.5t-148 -103t-186.5 -39zM260 188h90q75 0 138.5 62t102.5 152.5t67 197.5
t39.5 192.5t11.5 141.5q0 123 -41 183.5t-103 60.5h-86z" />
    <glyph glyph-name="dcaron" unicode="&#x10f;" horiz-adv-x="1036" 
d="M1210 1278q0 -87 -64 -174.5t-157 -134.5l-59 65q52 26 96 68t61 86q-2 -2 -16 -2q-33 0 -57.5 24.5t-24.5 63.5q0 47 36 82t81 35t74.5 -30t29.5 -83zM428 1014q68 0 117.5 -39t70.5 -119l113 510h193l-304 -1366h-192l29 123q-91 -148 -209 -148q-101 0 -155 78.5
t-54 227.5q0 79 15 173t47 193.5t76.5 181t110.5 133.5t142 52zM469 844q-56 0 -102.5 -61.5t-73.5 -151t-42 -177t-15 -151.5q0 -158 104 -158q40 0 81.5 40.5t67.5 97.5l95 422q-6 60 -39 99.5t-76 39.5z" />
    <glyph glyph-name="Dcroat" unicode="&#x110;" horiz-adv-x="974" 
d="M356 0h-307l131 596h-123l39 174h123l131 596h299q63 0 119 -26t102.5 -77t73.5 -135.5t27 -191.5q0 -58 -8.5 -130.5t-29 -163.5t-51.5 -179t-80.5 -172.5t-111 -148.5t-148 -103t-186.5 -39zM549 596h-156l-90 -408h90q75 0 138.5 62t102.5 152.5t67 197.5t39.5 192.5
t11.5 141.5q0 123 -41 183.5t-103 60.5h-86l-90 -408h156z" />
    <glyph glyph-name="dcroat" unicode="&#x111;" horiz-adv-x="831" 
d="M428 1014q68 0 117.5 -39t70.5 -119l52 236h-244l25 116h245l35 158h193l-35 -158h80l-25 -116h-82l-242 -1092h-192l29 123q-91 -148 -209 -148q-101 0 -155 78.5t-54 227.5q0 79 15 173t47 193.5t76.5 181t110.5 133.5t142 52zM469 844q-56 0 -102.5 -61.5t-73.5 -151
t-42 -177t-15 -151.5q0 -158 104 -158q40 0 81.5 40.5t67.5 97.5l95 422q-6 60 -39 99.5t-76 39.5z" />
    <glyph glyph-name="Emacron" unicode="&#x112;" horiz-adv-x="751" 
d="M565 0h-559l301 1366h559l-41 -188h-346l-86 -387h332l-43 -189h-330l-92 -414h346zM877 1505h-519l25 117h518z" />
    <glyph glyph-name="emacron" unicode="&#x113;" horiz-adv-x="800" 
d="M356 -25q-149 0 -232 93t-83 266q0 71 16 156.5t51.5 179t85 169.5t125.5 125.5t164 49.5q139 0 211 -82.5t72 -241.5q0 -97 -39 -258h-494q-12 -47 -12 -108q0 -82 40.5 -136.5t127.5 -54.5q44 0 90.5 26.5t83.5 69.5l74 -118q-58 -65 -131.5 -100.5t-149.5 -35.5z
M260 569h313q17 70 17 123q0 72 -32 118t-89 46q-44 0 -81.5 -27.5t-62.5 -72.5t-41 -92t-24 -95zM829 1163h-518l25 117h518z" />
    <glyph glyph-name="Ebreve" unicode="&#x114;" horiz-adv-x="751" 
d="M565 0h-559l301 1366h559l-41 -188h-346l-86 -387h332l-43 -189h-330l-92 -414h346zM879 1591q-56 -59 -129 -93t-148 -34t-133.5 34t-89.5 93l102 72q17 -38 56 -60t84 -22q46 0 93 22t79 60z" />
    <glyph glyph-name="ebreve" unicode="&#x115;" horiz-adv-x="800" 
d="M356 -25q-149 0 -232 93t-83 266q0 71 16 156.5t51.5 179t85 169.5t125.5 125.5t164 49.5q139 0 211 -82.5t72 -241.5q0 -97 -39 -258h-494q-12 -47 -12 -108q0 -82 40.5 -136.5t127.5 -54.5q44 0 90.5 26.5t83.5 69.5l74 -118q-58 -65 -131.5 -100.5t-149.5 -35.5z
M260 569h313q17 70 17 123q0 72 -32 118t-89 46q-44 0 -81.5 -27.5t-62.5 -72.5t-41 -92t-24 -95zM831 1249q-56 -59 -128.5 -93t-147.5 -34t-133.5 34t-89.5 93l102 72q17 -38 55.5 -60t83.5 -22q46 0 93 22t79 60z" />
    <glyph glyph-name="Edotaccent" unicode="&#x116;" horiz-adv-x="751" 
d="M565 0h-559l301 1366h559l-41 -188h-346l-86 -387h332l-43 -189h-330l-92 -414h346zM748 1602q0 -51 -37.5 -88t-87.5 -37q-43 0 -72 28.5t-29 71.5q0 49 38 86t89 37q43 0 71 -28t28 -70z" />
    <glyph glyph-name="edotaccent" unicode="&#x117;" horiz-adv-x="800" 
d="M356 -25q-149 0 -232 93t-83 266q0 71 16 156.5t51.5 179t85 169.5t125.5 125.5t164 49.5q139 0 211 -82.5t72 -241.5q0 -97 -39 -258h-494q-12 -47 -12 -108q0 -82 40.5 -136.5t127.5 -54.5q44 0 90.5 26.5t83.5 69.5l74 -118q-58 -65 -131.5 -100.5t-149.5 -35.5z
M260 569h313q17 70 17 123q0 72 -32 118t-89 46q-44 0 -81.5 -27.5t-62.5 -72.5t-41 -92t-24 -95zM696 1253q0 -51 -37.5 -88t-87.5 -37q-43 0 -71.5 29t-28.5 72q0 49 38 86t89 37q42 0 70 -28.5t28 -70.5z" />
    <glyph glyph-name="Eogonek" unicode="&#x118;" horiz-adv-x="751" 
d="M565 0q-178 -112 -178 -244q0 -22 12.5 -34.5t34.5 -12.5t40.5 17.5t27.5 44.5l76 -54q-58 -98 -154 -98q-64 0 -101.5 32t-37.5 95q0 139 141 254h-420l301 1366h559l-41 -188h-346l-86 -387h332l-43 -189h-330l-92 -414h346z" />
    <glyph glyph-name="eogonek" unicode="&#x119;" horiz-adv-x="800" 
d="M420 -229l76 -54q-58 -98 -154 -98q-64 0 -101.5 32t-37.5 95q0 124 114 231q-132 12 -204 103.5t-72 253.5q0 71 16 156.5t51.5 179t85 169.5t125.5 125.5t164 49.5q139 0 211 -82.5t72 -241.5q0 -97 -39 -258h-494q-12 -47 -12 -108q0 -82 40.5 -136.5t127.5 -54.5
q44 0 90.5 26.5t83.5 69.5l74 -118q-65 -74 -154 -111q-178 -112 -178 -244q0 -22 12.5 -34.5t34.5 -12.5t40.5 17.5t27.5 44.5zM260 569h313q17 70 17 123q0 72 -32 118t-89 46q-44 0 -81.5 -27.5t-62.5 -72.5t-41 -92t-24 -95z" />
    <glyph glyph-name="Ecaron" unicode="&#x11a;" horiz-adv-x="751" 
d="M705 1481h-179l-71 295h106l70 -201l155 201h113zM565 0h-559l301 1366h559l-41 -188h-346l-86 -387h332l-43 -189h-330l-92 -414h346z" />
    <glyph glyph-name="ecaron" unicode="&#x11b;" horiz-adv-x="800" 
d="M657 1139h-178l-71 295h106l70 -201l155 201h113zM356 -25q-149 0 -232 93t-83 266q0 71 16 156.5t51.5 179t85 169.5t125.5 125.5t164 49.5q139 0 211 -82.5t72 -241.5q0 -97 -39 -258h-494q-12 -47 -12 -108q0 -82 40.5 -136.5t127.5 -54.5q44 0 90.5 26.5t83.5 69.5
l74 -118q-58 -65 -131.5 -100.5t-149.5 -35.5zM260 569h313q17 70 17 123q0 72 -32 118t-89 46q-44 0 -81.5 -27.5t-62.5 -72.5t-41 -92t-24 -95z" />
    <glyph glyph-name="Gcircumflex" unicode="&#x11c;" horiz-adv-x="890" 
d="M911 1481h-104l-74 200l-151 -200h-115l197 295h178zM391 -25q-155 0 -238 107t-83 307q0 74 10.5 161.5t32.5 184.5t54 189.5t78.5 177t101.5 148.5t127.5 101.5t152.5 37.5q61 0 110.5 -18.5t82 -50t55 -75t33 -90.5t12.5 -100l-183 -43q-11 186 -125 186
q-72 0 -135.5 -92.5t-103 -225t-62 -267t-22.5 -230.5q0 -118 27 -167.5t87 -49.5q43 0 77.5 25.5t72.5 74.5l57 269h-166l43 188h357l-119 -533q-139 -215 -334 -215z" />
    <glyph glyph-name="gcircumflex" unicode="&#x11d;" horiz-adv-x="831" 
d="M760 1124h-105l-73 201l-152 -201h-115l197 295h178zM227 -401q-93 0 -172 30.5t-127 89.5l105 150q30 -45 80.5 -72.5t109.5 -27.5q76 0 125.5 54t75.5 171l39 156q-87 -148 -211 -148q-101 0 -157 74t-56 219q0 77 13.5 168t44.5 189.5t74.5 178.5t111 131.5
t147.5 51.5q60 0 117 -42.5t71 -115.5l29 133h191l-215 -971q-27 -119 -67 -202.5t-92 -130t-109 -66.5t-128 -20zM344 172q41 0 82.5 39.5t69.5 97.5l88 396q-8 56 -42 97.5t-77 41.5q-54 0 -99 -57t-72 -140.5t-41.5 -168t-14.5 -148.5q0 -85 26.5 -121.5t79.5 -36.5z" />
    <glyph glyph-name="Gbreve" unicode="&#x11e;" horiz-adv-x="890" 
d="M391 -25q-155 0 -238 107t-83 307q0 74 10.5 161.5t32.5 184.5t54 189.5t78.5 177t101.5 148.5t127.5 101.5t152.5 37.5q61 0 110.5 -18.5t82 -50t55 -75t33 -90.5t12.5 -100l-183 -43q-11 186 -125 186q-72 0 -135.5 -92.5t-103 -225t-62 -267t-22.5 -230.5
q0 -118 27 -167.5t87 -49.5q43 0 77.5 25.5t72.5 74.5l57 269h-166l43 188h357l-119 -533q-139 -215 -334 -215zM952 1591q-56 -59 -128.5 -93t-147.5 -34t-133.5 34t-89.5 93l102 72q17 -38 55.5 -60t83.5 -22q46 0 93 22t79 60z" />
    <glyph glyph-name="gbreve" unicode="&#x11f;" horiz-adv-x="831" 
d="M227 -401q-93 0 -172 30.5t-127 89.5l105 150q30 -45 80.5 -72.5t109.5 -27.5q76 0 125.5 54t75.5 171l39 156q-87 -148 -211 -148q-101 0 -157 74t-56 219q0 77 13.5 168t44.5 189.5t74.5 178.5t111 131.5t147.5 51.5q60 0 117 -42.5t71 -115.5l29 133h191l-215 -971
q-27 -119 -67 -202.5t-92 -130t-109 -66.5t-128 -20zM344 172q41 0 82.5 39.5t69.5 97.5l88 396q-8 56 -42 97.5t-77 41.5q-54 0 -99 -57t-72 -140.5t-41.5 -168t-14.5 -148.5q0 -85 26.5 -121.5t79.5 -36.5zM813 1249q-56 -59 -128.5 -93t-147.5 -34q-76 0 -134.5 34
t-89.5 93l103 72q17 -38 55.5 -60t83.5 -22q46 0 93 22t79 60z" />
    <glyph glyph-name="Gdotaccent" unicode="&#x120;" horiz-adv-x="890" 
d="M391 -25q-155 0 -238 107t-83 307q0 74 10.5 161.5t32.5 184.5t54 189.5t78.5 177t101.5 148.5t127.5 101.5t152.5 37.5q61 0 110.5 -18.5t82 -50t55 -75t33 -90.5t12.5 -100l-183 -43q-11 186 -125 186q-72 0 -135.5 -92.5t-103 -225t-62 -267t-22.5 -230.5
q0 -118 27 -167.5t87 -49.5q43 0 77.5 25.5t72.5 74.5l57 269h-166l43 188h357l-119 -533q-139 -215 -334 -215zM819 1595q0 -51 -37.5 -88t-87.5 -37q-43 0 -71.5 29t-28.5 72q0 49 38 86t89 37q42 0 70 -28.5t28 -70.5z" />
    <glyph glyph-name="gdotaccent" unicode="&#x121;" horiz-adv-x="831" 
d="M227 -401q-93 0 -172 30.5t-127 89.5l105 150q30 -45 80.5 -72.5t109.5 -27.5q76 0 125.5 54t75.5 171l39 156q-87 -148 -211 -148q-101 0 -157 74t-56 219q0 77 13.5 168t44.5 189.5t74.5 178.5t111 131.5t147.5 51.5q60 0 117 -42.5t71 -115.5l29 133h191l-215 -971
q-27 -119 -67 -202.5t-92 -130t-109 -66.5t-128 -20zM344 172q41 0 82.5 39.5t69.5 97.5l88 396q-8 56 -42 97.5t-77 41.5q-54 0 -99 -57t-72 -140.5t-41.5 -168t-14.5 -148.5q0 -85 26.5 -121.5t79.5 -36.5zM680 1253q0 -51 -37.5 -88t-87.5 -37q-43 0 -71.5 29t-28.5 72
q0 49 38 86t89 37q42 0 70 -28.5t28 -70.5z" />
    <glyph glyph-name="Gcommaaccent" unicode="&#x122;" horiz-adv-x="890" 
d="M406 -248q0 -87 -64.5 -174.5t-157.5 -134.5l-59 65q52 26 96.5 68t61.5 86q-2 -2 -17 -2q-33 0 -57.5 24.5t-24.5 63.5q0 47 36 82t81 35t75 -30t30 -83zM391 -25q-155 0 -238 107t-83 307q0 74 10.5 161.5t32.5 184.5t54 189.5t78.5 177t101.5 148.5t127.5 101.5
t152.5 37.5q61 0 110.5 -18.5t82 -50t55 -75t33 -90.5t12.5 -100l-183 -43q-11 186 -125 186q-72 0 -135.5 -92.5t-103 -225t-62 -267t-22.5 -230.5q0 -118 27 -167.5t87 -49.5q43 0 77.5 25.5t72.5 74.5l57 269h-166l43 188h357l-119 -533q-139 -215 -334 -215z" />
    <glyph glyph-name="gcommaaccent" unicode="&#x123;" horiz-adv-x="831" 
d="M459 1243q0 87 65 175.5t158 135.5l59 -65q-52 -26 -97.5 -69t-59.5 -85h14q35 0 60.5 -25t25.5 -65q0 -47 -37.5 -82t-83.5 -35q-45 0 -74.5 30t-29.5 85zM227 -401q-93 0 -172 30.5t-127 89.5l105 150q30 -45 80.5 -72.5t109.5 -27.5q76 0 125.5 54t75.5 171l39 156
q-87 -148 -211 -148q-101 0 -157 74t-56 219q0 77 13.5 168t44.5 189.5t74.5 178.5t111 131.5t147.5 51.5q60 0 117 -42.5t71 -115.5l29 133h191l-215 -971q-27 -119 -67 -202.5t-92 -130t-109 -66.5t-128 -20zM344 172q41 0 82.5 39.5t69.5 97.5l88 396q-8 56 -42 97.5
t-77 41.5q-54 0 -99 -57t-72 -140.5t-41.5 -168t-14.5 -148.5q0 -85 26.5 -121.5t79.5 -36.5z" />
    <glyph glyph-name="Hcircumflex" unicode="&#x124;" horiz-adv-x="948" 
d="M913 1481h-104l-74 200l-151 -200h-115l197 295h178zM723 0h-215l135 608h-291l-133 -608h-213l301 1366h213l-125 -569h289l125 569h215z" />
    <glyph glyph-name="hcircumflex" unicode="&#x125;" 
d="M854 1481h-104l-74 200l-152 -200h-114l196 295h178zM610 0h-192l162 727q6 24 6 45q0 72 -70 72q-47 0 -95 -43t-85 -105l-152 -696h-192l301 1366h192l-110 -504q48 67 111.5 109.5t134.5 42.5q82 0 127 -44.5t45 -115.5q0 -16 -9 -61z" />
    <glyph glyph-name="Hbar" unicode="&#x126;" horiz-adv-x="1021" 
d="M760 0h-215l135 608h-291l-133 -608h-213l225 1026h-114l26 117h115l49 223h213l-49 -223h289l49 223h215l-49 -223h110l-26 -117h-111zM432 797h289l49 229h-289z" />
    <glyph glyph-name="hbar" unicode="&#x127;" 
d="M610 0h-192l162 727q6 24 6 45q0 72 -70 72q-47 0 -95 -43t-85 -105l-152 -696h-192l239 1090h-90l27 116h88l37 160h192l-34 -160h239l-24 -116h-242l-49 -228q48 67 111.5 109.5t134.5 42.5q82 0 127 -44.5t45 -115.5q0 -16 -9 -61z" />
    <glyph glyph-name="Itilde" unicode="&#x128;" horiz-adv-x="446" 
d="M219 0h-213l301 1366h213zM545 1477q-35 0 -58.5 17.5t-34 42.5t-18.5 50t-20 42.5t-31 17.5q-48 0 -84 -158h-104q61 274 202 274q36 0 59.5 -17.5t34.5 -42.5t19 -50t20 -42.5t31 -17.5q48 0 84 158h105q-26 -125 -77.5 -199.5t-127.5 -74.5z" />
    <glyph glyph-name="itilde" unicode="&#x129;" horiz-adv-x="397" 
d="M184 0h-192l219 989h192zM444 1135q-43 0 -68.5 26.5t-33.5 58.5t-22 58.5t-37 26.5q-48 0 -84 -158h-105q61 274 203 274q36 0 59.5 -17.5t34.5 -42.5t19 -50t20 -42.5t31 -17.5q48 0 84 158h104q-26 -125 -77.5 -199.5t-127.5 -74.5z" />
    <glyph glyph-name="Imacron" unicode="&#x12a;" horiz-adv-x="446" 
d="M219 0h-213l301 1366h213zM705 1505h-519l25 117h518z" />
    <glyph glyph-name="imacron" unicode="&#x12b;" horiz-adv-x="397" 
d="M184 0h-192l219 989h192zM606 1163h-518l25 117h518z" />
    <glyph glyph-name="Ibreve" unicode="&#x12c;" horiz-adv-x="446" 
d="M219 0h-213l301 1366h213zM707 1591q-56 -59 -129 -93t-148 -34t-133.5 34t-89.5 93l102 72q17 -38 56 -60t84 -22q46 0 93 22t79 60z" />
    <glyph glyph-name="ibreve" unicode="&#x12d;" horiz-adv-x="397" 
d="M184 0h-192l219 989h192zM608 1249q-56 -59 -128.5 -93t-147.5 -34t-133.5 34t-89.5 93l102 72q17 -38 55.5 -60t83.5 -22q46 0 93 22t79 60z" />
    <glyph glyph-name="Iogonek" unicode="&#x12e;" horiz-adv-x="446" 
d="M156 -229l75 -54q-58 -98 -153 -98q-64 0 -101.5 32t-37.5 95q0 137 141 254h-74l301 1366h213l-301 -1366q-178 -112 -178 -244q0 -22 12.5 -34.5t34.5 -12.5t40.5 17.5t27.5 44.5z" />
    <glyph glyph-name="iogonek" unicode="&#x12f;" horiz-adv-x="397" 
d="M121 -229l76 -54q-58 -98 -154 -98q-64 0 -101.5 32t-37.5 95q0 137 141 254h-53l219 989h192l-219 -989q-178 -112 -178 -244q0 -22 12.5 -34.5t34.5 -12.5t40.5 17.5t27.5 44.5zM346 1118q-47 0 -78.5 31t-31.5 74q0 62 44 100.5t95 38.5q47 0 78.5 -32t31.5 -75
q0 -62 -43.5 -99.5t-95.5 -37.5z" />
    <glyph glyph-name="Idotaccent" unicode="&#x130;" horiz-adv-x="446" 
d="M219 0h-213l301 1366h213zM573 1595q0 -51 -37 -88t-87 -37q-43 0 -72 29t-29 72q0 49 38 86t89 37q42 0 70 -28.5t28 -70.5z" />
    <glyph glyph-name="dotlessi" unicode="&#x131;" horiz-adv-x="397" 
d="M184 0h-192l219 989h192z" />
    <glyph glyph-name="IJ" unicode="&#x132;" horiz-adv-x="1134" 
d="M219 0h-213l301 1366h213zM614 -25q-74 0 -138.5 24.5t-104.5 70.5l92 168q24 -35 60.5 -53.5t74.5 -18.5q69 0 110 39t60 125l231 1036h213l-231 -1047q-40 -180 -127.5 -262t-239.5 -82z" />
    <glyph glyph-name="ij" unicode="&#x133;" horiz-adv-x="794" 
d="M346 1118q-47 0 -78.5 31t-31.5 74q0 62 44 100.5t95 38.5q47 0 78.5 -32t31.5 -75q0 -62 -43.5 -99.5t-95.5 -37.5zM184 0h-192l219 989h192zM283 -401q-103 0 -144 61l84 141q13 -32 51 -32q64 0 88 120l246 1100h193l-246 -1100q-35 -155 -95.5 -222.5t-176.5 -67.5z
M743 1118q-47 0 -78.5 31t-31.5 74q0 62 44 100.5t95 38.5q47 0 79 -32t32 -75q0 -62 -44 -99.5t-96 -37.5z" />
    <glyph glyph-name="Jcircumflex" unicode="&#x134;" horiz-adv-x="690" 
d="M905 1481h-104l-74 200l-152 -200h-114l196 295h179zM168 -25q-74 0 -139 24.5t-105 70.5l92 168q24 -35 61 -53.5t75 -18.5q69 0 110 39t60 125l231 1036h213l-231 -1047q-40 -180 -127.5 -262t-239.5 -82z" />
    <glyph glyph-name="jcircumflex" unicode="&#x135;" horiz-adv-x="397" 
d="M565 1139h-104l-74 200l-151 -200h-115l196 295h179zM-115 -401q-102 0 -143 61l84 141q13 -32 51 -32q64 0 88 120l246 1100h192l-245 -1100q-35 -155 -96 -222.5t-177 -67.5z" />
    <glyph glyph-name="Kcommaaccent" unicode="&#x136;" horiz-adv-x="917" 
d="M444 -248q0 -87 -64 -174.5t-157 -134.5l-59 65q52 26 96.5 68t61.5 86q-2 -2 -17 -2q-33 0 -57.5 24.5t-24.5 63.5q0 47 36 82t81 35t74.5 -30t29.5 -83zM795 0h-228l-137 557l-129 -180l-82 -377h-213l301 1366h213l-139 -635l440 635h248l-479 -645z" />
    <glyph glyph-name="kcommaaccent" unicode="&#x137;" horiz-adv-x="788" 
d="M365 -248q0 -87 -64.5 -174.5t-157.5 -134.5l-59 65q52 26 96.5 68t61.5 86q-2 -2 -17 -2q-33 0 -57.5 24.5t-24.5 63.5q0 47 36 82t81 35t75 -30t30 -83zM657 0h-204l-74 424l-143 -184l-52 -240h-192l301 1366h192l-190 -860l362 483h215l-340 -440z" />
    <glyph glyph-name="kgreenlandic" unicode="&#x138;" horiz-adv-x="788" 
d="M657 0h-204l-74 424l-143 -184l-52 -240h-192l219 989h192l-108 -483l362 483h215l-340 -440z" />
    <glyph glyph-name="Lacute" unicode="&#x139;" horiz-adv-x="718" 
d="M930 1776l-277 -295h-129l228 295h178zM565 0h-559l301 1366h213l-260 -1178h346z" />
    <glyph glyph-name="lacute" unicode="&#x13a;" horiz-adv-x="397" 
d="M733 1776l-276 -295h-129l227 295h178zM184 0h-192l301 1366h192z" />
    <glyph glyph-name="Lcommaaccent" unicode="&#x13b;" horiz-adv-x="718" 
d="M356 -248q0 -87 -64 -174.5t-157 -134.5l-59 65q52 26 96 68t61 86q-2 -2 -16 -2q-33 0 -57.5 24.5t-24.5 63.5q0 47 36 82t81 35t74.5 -30t29.5 -83zM565 0h-559l301 1366h213l-260 -1178h346z" />
    <glyph glyph-name="lcommaaccent" unicode="&#x13c;" horiz-adv-x="397" 
d="M133 -248q0 -87 -64 -174.5t-157 -134.5l-59 65q52 26 96 68t61 86q-2 -2 -16 -2q-33 0 -57.5 24.5t-24.5 63.5q0 47 36 82t81 35t74.5 -30t29.5 -83zM184 0h-192l301 1366h192z" />
    <glyph glyph-name="Lcaron" unicode="&#x13d;" horiz-adv-x="718" 
d="M823 1280q0 -87 -64 -174.5t-157 -134.5l-59 65q52 26 96 68t61 86q-2 -2 -16 -2q-33 0 -57.5 24.5t-24.5 63.5q0 47 36 82t81 35t74.5 -30t29.5 -83zM565 0h-559l301 1366h213l-260 -1178h346z" />
    <glyph glyph-name="lcaron" unicode="&#x13e;" horiz-adv-x="600" 
d="M803 1280q0 -87 -64 -174.5t-157 -134.5l-60 65q52 26 96.5 68t61.5 86q-2 -2 -16 -2q-33 0 -57.5 24.5t-24.5 63.5q0 47 35.5 82t80.5 35t75 -30t30 -83zM184 0h-192l301 1366h192z" />
    <glyph glyph-name="Ldot" unicode="&#x13f;" horiz-adv-x="819" 
d="M565 0h-559l301 1366h213l-260 -1178h346zM664 567q-50 0 -84.5 35t-34.5 86q0 58 42.5 100.5t100.5 42.5q51 0 86 -35t35 -85q0 -60 -42.5 -102t-102.5 -42z" />
    <glyph glyph-name="ldot" unicode="&#x140;" horiz-adv-x="669" 
d="M184 0h-192l301 1366h192zM520 369q-50 0 -84.5 34.5t-34.5 85.5q0 59 42.5 101.5t101.5 42.5q51 0 86 -35.5t35 -85.5q0 -60 -43 -101.5t-103 -41.5z" />
    <glyph glyph-name="Lslash" unicode="&#x141;" horiz-adv-x="741" 
d="M31 473l39 180l114 60l146 653h213l-119 -532l139 71l-39 -180l-139 -72l-102 -465h346l-41 -188h-559l116 530z" />
    <glyph glyph-name="lslash" unicode="&#x142;" horiz-adv-x="477" 
d="M37 504l33 147l120 60l144 655h192l-120 -547l118 62l-32 -146l-119 -59l-148 -676h-192l125 565z" />
    <glyph glyph-name="Nacute" unicode="&#x143;" horiz-adv-x="948" 
d="M1012 1776l-277 -295h-129l228 295h178zM723 0h-203l-117 838l-184 -838h-213l301 1366h213l109 -811l180 811h215z" />
    <glyph glyph-name="nacute" unicode="&#x144;" 
d="M872 1434l-276 -295h-129l227 295h178zM610 0h-192l162 727q6 30 6 45q0 72 -70 72q-47 0 -95 -43t-85 -105l-152 -696h-192l219 989h192l-28 -127q48 67 111.5 109.5t134.5 42.5q79 0 125.5 -43t46.5 -117q0 -34 -9 -61z" />
    <glyph glyph-name="Ncommaaccent" unicode="&#x145;" horiz-adv-x="948" 
d="M418 -248q0 -87 -64 -174.5t-157 -134.5l-60 65q52 26 96.5 68t61.5 86q-2 -2 -16 -2q-33 0 -57.5 24.5t-24.5 63.5q0 47 35.5 82t80.5 35t75 -30t30 -83zM723 0h-203l-117 838l-184 -838h-213l301 1366h213l109 -811l180 811h215z" />
    <glyph glyph-name="ncommaaccent" unicode="&#x146;" 
d="M348 -248q0 -87 -64 -174.5t-157 -134.5l-59 65q52 26 96 68t61 86q-2 -2 -16 -2q-33 0 -57.5 24.5t-24.5 63.5q0 47 36 82t81 35t74.5 -30t29.5 -83zM610 0h-192l162 727q6 30 6 45q0 72 -70 72q-47 0 -95 -43t-85 -105l-152 -696h-192l219 989h192l-28 -127
q48 67 111.5 109.5t134.5 42.5q79 0 125.5 -43t46.5 -117q0 -34 -9 -61z" />
    <glyph glyph-name="Ncaron" unicode="&#x147;" horiz-adv-x="948" 
d="M786 1481h-178l-71 295h106l70 -201l155 201h113zM723 0h-203l-117 838l-184 -838h-213l301 1366h213l109 -811l180 811h215z" />
    <glyph glyph-name="ncaron" unicode="&#x148;" 
d="M645 1139h-178l-72 295h107l69 -201l156 201h113zM610 0h-192l162 727q6 30 6 45q0 72 -70 72q-47 0 -95 -43t-85 -105l-152 -696h-192l219 989h192l-28 -127q48 67 111.5 109.5t134.5 42.5q79 0 125.5 -43t46.5 -117q0 -34 -9 -61z" />
    <glyph glyph-name="napostrophe" unicode="&#x149;" 
d="M494 1425q0 -87 -64.5 -174.5t-157.5 -134.5l-59 66q53 26 97.5 67.5t60.5 85.5q-2 -2 -17 -2q-33 0 -57.5 24.5t-24.5 63.5q0 47 36 82t81 35t75 -30t30 -83zM610 0h-192l162 727q6 30 6 45q0 72 -70 72q-47 0 -95 -43t-85 -105l-152 -696h-192l219 989h192l-28 -127
q48 67 111.5 109.5t134.5 42.5q79 0 125.5 -43t46.5 -117q0 -34 -9 -61z" />
    <glyph glyph-name="Eng" unicode="&#x14a;" horiz-adv-x="948" 
d="M344 -401q-159 0 -244 94l88 160q22 -32 60.5 -50t77.5 -18q70 0 111.5 39.5t60.5 124.5l18 88l-113 801l-184 -838h-213l301 1366h213l109 -811l180 811h215l-315 -1423q-40 -180 -126.5 -262t-238.5 -82z" />
    <glyph glyph-name="eng" unicode="&#x14b;" 
d="M784 793l-198 -902q-36 -161 -100 -226.5t-175 -65.5q-96 0 -143 61l84 141q13 -32 49 -32q65 0 92 122l187 836q6 42 6 45q0 72 -70 72q-46 0 -95 -43.5t-85 -104.5l-152 -696h-192l219 989h192l-30 -133q48 69 113.5 113.5t134.5 44.5q79 0 125.5 -43t46.5 -117
q0 -20 -9 -61z" />
    <glyph glyph-name="Omacron" unicode="&#x14c;" horiz-adv-x="940" 
d="M952 1505h-518l25 117h518zM391 -25q-82 0 -144.5 32t-100.5 89.5t-57 131t-19 161.5q0 98 19 221.5t63.5 262t106.5 252.5t158.5 189t209.5 75q82 0 144.5 -32.5t100.5 -90.5t57 -132.5t19 -162.5q0 -67 -10 -150.5t-31.5 -179.5t-52.5 -189.5t-77.5 -180t-101.5 -152
t-128.5 -105t-155.5 -39.5zM403 166q71 0 135.5 93.5t104.5 226.5t63 266t23 225q0 221 -117 221q-72 0 -136 -93.5t-103 -227.5t-61.5 -267.5t-22.5 -226.5q0 -217 114 -217z" />
    <glyph glyph-name="omacron" unicode="&#x14d;" 
d="M821 1163h-518l25 117h518zM334 -25q-140 0 -216.5 89t-76.5 255q0 87 18 181.5t55 186.5t88.5 164.5t125 117.5t157.5 45q141 0 217 -88.5t76 -255.5q0 -87 -18 -181.5t-55 -186.5t-88.5 -164.5t-125 -117.5t-157.5 -45zM346 145q54 0 101.5 59.5t76 145.5t44.5 172.5
t16 149.5q0 172 -109 172q-55 0 -102.5 -59.5t-76 -146t-44.5 -173.5t-16 -150q0 -92 28 -131t82 -39z" />
    <glyph glyph-name="Obreve" unicode="&#x14e;" horiz-adv-x="940" 
d="M391 -25q-82 0 -144.5 32t-100.5 89.5t-57 131t-19 161.5q0 98 19 221.5t63.5 262t106.5 252.5t158.5 189t209.5 75q82 0 144.5 -32.5t100.5 -90.5t57 -132.5t19 -162.5q0 -67 -10 -150.5t-31.5 -179.5t-52.5 -189.5t-77.5 -180t-101.5 -152t-128.5 -105t-155.5 -39.5z
M403 166q71 0 135.5 93.5t104.5 226.5t63 266t23 225q0 221 -117 221q-72 0 -136 -93.5t-103 -227.5t-61.5 -267.5t-22.5 -226.5q0 -217 114 -217zM954 1591q-56 -59 -128.5 -93t-147.5 -34t-133.5 34t-89.5 93l102 72q17 -38 55.5 -60t83.5 -22q46 0 93 22t79 60z" />
    <glyph glyph-name="obreve" unicode="&#x14f;" 
d="M334 -25q-140 0 -216.5 89t-76.5 255q0 87 18 181.5t55 186.5t88.5 164.5t125 117.5t157.5 45q141 0 217 -88.5t76 -255.5q0 -87 -18 -181.5t-55 -186.5t-88.5 -164.5t-125 -117.5t-157.5 -45zM346 145q54 0 101.5 59.5t76 145.5t44.5 172.5t16 149.5q0 172 -109 172
q-55 0 -102.5 -59.5t-76 -146t-44.5 -173.5t-16 -150q0 -92 28 -131t82 -39zM823 1249q-56 -59 -128.5 -93t-147.5 -34t-133.5 34t-89.5 93l102 72q17 -38 55.5 -60t83.5 -22q46 0 93 22t79 60z" />
    <glyph glyph-name="Ohungarumlaut" unicode="&#x150;" horiz-adv-x="940" 
d="M807 1776l-227 -295h-107l178 295h156zM1059 1776l-228 -295h-106l178 295h156zM391 -25q-82 0 -144.5 32t-100.5 89.5t-57 131t-19 161.5q0 98 19 221.5t63.5 262t106.5 252.5t158.5 189t209.5 75q82 0 144.5 -32.5t100.5 -90.5t57 -132.5t19 -162.5q0 -67 -10 -150.5
t-31.5 -179.5t-52.5 -189.5t-77.5 -180t-101.5 -152t-128.5 -105t-155.5 -39.5zM403 166q71 0 135.5 93.5t104.5 226.5t63 266t23 225q0 221 -117 221q-72 0 -136 -93.5t-103 -227.5t-61.5 -267.5t-22.5 -226.5q0 -217 114 -217z" />
    <glyph glyph-name="ohungarumlaut" unicode="&#x151;" 
d="M686 1434l-227 -295h-107l178 295h156zM938 1434l-227 -295h-107l178 295h156zM334 -25q-140 0 -216.5 89t-76.5 255q0 87 18 181.5t55 186.5t88.5 164.5t125 117.5t157.5 45q141 0 217 -88.5t76 -255.5q0 -87 -18 -181.5t-55 -186.5t-88.5 -164.5t-125 -117.5
t-157.5 -45zM346 145q54 0 101.5 59.5t76 145.5t44.5 172.5t16 149.5q0 172 -109 172q-55 0 -102.5 -59.5t-76 -146t-44.5 -173.5t-16 -150q0 -92 28 -131t82 -39z" />
    <glyph glyph-name="OE" unicode="&#x152;" horiz-adv-x="1261" 
d="M1077 0h-559l25 117q-50 -79 -109 -110.5t-110 -31.5q-119 0 -187.5 110.5t-68.5 303.5q0 102 21 228.5t66.5 263t109 248.5t158 184.5t202.5 72.5q56 0 104.5 -32.5t65.5 -104.5l24 117h559l-41 -188h-344l-86 -387h332l-43 -189h-332l-90 -414h344zM602 379l135 608
q-6 209 -114 209q-63 0 -119.5 -61.5t-95 -156t-66.5 -206.5t-41.5 -213t-13.5 -176q0 -217 108 -217q54 0 109.5 56t97.5 157z" />
    <glyph glyph-name="oe" unicode="&#x153;" horiz-adv-x="1294" 
d="M1223 432h-488q-3 -11 -6.5 -53t-3.5 -55q0 -90 40.5 -140.5t123.5 -50.5q88 0 170 98l74 -120q-124 -136 -277 -136q-102 0 -164.5 52.5t-81.5 148.5q-62 -101 -127.5 -151t-152.5 -50q-144 0 -216.5 89t-72.5 255q0 118 30 238.5t84 223.5t139.5 168t186.5 65
q88 0 146.5 -50t83.5 -145q51 94 121 144.5t151 50.5q134 0 206.5 -81t72.5 -243q0 -115 -39 -258zM764 569h305q16 58 16 123q0 78 -29.5 121t-86.5 43q-44 0 -80.5 -27t-60.5 -72t-39 -91t-25 -97zM575 672q0 85 -24.5 128.5t-81.5 43.5q-54 0 -100.5 -58t-74 -143.5
t-43 -172.5t-15.5 -155q0 -170 106 -170q55 0 101.5 60t74 146.5t42.5 172.5t15 148z" />
    <glyph glyph-name="Racute" unicode="&#x154;" horiz-adv-x="897" 
d="M987 1776l-276 -295h-129l227 295h178zM709 0h-224l-43 522h-108l-115 -522h-213l301 1366h301q134 0 219.5 -94.5t85.5 -235.5q0 -167 -81.5 -302.5t-190.5 -172.5zM375 711h94q68 0 119.5 47t75.5 115.5t24 144.5q0 80 -33.5 120t-91.5 40h-84z" />
    <glyph glyph-name="racute" unicode="&#x155;" horiz-adv-x="548" 
d="M756 1434l-277 -295h-129l228 295h178zM184 0h-192l219 989h192l-28 -133q89 156 260 156l-45 -193q-24 8 -51 8q-116 0 -205 -147z" />
    <glyph glyph-name="Rcommaaccent" unicode="&#x156;" horiz-adv-x="897" 
d="M395 -248q0 -87 -64 -174.5t-157 -134.5l-59 65q52 26 96 68t61 86q-2 -2 -16 -2q-33 0 -57.5 24.5t-24.5 63.5q0 47 36 82t81 35t74.5 -30t29.5 -83zM709 0h-224l-43 522h-108l-115 -522h-213l301 1366h301q134 0 219.5 -94.5t85.5 -235.5q0 -167 -81.5 -302.5
t-190.5 -172.5zM375 711h94q68 0 119.5 47t75.5 115.5t24 144.5q0 80 -33.5 120t-91.5 40h-84z" />
    <glyph glyph-name="rcommaaccent" unicode="&#x157;" horiz-adv-x="548" 
d="M254 -248q0 -87 -64 -174.5t-157 -134.5l-60 65q52 26 96.5 68t61.5 86q-2 -2 -16 -2q-33 0 -57.5 24.5t-24.5 63.5q0 47 36 82t81 35t74.5 -30t29.5 -83zM184 0h-192l219 989h192l-28 -133q89 156 260 156l-45 -193q-24 8 -51 8q-116 0 -205 -147z" />
    <glyph glyph-name="Rcaron" unicode="&#x158;" horiz-adv-x="897" 
d="M762 1481h-178l-72 295h106l70 -201l156 201h112zM709 0h-224l-43 522h-108l-115 -522h-213l301 1366h301q134 0 219.5 -94.5t85.5 -235.5q0 -167 -81.5 -302.5t-190.5 -172.5zM375 711h94q68 0 119.5 47t75.5 115.5t24 144.5q0 80 -33.5 120t-91.5 40h-84z" />
    <glyph glyph-name="rcaron" unicode="&#x159;" horiz-adv-x="548" 
d="M547 1139h-178l-72 295h106l70 -201l156 201h112zM184 0h-192l219 989h192l-28 -133q89 156 260 156l-45 -193q-24 8 -51 8q-116 0 -205 -147z" />
    <glyph glyph-name="Sacute" unicode="&#x15a;" horiz-adv-x="774" 
d="M924 1776l-277 -295h-129l227 295h179zM287 -25q-102 0 -192 41.5t-136 108.5l127 158q32 -52 88 -84.5t113 -32.5q74 0 129 61.5t55 161.5q0 52 -31 104.5t-75.5 100.5t-88.5 100t-75 123t-31 150q0 176 116.5 299t278.5 123q82 0 160.5 -32.5t128.5 -90.5l-117 -158
q-67 90 -174 90q-74 0 -121 -57.5t-47 -136.5q0 -48 30.5 -99t74 -100t87.5 -102.5t74.5 -126.5t30.5 -152q0 -189 -114.5 -319t-290.5 -130z" />
    <glyph glyph-name="sacute" unicode="&#x15b;" horiz-adv-x="675" 
d="M795 1434l-277 -295h-129l227 295h179zM252 -25q-98 0 -178.5 39.5t-116.5 102.5l109 125q30 -50 79 -81.5t111 -31.5q59 0 100 41.5t41 99.5q0 41 -29.5 78.5t-71.5 70t-84 69t-71.5 91.5t-29.5 121q0 130 85 222t232 92q78 0 151.5 -34.5t118.5 -94.5l-104 -121
q-21 40 -69 68t-101 28q-57 0 -92 -34.5t-35 -90.5q0 -27 16 -52.5t42 -48.5t57 -47t62.5 -52.5t57.5 -60t42 -75t16 -92.5q0 -137 -94.5 -234.5t-243.5 -97.5z" />
    <glyph glyph-name="Scircumflex" unicode="&#x15c;" horiz-adv-x="774" 
d="M831 1481h-104l-74 200l-151 -200h-115l197 295h178zM287 -25q-102 0 -192 41.5t-136 108.5l127 158q32 -52 88 -84.5t113 -32.5q74 0 129 61.5t55 161.5q0 52 -31 104.5t-75.5 100.5t-88.5 100t-75 123t-31 150q0 176 116.5 299t278.5 123q82 0 160.5 -32.5t128.5 -90.5
l-117 -158q-67 90 -174 90q-74 0 -121 -57.5t-47 -136.5q0 -48 30.5 -99t74 -100t87.5 -102.5t74.5 -126.5t30.5 -152q0 -189 -114.5 -319t-290.5 -130z" />
    <glyph glyph-name="scircumflex" unicode="&#x15d;" horiz-adv-x="675" 
d="M705 1139h-105l-74 200l-151 -200h-115l197 295h178zM252 -25q-98 0 -178.5 39.5t-116.5 102.5l109 125q30 -50 79 -81.5t111 -31.5q59 0 100 41.5t41 99.5q0 41 -29.5 78.5t-71.5 70t-84 69t-71.5 91.5t-29.5 121q0 130 85 222t232 92q78 0 151.5 -34.5t118.5 -94.5
l-104 -121q-21 40 -69 68t-101 28q-57 0 -92 -34.5t-35 -90.5q0 -27 16 -52.5t42 -48.5t57 -47t62.5 -52.5t57.5 -60t42 -75t16 -92.5q0 -137 -94.5 -234.5t-243.5 -97.5z" />
    <glyph glyph-name="Scedilla" unicode="&#x15e;" horiz-adv-x="774" 
d="M182 -395q-111 0 -180 78l57 79q49 -65 125 -65q40 0 66 27t26 63q0 49 -47 49q-30 0 -53 -26l-67 43l79 133q-155 32 -229 139l127 158q32 -52 88 -84.5t113 -32.5q74 0 129 61.5t55 161.5q0 52 -31 104.5t-75.5 100.5t-88.5 100t-75 123t-31 150q0 176 116.5 299
t278.5 123q82 0 160.5 -32.5t128.5 -90.5l-117 -158q-67 90 -174 90q-74 0 -121 -57.5t-47 -136.5q0 -48 30.5 -99t74 -100t87.5 -102.5t74.5 -126.5t30.5 -152q0 -189 -114.5 -319t-290.5 -130h-2l-54 -86q21 21 50 21q45 0 73.5 -32.5t28.5 -84.5q0 -79 -58 -133.5
t-143 -54.5z" />
    <glyph glyph-name="scedilla" unicode="&#x15f;" horiz-adv-x="675" 
d="M147 -395q-111 0 -180 78l58 79q49 -65 125 -65q40 0 66 27t26 63q0 49 -47 49q-31 0 -54 -26l-67 43l80 135q-66 13 -118 47.5t-79 81.5l109 125q30 -50 79 -81.5t111 -31.5q59 0 100 41.5t41 99.5q0 41 -29.5 78.5t-71.5 70t-84 69t-71.5 91.5t-29.5 121q0 130 85 222
t232 92q78 0 151.5 -34.5t118.5 -94.5l-104 -121q-21 40 -69 68t-101 28q-57 0 -92 -34.5t-35 -90.5q0 -27 16 -52.5t42 -48.5t57 -47t62.5 -52.5t57.5 -60t42 -75t16 -92.5q0 -137 -94.5 -234.5t-243.5 -97.5h-2l-53 -86q21 21 49 21q45 0 73.5 -32.5t28.5 -84.5
q0 -79 -58 -133.5t-143 -54.5z" />
    <glyph glyph-name="Scaron" unicode="&#x160;" horiz-adv-x="774" 
d="M700 1481h-178l-71 295h106l70 -201l155 201h113zM287 -25q-102 0 -192 41.5t-136 108.5l127 158q32 -52 88 -84.5t113 -32.5q74 0 129 61.5t55 161.5q0 52 -31 104.5t-75.5 100.5t-88.5 100t-75 123t-31 150q0 176 116.5 299t278.5 123q82 0 160.5 -32.5t128.5 -90.5
l-117 -158q-67 90 -174 90q-74 0 -121 -57.5t-47 -136.5q0 -48 30.5 -99t74 -100t87.5 -102.5t74.5 -126.5t30.5 -152q0 -189 -114.5 -319t-290.5 -130z" />
    <glyph glyph-name="scaron" unicode="&#x161;" horiz-adv-x="675" 
d="M575 1139h-178l-71 295h106l70 -201l155 201h113zM252 -25q-98 0 -178.5 39.5t-116.5 102.5l109 125q30 -50 79 -81.5t111 -31.5q59 0 100 41.5t41 99.5q0 41 -29.5 78.5t-71.5 70t-84 69t-71.5 91.5t-29.5 121q0 130 85 222t232 92q78 0 151.5 -34.5t118.5 -94.5
l-104 -121q-21 40 -69 68t-101 28q-57 0 -92 -34.5t-35 -90.5q0 -27 16 -52.5t42 -48.5t57 -47t62.5 -52.5t57.5 -60t42 -75t16 -92.5q0 -137 -94.5 -234.5t-243.5 -97.5z" />
    <glyph glyph-name="Tcommaaccent" unicode="&#x162;" horiz-adv-x="708" 
d="M307 -248q0 -87 -64 -174.5t-157 -134.5l-59 65q52 26 96 68t61 86q-2 -2 -16 -2q-33 0 -57.5 24.5t-24.5 63.5q0 47 36 82t81 35t74.5 -30t29.5 -83zM350 0h-213l260 1178h-211l41 188h635l-41 -188h-211z" />
    <glyph glyph-name="tcommaaccent" unicode="&#x163;" horiz-adv-x="505" 
d="M201 -248q0 -87 -64 -174.5t-157 -134.5l-60 65q52 26 96.5 68t61.5 86q-2 -2 -17 -2q-33 0 -57 24.5t-24 63.5q0 47 35.5 82t80.5 35t75 -30t30 -83zM262 -25q-203 0 -203 164q0 35 11 80l135 602h-96l36 168h97l59 271h193l-60 -271h129l-39 -168h-127l-127 -569
q-8 -32 -8 -51q0 -56 57 -56q27 0 56 19l12 -154q-53 -35 -125 -35z" />
    <glyph glyph-name="Tcaron" unicode="&#x164;" horiz-adv-x="708" 
d="M655 1481h-178l-71 295h106l70 -201l155 201h113zM350 0h-213l260 1178h-211l41 188h635l-41 -188h-211z" />
    <glyph glyph-name="tcaron" unicode="&#x165;" horiz-adv-x="581" 
d="M836 1425q0 -87 -64.5 -174.5t-157.5 -134.5l-59 66q53 26 97.5 67.5t60.5 85.5q-2 -2 -17 -2q-33 0 -57.5 24.5t-24.5 63.5q0 47 36 82t81 35t75 -30t30 -83zM262 -25q-203 0 -203 164q0 35 11 80l135 602h-96l36 168h97l59 271h193l-60 -271h129l-39 -168h-127
l-127 -569q-8 -32 -8 -51q0 -56 57 -56q27 0 56 19l12 -154q-53 -35 -125 -35z" />
    <glyph glyph-name="Tbar" unicode="&#x166;" horiz-adv-x="708" 
d="M350 0h-213l127 580h-147l26 114h148l106 484h-211l41 188h635l-41 -188h-211l-106 -484h147l-24 -114h-150z" />
    <glyph glyph-name="tbar" unicode="&#x167;" horiz-adv-x="505" 
d="M262 -25q-203 0 -203 164q0 35 11 80l51 232h-94l24 116h96l58 254h-96l36 168h97l59 271h193l-60 -271h129l-39 -168h-127l-57 -254h74l-27 -116h-74l-43 -199q-8 -32 -8 -51q0 -56 57 -56q27 0 56 19l12 -154q-53 -35 -125 -35z" />
    <glyph glyph-name="Utilde" unicode="&#x168;" horiz-adv-x="950" 
d="M403 -25q-140 0 -231.5 86t-91.5 232q0 44 10 92l217 981h213l-221 -999q-6 -42 -6 -66q0 -66 35 -101.5t92 -35.5q64 0 106 47.5t66 155.5l219 999h213l-217 -989q-46 -205 -150 -303.5t-254 -98.5zM795 1477q-35 0 -58.5 17.5t-34 42.5t-18.5 50t-20 42.5t-31 17.5
q-48 0 -84 -158h-105q61 274 203 274q36 0 59.5 -17.5t34.5 -42.5t19 -50t20 -42.5t31 -17.5q48 0 84 158h104q-27 -125 -77.5 -199.5t-126.5 -74.5z" />
    <glyph glyph-name="utilde" unicode="&#x169;" 
d="M211 989h192l-161 -727q-6 -27 -6 -45q0 -72 69 -72q47 0 93.5 40.5t82.5 101.5l156 702h192l-219 -989h-192l28 127q-49 -67 -112 -109.5t-133 -42.5q-79 0 -125.5 43t-46.5 117q0 38 8 62zM659 1135q-43 0 -68.5 26.5t-33.5 58.5t-22 58.5t-37 26.5q-48 0 -84 -158
h-105q61 274 203 274q36 0 59.5 -17.5t34.5 -42.5t19 -50t20 -42.5t31 -17.5q48 0 84 158h104q-26 -125 -77.5 -199.5t-127.5 -74.5z" />
    <glyph glyph-name="Umacron" unicode="&#x16a;" horiz-adv-x="950" 
d="M403 -25q-140 0 -231.5 86t-91.5 232q0 44 10 92l217 981h213l-221 -999q-6 -42 -6 -66q0 -66 35 -101.5t92 -35.5q64 0 106 47.5t66 155.5l219 999h213l-217 -989q-46 -205 -150 -303.5t-254 -98.5zM956 1505h-518l25 117h518z" />
    <glyph glyph-name="umacron" unicode="&#x16b;" 
d="M211 989h192l-161 -727q-6 -27 -6 -45q0 -72 69 -72q47 0 93.5 40.5t82.5 101.5l156 702h192l-219 -989h-192l28 127q-49 -67 -112 -109.5t-133 -42.5q-79 0 -125.5 43t-46.5 117q0 38 8 62zM821 1163h-518l25 117h518z" />
    <glyph glyph-name="Ubreve" unicode="&#x16c;" horiz-adv-x="950" 
d="M403 -25q-140 0 -231.5 86t-91.5 232q0 44 10 92l217 981h213l-221 -999q-6 -42 -6 -66q0 -66 35 -101.5t92 -35.5q64 0 106 47.5t66 155.5l219 999h213l-217 -989q-46 -205 -150 -303.5t-254 -98.5zM954 1591q-56 -59 -128.5 -93t-147.5 -34t-133.5 34t-89.5 93l102 72
q17 -38 55.5 -60t83.5 -22q46 0 93 22t79 60z" />
    <glyph glyph-name="ubreve" unicode="&#x16d;" 
d="M211 989h192l-161 -727q-6 -27 -6 -45q0 -72 69 -72q47 0 93.5 40.5t82.5 101.5l156 702h192l-219 -989h-192l28 127q-49 -67 -112 -109.5t-133 -42.5q-79 0 -125.5 43t-46.5 117q0 38 8 62zM823 1249q-56 -59 -128.5 -93t-147.5 -34t-133.5 34t-89.5 93l102 72
q17 -38 55.5 -60t83.5 -22q46 0 93 22t79 60z" />
    <glyph glyph-name="Uring" unicode="&#x16e;" horiz-adv-x="950" 
d="M696 1419q-70 0 -113.5 45.5t-43.5 116.5q0 78 59 137.5t137 59.5q69 0 113.5 -45.5t44.5 -116.5q0 -78 -59.5 -137.5t-137.5 -59.5zM705 1509q40 0 70 29.5t30 69.5q0 34 -22 57t-54 23q-40 0 -70 -29.5t-30 -69.5q0 -34 21.5 -57t54.5 -23zM403 -25q-140 0 -231.5 86
t-91.5 232q0 44 10 92l217 981h213l-221 -999q-6 -42 -6 -66q0 -66 35 -101.5t92 -35.5q64 0 106 47.5t66 155.5l219 999h213l-217 -989q-46 -205 -150 -303.5t-254 -98.5z" />
    <glyph glyph-name="uring" unicode="&#x16f;" 
d="M569 1106q-70 0 -113.5 45.5t-43.5 116.5q0 78 59 137t137 59q69 0 113.5 -45.5t44.5 -115.5q0 -78 -59.5 -137.5t-137.5 -59.5zM578 1196q40 0 70 29t30 69q0 34 -22 57t-54 23q-40 0 -70 -29t-30 -69q0 -34 21.5 -57t54.5 -23zM211 989h192l-161 -727q-6 -27 -6 -45
q0 -72 69 -72q47 0 93.5 40.5t82.5 101.5l156 702h192l-219 -989h-192l28 127q-49 -67 -112 -109.5t-133 -42.5q-79 0 -125.5 43t-46.5 117q0 38 8 62z" />
    <glyph glyph-name="Uhungarumlaut" unicode="&#x170;" horiz-adv-x="950" 
d="M403 -25q-140 0 -231.5 86t-91.5 232q0 44 10 92l217 981h213l-221 -999q-6 -42 -6 -66q0 -66 35 -101.5t92 -35.5q64 0 106 47.5t66 155.5l219 999h213l-217 -989q-46 -205 -150 -303.5t-254 -98.5zM813 1776l-227 -295h-107l178 295h156zM1065 1776l-227 -295h-107
l178 295h156z" />
    <glyph glyph-name="uhungarumlaut" unicode="&#x171;" 
d="M211 989h192l-161 -727q-6 -27 -6 -45q0 -72 69 -72q47 0 93.5 40.5t82.5 101.5l156 702h192l-219 -989h-192l28 127q-49 -67 -112 -109.5t-133 -42.5q-79 0 -125.5 43t-46.5 117q0 38 8 62zM686 1434l-227 -295h-107l178 295h156zM938 1434l-227 -295h-107l178 295h156z
" />
    <glyph glyph-name="Uogonek" unicode="&#x172;" horiz-adv-x="950" 
d="M477 -229l76 -54q-58 -98 -154 -98q-64 0 -101.5 32t-37.5 95q0 121 115 231q-130 9 -212.5 94t-82.5 222q0 44 10 92l217 981h213l-221 -999q-6 -42 -6 -66q0 -66 35 -101.5t92 -35.5q64 0 106 47.5t66 155.5l219 999h213l-217 -989q-68 -303 -266 -377
q-179 -112 -179 -244q0 -22 13 -34.5t35 -12.5t40 17t27 45z" />
    <glyph glyph-name="uogonek" unicode="&#x173;" 
d="M211 989h192l-161 -727q-6 -27 -6 -45q0 -72 69 -72q47 0 93.5 40.5t82.5 101.5l156 702h192l-219 -989q-178 -112 -178 -244q0 -22 12.5 -34.5t34.5 -12.5t40.5 17.5t27.5 44.5l76 -54q-58 -98 -154 -98q-64 0 -101.5 32t-37.5 95q0 139 141 254h-53l28 127
q-49 -67 -112 -109.5t-133 -42.5q-79 0 -125.5 43t-46.5 117q0 38 8 62z" />
    <glyph glyph-name="Wcircumflex" unicode="&#x174;" horiz-adv-x="1202" 
d="M1036 1481h-104l-74 200l-151 -200h-115l196 295h179zM836 0h-220l86 954l-337 -954h-220l74 1366h215l-92 -989l360 989h172l-75 -989l344 989h221z" />
    <glyph glyph-name="wcircumflex" unicode="&#x175;" horiz-adv-x="1185" 
d="M950 1139h-104l-74 200l-151 -200h-115l196 295h179zM836 0h-201l6 727l-311 -727h-201l-2 989h192l-24 -725l303 725h186l-10 -725l297 725h207z" />
    <glyph glyph-name="Ycircumflex" unicode="&#x176;" horiz-adv-x="829" 
d="M856 1481h-104l-74 200l-152 -200h-114l196 295h178zM412 0h-213l125 571l-140 795h219l64 -584l324 584h235l-489 -795z" />
    <glyph glyph-name="ycircumflex" unicode="&#x177;" horiz-adv-x="731" 
d="M-117 -379l64 160q12 -12 47 -12q28 0 47.5 18t42.5 61l63 132l-28 1009h198l-16 -745l320 745h208l-565 -1182q-59 -119 -117 -163.5t-139 -44.5q-70 0 -125 22zM723 1139h-105l-73 200l-152 -200h-114l196 295h178z" />
    <glyph glyph-name="Ydieresis" unicode="&#x178;" horiz-adv-x="829" 
d="M928 1595q0 -47 -38 -83.5t-87 -36.5q-42 0 -70 28t-28 70q0 47 37.5 84t86.5 37q42 0 70.5 -28.5t28.5 -70.5zM614 1595q0 -47 -38 -83.5t-87 -36.5q-42 0 -70 28t-28 70q0 47 38 84t87 37q42 0 70 -28t28 -71zM412 0h-213l125 571l-140 795h219l64 -584l324 584h235
l-489 -795z" />
    <glyph glyph-name="Zacute" unicode="&#x179;" horiz-adv-x="737" 
d="M897 1776l-276 -295h-129l227 295h178zM565 0h-612l39 182l567 996h-346l41 188h598l-39 -174l-573 -1004h366z" />
    <glyph glyph-name="zacute" unicode="&#x17a;" horiz-adv-x="657" 
d="M782 1434l-276 -295h-129l227 295h178zM485 0h-534l31 147l444 674h-293l37 168h526l-30 -141l-447 -680h303z" />
    <glyph glyph-name="Zdotaccent" unicode="&#x17b;" horiz-adv-x="737" 
d="M565 0h-612l39 182l567 996h-346l41 188h598l-39 -174l-573 -1004h366zM713 1595q0 -51 -37.5 -88t-87.5 -37q-43 0 -72 29t-29 72q0 49 38 86t89 37q42 0 70.5 -28.5t28.5 -70.5z" />
    <glyph glyph-name="zdotaccent" unicode="&#x17c;" horiz-adv-x="657" 
d="M485 0h-534l31 147l444 674h-293l37 168h526l-30 -141l-447 -680h303zM602 1253q0 -51 -37.5 -88t-87.5 -37q-43 0 -71.5 29t-28.5 72q0 49 38 86t89 37q42 0 70 -28.5t28 -70.5z" />
    <glyph glyph-name="Zcaron" unicode="&#x17d;" horiz-adv-x="737" 
d="M672 1481h-178l-72 295h106l70 -201l156 201h112zM565 0h-612l39 182l567 996h-346l41 188h598l-39 -174l-573 -1004h366z" />
    <glyph glyph-name="zcaron" unicode="&#x17e;" horiz-adv-x="657" 
d="M557 1139h-178l-72 295h107l69 -201l156 201h113zM485 0h-534l31 147l444 674h-293l37 168h526l-30 -141l-447 -680h303z" />
    <glyph glyph-name="longs" unicode="&#x17f;" horiz-adv-x="489" 
d="M215 0h-192l182 821h-94l36 168h95l26 129q58 268 273 268q53 0 102 -16.5t72 -42.5l-84 -147q-25 37 -70 37q-77 0 -100 -99z" />
    <glyph glyph-name="florin" unicode="&#x192;" horiz-adv-x="784" 
d="M141 -330h-217l185 838h-91v172h129l103 461q25 116 94 180.5t174 64.5q116 0 174 -53l-65 -162q-24 27 -68 27q-81 0 -102 -108l-90 -410h170v-172h-209z" />
    <glyph glyph-name="Ohorn" unicode="&#x1a0;" horiz-adv-x="940" 
d="M391 -25q-82 0 -144.5 32t-100.5 89.5t-57 131t-19 161.5q0 98 19 221.5t63.5 262t106.5 252.5t158.5 189t209.5 75q204 0 282 -197q78 57 101 119h-15q-32 0 -53.5 22.5t-21.5 59.5q0 43 32.5 74.5t75.5 31.5q40 0 67 -27.5t27 -76.5q0 -79 -54 -157t-134 -126
q14 -79 14 -141q0 -67 -10 -150.5t-31.5 -179.5t-52.5 -189.5t-77.5 -180t-101.5 -152t-128.5 -105t-155.5 -39.5zM403 166q71 0 135.5 93.5t104.5 226.5t63 266t23 225q0 221 -117 221q-72 0 -136 -93.5t-103 -227.5t-61.5 -267.5t-22.5 -226.5q0 -217 114 -217z" />
    <glyph glyph-name="ohorn" unicode="&#x1a1;" 
d="M922 1120q0 -74 -49.5 -148.5t-124.5 -123.5q30 -82 30 -178q0 -87 -18 -181.5t-55 -186.5t-88.5 -164.5t-125 -117.5t-157.5 -45q-140 0 -216.5 89t-76.5 255q0 87 18 181.5t55 186.5t88.5 164.5t125 117.5t157.5 45q146 0 224 -96q77 57 100 118h-14q-32 0 -55 22.5
t-23 59.5q0 42 33 74.5t75 32.5t69.5 -28t27.5 -77zM346 145q54 0 101.5 59.5t76 145.5t44.5 172.5t16 149.5q0 172 -109 172q-55 0 -102.5 -59.5t-76 -146t-44.5 -173.5t-16 -150q0 -92 28 -131t82 -39z" />
    <glyph glyph-name="Uhorn" unicode="&#x1af;" horiz-adv-x="950" 
d="M1229 1522q0 -85 -68.5 -173t-169.5 -132l-184 -840q-46 -205 -150 -303.5t-254 -98.5q-140 0 -231.5 86t-91.5 232q0 44 10 92l217 981h213l-221 -999q-6 -42 -6 -66q0 -66 35 -101.5t92 -35.5q64 0 106 47.5t66 155.5l219 999h213l-10 -47q78 57 102 121q-2 -2 -14 -2
q-32 0 -55 23t-23 59q0 43 33.5 74.5t75.5 31.5t69 -27t27 -77z" />
    <glyph glyph-name="uhorn" unicode="&#x1b0;" 
d="M981 1137q0 -72 -50.5 -150t-129.5 -127l-191 -860h-192l28 127q-49 -67 -112 -109.5t-133 -42.5q-79 0 -125.5 43t-46.5 117q0 38 8 62l174 792h192l-161 -727q-6 -42 -6 -45q0 -72 69 -72q47 0 93.5 40.5t82.5 101.5l156 702h190q29 33 41 66q-2 -2 -14 -2
q-32 0 -54 23t-22 59q0 44 33 75t76 31q41 0 67.5 -27t26.5 -77z" />
    <glyph glyph-name="AEacute" unicode="&#x1fc;" horiz-adv-x="1196" 
d="M1210 1776l-276 -295h-129l227 295h178zM1012 0h-559l61 279h-238l-143 -279h-225l754 1366h651l-41 -188h-344l-86 -387h332l-44 -189h-331l-90 -414h344zM557 467l139 633l-325 -633h186z" />
    <glyph glyph-name="aeacute" unicode="&#x1fd;" horiz-adv-x="1282" 
d="M1094 1434l-277 -295h-129l227 295h179zM469 844q-56 0 -102.5 -61.5t-73.5 -151t-42 -177t-15 -151.5q0 -158 104 -158q40 0 81.5 40.5t67.5 97.5l95 422q-6 60 -39 99.5t-76 39.5zM659 178l-41 -178h-192l29 123q-91 -148 -209 -148q-101 0 -155 78.5t-54 227.5
q0 79 15 173t47 193.5t76.5 181t110.5 133.5t142 52q68 0 117.5 -39t70.5 -119l31 133h191l-27 -121q40 62 96.5 104t120.5 42q108 -2 163.5 -75.5t55.5 -233.5q0 -121 -39 -273h-491q-10 -49 -10 -108q0 -82 42.5 -135.5t127.5 -53.5t172 98l71 -133q-110 -125 -239 -125
q-192 0 -222 203zM745 569h310q16 69 16 123q0 73 -29.5 118.5t-85.5 45.5q-44 0 -81.5 -28t-63 -72.5t-42 -91.5t-24.5 -95z" />
    <glyph glyph-name="Oslashacute" unicode="&#x1fe;" horiz-adv-x="940" 
d="M1006 1776l-277 -295h-129l227 295h179zM391 -25q-143 0 -227 97l-47 -72h-131l118 176q-34 83 -34 213q0 98 19 221.5t63.5 262t106.5 252.5t158.5 189t209.5 75q139 0 227 -101l51 78h131l-123 -182q35 -96 35 -213q0 -67 -10 -150.5t-31.5 -179.5t-52.5 -189.5
t-77.5 -180t-101.5 -152t-128.5 -105t-155.5 -39.5zM612 1198q-66 0 -125 -78.5t-98.5 -197t-64.5 -241t-33 -228.5l428 634q-25 111 -107 111zM403 166q53 0 102 52t85.5 132.5t65.5 180.5t46 195t23 177l-426 -633q22 -104 104 -104z" />
    <glyph glyph-name="oslashacute" unicode="&#x1ff;" 
d="M872 1434l-276 -295h-129l227 295h178zM86 0h-119l105 135q-31 79 -31 184q0 87 18 181.5t55 186.5t88.5 164.5t125 117.5t157.5 45q132 0 207 -78l43 53h119l-109 -139q33 -81 33 -180q0 -87 -18 -181.5t-55 -186.5t-88.5 -164.5t-125 -117.5t-157.5 -45q-132 0 -207 78
zM475 844q-52 0 -97.5 -53t-74 -132.5t-46 -161.5t-21.5 -151l333 428q-25 70 -94 70zM346 145q51 0 95.5 52.5t73.5 131.5t46.5 160.5t20.5 149.5l-332 -428q24 -66 96 -66z" />
    <glyph glyph-name="Scommaaccent" unicode="&#x218;" horiz-adv-x="774" 
d="M330 -248q0 -87 -64 -174.5t-157 -134.5l-60 65q52 26 96.5 68t61.5 86q-2 -2 -17 -2q-33 0 -57 24.5t-24 63.5q0 47 35.5 82t80.5 35t75 -30t30 -83zM287 -25q-102 0 -192 41.5t-136 108.5l127 158q32 -52 88 -84.5t113 -32.5q74 0 129 61.5t55 161.5q0 52 -31 104.5
t-75.5 100.5t-88.5 100t-75 123t-31 150q0 176 116.5 299t278.5 123q82 0 160.5 -32.5t128.5 -90.5l-117 -158q-67 90 -174 90q-74 0 -121 -57.5t-47 -136.5q0 -48 30.5 -99t74 -100t87.5 -102.5t74.5 -126.5t30.5 -152q0 -189 -114.5 -319t-290.5 -130z" />
    <glyph glyph-name="scommaaccent" unicode="&#x219;" horiz-adv-x="677" 
d="M272 -248q0 -87 -64 -174.5t-157 -134.5l-59 65q52 26 96.5 68t61.5 86q-2 -2 -17 -2q-33 0 -57.5 24.5t-24.5 63.5q0 47 36 82t81 35t74.5 -30t29.5 -83zM252 -25q-98 0 -178.5 39.5t-116.5 102.5l109 125q30 -50 79 -81.5t111 -31.5q59 0 100 41.5t41 99.5
q0 41 -29.5 78.5t-71.5 70t-84 69t-71.5 91.5t-29.5 121q0 130 85 222t232 92q78 0 151.5 -34.5t118.5 -94.5l-104 -121q-21 40 -69 68t-101 28q-57 0 -92 -34.5t-35 -90.5q0 -27 16 -52.5t42 -48.5t57 -47t62.5 -52.5t57.5 -60t42 -75t16 -92.5q0 -137 -94.5 -234.5
t-243.5 -97.5z" />
    <glyph glyph-name="uni021A" unicode="&#x21a;" horiz-adv-x="708" 
d="M307 -248q0 -87 -64 -174.5t-157 -134.5l-59 65q52 26 96 68t61 86q-2 -2 -16 -2q-33 0 -57.5 24.5t-24.5 63.5q0 47 36 82t81 35t74.5 -30t29.5 -83zM350 0h-213l260 1178h-211l41 188h635l-41 -188h-211z" />
    <glyph glyph-name="uni021B" unicode="&#x21b;" horiz-adv-x="505" 
d="M201 -248q0 -87 -64 -174.5t-157 -134.5l-60 65q52 26 96.5 68t61.5 86q-2 -2 -17 -2q-33 0 -57 24.5t-24 63.5q0 47 35.5 82t80.5 35t75 -30t30 -83zM262 -25q-203 0 -203 164q0 35 11 80l135 602h-96l36 168h97l59 271h193l-60 -271h129l-39 -168h-127l-127 -569
q-8 -32 -8 -51q0 -56 57 -56q27 0 56 19l12 -154q-53 -35 -125 -35z" />
    <glyph glyph-name="uni0237" unicode="&#x237;" horiz-adv-x="397" 
d="M-115 -401q-102 0 -143 61l84 141q13 -32 51 -32q64 0 88 120l246 1100h192l-245 -1100q-35 -155 -96 -222.5t-177 -67.5z" />
    <glyph glyph-name="hsuperior" unicode="&#x2b0;" horiz-adv-x="614" 
d="M569 668h-143l100 454q6 24 6 35q0 49 -51 49q-56 0 -121 -96l-96 -442h-143l194 888h144l-72 -329q31 44 75.5 72t92.5 28q61 0 96 -30t35 -80q0 -4 -6 -52z" />
    <glyph glyph-name="uni02BC" unicode="&#x2bc;" horiz-adv-x="493" 
d="M551 1251q0 -102 -75.5 -204t-184.5 -156l-74 76q60 30 111.5 77t70.5 95h-18q-41 0 -70.5 29t-29.5 77q0 58 43.5 99.5t99.5 41.5q54 0 90.5 -36t36.5 -99z" />
    <glyph glyph-name="circumflex" unicode="&#x2c6;" horiz-adv-x="444" 
d="M586 1139h-105l-73 200l-152 -200h-115l197 295h178z" />
    <glyph glyph-name="caron" unicode="&#x2c7;" horiz-adv-x="444" 
d="M457 1139h-178l-72 295h106l70 -201l156 201h112z" />
    <glyph glyph-name="uni02C9" unicode="&#x2c9;" horiz-adv-x="520" 
d="M676 1210h-518l24 117h518z" />
    <glyph glyph-name="uni02CB" unicode="&#x2cb;" horiz-adv-x="335" 
d="M477 1139h-125l-145 295h174z" />
    <glyph glyph-name="breve" unicode="&#x2d8;" horiz-adv-x="499" 
d="M666 1249q-56 -59 -129 -93t-148 -34t-133.5 34t-89.5 93l102 72q17 -38 56 -60t84 -22q46 0 93 22t79 60z" />
    <glyph glyph-name="dotaccent" unicode="&#x2d9;" horiz-adv-x="274" 
d="M414 1253q0 -51 -37.5 -88t-87.5 -37q-43 0 -72 29t-29 72q0 49 38 86t89 37q42 0 70.5 -28.5t28.5 -70.5z" />
    <glyph glyph-name="ring" unicode="&#x2da;" horiz-adv-x="352" 
d="M330 1106q-70 0 -114 45.5t-44 116.5q0 78 59.5 137t137.5 59q69 0 113 -45t44 -116q0 -78 -59 -137.5t-137 -59.5zM338 1196q40 0 70 29t30 69q0 34 -22 57t-54 23q-40 0 -70 -29t-30 -69q0 -34 21.5 -57t54.5 -23z" />
    <glyph glyph-name="ogonek" unicode="&#x2db;" horiz-adv-x="303" 
d="M55 -229l76 -54q-58 -98 -154 -98q-64 0 -101.5 32t-37.5 95q0 166 211 305l70 -51q-178 -112 -178 -244q0 -22 12.5 -34.5t34.5 -12.5t40 17t27 45z" />
    <glyph glyph-name="tilde" unicode="&#x2dc;" horiz-adv-x="497" 
d="M494 1135q-35 0 -58.5 17.5t-34 42.5t-18.5 50t-20 42.5t-31 17.5q-48 0 -84 -158h-105q61 274 203 274q36 0 59.5 -17.5t34.5 -42.5t19 -50t20 -42.5t31 -17.5q48 0 84 158h104q-27 -125 -77.5 -199.5t-126.5 -74.5z" />
    <glyph glyph-name="hungarumlaut" unicode="&#x2dd;" horiz-adv-x="516" 
d="M471 1434l-227 -295h-107l178 295h156zM723 1434l-227 -295h-107l178 295h156z" />
    <glyph glyph-name="hookabovecomb" unicode="&#x309;" horiz-adv-x="303" 
d="M444 1501l-69 23q44 94 129 94q53 0 81.5 -27t28.5 -78q0 -78 -65 -147h-88q66 63 69 129q6 49 -32 49q-33 0 -54 -43z" />
    <glyph glyph-name="uni037E" unicode="&#x37e;" horiz-adv-x="489" 
d="M297 106q0 -102 -75.5 -204t-184.5 -156l-74 78q59 28 111 75t71 97q-2 -2 -18 -2q-41 0 -70.5 29t-29.5 77q0 58 43.5 100t99.5 42q54 0 90.5 -36.5t36.5 -99.5zM315 739q-51 0 -85.5 35t-34.5 86q0 59 42.5 101.5t100.5 42.5q51 0 86 -35.5t35 -85.5q0 -60 -42.5 -102
t-101.5 -42z" />
    <glyph glyph-name="tonos" unicode="&#x384;" 
d="M453 1149h-91l134 418h178z" />
    <glyph glyph-name="dieresistonos" unicode="&#x385;" 
d="M582 1149h-93l136 418h178zM954 1253q0 -47 -38 -83.5t-87 -36.5q-42 0 -70 28t-28 70q0 47 38 84t87 37q42 0 70 -28t28 -71zM434 1253q0 -47 -38 -83.5t-87 -36.5q-42 0 -70 28t-28 70q0 47 38 84t87 37q42 0 70 -28t28 -71z" />
    <glyph glyph-name="Alphatonos" unicode="&#x386;" horiz-adv-x="815" 
d="M276 1149h-90l133 418h179zM698 0h-213l15 279h-273l-106 -279h-225l579 1366h246zM514 467l35 655l-254 -655h219z" />
    <glyph glyph-name="Epsilontonos" unicode="&#x388;" horiz-adv-x="831" 
d="M227 1149h-90l133 418h179zM645 0h-559l301 1366h559l-41 -188h-346l-86 -387h332l-43 -189h-330l-92 -414h346z" />
    <glyph glyph-name="Etatonos" unicode="&#x389;" horiz-adv-x="1030" 
d="M227 1149h-90l133 418h179zM803 0h-215l135 608h-291l-133 -608h-213l301 1366h213l-125 -569h289l125 569h215z" />
    <glyph glyph-name="Iotatonos" unicode="&#x38a;" horiz-adv-x="526" 
d="M227 1149h-90l133 418h179zM299 0h-213l301 1366h213z" />
    <glyph glyph-name="Omicrontonos" unicode="&#x38c;" horiz-adv-x="976" 
d="M258 1149h-90l133 418h178zM428 -25q-82 0 -145 32t-101 89.5t-57 131t-19 161.5q0 98 19 221.5t63.5 262t107 252.5t159 189t209.5 75q82 0 144.5 -32.5t100.5 -90.5t57 -132.5t19 -162.5q0 -67 -10 -150.5t-31.5 -179.5t-52.5 -189.5t-77.5 -180t-101.5 -152
t-128.5 -105t-155.5 -39.5zM440 166q71 0 135.5 93.5t104.5 226.5t63 266t23 225q0 221 -117 221q-72 0 -136 -93.5t-103 -227.5t-61.5 -267.5t-22.5 -226.5q0 -217 114 -217z" />
    <glyph glyph-name="Upsilontonos" unicode="&#x38e;" horiz-adv-x="995" 
d="M215 1149h-90l133 418h178zM578 0h-213l124 571l-139 795h219l64 -584l323 584h236l-490 -795z" />
    <glyph glyph-name="Omegatonos" unicode="&#x38f;" horiz-adv-x="960" 
d="M258 1149h-90l133 418h178zM57 188h172q-100 128 -100 334q0 96 21.5 209.5t66 230t105 212t145.5 155.5t180 60q154 0 246 -94.5t92 -299.5q0 -258 -95.5 -475t-232.5 -332h152l-41 -188h-313l41 188q73 56 137 210.5t96.5 313t32.5 265.5q0 114 -26.5 166.5t-90.5 52.5
q-70 0 -132.5 -88t-101.5 -215.5t-62 -258.5t-23 -228q0 -152 47 -218l-41 -188h-316z" />
    <glyph glyph-name="iotadieresistonos" unicode="&#x390;" horiz-adv-x="419" 
d="M381 1149h-92l135 418h178zM754 1253q0 -47 -38 -83.5t-87 -36.5q-42 0 -70.5 28t-28.5 70q0 47 38 84t87 37q42 0 70.5 -28.5t28.5 -70.5zM233 1253q0 -47 -37.5 -83.5t-86.5 -36.5q-42 0 -70.5 28t-28.5 70q0 47 38 84t87 37q41 0 69.5 -28t28.5 -71zM188 -25
q-106 0 -141 57t-8 179l170 778h192l-165 -753q-11 -43 -3 -67t39 -24q6 0 31 5l-20 -162q-43 -13 -95 -13z" />
    <glyph glyph-name="Alpha" unicode="&#x391;" horiz-adv-x="815" 
d="M698 0h-213l15 279h-273l-106 -279h-225l579 1366h246zM514 467l35 655l-254 -655h219z" />
    <glyph glyph-name="Beta" unicode="&#x392;" horiz-adv-x="882" 
d="M412 0h-406l301 1366h297q143 0 223 -80.5t80 -206.5q0 -139 -74.5 -255.5t-195.5 -137.5q73 -22 110 -91t37 -153q0 -81 -23.5 -158t-67.5 -141t-117 -103.5t-164 -39.5zM502 791q56 0 98 42t61 97t19 110q0 68 -36.5 103t-100.5 35h-64l-86 -387h109zM375 188
q84 0 139 81t55 190q0 143 -139 143h-78l-92 -414h115z" />
    <glyph glyph-name="Gamma" unicode="&#x393;" horiz-adv-x="747" 
d="M219 0h-213l301 1366h559l-41 -188h-346z" />
    <glyph glyph-name="uni0394" unicode="&#x394;" horiz-adv-x="815" 
d="M698 0h-802l579 1366h246zM500 188l49 934l-363 -934h314z" />
    <glyph glyph-name="Epsilon" unicode="&#x395;" horiz-adv-x="751" 
d="M565 0h-559l301 1366h559l-41 -188h-346l-86 -387h332l-43 -189h-330l-92 -414h346z" />
    <glyph glyph-name="Zeta" unicode="&#x396;" horiz-adv-x="737" 
d="M565 0h-612l39 182l567 996h-346l41 188h598l-39 -174l-573 -1004h366z" />
    <glyph glyph-name="Eta" unicode="&#x397;" horiz-adv-x="948" 
d="M723 0h-215l135 608h-291l-133 -608h-213l301 1366h213l-125 -569h289l125 569h215z" />
    <glyph glyph-name="Theta" unicode="&#x398;" horiz-adv-x="940" 
d="M618 602h-253l41 189h253zM391 -25q-82 0 -144.5 32t-100.5 89.5t-57 131t-19 161.5q0 98 19 221.5t63.5 262t106.5 252.5t158.5 189t209.5 75q82 0 144.5 -32.5t100.5 -90.5t57 -132.5t19 -162.5q0 -67 -10 -150.5t-31.5 -179.5t-52.5 -189.5t-77.5 -180t-101.5 -152
t-128.5 -105t-155.5 -39.5zM403 166q71 0 135.5 93.5t104.5 226.5t63 266t23 225q0 221 -117 221q-72 0 -136 -93.5t-103 -227.5t-61.5 -267.5t-22.5 -226.5q0 -217 114 -217z" />
    <glyph glyph-name="Iota" unicode="&#x399;" horiz-adv-x="446" 
d="M219 0h-213l301 1366h213z" />
    <glyph glyph-name="Kappa" unicode="&#x39a;" horiz-adv-x="917" 
d="M795 0h-228l-137 557l-129 -180l-82 -377h-213l301 1366h213l-139 -635l440 635h248l-479 -645z" />
    <glyph glyph-name="Lambda" unicode="&#x39b;" horiz-adv-x="815" 
d="M698 0h-213l64 1122l-428 -1122h-225l579 1366h246z" />
    <glyph glyph-name="Mu" unicode="&#x39c;" horiz-adv-x="1210" 
d="M985 0h-211l201 911l-443 -911h-75l-35 911l-203 -911h-213l301 1366h273l32 -805l396 805h278z" />
    <glyph glyph-name="Nu" unicode="&#x39d;" horiz-adv-x="948" 
d="M723 0h-203l-117 838l-184 -838h-213l301 1366h213l109 -811l180 811h215z" />
    <glyph glyph-name="Xi" unicode="&#x39e;" horiz-adv-x="792" 
d="M862 1178h-637l41 188h637zM602 0h-635l41 188h635zM721 602h-606l41 189h606z" />
    <glyph glyph-name="Omicron" unicode="&#x39f;" horiz-adv-x="940" 
d="M391 -25q-82 0 -144.5 32t-100.5 89.5t-57 131t-19 161.5q0 98 19 221.5t63.5 262t106.5 252.5t158.5 189t209.5 75q82 0 144.5 -32.5t100.5 -90.5t57 -132.5t19 -162.5q0 -67 -10 -150.5t-31.5 -179.5t-52.5 -189.5t-77.5 -180t-101.5 -152t-128.5 -105t-155.5 -39.5z
M403 166q71 0 135.5 93.5t104.5 226.5t63 266t23 225q0 221 -117 221q-72 0 -136 -93.5t-103 -227.5t-61.5 -267.5t-22.5 -226.5q0 -217 114 -217z" />
    <glyph glyph-name="Pi" unicode="&#x3a0;" horiz-adv-x="948" 
d="M723 0h-215l260 1178h-291l-258 -1178h-213l301 1366h717z" />
    <glyph glyph-name="Rho" unicode="&#x3a1;" horiz-adv-x="856" 
d="M219 0h-213l301 1366h303q134 0 217.5 -92.5t83.5 -239.5q0 -77 -18 -150t-55.5 -139t-91 -115.5t-130.5 -78.5t-167 -29h-115zM375 711h90q53 0 96.5 27.5t70.5 72t41.5 97.5t14.5 108q0 79 -34.5 120.5t-92.5 41.5h-82z" />
    <glyph glyph-name="Sigma" unicode="&#x3a3;" horiz-adv-x="690" 
d="M432 1178l127 -488l-344 -502h340l-41 -188h-561l47 217l346 508l-127 473l37 168h559l-41 -188h-342z" />
    <glyph glyph-name="Tau" unicode="&#x3a4;" horiz-adv-x="708" 
d="M350 0h-213l260 1178h-211l41 188h635l-41 -188h-211z" />
    <glyph glyph-name="Upsilon" unicode="&#x3a5;" horiz-adv-x="829" 
d="M412 0h-213l125 571l-140 795h219l64 -584l324 584h235l-489 -795z" />
    <glyph glyph-name="Phi" unicode="&#x3a6;" horiz-adv-x="1280" 
d="M637 0h-215l33 141q-359 59 -359 437q0 83 22.5 167.5t71 167.5t118 149.5t171.5 111.5t223 55l31 137h215l-33 -145q357 -62 357 -435q0 -105 -37 -211.5t-108 -202t-190.5 -161t-268.5 -78.5zM322 578q0 -198 176 -244l159 698q-73 -14 -132 -49t-96 -81t-62 -102.5
t-35 -111t-10 -110.5zM1047 786q0 198 -177 244l-157 -698q89 18 156 66t104.5 113t55.5 134t18 141z" />
    <glyph glyph-name="Chi" unicode="&#x3a7;" horiz-adv-x="835" 
d="M725 0h-225l-78 494l-285 -494h-246l453 707l-135 659h225l64 -471l264 471h248l-432 -680z" />
    <glyph glyph-name="Psi" unicode="&#x3a8;" horiz-adv-x="1314" 
d="M653 0h-213l60 264q-161 24 -251.5 108.5t-90.5 233.5q0 69 18 146l141 614h215l-147 -647q-12 -58 -12 -94q3 -144 170 -174l209 915h213l-209 -915q226 41 280 268l148 647h215l-156 -684q-23 -98 -74.5 -176.5t-122.5 -130t-155.5 -81.5t-179.5 -38z" />
    <glyph glyph-name="uni03A9" unicode="&#x3a9;" horiz-adv-x="915" 
d="M12 188h172q-100 128 -100 334q0 96 21.5 209.5t66 230t105 212t145.5 155.5t180 60q154 0 246 -94.5t92 -299.5q0 -258 -95.5 -475t-232.5 -332h152l-41 -188h-313l41 188q73 56 137 210.5t96.5 313t32.5 265.5q0 114 -26.5 166.5t-90.5 52.5q-70 0 -132.5 -88
t-101.5 -215.5t-62 -258.5t-23 -228q0 -152 47 -218l-41 -188h-316z" />
    <glyph glyph-name="Iotadieresis" unicode="&#x3aa;" horiz-adv-x="446" 
d="M219 0h-213l301 1366h213zM739 1630q0 -47 -38 -84t-87 -37q-42 0 -70 28.5t-28 70.5q0 47 38 84t87 37q41 0 69.5 -28.5t28.5 -70.5zM426 1630q0 -47 -38 -84t-87 -37q-41 0 -69.5 28.5t-28.5 70.5q0 47 38 84t87 37q42 0 70 -28.5t28 -70.5z" />
    <glyph glyph-name="Upsilondieresis" unicode="&#x3ab;" horiz-adv-x="829" 
d="M412 0h-213l125 571l-140 795h219l64 -584l324 584h235l-489 -795zM932 1630q0 -47 -38 -84t-87 -37q-41 0 -69.5 28.5t-28.5 70.5q0 47 38 84t87 37q42 0 70 -28.5t28 -70.5zM618 1630q0 -47 -37.5 -84t-86.5 -37q-42 0 -70.5 28.5t-28.5 70.5q0 47 38 84t87 37
q42 0 70 -28.5t28 -70.5z" />
    <glyph glyph-name="alphatonos" unicode="&#x3ac;" horiz-adv-x="854" 
d="M602 1149h-90l133 418h178zM737 150l-20 -162q-43 -13 -92 -13q-95 0 -130 42t-30 124q-96 -166 -219 -166q-100 0 -154.5 81.5t-54.5 224.5q0 79 15 173t47 193.5t76.5 181t110.5 133.5t142 52q68 0 117.5 -39t70.5 -119l31 133h191l-166 -753q-11 -43 -3.5 -67
t38.5 -24q5 0 30 5zM340 145q40 0 81.5 40.5t67.5 97.5l95 422q-6 60 -39 99.5t-76 39.5q-56 0 -102.5 -61.5t-73.5 -151t-42 -177t-15 -151.5q0 -158 104 -158z" />
    <glyph glyph-name="epsilontonos" unicode="&#x3ad;" horiz-adv-x="749" 
d="M551 1149h-90l133 418h178zM285 -25q-135 0 -208 65.5t-73 174.5q0 111 76.5 192t183.5 99q-65 14 -103 70t-38 124q0 139 111.5 226.5t269.5 87.5q99 0 172.5 -40.5t109.5 -113.5l-120 -108q-47 106 -164 106q-85 0 -141 -46.5t-56 -125.5q0 -51 32.5 -79.5t92.5 -28.5
h150l-35 -156h-156q-34 0 -64.5 -7.5t-61 -25t-48.5 -54t-18 -87.5q0 -53 32 -85t90 -32q142 0 242 115l80 -119q-152 -152 -356 -152z" />
    <glyph glyph-name="etatonos" unicode="&#x3ae;" 
d="M586 1149h-90l133 418h178zM528 -377h-192l244 1104q6 30 6 45q0 72 -70 72q-47 0 -95 -43t-85 -105l-152 -696h-192l219 989h192l-28 -127q48 67 111.5 109.5t134.5 42.5q79 0 125.5 -43t46.5 -117q0 -34 -9 -61z" />
    <glyph glyph-name="iotatonos" unicode="&#x3af;" horiz-adv-x="419" 
d="M387 1149h-90l133 418h178zM188 -25q-106 0 -141 57t-8 179l170 778h192l-165 -753q-11 -43 -3 -67t39 -24q6 0 31 5l-20 -162q-43 -13 -95 -13z" />
    <glyph glyph-name="upsilondieresistonos" unicode="&#x3b0;" 
d="M582 1149h-93l136 418h178zM954 1253q0 -47 -38 -83.5t-87 -36.5q-42 0 -70 28t-28 70q0 47 38 84t87 37q42 0 70 -28t28 -71zM434 1253q0 -47 -38 -83.5t-87 -36.5q-42 0 -70 28t-28 70q0 47 38 84t87 37q42 0 70 -28t28 -71zM305 -25q-143 0 -209 95t-30 260l143 659
h192l-143 -659q-41 -185 74 -185q68 0 128 79.5t94 206t34 263.5q0 138 -29 254l195 66q37 -121 37 -301q0 -93 -16 -191t-54 -197t-92.5 -176t-138.5 -125.5t-185 -48.5z" />
    <glyph glyph-name="alpha" unicode="&#x3b1;" horiz-adv-x="854" 
d="M737 150l-20 -162q-43 -13 -92 -13q-95 0 -130 42t-30 124q-96 -166 -219 -166q-100 0 -154.5 81.5t-54.5 224.5q0 79 15 173t47 193.5t76.5 181t110.5 133.5t142 52q68 0 117.5 -39t70.5 -119l31 133h191l-166 -753q-11 -43 -3.5 -67t38.5 -24q5 0 30 5zM340 145
q40 0 81.5 40.5t67.5 97.5l95 422q-6 60 -39 99.5t-76 39.5q-56 0 -102.5 -61.5t-73.5 -151t-42 -177t-15 -151.5q0 -158 104 -158z" />
    <glyph glyph-name="beta" unicode="&#x3b2;" horiz-adv-x="831" 
d="M401 -25q-68 0 -118 39t-72 111l-109 -502h-192l289 1323q27 123 72 211.5t101 136.5t114 70t122 22q128 0 196 -66.5t68 -199.5q0 -137 -68 -257t-194 -156q66 -27 102 -92.5t36 -165.5q0 -123 -46 -232t-126.5 -175.5t-174.5 -66.5zM389 940l-143 -659q5 -58 34 -97
t74 -39q57 0 103.5 50.5t69 120.5t22.5 139q0 78 -28.5 117.5t-74.5 39.5h-34l37 170h26q83 0 137 89t54 216t-82 127q-132 0 -195 -274z" />
    <glyph glyph-name="gamma" unicode="&#x3b3;" horiz-adv-x="731" 
d="M268 -377h-192l59 268q66 329 54 602t-93 496h211q29 -118 43.5 -220.5t13.5 -231.5t-24 -261q83 140 154.5 332.5t111.5 380.5h193q-54 -239 -176 -500.5t-271 -472.5z" />
    <glyph glyph-name="delta" unicode="&#x3b4;" 
d="M319 -25q-76 0 -133 28.5t-89.5 78.5t-48 110t-15.5 130q0 177 79 308t232 247q-84 95 -84 208q0 131 97.5 218.5t244.5 87.5q179 0 260 -115l-110 -129q-21 40 -64 65t-98 25q-60 0 -102 -39t-42 -94q0 -39 32.5 -77.5t78.5 -79t92 -92t78.5 -136t32.5 -189.5
q0 -61 -17 -133t-54 -147t-87.5 -136t-124.5 -100t-158 -39zM575 516q0 82 -30.5 140.5t-85.5 111.5q-223 -178 -223 -434q0 -81 26.5 -135t85.5 -54q53 0 98 40.5t72 100t42 121t15 109.5z" />
    <glyph glyph-name="epsilon" unicode="&#x3b5;" horiz-adv-x="749" 
d="M285 -25q-135 0 -208 65.5t-73 174.5q0 111 76.5 192t183.5 99q-65 14 -103 70t-38 124q0 139 111.5 226.5t269.5 87.5q99 0 172.5 -40.5t109.5 -113.5l-120 -108q-47 106 -164 106q-85 0 -141 -46.5t-56 -125.5q0 -51 32.5 -79.5t92.5 -28.5h150l-35 -156h-156
q-34 0 -64.5 -7.5t-61 -25t-48.5 -54t-18 -87.5q0 -53 32 -85t90 -32q142 0 242 115l80 -119q-152 -152 -356 -152z" />
    <glyph glyph-name="zeta" unicode="&#x3b6;" horiz-adv-x="681" 
d="M334 -66q0 41 -51 41q-120 0 -190 89.5t-70 222.5q0 89 26 186t86 215t174.5 250.5t274.5 259.5h-353l37 168h545l-31 -141q-240 -200 -395.5 -446t-155.5 -447q0 -80 36.5 -133.5t109.5 -53.5q72 0 107.5 -33.5t35.5 -95.5q0 -123 -158 -338h-182q154 173 154 256z" />
    <glyph glyph-name="eta" unicode="&#x3b7;" 
d="M528 -377h-192l244 1104q6 30 6 45q0 72 -70 72q-47 0 -95 -43t-85 -105l-152 -696h-192l219 989h192l-28 -127q48 67 111.5 109.5t134.5 42.5q79 0 125.5 -43t46.5 -117q0 -34 -9 -61z" />
    <glyph glyph-name="theta" unicode="&#x3b8;" 
d="M338 -25q-129 0 -206 104.5t-77 305.5q0 130 23.5 270.5t69.5 271t107 234.5t142.5 167t169.5 63q129 0 205 -105.5t76 -306.5q0 -129 -23.5 -269t-69 -270.5t-106.5 -234.5t-142 -167t-169 -63zM348 145q38 0 74.5 38t68 104t57.5 144.5t48 170.5h-322
q-28 -170 -28 -272q0 -91 23 -138t79 -47zM555 1221q-37 0 -74 -37.5t-68 -103t-56.5 -142.5t-47.5 -168h320q28 162 28 264q0 92 -22.5 139.5t-79.5 47.5z" />
    <glyph glyph-name="iota" unicode="&#x3b9;" horiz-adv-x="419" 
d="M188 -25q-106 0 -141 57t-8 179l170 778h192l-165 -753q-11 -43 -3 -67t39 -24q6 0 31 5l-20 -162q-43 -13 -95 -13z" />
    <glyph glyph-name="kappa" unicode="&#x3ba;" horiz-adv-x="788" 
d="M657 0h-204l-74 424l-143 -184l-52 -240h-192l219 989h192l-108 -483l362 483h215l-340 -440z" />
    <glyph glyph-name="lambda" unicode="&#x3bb;" horiz-adv-x="731" 
d="M268 1208l6 168q47 15 103 15q98 0 144 -45t52 -164l37 -1182h-198l18 745l-321 -745h-209l483 1016v125q-3 43 -18.5 61.5t-49.5 18.5q-24 0 -47 -13z" />
    <glyph glyph-name="uni03BC" unicode="&#x3bc;" horiz-adv-x="845" 
d="M188 14l-86 -391h-192l301 1366h192l-161 -731q-12 -55 4.5 -85t58.5 -30q47 0 93.5 40.5t82.5 101.5l156 704h192l-167 -753q-11 -43 -3 -67t39 -24q6 0 31 5l-20 -162q-43 -13 -95 -13q-88 0 -119.5 41.5t-23.5 133.5q-37 -80 -91.5 -127.5t-109.5 -47.5q-54 0 -82 39z
" />
    <glyph glyph-name="nu" unicode="&#x3bd;" horiz-adv-x="731" 
d="M342 0h-192l-33 989h205l-15 -772q101 168 179.5 373.5t119.5 398.5h193q-54 -243 -179 -509.5t-278 -479.5z" />
    <glyph glyph-name="xi" unicode="&#x3be;" horiz-adv-x="681" 
d="M289 -25q-126 0 -198.5 81.5t-72.5 209.5q0 148 75 254.5t206 149.5q-67 18 -100 76t-33 135q0 95 57.5 178t159.5 139h-137l37 168h514l-37 -168h-240q-68 -40 -108.5 -110.5t-40.5 -149.5q0 -76 34 -116t95 -40h153l-37 -168h-153q-94 0 -165 -80t-71 -215
q0 -72 36.5 -123t113.5 -51q72 0 107.5 -33.5t35.5 -95.5q0 -123 -158 -338h-172q144 179 144 256q0 41 -45 41z" />
    <glyph glyph-name="omicron" unicode="&#x3bf;" 
d="M334 -25q-140 0 -216.5 89t-76.5 255q0 87 18 181.5t55 186.5t88.5 164.5t125 117.5t157.5 45q141 0 217 -88.5t76 -255.5q0 -87 -18 -181.5t-55 -186.5t-88.5 -164.5t-125 -117.5t-157.5 -45zM346 145q54 0 101.5 59.5t76 145.5t44.5 172.5t16 149.5q0 172 -109 172
q-55 0 -102.5 -59.5t-76 -146t-44.5 -173.5t-16 -150q0 -92 28 -131t82 -39z" />
    <glyph glyph-name="pi" unicode="&#x3c0;" horiz-adv-x="884" 
d="M641 0h-192l180 821h-234l-180 -821h-192l180 821h-97l37 168h811l-36 -168h-97z" />
    <glyph glyph-name="rho" unicode="&#x3c1;" horiz-adv-x="831" 
d="M401 -25q-144 0 -188 158l-111 -510h-192l190 873q50 229 162 373.5t266 144.5q129 0 197 -86.5t68 -235.5q0 -74 -15 -165t-47 -189t-76.5 -178.5t-111 -132.5t-142.5 -52zM362 145q55 0 101.5 62t73.5 151t42 177t15 151q0 79 -23.5 118.5t-64.5 39.5q-69 0 -124 -94.5
t-89 -253.5l-45 -211q3 -56 36.5 -98t77.5 -42z" />
    <glyph glyph-name="sigma1" unicode="&#x3c2;" horiz-adv-x="669" 
d="M281 -25q-93 0 -165.5 95t-72.5 262q0 88 18.5 181.5t57 183t91 160t127 114t159.5 43.5q73 0 134 -27.5t97 -73.5l-96 -143q-42 74 -123 74q-61 0 -113.5 -51.5t-84.5 -129t-50 -161.5t-18 -156q0 -100 37.5 -150.5t93.5 -50.5q143 0 143 -127q0 -125 -158 -340h-178
q156 173 156 256q0 41 -55 41z" />
    <glyph glyph-name="sigma" unicode="&#x3c3;" 
d="M762 610q0 -60 -12 -128t-34.5 -140t-59 -137t-82 -117t-108 -82.5t-132.5 -30.5q-140 0 -216.5 89t-76.5 255q0 89 19 181.5t59.5 180t96.5 156.5t136.5 110.5t173.5 41.5h373l-39 -170h-147q49 -82 49 -209zM580 651q0 116 -29 168h-47q-63 0 -116.5 -52.5t-85 -131.5
t-49 -163.5t-17.5 -156.5q0 -92 28 -131t82 -39t101 59t74.5 143.5t43 166t15.5 137.5z" />
    <glyph glyph-name="tau" unicode="&#x3c4;" horiz-adv-x="593" 
d="M287 -25q-107 0 -142 57t-8 179l133 610h-170l37 168h533l-37 -168h-170l-127 -575q-12 -51 -4 -76t39 -25q36 0 67 31l15 -147q-67 -54 -166 -54z" />
    <glyph glyph-name="upsilon" unicode="&#x3c5;" 
d="M305 -25q-143 0 -209 95t-30 260l143 659h192l-143 -659q-41 -185 74 -185q68 0 128 79.5t94 206t34 263.5q0 138 -29 254l195 66q37 -121 37 -301q0 -93 -16 -191t-54 -197t-92.5 -176t-138.5 -125.5t-185 -48.5z" />
    <glyph glyph-name="phi" unicode="&#x3c6;" horiz-adv-x="1177" 
d="M1133 612q0 -77 -21 -157.5t-66 -161t-109.5 -145.5t-159 -111t-206.5 -57l-77 -357h-193l78 363q-171 27 -252.5 133t-81.5 264q0 93 23 181.5t71 172.5t130 156t192 121l53 -150q-128 -65 -197 -191.5t-69 -271.5q0 -206 170 -245l188 858h94q111 0 196 -31.5
t135.5 -87t76 -127t25.5 -156.5zM760 836l-150 -680q74 16 132.5 57.5t92.5 91t56.5 107t30.5 102t8 80.5q0 100 -42.5 165t-127.5 77z" />
    <glyph glyph-name="chi" unicode="&#x3c7;" horiz-adv-x="720" 
d="M514 -377h-197l-34 496l-254 -496h-207l377 688l-68 678h195l30 -481l240 481h205l-365 -678z" />
    <glyph glyph-name="psi" unicode="&#x3c8;" horiz-adv-x="1179" 
d="M494 -377h-193l80 363q-146 24 -225.5 104.5t-79.5 214.5q0 65 20 170l113 514h190l-116 -538q-17 -70 -17 -129q3 -143 152 -170l266 1214h193l-267 -1212q100 20 166.5 89.5t97.5 207.5l117 538h193l-125 -565q-46 -206 -175 -318.5t-313 -128.5z" />
    <glyph glyph-name="omega" unicode="&#x3c9;" horiz-adv-x="1249" 
d="M1204 647q0 -70 -15.5 -155.5t-50 -177.5t-82 -167t-119.5 -123.5t-155 -48.5q-102 0 -160.5 63t-58.5 177q-50 -116 -124.5 -178t-164.5 -62q-115 0 -177 94.5t-62 239.5q0 220 102.5 420t255.5 285l117 -109q-83 -47 -147.5 -146t-97 -213.5t-32.5 -223.5
q0 -76 20.5 -126.5t61.5 -50.5q132 0 211 351l56 252h192l-55 -252q-79 -351 55 -351q50 0 94.5 56.5t72.5 136.5t44 159.5t16 133.5q0 85 -19.5 162.5t-61.5 111.5l161 109q60 -43 91.5 -147t31.5 -220z" />
    <glyph glyph-name="iotadieresis" unicode="&#x3ca;" horiz-adv-x="419" 
d="M643 1253q0 -47 -38 -83.5t-87 -36.5q-42 0 -70 28t-28 70q0 47 38 84t87 37q41 0 69.5 -28t28.5 -71zM330 1253q0 -47 -38 -83.5t-87 -36.5q-42 0 -70.5 28t-28.5 70q0 47 38 84t87 37q42 0 70.5 -28.5t28.5 -70.5zM188 -25q-106 0 -141 57t-8 179l170 778h192
l-165 -753q-11 -43 -3 -67t39 -24q6 0 31 5l-20 -162q-43 -13 -95 -13z" />
    <glyph glyph-name="upsilondieresis" unicode="&#x3cb;" 
d="M844 1253q0 -47 -38 -83.5t-87 -36.5q-42 0 -70 28t-28 70q0 47 37.5 84t86.5 37q42 0 70.5 -28.5t28.5 -70.5zM530 1253q0 -47 -37.5 -83.5t-86.5 -36.5q-42 0 -70.5 28t-28.5 70q0 47 38 84t87 37q42 0 70 -28t28 -71zM305 -25q-143 0 -209 95t-30 260l143 659h192
l-143 -659q-41 -185 74 -185q68 0 128 79.5t94 206t34 263.5q0 138 -29 254l195 66q37 -121 37 -301q0 -93 -16 -191t-54 -197t-92.5 -176t-138.5 -125.5t-185 -48.5z" />
    <glyph glyph-name="omicrontonos" unicode="&#x3cc;" 
d="M586 1149h-90l133 418h178zM334 -25q-140 0 -216.5 89t-76.5 255q0 87 18 181.5t55 186.5t88.5 164.5t125 117.5t157.5 45q141 0 217 -88.5t76 -255.5q0 -87 -18 -181.5t-55 -186.5t-88.5 -164.5t-125 -117.5t-157.5 -45zM346 145q54 0 101.5 59.5t76 145.5t44.5 172.5
t16 149.5q0 172 -109 172q-55 0 -102.5 -59.5t-76 -146t-44.5 -173.5t-16 -150q0 -92 28 -131t82 -39z" />
    <glyph glyph-name="upsilontonos" unicode="&#x3cd;" 
d="M588 1149h-90l133 418h178zM305 -25q-143 0 -209 95t-30 260l143 659h192l-143 -659q-41 -185 74 -185q68 0 128 79.5t94 206t34 263.5q0 138 -29 254l195 66q37 -121 37 -301q0 -93 -16 -191t-54 -197t-92.5 -176t-138.5 -125.5t-185 -48.5z" />
    <glyph glyph-name="omegatonos" unicode="&#x3ce;" horiz-adv-x="1249" 
d="M801 1149h-90l133 418h178zM1204 647q0 -70 -15.5 -155.5t-50 -177.5t-82 -167t-119.5 -123.5t-155 -48.5q-102 0 -160.5 63t-58.5 177q-50 -116 -124.5 -178t-164.5 -62q-115 0 -177 94.5t-62 239.5q0 220 102.5 420t255.5 285l117 -109q-83 -47 -147.5 -146t-97 -213.5
t-32.5 -223.5q0 -76 20.5 -126.5t61.5 -50.5q132 0 211 351l56 252h192l-55 -252q-79 -351 55 -351q50 0 94.5 56.5t72.5 136.5t44 159.5t16 133.5q0 85 -19.5 162.5t-61.5 111.5l161 109q60 -43 91.5 -147t31.5 -220z" />
    <glyph glyph-name="afii10023" unicode="&#x401;" horiz-adv-x="751" 
d="M903 1595q0 -47 -38 -83.5t-87 -36.5q-42 0 -70 28t-28 70q0 47 38 84t87 37q41 0 69.5 -28t28.5 -71zM590 1595q0 -47 -38 -83.5t-87 -36.5q-42 0 -70 28t-28 70q0 47 38 84t87 37q42 0 70 -28t28 -71zM565 0h-559l301 1366h559l-41 -188h-346l-86 -387h332l-43 -189
h-330l-92 -414h346z" />
    <glyph glyph-name="afii10051" unicode="&#x402;" horiz-adv-x="1054" 
d="M487 -25l41 191q78 0 137 49.5t85 163.5l10 43q22 104 -19.5 168.5t-134.5 64.5q-71 0 -112 -10l-142 -645h-215l260 1178h-211l41 188h635l-41 -188h-211l-75 -344q78 10 145 10q91 0 158 -34.5t100.5 -92.5t44.5 -134.5t-10 -160.5l-10 -43q-24 -108 -73 -188.5
t-114.5 -126.5t-137 -67.5t-151.5 -21.5z" />
    <glyph glyph-name="afii10052" unicode="&#x403;" horiz-adv-x="747" 
d="M946 1776l-276 -295h-129l227 295h178zM219 0h-213l301 1366h559l-41 -188h-346z" />
    <glyph glyph-name="afii10053" unicode="&#x404;" horiz-adv-x="843" 
d="M391 -25q-154 0 -237.5 107.5t-83.5 306.5q0 69 9.5 153t31 180.5t52.5 190t77 180t101 152t129 105t157 39.5q77 0 136 -30t93 -82t52 -113.5t22 -133.5l-199 -39q-13 207 -119 207q-44 0 -84 -33.5t-73 -92.5t-59 -128.5t-48 -152.5h377l-43 -189h-373
q-20 -126 -20 -219q0 -115 28 -166t86 -51q49 0 93 42.5t88 127.5l170 -74q-140 -287 -363 -287z" />
    <glyph glyph-name="afii10054" unicode="&#x405;" horiz-adv-x="774" 
d="M287 -25q-102 0 -192 41.5t-136 108.5l127 158q32 -52 88 -84.5t113 -32.5q74 0 129 61.5t55 161.5q0 52 -31 104.5t-75.5 100.5t-88.5 100t-75 123t-31 150q0 176 116.5 299t278.5 123q82 0 160.5 -32.5t128.5 -90.5l-117 -158q-67 90 -174 90q-74 0 -121 -57.5
t-47 -136.5q0 -48 30.5 -99t74 -100t87.5 -102.5t74.5 -126.5t30.5 -152q0 -189 -114.5 -319t-290.5 -130z" />
    <glyph glyph-name="afii10055" unicode="&#x406;" horiz-adv-x="446" 
d="M219 0h-213l301 1366h213z" />
    <glyph glyph-name="afii10056" unicode="&#x407;" horiz-adv-x="446" 
d="M733 1595q0 -47 -38 -83.5t-87 -36.5q-42 0 -70 28t-28 70q0 47 38 84t87 37q41 0 69.5 -28t28.5 -71zM420 1595q0 -47 -38 -83.5t-87 -36.5q-42 0 -70 28t-28 70q0 47 38 84t87 37q42 0 70 -28t28 -71zM219 0h-213l301 1366h213z" />
    <glyph glyph-name="afii10057" unicode="&#x408;" horiz-adv-x="690" 
d="M168 -25q-74 0 -139 24.5t-105 70.5l92 168q24 -35 61 -53.5t75 -18.5q69 0 110 39t60 125l231 1036h213l-231 -1047q-40 -180 -127.5 -262t-239.5 -82z" />
    <glyph glyph-name="afii10058" unicode="&#x409;" horiz-adv-x="1359" 
d="M-72 -25l41 191q30 0 51 7.5t47 33.5t50 75t54 132.5t65 206.5l215 745h573l-115 -522h88q136 0 219.5 -92.5t83.5 -239.5q0 -97 -29 -187t-84.5 -163.5t-145 -117.5t-201.5 -44h-330l260 1178h-162l-159 -560q-40 -138 -80.5 -242.5t-82.5 -174t-82.5 -115t-87.5 -69.5
t-90 -33t-98 -9zM950 655h-82l-104 -467h90q70 0 122.5 47.5t76.5 115.5t24 143q0 79 -34.5 120t-92.5 41z" />
    <glyph glyph-name="afii10059" unicode="&#x40a;" horiz-adv-x="1359" 
d="M815 0h-330l136 608h-291l-135 -608h-211l299 1366h213l-125 -569h291l124 569h213l-125 -569h91q135 0 218 -88t83 -234q0 -87 -30.5 -171t-86 -152t-143 -110t-191.5 -42zM915 608h-81l-95 -420h90q90 0 151.5 84t61.5 185q0 151 -127 151z" />
    <glyph glyph-name="afii10060" unicode="&#x40b;" horiz-adv-x="1054" 
d="M641 0l94 422q23 108 -8 170.5t-121 62.5q-71 0 -112 -10l-142 -645h-215l260 1178h-211l41 188h635l-41 -188h-211l-75 -344q78 10 145 10q91 0 154.5 -34.5t92 -92.5t35.5 -134.5t-14 -160.5l-94 -422h-213z" />
    <glyph glyph-name="afii10061" unicode="&#x40c;" horiz-adv-x="917" 
d="M1006 1776l-277 -295h-129l227 295h179zM795 0h-228l-137 557l-129 -180l-82 -377h-213l301 1366h213l-139 -635l440 635h248l-479 -645z" />
    <glyph glyph-name="afii10062" unicode="&#x40e;" horiz-adv-x="829" 
d="M66 -25q-106 0 -181 60l88 176q38 -41 109 -41q68 0 113 82l84 156l-97 958h224l51 -643l336 643h231l-639 -1182q-64 -116 -141 -162.5t-178 -46.5zM895 1591q-56 -59 -129 -93t-148 -34t-133.5 34t-89.5 93l103 72q17 -38 55.5 -60t83.5 -22q46 0 93 22t79 60z" />
    <glyph glyph-name="afii10145" unicode="&#x40f;" horiz-adv-x="948" 
d="M201 -262l57 262h-252l301 1366h213l-258 -1178h291l258 1178h213l-301 -1366h-252l-57 -262h-213z" />
    <glyph glyph-name="afii10017" unicode="&#x410;" horiz-adv-x="815" 
d="M698 0h-213l15 279h-273l-106 -279h-225l579 1366h246zM514 467l35 655l-254 -655h219z" />
    <glyph glyph-name="afii10018" unicode="&#x411;" horiz-adv-x="856" 
d="M307 1366h621l-41 -188h-408l-73 -334h90q134 0 217.5 -92.5t83.5 -239.5q0 -77 -18 -150t-55.5 -139t-91 -115.5t-130 -78.5t-166.5 -29h-330zM446 655h-81l-105 -467h90q70 0 122.5 47.5t76.5 115.5t24 143q0 79 -34.5 120t-92.5 41z" />
    <glyph glyph-name="afii10019" unicode="&#x412;" horiz-adv-x="882" 
d="M412 0h-406l301 1366h297q143 0 223 -80.5t80 -206.5q0 -139 -74.5 -255.5t-195.5 -137.5q73 -22 110 -91t37 -153q0 -81 -23.5 -158t-67.5 -141t-117 -103.5t-164 -39.5zM502 791q56 0 98 42t61 97t19 110q0 68 -36.5 103t-100.5 35h-64l-86 -387h109zM375 188
q84 0 139 81t55 190q0 143 -139 143h-78l-92 -414h115z" />
    <glyph glyph-name="afii10020" unicode="&#x413;" horiz-adv-x="747" 
d="M219 0h-213l301 1366h559l-41 -188h-346z" />
    <glyph glyph-name="afii10021" unicode="&#x414;" horiz-adv-x="974" 
d="M-131 -252l90 418q29 6 45 12.5t41 24t44.5 50t45.5 86t54 137.5t61 198l199 692h573l-260 -1178h117l-99 -440h-213l56 252h-488l-55 -252h-211zM606 1178l-149 -521q-94 -324 -230 -469h322l219 990h-162z" />
    <glyph glyph-name="afii10022" unicode="&#x415;" horiz-adv-x="751" 
d="M565 0h-559l301 1366h559l-41 -188h-346l-86 -387h332l-43 -189h-330l-92 -414h346z" />
    <glyph glyph-name="afii10024" unicode="&#x416;" horiz-adv-x="1265" 
d="M156 0h-252l522 721l-197 645h224l139 -563l125 563h213l-113 -510l352 510h248l-479 -645l205 -721h-234l-125 563l-47 -63l-108 -500h-213l110 500l-12 41z" />
    <glyph glyph-name="afii10025" unicode="&#x417;" horiz-adv-x="856" 
d="M356 -25q-133 0 -236.5 71.5t-137.5 203.5l176 104q21 -91 71 -139.5t115 -48.5q63 0 112.5 45t72 105.5t22.5 119.5q0 166 -158 166h-135l43 189h131q80 0 135 41t78 99.5t23 127.5q0 62 -36 99.5t-102 37.5q-56 0 -109.5 -34.5t-90.5 -92.5l-119 125q67 86 157.5 139
t196.5 53q149 0 241.5 -75.5t92.5 -212.5q0 -141 -99.5 -262.5t-226.5 -141.5q99 -24 146 -97t47 -161q0 -120 -52.5 -225.5t-147.5 -170.5t-210 -65z" />
    <glyph glyph-name="afii10026" unicode="&#x418;" horiz-adv-x="948" 
d="M209 0h-203l301 1366h215l-180 -811l469 811h213l-301 -1366h-213l182 838z" />
    <glyph glyph-name="afii10027" unicode="&#x419;" horiz-adv-x="948" 
d="M209 0h-203l301 1366h215l-180 -811l469 811h213l-301 -1366h-213l182 838zM958 1591q-56 -59 -128.5 -93t-147.5 -34t-133.5 34t-89.5 93l102 72q17 -38 55.5 -60t83.5 -22q46 0 93 22t79 60z" />
    <glyph glyph-name="afii10028" unicode="&#x41a;" horiz-adv-x="917" 
d="M795 0h-228l-137 557l-129 -180l-82 -377h-213l301 1366h213l-139 -635l440 635h248l-479 -645z" />
    <glyph glyph-name="afii10029" unicode="&#x41b;" horiz-adv-x="948" 
d="M-76 -25l41 191q39 0 65.5 13.5t59.5 59.5t68 141.5t80 252.5l211 733h573l-299 -1366h-215l258 1178h-160l-160 -560q-39 -138 -79.5 -242.5t-82.5 -174t-82.5 -115t-88 -69.5t-91 -33t-98.5 -9z" />
    <glyph glyph-name="afii10030" unicode="&#x41c;" horiz-adv-x="1210" 
d="M985 0h-211l201 911l-443 -911h-75l-35 911l-203 -911h-213l301 1366h273l32 -805l396 805h278z" />
    <glyph glyph-name="afii10031" unicode="&#x41d;" horiz-adv-x="948" 
d="M723 0h-215l135 608h-291l-133 -608h-213l301 1366h213l-125 -569h289l125 569h215z" />
    <glyph glyph-name="afii10032" unicode="&#x41e;" horiz-adv-x="940" 
d="M391 -25q-82 0 -144.5 32t-100.5 89.5t-57 131t-19 161.5q0 98 19 221.5t63.5 262t106.5 252.5t158.5 189t209.5 75q82 0 144.5 -32.5t100.5 -90.5t57 -132.5t19 -162.5q0 -67 -10 -150.5t-31.5 -179.5t-52.5 -189.5t-77.5 -180t-101.5 -152t-128.5 -105t-155.5 -39.5z
M403 166q71 0 135.5 93.5t104.5 226.5t63 266t23 225q0 221 -117 221q-72 0 -136 -93.5t-103 -227.5t-61.5 -267.5t-22.5 -226.5q0 -217 114 -217z" />
    <glyph glyph-name="afii10033" unicode="&#x41f;" horiz-adv-x="948" 
d="M723 0h-215l260 1178h-291l-258 -1178h-213l301 1366h717z" />
    <glyph glyph-name="afii10034" unicode="&#x420;" horiz-adv-x="856" 
d="M219 0h-213l301 1366h303q134 0 217.5 -92.5t83.5 -239.5q0 -77 -18 -150t-55.5 -139t-91 -115.5t-130.5 -78.5t-167 -29h-115zM375 711h90q53 0 96.5 27.5t70.5 72t41.5 97.5t14.5 108q0 79 -34.5 120.5t-92.5 41.5h-82z" />
    <glyph glyph-name="afii10035" unicode="&#x421;" horiz-adv-x="843" 
d="M391 -25q-154 0 -237.5 107.5t-83.5 306.5q0 69 9.5 153t31 180.5t52.5 190t77 180t101 152t129 105t157 39.5q77 0 136 -30t93 -82t52 -113.5t22 -133.5l-199 -39q-13 207 -119 207q-73 0 -137.5 -96t-103 -232t-60.5 -268t-22 -219q0 -115 28 -166t86 -51q49 0 93 42.5
t88 127.5l170 -74q-140 -287 -363 -287z" />
    <glyph glyph-name="afii10036" unicode="&#x422;" horiz-adv-x="708" 
d="M350 0h-213l260 1178h-211l41 188h635l-41 -188h-211z" />
    <glyph glyph-name="afii10037" unicode="&#x423;" horiz-adv-x="829" 
d="M66 -25q-106 0 -181 60l88 176q38 -41 109 -41q68 0 113 82l84 156l-97 958h224l51 -643l336 643h231l-639 -1182q-64 -116 -141 -162.5t-178 -46.5z" />
    <glyph glyph-name="afii10038" unicode="&#x424;" horiz-adv-x="1280" 
d="M637 0h-215l33 141q-359 59 -359 437q0 83 22.5 167.5t71 167.5t118 149.5t171.5 111.5t223 55l31 137h215l-33 -145q357 -62 357 -435q0 -105 -37 -211.5t-108 -202t-190.5 -161t-268.5 -78.5zM322 578q0 -198 176 -244l159 698q-73 -14 -132 -49t-96 -81t-62 -102.5
t-35 -111t-10 -110.5zM1047 786q0 198 -177 244l-157 -698q89 18 156 66t104.5 113t55.5 134t18 141z" />
    <glyph glyph-name="afii10039" unicode="&#x425;" horiz-adv-x="835" 
d="M725 0h-225l-78 494l-285 -494h-246l453 707l-135 659h225l64 -471l264 471h248l-432 -680z" />
    <glyph glyph-name="afii10040" unicode="&#x426;" horiz-adv-x="974" 
d="M569 -252l56 252h-619l301 1366h213l-258 -1178h291l258 1178h213l-260 -1178h117l-99 -440h-213z" />
    <glyph glyph-name="afii10041" unicode="&#x427;" horiz-adv-x="921" 
d="M494 1366l-93 -422q-24 -107 7 -170t122 -63q67 0 111 10l141 645h215l-301 -1366h-215l117 532q-78 -10 -143 -10q-91 0 -154.5 34.5t-92 92.5t-35.5 134.5t15 160.5l93 422h213z" />
    <glyph glyph-name="afii10042" unicode="&#x428;" horiz-adv-x="1347" 
d="M1210 1366h213l-301 -1366h-1118l301 1366h213l-258 -1178h240l258 1178h213l-258 -1178h239z" />
    <glyph glyph-name="afii10043" unicode="&#x429;" horiz-adv-x="1374" 
d="M1210 1366h213l-260 -1178h107l-99 -440h-213l56 252h-1010l301 1366h213l-258 -1178h240l258 1178h213l-258 -1178h239z" />
    <glyph glyph-name="afii10044" unicode="&#x42a;" horiz-adv-x="987" 
d="M467 0h-330l258 1178h-209l41 188h424l-114 -522h90q134 0 217.5 -92.5t83.5 -239.5q0 -77 -18 -150t-55.5 -139t-91 -115.5t-130 -78.5t-166.5 -29zM578 655h-82l-105 -467h90q70 0 122.5 47.5t77 115.5t24.5 143q0 79 -34.5 120t-92.5 41z" />
    <glyph glyph-name="afii10045" unicode="&#x42b;" horiz-adv-x="1249" 
d="M1024 0h-213l301 1366h213zM307 1366h213l-114 -522h90q134 0 217.5 -92.5t83.5 -239.5q0 -77 -18 -150t-55.5 -139t-91 -115.5t-130 -78.5t-166.5 -29h-330zM446 655h-81l-105 -467h90q70 0 122.5 47.5t76.5 115.5t24 143q0 79 -34.5 120t-92.5 41z" />
    <glyph glyph-name="afii10046" unicode="&#x42c;" horiz-adv-x="856" 
d="M307 1366h213l-114 -522h90q134 0 217.5 -92.5t83.5 -239.5q0 -77 -18 -150t-55.5 -139t-91 -115.5t-130 -78.5t-166.5 -29h-330zM446 655h-81l-105 -467h90q70 0 122.5 47.5t76.5 115.5t24 143q0 79 -34.5 120t-92.5 41z" />
    <glyph glyph-name="afii10047" unicode="&#x42d;" horiz-adv-x="843" 
d="M530 1389q154 0 238 -107.5t84 -306.5q0 -69 -9.5 -153t-31 -180.5t-52.5 -190t-77 -180t-101 -152t-129 -105t-157 -39.5q-77 0 -136 30t-93 82t-52 113.5t-22 133.5l198 39q13 -207 119 -207q45 0 87 36.5t76 100t60.5 138t47.5 161.5h-377l43 189h368q19 117 19 190
q0 115 -28.5 166t-86.5 51q-49 0 -92 -42.5t-88 -127.5l-170 74q69 141 157 214t205 73z" />
    <glyph glyph-name="afii10048" unicode="&#x42e;" horiz-adv-x="1355" 
d="M809 -25q-82 0 -145 32t-101 89.5t-57 131t-19 161.5q0 86 19 219h-152l-135 -608h-213l301 1366h213l-125 -569h152q31 117 74.5 216.5t104 187t142.5 138t176 50.5q82 0 145 -33t101 -90.5t57 -132t19 -162.5q0 -67 -10 -150.5t-31.5 -179.5t-52.5 -189.5t-77.5 -180
t-101.5 -152t-128.5 -105t-155.5 -39.5zM821 166q71 0 135.5 93.5t104.5 226.5t63 266t23 225q0 221 -117 221q-72 0 -136 -93.5t-103 -227.5t-61.5 -267.5t-22.5 -226.5q0 -217 114 -217z" />
    <glyph glyph-name="afii10049" unicode="&#x42f;" horiz-adv-x="897" 
d="M213 0h-246l328 584q-48 39 -81.5 106.5t-33.5 163.5q0 97 29.5 187t85 163.5t146 117.5t202.5 44h328l-301 -1366h-213l116 522h-86zM530 711h82l105 467h-90q-70 0 -122.5 -47.5t-77 -115.5t-24.5 -143q0 -79 34.5 -120t92.5 -41z" />
    <glyph glyph-name="afii10065" unicode="&#x430;" horiz-adv-x="831" 
d="M428 1014q68 0 117.5 -39t70.5 -119l31 133h191l-220 -989h-192l29 123q-91 -148 -209 -148q-101 0 -155 78.5t-54 227.5q0 79 15 173t47 193.5t76.5 181t110.5 133.5t142 52zM469 844q-56 0 -102.5 -61.5t-73.5 -151t-42 -177t-15 -151.5q0 -158 104 -158
q40 0 81.5 40.5t67.5 97.5l95 422q-6 60 -39 99.5t-76 39.5z" />
    <glyph glyph-name="afii10066" unicode="&#x431;" 
d="M346 145q54 0 101.5 59.5t76 145.5t44.5 172.5t16 149.5q0 172 -109 172q-55 0 -102.5 -59.5t-76 -146t-44.5 -173.5t-16 -150q0 -92 28 -131t82 -39zM334 -25q-140 0 -216.5 89t-76.5 255q0 177 102 521q102 354 465 432q52 12 80.5 32t36.5 62h193q-12 -55 -40.5 -99
t-59.5 -70.5t-75.5 -47.5t-75.5 -30.5t-73 -18.5q-127 -29 -196.5 -79.5t-102.5 -146.5q41 62 107 101t147 39q98 0 163.5 -91.5t65.5 -252.5q0 -87 -18 -181.5t-55 -186.5t-88.5 -164.5t-125 -117.5t-157.5 -45z" />
    <glyph glyph-name="afii10067" unicode="&#x432;" 
d="M379 0h-387l217 989h303q125 0 196 -53t72 -148q2 -99 -54 -177.5t-169 -106.5q136 -43 139 -174q2 -61 -17 -118.5t-56 -105.5t-100.5 -77t-143.5 -29zM217 154h121q77 0 120.5 53.5t41.5 116.5q-3 106 -123 106h-98zM311 584h111q72 0 110.5 48.5t38.5 102.5t-28 77.5
t-88 23.5h-88z" />
    <glyph glyph-name="afii10068" unicode="&#x433;" horiz-adv-x="616" 
d="M686 989l-37 -168h-284l-181 -821h-192l217 989h477z" />
    <glyph glyph-name="afii10069" unicode="&#x434;" horiz-adv-x="849" 
d="M-131 -252l86 397q58 15 81 31q61 44 113 218q5 19 11 40l151 555h516l-180 -821h103l-95 -420h-192l55 252h-403l-56 -252h-190zM459 821l-109 -397q-49 -176 -145 -256h250l143 653h-139z" />
    <glyph glyph-name="afii10070" unicode="&#x435;" horiz-adv-x="800" 
d="M356 -25q-149 0 -232 93t-83 266q0 71 16 156.5t51.5 179t85 169.5t125.5 125.5t164 49.5q139 0 211 -82.5t72 -241.5q0 -97 -39 -258h-494q-12 -47 -12 -108q0 -82 40.5 -136.5t127.5 -54.5q44 0 90.5 26.5t83.5 69.5l74 -118q-58 -65 -131.5 -100.5t-149.5 -35.5z
M260 569h313q17 70 17 123q0 72 -32 118t-89 46q-44 0 -81.5 -27.5t-62.5 -72.5t-41 -92t-24 -95z" />
    <glyph glyph-name="afii10072" unicode="&#x436;" horiz-adv-x="1040" 
d="M131 0h-221l364 549l-143 440h199l114 -385l86 385h193l-76 -342l256 342h219l-340 -440l127 -549h-196l-76 430l-51 -65l-80 -365h-193l78 360l-14 46z" />
    <glyph glyph-name="afii10073" unicode="&#x437;" horiz-adv-x="749" 
d="M463 1014q134 0 205 -65.5t71 -174.5q0 -112 -70 -187t-177 -93q65 -14 107 -75.5t42 -129.5q0 -139 -111.5 -226.5t-269.5 -87.5q-100 0 -179 41t-114 113l121 109q48 -107 174 -107q85 0 141 46.5t56 125.5q0 52 -37 85.5t-96 33.5h-150l35 156h156q75 0 127.5 44
t52.5 119q0 54 -31 85.5t-88 31.5q-135 0 -235 -115l-80 119q152 152 350 152z" />
    <glyph glyph-name="afii10074" unicode="&#x438;" 
d="M182 0h-190l217 989h192l-127 -577l351 577h202l-217 -989h-192l131 598z" />
    <glyph glyph-name="afii10075" unicode="&#x439;" 
d="M182 0h-190l217 989h192l-127 -577l351 577h202l-217 -989h-192l131 598zM821 1249q-56 -59 -128.5 -93t-147.5 -34t-133.5 34t-89.5 93l102 72q17 -38 55.5 -60t83.5 -22q46 0 93 22t79 60z" />
    <glyph glyph-name="afii10076" unicode="&#x43a;" horiz-adv-x="788" 
d="M657 0h-204l-74 424l-143 -184l-52 -240h-192l219 989h192l-108 -483l362 483h215l-340 -440z" />
    <glyph glyph-name="afii10077" unicode="&#x43b;" 
d="M-82 -25l37 170q33 0 55.5 8.5t48.5 36.5t50.5 88t50.5 156l151 555h516l-217 -989h-192l180 821h-139l-109 -397q-29 -110 -65.5 -190.5t-75.5 -130t-87.5 -78.5t-96 -39.5t-107.5 -10.5z" />
    <glyph glyph-name="afii10078" unicode="&#x43c;" horiz-adv-x="1042" 
d="M829 0h-188l131 602l-321 -602h-80l-56 602l-131 -602h-192l217 989h231l56 -555l303 555h248z" />
    <glyph glyph-name="afii10079" unicode="&#x43d;" 
d="M184 0h-192l217 989h192l-86 -389h234l86 389h192l-217 -989h-192l94 432h-233z" />
    <glyph glyph-name="afii10080" unicode="&#x43e;" 
d="M334 -25q-140 0 -216.5 89t-76.5 255q0 87 18 181.5t55 186.5t88.5 164.5t125 117.5t157.5 45q141 0 217 -88.5t76 -255.5q0 -87 -18 -181.5t-55 -186.5t-88.5 -164.5t-125 -117.5t-157.5 -45zM346 145q54 0 101.5 59.5t76 145.5t44.5 172.5t16 149.5q0 172 -109 172
q-55 0 -102.5 -59.5t-76 -146t-44.5 -173.5t-16 -150q0 -92 28 -131t82 -39z" />
    <glyph glyph-name="afii10081" unicode="&#x43f;" 
d="M610 0h-192l180 821h-233l-181 -821h-192l217 989h618z" />
    <glyph glyph-name="afii10082" unicode="&#x440;" horiz-adv-x="831" 
d="M401 -25q-144 0 -188 158l-113 -510h-190l301 1366h192l-28 -123q91 148 209 148q102 0 155.5 -78t53.5 -227q0 -79 -15 -173t-47 -194t-76.5 -181.5t-111 -133.5t-142.5 -52zM362 145q55 0 101.5 62t73.5 151t42 177t15 151q0 158 -105 158q-40 0 -81.5 -40t-67.5 -97
l-94 -422q6 -60 39 -100t77 -40z" />
    <glyph glyph-name="afii10083" unicode="&#x441;" horiz-adv-x="681" 
d="M348 -25q-143 0 -224 91t-81 266q0 88 18.5 181.5t57 183t91 160t127 114t159.5 43.5q73 0 134 -27.5t97 -73.5l-96 -143q-42 74 -123 74q-61 0 -113.5 -51.5t-84.5 -129t-50 -161.5t-18 -156q0 -102 39 -151.5t108 -49.5q66 0 123 60l39 -152q-87 -78 -203 -78z" />
    <glyph glyph-name="afii10084" unicode="&#x442;" horiz-adv-x="593" 
d="M283 0h-193l180 821h-164l37 168h521l-37 -168h-164z" />
    <glyph glyph-name="afii10085" unicode="&#x443;" horiz-adv-x="731" 
d="M-117 -379l64 160q12 -12 47 -12q28 0 47.5 18t42.5 61l63 132l-28 1009h198l-16 -745l320 745h208l-565 -1182q-59 -119 -117 -163.5t-139 -44.5q-70 0 -125 22z" />
    <glyph glyph-name="afii10086" unicode="&#x444;" horiz-adv-x="1249" 
d="M428 1014q131 0 176 -160l113 512h192l-110 -500q91 148 205 148q192 0 192 -305q0 -65 -10.5 -142t-31 -160t-53.5 -159.5t-73.5 -138t-95.5 -98t-117 -36.5q-131 0 -176 160l-113 -512h-192l110 500q-91 -148 -204 -148q-98 0 -145.5 80t-47.5 226q0 79 14.5 173
t46 193.5t75 181t108 133.5t137.5 52zM477 844q-51 0 -96.5 -62t-73 -150.5t-43.5 -177.5t-16 -151q0 -85 19.5 -121.5t70.5 -36.5q39 0 76.5 39.5t64.5 98.5l90 411q-7 66 -29.5 108t-62.5 42zM766 145q51 0 96.5 62t73 150.5t43.5 177.5t16 151q0 85 -19.5 121.5
t-70.5 36.5q-74 0 -141 -137l-90 -412q7 -66 29.5 -108t62.5 -42z" />
    <glyph glyph-name="afii10087" unicode="&#x445;" horiz-adv-x="720" 
d="M596 0h-201l-61 354l-219 -354h-211l336 500l-107 489h199l53 -344l209 344h209l-326 -489z" />
    <glyph glyph-name="afii10088" unicode="&#x446;" horiz-adv-x="849" 
d="M465 -252l55 252h-526l215 989h192l-180 -821h234l180 821h192l-180 -821h103l-93 -420h-192z" />
    <glyph glyph-name="afii10089" unicode="&#x447;" horiz-adv-x="798" 
d="M184 989h193l-68 -315q-14 -59 7 -86t85 -27q25 0 62.5 9.5t60.5 21.5l86 397h193l-217 -989h-193l99 446q-35 -23 -91.5 -39t-99.5 -16q-137 0 -181 53.5t-18 165.5z" />
    <glyph glyph-name="afii10090" unicode="&#x448;" horiz-adv-x="1196" 
d="M1008 989h192l-217 -989h-989l215 989h192l-180 -821h207l180 821h193l-180 -821h206z" />
    <glyph glyph-name="afii10091" unicode="&#x449;" horiz-adv-x="1222" 
d="M1008 989h192l-180 -821h102l-92 -420h-192l55 252h-899l215 989h192l-180 -821h207l180 821h193l-180 -821h206z" />
    <glyph glyph-name="afii10092" unicode="&#x44a;" horiz-adv-x="870" 
d="M418 0h-328l180 821h-164l37 168h357l-82 -368h84q130 0 207 -65t77 -179q0 -68 -24 -133.5t-68 -120.5t-116 -89t-160 -34zM467 467h-82l-70 -313h105q73 0 116.5 63t43.5 137q0 113 -113 113z" />
    <glyph glyph-name="afii10093" unicode="&#x44b;" horiz-adv-x="1118" 
d="M905 0h-192l217 989h192zM209 989h192l-82 -368h84q130 0 207.5 -65t77.5 -179q0 -68 -24 -133.5t-68.5 -120.5t-116.5 -89t-160 -34h-327zM369 467h-82l-70 -313h105q73 0 116 63t43 137q0 113 -112 113z" />
    <glyph glyph-name="afii10094" unicode="&#x44c;" horiz-adv-x="772" 
d="M209 989h192l-82 -368h84q130 0 207.5 -65t77.5 -179q0 -68 -24 -133.5t-68.5 -120.5t-116.5 -89t-160 -34h-327zM369 467h-82l-70 -313h105q73 0 116 63t43 137q0 113 -112 113z" />
    <glyph glyph-name="afii10095" unicode="&#x44d;" horiz-adv-x="681" 
d="M332 1014q143 0 224 -91t81 -266q0 -88 -18.5 -181.5t-57 -183t-91 -160t-127 -114t-159.5 -43.5q-73 0 -134 27.5t-97 73.5l88 131q42 -74 123 -74q78 0 138.5 80t98.5 203h-292l36 168h289q4 40 4 59q0 103 -40.5 158t-108.5 55q-67 0 -123 -59l-39 145q86 72 205 72z
" />
    <glyph glyph-name="afii10096" unicode="&#x44e;" horiz-adv-x="1202" 
d="M713 -25q-140 0 -216.5 89t-76.5 255q0 55 6 113h-145l-97 -432h-190l215 989h192l-84 -389h146q25 84 61.5 156t86 131t115 93t138.5 34q141 0 217 -88.5t76 -255.5q0 -87 -18 -181.5t-55 -186.5t-88.5 -164.5t-125 -117.5t-157.5 -45zM725 145q54 0 101.5 59.5
t76 145.5t44.5 172.5t16 149.5q0 172 -109 172q-55 0 -102.5 -60t-76.5 -146t-45 -173t-16 -150q0 -92 28.5 -131t82.5 -39z" />
    <glyph glyph-name="afii10097" unicode="&#x44f;" 
d="M178 0h-225l268 408q-110 68 -110 204q0 68 24 133.5t68 120.5t116 89t160 34h348l-217 -989h-192l82 369h-97zM430 522h102l70 314h-125q-73 0 -116.5 -63.5t-43.5 -137.5q0 -113 113 -113z" />
    <glyph glyph-name="afii10071" unicode="&#x451;" horiz-adv-x="800" 
d="M852 1253q0 -47 -38 -83.5t-87 -36.5q-42 0 -70 28t-28 70q0 47 38 84t87 37q42 0 70 -28t28 -71zM539 1253q0 -47 -38 -83.5t-87 -36.5q-42 0 -70.5 28t-28.5 70q0 47 38 84t87 37q42 0 70.5 -28.5t28.5 -70.5zM356 -25q-149 0 -232 93t-83 266q0 71 16 156.5t51.5 179
t85 169.5t125.5 125.5t164 49.5q139 0 211 -82.5t72 -241.5q0 -97 -39 -258h-494q-12 -47 -12 -108q0 -82 40.5 -136.5t127.5 -54.5q44 0 90.5 26.5t83.5 69.5l74 -118q-58 -65 -131.5 -100.5t-149.5 -35.5zM260 569h313q17 70 17 123q0 72 -32 118t-89 46
q-44 0 -81.5 -27.5t-62.5 -72.5t-41 -92t-24 -95z" />
    <glyph glyph-name="afii10099" unicode="&#x452;" horiz-adv-x="849" 
d="M692 1092h-241l-52 -236q46 64 122 111t141 47q199 0 149 -221l-199 -904q-32 -150 -106.5 -220t-202.5 -70q-81 0 -108 55l86 147q10 -32 45 -32q70 0 94 120l186 840q24 115 -59 115q-47 0 -97 -42.5t-85 -101.5l-154 -700h-193l240 1092h-84l25 116h86l34 158h193
l-35 -158h240z" />
    <glyph glyph-name="afii10100" unicode="&#x453;" horiz-adv-x="616" 
d="M815 1434l-276 -295h-129l227 295h178zM686 989l-37 -168h-284l-181 -821h-192l217 989h477z" />
    <glyph glyph-name="afii10101" unicode="&#x454;" horiz-adv-x="681" 
d="M348 -25q-143 0 -224 91t-81 266q0 88 18.5 181.5t57 183t91 160t127 114t159.5 43.5q73 0 134 -27.5t97 -73.5l-88 -131q-42 74 -123 74q-76 0 -137 -77.5t-98 -194.5h292l-36 -168h-291q-4 -25 -4 -70q0 -103 40.5 -158t108.5 -55q66 0 123 60l39 -146
q-86 -72 -205 -72z" />
    <glyph glyph-name="afii10102" unicode="&#x455;" horiz-adv-x="675" 
d="M252 -25q-98 0 -178.5 39.5t-116.5 102.5l109 125q30 -50 79 -81.5t111 -31.5q59 0 100 41.5t41 99.5q0 41 -29.5 78.5t-71.5 70t-84 69t-71.5 91.5t-29.5 121q0 130 85 222t232 92q78 0 151.5 -34.5t118.5 -94.5l-104 -121q-21 40 -69 68t-101 28q-57 0 -92 -34.5
t-35 -90.5q0 -27 16 -52.5t42 -48.5t57 -47t62.5 -52.5t57.5 -60t42 -75t16 -92.5q0 -137 -94.5 -234.5t-243.5 -97.5z" />
    <glyph glyph-name="afii10103" unicode="&#x456;" horiz-adv-x="397" 
d="M346 1118q-47 0 -78.5 31t-31.5 74q0 62 44 100.5t95 38.5q47 0 78.5 -32t31.5 -75q0 -62 -43.5 -99.5t-95.5 -37.5zM184 0h-192l219 989h192z" />
    <glyph glyph-name="afii10104" unicode="&#x457;" horiz-adv-x="397" 
d="M633 1253q0 -47 -38 -83.5t-87 -36.5q-42 0 -70 28t-28 70q0 47 38 84t87 37q41 0 69.5 -28t28.5 -71zM319 1253q0 -47 -37.5 -83.5t-86.5 -36.5q-42 0 -70.5 28t-28.5 70q0 47 38 84t87 37q41 0 69.5 -28t28.5 -71zM184 0h-192l219 989h192z" />
    <glyph glyph-name="afii10105" unicode="&#x458;" horiz-adv-x="397" 
d="M-115 -401q-102 0 -143 61l84 141q13 -32 51 -32q64 0 88 120l246 1100h192l-245 -1100q-35 -155 -96 -222.5t-177 -67.5zM346 1118q-47 0 -78.5 31t-31.5 74q0 62 44 100.5t95 38.5q47 0 78.5 -32t31.5 -75q0 -62 -43.5 -99.5t-95.5 -37.5z" />
    <glyph glyph-name="afii10106" unicode="&#x459;" horiz-adv-x="1202" 
d="M-82 -25l37 170q33 0 55.5 8.5t48.5 36.5t50.5 88t50.5 156l151 555h516l-86 -389h97q166 0 233.5 -84.5t36.5 -218.5q-28 -130 -131.5 -213.5t-269.5 -83.5h-289l180 821h-139l-109 -397q-29 -110 -65.5 -190.5t-75.5 -130t-87.5 -78.5t-96 -39.5t-107.5 -10.5zM780 446
h-73l-64 -292h74q80 0 129.5 38t64.5 107q14 68 -18.5 107.5t-112.5 39.5z" />
    <glyph glyph-name="afii10107" unicode="&#x45a;" horiz-adv-x="1202" 
d="M184 0h-192l217 989h192l-86 -389h234l86 389h192l-86 -389h84q132 0 211.5 -61.5t79.5 -171.5q0 -67 -24 -131.5t-69 -117.5t-117.5 -85.5t-160.5 -32.5h-327l94 432h-233zM788 446h-81l-64 -292h105q73 0 117 59t44 131q0 102 -121 102z" />
    <glyph glyph-name="afii10108" unicode="&#x45b;" 
d="M610 0h-192l162 727q6 24 6 45q0 72 -70 72q-47 0 -95 -43t-85 -105l-152 -696h-192l239 1090h-90l27 116h88l37 160h192l-34 -160h239l-24 -116h-242l-49 -228q48 67 111.5 109.5t134.5 42.5q82 0 127 -44.5t45 -115.5q0 -16 -9 -61z" />
    <glyph glyph-name="afii10109" unicode="&#x45c;" horiz-adv-x="788" 
d="M870 1434l-276 -295h-129l227 295h178zM657 0h-204l-74 424l-143 -184l-52 -240h-192l219 989h192l-108 -483l362 483h215l-340 -440z" />
    <glyph glyph-name="afii10110" unicode="&#x45e;" horiz-adv-x="731" 
d="M-117 -379l64 160q12 -12 47 -12q28 0 47.5 18t42.5 61l63 132l-28 1009h198l-16 -745l320 745h208l-565 -1182q-59 -119 -117 -163.5t-139 -44.5q-70 0 -125 22zM774 1249q-56 -59 -128.5 -93t-147.5 -34q-76 0 -134.5 34t-89.5 93l103 72q17 -38 55.5 -60t83.5 -22
q46 0 93 22t79 60z" />
    <glyph glyph-name="afii10193" unicode="&#x45f;" 
d="M147 -262l58 262h-211l215 989h192l-180 -821h234l180 821h192l-217 -989h-213l-57 -262h-193z" />
    <glyph glyph-name="afii10050" unicode="&#x490;" horiz-adv-x="747" 
d="M219 0h-213l301 1366h346l60 262h213l-101 -450h-346z" />
    <glyph glyph-name="afii10098" unicode="&#x491;" horiz-adv-x="616" 
d="M365 821l-181 -821h-192l217 989h285l57 262h192l-94 -430h-284z" />
    <glyph glyph-name="uni1E02" unicode="&#x1e02;" horiz-adv-x="882" 
d="M412 0h-406l301 1366h297q143 0 223 -80.5t80 -206.5q0 -139 -74.5 -255.5t-195.5 -137.5q73 -22 110 -91t37 -153q0 -81 -23.5 -158t-67.5 -141t-117 -103.5t-164 -39.5zM502 791q56 0 98 42t61 97t19 110q0 68 -36.5 103t-100.5 35h-64l-86 -387h109zM375 188
q84 0 139 81t55 190q0 143 -139 143h-78l-92 -414h115zM797 1595q0 -51 -37.5 -88t-87.5 -37q-43 0 -72 29t-29 72q0 49 38 86t89 37q42 0 70.5 -28.5t28.5 -70.5z" />
    <glyph glyph-name="uni1E03" unicode="&#x1e03;" horiz-adv-x="831" 
d="M401 -25q-144 0 -188 158l-29 -133h-190l299 1366h192l-110 -500q91 148 209 148q102 0 155.5 -78t53.5 -227q0 -79 -15 -173t-47 -194t-76.5 -181.5t-111 -133.5t-142.5 -52zM362 145q55 0 101.5 62t73.5 151t42 177t15 151q0 158 -105 158q-40 0 -81.5 -40t-67.5 -97
l-94 -422q6 -60 39 -100t77 -40zM780 1595q0 -51 -37.5 -88t-87.5 -37q-43 0 -71.5 29t-28.5 72q0 49 38 86t89 37q42 0 70 -28.5t28 -70.5z" />
    <glyph glyph-name="uni1E0A" unicode="&#x1e0a;" horiz-adv-x="931" 
d="M313 0h-307l301 1366h299q63 0 119 -26t102.5 -77t73.5 -135.5t27 -191.5q0 -58 -8.5 -130.5t-29 -163.5t-51.5 -179t-80.5 -172.5t-111 -148.5t-148 -103t-186.5 -39zM260 188h90q75 0 138.5 62t102.5 152.5t67 197.5t39.5 192.5t11.5 141.5q0 123 -41 183.5t-103 60.5
h-86zM834 1595q0 -51 -37.5 -88t-87.5 -37q-43 0 -72 29t-29 72q0 49 38 86t89 37q42 0 70.5 -28.5t28.5 -70.5z" />
    <glyph glyph-name="uni1E0B" unicode="&#x1e0b;" horiz-adv-x="831" 
d="M428 1014q68 0 117.5 -39t70.5 -119l113 510h193l-304 -1366h-192l29 123q-91 -148 -209 -148q-101 0 -155 78.5t-54 227.5q0 79 15 173t47 193.5t76.5 181t110.5 133.5t142 52zM469 844q-56 0 -102.5 -61.5t-73.5 -151t-42 -177t-15 -151.5q0 -158 104 -158
q40 0 81.5 40.5t67.5 97.5l95 422q-6 60 -39 99.5t-76 39.5zM760 1595q0 -51 -37.5 -88t-87.5 -37q-43 0 -71.5 29t-28.5 72q0 49 38 86t89 37q42 0 70 -28.5t28 -70.5z" />
    <glyph glyph-name="uni1E1E" unicode="&#x1e1e;" horiz-adv-x="747" 
d="M748 1595q0 -51 -37.5 -88t-87.5 -37q-43 0 -72 29t-29 72q0 49 38 86t89 37q42 0 70.5 -28.5t28.5 -70.5zM219 0h-213l301 1366h559l-41 -188h-346l-86 -387h332l-43 -189h-330z" />
    <glyph glyph-name="uni1E1F" unicode="&#x1e1f;" horiz-adv-x="489" 
d="M678 1595q0 -51 -37.5 -88t-87.5 -37q-43 0 -71.5 29t-28.5 72q0 49 38 86t89 37q42 0 70 -28.5t28 -70.5zM215 0h-192l182 821h-94l36 168h95l26 129q58 268 273 268q53 0 102 -16.5t72 -42.5l-84 -147q-25 37 -70 37q-77 0 -100 -99l-27 -129h129l-39 -168h-127z" />
    <glyph glyph-name="uni1E22" unicode="&#x1e22;" horiz-adv-x="948" 
d="M723 0h-215l135 608h-291l-133 -608h-213l301 1366h213l-125 -569h289l125 569h215zM827 1595q0 -51 -37.5 -88t-87.5 -37q-43 0 -71.5 29t-28.5 72q0 49 38 86t89 37q42 0 70 -28.5t28 -70.5z" />
    <glyph glyph-name="uni1E23" unicode="&#x1e23;" 
d="M610 0h-192l162 727q6 24 6 45q0 72 -70 72q-47 0 -95 -43t-85 -105l-152 -696h-192l301 1366h192l-110 -504q48 67 111.5 109.5t134.5 42.5q82 0 127 -44.5t45 -115.5q0 -16 -9 -61zM766 1595q0 -51 -37.5 -88t-87.5 -37q-43 0 -71.5 29t-28.5 72q0 49 38 86t89 37
q42 0 70 -28.5t28 -70.5z" />
    <glyph glyph-name="uni1E56" unicode="&#x1e56;" horiz-adv-x="856" 
d="M219 0h-213l301 1366h303q134 0 217.5 -92.5t83.5 -239.5q0 -77 -18 -150t-55.5 -139t-91 -115.5t-130.5 -78.5t-167 -29h-115zM375 711h90q53 0 96.5 27.5t70.5 72t41.5 97.5t14.5 108q0 79 -34.5 120.5t-92.5 41.5h-82zM805 1595q0 -51 -37.5 -88t-87.5 -37
q-43 0 -71.5 29t-28.5 72q0 49 38 86t89 37q42 0 70 -28.5t28 -70.5z" />
    <glyph glyph-name="uni1E57" unicode="&#x1e57;" horiz-adv-x="831" 
d="M401 -25q-144 0 -188 158l-113 -510h-190l301 1366h192l-28 -123q91 148 209 148q102 0 155.5 -78t53.5 -227q0 -79 -15 -173t-47 -194t-76.5 -181.5t-111 -133.5t-142.5 -52zM362 145q55 0 101.5 62t73.5 151t42 177t15 151q0 158 -105 158q-40 0 -81.5 -40t-67.5 -97
l-94 -422q6 -60 39 -100t77 -40zM709 1253q0 -51 -37.5 -88t-87.5 -37q-43 0 -72 29t-29 72q0 49 38 86t89 37q42 0 70.5 -28.5t28.5 -70.5z" />
    <glyph glyph-name="uni1E60" unicode="&#x1e60;" horiz-adv-x="774" 
d="M287 -25q-102 0 -192 41.5t-136 108.5l127 158q32 -52 88 -84.5t113 -32.5q74 0 129 61.5t55 161.5q0 52 -31 104.5t-75.5 100.5t-88.5 100t-75 123t-31 150q0 176 116.5 299t278.5 123q82 0 160.5 -32.5t128.5 -90.5l-117 -158q-67 90 -174 90q-74 0 -121 -57.5
t-47 -136.5q0 -48 30.5 -99t74 -100t87.5 -102.5t74.5 -126.5t30.5 -152q0 -189 -114.5 -319t-290.5 -130zM741 1595q0 -51 -37.5 -88t-87.5 -37q-43 0 -71.5 29t-28.5 72q0 49 38 86t89 37q42 0 70 -28.5t28 -70.5z" />
    <glyph glyph-name="uni1E61" unicode="&#x1e61;" horiz-adv-x="675" 
d="M252 -25q-98 0 -178.5 39.5t-116.5 102.5l109 125q30 -50 79 -81.5t111 -31.5q59 0 100 41.5t41 99.5q0 41 -29.5 78.5t-71.5 70t-84 69t-71.5 91.5t-29.5 121q0 130 85 222t232 92q78 0 151.5 -34.5t118.5 -94.5l-104 -121q-21 40 -69 68t-101 28q-57 0 -92 -34.5
t-35 -90.5q0 -27 16 -52.5t42 -48.5t57 -47t62.5 -52.5t57.5 -60t42 -75t16 -92.5q0 -137 -94.5 -234.5t-243.5 -97.5zM614 1253q0 -51 -37.5 -88t-87.5 -37q-43 0 -71.5 29t-28.5 72q0 49 38 86t89 37q42 0 70 -28.5t28 -70.5z" />
    <glyph glyph-name="uni1E6A" unicode="&#x1e6a;" horiz-adv-x="708" 
d="M350 0h-213l260 1178h-211l41 188h635l-41 -188h-211zM707 1595q0 -51 -37.5 -88t-87.5 -37q-43 0 -72 29t-29 72q0 49 38 86t89 37q42 0 70.5 -28.5t28.5 -70.5z" />
    <glyph glyph-name="uni1E6B" unicode="&#x1e6b;" horiz-adv-x="505" 
d="M262 -25q-203 0 -203 164q0 35 11 80l135 602h-96l36 168h97l59 271h193l-60 -271h129l-39 -168h-127l-127 -569q-8 -32 -8 -51q0 -56 57 -56q27 0 56 19l12 -154q-53 -35 -125 -35zM580 1595q0 -51 -37.5 -88t-87.5 -37q-43 0 -72 29t-29 72q0 49 38 86t89 37
q42 0 70.5 -28.5t28.5 -70.5z" />
    <glyph glyph-name="Wgrave" unicode="&#x1e80;" horiz-adv-x="1202" 
d="M836 0h-220l86 954l-337 -954h-220l74 1366h215l-92 -989l360 989h172l-75 -989l344 989h221zM891 1481h-125l-145 295h174z" />
    <glyph glyph-name="wgrave" unicode="&#x1e81;" horiz-adv-x="1185" 
d="M836 0h-201l6 727l-311 -727h-201l-2 989h192l-24 -725l303 725h186l-10 -725l297 725h207zM811 1139h-125l-145 295h174z" />
    <glyph glyph-name="Wacute" unicode="&#x1e82;" horiz-adv-x="1202" 
d="M1126 1776l-276 -295h-129l227 295h178zM836 0h-220l86 954l-337 -954h-220l74 1366h215l-92 -989l360 989h172l-75 -989l344 989h221z" />
    <glyph glyph-name="wacute" unicode="&#x1e83;" horiz-adv-x="1185" 
d="M1044 1434l-276 -295h-129l227 295h178zM836 0h-201l6 727l-311 -727h-201l-2 989h192l-24 -725l303 725h186l-10 -725l297 725h207z" />
    <glyph glyph-name="Wdieresis" unicode="&#x1e84;" horiz-adv-x="1202" 
d="M1102 1595q0 -47 -38 -83.5t-87 -36.5q-42 0 -70 28t-28 70q0 47 38 84t87 37q42 0 70 -28t28 -71zM788 1595q0 -47 -37.5 -83.5t-86.5 -36.5q-42 0 -70.5 28t-28.5 70q0 47 38 84t87 37q42 0 70 -28t28 -71zM836 0h-220l86 954l-337 -954h-220l74 1366h215l-92 -989
l360 989h172l-75 -989l344 989h221z" />
    <glyph glyph-name="wdieresis" unicode="&#x1e85;" horiz-adv-x="1185" 
d="M1018 1253q0 -47 -38 -83.5t-87 -36.5q-42 0 -70 28t-28 70q0 47 38 84t87 37q42 0 70 -28t28 -71zM705 1253q0 -47 -38 -83.5t-87 -36.5q-42 0 -70.5 28t-28.5 70q0 47 38 84t87 37q42 0 70.5 -28.5t28.5 -70.5zM836 0h-201l6 727l-311 -727h-201l-2 989h192l-24 -725
l303 725h186l-10 -725l297 725h207z" />
    <glyph glyph-name="uni1EA0" unicode="&#x1ea0;" horiz-adv-x="815" 
d="M698 0h-213l15 279h-273l-106 -279h-225l579 1366h246zM514 467l35 655l-254 -655h219zM348 -260q0 -51 -37.5 -88t-87.5 -37q-43 0 -71.5 28.5t-28.5 71.5q0 49 38 86t89 37q42 0 70 -28t28 -70z" />
    <glyph glyph-name="uni1EA1" unicode="&#x1ea1;" horiz-adv-x="831" 
d="M428 1014q68 0 117.5 -39t70.5 -119l31 133h191l-220 -989h-192l29 123q-91 -148 -209 -148q-101 0 -155 78.5t-54 227.5q0 79 15 173t47 193.5t76.5 181t110.5 133.5t142 52zM469 844q-56 0 -102.5 -61.5t-73.5 -151t-42 -177t-15 -151.5q0 -158 104 -158
q40 0 81.5 40.5t67.5 97.5l95 422q-6 60 -39 99.5t-76 39.5zM350 -260q0 -51 -37.5 -88t-87.5 -37q-43 0 -71.5 28.5t-28.5 71.5q0 49 38 86t89 37q42 0 70 -28t28 -70z" />
    <glyph glyph-name="uni1EA2" unicode="&#x1ea2;" horiz-adv-x="815" 
d="M698 0h-213l15 279h-273l-106 -279h-225l579 1366h246zM514 467l35 655l-254 -655h219zM592 1563l-70 22q44 94 129 94q53 0 82 -26.5t29 -77.5q0 -78 -66 -148h-88q67 64 70 129q6 50 -33 50q-32 0 -53 -43z" />
    <glyph glyph-name="uni1EA3" unicode="&#x1ea3;" horiz-adv-x="831" 
d="M428 1014q68 0 117.5 -39t70.5 -119l31 133h191l-220 -989h-192l29 123q-91 -148 -209 -148q-101 0 -155 78.5t-54 227.5q0 79 15 173t47 193.5t76.5 181t110.5 133.5t142 52zM469 844q-56 0 -102.5 -61.5t-73.5 -151t-42 -177t-15 -151.5q0 -158 104 -158
q40 0 81.5 40.5t67.5 97.5l95 422q-6 60 -39 99.5t-76 39.5zM518 1214l-69 23q44 94 129 94q53 0 81.5 -26.5t28.5 -77.5q0 -79 -65 -148h-88q66 63 69 129q6 49 -33 49q-32 0 -53 -43z" />
    <glyph glyph-name="uni1EA4" unicode="&#x1ea4;" horiz-adv-x="815" 
d="M815 1397h-104l-74 149l-152 -149h-114l196 221h178zM698 0h-213l15 279h-273l-106 -279h-225l579 1366h246zM514 467l35 655l-254 -655h219zM1194 1726l-276 -221h-130l228 221h178z" />
    <glyph glyph-name="uni1EA5" unicode="&#x1ea5;" horiz-adv-x="831" 
d="M428 1014q68 0 117.5 -39t70.5 -119l31 133h191l-220 -989h-192l29 123q-91 -148 -209 -148q-101 0 -155 78.5t-54 227.5q0 79 15 173t47 193.5t76.5 181t110.5 133.5t142 52zM469 844q-56 0 -102.5 -61.5t-73.5 -151t-42 -177t-15 -151.5q0 -158 104 -158
q40 0 81.5 40.5t67.5 97.5l95 422q-6 60 -39 99.5t-76 39.5zM774 1139h-104l-74 200l-152 -200h-114l196 295h179zM1157 1579l-276 -295h-129l227 295h178z" />
    <glyph glyph-name="uni1EA6" unicode="&#x1ea6;" horiz-adv-x="815" 
d="M815 1397h-104l-74 149l-152 -149h-114l196 221h178zM698 0h-213l15 279h-273l-106 -279h-225l579 1366h246zM514 467l35 655l-254 -655h219zM449 1505h-125l-146 221h174z" />
    <glyph glyph-name="uni1EA7" unicode="&#x1ea7;" horiz-adv-x="831" 
d="M428 1014q68 0 117.5 -39t70.5 -119l31 133h191l-220 -989h-192l29 123q-91 -148 -209 -148q-101 0 -155 78.5t-54 227.5q0 79 15 173t47 193.5t76.5 181t110.5 133.5t142 52zM469 844q-56 0 -102.5 -61.5t-73.5 -151t-42 -177t-15 -151.5q0 -158 104 -158
q40 0 81.5 40.5t67.5 97.5l95 422q-6 60 -39 99.5t-76 39.5zM774 1139h-104l-74 200l-152 -200h-114l196 295h179zM412 1284h-125l-146 295h174z" />
    <glyph glyph-name="uni1EA8" unicode="&#x1ea8;" horiz-adv-x="815" 
d="M815 1397h-104l-74 149l-152 -149h-114l196 221h178zM698 0h-213l15 279h-273l-106 -279h-225l579 1366h246zM514 467l35 655l-254 -655h219zM778 1651l-69 16q45 70 129 70q110 0 110 -78q0 -58 -65 -111h-88q66 47 69 97q6 36 -33 36q-32 0 -53 -30z" />
    <glyph glyph-name="uni1EA9" unicode="&#x1ea9;" horiz-adv-x="831" 
d="M428 1014q68 0 117.5 -39t70.5 -119l31 133h191l-220 -989h-192l29 123q-91 -148 -209 -148q-101 0 -155 78.5t-54 227.5q0 79 15 173t47 193.5t76.5 181t110.5 133.5t142 52zM469 844q-56 0 -102.5 -61.5t-73.5 -151t-42 -177t-15 -151.5q0 -158 104 -158
q40 0 81.5 40.5t67.5 97.5l95 422q-6 60 -39 99.5t-76 39.5zM774 1139h-104l-74 200l-152 -200h-114l196 295h179zM733 1501l-69 23q44 94 129 94q53 0 81.5 -27t28.5 -78q0 -78 -65 -147h-88q66 63 69 129q6 49 -33 49q-32 0 -53 -43z" />
    <glyph glyph-name="uni1EAA" unicode="&#x1eaa;" horiz-adv-x="815" 
d="M809 1389h-104l-74 100l-152 -100h-114l196 147h178zM698 0h-213l15 279h-273l-106 -279h-225l579 1366h246zM514 467l35 655l-254 -655h219zM733 1550q-35 0 -58.5 8.5t-34 21t-18.5 25t-20 21t-31 8.5q-49 0 -84 -78h-104q62 138 203 138q36 0 59.5 -9t34.5 -21.5
t19 -25t20 -21.5t31 -9q48 0 84 80h104q-27 -63 -78.5 -100.5t-126.5 -37.5z" />
    <glyph glyph-name="uni1EAB" unicode="&#x1eab;" horiz-adv-x="831" 
d="M428 1014q68 0 117.5 -39t70.5 -119l31 133h191l-220 -989h-192l29 123q-91 -148 -209 -148q-101 0 -155 78.5t-54 227.5q0 79 15 173t47 193.5t76.5 181t110.5 133.5t142 52zM469 844q-56 0 -102.5 -61.5t-73.5 -151t-42 -177t-15 -151.5q0 -158 104 -158
q40 0 81.5 40.5t67.5 97.5l95 422q-6 60 -39 99.5t-76 39.5zM760 1071h-105l-73 201l-152 -201h-115l197 295h178zM715 1397q-35 0 -58.5 17.5t-34 42.5t-18.5 50t-20 42.5t-31 17.5q-48 0 -84 -158h-104q61 274 202 274q36 0 59.5 -17.5t34.5 -42.5t19 -50t20 -42.5
t31 -17.5q48 0 84 158h105q-26 -125 -77.5 -199.5t-127.5 -74.5z" />
    <glyph glyph-name="uni1EAC" unicode="&#x1eac;" horiz-adv-x="815" 
d="M698 0h-213l15 279h-273l-106 -279h-225l579 1366h246zM514 467l35 655l-254 -655h219zM848 1481h-105l-73 200l-152 -200h-115l197 295h178zM348 -260q0 -51 -37.5 -88t-87.5 -37q-43 0 -71.5 28.5t-28.5 71.5q0 49 38 86t89 37q42 0 70 -28t28 -70z" />
    <glyph glyph-name="uni1EAD" unicode="&#x1ead;" horiz-adv-x="831" 
d="M428 1014q68 0 117.5 -39t70.5 -119l31 133h191l-220 -989h-192l29 123q-91 -148 -209 -148q-101 0 -155 78.5t-54 227.5q0 79 15 173t47 193.5t76.5 181t110.5 133.5t142 52zM469 844q-56 0 -102.5 -61.5t-73.5 -151t-42 -177t-15 -151.5q0 -158 104 -158
q40 0 81.5 40.5t67.5 97.5l95 422q-6 60 -39 99.5t-76 39.5zM774 1139h-104l-74 200l-152 -200h-114l196 295h179zM350 -260q0 -51 -37.5 -88t-87.5 -37q-43 0 -71.5 28.5t-28.5 71.5q0 49 38 86t89 37q42 0 70 -28t28 -70z" />
    <glyph glyph-name="uni1EAE" unicode="&#x1eae;" horiz-adv-x="815" 
d="M698 0h-213l15 279h-273l-106 -279h-225l579 1366h246zM514 467l35 655l-254 -655h219zM930 1712l-277 -190h-129l228 190h178zM870 1485q-120 -99 -276 -99q-75 0 -133.5 26.5t-89.5 72.5l102 57q17 -30 55.5 -47.5t83.5 -17.5q47 0 93.5 17.5t78.5 47.5z" />
    <glyph glyph-name="uni1EAF" unicode="&#x1eaf;" horiz-adv-x="831" 
d="M428 1014q68 0 117.5 -39t70.5 -119l31 133h191l-220 -989h-192l29 123q-91 -148 -209 -148q-101 0 -155 78.5t-54 227.5q0 79 15 173t47 193.5t76.5 181t110.5 133.5t142 52zM469 844q-56 0 -102.5 -61.5t-73.5 -151t-42 -177t-15 -151.5q0 -158 104 -158
q40 0 81.5 40.5t67.5 97.5l95 422q-6 60 -39 99.5t-76 39.5zM877 1567l-277 -295h-129l227 295h179zM805 1186q-56 -59 -129 -93t-148 -34t-133.5 34t-89.5 93l103 71q17 -37 55.5 -59t83.5 -22q47 0 93.5 21.5t78.5 59.5z" />
    <glyph glyph-name="uni1EB0" unicode="&#x1eb0;" horiz-adv-x="815" 
d="M698 0h-213l15 279h-273l-106 -279h-225l579 1366h246zM514 467l35 655l-254 -655h219zM723 1522h-125l-145 190h174zM870 1485q-120 -99 -276 -99q-75 0 -133.5 26.5t-89.5 72.5l102 57q17 -30 55.5 -47.5t83.5 -17.5q47 0 93.5 17.5t78.5 47.5z" />
    <glyph glyph-name="uni1EB1" unicode="&#x1eb1;" horiz-adv-x="831" 
d="M428 1014q68 0 117.5 -39t70.5 -119l31 133h191l-220 -989h-192l29 123q-91 -148 -209 -148q-101 0 -155 78.5t-54 227.5q0 79 15 173t47 193.5t76.5 181t110.5 133.5t142 52zM469 844q-56 0 -102.5 -61.5t-73.5 -151t-42 -177t-15 -151.5q0 -158 104 -158
q40 0 81.5 40.5t67.5 97.5l95 422q-6 60 -39 99.5t-76 39.5zM670 1284h-125l-146 295h174zM805 1186q-56 -59 -129 -93t-148 -34t-133.5 34t-89.5 93l103 71q17 -37 55.5 -59t83.5 -22q47 0 93.5 21.5t78.5 59.5z" />
    <glyph glyph-name="uni1EB2" unicode="&#x1eb2;" horiz-adv-x="815" 
d="M698 0h-213l15 279h-273l-106 -279h-225l579 1366h246zM514 467l35 655l-254 -655h219zM608 1614l-69 14q44 62 129 62q52 0 81 -18t29 -50q0 -51 -65 -96h-88q66 44 69 84q3 15 -5 22.5t-27 7.5q-34 0 -54 -26zM870 1485q-120 -99 -276 -99q-75 0 -133.5 26.5
t-89.5 72.5l102 57q17 -30 55.5 -47.5t83.5 -17.5q47 0 93.5 17.5t78.5 47.5z" />
    <glyph glyph-name="uni1EB3" unicode="&#x1eb3;" horiz-adv-x="831" 
d="M428 1014q68 0 117.5 -39t70.5 -119l31 133h191l-220 -989h-192l29 123q-91 -148 -209 -148q-101 0 -155 78.5t-54 227.5q0 79 15 173t47 193.5t76.5 181t110.5 133.5t142 52zM469 844q-56 0 -102.5 -61.5t-73.5 -151t-42 -177t-15 -151.5q0 -158 104 -158
q40 0 81.5 40.5t67.5 97.5l95 422q-6 60 -39 99.5t-76 39.5zM559 1411l-70 23q44 94 129 94q53 0 82 -27t29 -78q0 -78 -65 -147h-89q67 64 70 129q6 49 -33 49q-32 0 -53 -43zM805 1186q-56 -59 -129 -93t-148 -34t-133.5 34t-89.5 93l103 71q17 -37 55.5 -59t83.5 -22
q47 0 93.5 21.5t78.5 59.5z" />
    <glyph glyph-name="uni1EB4" unicode="&#x1eb4;" horiz-adv-x="815" 
d="M698 0h-213l15 279h-273l-106 -279h-225l579 1366h246zM514 467l35 655l-254 -655h219zM874 1473q-119 -82 -276 -82t-223 82l102 45q17 -24 55.5 -39t83.5 -15q46 0 93 14.5t79 39.5zM733 1550q-35 0 -58.5 8.5t-34 21t-18.5 25t-20 21t-31 8.5q-49 0 -84 -78h-104
q62 138 203 138q36 0 59.5 -9t34.5 -21.5t19 -25t20 -21.5t31 -9q48 0 84 80h104q-27 -63 -78.5 -100.5t-126.5 -37.5z" />
    <glyph glyph-name="uni1EB5" unicode="&#x1eb5;" horiz-adv-x="831" 
d="M428 1014q68 0 117.5 -39t70.5 -119l31 133h191l-220 -989h-192l29 123q-91 -148 -209 -148q-101 0 -155 78.5t-54 227.5q0 79 15 173t47 193.5t76.5 181t110.5 133.5t142 52zM469 844q-56 0 -102.5 -61.5t-73.5 -151t-42 -177t-15 -151.5q0 -158 104 -158
q40 0 81.5 40.5t67.5 97.5l95 422q-6 60 -39 99.5t-76 39.5zM805 1186q-56 -59 -129 -93t-148 -34t-133.5 34t-89.5 93l103 71q17 -37 55.5 -59t83.5 -22q47 0 93.5 21.5t78.5 59.5zM690 1292q-35 0 -58.5 17.5t-34 42.5t-18.5 50t-20 42.5t-31 17.5q-49 0 -84 -157h-104
q61 274 203 274q36 0 59.5 -17.5t34.5 -42.5t19 -50t20 -42.5t31 -17.5q48 0 84 158h104q-27 -125 -78 -200t-127 -75z" />
    <glyph glyph-name="uni1EB6" unicode="&#x1eb6;" horiz-adv-x="815" 
d="M698 0h-213l15 279h-273l-106 -279h-225l579 1366h246zM514 467l35 655l-254 -655h219zM348 -260q0 -51 -37.5 -88t-87.5 -37q-43 0 -71.5 28.5t-28.5 71.5q0 49 38 86t89 37q42 0 70 -28t28 -70zM891 1591q-56 -59 -129 -93t-148 -34t-133.5 34t-89.5 93l103 72
q17 -38 55.5 -60t83.5 -22q46 0 93 22t79 60z" />
    <glyph glyph-name="uni1EB7" unicode="&#x1eb7;" horiz-adv-x="831" 
d="M428 1014q68 0 117.5 -39t70.5 -119l31 133h191l-220 -989h-192l29 123q-91 -148 -209 -148q-101 0 -155 78.5t-54 227.5q0 79 15 173t47 193.5t76.5 181t110.5 133.5t142 52zM469 844q-56 0 -102.5 -61.5t-73.5 -151t-42 -177t-15 -151.5q0 -158 104 -158
q40 0 81.5 40.5t67.5 97.5l95 422q-6 60 -39 99.5t-76 39.5zM350 -260q0 -51 -37.5 -88t-87.5 -37q-43 0 -71.5 28.5t-28.5 71.5q0 49 38 86t89 37q42 0 70 -28t28 -70zM819 1249q-56 -59 -128.5 -93t-147.5 -34q-76 0 -134.5 34t-89.5 93l103 72q17 -38 55.5 -60t83.5 -22
q46 0 93 22t79 60z" />
    <glyph glyph-name="uni1EB8" unicode="&#x1eb8;" horiz-adv-x="751" 
d="M565 0h-559l301 1366h559l-41 -188h-346l-86 -387h332l-43 -189h-330l-92 -414h346zM336 -260q0 -51 -37.5 -88t-87.5 -37q-43 0 -71.5 28.5t-28.5 71.5q0 49 38 86t89 37q42 0 70 -28t28 -70z" />
    <glyph glyph-name="uni1EB9" unicode="&#x1eb9;" horiz-adv-x="800" 
d="M356 -25q-149 0 -232 93t-83 266q0 71 16 156.5t51.5 179t85 169.5t125.5 125.5t164 49.5q139 0 211 -82.5t72 -241.5q0 -97 -39 -258h-494q-12 -47 -12 -108q0 -82 40.5 -136.5t127.5 -54.5q44 0 90.5 26.5t83.5 69.5l74 -118q-58 -65 -131.5 -100.5t-149.5 -35.5z
M260 569h313q17 70 17 123q0 72 -32 118t-89 46q-44 0 -81.5 -27.5t-62.5 -72.5t-41 -92t-24 -95zM362 -260q0 -51 -37 -88t-87 -37q-43 0 -72 28.5t-29 71.5q0 49 38 86t89 37q42 0 70 -28t28 -70z" />
    <glyph glyph-name="uni1EBA" unicode="&#x1eba;" horiz-adv-x="751" 
d="M565 0h-559l301 1366h559l-41 -188h-346l-86 -387h332l-43 -189h-330l-92 -414h346zM580 1563l-70 22q44 94 129 94q53 0 82 -26.5t29 -77.5q0 -78 -66 -148h-88q67 64 70 129q6 50 -33 50q-32 0 -53 -43z" />
    <glyph glyph-name="uni1EBB" unicode="&#x1ebb;" horiz-adv-x="800" 
d="M356 -25q-149 0 -232 93t-83 266q0 71 16 156.5t51.5 179t85 169.5t125.5 125.5t164 49.5q139 0 211 -82.5t72 -241.5q0 -97 -39 -258h-494q-12 -47 -12 -108q0 -82 40.5 -136.5t127.5 -54.5q44 0 90.5 26.5t83.5 69.5l74 -118q-58 -65 -131.5 -100.5t-149.5 -35.5z
M260 569h313q17 70 17 123q0 72 -32 118t-89 46q-44 0 -81.5 -27.5t-62.5 -72.5t-41 -92t-24 -95zM528 1214l-69 23q44 94 129 94q53 0 81.5 -26.5t28.5 -77.5q0 -79 -65 -148h-88q66 63 69 129q6 49 -32 49q-33 0 -54 -43z" />
    <glyph glyph-name="uni1EBC" unicode="&#x1ebc;" horiz-adv-x="751" 
d="M565 0h-559l301 1366h559l-41 -188h-346l-86 -387h332l-43 -189h-330l-92 -414h346zM717 1477q-35 0 -58.5 17.5t-34 42.5t-18.5 50t-20 42.5t-31 17.5q-48 0 -84 -158h-104q61 274 202 274q36 0 59.5 -17.5t34.5 -42.5t19 -50t20 -42.5t31 -17.5q48 0 84 158h105
q-26 -125 -77.5 -199.5t-127.5 -74.5z" />
    <glyph glyph-name="uni1EBD" unicode="&#x1ebd;" horiz-adv-x="800" 
d="M356 -25q-149 0 -232 93t-83 266q0 71 16 156.5t51.5 179t85 169.5t125.5 125.5t164 49.5q139 0 211 -82.5t72 -241.5q0 -97 -39 -258h-494q-12 -47 -12 -108q0 -82 40.5 -136.5t127.5 -54.5q44 0 90.5 26.5t83.5 69.5l74 -118q-58 -65 -131.5 -100.5t-149.5 -35.5z
M260 569h313q17 70 17 123q0 72 -32 118t-89 46q-44 0 -81.5 -27.5t-62.5 -72.5t-41 -92t-24 -95zM668 1135q-35 0 -58.5 17.5t-34 42.5t-18.5 50t-20 42.5t-31 17.5q-48 0 -84 -158h-105q61 274 203 274q36 0 59.5 -17.5t34.5 -42.5t19 -50t20 -42.5t31 -17.5q48 0 84 158
h104q-27 -125 -77.5 -199.5t-126.5 -74.5z" />
    <glyph glyph-name="uni1EBE" unicode="&#x1ebe;" horiz-adv-x="751" 
d="M803 1397h-105l-73 149l-152 -149h-115l197 221h178zM1184 1726l-277 -221h-129l228 221h178zM565 0h-559l301 1366h559l-41 -188h-346l-86 -387h332l-43 -189h-330l-92 -414h346z" />
    <glyph glyph-name="uni1EBF" unicode="&#x1ebf;" horiz-adv-x="800" 
d="M786 1139h-104l-74 200l-151 -200h-115l197 295h178zM1169 1579l-276 -295h-129l227 295h178zM356 -25q-149 0 -232 93t-83 266q0 71 16 156.5t51.5 179t85 169.5t125.5 125.5t164 49.5q139 0 211 -82.5t72 -241.5q0 -97 -39 -258h-494q-12 -47 -12 -108
q0 -82 40.5 -136.5t127.5 -54.5q44 0 90.5 26.5t83.5 69.5l74 -118q-58 -65 -131.5 -100.5t-149.5 -35.5zM260 569h313q17 70 17 123q0 72 -32 118t-89 46q-44 0 -81.5 -27.5t-62.5 -72.5t-41 -92t-24 -95z" />
    <glyph glyph-name="uni1EC0" unicode="&#x1ec0;" horiz-adv-x="751" 
d="M805 1397h-105l-73 149l-152 -149h-115l197 221h178zM565 0h-559l301 1366h559l-41 -188h-346l-86 -387h332l-43 -189h-330l-92 -414h346zM438 1505h-125l-145 221h174z" />
    <glyph glyph-name="uni1EC1" unicode="&#x1ec1;" horiz-adv-x="800" 
d="M786 1139h-104l-74 200l-151 -200h-115l197 295h178zM356 -25q-149 0 -232 93t-83 266q0 71 16 156.5t51.5 179t85 169.5t125.5 125.5t164 49.5q139 0 211 -82.5t72 -241.5q0 -97 -39 -258h-494q-12 -47 -12 -108q0 -82 40.5 -136.5t127.5 -54.5q44 0 90.5 26.5
t83.5 69.5l74 -118q-58 -65 -131.5 -100.5t-149.5 -35.5zM260 569h313q17 70 17 123q0 72 -32 118t-89 46q-44 0 -81.5 -27.5t-62.5 -72.5t-41 -92t-24 -95zM424 1284h-125l-145 295h174z" />
    <glyph glyph-name="uni1EC2" unicode="&#x1ec2;" horiz-adv-x="751" 
d="M803 1397h-105l-73 149l-152 -149h-115l197 221h178zM565 0h-559l301 1366h559l-41 -188h-346l-86 -387h332l-43 -189h-330l-92 -414h346zM768 1651l-70 16q45 70 129 70q53 0 82 -20t29 -58q0 -57 -66 -111h-88q67 47 70 97q6 36 -33 36q-32 0 -53 -30z" />
    <glyph glyph-name="uni1EC3" unicode="&#x1ec3;" horiz-adv-x="800" 
d="M786 1139h-104l-74 200l-151 -200h-115l197 295h178zM356 -25q-149 0 -232 93t-83 266q0 71 16 156.5t51.5 179t85 169.5t125.5 125.5t164 49.5q139 0 211 -82.5t72 -241.5q0 -97 -39 -258h-494q-12 -47 -12 -108q0 -82 40.5 -136.5t127.5 -54.5q44 0 90.5 26.5
t83.5 69.5l74 -118q-58 -65 -131.5 -100.5t-149.5 -35.5zM260 569h313q17 70 17 123q0 72 -32 118t-89 46q-44 0 -81.5 -27.5t-62.5 -72.5t-41 -92t-24 -95zM745 1501l-69 23q44 94 129 94q53 0 81.5 -27t28.5 -78q0 -78 -65 -147h-88q66 63 69 129q6 49 -32 49
q-33 0 -54 -43z" />
    <glyph glyph-name="uni1EC4" unicode="&#x1ec4;" horiz-adv-x="751" 
d="M793 1389h-105l-74 100l-151 -100h-115l197 147h178zM565 0h-559l301 1366h559l-41 -188h-346l-86 -387h332l-43 -189h-330l-92 -414h346zM717 1550q-35 0 -58.5 8.5t-34 21t-18.5 25t-20 21t-31 8.5q-49 0 -84 -78h-104q62 138 202 138q36 0 59.5 -9t34.5 -21.5t19 -25
t20 -21.5t31 -9q48 0 84 80h105q-27 -63 -78.5 -100.5t-126.5 -37.5z" />
    <glyph glyph-name="uni1EC5" unicode="&#x1ec5;" horiz-adv-x="800" 
d="M772 1071h-104l-74 201l-152 -201h-114l196 295h178zM356 -25q-149 0 -232 93t-83 266q0 71 16 156.5t51.5 179t85 169.5t125.5 125.5t164 49.5q139 0 211 -82.5t72 -241.5q0 -97 -39 -258h-494q-12 -47 -12 -108q0 -82 40.5 -136.5t127.5 -54.5q44 0 90.5 26.5
t83.5 69.5l74 -118q-58 -65 -131.5 -100.5t-149.5 -35.5zM260 569h313q17 70 17 123q0 72 -32 118t-89 46q-44 0 -81.5 -27.5t-62.5 -72.5t-41 -92t-24 -95zM725 1397q-35 0 -58.5 17.5t-34 42.5t-18.5 50t-20 42.5t-31 17.5q-48 0 -84 -158h-104q61 274 203 274
q36 0 59.5 -17.5t34 -42.5t18.5 -50t20 -42.5t31 -17.5q48 0 84 158h105q-26 -125 -77.5 -199.5t-127.5 -74.5z" />
    <glyph glyph-name="uni1EC6" unicode="&#x1ec6;" horiz-adv-x="751" 
d="M838 1481h-105l-74 200l-151 -200h-115l197 295h178zM565 0h-559l301 1366h559l-41 -188h-346l-86 -387h332l-43 -189h-330l-92 -414h346zM336 -260q0 -51 -37.5 -88t-87.5 -37q-43 0 -71.5 28.5t-28.5 71.5q0 49 38 86t89 37q42 0 70 -28t28 -70z" />
    <glyph glyph-name="uni1EC7" unicode="&#x1ec7;" horiz-adv-x="800" 
d="M784 1139h-104l-74 200l-151 -200h-115l197 295h178zM356 -25q-149 0 -232 93t-83 266q0 71 16 156.5t51.5 179t85 169.5t125.5 125.5t164 49.5q139 0 211 -82.5t72 -241.5q0 -97 -39 -258h-494q-12 -47 -12 -108q0 -82 40.5 -136.5t127.5 -54.5q44 0 90.5 26.5
t83.5 69.5l74 -118q-58 -65 -131.5 -100.5t-149.5 -35.5zM260 569h313q17 70 17 123q0 72 -32 118t-89 46q-44 0 -81.5 -27.5t-62.5 -72.5t-41 -92t-24 -95zM362 -260q0 -51 -37 -88t-87 -37q-43 0 -72 28.5t-29 71.5q0 49 38 86t89 37q42 0 70 -28t28 -70z" />
    <glyph glyph-name="uni1EC8" unicode="&#x1ec8;" horiz-adv-x="446" 
d="M219 0h-213l301 1366h213zM406 1563l-70 22q44 94 129 94q53 0 81.5 -26.5t28.5 -77.5q0 -79 -65 -148h-88q67 64 70 129q6 50 -33 50q-32 0 -53 -43z" />
    <glyph glyph-name="uni1EC9" unicode="&#x1ec9;" horiz-adv-x="397" 
d="M184 0h-192l219 989h192zM303 1214l-70 23q44 94 129 94q53 0 82 -26.5t29 -77.5q0 -79 -65 -148h-89q67 64 70 129q6 49 -33 49q-32 0 -53 -43z" />
    <glyph glyph-name="uni1ECA" unicode="&#x1eca;" horiz-adv-x="446" 
d="M219 0h-213l301 1366h213zM164 -260q0 -51 -37.5 -88t-87.5 -37q-43 0 -71.5 28.5t-28.5 71.5q0 49 38 86t89 37q42 0 70 -28t28 -70z" />
    <glyph glyph-name="uni1ECB" unicode="&#x1ecb;" horiz-adv-x="397" 
d="M346 1118q-47 0 -78.5 31t-31.5 74q0 62 44 100.5t95 38.5q47 0 78.5 -32t31.5 -75q0 -62 -43.5 -99.5t-95.5 -37.5zM184 0h-192l219 989h192zM143 -260q0 -51 -37.5 -88t-87.5 -37q-43 0 -71.5 28.5t-28.5 71.5q0 49 38 86t89 37q42 0 70 -28t28 -70z" />
    <glyph glyph-name="uni1ECC" unicode="&#x1ecc;" horiz-adv-x="940" 
d="M391 -25q-82 0 -144.5 32t-100.5 89.5t-57 131t-19 161.5q0 98 19 221.5t63.5 262t106.5 252.5t158.5 189t209.5 75q82 0 144.5 -32.5t100.5 -90.5t57 -132.5t19 -162.5q0 -67 -10 -150.5t-31.5 -179.5t-52.5 -189.5t-77.5 -180t-101.5 -152t-128.5 -105t-155.5 -39.5z
M403 166q71 0 135.5 93.5t104.5 226.5t63 266t23 225q0 221 -117 221q-72 0 -136 -93.5t-103 -227.5t-61.5 -267.5t-22.5 -226.5q0 -217 114 -217zM410 -260q0 -51 -37.5 -88t-87.5 -37q-43 0 -72 28.5t-29 71.5q0 49 38 86t89 37q43 0 71 -28t28 -70z" />
    <glyph glyph-name="uni1ECD" unicode="&#x1ecd;" 
d="M334 -25q-140 0 -216.5 89t-76.5 255q0 87 18 181.5t55 186.5t88.5 164.5t125 117.5t157.5 45q141 0 217 -88.5t76 -255.5q0 -87 -18 -181.5t-55 -186.5t-88.5 -164.5t-125 -117.5t-157.5 -45zM346 145q54 0 101.5 59.5t76 145.5t44.5 172.5t16 149.5q0 172 -109 172
q-55 0 -102.5 -59.5t-76 -146t-44.5 -173.5t-16 -150q0 -92 28 -131t82 -39zM354 -260q0 -51 -37.5 -88t-87.5 -37q-43 0 -71.5 28.5t-28.5 71.5q0 49 38 86t89 37q42 0 70 -28t28 -70z" />
    <glyph glyph-name="uni1ECE" unicode="&#x1ece;" horiz-adv-x="940" 
d="M391 -25q-82 0 -144.5 32t-100.5 89.5t-57 131t-19 161.5q0 98 19 221.5t63.5 262t106.5 252.5t158.5 189t209.5 75q82 0 144.5 -32.5t100.5 -90.5t57 -132.5t19 -162.5q0 -67 -10 -150.5t-31.5 -179.5t-52.5 -189.5t-77.5 -180t-101.5 -152t-128.5 -105t-155.5 -39.5z
M403 166q71 0 135.5 93.5t104.5 226.5t63 266t23 225q0 221 -117 221q-72 0 -136 -93.5t-103 -227.5t-61.5 -267.5t-22.5 -226.5q0 -217 114 -217zM653 1563l-69 22q44 94 129 94q53 0 81.5 -26.5t28.5 -77.5q0 -79 -65 -148h-88q66 63 69 129q6 50 -32 50q-33 0 -54 -43z
" />
    <glyph glyph-name="uni1ECF" unicode="&#x1ecf;" 
d="M334 -25q-140 0 -216.5 89t-76.5 255q0 87 18 181.5t55 186.5t88.5 164.5t125 117.5t157.5 45q141 0 217 -88.5t76 -255.5q0 -87 -18 -181.5t-55 -186.5t-88.5 -164.5t-125 -117.5t-157.5 -45zM346 145q54 0 101.5 59.5t76 145.5t44.5 172.5t16 149.5q0 172 -109 172
q-55 0 -102.5 -59.5t-76 -146t-44.5 -173.5t-16 -150q0 -92 28 -131t82 -39zM522 1214l-69 23q44 94 129 94q53 0 81.5 -26.5t28.5 -77.5q0 -79 -65 -148h-88q66 63 69 129q6 49 -33 49q-32 0 -53 -43z" />
    <glyph glyph-name="uni1ED0" unicode="&#x1ed0;" horiz-adv-x="940" 
d="M877 1397h-105l-74 149l-151 -149h-115l197 221h178zM1257 1726l-276 -221h-129l227 221h178zM391 -25q-82 0 -144.5 32t-100.5 89.5t-57 131t-19 161.5q0 98 19 221.5t63.5 262t106.5 252.5t158.5 189t209.5 75q82 0 144.5 -32.5t100.5 -90.5t57 -132.5t19 -162.5
q0 -67 -10 -150.5t-31.5 -179.5t-52.5 -189.5t-77.5 -180t-101.5 -152t-128.5 -105t-155.5 -39.5zM403 166q71 0 135.5 93.5t104.5 226.5t63 266t23 225q0 221 -117 221q-72 0 -136 -93.5t-103 -227.5t-61.5 -267.5t-22.5 -226.5q0 -217 114 -217z" />
    <glyph glyph-name="uni1ED1" unicode="&#x1ed1;" 
d="M778 1139h-104l-74 200l-151 -200h-115l196 295h179zM1161 1579l-276 -295h-129l227 295h178zM334 -25q-140 0 -216.5 89t-76.5 255q0 87 18 181.5t55 186.5t88.5 164.5t125 117.5t157.5 45q141 0 217 -88.5t76 -255.5q0 -87 -18 -181.5t-55 -186.5t-88.5 -164.5
t-125 -117.5t-157.5 -45zM346 145q54 0 101.5 59.5t76 145.5t44.5 172.5t16 149.5q0 172 -109 172q-55 0 -102.5 -59.5t-76 -146t-44.5 -173.5t-16 -150q0 -92 28 -131t82 -39z" />
    <glyph glyph-name="uni1ED2" unicode="&#x1ed2;" horiz-adv-x="940" 
d="M877 1397h-105l-74 149l-151 -149h-115l197 221h178zM391 -25q-82 0 -144.5 32t-100.5 89.5t-57 131t-19 161.5q0 98 19 221.5t63.5 262t106.5 252.5t158.5 189t209.5 75q82 0 144.5 -32.5t100.5 -90.5t57 -132.5t19 -162.5q0 -67 -10 -150.5t-31.5 -179.5t-52.5 -189.5
t-77.5 -180t-101.5 -152t-128.5 -105t-155.5 -39.5zM403 166q71 0 135.5 93.5t104.5 226.5t63 266t23 225q0 221 -117 221q-72 0 -136 -93.5t-103 -227.5t-61.5 -267.5t-22.5 -226.5q0 -217 114 -217zM510 1505h-125l-145 221h174z" />
    <glyph glyph-name="uni1ED3" unicode="&#x1ed3;" 
d="M778 1139h-104l-74 200l-151 -200h-115l196 295h179zM334 -25q-140 0 -216.5 89t-76.5 255q0 87 18 181.5t55 186.5t88.5 164.5t125 117.5t157.5 45q141 0 217 -88.5t76 -255.5q0 -87 -18 -181.5t-55 -186.5t-88.5 -164.5t-125 -117.5t-157.5 -45zM346 145
q54 0 101.5 59.5t76 145.5t44.5 172.5t16 149.5q0 172 -109 172q-55 0 -102.5 -59.5t-76 -146t-44.5 -173.5t-16 -150q0 -92 28 -131t82 -39zM416 1284h-125l-146 295h174z" />
    <glyph glyph-name="uni1ED4" unicode="&#x1ed4;" horiz-adv-x="940" 
d="M877 1397h-105l-74 149l-151 -149h-115l197 221h178zM391 -25q-82 0 -144.5 32t-100.5 89.5t-57 131t-19 161.5q0 98 19 221.5t63.5 262t106.5 252.5t158.5 189t209.5 75q82 0 144.5 -32.5t100.5 -90.5t57 -132.5t19 -162.5q0 -67 -10 -150.5t-31.5 -179.5t-52.5 -189.5
t-77.5 -180t-101.5 -152t-128.5 -105t-155.5 -39.5zM403 166q71 0 135.5 93.5t104.5 226.5t63 266t23 225q0 221 -117 221q-72 0 -136 -93.5t-103 -227.5t-61.5 -267.5t-22.5 -226.5q0 -217 114 -217zM840 1651l-70 16q45 70 129 70q53 0 82 -20t29 -58q0 -57 -66 -111h-88
q67 47 70 97q6 36 -33 36q-32 0 -53 -30z" />
    <glyph glyph-name="uni1ED5" unicode="&#x1ed5;" 
d="M778 1139h-104l-74 200l-151 -200h-115l196 295h179zM334 -25q-140 0 -216.5 89t-76.5 255q0 87 18 181.5t55 186.5t88.5 164.5t125 117.5t157.5 45q141 0 217 -88.5t76 -255.5q0 -87 -18 -181.5t-55 -186.5t-88.5 -164.5t-125 -117.5t-157.5 -45zM346 145
q54 0 101.5 59.5t76 145.5t44.5 172.5t16 149.5q0 172 -109 172q-55 0 -102.5 -59.5t-76 -146t-44.5 -173.5t-16 -150q0 -92 28 -131t82 -39zM737 1501l-69 23q44 94 129 94q53 0 81.5 -27t28.5 -78q0 -78 -65 -147h-88q66 63 69 129q6 49 -32 49q-33 0 -54 -43z" />
    <glyph glyph-name="uni1ED6" unicode="&#x1ed6;" horiz-adv-x="940" 
d="M866 1389h-104l-74 100l-151 -100h-115l196 147h179zM391 -25q-82 0 -144.5 32t-100.5 89.5t-57 131t-19 161.5q0 98 19 221.5t63.5 262t106.5 252.5t158.5 189t209.5 75q82 0 144.5 -32.5t100.5 -90.5t57 -132.5t19 -162.5q0 -67 -10 -150.5t-31.5 -179.5t-52.5 -189.5
t-77.5 -180t-101.5 -152t-128.5 -105t-155.5 -39.5zM403 166q71 0 135.5 93.5t104.5 226.5t63 266t23 225q0 221 -117 221q-72 0 -136 -93.5t-103 -227.5t-61.5 -267.5t-22.5 -226.5q0 -217 114 -217zM791 1550q-35 0 -58.5 8.5t-34 21t-18.5 25t-20 21t-31 8.5
q-49 0 -84 -78h-105q62 138 203 138q36 0 59.5 -9t34.5 -21.5t19 -25t20 -21.5t31 -9q48 0 84 80h104q-27 -63 -78 -100.5t-126 -37.5z" />
    <glyph glyph-name="uni1ED7" unicode="&#x1ed7;" 
d="M762 1071h-105l-73 201l-152 -201h-115l197 295h178zM334 -25q-140 0 -216.5 89t-76.5 255q0 87 18 181.5t55 186.5t88.5 164.5t125 117.5t157.5 45q141 0 217 -88.5t76 -255.5q0 -87 -18 -181.5t-55 -186.5t-88.5 -164.5t-125 -117.5t-157.5 -45zM346 145
q54 0 101.5 59.5t76 145.5t44.5 172.5t16 149.5q0 172 -109 172q-55 0 -102.5 -59.5t-76 -146t-44.5 -173.5t-16 -150q0 -92 28 -131t82 -39zM717 1397q-35 0 -58.5 17.5t-34 42.5t-18.5 50t-20 42.5t-31 17.5q-48 0 -84 -158h-104q61 274 202 274q36 0 59.5 -17.5
t34.5 -42.5t19 -50t20 -42.5t31 -17.5q48 0 84 158h105q-26 -125 -77.5 -199.5t-127.5 -74.5z" />
    <glyph glyph-name="uni1ED8" unicode="&#x1ed8;" horiz-adv-x="940" 
d="M909 1481h-104l-74 200l-151 -200h-115l197 295h178zM391 -25q-82 0 -144.5 32t-100.5 89.5t-57 131t-19 161.5q0 98 19 221.5t63.5 262t106.5 252.5t158.5 189t209.5 75q82 0 144.5 -32.5t100.5 -90.5t57 -132.5t19 -162.5q0 -67 -10 -150.5t-31.5 -179.5t-52.5 -189.5
t-77.5 -180t-101.5 -152t-128.5 -105t-155.5 -39.5zM403 166q71 0 135.5 93.5t104.5 226.5t63 266t23 225q0 221 -117 221q-72 0 -136 -93.5t-103 -227.5t-61.5 -267.5t-22.5 -226.5q0 -217 114 -217zM410 -260q0 -51 -37.5 -88t-87.5 -37q-43 0 -72 28.5t-29 71.5
q0 49 38 86t89 37q43 0 71 -28t28 -70z" />
    <glyph glyph-name="uni1ED9" unicode="&#x1ed9;" 
d="M778 1139h-104l-74 200l-151 -200h-115l196 295h179zM334 -25q-140 0 -216.5 89t-76.5 255q0 87 18 181.5t55 186.5t88.5 164.5t125 117.5t157.5 45q141 0 217 -88.5t76 -255.5q0 -87 -18 -181.5t-55 -186.5t-88.5 -164.5t-125 -117.5t-157.5 -45zM346 145
q54 0 101.5 59.5t76 145.5t44.5 172.5t16 149.5q0 172 -109 172q-55 0 -102.5 -59.5t-76 -146t-44.5 -173.5t-16 -150q0 -92 28 -131t82 -39zM354 -260q0 -51 -37.5 -88t-87.5 -37q-43 0 -71.5 28.5t-28.5 71.5q0 49 38 86t89 37q42 0 70 -28t28 -70z" />
    <glyph glyph-name="uni1EDA" unicode="&#x1eda;" horiz-adv-x="940" 
d="M1006 1776l-277 -295h-129l227 295h179zM391 -25q-82 0 -144.5 32t-100.5 89.5t-57 131t-19 161.5q0 98 19 221.5t63.5 262t106.5 252.5t158.5 189t209.5 75q204 0 282 -197q78 57 101 119h-15q-32 0 -53.5 22.5t-21.5 59.5q0 43 32.5 74.5t75.5 31.5q40 0 67 -27.5
t27 -76.5q0 -79 -54 -157t-134 -126q14 -79 14 -141q0 -67 -10 -150.5t-31.5 -179.5t-52.5 -189.5t-77.5 -180t-101.5 -152t-128.5 -105t-155.5 -39.5zM403 166q71 0 135.5 93.5t104.5 226.5t63 266t23 225q0 221 -117 221q-72 0 -136 -93.5t-103 -227.5t-61.5 -267.5
t-22.5 -226.5q0 -217 114 -217z" />
    <glyph glyph-name="uni1EDB" unicode="&#x1edb;" 
d="M872 1434l-276 -295h-129l227 295h178zM922 1120q0 -74 -49.5 -148.5t-124.5 -123.5q30 -82 30 -178q0 -87 -18 -181.5t-55 -186.5t-88.5 -164.5t-125 -117.5t-157.5 -45q-140 0 -216.5 89t-76.5 255q0 87 18 181.5t55 186.5t88.5 164.5t125 117.5t157.5 45
q146 0 224 -96q77 57 100 118h-14q-32 0 -55 22.5t-23 59.5q0 42 33 74.5t75 32.5t69.5 -28t27.5 -77zM346 145q54 0 101.5 59.5t76 145.5t44.5 172.5t16 149.5q0 172 -109 172q-55 0 -102.5 -59.5t-76 -146t-44.5 -173.5t-16 -150q0 -92 28 -131t82 -39z" />
    <glyph glyph-name="uni1EDC" unicode="&#x1edc;" horiz-adv-x="940" 
d="M391 -25q-82 0 -144.5 32t-100.5 89.5t-57 131t-19 161.5q0 98 19 221.5t63.5 262t106.5 252.5t158.5 189t209.5 75q204 0 282 -197q78 57 101 119h-15q-32 0 -53.5 22.5t-21.5 59.5q0 43 32.5 74.5t75.5 31.5q40 0 67 -27.5t27 -76.5q0 -79 -54 -157t-134 -126
q14 -79 14 -141q0 -67 -10 -150.5t-31.5 -179.5t-52.5 -189.5t-77.5 -180t-101.5 -152t-128.5 -105t-155.5 -39.5zM403 166q71 0 135.5 93.5t104.5 226.5t63 266t23 225q0 221 -117 221q-72 0 -136 -93.5t-103 -227.5t-61.5 -267.5t-22.5 -226.5q0 -217 114 -217zM768 1481
h-125l-145 295h174z" />
    <glyph glyph-name="uni1EDD" unicode="&#x1edd;" 
d="M922 1120q0 -74 -49.5 -148.5t-124.5 -123.5q30 -82 30 -178q0 -87 -18 -181.5t-55 -186.5t-88.5 -164.5t-125 -117.5t-157.5 -45q-140 0 -216.5 89t-76.5 255q0 87 18 181.5t55 186.5t88.5 164.5t125 117.5t157.5 45q146 0 224 -96q77 57 100 118h-14q-32 0 -55 22.5
t-23 59.5q0 42 33 74.5t75 32.5t69.5 -28t27.5 -77zM346 145q54 0 101.5 59.5t76 145.5t44.5 172.5t16 149.5q0 172 -109 172q-55 0 -102.5 -59.5t-76 -146t-44.5 -173.5t-16 -150q0 -92 28 -131t82 -39zM637 1139h-125l-145 295h174z" />
    <glyph glyph-name="uni1EDE" unicode="&#x1ede;" horiz-adv-x="940" 
d="M391 -25q-82 0 -144.5 32t-100.5 89.5t-57 131t-19 161.5q0 98 19 221.5t63.5 262t106.5 252.5t158.5 189t209.5 75q204 0 282 -197q78 57 101 119h-15q-32 0 -53.5 22.5t-21.5 59.5q0 43 32.5 74.5t75.5 31.5q40 0 67 -27.5t27 -76.5q0 -79 -54 -157t-134 -126
q14 -79 14 -141q0 -67 -10 -150.5t-31.5 -179.5t-52.5 -189.5t-77.5 -180t-101.5 -152t-128.5 -105t-155.5 -39.5zM403 166q71 0 135.5 93.5t104.5 226.5t63 266t23 225q0 221 -117 221q-72 0 -136 -93.5t-103 -227.5t-61.5 -267.5t-22.5 -226.5q0 -217 114 -217zM653 1563
l-69 22q44 94 129 94q53 0 81.5 -26.5t28.5 -77.5q0 -79 -65 -148h-88q66 63 69 129q6 50 -32 50q-33 0 -54 -43z" />
    <glyph glyph-name="uni1EDF" unicode="&#x1edf;" 
d="M922 1120q0 -74 -49.5 -148.5t-124.5 -123.5q30 -82 30 -178q0 -87 -18 -181.5t-55 -186.5t-88.5 -164.5t-125 -117.5t-157.5 -45q-140 0 -216.5 89t-76.5 255q0 87 18 181.5t55 186.5t88.5 164.5t125 117.5t157.5 45q146 0 224 -96q77 57 100 118h-14q-32 0 -55 22.5
t-23 59.5q0 42 33 74.5t75 32.5t69.5 -28t27.5 -77zM346 145q54 0 101.5 59.5t76 145.5t44.5 172.5t16 149.5q0 172 -109 172q-55 0 -102.5 -59.5t-76 -146t-44.5 -173.5t-16 -150q0 -92 28 -131t82 -39zM522 1214l-69 23q44 94 129 94q53 0 81.5 -26.5t28.5 -77.5
q0 -79 -65 -148h-88q66 63 69 129q6 49 -33 49q-32 0 -53 -43z" />
    <glyph glyph-name="uni1EE0" unicode="&#x1ee0;" horiz-adv-x="940" 
d="M391 -25q-82 0 -144.5 32t-100.5 89.5t-57 131t-19 161.5q0 98 19 221.5t63.5 262t106.5 252.5t158.5 189t209.5 75q204 0 282 -197q78 57 101 119h-15q-32 0 -53.5 22.5t-21.5 59.5q0 43 32.5 74.5t75.5 31.5q40 0 67 -27.5t27 -76.5q0 -79 -54 -157t-134 -126
q14 -79 14 -141q0 -67 -10 -150.5t-31.5 -179.5t-52.5 -189.5t-77.5 -180t-101.5 -152t-128.5 -105t-155.5 -39.5zM403 166q71 0 135.5 93.5t104.5 226.5t63 266t23 225q0 221 -117 221q-72 0 -136 -93.5t-103 -227.5t-61.5 -267.5t-22.5 -226.5q0 -217 114 -217zM791 1477
q-35 0 -58.5 17.5t-34 42.5t-18.5 50t-20 42.5t-31 17.5q-48 0 -84 -158h-105q61 274 203 274q36 0 59.5 -17.5t34.5 -42.5t19 -50t20 -42.5t31 -17.5q48 0 84 158h104q-27 -125 -77.5 -199.5t-126.5 -74.5z" />
    <glyph glyph-name="uni1EE1" unicode="&#x1ee1;" 
d="M922 1120q0 -74 -49.5 -148.5t-124.5 -123.5q30 -82 30 -178q0 -87 -18 -181.5t-55 -186.5t-88.5 -164.5t-125 -117.5t-157.5 -45q-140 0 -216.5 89t-76.5 255q0 87 18 181.5t55 186.5t88.5 164.5t125 117.5t157.5 45q146 0 224 -96q77 57 100 118h-14q-32 0 -55 22.5
t-23 59.5q0 42 33 74.5t75 32.5t69.5 -28t27.5 -77zM346 145q54 0 101.5 59.5t76 145.5t44.5 172.5t16 149.5q0 172 -109 172q-55 0 -102.5 -59.5t-76 -146t-44.5 -173.5t-16 -150q0 -92 28 -131t82 -39zM596 1135q-35 0 -58.5 17.5t-34 42.5t-18.5 50t-20 42.5t-31 17.5
q-48 0 -84 -158h-104q61 274 203 274q36 0 59.5 -17.5t34 -42.5t18.5 -50t20 -42.5t31 -17.5q48 0 84 158h105q-26 -125 -77.5 -199.5t-127.5 -74.5z" />
    <glyph glyph-name="uni1EE2" unicode="&#x1ee2;" horiz-adv-x="940" 
d="M391 -25q-82 0 -144.5 32t-100.5 89.5t-57 131t-19 161.5q0 98 19 221.5t63.5 262t106.5 252.5t158.5 189t209.5 75q204 0 282 -197q78 57 101 119h-15q-32 0 -53.5 22.5t-21.5 59.5q0 43 32.5 74.5t75.5 31.5q40 0 67 -27.5t27 -76.5q0 -79 -54 -157t-134 -126
q14 -79 14 -141q0 -67 -10 -150.5t-31.5 -179.5t-52.5 -189.5t-77.5 -180t-101.5 -152t-128.5 -105t-155.5 -39.5zM403 166q71 0 135.5 93.5t104.5 226.5t63 266t23 225q0 221 -117 221q-72 0 -136 -93.5t-103 -227.5t-61.5 -267.5t-22.5 -226.5q0 -217 114 -217zM410 -260
q0 -51 -37.5 -88t-87.5 -37q-43 0 -72 28.5t-29 71.5q0 49 38 86t89 37q43 0 71 -28t28 -70z" />
    </font>
</defs>
</svg>
