<svg xmlns="http://www.w3.org/2000/svg" viewBox="0 0 115.14 120.84"><title>COMPOSTABLE</title><g id="Layer_2" data-name="Layer 2"><g id="Layer_1-2" data-name="Layer 1"><path d="M114.37,115.41c1.24-3.25-.89-5.71-3.14-8.32a9.47,9.47,0,0,0-1.08-1L110,106c-3.52-3-3.69-3.8-1.67-7.9,7.27-14.73,8.69-29.88,4.21-45-.13-.45-.26-.9-.38-1.36a20.73,20.73,0,0,0-2-5.17c-5-8.05-3-16.1-.19-23.6,2.1-5.55,1.2-8.89-3.21-11.92A48.43,48.43,0,0,0,95.62,5.28C82.61.76,69.07.19,56.31,0H54.86C40.6,0,28.36,2,17.5,6.14,13,7.85,9,9.56,6.15,13.06,3.72,16,3.24,18.84,4.62,22A42.14,42.14,0,0,1,6.1,26.07c1.8,5.72,3.11,12.56-.91,20C1.9,52.15.21,59.57,0,68.75A61.07,61.07,0,0,0,7,98.52c1.78,3.42,1.26,4.67-1.46,7.19A22,22,0,0,0,1.86,110a6.46,6.46,0,0,0-1.23,4.82c.33,1.42,1.46,2.74,3.37,3.92,4.05,2.51,8.43,2.73,14.22.69,13.48-4.74,25.77-7.13,37.59-7.3,13-.18,26.52,2.17,41.39,7.23a24,24,0,0,0,9.32,1.16C108.78,120.37,112.81,119.47,114.37,115.41ZM7.6,18.75c-.06-1.6.89-3.18,2.81-4.7,4.53-3.58,9.85-5.21,15.83-6.81C37.79,4.13,50.6,3.08,65.41,4c9.34.58,18.46,1.35,27.27,4.26A53.55,53.55,0,0,1,104.5,13.9c2,1.28,3,2.71,3.1,4.27s-1,3.27-3.1,4.87C99,27.21,92.46,29,87.4,30a143.12,143.12,0,0,1-30.68,3q-3.07,0-6.37-.09l-1.92-.1c-7.16-.35-18-.89-28.2-4.75a47.76,47.76,0,0,1-9.65-5.05C8.66,21.75,7.66,20.31,7.6,18.75Zm96.24,98.45a12.1,12.1,0,0,1-4.17-.8,134.17,134.17,0,0,0-27.25-6.91,106.56,106.56,0,0,0-41.68,2.34c-3.75,1-7.52,2.17-11.17,3.33-1.5.47-3,1-4.5,1.41a10.7,10.7,0,0,1-8.75-.71,3.16,3.16,0,0,1-1.76-2.11,2.91,2.91,0,0,1,.86-2.42,30.41,30.41,0,0,1,3-3.14c3.53-3.07,4.29-6.64,2.25-10.62C1.55,79.73,1.37,61.71,10.15,44c1.58-3.19,2-6.76,1.22-11.58-.07-.5-.13-1-.17-1.33L11,29.25l1.5.49c30,9.89,59.47,9.79,90.21-.31l1.48-.49-.24,2.11c-.06.52-.13,1.17-.21,1.81a21,21,0,0,0,1.81,12.28c8.15,17,8,34.24-.52,51.27-2.7,5.4-2.07,8.52,2.49,12.38a17.82,17.82,0,0,1,2.49,2.77c.35.44.71.89,1.09,1.34l.64.76-.75.65A10.67,10.67,0,0,1,103.84,117.2Z"></path><path d="M42.3,95.25c.31.11.61.24.91.37a10.62,10.62,0,0,0,1.11.44c8.53,2.55,16.64,1,24.12-4.5A77,77,0,0,0,92.71,61.32c1.74-3.79,1-6.08-2.55-8.17A39.46,39.46,0,0,0,63,48.07C47,50.65,33.23,64.46,31.07,80.21q-.11.69-.18,1.38C30.36,85.72,29.81,90,26,93.14l0,0c0,.26,0,.53,0,.8a5,5,0,0,0,.17,1.53c.44.32,1.82.18,2.66.08a5.06,5.06,0,0,0,.41-.54,5.54,5.54,0,0,1,.38-.53,72.52,72.52,0,0,1,35.3-24.3,3.62,3.62,0,0,0,2.2-1.38,1.54,1.54,0,0,0,0-1.22,1.69,1.69,0,0,0-.8-1.07,3.39,3.39,0,0,0-2.46.09,74.48,74.48,0,0,0-19.66,9.43c-1.68,1.14-3.29,2.34-5.16,3.72l-2.84,2.09-2.09,1.52.52-2.53C37,69.22,42.83,61,52.39,55.8c12.21-6.66,24.71-6.22,37.16,1.33l.75.46-.36.8C84,71.65,75.87,81.76,65.19,89.3a21.89,21.89,0,0,1-17.11,3.83,28.75,28.75,0,0,1-3.74-1.08l-.67-.23a4.36,4.36,0,0,0-1.29-.25A1.4,1.4,0,0,0,41,92.63a1.93,1.93,0,0,0-.09,1.51A2.51,2.51,0,0,0,42.3,95.25Z"></path><path d="M65.52,27c1.1.52,2,.14,2.61-1.12a19.45,19.45,0,0,1,1.15-2.07,14.89,14.89,0,0,1,10.41-6.69,16.18,16.18,0,0,1,12.83,4,3.88,3.88,0,0,0,1.78,1c.31,0,.74,0,1.33-.71s1-1.67-.68-3.11c-5-4.23-10.12-5.78-15.74-4.74a9.15,9.15,0,0,1-5.83-.81c-10.48-4.94-21-4.93-31.36,0-2.62,1.25-4.78,1.75-7.51.35a10.56,10.56,0,0,0-4.21-.7,16.35,16.35,0,0,0-12.86,5.3c-1.31,1.4-.88,2.21-.28,2.82a1.8,1.8,0,0,0,1.24.66h0a2.77,2.77,0,0,0,1.7-.92l.14-.14c.2-.19.39-.39.6-.57a13,13,0,0,1,21,4.85c.08.21.15.46.22.7a3.53,3.53,0,0,0,.23.66,6.5,6.5,0,0,0,2.09,1,3.29,3.29,0,0,0,1.28-2.21,8.61,8.61,0,0,0-1.19-3.15c-.18-.36-.36-.71-.53-1.06a12.36,12.36,0,0,0-1-1.59c-.19-.29-.39-.58-.58-.9l-.61-.95,1-.48a33.84,33.84,0,0,1,14.82-3.6,34.64,34.64,0,0,1,12.84,2.61l1.67.66L70.7,17.2c-.34.26-.66.47-1,.67a4.27,4.27,0,0,0-1,.76,64.17,64.17,0,0,0-3.94,5.59A2.26,2.26,0,0,0,64.47,26,1.81,1.81,0,0,0,65.52,27Z"></path></g></g></svg>