<svg xmlns="http://www.w3.org/2000/svg" viewBox="0 0 733.55 382.92"><defs><style>.cls-1{fill:#93c954;fill-rule:evenodd;opacity:0.19;}</style></defs><title>1</title><g id="Layer_2" data-name="Layer 2"><g id="Layer_1-2" data-name="Layer 1"><path class="cls-1" d="M433.37,292.71s1.44-3.23,1.44-3.32c0-.85-1.05-2.75-1.05-4,0-3.7,2.57-3.41,4.68-4.74,1.62-1,3.91-3.8,5.06-5,.38-.38.19-1.71.48-2.28,2.38.29,2.19,5.22,3,7.12v1.14c-.39-.1-1.15-.38-1.25-.38,0,5.5-1.71,9.3-3.24,13.66-1.34,3.33-2,8.45-6.4,8.45-1.82,0-3.44-2.18-3.44-4.18,0-.94.29-1.32.19-1.89-.86-.67-.86-1.9-.86-3,0-.29,1.34-1.52,1.43-1.52Z"/><path class="cls-1" d="M388.65,173.35h1.52c0,1,.76,1.33,1.15,1.71.57.95,2.28.38,3.43.76,2.28,1,5.52,2.09,8.09,2.09,2.29,0,3-1.14,5.24-1.14,1.34,0,2.19.95,3.72.95,1.14,0,1.14-.38,2.09-.57.48,1.33,1.43,2.37,1.43,3.79a37.29,37.29,0,0,1-1.43,4.37c-1.52-.28-2.76-3.61-4-4.94v1.33l6.86,12.63c-.38,1.62,1.81,4.94,2.86,5.89v4c.76,2,2.19,2,3.24,3.51,1.33,1.8.57,3.8,1.81,5.13s2,1.33,3.24,2.27,1.81,4,4.19,4c0,1.33.67,1.52-.1,2.38,1,.76,1.91,3.22,3.15,3.22s1.24-1,2.19-1.33,1.81.19,2.86,0c2.76-.38,5.33-1.51,7.9-2.27.29.47.58.76.58,1.14,0,4.36-3.24,10-5.05,12.53-2.19,2.94-3.15,5.69-5.81,7.88-4.77,3.89-9.91,5.13-11.72,11.87-.48,1.9-2.38,2.37-2.38,4.55s.57,3.33.57,5.61c0,2.56,2.67,3.89,2.67,5.31a2.6,2.6,0,0,1-.48,1.14V273c0,1.14-.19,2.56-.19,4.75a2,2,0,0,1,.57,1.52c0,5.88-9.53,5.22-10.29,10.16a3,3,0,0,0-2.19,2.28c0,1.61,2,2.75,2,5,0,1.23-.09,3.7-.57,4.36s-1.62.29-2.19.57a6.86,6.86,0,0,0-3.62,3.52,2,2,0,0,1,1.14,1.61c0,2.09-2,3.7-2.86,4.65-1.62,1.71-1.81,3.42-2.95,4.94-1.81,2.37-2.57,4.46-5.53,6-1.23.67-3,0-3.23,1.43-1,0-1.53.47-2.2.47s-1.23-.76-2-.76c-3,0-4.85,2.28-7.62,2.28a2.4,2.4,0,0,1-2.28-1.52,1.35,1.35,0,0,0-.67.38,6.67,6.67,0,0,0-1.33-3.8,2.67,2.67,0,0,0,1-2c0-1.23-2-3.51-2.38-4.18-2.67-4.56-5.91-9-5.91-15.66V297c0-1.05-.86-1.43-1.43-2.47-2.09-3.51-4.19-6.36-4.19-11.3,0-5.32,4.48-6.55,4.48-10.54,0-1.9-.67-2.66-1-4.37a25.55,25.55,0,0,0-1.71-6.26c-.67-1.52-.38-3.23-1.24-4.47-1.9-2.56-6-5.12-6-8.73a6.25,6.25,0,0,1,1.62-3c-.29-.66,0-.76,0-1,0-.95,0-3.23.76-3.8-.86-1.71-2.1-3.23-4.57-3.23h-3.05c-2.1,0-2.67-4.37-5.62-4.37-3.62,0-6.29,1.81-9,2.66-1.14.38-1.52,1.33-2.57,1.33s-2.86-1.14-4.29-1.14c-2.85,0-4.09,1.52-6.85,1.52a5.19,5.19,0,0,1-2.2-.57c-2-1.61-6.19-4.18-7.71-6.55-1.43-2.18-1.81-4-3.62-5.51a44.38,44.38,0,0,1-4.29-4.27,4.94,4.94,0,0,1-1-1H310c0-1.14-.38-1.71-.38-2.38,0-1-.57-1.42-1.05-2.56,1.52-.76,3.05-4.84,3.05-6.74,0-3.32-1.53-5.41-1.53-8.45,0-1.52,1.72-2.47,2.1-3.61a44.38,44.38,0,0,1,4.76-9.49c1-1.43,3-1.24,4.19-2s3-2.18,3.24-3.42c1-2.75-.19-4,1.24-5.88,1.91-2.47,4.38-4.84,6.19-7.12h-.19A12.35,12.35,0,0,1,333,166a9.82,9.82,0,0,0,6.2,1.9c1.52,0,1.81-.95,2.66-1.33,2.77-1.43,8.1-3.61,11.34-3.61,1.05,0,2,.76,2.57.76.76,0,1.91-1.14,3.05-1.14.95,0,1.33.57,2.1.57,1.52,0,1.52-1.14,2.95-1.14s.95,1.33,2.1,1.33c.47,0,.66-.38,1.14-.38-.1,1-1.14.95-1.14,1.9,0,.66.95,1,.95,1.71,0,1.14-.95,1.71-.95,2.85a3.77,3.77,0,0,0,3.33,3.51h2c4.67,0,6.29,6.08,11.62,6.08.67,0,1.53-.76,1.53-1.14v-1.52c0-2.38,1.71-2.38,3.9-3.14l.29.1Z"/><path class="cls-1" d="M511,230.86c0,1.39-.85,3.28-2.25,3.28-.94,0-1.79-1.2-1.79-2.29,0-2.29,1-4,1-6.36,1,1.89,3,2.88,3,5.37Z"/><path class="cls-1" d="M492.29,204.13l-.39-.38c0,.29.19.86.19,1.14,0,1.43.77,2.85,1.15,4.38.58,1.61,1.82,4.18,2.2,5.22a7.78,7.78,0,0,0,.86,2.48c.58.85.29,1.9.86,3.13.29.57,1.25,1.34,1.54,2.38.57,1.62,1.33,3.14,1.91,5,.09.19.29.76.67.76,0,.47.48.76,1.05.76s.67-.95,1-1.52c.38-.77.48-.48,1.34-1,.57-.28.38-2.28,1.43-2.56.19-.1.67-.1.67-.29l.38-.09-.38-2c0-1.43.86-2.57.86-4.47,0-1.23-.48-2-.48-3.33,0-1.61,1.54-1.8,2.87-2.28a7.17,7.17,0,0,0,1.82-1.71c1.44-1.43,2.68-3,4.12-4.47,1.24-1.14,3.35-1.52,4.59-2.94.67-.67.57-1.43.86-2.48.29-.76,1.72-.76,2.3-1.9.57.38.57.76,1.72.76,1.91,0,3.92-.47,3.92-2.76,1.05.2,2.3.67,2.58,1.72s.2,2.18.77,3a8.08,8.08,0,0,0,2.39,2.38,27.62,27.62,0,0,1,2.11,4.08c0,.38.38.57.38,1,0,.86-.38,1.24-.38,2.29s.09,1.9,1.14,1.9c2.11,0,2.59-2.19,3.83-3.52.38.48.19.76.67,1.24.1.09.67,0,1,.38.67,1.14-.58,3.42.38,3.42,0,2.38,1.91,4.37,1.91,7.7,0,.76-.57,2.57,0,2.85.58-1.33.77-2.09,1.44-3.61.1-.19.57-.38.57-.76a17.12,17.12,0,0,0-1.53-4.75c-.48-.48-1.34-.86-1.34-1.72,0-.19.1-.47.1-.66V213a3.19,3.19,0,0,0,.76-1.61,8.13,8.13,0,0,0-.57-3.33c-.48-.67-1.43-.67-1.43-2a4.72,4.72,0,0,1,1.14-3.23c.39-.38,1.25-.19,1.82-.57a11.74,11.74,0,0,0,4.31-4.09c-.39,0-.67.19-1.15.19-1.44,0-2.3-1.71-2.3-3.23-.86-.1-1-2.28-1.53-2.28s-1,.38-1.53.38c-.19,0-.29-.48-.29-.76,0-2.76,1.92-2.86,1.92-5.9,0-1.52-1.06-2.09-1.72-3.23-1.82-.86-3.35-.76-3.93-3.14h-.38l-.67.67c-.86.28-1.82-.57-2.39.09a7.75,7.75,0,0,1-.86.86c-.48.28-2.87,2.47-3.93,2.47-1.24,0-2-.95-3.54-.95-1.81,0-2.1,1.33-3.15,1.9,0-.57-.39-1.61-.67-1.61-.48,0-.67.38-1.34.38H520.8c-1.63,0-2.3-1.15-3.35-1.91-.39-.28-1,.38-1.25-.19s-.28-1.14-.86-1.42c-1.05-.57-1.82-.19-2.68-1.14s-1.62-.48-3.25-.86c-1.24-.28-1.63-1.23-3-1.71-.29-.1-1,0-1.15-.48a21.67,21.67,0,0,1-.39-2.37v-.67c.77,0,1.63.1,1.63-.85s-1.05-1-1.05-1.91c0-2,2.68-1.71,2.68-3.7,0-.76-1.72-2.1-2.39-2.1-1.15,0-1.73,1.15-3,1.34-1.34-.48-2.11-.48-3.25-1.62-.39-.38,0-1.43-.86-1.62-1.06-.38-1.73,0-1.73-1.33a10.92,10.92,0,0,0-2.48-.19c-1.44,0-2,1.33-3.64,1.33s-.1-4-1.53-4-1.82,1.81-2.49,1.81a.85.85,0,0,1-.48,0,3.59,3.59,0,0,1-3.06,1.9c-.57,0-.76-.86-1.34-.86s-2.2.67-2.39-.28c-.67,0-.38-.29-1.15-.29-1.82,0-1.91,2-3.16,3.23-.57.67-1.43.67-2,1.24s-.87,1.24-1.73,1.24c-.67,0-1-.67-1.81-.67-.2,0-.2.38-.29.48-.58.28-1.72,3-1.72,3.13,0,.29.19.67,0,.76a3.39,3.39,0,0,1,.28,1v2.37c.29.67.1,1,.39,1.81s1.72,0,1.72,1.23c0,1.62-1.63,1.34-1.63,2.67,0,1,.67,1,1,1.33,1.15,2.56,3.63,2.95,3.63,6.18-1.91.38-3.06.76-3.06,2.94,0,.48.29.86.29,1.24l2.49-.09a4,4,0,0,1,.67-.57l1.91.57c.67,0,.86-.67,1.82-.67a7.8,7.8,0,0,1,2.1.1c.86.28,1.34,2.09,1.92,3,.76,1.14,2.77,2.66,4.3,2.66a8.93,8.93,0,0,1,1.63.1c-.29.28-.38,1-1,1.14-.67.28-1.15-.1-1.82.28,1.15,1.14,2,3.52,4.21,3.52,1.92,0,2-2.57,2.87-3.52h.67c0,.29-.47.76-.47,1.05,0,.95.76,1.9.76,3s-.38,1.14-.38,2.28l.29.19Z"/><path class="cls-1" d="M548.49,247c-.29,0-.1-.47-.29-.76,0-.1-1-.19-1.15-.38-.38-.19-.86-2-1-2.58-.57-1.81-2.2-1.52-2.68-2.57-.47-.86-.67-1.34-1.14-2.29-.29-.67-1-.48-1.63-.67s-1.72-2.19-2-3v-.66h.48c.67,0,.86.38,1.43.66h2.4c1.62.58,2.1,1.72,2.68,3,.19.38.47.29.76.38,1.15.29,1.63,1.24,2.39,2a9.45,9.45,0,0,0,4.21,3.14c1.06.38,2.3.77,2.3,1.81a1.41,1.41,0,0,1-.19.39h.57c.29,0,.58.38.67.76l-.28.76c0,1,.57,1.15,1.34,1.15,0,1.62,1,2.1,1.72,2.86.38.48,1.43.76,1.43,1.52v3.25c-.76.28-.38,1.33-.38,2.1s-1.43,1-1.91,1-1.73-2-1.73-2c-1.43-1.43-2.67-2.1-4-3.43a15.91,15.91,0,0,1-2.88-4.68,5.32,5.32,0,0,0-1.14-1.81Z"/><path class="cls-1" d="M572.86,253.66c-.1,0,0-.86-.1-1.14-.56-.1-.94.38-1.51.38-2.66,0-1.52-2.67-2.47-4.2,0-.09.1-.28.1-.38-.19-.38-.57-.38-1-.47s-1-2.77-1-3.15c0-1.24,1.51-.76,2.46-.76,2.28,0,2-2.39,2.94-3.44a4.56,4.56,0,0,1,2-.66c1.14-.2,1.14-1,1.71-1.53-.29-.38.47-.95.47-.95.48-.19.38-.39.76-.58.19,0,.28-.38.38-.57.66-.67,2.37-.28,2.65-1,.57-1.15,2.09-4,3.23-4s1.13.77,1.13,1.81c0,1.63,3,.77,3,2.2,0,.76-1.61.28-1.61,1,0,.19.09.38.28.38a21.42,21.42,0,0,1-2.08,1,4.52,4.52,0,0,0,.28.67c-.19.1-.47.29-.47.57,0,1.15,1.89,5,3.22,5-.29,1-.85.76-1.61.76a1.56,1.56,0,0,0-.67.1l-.38.76c-.37,1.72-.94,2.1-.94,3.43a2.23,2.23,0,0,0-1.61,1.72c0,.57.37.67.37,1,0,.67-.85,1.72-.85,2.57-1.14.29-1.33,1.24-2.27,1.24-.67,0-.86-.57-.86-1-1.23-.29-2-1.24-3.22-1.24-.57,0-1,.85-1.8.85-.19,0-.29-.38-.57-.38Z"/><path class="cls-1" d="M592.4,248.65c-.39.38-.39.77-.87.77-1.07,0-1.55-1.44-1.55-2.6,0-1.53,1.16-1.15,2.42-1.15s1.74-.38,2.8-.38,1.65.57,2.62.57c1.45,0,1.93-1.25,2.13-2.4.29,0,.29-.38.39-.67H600a21.11,21.11,0,0,0-2.42,1.82H597l-5.13-1c-1.84,0-2.81,2.5-2.81,4.33,0,.48-.58.86-.58,1.15-.58,1.73-1.36,2.5-1.36,4.13,0,1,1.07,1,1.45,1V258a1.25,1.25,0,0,0,1.17,1c.87,0,1.16-2.69,1.16-3.07,0-1-.68-1.54-.68-2.5a1,1,0,0,1,1.06-1c.2,0,.39.09.59,0l-.29,1.63c0,1,1.16,1.35,1.16,2.41a1.66,1.66,0,0,1,0,.67h1c0-.87,1.64-.77,1.64-1.64a2.16,2.16,0,0,1-1.06-1.34c0-.19.19-.29.29-.48a13.32,13.32,0,0,1-1.84-3.17c2,0,2.22-1.73,3.87-2.21v-.68A16,16,0,0,0,592.2,249l.2-.38Z"/><path class="cls-1" d="M580,265c-.75,0-.66-.47-1.51-.47-.19,0-.09.47,0,.75a18.26,18.26,0,0,0-7.55-1.12c-.85,0-1.13-1-1.79-1a11.68,11.68,0,0,1-4-.46c-1-.38-2.17.37-2.83-.38s-1.32-1.68-2.36-1.68c0-.18,1.32-1.49,1.79-1.49.19,0,.28.28.57.28s.66-.47,1.13-.47c2.17,0,3,2.43,5.38,2.43,1.13,0,1.32-1.12,2.17-1.12,1.41,0,2,1.31,3.21,1.31l2.17-.28H577c-.09.37-2.54.56-2.64.46a3.65,3.65,0,0,0,3,1c.38,0,.38.47.57.65.47.47,1-.09,1.7.1s.66.46,1.13.74a1.91,1.91,0,0,1-.76.75Z"/><path class="cls-1" d="M593.61,265.75H591c-.57,0-1.63.1-1.63-.81,0-.61.77-.51,1.34-.51,1.25,0,1.83.51,2.89.51s1.44-.51,2.11-.82a2.69,2.69,0,0,1-2.11,1.63Z"/><path class="cls-1" d="M587.65,265.52H587l-.61-.21a5.16,5.16,0,0,1-1.8.54c-.6,0-1.51-.13-1.51-.33,0-.62.61-.55,1.31-.55a3.28,3.28,0,0,1,1.4.21c0-.21.1-.28.1-.48h1.81c0,.48-.1.75,0,.82Z"/><path class="cls-1" d="M590.09,268.74c-.3,0-.41-.71-.41-1-.81,0-2-.09-2-.8,0-.53.91-.35,1.52-.35h.72c0,1,1.22.71,1.22,1.6,0,.17-.41.53-.61.53Z"/><path class="cls-1" d="M581.3,264.7h.8c.54,0,.54.36.93.44,0,.45-.53.71-.93.71s-.8-.26-.8-.44v-.71Z"/><path class="cls-1" d="M600.09,267c-.39,0,0,.78-.29,1.08a4.5,4.5,0,0,1-2.44,1.27c-.29,0-.48-.39-.48-.68,0-1.77,1.36-1.77,2.53-2.16.19,0,.19-.49.39-.69.68-.78,3.89-1.08,4.57-.59-.68,1.18-3.11,1.77-4.28,1.77Z"/><path class="cls-1" d="M619.62,258.36c.11.63.32.31.32.94s-.32.84-.65.84c0,.84.11,1.68-.54,1.68-.21,0-.54-.42-.54-.63,0-.84.87-.95.87-1.36,0-.63-.11-1.37.54-1.47Z"/><path class="cls-1" d="M603.8,253.94c0,.19-.5,1-.66,1a1.71,1.71,0,0,1-1.07-1.44c0-.87,1.73-.29,1.73.48Z"/><path class="cls-1" d="M611,252.88c.1.58.92.67.92,1.34,0,.1-.31.1-.51.1-1,0-1.54-.77-2.66-.77h-1.84a9.11,9.11,0,0,1-1.33-.29c0-.38.4-.48.51-.67h3.48c.2.58.71.29,1.22.29Z"/><path class="cls-1" d="M605.63,246.21v-.55a6.5,6.5,0,0,0,1.45-.09c-.08-.64-.51-.73-.51-1.1s.69-.55.69-.91a2.07,2.07,0,0,1-1.71-1.93c-.52.28-.6.83-.6,1.47,0,.91.51,1.19.51,2V246c0,.46.17,1.37.86,1.37a8.11,8.11,0,0,1-.69-1.19Z"/><path class="cls-1" d="M650.29,259.73c-.57-.71-1.8-.53-2.09-1.42h2.19c.19.09.85-.17.85-.17,1-.36,2.09-.36,2.75-.63,1-.44.57-2,1.62-2,.38,0,.66.63.66,1.07,0,1.51-1.52,1.24-1.52,2.48-1.32.27-2,1.07-3.51,1.07-.28,0-1.23-.53-1.23-.71l.28.35Z"/><path class="cls-1" d="M632.58,251.57a8.49,8.49,0,0,0,5.2,1.94c1,0,1.33,1.07,2.18,1.07,0,.68.57.68.95.77,2.27.78,2.17,2.91,4,3.78.66.39,2.17-.48,2.17,1.26,0,.88-1.32.49-1.32,1.26,0,.39,1.23,1.65,1.32,1.84.76.78.57,1.26,1.14,2.23a2.32,2.32,0,0,0,1.61.78c.19,0,.38.48.56.77s.57.1.86.2c.47.19.56.58.75,1s1.14.19,1.42.29c-.47.29-.94.68-.94,1.16H652a5.27,5.27,0,0,1-1.32-.87h-1.89c-1-.19-2.65-1.07-2.65-1.94,0-.29-.66-.48-.76-.58-1.42-1.55-2.74-3.68-5.11-3.68-1.79,0-1.6,1.35-2.64,1.84.28,1.06-.38,1.35-.38,1.84h-2.65c-1.89,0-2.37-2.33-4.26-2.33-.28,0-1,.1-1,.49h-1.51c-.57,0-1.23,0-1.23-.68,0-.87,1.42-1.26,1.8-1.55-1-1.07-.57-2.13-.85-3.3-.29-.87-2.37-1.74-3-2.13a12,12,0,0,0-3.88-.77c-1,0-1.51-2-2.65-1.65v-.68c-.19.58-.47,1.36-1.13,1.36-.19,0-.57,0-.66-.2-.38-.77,0-1.06-.38-1.74s-1.14-.29-1.33-.87c1-.59,3.22-.39,3.69-1.36h-.47a5.63,5.63,0,0,1-2.08.39,4.5,4.5,0,0,1-1-.29,1,1,0,0,1-.38-.68c-.57-1.07-2.27-.58-2.27-1.65,0-.49.57-.78,1-.78.85,0,1.32-1.26,2.65-1.26s2.17,1.26,3.4,1.55v2.72c0,.39.48.77,1.14.77,0,.29.94,1.46,1.42,1.46s1.13-1.07,1.23-1.26a2.92,2.92,0,0,1,1.79-1c.57-.29,1.42-1.65,2.37-1.84,0,.38.57.38.85.38.85.3,1.42,1.26,1.8,1.46h2a4,4,0,0,0,1.42.77v.1l-.38-.39Z"/><path class="cls-1" d="M657.63,256c-.85-.17-.85-.61-.75-1.31-.85-.44-.75-1.23-1.69-1.76-.57-.35-1-.26-1.22-.88a7.12,7.12,0,0,1,2.72,2c.56.62,1.31.44,1.31,1.41V256c-.09,0-.28.09-.37,0Z"/><path class="cls-1" d="M662.41,260.05c-.71-.1-.95-.9-.87-1.69a8.32,8.32,0,0,1,1.65,2.28c0,.2-.23.6-.47.6s-.31-.3-.31-.6v-.59Z"/><path class="cls-1" d="M676.46,269.38c0,.21-.09.31,0,.51-.71,0-1.15-1.22-1.07-1.73.54.41,1.07.61,1.07,1.22Z"/><path class="cls-1" d="M674.73,268.07c-.09,0-.28.09-.37.09-.83,0-1.94-.26-1.94-1.15a2.51,2.51,0,0,1,2.31,1.06Z"/><path class="cls-1" d="M674.73,266.43c-.84,0-2.2-1.68-2.31-2.31a4.44,4.44,0,0,1,2.31,2.31Z"/><path class="cls-1" d="M668.68,262.39c.7.39,2.19.87,2.59,1.54a1.07,1.07,0,0,1-.6.19c-.59,0-2.28-.67-2.28-1.44h.09l.2-.29Z"/><path class="cls-1" d="M664.92,260.66c.77.68,1.25.39,1.73,1.16H666l-1.06-.77s.29,0,.29-.1l-.29-.29Z"/><path class="cls-1" d="M644.21,340.27a13.63,13.63,0,0,0,3.21-.72c.2.91.78,1.27.78,2.18,0,1.63-1.94,5.44-3.4,5.44-2.24,0-4.67-5.35-4.67-6.9,0-1.18,4,0,4.08,0Z"/><path class="cls-1" d="M648.2,337.36c0,.71-.23.8-.23,1.16a1,1,0,0,1-.92-1.16,2.43,2.43,0,0,0,1.15,0Z"/><path class="cls-1" d="M626.29,327.52a2.78,2.78,0,0,1-2.89,0,3.16,3.16,0,0,1,2.89,0Z"/><path class="cls-1" d="M613,271.13v1.07h-.74a4,4,0,0,1-2.14-.71,8.45,8.45,0,0,1,2.88-.36Z"/><path class="cls-1" d="M656.68,301.86c1.14,1.62,1.9,5.71,1.9,8,0,1.62-.47,4-1.05,4.66v2.1c-.38.66-.19.95-.57,1.52-1.24,2.09-2.57,2.85-3.24,5.33-.66,1.8-2.09,4.18-2.09,6.75v-.09c-.86,3.42-6.76,1.9-7.33,5.51-.58-.09-3.53-1.8-3.62-2.28-1.62.19-1,1.62-2.86,1.62-2.86,0-7.43-1.9-7.43-5,0-1.15-.95-2-1-3.05v-.38a5,5,0,0,1-1.52.57H627a3,3,0,0,0,.58-1.62,1.78,1.78,0,0,0-.77-1.52c0,.19-.09.48-.09.76-.67.29-.76,1.62-1.81,1.62a.82.82,0,0,1-.76-.76c1.81-.38,2.19-4.28,2.09-5.42-1.33,1.33-3.14,5.32-4.66,5.32-.86,0-.58-1.42-.58-1.42-.47,0-2.09-3.71-2.66-4.47-1.15-1.53-5.34-2.29-7.72-2.29-2.66,0-3.14,1.14-4.76,1.71-3.62,1.24-8.19-.09-8.76,3.81-1.52.1-2.76.48-4.28.48-1.24-.58-1.24,0-2.1,0-2.48,0-3.62,2.56-6.86,2.56-1.14,0-4.66-1.61-4.66-2.66s1.71-1.71,1.71-3.42c0-2.19-1.14-3.43-1.52-4.76-.86-3.33-1.05-4.38-2-7.33-.29-1.14-1.81-1.52-1.43-2.66a9.13,9.13,0,0,1,.47-.95,1.8,1.8,0,0,0,.67.95c.19-.29,0-.57,0-.95,0-1.14-.95-2.1-.95-4v-4.38c0-.57.57-.76.86-.85a1.94,1.94,0,0,1,.09.76c1.33-.19,3-2.09,3.81-2.95s3.43-1.05,4.76-1.24c2.67-.47,8.57-2.57,8.57-5.13v-1.34a1.92,1.92,0,0,1,1-1.9,10,10,0,0,0,1,1.52c.77-.47.38-1.61.77-2.47a3.39,3.39,0,0,0,1.52.57c0-2.09,1.43-2.38,1.62-4.09,1.9,0,2.28-1.52,3.81-1.52,1.33,0,2,1.52,2.19,2.85a1.6,1.6,0,0,1,1.52-.85c.38,0,1,.57,1.14.66a3.28,3.28,0,0,0,.19-1.9c0-1.05,1-1.62,1-2.67s3-1.71,4.1-1.71a2.86,2.86,0,0,0,1.33-.57c-.38-.67-1.14-.86-1.33-1.71,2.47,1,3.9,2.09,6.57,2.09.86,0,1.24-.57,2-.57.38,0,1.43.76,1.43,1.33,0,.95-1.05,1-1.62,1.52l-1,3.81c0,.57,1,.38,1.52.76s.38,1.43.67,1.43c2,.76,3,1.14,4.85,1.9,1,.38,1.34,2.09,2.76,2.09,2.19,0,2.67-4.47,3-6.18v-6.85c1.14-.95.76-1.9,2-2.57.19,2.09,1.14,3.43,1.53,4.85.28,1.05,0,2.38.76,3.05.76.19,2.09.66,2.38.76.86.67.86,3,1.24,4.28.66,2,1.23,3.05,1.81,4.95s3.61,2.47,4.85,3.71a8.08,8.08,0,0,1,1.34,3.42c.28,1,1.42,1,2.38,1,0,3,2.76,4.37,4.09,5.8l-.09.19Z"/><path class="cls-1" d="M694.51,344.23a2.82,2.82,0,0,1,.09-.76,1.6,1.6,0,0,1,1.33-.85v-.48a3.18,3.18,0,0,1,1.81-2.47c0,.57.28.76.47.76,0,.57-.09,1.05.38,1.05s.86-.48,1.14-.67a.59.59,0,0,0,.57.29c0,.66.09,1,.38,1.14-.19,1-1.61,3.8-2.75,3.8a18.68,18.68,0,0,0,0,2.37c-.38,0-2.09.38-2.66.38C695,349.64,693,354,693,354c-.67.67-1.9,1.81-2.75,1.81-.29,0-1.14-.38-1.52-.38s-3.23-1.14-3.23-1.52c-.19,0-.38-.1-.38-.29,0-1.9,2.18-3,2.85-4.08.28-.57.66-1.05,1.14-1.05,1.8,0,2.84-1.9,4.08-2.46a8.58,8.58,0,0,0,1.33-1.81Z"/><path class="cls-1" d="M701.45,331c-.28-.57-.84-.86-.84-1.43a1.91,1.91,0,0,1,.28-.76c-1.69-.29-2.62-2.76-3.09-4.66.75,1.33,2,1.43,2.72,2.19.37.38.37.95.84,1.14-.09.28-.28.38-.28.57a7.1,7.1,0,0,0,1.22,2.38h.37a.73.73,0,0,1,.66-.76h.47c0,2,.84,3.13,2.62,3.13,1.32,0,1.22-.76,2.35-.76a.59.59,0,0,1,.56.48c-.94,1-.66,2.66-1.41,3.8l-.28-.38s-.09.19-.19.19c-.75.19-1.4.38-1.4.95,0,.29.28.57.28.76,0,.57-.84,1.34-1,1.53-.66,1.14-1.13,2.66-2.63,2.66a.92.92,0,0,1-1-1c0-.95.84-1.33.84-2.19,0-1.52-2.62-.95-2.62-2.28,0-.76.66-.86,1-1.24a4.37,4.37,0,0,0,.84-2.95,6.88,6.88,0,0,0-.37-1.71h.09V331Z"/><path class="cls-1" d="M708.37,284.31a1.38,1.38,0,0,0,1,.55v.79c-.53.39-.53.23-1.17.23s-1.71-.16-1.71-.39c0-.79,1.17-.95,1.92-1.18Z"/><path class="cls-1" d="M711.64,282v.71c-.87.31-1.06,1-1.83,1-.19,0-.48-.41-.48-.71,0-.92,1.83-1,2.31-1Z"/><path class="cls-1" d="M601.62,231.52c0-.18-.19-.27-.38-.45-.28.36-.56.45-.56.81s.75.63.75,1.36c0,.54-.28.9-.75.9-.19,0-.29-.36-.29-.54a1.63,1.63,0,0,1-.65.09,2.15,2.15,0,0,1-1.7-2.26.7.7,0,0,1,.38-.72c-.1-.18-.19-.45-.29-.63h-.84c0,.18-.1.36,0,.54-.47,0-.57-.18-.66-.36a1.29,1.29,0,0,0-.19.36c-.28-.09-.66-.63-.66-.63-.66.63-.56,2.7-1.32,2.7-.47,0,0-1.17,0-1.44s-.19-.45-.19-.63a10.55,10.55,0,0,1,.38-1.62c1.41,0,1-1.35,2.26-1.35.85.09.66,1.08,1.13,1.08h.38c0-.45.19-.81.66-.81,0-.9,1.13-.63,1.31-1s.19-1.26.29-1.44a1.44,1.44,0,0,1,1,.54,18.7,18.7,0,0,1,1.51,4.77c0,.63-.75,1-.85,2.08a5.9,5.9,0,0,1-.75-1.54v.18Z"/><path class="cls-1" d="M585.81,227.79h-.47c.75-2.09,2.92-2.89,3.67-4.39.1-.3.1-.6.38-.8-.09.6.28.8.56,1.1-.28.2-.37.4-.65.4a1,1,0,0,1-1.13.7,4.75,4.75,0,0,1-2.36,3Z"/><path class="cls-1" d="M589.49,211.66a4.37,4.37,0,0,0,.49-1.92c0-.73-.39-1.28-.29-2s.09-1.27.68-1.27.59,1.18,1.18,1.18c.39,0,.59-.45.88-.64,0,.09.1.28.1.37s.2.27.2.45c-.1.83.78,1.74.78,2.83,0,1.37-1.27,1.46-1.27,2.83a3.75,3.75,0,0,0,1.67,2.83V216c0-.27.39-.55.78-.55.79.09,1,1.46,1.38,1.55s.29-.45.58-.45.3.09.4.09c0,.36-.4.45-.4.73s.3.09.5.09c0,.46.39.73.88.73v.55c0,.09-.2.36-.3.36s-.29-.36-.39-.55c-.39-.73-2-1.36-2.35-1.91-.4.45-.2.64,0,1.18-.89,0-1-1.36-1.87-1.46-.49,0-.69.46-1.18.37a1.27,1.27,0,0,1-1-.82.76.76,0,0,1,.49-.73v-.64h-.39c-.2.18-.3.46-.49.46s-1.47-.83-1.47-1.19c0-1-.3-2.37.39-2.19Z"/><path class="cls-1" d="M600.63,223.21l-1-.09a2.48,2.48,0,0,0,.56,1.32v.47c-.19,0-.37-.09-.56-.09-.47,0-.56-.48-.28-.85v-.38a1.55,1.55,0,0,1-.93-1v-.37h.84a.43.43,0,0,0,.28-.38c0-.85-1.4-1.32-1.49-1.89.18-.09.37-.28.56-.28.55,0,.93.28,1.39.28,0,.19.1.47,0,.66h.37a3.36,3.36,0,0,1,0,1s.47.66.56.66c-.09.38-.28.57-.28.85Z"/><path class="cls-1" d="M594.45,220.87c.19.41,1.85.61,1.76,1.22,0,1.23-1.48,1.84-2,2.24,0-1.22-.19-2.54-.19-3.15,0-.1.28-.31.37-.31s.28.21.37.31l-.28-.31Z"/><path class="cls-1" d="M597.45,223.65c0,.84-.77,1.47-.77,2.31,0,.63.29.52.29.94a.43.43,0,0,1-.38.32,3.53,3.53,0,0,1-1.44-1.89c0-.21.38-.42.57-.42.1-.21.39-2,.77-2.1.67-.21,1,.42,1,.84Z"/><path class="cls-1" d="M598,223.18c0,1.15-.8,1.42-.8,2.31h-.35a6.81,6.81,0,0,0,.62-2.31Z"/><path class="cls-1" d="M599.18,224.91A1.1,1.1,0,0,1,598,226c-.21,0-.54-.16-.54-.25,0-.33.54-.49.76-.82.32.08.76.16,1,0Z"/><path class="cls-1" d="M596.3,220.54v-.82h.41c.13.49.74.66.74,1.4,0,.33-.47-.25-.47-.58Z"/><path class="cls-1" d="M592.64,219.72c-.44,0-2.11-2.31-2.11-2.31h.67c1,.52,1.77.43,2,1.11.23.43-.22,1.2-.55,1.2Z"/><path class="cls-1" d="M593.42,217.8c.16.19.49,0,.57,0-.08-.39-.41-.2-.57,0Z"/><path class="cls-1" d="M590.65,197.23c-1.27,0-1.08-1-1.08-2.18,0-1.68,1.58-4.74,2.65-4.74,1.77,0,.2,6.92-1.57,6.92Z"/><path class="cls-1" d="M566,204.34c.58,0,3.08-1.92,4-1.92.38,0,.86.67.86,1.15,0,1.06-2.21,3.46-3.26,3.46a1.45,1.45,0,0,1-1.64-1.54c0-.48-.29-1.15,0-1.15Z"/><path class="cls-1" d="M545.84,224.52c.57-1.33.77-2.09,1.44-3.62.1-.19.58-.38.58-.76a17.31,17.31,0,0,0-1.54-4.76c-.48-.47-1.35-.85-1.35-1.71,0-.19.1-.48.1-.67v.1a3.23,3.23,0,0,0,.77-1.62,8.14,8.14,0,0,0-.58-3.33c-.48-.67-1.44-.67-1.44-2a4.7,4.7,0,0,1,1.15-3.23c.39-.38,1.25-.19,1.83-.58a11.53,11.53,0,0,0,4.32-4.09h.49c0,.57.28.86.38.86s.38-.48.38-.67v-2a7.89,7.89,0,0,1,1.93-.47h2.4c1,.57,1.83-1.05,2.88-1.05s1.92.86,3.08.86c0,1.9,1.54,2.57,2.59,2.95-1.44,2.28-5,2.85-5,6.09,0,.67.38.86.67,1.14,1.63,1.71,2.4,3.71,4.13,4.95s3,4.47,3,7c0,1.72-.86,2.38-.86,3.71-2.41.67-2.6,1.43-4.52,2.48-.87.47-.67,1.62-1.54,1.62-.19,0-.19-.38-.19-.67V226c0,.76-1.54,1.9-1.83,1.9s-.57-1-.57-1.52,0-1,.28-1.05c-.28-.19-.38-.76-.48-1.14-1.05,0-2.5-.38-2.5-1.52-1.63,0-.86-1.15-1.73-2.1s-2-1-3.17-1.42c-.19,0-.38-1-.38-1-.19-.86-1.06-1-1.92-1-.58,0-.39.47-.39.85,0,.67.29.76.29,1.43,0,2.28-2.12,2.86-2.12,4.85,0,2.38,2.5,1.53,2.5,3.72h-.19c.29.47.39,1.8.87,2.38,2,2,6.24,2.47,6.24,6.28,0,.76-.28.76-.28,1.42,0,1.34,1.15,1.81,1.44,2.76s.29,1.34.57,2.19a3.51,3.51,0,0,1-.86.1c-.29,0-.29.28-.58.28-.67,0-.77-.57-1.25-.66a9.13,9.13,0,0,1-5.09-5.52,35,35,0,0,0-1.54-5.52c-.58-1.14-1.06-3.81-2.21-3.81-.77,0-.29.48-1,0-.1,0,0-.28,0-.48a14.77,14.77,0,0,1,.38-2.85h.39Z"/><path class="cls-1" d="M561.41,252.18c-.19,0-.48-.66-.48-.91-.29-.49-1.54-.16-1.54-.66s1.06-.82,1.54-.9c.38,1,.86,2.22,1.82,2.22a1.33,1.33,0,0,0,.1.66h-.48c-.48,0-.67-.41-1-.41Z"/><path class="cls-1" d="M564.66,252h.54c.23,0,.38.33.53.33,0,.42-.23.83-.61.83s-.46-.5-.46-.83c0,0-.08-.33,0-.33Z"/><path class="cls-1" d="M546.37,248.55a3.41,3.41,0,0,1,.83,2.31,3.35,3.35,0,0,1-1.07-1.9v-.41h.49V249l-.25-.41Z"/><path class="cls-1" d="M544.15,243.94c.41.27,1.4,1.73.91,1.73-.25,0-1.08-1.18-1.16-1.55h-.08l.33-.18Z"/><path class="cls-1" d="M611.32,173.86l.27-1c-.37-.19-.46-.65-.55-1,0,.28-.09.47,0,.66-.28,0-.55.37-.83.37s-.65-.47-.65-.84,1.94-1.87,2.12-1.87c.56,0,1,.56,1.85.56,0,.28-.18.75.09.75l.56.65a1.88,1.88,0,0,0,0,.75c-.19,0-.37.09-.56,0-.27,1.31-.83,3.64-1.75,3.64-.28,0-.28-.47-.28-.75v.47c-.55,0-.92-.84-.92-1.12a7,7,0,0,1,.65-1.21Z"/><path class="cls-1" d="M618.8,171.28a1.94,1.94,0,0,1-1.11-.5c-.71.66-.91,1.65-1.93,1.65-.3,0-.5-.66-.4-1-.51-.25-.61-.33-.61-.66l1.42-1c1.31.33,1.52-.82,2.63-.82,1.72,0,.81,2.31,0,2.31Z"/><path class="cls-1" d="M620.87,170.52c-.19,0,0-.38,0-.66s.28-1,.28-1.23c-.86-.19-1.34-.67-2.2-.67-.48,0-.48.48-.76.57-.58.28-1-.09-1.53.28a10.19,10.19,0,0,1-3.83,1.05c-.48,0-1,0-1-.29s.67-.47,1-.57c1.53-1,2.1-2.93,4-2.93h4.5c1.24,0,1.62-2.37,2.29-2.37.1,0,1.06-1.8,1.25-1.89a1.68,1.68,0,0,0-.39.85c0,.19.29.38.39.38,1.05,0,1.24-.76,2.1-1,1.53-.56,4-3.69,4-6.06,0-.57-.28-.57-.28-.94,0-.86.67-2.75,1.62-2.75.19,0,.1.95,1,.19a.31.31,0,0,1-.19-.1c-.29,0-.38-.66-.19-.66a.93.93,0,0,1,.86.38,2.75,2.75,0,0,1,.19,1.51c0,1.05,1,1.61,1,2.66,0,1.23-1,1.32-1,2.27V159c-.29.29-.48.1-.67.19-.77.19-.48,2.56-.48,3.41,0,.67-.86,1-.86,2.09,0,.66.29.94.38,1.42-.86.47-.86,1.23-1.72,1.51-.29-.66,0-.66.1-1.23-1.06.66-1.73.76-2,1.8-.1,0-.39-.19-.39-.38h-.67c-.48.48-.86.95-1.43.95-1.53,0-1.44-1.33-2.11-1.33-.19,0-.48.38-.48.67a2.62,2.62,0,0,0,.77,1.13,1.8,1.8,0,0,1-.77.1c-.48,0-1.34,1.23-1.72,2-.57-.19-.48-.76-1-.76Z"/><path class="cls-1" d="M632.57,146.37c.19.1.47,0,.66,0,1.2,0,1.67-2.92,1.67-3.86,0-.38-.28-.48-.28-.76,0-.57.28-.75.37-1,2,1.42,2.79,3.78,5.49,3.78.56,0,1-.47,1.49-.1-.09.38-.47.47-.47.85a1.21,1.21,0,0,0,.93.95,3.19,3.19,0,0,1-2.23.75c-1.49,0-2,1.7-2.51,2.55-1.12-.76-1.86-.85-3.07-1.7a.86.86,0,0,0-.46.66c-.93,0-2.14-.75-2.14.47,0,.76,1.11.76,1.39,1-.56.85-1.11.57-1.77,1.13h-.37v-1.7c0-.28-.37-.47-.37-.75,0-.85,1.12-1.32,1.3-1.89v-.56a5.07,5.07,0,0,1,.47.37l-.1-.19Z"/><path class="cls-1" d="M643.83,143l.33.35c-.24.34-1,1.38-1.56,1.38-.17,0-.17-.35,0-.61a2.13,2.13,0,0,1,1.4-1l-.17-.09Z"/><path class="cls-1" d="M648.78,141.12c-1.79,0-1.79,1.32-2.79,1.32-.1,0,0-.24,0-.33s.7-1.4,1.59-1.4a5.27,5.27,0,0,0,1.2,0v.41Z"/><path class="cls-1" d="M651.24,139.2c.15,0,0-.29.07-.43.08-.36.77-.36.93-.36-.08.36-.54,1.15-1,1.15-.16,0-.16-.36,0-.36Z"/><path class="cls-1" d="M638.61,129.77c-1.89,0-2.08,2.47-2.08,4.37s1.42,2.56,2.08,3.89a.83.83,0,0,1-.28.1c-.28,0-.66-.48-.66-.76h-.76c-.85,0-.85,1.61-1.7,1.61-.19,0,0-1.8,0-2.18,0-1.33.28-2.28.28-3.42s-.47-1.14-.47-2.09c0-1.14.38-1.42.38-2.37v-4.47c0-1-1-1.52-1-2.65,0-1.62.38-3.61,1.51-3.9,0-.38.29-.57.29-1v-1.61h.47a10.67,10.67,0,0,0,.85,3.51c.28,1.05-.28,1.81.19,2.85v1.8a4.44,4.44,0,0,0,.57,2.09c.56,1.81,1.51,3.33,1.89,5.23a1.91,1.91,0,0,0-1.52-1Z"/><path class="cls-1" d="M461.22,60.94c-1.53-1.65-4.21-2.33-4.21-5.23,0-4.94,5.08-10.06,8.72-11.13,1.34-.39,1.72-2.13,3.55-2.13.86,0,1.15-1.55,1.53-1.74,2.4-1.26,4.22-.58,6.81-1.94,1.82-.87,7.38-1.35,7.38-4,0-.87-2-1.94-2.88-1.94-3.64,0-7.09,4.36-10.93,4.36-.86,0-1.24-.87-2.2-.87-1.34,0-1.34.87-2.3.87-2.69,0-4.7,3.67-6.52,3.67-1.06,0-1.82.58-2.88.58a.75.75,0,0,0-.76.78c0,.48.48.77.48,1.35,0,2.23-3.74,3.29-3.74,4.65,0,.58,1.05.77,1.05,1.64-1.15.39-3.45.87-3.45,2.23v1.16c0,1.36-2.2,1.16-2.2,3,0,1,1.34,1.55,1.34,1.55a16,16,0,0,1,2.2,0c1.25.39.58,1.64,1.06,2.71.19.39,1.34,0,1.82,0,.19,0,.38.48.48.58h5.65a2.88,2.88,0,0,0-.67-1l.67.78Z"/><path class="cls-1" d="M402.73,143c-.28,1.23-.19.66-.47,1.14V146c-.67.76-2,2.28-2,3.32,0,1.52,2,2.57,2.39,3.24-.29.38-.57.28-1,.38-.57.19-1.14-.1-1.81.19-.86.47-1.14,1.42-2.1,1.42s-1.72-1.52-3-1.52-1.43.67-2.38,1.05a4.83,4.83,0,0,1,0,1.61c-1.15,0-1.24-1.14-1.91-1.14a.92.92,0,0,0-.76.86l1.33,1.61c-.09.48-.28.67-.28.95s1.9,2.09,2.57,2.09a1.16,1.16,0,0,0,.19.67c-.28.28-1.05-.1-1.14.47h-.19a4.58,4.58,0,0,1-1.91-1.14v.57a2.32,2.32,0,0,1,.48,1.33c0,.48-.77,1.33,0,1.71h-1.05a2.34,2.34,0,0,1-2.1-2.47c0-.57.66-.76.95-1.14h-1.24c-.29,0-.48-.66-.48-.85a5.16,5.16,0,0,0-1.52-2.38c-.86-1-2-1.61-2-3.13v-2c0-1-1.62-2.66-2.57-3.14s-2.2-.66-2.2-1.71h-1c-1.52,0-3.34-2.56-3.34-4.27H372c-1,0-.48-1.62-1-2.09-.76.57-2.38.57-2.38,1.42,0,.1.19.38.38.38a3.84,3.84,0,0,0-.29,1.43c0,1.14.67,1.52,1.53,1.9,1,.28,1.62,1.61,1.91,2.28.28,1,.76,2.28,1.33,2.56,1.05.57,1.82.19,2.87.19a1.15,1.15,0,0,1-.1.57c-.28.95,1.43,1.34,1.81,1.53,1.53.76,3.25,1.33,3.06,2.94-.77-.19-1.24-1.14-2.39-1.14-.86,0-1.52.48-1.52,1.24,0,1,1.24,1.23,1.24,2.18,0,.38-1,.38-1,.38-.57.67-.48,2.28-1.52,2.28-.48,0-.77-.28-.77-.57.86,0,1.24-1.14,1.24-2,0-1.14-.57-1.43-.76-2.19a9.09,9.09,0,0,1-2-2.18c-.28,0-1.33-.38-1.33-.76a6.46,6.46,0,0,1-4-2.57c-.48-.48-1.53-.76-1.72-1.33-1.33-1.71-1.71-4.85-4.48-4.85-1.34,0-1.34,1.05-2,1.33-1.43.67-2.29,2-3.91,2s-2.57-.86-4-.86a2.14,2.14,0,0,0-2.29,1.9l.48,1.71c-.48,1.52-2.1,2-3.62,2.38-1.25.29-3.34,3.42-3.34,5a1.11,1.11,0,0,0,.66,1c-.86,1.52-1.33,2.38-2.86,3.14-.86.47-.95,2.37-2.48,1.9v.09c-.57-.28-1.81.1-2.19.1-1.72,0-2.68,1.52-4.3,1.52-1.05,0-1.14-2.76-2.77-2.76-1.24,0-2,.57-3.15.57a.63.63,0,0,1-.57-.66v-3a1.08,1.08,0,0,1-1.14-1.05c0-.95.76-1.14.76-1.71,0-1.9.67-3.89.67-5.8,0-1.14-.76-2.18-.76-2.94,0-.38,2.48-2,2.86-2s.67.48,1.05.29h3.34a2.91,2.91,0,0,0,1.14.47h3.53c.86-.19,1.24.29,2,.29.47,0,1.62-.38,1.81-.38,0-1.52,1-1.9,1-3.42,0-.29-.09-1.62-.09-2.09l-.19.19a2.75,2.75,0,0,0,.38-1.14c0-.67-.48-.58-.48-1.15-1.43,0-1.91-1.33-1.91-2.56-.38-.1-.47-.48-.85-.57-1.15-.38-4.3-1-4.3-2.09-.09,0-.09-.19-.09-.29,0-.66,2-1.14,2.76-1.33a2.93,2.93,0,0,0,1.91.76,16.9,16.9,0,0,0,1.72-.38v-.57c-.57-.19-.29-1.23-.38-1.52v-.57h.67a3.1,3.1,0,0,0,2.19.95,1.41,1.41,0,0,0,1.24-1.14c2.2,0,2.77-1.61,3.15-3.42a3.58,3.58,0,0,0,1.05-.19,25.57,25.57,0,0,0,3.63-1.71c.57-.57.38-1.43.38-2.38,0-.28.57-.76.67-.85,1-1,2-2.28,3.72-2.28.95,0,.47.28.95,0,.29.28.48-.29.57-.48.58-.57,1.24-.09,1.82-.09s1.62-.67,1.62-1.24a13.5,13.5,0,0,0-.48-1.9c-.28-2.09-1.43-2.66-1.43-4.47,0-3.23,2.77-3.42,4.58-4.75V107a3.73,3.73,0,0,0-.38,2c0,.76.76.86,1.33.86v.57c0,.38-.66.57-.85.76-.77.76-1.63,1.42-1.63,2.75a1.44,1.44,0,0,0,.77,1.43c0,.38.09.57,0,.76.86,0,1.14.38,1.81.38.1.38.29.86.48.86,1.91,0,3.34-1.71,5-1.52-.1.38-.38.66-.38.85s1.24,1,1.24,1c.76,0,.86-.48,1.14-.67,1.24-.57,2.2-.38,3.34-1,.58-.28,1.72-1.43,2.67-1.43a5.81,5.81,0,0,1,2.39.38c-.09.29-.29.67-.29.77,1.91,0,3.82-.39,5.25-.39s2.2-.09,3.63-.09,2.29,2.85,2.29,4.47c0,1-1.05,1.52-1.05,2.56,0,1.52,1.43,2.57,1.43,4,0,.86-1.43,1.14-1.72,1.62a7.52,7.52,0,0,0-1.14,4.37c0,2.19,1.43,1.71,3.15,1.71,2.29,0,3.34-1,5.15-1s1.43,3.9,3.24,3.9v3c0,.29.29.38.39.57l.38.48a15.28,15.28,0,0,0,1.72-.48c.09.38,0,.76.09,1.14-.76.19-1.53.48-1.53,1.24Z"/><path class="cls-1" d="M366.49,101c-.95-.48-1.05-1.14-1.62-1.9-1.52,2.27-3.82,5.12-6.87,5.12a11.09,11.09,0,0,1-3.24-2.09c0-.57.95-.94,1.24-1.13V99.86a3,3,0,0,0-1.82.38c0-.48.77-1.42,1.15-2-1.15-1.33-1.24-3.23-1.24-5.31,0-1.14,1.14-1,1.53-1.71a5.57,5.57,0,0,1,3.24-2.65c1.34-.38,1.62-2.18,4.2-1.89-.76-.19-1.05-.38-1.72-.57,3.25-.76,4.39-3.42,6.59-5.22.85-.66.76-3,1.33-3l.67-1.7a7.08,7.08,0,0,1,3.44-3.23,8.42,8.42,0,0,0,3.91-4.74c-1.82.38-2.58,1.43-4.3,1.43a4.73,4.73,0,0,1,1.44-1.14,7.06,7.06,0,0,1-1.05-.19c.09-.76.47-1.23,1.05-1.23.28,0,.38.28.57.28.28-.47.47-.76.67-1a1.15,1.15,0,0,1,.19,1.42c1.24,0,1.52.76,2.38.76.38,0,1.24-1.8,1.34-1.9a1.52,1.52,0,0,0-1.15-.19c.39-.56,1-1.23,1.63-1.23s.95.19,1.52-.09a3.77,3.77,0,0,1-.57-.67c.67-.66,2-.66,3.05-.85v.85c1-.19,1.15-1.89,2.68-2v1.33c.95-1.89,2.19-1.42,3.43-2.18-.57-.19-1.05-.38-1.05-.85s1.34-.67,1.53-1.14c.48.47.86,1.14,1.53,1.14,1.05,0,3.81-1.9,3.81-.95s-1.24,1.42-1.52,2.46c1.43.1,1.9-1.61,3.14-2.27a2.22,2.22,0,0,1,.29,1.33,13.81,13.81,0,0,1,2.77-2.09c.09.95-.1,1.61.76,1.71.19-.57.48-1.14,1.05-1.14A15.87,15.87,0,0,1,405.05,61c-.67,1.8-1.24,1.23-3,1.8.76.57,1.24.67,1.24,1.14.67.09,2.2.28,2.39.28-1,.76-3.63,2.09-3.63,3.89,0,1.42,2.58,1.33,2.58,2.94,0,1.32-1.34,1.89-1.34,3.22s1.43,2.27,1.43,3.79c0,.85-.67,1.33-.67,2.18,0,1.71,2.2,2.18,2.2,3.79,0,.48-.67.85-.86,1,.57,1.14,2.29,1.43,2.29,3.13,0,2.47-5.06,5.31-6.49,7.39-.76,1.52-4.1,1.71-5.44,1.52-1.43.38-3.15,1.14-4.39,1.14-.95,0-1.52-.19-1.52-1-1.53,0-3.15-1-3.15-2.65,0-.66.76-1.23,1-1.61-.77-.28-1.44-2-1.44-2.84,0-.57.19-1,0-1.52,3.06,0,4.68-4.17,6.49-5.31,1.05-.57,2.77-.94,2.77-2.27,0-1.9-2.38-2.18-4.2-2.18-2.38,0-4.29.85-4.29,2.94,0,.94.19,1.32,0,1.8,0,1.7-3.34,3.22-4.87,4.07-1.24.76-2.48,1.05-3.24,2.47-.58,1,.19,2.46-1,3v1.42a1.92,1.92,0,0,1,.57,1.42c1.34.19,3.25,1.52,3.25,3,0,1.13-2.1,2.93-2.86,2.93-1.44,0-2,2.18-2,3.79a1.27,1.27,0,0,0,1.05,1.33c-.19,2-1.91,2.18-2.19,3.6h-1.91c-1.24,0-1.62,2.37-3.44,2.37-.57,0-1.62-3.13-1.62-3.51s.19-.56.19-.75c-1.24-1.33-1.14-2.37-1.62-4-.38-1.14-1.43-1.43-1.43-2.85a3.64,3.64,0,0,1,.47-1.32V101Z"/><path class="cls-1" d="M612.49,147.57a22.77,22.77,0,0,0,5,.76c4.09,0,7.89-9,10.85-12.06a14,14,0,0,0,3.14-5.6c.57-2.28-.29-3.61.76-5.7a9.45,9.45,0,0,0,1.33-4.18c0-2.09-3.14-6.08-4.57-4.94-4.28,3.42-6.47-1.8-6.47-2.18,0-2.19,3.81-4.47,5.33-6.08,2.28-2.38,5.23-6.27,8.37-7.22A99.73,99.73,0,0,1,649.89,99c3,0,4.38,1.42,6.19,1.42H660c1.24-4.94,3.33-7.88,8.38-7.88a15.39,15.39,0,0,1,4.28,0c-1.24,1-1.71,7.5,6.09-2.66.86-.1,4.57,1.52-1.05,5.32-2,1.33-3.71.66-5,2.66-1.52,2.28-2.85,5.13-5,6.36-1.81,1-4.29,2.85-4.29,6.08,0,2.75.86,11.87,2.86,13.58,1.43-2.28,2.47-6.46,5.42-7.22-.38-2.09,2.86-2.56,2.86-4.08,0-2.57,2.47-3.23,2.47-4.56,0-1-.66-1.81,0-3.42,5.9-13,11.23-6,13.33-6,6.47,0,11-8.65,16.65-8.74,10.66-.19,2.1-4.46,2.1-5.6,0-3.33,4.18-2.76,5-4.56.38-.76-.28-2.66,1.14-2.66,4.48,0,8.28,6.46,11.52,6.46,1.43,0,1.71-2.85,2.47-3.8,1.24-1.52,2.38-1.33,4.38-2.09C731,74,722.51,72,718.42,69.5c-5.71-3.51-13.23-7.21-21.61-7.21-2.37,0-3.9.47-3.61,1.52,2.19,7.31-3.33-.1-4.67,0l-16.65-.38c-.86-3.9-3.33-5.32-8.28-5.32-2.67,0-6.66,1-8.28-.38-1.43-1.24-1.52-3-3.62-3.71A43.86,43.86,0,0,0,637,51.36c-5.61,0-6.38,3-6.85,6H618.58c-2,0-2.28-1.71-4.66-1.9-.29,1.14-.67,3.42-1.81,3.42-3,0-4.38-3.9-4.38-6,0-.57,5.9-4.37-8.94-5.69-1.91-.19-2.95.66-2.95,3h-7.9c-2.38-.66-14.85-2.18-16.47-4.93-9.42,8.07-7.33,3-7.33,3,2.29-2.94,24.08-9.11,6.09-13.58h-7.51c-.77-2.09-2.29-4.18-5.43-4.18-3.71,0-5.23,2.95-7.23,4.56-1.43,1.14-10.76,5-9.9,1.52-2.38.76-12.56,1.43-17.8,6.37-1.14,1-1.43,4.18-3.14,4.18-2.38,0-11.32-.95-11.32,3.41,0,.86.85,1.81,1.14,3-1.62,1-2.19,0-7.23,0-4.29,6-3.91-1-4.86-2.28-.38,2.38-1.9,3.42-3.81,4.47.58,2.18,3.72,4.37,1.43,6.84-1.52,1.71,2.95,7.31.57,7.31-2.95,0-3.8-11.4-3.8-13.77,0-2.57,4-3.61-2.1-4.85-3.14-.66-9,4.66-9,7.51a10.48,10.48,0,0,0,3.24,7.6c4,6.55-5.62-.76-9.14-1.71-9.9-2.76-6.66.76-6.76,1.33-.28,5.79-2.66,1.14-3.9,1.14-2.28,0-6.85,3.13-10.09,1.51-1.71-4.46-12.47,5.61-15.13,5.61-.95,0-2.19-.67-1.81-1.52,1.05-3-.57-9.59-3.61.38-.2.66,1,1,1,2.28,0,2.66-3.71.85-5.71,1.52s-1.05,7.88-9.42,4.18v3c-4.09-.38-3.62-5-5-7.22,3.14,0,4.75-.1,7.8.76,4,1,12.09-4.18-.19-8.27-3.52-1.23-11.33-5.31-13.71-5.31a3.7,3.7,0,0,0-2-.1c-1,.76-3.62,2.09-3.62,3.89,0,1.43,2.57,1.33,2.57,3,0,1.33-1.33,1.9-1.33,3.23s1.42,2.28,1.42,3.8c0,.85-.66,1.33-.66,2.18,0,1.71,2.19,2.19,2.19,3.8,0,.48-.67.86-.86,1,.57,1.14,2.28,1.42,2.28,3.13,0,2.47-5,5.32-6.47,7.41A8.55,8.55,0,0,1,403,98.19a10.65,10.65,0,0,1-3.91,1.61c-1.23,0-2-.47-3.61-.47s-5.24,1.52-4.1,2.56c3.62,3.61,1.72,4.94.86,4.94-1.43,0-1.71-1.9-2.85-1.9-1.34,0-3,3.51-3,5.32,0,2.94-2.29,2.56-2.38,5.13a25.54,25.54,0,0,1,2.57-.19c1.33,0,2.18-.1,3.61-.1s2.29,2.85,2.29,4.47c0,1-1.05,1.52-1.05,2.56,0,1.52,1.43,2.56,1.43,4,0,.85-1.43,1.14-1.72,1.61a7.59,7.59,0,0,0-1.14,4.37c0,2.19,1.43,1.71,3.14,1.71,2.29,0,3.33-1,5.14-1s1.43,3.9,3.24,3.9v3c0,.28.28.38.38.57l.38.47a16.63,16.63,0,0,0,1.71-.47c1.62-.48,1.72-2.38,3.33-2.38,1.34,0,4.57,5.6,5.62,5.6a12.89,12.89,0,0,0,5-2.27c-.19,0-2-.38-2-.38a1.19,1.19,0,0,1-1.23-1.14c0-.57,5.23-2.57,7.23-3.33,0,0-.95,1.14-1.33,1.24.19.47,2,2.56-2.19,3.61,1.81,4.46,10.09,3.7,10.09,9.68h.28a4,4,0,0,1,1.53-.38c2.28,0,2.18,1.43,2.95,3a5.12,5.12,0,0,0,1.71,1.24c1.24.38,1.52,2.66,3.62,2.66,1.52,0,1.52-1.33,2.57-1.71a1.87,1.87,0,0,1,1-.19c.28.38.28,1,.57,1.33-.1.19,0,.28,0,.47l.95.1c.86-1.14.86-3,2.09-3.61-2-1.14-4.95-5.61-4.95-8.27,0-.66-1.61-1.8-1.61-2.94a18.68,18.68,0,0,1,1.8-3.7c.29.28,2.48-1.05,2.67-1.05a12.36,12.36,0,0,1,5.42-1.33c3.91,0,4.57,2,6,4.28-1.05.85-2.47,0-3.81,0-2,0-4.85,2-5,1.9.09,1.51,1.24,1.42,1.62,2.27,1.42,2.47,3.33,3.52,3.33,6.46a20.28,20.28,0,0,1,2.47-1.14c.1,1.14,1.24,1.71,1.24,2.85h-2.19c-.67,0-1.33.76-1.43,1.9a3.08,3.08,0,0,1,2.48,3.14c0,.85-.48,1-.48,1.8a2.78,2.78,0,0,0,.76,1.52c0-.66.86-.66,1.53-.85.85-.38.57-.67,1.33-.95,1.33-.48,2.19-.19,3.23-1.05a22.09,22.09,0,0,0,4,1.62c1.81.57,2.38,2.27,4.48,2.27,0,.38.47.57.57.86a17.05,17.05,0,0,0,.38,2.75c.76-.95,1.42.38,2.09.38.86,0,1.24-.76,1.71-1.23s1.43-.57,2-1.24c1.24-1.23,1.33-3.22,3.14-3.22.76,0,.48.28,1.15.28.19.95,1.9.29,2.37.29s.77.85,1.34.85a3.55,3.55,0,0,0,3-1.9c.19.1.38,0,.48,0,.66,0,1-1.8,2.47-1.8s-.19,4,1.53,4,2.18-1.32,3.61-1.32a11,11,0,0,1,2.48.19l.09-.38c-.28-1.81-.76-2.19-2.57-2.57.29-1.52,1.72-4.94,2.95-4.94,6.57,0,11.14-3.61,11.14-12.06,3.71-.57,3.9-5.22,6.09-4.94,5.8.76,3.52-3.51,4.76-4.56,2.85-2.56,7.23-2.66,10.75-4.84.57-.29,1.71-1.9,2.86-1.9,1.9,0,5,2.28,8,2.28,3.9,0,3.14-5.7,5.43-5.7,1.23,0,5.71.76,6.09,1.9,1.71,4.84,4.66,2.28,6.47,2.28,4.47,0,5.8,3.8,10.47,3.8,4,0,9.23-4,14.37-1.9,6.95,2.75,3.62-9.88,12.66-9.88,6.37,0,6.18,5.42,8.66,9.5,1,1.52,4.19,1.71,5.42,3,.86,1,1.81,3.7,3.91,3.7,2.37,0,2.85-2.28,5.8-2.28V134c-1.62,1.71-2.19,5.7-4,6.84-1.61.95-4.56,1.24-3.61,1.9,2.47,1.61-.29,4.84-.29,4.84Z"/><path class="cls-1" d="M590.66,170.74h-.19s-.1-1.23-.1-1.42c-.57-.1-1.9-.86-1.9-1.9s1.24-1,1.52-1.89c.67-2.09,3.71-2.09,5.14-3.61-.57-.75-1.62,0-2.66-.66-.48-.28-.76-.85-1.53-.85s-.66,1.61-1,1.61c-.57,0-1.33.28-1.9-.1-.86-.66-.57-1.42-1.43-2.08-.29-.19-1.52-.48-1.52-1.23,0-1.62,2.09-1.14,3.14-1.81a17.16,17.16,0,0,0,3-2.84c.19-.19.48-1,1.24-1,.57,0,1.33,1,1.33,1.42,0,1.24-1.33,1.71-1.33,3,2,0,3.61-2.18,5.89-2.18.86,0,1.24.76,2.38.76-.38.75,0,.75,0,1.7,0,.76-.86.67-.86,1.61,0,.38.29,1.24.76,1.24.19,0,.48-.38,1-.38.95,0,2,.57,2,1.51a1.06,1.06,0,0,1-1.14,1v.76a1.06,1.06,0,0,0,.67.57c0,.47.38.85.38,1.23s-.67,1.23-.67,1.8c0,.29,0,.67.38.76-.09.38-.38.57-.38.95h1c.47-.47.57-.47,1.42-.66,0-.67,1.81-.76,2.29-1,.95-.29,1.42-1.14,1.42-2.85a8.76,8.76,0,0,0-2.66-6.35,2.87,2.87,0,0,1-1.24-2.65,3,3,0,0,0,2.1-1c.57-.57,1.8-1.33,2.09-1.9,1-2.09,1.52-3.32,3.33-4.74,0,0,2.75-3.22.28-4.84-.95-.66,2-.94,3.62-1.89,1.8-1.14,2.37-5.12,4-6.83v-1.89c-2.95,0-3.42,2.27-5.8,2.27-2.09,0-3-2.75-3.9-3.69-1.24-1.33-4.47-1.52-5.42-3-2.47-4.07-2.28-9.48-8.65-9.48-9,0-5.71,12.61-12.65,9.86C579,126,573.73,130,569.74,130c-4.66,0-6-3.8-10.46-3.8-1.81,0-4.76,2.56-6.47-2.27-.38-1.14-4.85-1.9-6.09-1.9-2.28,0-1.52,5.69-5.42,5.69-3,0-6.08-2.27-8-2.27-1.15,0-2.29,1.61-2.86,1.89-3.52,2.18-7.89,2.28-10.74,4.84-1.24,1,1,5.31-4.76,4.55-2.19-.29-2.38,4.36-6.08,4.93,0,8.43-4.57,12-11.13,12-1.24,0-2.66,3.41-2.95,4.93,1.81.38,2.28.75,2.57,2.56l-.1.37c0,1.33.67,1,1.72,1.33.85.19.47,1.23.85,1.61,1.14,1.14,1.9,1.14,3.23,1.61,1.24-.18,1.81-1.32,2.95-1.32.67,0,2.38,1.32,2.38,2.08,0,2-2.66,1.71-2.66,3.7,0,.85,1,1,1,1.9s-.85.85-1.61.85V174a19.16,19.16,0,0,0,.38,2.37c.19.48.85.38,1.14.48,1.33.47,1.71,1.42,2.95,1.7,1.61.38,2.37-.09,3.23.86s1.62.57,2.66,1.13c.57.29.57.86.86,1.43s.85-.1,1.23.19c1,.75,1.72,1.89,3.33,1.89h3c.66,0,.85-.38,1.33-.38.28,0,.66,1.05.66,1.61,1-.56,1.33-1.89,3.14-1.89,1.52,0,2.28,1,3.52,1,1.05,0,3.42-2.18,3.9-2.47a6.81,6.81,0,0,0,.85-.85c.58-.67,1.53.19,2.38-.1l.67-.66h.38c.57,2.37,2.09,2.28,3.9,3.13.66,1.14,1.71,1.7,1.71,3.22,0,3-1.9,3.13-1.9,5.88,0,.28.09.76.28.76.57,0,.95-.38,1.52-.38s.67,2.18,1.53,2.27c0,1.52.85,3.23,2.28,3.23.47,0,.76-.19,1.14-.19h.47c0,.57.29.85.38.85s.39-.47.39-.66v-2a8,8,0,0,1,1.9-.48h2.37c1,.57,1.81-1,2.86-1s1.9.85,3,.85c0,1.9,1.52,2.56,2.57,2.94h0c1.23.57,2.09.1,3.42.76,0,.47-.28,1.9.38,1.9s.38-1,.95-1.52,1.9-.76,2.48-1c1.42-.76,2.75-.38,3.61-1.33A10.75,10.75,0,0,1,577,196c.76,0,1.14.57,1.8.57,3.33,0,4.19-2.09,6.18-3.32a1.57,1.57,0,0,0,1-1.33c1.71,0,2.28-2.75,2.85-4.27.48-.85,2.38-3.88,3.52-4.07,0-1.71,1-2.47,1-4.65a9.51,9.51,0,0,0-2-6.44c-.19-.38-.19-1.33-.86-1.71Z"/><path class="cls-1" d="M710.7,59.4a.79.79,0,0,1-.79-.81c0-1.23,2.27-2.65,3.55-2.65,1.08,0,3.94.81,3.94,2,0,1-5.91,1.43-6.7,1.43Z"/><path class="cls-1" d="M690.11,64a.83.83,0,0,0,.77-.77c0-.48-.39-.67-.48-1H688A2.46,2.46,0,0,0,690.11,64Z"/><path class="cls-1" d="M622.25,38.79l-.66-.73a1.87,1.87,0,0,0-.49,1.09c0,.46.24.64.49.64.58,0,.58-.73.66-1.09h-.16l.16.09Z"/><path class="cls-1" d="M576.11,45.09a4.85,4.85,0,0,1-1.83.47c-.81,0-1.63-.24-1.63-.79s.92-.94,1.63-.94c1.12,0,1.83.23,1.83.94,0,.4-.4.55-.61.79l.61-.47Z"/><path class="cls-1" d="M548.39,28.83c-.93,0-1.11-.35-1.11-1.07,0-1.17.83-1.17,1.29-1.62,1.58-1.62,2.22-4.23,5-4.23h.92c0,1,.37,1-.18,1.53.46-.09.74-.72,1.29-.72.92,0,3.79,1.89,3.79,2.88,0,1.71-3.6,2-4.9,1.8-.28,0-2.4.36-2.4.36l-3.7,1.07Z"/><path class="cls-1" d="M531.79,17.88c.36,0,2.26,1.07,2.8,1.17-.18,1.6-2.44,1.71-3.25,1.71-.37,0-1.36-1.28-1.36-2s1.45-.85,1.81-.85Z"/><path class="cls-1" d="M547.47,24.33c0,.66-.77,1-1.44,1-3.27,0-5.57-1.33-8.17-1.33-.86,0-2.79-2.1-3.84-2.67,2.4-.86,3.07-1.72,5.47-2.48-.76,0-2.69-.1-3.07-.1a10.76,10.76,0,0,1-5.29-1.62c3-1,4.14-4.48,7.6-4.48,2,0,3.17,2,4.42,3-.77.29-.68.2-1,.1a8.23,8.23,0,0,1,0,1.53c0,.38-.77,1.05-1.35,1.33a4.16,4.16,0,0,1,1.54,0c.86,0,1.34.76,2.21.76H546c1.44,0,1.44.48,2.4,1.53-.77.57-.57.76-.57,1.53s-1.06.76-1.45.95c.49.19,1.06.38,1.06,1Z"/><path class="cls-1" d="M538.63,33.16c.42-.32.84-.65,1.15-.87h1.16c-.11,1.19-.63,1.73-1.58,1.73-.42,0-.73-.54-.73-.86Z"/><path class="cls-1" d="M530.56,13.38c-1.06.23-2.5.46-2.89-.69h2.69l.2.69Z"/><path class="cls-1" d="M564.58,27.1a1.14,1.14,0,0,1-1,1.16,2,2,0,0,1-1.84-.87c1.84-.29,2.19.1,2.88-.29Z"/><path class="cls-1" d="M446.41,17c-1.27.84-2-.08-3.13.51-.69.33-.79,1.51-1.47,1.43-.4,0-.59-.34-.79-.59h0c-1.08,0-1.86-.25-2.06-.84a5.65,5.65,0,0,1,1.57-.51,4.46,4.46,0,0,1-1.37-.17,7.56,7.56,0,0,0,1.18-.58c-.69-.17-1.08-.59-1.77-.59s-2.15.84-3.33.84a10.68,10.68,0,0,1-1.57-.25c.59-1.1,4.12-1.27,5.69-1.27,1.86,0,2.84.85,4.31.85,1.08,0,1.66-.85,2.74-.85a6.73,6.73,0,0,1,2.26.68c-.2,1.17-1.18.59-2.06,1.17a.92.92,0,0,1-.69,0v.68l.49-.51Z"/><path class="cls-1" d="M473,15c-.88,0-1.28-.38-1.28-1.15,0-1.06,3-2.31,4.21-2.31l1,2.41A15,15,0,0,1,473,15Z"/><path class="cls-1" d="M470.58,14.42v1.15c-.51.67-1.32.39-1.92.39l.3,1c-.4.19-4.15.38-4.15,0a2,2,0,0,1,1.52-2.12,2.68,2.68,0,0,1,0-1h2.53a1.08,1.08,0,0,1-.81.58,7.65,7.65,0,0,0,2.53,0Z"/><path class="cls-1" d="M461.22,19c-.39,0-1-.84-1.47-.84-.1.84-.49.84-1.08.84a.77.77,0,0,1-.78-.63c0-1.15,2.94-1.68,3.72-1.68a2.29,2.29,0,0,1,2.05,1.05c-1.47,0-1.37,1.26-2.44,1.26Z"/><path class="cls-1" d="M460.9,15.19c-.86,0-2,1-2.86,1a36.59,36.59,0,0,1-3.61-1.44c.48-.39.57-.58.95-.87h3.05c-.86-.29-.58-.58-1.24-.19v-1c2.19,0,2.19-1.54,4.28-1.54.09-.67.57-1.35,1.23-1.35.19,0,.19.77.19,1a1.31,1.31,0,0,0-.57,1c-1.23.76-2.66,1.25-3.32,2a12.58,12.58,0,0,1,4.08,1.16c-.57.48-1.42.29-2.18.29Z"/><path class="cls-1" d="M389.38,32.7a1.63,1.63,0,0,1,0-1.34c-.86-.19-2.4-.1-3.26-.19.1-1.34.86-1,1.05-2.1-.47-.2-1.15-1.53-1.43-2.11a3.55,3.55,0,0,1,1-.19A2.68,2.68,0,0,1,385,25.62c-2.49,0-3.26,3.35-3.93,5.36-.19.38-.76.28-1.15.57-1.24,1-1.05,3.15-2.1,4.2-1.73-1.24-5.66-2.19-5.66-4.77a9.84,9.84,0,0,1,2.69.09c.76-.67,1.53-.48,2.39-.67A12.45,12.45,0,0,0,374,30c-.86,0-2.77.86-2.77-.95,0-.67,1.72-.67,2-.77a13.71,13.71,0,0,0,3.73-1.91H375a8.66,8.66,0,0,1-1.06-.67h-.57c-.67.38-.67,2-2.2,2a2.31,2.31,0,0,1-2.3-1.15,1.28,1.28,0,0,1,.57-.19c-1.24-.67-2.3-1.34-2-2.49-.19-.09-.38-.28-.57-.28-.48,0-1.35-1.34-1.82-1.91.28-.29,1.82-1.82,2.49-1.82a13.52,13.52,0,0,1,3.64.38,4.43,4.43,0,0,0-.87,1.05c.77.58,1.44.58,2,1.15a1.29,1.29,0,0,1-.58-1A1.27,1.27,0,0,1,373,20.18c2,0,1.43,2.67,3.25,3.34a9.62,9.62,0,0,1-.86-3.34c0-1.15.48-1.15,1.44-1.15s3,.77,3,1.53c0,.48-.29,1-.29,1.53.58-.38.77-1.05,1.34-1.05,1.15,0,1.06,1.24.86,1.81.2,0,.48.1.77.1,1.15,0,5.08,2.29,5.75,3.25h-.67a1.88,1.88,0,0,0,1.24,0,1,1,0,0,1,0,1.15h2.4c0,2.38,2.11,1.81,2.68,2.77-1.92.67-2.68,2-4.5,2.58Z"/><path class="cls-1" d="M399.07,19.81c-1.74,1.22-5.41,3.83-7.53,3.83a2.53,2.53,0,0,1-2.52-1.4h-4.15a1.2,1.2,0,0,1-1-1.12,9.64,9.64,0,0,1,1.45-.09,9.86,9.86,0,0,1,1.84-.38c-.29,0-3.29-.28-3.48-.28-1.26,0-2.7.94-2.51-.75A2.79,2.79,0,0,1,380,17.85h1.16a1.58,1.58,0,0,0,1.45.18v-.37h1.25l-.38-.75h2a9.85,9.85,0,0,0,3,1.5c.87,0,1.45-1.41,1.74-1.69h1c0,.94-.2,1.31,0,1.87.58,0,1.06-.74,2.12-.74h2.42a4.07,4.07,0,0,1,3.28,2Z"/><path class="cls-1" d="M365.24,24.8c1,1.19,2.07,1.44,2.69,2.88-1.66-.34-4-2.37-2.49-2.88v.25l-.2-.25Z"/><path class="cls-1" d="M325,116.42a3.88,3.88,0,0,0,2-.87c-.27-.48-.45-.68-.45-1,0-.58,1.36-1.55,2.09-1.55h1.19c1.54,0,2.36,1.84,2.36,3.2,0,.58-1.27.58-1.27,1.16V120c0,.58.45,1.55-.09,2.13-.37.49-1.09.39-1.82.39-1.1,0-1.92,1.36-2.46,1.74a3,3,0,0,1-1.28.3,1.91,1.91,0,0,1-1.73-1.75c0-1.94,1.73-2.13,2-4-.73-.39-1.37-.88-1.37-1.65,0-1,.55-.78.82-.78Z"/><path class="cls-1" d="M329.75,105.53c-.19,0-.46-.63-.46-.91,0-.45,1.18-.82,1.73-.82,0,.82-.55,1.73-1.27,1.73Z"/><path class="cls-1" d="M345.33,120.33c.48-.38.29-.28.87-.28a1.49,1.49,0,0,1,1.54,1.42c0,1.33-1.73,2-2.31,3a6.3,6.3,0,0,0,1.44.29v.47a2.48,2.48,0,0,1-2,1.15H342c-.78,0-2.71.66-3.87.66-.48,0-.77-.38-1.26-.38a1.19,1.19,0,0,0-1.16,1.24H334.6a1.31,1.31,0,0,0-1.06.66h-.49v-.47a25.72,25.72,0,0,1,2.61-2.86c1-.28,2.42.1,2.42-1,0-.19-.1-.38-.1-.57a1.53,1.53,0,0,1-1.35.76c-1,0-1.26-.85-2-.85-.48,0-.39.38-.77.38-.1,0-.29-.29-.29-.38,0-1.14,2-1.24,2-2.38,0-1-.58-1.33-.58-2.18,1.25,0,2.9-.67,3.28-1.43v-1.14c-.77.09-1.74-.1-1.74-.86a1.49,1.49,0,0,1,.49-1h-.68c-.68,0-1.06.28-1.64.28s-1.16,0-1.16-.57.67-1,.67-1.61-.19-.76,0-1.43a2.15,2.15,0,0,1-1.25-.38,1.12,1.12,0,0,0,0,1.14h-.58v-1.14a.66.66,0,0,1,.29-.57v-.66c-.39-.1-1.07-.29-1.07-.67s.49-.86.49-1v-.57c-1.07-.29-1.65-.48-1.65-1.43h1.16a.78.78,0,0,0,.49.67c.19,0,.29-.29.29-.48a.76.76,0,0,1-.29-.47.88.88,0,0,1,1-.86c0-.66.29-1,.29-1.33s.78-.95,1.16-.95h2.13a1.1,1.1,0,0,1,.77.67c0,1-1.64,1-1.83,2a1.28,1.28,0,0,0,.19.57h4.35c.29,2.09-2,3-2,4.66-.29,0-.48.29-.58.57.77.19,1.16-.09,1.74.1,1.35.47,1.16,2.28,2,3.13,1.16,1.24,3.09,1.71,3.09,3.52,0,.67.78,1,.78,1.62a.53.53,0,0,1-.39.57v.47c.58-.09.58-.38.87-.47l-.29.28Z"/><path class="cls-1" d="M334.54,116.49c-.64.13-.64.32-.64.58h1a4,4,0,0,1,.13-.58Z"/><path class="cls-1" d="M315.93,81.4A7.12,7.12,0,0,1,312.71,84c-1.71.66-3.13,1.89-5.59,1.89a18.58,18.58,0,0,1-6.45-1.32c-.95-.29-1.52-1.42-3.13-1.42.19-.09.48-.37.66-.37a7.32,7.32,0,0,1,.38-2.17c-1.23-.38-2.37.38-3.12-.38a14.45,14.45,0,0,0,3.69-.66.66.66,0,0,1-.28-.56c-.85,0-3.51-.85-3.6-1.7a1.78,1.78,0,0,1,1.42.19V77c.57,0,.66-.85,1.33-.85h.56c0,.47.29.66.38,1.13-.09.48.57,1.51,1.05,1.51s.94-.37,1.32-.47c-.09-.56-.19-.66,0-.94.29.28.48.66.95.66l1.71-.47a3.32,3.32,0,0,1,1,.56,2.08,2.08,0,0,1,0-.75c1,0,1.61.19,2.28.19.94,0,1.8-1,2.46-.19a1.62,1.62,0,0,1,.28-1.13c.48.09.48.19.76,0,0,.85.57.94,1.33.94s1-.38,1.71-.38c-.19.19-.48.47-.48.66,0,2.17,2.66,1.7,2.66,3.77l-.1.19Z"/><path class="cls-1" d="M191.46,203.22c-.47.93-1.8.93-2.65.93-1.71,0-2.85-.56-4.18-.56v-.46a.71.71,0,0,0,.67-.65c-1.05-.46-2.18-.37-2.37-1.48-.67,0-.57-.55-.86-.74-.57-.28-.95,0-1.51,0-.95,0-1.52-1.11-2.47-1.11H176c-.47-.28-.38-.65-.19-.83-.28-.28-.57-.19-.94-.19a7.12,7.12,0,0,0-4.08,1.76h-.67c1.24-2,2.75-3.24,6-3.24s4.65,1.85,7,1.85c.47,0,1,.74,1.23.84a6.56,6.56,0,0,0,4.46,1.85c0,.18-.1.37,0,.55h1c.76.28,1.14,1.3,1.61,1.48Z"/><path class="cls-1" d="M174,199.62a1.22,1.22,0,0,1,0,1c-.1,0-1,.08-1,0a.53.53,0,0,1,.57-.58v-.49h.2l.19.08Z"/><path class="cls-1" d="M186.86,207.54c.38.2.56.41.56.71a8.49,8.49,0,0,1-2.33.51,1.27,1.27,0,0,1-1.13-1.22c0-.3.47-.51.75-.51a5.62,5.62,0,0,1,2.25.71l-.1-.2Z"/><path class="cls-1" d="M209.34,207.74c-.19.45-.75.45-1.12.45-.83,0-1.76-.09-1.76-.8,0-.36.55-.36.74-.36s2,.36,2.14.71Z"/><path class="cls-1" d="M202.08,205.49a9.16,9.16,0,0,1,2.07,1.73h-2.76c-.59.29-.88.58-1.37.58s-.4-.38-.79-.38c-.88,0-.88,1.34-1.67,1.34s-.49-.77-.89-1c-.68-.48-2.45-.19-3.34-.19-.49,0-.49.19-.89,0,0,.19-.09.38-.09.58a1.37,1.37,0,0,1-.89-1.25c.1,0,.3-.2.39-.29,1.68,0,2.46.38,3.35-.1a1.84,1.84,0,0,1-.49-1.54,1,1,0,0,1-1-.86.63.63,0,0,1,.59-.58c.69,0,1.09.58,1.77.58,1,0,1.38-.29,2.27-.29,2.36,0,2.75,1.25,4.13,1.92l-.4-.29Z"/><path class="cls-1" d="M219.14,224.88v-.55h-.75c-.44,0-1,.73-1,1.46,0,.27.54,0,.76,0,.54,0,.86-.64,1-.91Z"/><path class="cls-1" d="M241.74,247.4a3.36,3.36,0,0,0,1.62.67c.11,1.06.82.2,1.22.2s.51.57.51.67c0,.67-1.12,2.5-2,2.5-1.12,0-3.16-1.44-3.16-2.12,0-1.15.61-1.92,1.53-1.92.1,0,.31.1.31,0Z"/><path class="cls-1" d="M192,346.69s.45-2.41.91-2.41.82.71.82,1.31-.27.7-.27.9v2.41h-.64a1.37,1.37,0,0,1-.82-1.11v-1.1Z"/><path class="cls-1" d="M185.08,238.48v-.38c0-.67-.38-1.15-.38-1.72,0-.95.38-1.23.38-2,0-1.52-1.34-1.33-1.34-2.66,0-1.05,1.43-1.52,1.82-2.19.57.19.38.19.86,0v-.38c0-.19.28-.38.38-.38,0-.76.76-1.05,1.24-1.33s.48-1.24.58-1.9a2.46,2.46,0,0,1,2-1.72c1.73-.57,2.87-.85,4.69-1.52,1-.29,1.15-1.43,2.11-1.43.38,0,.66.86.66.95a.83.83,0,0,1-.76.86c-.19,1.14-.67,2.47-.67,3.14s.48,2.28,1.24,2.28c.29,0,.67-.95.67-1.23,0-1-.86-1.43-.86-2.38,0-1.14,1.15-1,1.82-1.43h1.72c-.29-.86-1.34-.47-1.34-1.43h1.24c.29,1.24,1.92,1.62,3,1.91a1.29,1.29,0,0,0,1,1.33h3.82c0,.67,1,.86,1.53.86,1.05-.19,1.82-.19,2.2-1,.1-.29,1.63-.29,1.82-.38a17.51,17.51,0,0,1,2,.19,1.15,1.15,0,0,1-1,.19v.57c.47,1.05,2,1.33,3.06,1.71s.76,1.43,1,2.38h2c1.43,1.43,2,1.24,3,3.14.1.29.67.38,1.05.38.48,2.19,3.54,1.91,5.45,2.29h1.92a6.54,6.54,0,0,0,2.39.85v.19h.48c1.14,0,2.67,2.48,3.92,2.76a16.4,16.4,0,0,0,1.24,4.19c.38.76,1.34.76,1.34,1.52-1.15,1.52-3.25,2.29-3.25,4.47,0,.77.67.77.95.86a2.1,2.1,0,0,1,1.25,1.71h1.72c0,.29.19.86.38.86s.58-.48.86-.86c.67-1.23,1.53-2.85,2.68-2.85,1.34,0,3.92,1.43,4.88,2.09.57.38,1.24.19,1.34.76a4.59,4.59,0,0,1,.19,1.91h.48c.67-.29.95-.77,1.62-.77,1.53,0,1.82,1.15,3.25,1.15l2.78-.38a14.24,14.24,0,0,1,3.34,1.23,11.36,11.36,0,0,0,4.12,3.62c.95.28,1.62-.1,2.67.19,1.44.48,1.82,2,1.82,3.62,0,5.61-3,7-4.88,10.18-.47.66-.76.85-1.24,1.52-.67,1.14-1.53,1.33-2.2,2.09-1.15,1.14,0,3.52,0,5.33,0,1.43-.57,2.67-.57,3.62,0,.38-.29.66-.29.95-.29.38-1,1.14-1,1.71a13.1,13.1,0,0,1-.38,2.57,40.4,40.4,0,0,1-2.58,4c-.29.47-.19,1.43-.29,1.71a4.4,4.4,0,0,1-3.25,1.9,8.58,8.58,0,0,0-3.54.48,2.55,2.55,0,0,0-.67.86c-1.81,1.8-3.54.76-4.87,2.85-.58.95-1.54.95-2.11,1.62-1,.95-.76,2-.76,3.42v3.62c-1.53.76-2.2,2-3,3.62v-.1a25.13,25.13,0,0,1-1,2.47c-1.33,2.1-2.77,2.29-4,4.29-1.44,2.28-2,6-5.36,6a23.85,23.85,0,0,1-3.25-.76c-1.05,0-2-.95-3.06-.95-.19,0-.57.19-.57.38,0,.67,1,1.05,1.34,1.33.57.57.57,1.43.86,2.29s1.33.85,1.33,1.71a3.31,3.31,0,0,1-.38,2,11.58,11.58,0,0,1-1.81,2.28c-1.25,1.33-2.78.95-4.5,1.52-1.15.38-3.54-.47-4.21.19-1,1.05-.19,3.33-.76,4.38v.76c0,.38-1.15.86-1.63.86-1.53,0-1.82-1-3.25-1-.57,0-.77.57-.77.95,0,1.05.87,2.95,1.53,2.95.39,0,.77-.38,1.06-.47.28.28.57.38.57.76a1.29,1.29,0,0,1-.67.95c-.86,0-1.15-.67-1.91-.67,0,.86.48.95.86,1.15-1.34,1.33-1.34,2.66-1.82,4.56-.09.86-1.43,1-1.91,1.05a2.84,2.84,0,0,0-2.2,2.66c0,2.95,3.25,1.81,3.25,4.19,0,2.09-1.82,2.38-2.77,3.43-.58.57-.38,1.52-.86,2.57s-1.63.57-2.3,1.23a4.74,4.74,0,0,0-1.24,3.43c0,.76.67,1.71,1.15,1.71,1.24.76,1.24,4.28,2.1,5.23,1.63,1.72,3.54,2.38,5.55,3.33-.29.48-.77.29-1.15.29-1.15,0-2.87,1.43-3.54,1.43h-.86c-.19,0-.48.28-.67.28h-2c-1.72,0-1.15-2.09-2.29-2.47s-2.68-.38-2.68-1.71h-1.34c-.57,0-.77-.57-.86-1-2,0-2.58-1-3.54-2.09-.19-.19-.67-.57-.67-.76,0-.67,1.34-.57,1.44-1.24a1.81,1.81,0,0,1-.58-.38,3.17,3.17,0,0,0,.48-1.33c0-1.81-1.91-1.43-1.91-3.05v-1c0-1.71-1.15-4.38-1.15-5.62s1.72-1.9,1.72-3.14c0-.57-.86-1.8-1.05-2.66v-.67h.09a.77.77,0,0,1,.67-.85c1.25,0,.77,1.33,1.82,1.33l2.39-11.23v-1.14h-.57c-.58.28-.67.86-1.15.86s-1-1.72-1-2.57c0-1.43.48-2,.67-3.43.48,0,.77-.19.77-.38a1.29,1.29,0,0,0-.48-.86c-.29,0-.38-2.09-.38-2.66a9.74,9.74,0,0,1,1.72-4.57c.29-.47.38-1.52.76-2.09.2-.29.58-.19.67-.48.48-1.81.48-3,1-4.85l-.09-5.71c-.48-1.33.38-2.38.38-3.62,0-2.85,1.62-4.75,1.62-7.32v-.67a17,17,0,0,1,.58-2.66v-3.33c0-1.05.57-3.14.57-4.29a46.32,46.32,0,0,0-.57-6.09,6.55,6.55,0,0,0-3.06-3.61c-1.15-.57-1.92-.38-2.68-1.24a4.69,4.69,0,0,0-2.39-1.52,10.12,10.12,0,0,1-4.31-3.05c-.57-.66-.28-1.52-.28-2.37,0-1.24-1.05-1.81-1.34-2.86-.58-1.81-2.11-3.23-2.58-4.85a23.9,23.9,0,0,0-1.63-4.19c-.19-.48-.67-.28-.86-.48-.57-.57-.67-1.61-1-2.18s-.76-.29-1-.57a6.56,6.56,0,0,1-1.82-3.72,4,4,0,0,1,.86-2.28c.58-1.14,1.92-1.43,2.2-2.66-.66-.38-.57-.1-1-.1-1.05,0-1.15-1.43-1.15-2.57,0-1.71,1.82-1.43,1.44-4.76,2,0,2.49-2,3.06-3.23.86-1.62,2.68-1.14,3.16-3.14-.39-.19-.77-.57-.77-.76l.29-.57Z"/><path class="cls-1" d="M183.55,192.15c.31.1.41.65.41,1.19,0,.21-.1.43-.21.43-.36,0-.36-1-.36-1.62,0-.11.1,0,.16,0Z"/><path class="cls-1" d="M182.23,188.5a1.36,1.36,0,0,1,1-.5c.43,0,.6.33.77.5a12.34,12.34,0,0,1-1.73,0Z"/><path class="cls-1" d="M185.69,189.73a.66.66,0,0,1-.57-.58l.57.58Z"/><path class="cls-1" d="M192.61,200.82v.36c0,.09.16,0,.24,0a1.23,1.23,0,0,0,.92-.36v-.71a1.16,1.16,0,0,1-1.16.71Z"/><path class="cls-1" d="M184.16,171c-3.33,2-7.71,3.42-7.71,8.95,0,2.47,2.09,3.23,2.09,5.61v.38c.19,1,.86,1.72.86,3.05,0,1.62-.38,3-1.62,3-1.05,0-1.05-1.24-1.43-1.91-.86-1.23-1.62-1.61-2.19-2.76-1.14-2.47-.29-7-3.43-7-.67,0-.95.95-1.62.95-1.24,0-2.1-1.72-3.81-1.72-1.05,0-1.24.58-1.81.58-.19,0-.48-.38-.48-.58-1.14.29-2.66.1-3.9.58.66.28.57.28.95,0,0,1.14-.67,1.81.19,2.47-2,1-3.71-1.52-5.24-1.52-.38,0-.57.57-1,.57-.76,0-1.24-.76-2-.76-2.09,0-3.14,1.9-4,2.85-.57.58-1.24,0-1.9.39-1.62.57-2.58,2.57-2.58,4.85,0,.29.38.57.38.76-1.23-.09-3-.47-3.62-1.14-2.28-2.38-2.19-7.9-6.47-7.9-1.62,0-1.15,2.09-2.48,2.09-1.52,0-2.67-2.57-3.33-3.62-1.15-2.19-2.58-2.47-5-3.23h-1.43v1h-6l-7.72-2.67h-4.48c-1.14-2.28-4.76-3.81-7.43-4.85-.57-.29-.29-1.15-.57-1.72-1-2.66-3-3.52-2.67-6.66-1.52-.19-3-3.62-4.29-5.81-.38-.67.29-1.14.77-1.43-.86-1.71-.1-4.47-.77-6.38s1.24-6.09,1.24-8.47c0-1.72-1.81-2.38-1.81-4,0-.48.76-.57,1-.57a2.29,2.29,0,0,1,2.1,1.33,4.4,4.4,0,0,0,1-2.09c0-.77-.66-1-1-1.72h57.73v-1c1,.76.86,1.43,1.81,1.9h3.62c1.43,1.53,3.34,1.53,5.91,1.53-1.91,1.43-3.91,2.09-5.62,4.38h1.14a3.44,3.44,0,0,1,1.24-.57,1,1,0,0,0,1.14.76c1.24,0,1.24-1,1.91-1,.86,0,2.1-1.52,3.24-1.71,0,1-.57,1.33-.86,1.91h1.43a1.23,1.23,0,0,0,1.24.85c1,0,1.24-.66,2-.66,1.81,0,2.67.95,4.19.95v.85a8.89,8.89,0,0,1-3.24,0c-1.62,0-4.48,2.19-4.67,3.72.77-.48,1.05-1.14,1.72-1.14-1.24,1.71-1.81,5.61-1.81,7.52a1.68,1.68,0,0,0,1.71,1.52c1.05,0,1.43-2.28,1.43-3.24v-2.47c0-1,0-3.24.76-3.24,2.67-.19,1.43-2,2.58-2,.66,0,3.33,1.33,3.33,2.29s-.67,1.71-.86,2.76c.86,0,.77-.29,1.43-.48.29,1.14.29,1.72,1,2.29-.86,1-1.62,1.43-1.62,2.57,0,.76.29,1.9,1.05,1.9,1.9,0,5.24-1.9,6.67-2.66a9,9,0,0,0-.67-1.81c.48,0,.48-.1.86-.1,2.09,0,6.67.76,6.67-2.09.19-.1,2.76-2.86,3.24-3.24s2.09-.19,3.81-.19h1.81a8.79,8.79,0,0,0,1.81-.29c.66-.09.47-.38.76-.66,1.33-1.43,1.24-3.91,3.14-5.24.86,1.14,2.19-.48,2.77.57,1.14,2.1.19,5.24,1.62,7a2.88,2.88,0,0,1-2.39,1.24c-.85,0-.85-.39-1.62,0-1.14,1.23-3.62,2.09-3.62,4.95,0,.19.1.57.29.66,0,.38.29,1.34.76,1.34a5,5,0,0,0,.76-.48v.48c-.85.28-2.09.57-2.38.28-1.43,1.14-3.9.67-5.33,1.62h.76c.57,0,1.24-.38,1.81,0a7.19,7.19,0,0,1-2.76.38c-.19,0-.48-.09-.67-.09s-.48.38-.48.57c0,.38.67.85.67.85-.09.67-1.52,3.34-2,3.34-.19,0-.38-.48-.48-.67l-.38.38c.1.67.67.86.67,1.43a8.87,8.87,0,0,1-1.72,3.14c-.09,0-.28-.28-.28-.47v-.86a22.33,22.33,0,0,0-.76-2.48,2.26,2.26,0,0,0-.1,1c0,.48.38,1.81.38,2.57s-.47.67,0,1.14h.48v.77a1,1,0,0,1-.95.95,1.41,1.41,0,0,0,1,.66c-.19.86-.47.77-1.14.77v.57l.86.57c-.19.28-.48.76-.86.76-.86.19-1.24.76-1.81.95-.86.29-.76.57-1.24,1l.19.2Z"/><path class="cls-1" d="M206.14,142.64v-.28c.09.09.47,0,.76,0s2.18.28,2.85-.1.66-1.42,1.71-1.52c0,1-.1,1.14,1,1.14-1.62.1-4.19,1.33-4.19,3,0,.67,1,1.81,1.43,1.81s1.9-2,3.33-2.47c.38-.1,5.32-2,5.32-2.66s-1.9-.86-2.38-.86c-2.09,0-5.32-2.09-5.32-4,0-.47.57-1,.66-1.8-.38,0-1.14-.28-1.8-.28.47-.57,3-.95,3-2.47s-2.19-1.14-3.71-1.14c-3.23,0-4.66,2.37-6.75,2.66.86-2.09,2.38-1.33,4-3,1-1.05.28-1.71,1.8-2.28,2.76-.86,4.28-.38,7-.38,3.61,0,5.61,1.23,7.7-1.62,1-1.42,6.84-1.8,6.84-4.17a6.12,6.12,0,0,0-1.23-3.61c-.57,0,.28-.76-.57-1.14v-1a17.29,17.29,0,0,1-6.85,2.28c-.19,0-.66-.1-.66-.29,1.42-.85,5.42-1.42,5.8-2.85.09-.38-.48-.47-.57-.85-1.72.19-5.42-.57-5.42-3.13v-.29c-1.62,0-2.48-1-3.43-1.8a1.47,1.47,0,0,0,1-1.33c0-.76-.67-1.33-.48-2.09-.66-.29-3-1.81-2.37-3.23.76-1.71-2.28-2.09-2.57-4.08-.19,0-.95-.76-1.24-1.05-.47.38-1.61,1.05-1.61,2.19s-2.28,3.89-4.09,3.89c-1.33,0-1.52-1.71-2.38-1.71-1.23,0-1.71-3.7-2-5.22-.29-2.19-4.19-.67-4.19-3.42-2-.29-2.37-2.85-4.46-2.85-.86,0-.86.76-2,.76-2.09,0-3.33-1.33-5.42-1.33a1.89,1.89,0,0,0-2.09,1.9c0,.76,2.47,1.9.19,3.42-.95.57,1.33,2.28,1.43,3.42.28,2.18-1.81,2.75-2.67,3.13,1.62,2.94,4.09,3.89,4.09,8.93,0,1.33-4.28,4.74-5.7,5,2.47,1.33,1.52,5.41,2.47,6.74-.29.48-1.24,1-1.24,1.81-.85,0-1.52,1.42-2.18.85-1.81-1.42-4.38-3.8-4.38-6,0-2.47.48-4.37-1.52-5.7h-4.66a39.71,39.71,0,0,0-8.93-4.56c-.57-.19-2.19-1.42-3.24-1.42s-1.52,1.14-2.66,1.14c0-1.9-1.14-6.08-2.66-6.08-.76,0-1.14.57-1.81.76.29-1,0-1.23,0-3.42a8.57,8.57,0,0,1,2.48-6.55c.57-.57,1.8-3.51,2.37-3.8,1.24-.47,3.43.29,3.43-1.52,0-1.14-2.76-1.23-3.81-1.8.67.19-1.52-1.33,4.38.57,1.52.47.57-1.62,1.42-1.62h1.62c1.71,0,2.66-1.9,3.8-2.75V81.49c-2.47-.67-4.94-.29-6-2.56h1.24c.95.66,1.9,1.8,3.32,1.8,1.15,0,3.24-1.61,3.24-2.47,0-.38-1.14-1.71-.57-1.71,1.61,0,2.18,1.52,3.23,1.52.57,0,1.05-.57,2.38-.57-.38-.47-.1-1.8.85-.38.48.76,4.18-2.56,4.18-3.61,0-.66-1.71-1.42-1.71-1.9s-.95-1.71,1.33-2.84c.29-.67,0-.57,0-1.9-2.28,0-1.71-1.9-4.65-1.9-.67,0-1.14-.48-1.81-.48A1.69,1.69,0,0,0,168.2,66c0,.95,1.05,1.33,1.05,2s-1.62.76-2,1.51c-.57,1.33-.38,2.28-1.42,3.71C164.21,75.41,162,71.9,162,71s1.24-.76,1.24-1.89c0-.48-2.09-2.66-2.66-2.66-2.09,0-.67,3.32-2.85,3.32,0-1.33-.1-2.28-1.62-2.94a2.08,2.08,0,0,1,.67-1c-1.15-.76-2.76,0-3.62-1.14.57-.29,1.81-.86,1.81-1.81,0-1.42-2.09-1.42-2.19-2.47,0-2.37-1.61-3.89-4.37-4-1.43,0-.86.95-.76,1.71-.86.18-2,0-2,1.13,0,.76.57,1.14.57,1.9s-1,.67-1,1.71c0,2.47,4.85,1,4.85,3.52a15.83,15.83,0,0,1-.57,2.28l1.52-.76c.95,3.13-3.8,1.61-3.8,5.31-2.38.67-.48-1.8-1-2.66-.19-.38-2.18-.85-3.23-.85-1.33,0-1.81.76-1.81,2.37-1.23-.19-2,0-6.18,0-3.8,0-8.36-1.42-9.31-4.55-1.33.38-5.61.47-5.61,2.18,0,.47.28.76.85.76a9,9,0,0,0,4-1.14c.28,2.47-3.43.38-3.43,2.94,0,.57.76,2.28.48,2.28-1.52,0-1.81-1.9-3-2.47l-1.14-.57h-4.56c-1.43,0-2.38.67-4,.76-2.86.1-2.86-1-2.86-1.23,0-.67,2.19-.38,2.67-.86-2-2.94-1.72-2.46-5.8-2.08-4.38.38-6.56-3.42-10.94-3.42-1.33,0-1.9,1-3,1-.85,0-1.62-1.43-1.81-2-1.33.29-1.33,2-2.75,2S81.5,62.31,81,62.31c-1.42,0-.85,2.18-2.37,2.18a1.52,1.52,0,0,1-1.33-1,21.5,21.5,0,0,0-5,1.52c-.76.09-2.66,1.52-3.33,1-1.9-1.81-1.52.47-2.19.57-4.75.09-1.42,1.9-2.09,1.9a15.14,15.14,0,0,1-8-2.28,2.54,2.54,0,0,1-1-1c-.47.28-.09.19-.85,0V97.82c1,1.05,3.13-.28,4,1.14.57,1.05,2.09,3,3.61,3,1,0,1-1.61,2-1.9a2.56,2.56,0,0,0,1.33-.38,32.36,32.36,0,0,1,5.13,6.08c.1.28.67.38,1,1.14a8.21,8.21,0,0,0,1.43,2.85c.38.47,1.24.19,1.71.85.67.67,1.9,1,1.9,2.57,0,.85-1,1-1,1.51s.47.67.47,1c0,1-.28,3,.67,3.32a3.37,3.37,0,0,1,1.61.67c.67.66-.19,1.61.67,2.28a11.32,11.32,0,0,1,2,1.42c.48,1.71.67,3.7,3.05,3.7.38,1.52,2.94.57,3.51,2.57.19.76,2,.85,2.76,1.61.1.19.48.29.76.48H148.9v-.95c.95.76.86,1.42,1.81,1.9h3.61c1.43,1.52,3.33,1.52,5.9,1.52.95-.29,1.14,0,1.9-.38s.47-1.52,1.14-1.52c.86,0,1.43,1.33,1.71,1.61a2.11,2.11,0,0,0,.1-1h.57c.47,0,3.51,2.56,3.61,2.84.47.95,0,1.71.57,2.28,1.71,1.71,3.9,1.33,5.7,2.57h1.91c.85.57,1.9,1.33,1.9,2.47,0,.57-.29.95-.67.95-.85,0-1.81-1-2.09-1.33-.29,1.23-.86,4.84-1.9,4.84-.86.95-1.62,1.42-1.62,2.56.29.38.67,1,1.14,1s.67-.47.95-.76a3.8,3.8,0,0,1,2.76-.66c.95,0,1.33.57,1.71.38s.86-.48,1.14-.67c-.09-.38-.28-.85-.38-1.23s-.47-.38-.47-.67.76-.57.95-.66a31.74,31.74,0,0,1,6.75-1.42c.19-.1,2.75-2.85,3.23-3.23s2.09-.19,3.8-.19h1.81a8.79,8.79,0,0,0,1.81-.29c.66-.09.47-.38.76-.66,1.33-1.43,1.23-3.9,3.13-5.23.86,1.14,2.19-.47,2.76.57,1,1.9.38,4.66,1.24,6.46v-.19Z"/><path class="cls-1" d="M54.62,65v32.8c1,1,3.14-.29,4,1.14.57,1.05,2.09,3.05,3.62,3.05.95,0,.95-1.62,2-1.91a2.59,2.59,0,0,0,1.34-.38,33.22,33.22,0,0,1,5.13,6.1c.1.29.67.38,1,1.15a8,8,0,0,0,1.42,2.86c.38.47,1.24.19,1.72.86.66.66,1.9,1,1.9,2.57,0,.86-1,1-1,1.52-.38,0-.38.1-.66.1-1.24,0-3-1.43-3-2.29v-1.14c0-1.15-.85-1.15-2.19-1.15-1,0-1.33-.66-1.33-1.14s1.14-.67,1.14-1.24v-1c-1.42,0-1,1-2,1a1.61,1.61,0,0,1-1-1.14,2.34,2.34,0,0,1,.76-1.62c-.38-.39-1-1-1.33-.48a2.92,2.92,0,0,1-2.19-1.14c-.19.57-.48,1.33-1,1.33-1.52,0-2.57-2.19-3.42-2.86-1.81-1.43-4.29-1.33-6.48-2.67h-4c-2.38-.86-5.52-1.14-6.76-3.81-.86.38-2.28.76-3,1.14a1.81,1.81,0,0,0,.76,1c-.95,1.53-5.61,4.29-7.23,4.29-.29,0-.76-.19-.76-.57s.47-.48.67-.57c-.39-.58-.1-.58-.1-.86,0-1.72,1-3.05,3.14-3.72,0-.19.1-.48.1-.76h-.86c-1.71,0-6.47,4.19-6.47,6.67v1.14c0,1.82-1.62,2.39-3.33,3.06-.86.38-1.14,1.14-1.72,1.9-1.14,1.43-3.61,2.19-4.75,3.43s-3.62,1.91-5.71,2.29c-2.67.38-4.1,3.63-7,2.67.86-1.43,2.19-.86,3.43-1.62.86-.48,1.52-2,2.28-2.48,1.24-.76,2.57,0,3.43-1.14,1.24-1.62,4.09-3,5.81-4.1s1.61-3.43,3.42-4.58H23c-1.05.48-1.52,1-2.67,1a5.65,5.65,0,0,1-1.9-.58c-.19.58-.47.86-.57,1.34a11.2,11.2,0,0,1-3.43-2.1,5.84,5.84,0,0,0-.09,1.15h-.86c-.38,0-.76.57-1,.57-.48,0-.77-1.24-.77-1.91v-1.52c0-.2.1-1.05-.57-1.05s-1.14,1.24-1.42,1.24c-1,0-4.29-2.77-4.86-3.53.38,0,.76-.19,1.15-.19-.58-1.62-2.95-2-2.95-3.24,0-2.29,3.9-4.2,5.42-4.2.67,0,5.61-2,5.61-3,0-.48-1.23-1.52-1.23-1.81.66-.38.57-.38,1,0V83.71a3.48,3.48,0,0,0-1,0c-1.15,0-1.62,1.23-3.14,1.23s-1.91-.76-3.05-.47H2.85c-.09-1.15-1-1.53-1-2.19a3.62,3.62,0,0,1,.29-.77A2.07,2.07,0,0,1,0,80.37C1.81,79.22,4.76,78.18,6.47,77H7.8c0,2.39,1.15,1.72,2.67,1.72a7,7,0,0,0,2,0c-.77-2.48-2.29-2.58-4.38-3.63-.57-.28-1.43-2.57-2.09-3.05-.86-.57-3.81-1.14-3.81-1.71,0,0,1-1.81,1.05-2.1h4a18.41,18.41,0,0,1,9.23-7.15c.95-.29,1.62.19,2.67-.19s1.81-2.1,3-2.1c.95,0,1.33.86,2.29,1.15a4.32,4.32,0,0,0-.67,1,1.87,1.87,0,0,0,1.81-1c.76.28.95.47,1.62.76h3.61A21.84,21.84,0,0,0,33,62.25h5.52c1.43,1.53,5.9,1.82,8.18,1.82,1.24,0,2.1-.48,3.33-.48,2.1,0,2.76.86,4.57,1.52V65Z"/><path class="cls-1" d="M70.75,112.62c-1.09-.3-.64-.7-1.55,0,0-1.9.37-1.9,1.82-1.6-.18,2.1,1.64,2.4,1.64,4.1,0,.6-.18.79-.54.79-.64,0-1.37-1.69-1.37-1.69a4.73,4.73,0,0,1,0-1.6Z"/><path class="cls-1" d="M66.26,108c0,.18.52,0,.69,0-.17,1,.52,2-.17,2.7a3.94,3.94,0,0,1-1-2.88A2.2,2.2,0,0,1,64,105.68a.76.76,0,0,1,.78-.72c1.13,0,.61.63,1.47,0,0,1.89-.34,1.89,0,3.06Z"/><path class="cls-1" d="M133.71,64.75c-.57,0-1,.28-1,.76,0,.66.87.66,1.15.66a1.44,1.44,0,0,0,.67,1c-.57,1.42-2.29,1.33-4.11,1.33-2.77,0-3.83-2.28-5.93-2.28-1.34,0-.76.86-1.91,1.43-1.82.94-3.64.38-5.17,1.51H111c-1.24,0-.48-1.23-1.34-1.89s-3-.38-4-.38c-1.53,0-2.87-1.8-3.35-2.66,1.72-1.32,3.92-1.7,7-1.7a16.89,16.89,0,0,0,2.39-.19,3.48,3.48,0,0,0-1.82-.76H106c-1.53,0-5.55.76-5.55-1.33,0-1.7,2.11-1,2.87-1.61a7.61,7.61,0,0,0-2.49-.09,3.07,3.07,0,0,1-2.2-1.52c0-3.7,6.6-6.35,9.18-6.35,1.06,0,1,2.18,1.25,2.65.57-.38,1-1.42,2.2-1.42a3.13,3.13,0,0,1,3.34,2.27,16,16,0,0,0,2.11-.47,4.43,4.43,0,0,0-.29-1.42h1.53a4.16,4.16,0,0,1,2.39,2.18c.48.85-.09,2.75,1.25,2.75.57,0,.57-.29,1-.57a23.72,23.72,0,0,1-1.72-5.21c0-.67.77-1,1.34-1,1.34,0,.86.67,2,0v-.76c0-.66.95-1.23,2.1-1.23,1.34,0,2.58.57,2.58,1.61s-1.62,1.9-1.62,2.56c0,2.66,2,4.46,2,6.35,0,2.47,6,4.08,7.46,5.22-1.34.95-1.63.57-3,.57Z"/><path class="cls-1" d="M89.39,58.66c-.39,0-1-1.12-1.16-1.49-.57-.75-3.46-.56-3.46-1.49,0-2.51,3.66-4.56,3.66-7.16,0-.65-1.06-1.86-1.16-2.61,1.83-.74,2.69,0,4.42,0,.87,0,1.54-.93,2.89-.56,1.63.47,2.3,1.31,3.94,1.49.67.65,1.54-.18,2.5-.18,1.53,0,5.09,1.48,5.09,3.16,0,.84-3.84,1.39-4.61,1.58C99.29,52.14,96,55.31,96,57c0,.56-5,2.42-5.58,2.42s-.76-.74-1-.74Z"/><path class="cls-1" d="M110.21,45.56c-.86,0-2-.66-2-1.13,0-1.12,1-.93,2-.93-.38-.56-1-.94-1.24-1.69a1.12,1.12,0,0,0-.77.94,27,27,0,0,1-3.06.56,20.25,20.25,0,0,1-2.49-.56,1.15,1.15,0,0,1-1.15-1.12c0-.75.28-.57,0-1.13.76-.09,1.15-.65,1.82-.65,1.43,0,2.2.65,3.25.65a11,11,0,0,1-3.25-.93V38.44a5,5,0,0,1,1.24,0c.29,0,2.59.47,3.26.56-1.34-.28-2.59-.18-3.64-.84a1.78,1.78,0,0,1,1.43-.84c1,0,1.25.28,1.82.28-.86,0-2.1-.1-2.1-1a9.74,9.74,0,0,1,2.39,0,1.19,1.19,0,0,1,1.15,1.12h1.72c2.21,0,3.74,2.81,6.9,2.81,1,0,1.34-.28,1.63-.93a4.67,4.67,0,0,1-1.54-.19c.1-.19.58-.28.77-.28v-1c-.48-.1-1.82-.47-1.82-1.13,0-1.12,1.92-1.78,2.59-2.34a2.6,2.6,0,0,0,1.43.47,3.49,3.49,0,0,0,0,1,3.12,3.12,0,0,0,2.68,2.72c.67,0,1.06-.85,2-.85a1.86,1.86,0,0,1,1.63,1.88c0,1-1.72,3.18-2.39,3.46-.38.09-4.69-.37-4.69-.19a49.73,49.73,0,0,1-4.89,1.31,12.12,12.12,0,0,1-4.69,1.13Z"/><path class="cls-1" d="M99.29,41c-.58,0-1.25-.32-1.25-.8,0-.95,2.69-1.51,3.46-1.43-.19.87-1.25,2.23-2.21,2.23Z"/><path class="cls-1" d="M108.06,35.75c-.26,0-.8-.31-.8-1.15h2.31v1.15Z"/><path class="cls-1" d="M105,32.52a1.35,1.35,0,0,1-1,1.28c.1.78.58.88.58,1.57l-3.06,2.46c-1.24,0-1.15-1.77-1.81-2.17a2.6,2.6,0,0,1-2.49,2.46c-.09.79-.66,1.67-1.52,1.67-.58,0-1-.88-1.24-1.18-.86.49-1.25,0-2,0-.38,0-.67.59-1.24.69-.1-.59-.67-1-.67-1.18a7.21,7.21,0,0,1,1.53-1.47,35.17,35.17,0,0,0,3.53-1.58c1.34-.78,1.72-2.85,3.72-2.85a7.14,7.14,0,0,1,1.34.2s4.3-1.28,4.3.1Z"/><path class="cls-1" d="M113.3,28.26c-.83,0-1-.5-1.76-.5-.56,0-.84.42-1.39.5,0-.83,4.17-2.31,5.1-2.31a3.12,3.12,0,0,1,3,1.65,4,4,0,0,1-1.85.66Z"/><path class="cls-1" d="M116.56,30.56c.1,1.54-2.37,2.31-4,2.31a3,3,0,0,1-2.37-2.11c0-1.73,4.54-1.93,6.11-1.93a1.47,1.47,0,0,1,1.38.77,5.14,5.14,0,0,1-3.25,1Z"/><path class="cls-1" d="M109,30.24c-.35.45-.53.9-1,.9a1.57,1.57,0,0,1-1.33-1.08c0-1.8,1.86,0,2.3.18Z"/><path class="cls-1" d="M144.43,52c0,1.09-.3.4-.3,1.19a7.06,7.06,0,0,1,1.77.39c-.39,4.25-.59,3.06-3.05,4-.59.2-.78,1.18-1.47,1.18-1,0-1.18-.89-1.57-1.38-2.17-2.17-4.43-1.88-6.59-4.15V52c1,0,2.06.89,3.34.89h1.08V50.83c-.88-.2-2.36,0-2.36-1.09,0-.2.49-.39.59-.59,1.18-1.28,2.75-.89,4.43-.89h2.95c.29,0,.78.39.78.69,0,1.58-1.86,2.27-2.36,3,.59-.1,2.76-.79,2.76.1Z"/><path class="cls-1" d="M129.92,37.54a2.31,2.31,0,0,1-.74-1.5H130c2,0,3,3.84,5.25,3.18a6,6,0,0,1-1.38-1.31v-.84c1.47,0,2.11,1.59,3.77,1.59V37.07c-1.1,0-2.12,0-2.39-1,.46-.29.73-.1,1.29-.1,1.1,0,1.75.75,3.13.75.55,0,.83-.65,1.38-.65,1.2,0,1.38.75,1.38,1.87,0,1.69-.83,2.62-.55,4.69a9.58,9.58,0,0,1-2.76.37c-.46,0-2.31.28-2.31-.37a1.06,1.06,0,0,1,.56-.75,1,1,0,0,1,0-.75c0-.66,1.29-.66,1.75-1a1.55,1.55,0,0,0-.92-.29c-1.2,0-3.69.75-5.07.75a.91.91,0,0,1-.83-.93h-1l-.28-.66c-.64.19-1.1-.37-1.66-.75v-1.4l.56.75Z"/><path class="cls-1" d="M145.83,69.78c-1,0-6.27-2.06-6.27-2.35,0-.59,1.23-.29,1.61-.39.86-.3.57-2.45,2-2.45,1,0,4,2.84,4.46,3.92-.76.49-1,1.27-1.8,1.27Z"/><path class="cls-1" d="M158,48.65c0,.2-1.37,1.17-1.37,1.17-1,1.36-1.95,3.11-4.2,3.11-1.57,0-1.57-1.07-2.06.48h1c-.19,1.46-.88,1.65-1.76,2.53h-1.47a12.67,12.67,0,0,1,.1-2.23c-1.17-1.27-.68-2.24-1.17-3.79V48.65h1.66c-.1-.09,0-.58,0-.77a2,2,0,0,1,2.05-1.17c2.55,0,4.6,1,7.24,1a3.5,3.5,0,0,0,0,1Z"/><path class="cls-1" d="M129.18,32.61a.94.94,0,0,1-1,.84c-.75,0-2.43-2-2.43-2.89,1.78,0,2,1.49,3.46,2.05Z"/><path class="cls-1" d="M129.8,41c.11.31.53.47.53.94,0,.71-.75.79-1.17.79-.86,0-1.07-.08-1.71-.08.32-1,1.17-1.34,2.35-1.65Z"/><path class="cls-1" d="M135,28.64c-1.32,0-2.08-.48-3.41-.29-.28-.67-1.23-.28-2.37-.28-.95,0-1.23.09-1.89-.58.66-.77,1.32-.67,2.18-1a.88.88,0,0,1,0-1c-1.61,0-2,.48-2.56,0a.91.91,0,0,0,.47-.68c-1,0-1.13-.28-1.13-1.15a10.28,10.28,0,0,1,2.27-.67c1.52,0,1.8,1.44,2.75,1.44.57,0,.85-.67,1.42-.67,1.42,0,1.32,1.73,2.08,1.73.48,0,.67-.58,1.14-.58.95,0,1.8,1.35,2.08,1.73a2.21,2.21,0,0,1-.57.77c.57.67,2.09,1.25,2.09,2.11s-.76,1-1.33,1c-1.7,0-1.61-1.92-3.22-1.92Z"/><path class="cls-1" d="M132.87,30.56c-1.38,0,.42-1.15.74-1.15,1,0,1.17.39,1.91.58-.42.57-1.38.57-2.65.57Z"/><path class="cls-1" d="M179.74,41.62a1.44,1.44,0,0,0-.76,1,1.89,1.89,0,0,0,1,.1c-.19,2.62-3.51,2.62-6,2.62a1.38,1.38,0,0,1-1.42-1.12c-1,.09-1.14.46-1.8.93H165c-1.52.38-3.7.19-3.61-1.12h-.85a3.75,3.75,0,0,1-2,1.31c-1.61,0-5.12-1.87-5.12-3.37a1.7,1.7,0,0,1,.85-1.22c-1.33-1.32-1.71-2.54-2.94-3.75a2.14,2.14,0,0,1-1.42.75c-.76,0-5.12-2-5.12-2.63C144.75,34,146,34,146.84,34c3.22,0,3.88,2.63,6.25,2.63a1.43,1.43,0,0,0,1.43-.66h1.32c-.57,1.79,2.75,1.32,3.42,2.25h-2.94c.47,2.07,2.27.94,3.22,1.79-.09.09-.47.09-.47.28,0,1.12.85.65,1.14.37a18.19,18.19,0,0,0,5,.94c3.89,0,5.22-1.88,8.91-1.88,2.85,0,4.74.19,5.79,2.07a2.36,2.36,0,0,1-.76.19l.57-.38Z"/><path class="cls-1" d="M146.32,41.59c.79,0,.49-1.8,2.28-1.8,1.29,0,3.07,1.6,3.07,2.6,0,1.39-.4,2.59-1.49,2.59a46.66,46.66,0,0,1-4.85-2.19,1.29,1.29,0,0,1,1-1.2Z"/><path class="cls-1" d="M150.69,30.56c.78,0,.2.1,1,0v1c0,.38-.49.76-1.17.76-.39,0-4.6-.86-4.6-.86.69-.77,3.33-.87,4.79-.87Z"/><path class="cls-1" d="M143.47,29.6c0-.38.45-.67.63-.77-.8-.86-2.23-1.34-2.23-2.88,0-.77.89-1.06,1.6-1.15.18.57,1.61,1.15,2.33,1.15,0,1.83,2.41.19,2.41,1.73a4.55,4.55,0,0,0,0,1.92c-2.41.68-4.74,1-4.74,0Z"/><path class="cls-1" d="M141.87,19.71v1.63h-1.45c-.44-.51-1.44-.71-1.44-1.63a27.5,27.5,0,0,1,2.89,0Z"/><path class="cls-1" d="M161.54,19.55h.85v-.94l-.38-.56h.77c.95,0,.95.37.95,1.22,0,.56.86.65.86,1.12s-.58.75-.58,1.13c0,.65,1.15,0,1.24,0,.77,0,2.58.94,3.53,1,0,.47.19.75,0,1.13s-1.14.28-1.72.37c-1.43.09-2.47,2.35-3.33,2.35s-.95-.66-1.24-1.5a9.32,9.32,0,0,1-.86,1.12,7.81,7.81,0,0,1,1,1.5h-1.24v.94c-.67.09-2-.84-2.67-1.31,0,1.31-.57,1.68-1.72,1.68s-2.76-.28-2.86-1.31a1.63,1.63,0,0,0,1-.56c-1.24,0-3.24-.75-3.24-1.88,0-1.4,4.48-1.22,5.43-1.4a8.33,8.33,0,0,0-3-.66c-1,0-1.33.66-2.19.66-.66,0-.76-.57-.95-1-.76.29-1,.66-1.53.66s-.57-.37-.57-.75c.67-.38,1.24-.38,1.62-1-2.48,0-3.9-.19-4.19-2.35h1.14a4.68,4.68,0,0,0,2.1.75c.29,0,.67-.65.67-.65-1-.28-3.15-.75-3.15-1.6s.95-.75,1.62-.75c1,0,1.43.56,2,.56.38,0,.58-.56.77-.75-.67-.46-1.62,0-2,0s-1-1.12-1-1.21a3,3,0,0,1,2.77-.66h1.23c-.85-.47-2.09-.56-2.19-1.6a16.11,16.11,0,0,1,4.58.85c1.43.56,1.14,2.72,2.28,3.19s1.81-.28,2.86.18.67,1.41,1.34,2.07Z"/><path class="cls-1" d="M165.39,85.73c.38-.28.76-.48.76-1V83.62c0-1.25.28-4.32,2.35-4.61a8.15,8.15,0,0,0,1,2.21,2.38,2.38,0,0,1,.66-.68c1.51,2,3.77,1.25,5.09,3.08.28.58.09,1.06.47,1.44,1.13.87,2.45.48,3,1.44a4.05,4.05,0,0,1-2.35.77h-1.89a31.92,31.92,0,0,0-2.73-1.92c0,1.73-2.35,3.36-3.3,2.88-.28.39-.28.58-.56.58-.94,0-.66-.77-.57-1.54a10.26,10.26,0,0,0-3,0c0-1.25.94-1.15,1-1.54Z"/><path class="cls-1" d="M189.73,72.12c0,1-1.86,1.7-2.75,1.7a1.7,1.7,0,0,1-1.86-1.7c0-2.92,4.61-2.45,4.61,0Z"/><path class="cls-1" d="M173.31,88.92c1.37-.11,1.09-.11,2,.34-.63,1.11-2.36,2.79-3.46,3V91.15c.55-.89,1.46-1.67,1.46-2.23Z"/><path class="cls-1" d="M181.27,52.48c-1.44,0-2.69-.35-2.21-1.58-.57-.35-1.44-.7-1.44-1.49,0-.62.67-1,1.25-1,1.63,0,2.11.53,3.65.53,1.93,0,3.66,1.49,4.9,2.19a1.28,1.28,0,0,1-1.24,1.06c-1,0-1.45-.44-2.22-.44s-1.44.7-2.69.7Z"/><path class="cls-1" d="M181.08,91.89c-.46.59-.69,1.53-1.5,1.53a7.16,7.16,0,0,1-1.38-1c0-1.2,2.07-1.28,2.88-.51Z"/><path class="cls-1" d="M191.23,72c-.46,0-.92-.08-.92-.46,0-.16.83-.62.92-.62.65,0,1.2.77,1.38,1a4.25,4.25,0,0,1-1.38.08Z"/><path class="cls-1" d="M180.93,68.05c-1,0,.88-1.73,1.88-1.73a2.1,2.1,0,0,1-1.88,1.73Z"/><path class="cls-1" d="M214.26,79.65c0,.85-.19,2.17-.95,2.17-3.63,0-3.82-5.09-7.26-5.09-.38,0-1.33.75-1.43.75a1.33,1.33,0,0,0,1.43.19v.94a1.32,1.32,0,0,1-1.05,0v1h1a4.75,4.75,0,0,0,1.52,2.92c1.44.47,1.91-.38,2,.85h1.24v1.51c0,.56,1.34.94,1.34,1.69a14.53,14.53,0,0,1-1,3c-1.34-.09-5.92-1.88-6.78-3h-1.05c1.24,1.61,5.25,3.21,5.25,5.28a.88.88,0,0,1-.67.95c-.38,0-.57-.85-.76-.95-2.1-1-3.44-.56-5.26-1.69s-6.11-1-4.87-3.4c-2.38-1-3.53-2.45-5.63-3.77-.38.57-.76,1.13-1.43,1.13s-.58-.47-1.24-.47c-.86,0-1.34,1.13-2.2,1.13s-3.06-1.13-3.06-2.16c0-.76,1.82-2,2.87-2h3.05a8.21,8.21,0,0,0,3.25-1c-.28-.28-1.24-1-1.24-1.6,0-1.32,1.24-.57,1.81-1.14s2.2-2.35,2.2-3.39c0-1.89-4.68-5.56-6.21-5.56-1,0-1.33.85-2.29.85-.28,0-.57-.76-.57-.85,0-.76,1.24-.95,1.72-1-.67-.66-4.59-4.05-5.35-4.05-1,0-2.1,2.82-3.44,2.82-.86,0-.57-1.22-.57-1.69-2.2-.28-7.74,0-11,0a4,4,0,0,1-2.1-1.51h-3.54c-.38-1.13-1.43-1.23-1.62-2.26.95-.38,2.1.09,3.34.19v-1c-.67-.47-4-.75-4-.75a5.1,5.1,0,0,1-1-2.08c0-2.07.29-2.54,1.43-3.3.58-.47.19-1.79.48-2.16a7.94,7.94,0,0,1,5.83-2.74s2.29.76,2.38.76c-.76,1.6-3.15,1.69-3.15,3.86,0,.47.19.76.57.76a5.82,5.82,0,0,0,0,1.32c0,.66-.09,1.32.77,1.32.38,0,1.43-1,1.43-1.51,0-.76-.76-1.23-.76-2,0-2.93,4.87-3.77,7.73-3.77,1.91,0,3,2.64,3,4.24,0,.28-.38,1.51,0,1.51s.67-.76,1.43-.76,1,.76,1.63.76c1.24,0,1.62-1.89,2.86-1.89,1.44,0,4.49.47,5.45,1.13,1.62,1.23,2.1,3.77,4.48,3.77h1.82c.76,0,2.58.19,2.39,1.51,2,.66,3.05,1.89,5.06,2.08v1.32h1.24c1,0,1.62.75,2,1.79-1,.19-1.91.09-2.49,1a20.42,20.42,0,0,0,2.1.1,1.34,1.34,0,0,1,1.15.75c-1.15.57-1.72.57-2.39,1.7a3.34,3.34,0,0,0,2,.57c.19,1.69,2.1,2.45,3.63,2.64.09,1.32.47,2.64,1.62,2.64,1.53,0,1.91-1,2.48.37a1.83,1.83,0,0,0,1.34.38c1.34,0,1.91.47,1.91,1.7,0,.94-1.24,1.32-2.2,1.32a2.71,2.71,0,0,1,0,.94c0,.19-.19.85-1.53.85Z"/><path class="cls-1" d="M184.54,87.83a1.4,1.4,0,0,1-1.73,0c.71-.75.82-.34,1.73,0Z"/><path class="cls-1" d="M170.7,78.77c1.15-.34,1.15.34,1.73.81-1-.06-1.73-.47-1.73-.81Z"/><path class="cls-1" d="M206.35,5.26a2.17,2.17,0,0,1-1.24.85l5.68-1.8a3.54,3.54,0,0,0,1.33.66c.76.19.76.85,1.23,1.23.85,1,4.64.57,4.64,1.89,0,1-1.33.76-1.8,1.14-2.84,2.27-6.34.94-10.22,2.83.75.76,3.59.19,5.39.29-1.61,1.7-5.68,2.74-8.23,3.68-2.84.95-4.55,4-6.63,5.58-1,.76-2.65-.09-3.79.29-1.51.47-3.31.66-4.45,1.6h2c.1,1.7-.76,1.52-2.08,1.42a3.21,3.21,0,0,1,2.08,1.8c-1.51.75-2,2.55-3.22,3.4h-3.59c.09.57.47.66.47,1.13,0,2.37-3,1-3,3.5h1.8c.28,0,1.13,0,1.13.66,0,1.23-4.16,2.65-5.77,2.65s-.95-1.13-2.37-1.13h-5.39c-.67,0-1,.75-2.09.75a20.2,20.2,0,0,1-6.81-1.51c-.29.38-.57.76-.95.76a.64.64,0,0,1-.66-.66c0-2.94,3.69-1.9,5.21-2.94-.86-.75-2.37-.94-2.37-2.26,0-1,1.13-.76,1.8-.76,2.27,0,3.12,1.23,4.45,2.08h1.32c-1-1-3.22-2-3.22-3.78h-1.13a4.4,4.4,0,0,0-.67.56H164v-.94a4.06,4.06,0,0,1,2.18-2.46c1.79-.57,4,.1,4-2,0-2.46-4.92-2.46-4.92-3.79,0-.75,1.14-.66,1.8-.66-.76,0-.95-.28-1-.85.38-.19.66,0,1,0a10.83,10.83,0,0,1,3.78.19c1.8.57,2.47,2.74,4.45,2.55-.37-.37-2.65-1.89-2.65-2.36,0-.28.38-.57.57-.76h3.5c1.42-.56,2.65-.94,3.51-2.08h-1.14a7.91,7.91,0,0,1-5.3,1.71c-1.42,0-1.8-.57-2.56-.57-.56,0-.85.75-1.42.75-1.42,0-3.31-.56-2.84-1.51H166a2.59,2.59,0,0,1-1.61.76,6.72,6.72,0,0,1-4-1.61,3.81,3.81,0,0,1,2-.85c-1.33,0-2.84-.09-3.41,0,.85-1.89,2.65-1.7,4.45-2.27a3.9,3.9,0,0,0-1.42-.19c-1.42,0-1.51,1.33-2.84,1.33a4.26,4.26,0,0,1-1.32-.57,5.17,5.17,0,0,1,2-1.33h-2.08a6.68,6.68,0,0,0-1.14.57h-1.51c.38-1.89,5-2.74,7.1-2.74h1.61c.28,0,.57-.38.57-.66,2.27,0,1.42-1.61,2.84-1.61s4.16,1.42,4.83,1.61c.66-1.8,1.51-3.4,3.59-3.4,1.23,0,.48.75,1.42-.1a1.73,1.73,0,0,1,1.71-1H187a.9.9,0,0,1,.85-.47c1.24,0,1.61.85,2.75.85,1,0,1.23-1.23,2.27-1.23s1.52.47,2.18.47h2c1.7,0,7.86-.19,9.28,1.33Z"/><path class="cls-1" d="M236.06,69.11c1.05-.57,1.05-.67,2-.19.48-2.29,1.53-3,2.2-5.14-2.2-.77-7.54-1.15-7.83-3.24.76-.29.67,0,1.34,0,1.52,0,2.57,1.14,4.29,1.14.76,0,.67-.66.76-1.14-2.19-.76-2.86-4.38-5.25-4.38-.66,0-.85,1.33-1.81,1.33-1.34,0-2-.19-2-1.33,0-1.62,1.62-1.43,1.62-3.24,0-1.14-1.15-1.14-1.81-1.23V50.54c-2-6.56-7.07-13.13-15.18-13.13h-2.2c-.95,0-1.33,1.05-2.29,1.05-.66,0-1.33-.67-2.19-.67a4.21,4.21,0,0,0-1.43.28,2.29,2.29,0,0,0,.76.67c-.48.48-.38.19-.95.19-1.53,0-3.82-.66-4.68-1.81.67-.47,1.14-.57,1.43-1.23-1.15-.39-2-1.24-2.86-1.24-1.63,0-1.24.47-2.58,0,.19-1,1.62-1.52,2.19-1.52h1.82c.67,0,1-.1,1.24-.58h4.2c.67-.57.67-.85.86-1.71h-2.87c-.09.38-.38.76-.76.76H201.6c-.29,0-7.26-2-7.26-3.23,0-2.38,2.58-1.53,4.11-2.1,1.34-.38,2.1-1.24,3.53-1.71,1.91-.67,4.49.47,6.11-.48a4.76,4.76,0,0,0,2-4.09c-1.33-.1-5.44,0-5.44-1.43,0-.76,1-1.14,1.44-1.14a21,21,0,0,0,7.15-4.19,2.68,2.68,0,0,0,1.91.57c2.48,0,.58-3.42,2.87-3.81,2.86-.28,4-1,6.68-1,2-.57,3.53-1.81,5.44-1.81,1.33,0,1.72,2.28,3.05,2.28,0-.47-.38-.95-.38-1.52l.76-.76c.77,1.43,2,1.33,3.44,1.9h1.05a5.42,5.42,0,0,1-.57-1.62c0-1,1.14-1,1.81-1,3,0,4.77,1.81,6.49,2.66h3.34c-1.24-.57-4.2-1.62-4.2-3,0-1.15,2.29-.76,3-.86-.57-.57-1.14-.67-1.43-1.14a12.92,12.92,0,0,1,6.11-1.53,10.23,10.23,0,0,1,4.49.58h1.43v-1a14.39,14.39,0,0,1,2.86,0c3.53,0,6.3-2.09,10-2.09h10.5c4.2,0,7.45,2.86,10.79,4.38,2,.86,4.48.28,6.3.76-.38,2.67-5.25,2.28-7.26,3.05L275.86,9c1.24,1,13.36-.47,14.6,0-.09.67-3.24,3.81-2.67,3.81,1.81,0,6.11-4.28,8.49-4.28,1.34,0,1.82,1.14,1.82,2.19,0,.76-4.68,5.9-4.87,6.66,1.91-.57,5.54-5.52,6.68-6.47h4.87a7.18,7.18,0,0,0,1.62.19,17.61,17.61,0,0,0,2.67-1.43h3.54c.19-1,.66-1.05,1.43-1.05s4.29,1.72,4.29,2.67S317,13,316.52,13c-2.39.86-3.91,3.05-7.16,3.05.86.47,1,.47,1.53,0,0,2.09-1.91,2.09-3.25,2.47.48,1.05,0,.19,0,1,0,1.24-1.91,1.53-3.24,1.91a4.53,4.53,0,0,1,0,1.14c0,1.52-1.53,2.09-2.87,3.14-.85.67-.85,2.48-1.24,3.24.77.38,1.34,0,2.1,0a5.11,5.11,0,0,1,3,1.42,2.25,2.25,0,0,1-1.33.48c.28,1.24,3.15.86,3.15,2.67s-3.82,1.14-5.06,1.14a1.31,1.31,0,0,0-1.43,1.14C300.68,37,301.92,37,303,37c0,1.71,1,2.19,1,3.23,0,.67-.39,1.24,0,1.72-1.15,0-2.29,0-2.29,1,0,1.33,2,1.24,2.86,1.52-.38,1.24-1.81,1.91-3.25,2.1a1.43,1.43,0,0,0,.77,1.14c-.58,2.19-3.44,1.24-4,2.85a9.76,9.76,0,0,1-2.2-1.71h-1c.77,2,4,1.33,4,3.33,0,1-.28,2.19-1.14,2.19-1.24,0-3.54-2-3.92-3.42a2.89,2.89,0,0,1-.95,0v1.14c2.58,2.66,7.16,4,7.16,8.28,0,.86-1.15.95-1.91.95-3.44,0-2.67-3.81-5.63-3.81-.39,0-.77.19-1.05,0,0,1,.66,1.24.66,1.91s-1.24.85-1.62,1c0,2.28,6.49,2,8,2.47a6.69,6.69,0,0,1-3.15,1.43c-2.39.86-3.05,3-5.15,3.71-2.68.86-4.78.67-7.45,1.91h-3.44c-.66.38-1.43.66-1.43,1.23l-1.81,1.34c-1.34,1.14-1.43,2.66-2.48,3.81-1.53,1.52-3.92,1.14-5.44,2.28H267V77c-1.05.47-.76,1.23-1.43,1.9-1.53,1.62-5.44.86-5.44,3.43,0,.19.19.47.19.76-.19.28-.48.47-.48.86,0,.57.86,1,.86,1.71,0,2.57-3.43,1.81-3.43,4,0,1.33-.1,3.33,0,4.18-1.63.77-.77,4.76-2.77,4.76-.48,0-.67-.38-.86-.76-.86,0-1,.48-1.43.48-1.82,0-1.63-3.43-3.44-3.43-1.05,0-2.19.95-3.05,1-.48-1.81-1.24-1.24-2.39-2.1-.48-.38-.29-1.42-.48-1.52-1.43-1.24-4.2-4.66-4.2-6.85,0-1,.58-.86,1.05-1.43-1.05-1.43-1.43.48-2.67-.19a20.22,20.22,0,0,1-.76-2.57C235.87,79.86,234,79,234,77c0-.76.47-1.15.66-1.91a1.15,1.15,0,0,0-1.43,0V73.39c1.05-1.43,1.43-3,2.87-4.19v-.09Z"/><path class="cls-1" d="M232.72,66.32c-.64,0-1.47-1.93-1.47-2.9a1.56,1.56,0,0,1,1.56-1.71c1.83,0,2.38,2.25,4.21,2.89-.18,1.5-1.65,1.72-2.84,1.72Z"/><path class="cls-1" d="M306.06,42.68a1.19,1.19,0,0,1-1-1c0-.31.59-.63.79-.78h1.38v.78h1.29a6.44,6.44,0,0,1-2.47,1Z"/><path class="cls-1" d="M223.36,136.12c-.38,0-.76-.58-.76-.77s1.32-1.33,1.32-1.43v-.48a.76.76,0,0,1-.56-.38c2-1.05,2.72-4.49,3.85-6.2.57-1,.94-2.29,2.17-2.29.28,0,.47.47.47.76,0,1.72-1.51,2.48-2,3.91v.67c.57-.19.57-.67,1.13-.67a1.65,1.65,0,0,1,1.13.38l-.38.39v.76h1.32v.29l.85-.29a2.53,2.53,0,0,0,2.07,0c0,.67-.1,1.43-.1,2.48a1.84,1.84,0,0,1,.75-.19c0,.67-.65.86-.65,1.15s.47.66.47,1.24c.75,0,.47-.19.94-.48,0,.95.47.86.47,1.62s-.38,1.82-1.13,1.82c-.47,0-.66-.67-.66-1-.19,0-.38-.09-.57-.09-.56,0-.09-1.44-.65-2.1-.57,1-1.23,2.1-2.07,2.1-.19,0-.47.09-.47,0,0-.77.56-.77.75-1.24-.66,0-1.6.47-2-.29a3.91,3.91,0,0,1-1.41.38c-.94,0-1.31-.57-2.16-.57-1,0-1.32.48-2.16.48Z"/><path class="cls-1" d="M637.51,41.16c-.56,0-.93.76-1.78.76-.47,0-.75-.76-1.22-.76-.65,0-.93.57-1.5.57-.37,0-.84.57-1.5.57a1.49,1.49,0,0,1-1.31-.76c-.47.47-.85,1.14-1.6,1.14a3.53,3.53,0,0,1-3.47-3.41,3.18,3.18,0,0,1,3.19-2.94c2.16,0,2.35,2.37,4.22,2.37,0-1.14.38-2,1.22-2,1.32,0,5.44,1.52,6.94,2-.28,1-1.22,1.89-1.22,2.46Z"/><path class="cls-1" d="M143.94,189.92a7,7,0,0,1,.28,1.14c0,1.43-.57,1.91-.76,3.06v4.29c-.1.58.48,1.15.57,1.53.29.67-.09,1.15.19,1.82A12.48,12.48,0,0,0,146,204c1.24,1.34,1.24,2.68,3.15,3.25.67.19.67,1,1.24,1,1.33,0,2.48-1.14,3.91-1.14.86,0,1.14.48,1.43.48.57,0,1-.86,1-1.25.29-.86,1.53-1.81,1.53-3,0-2.19,2.38-3,4.38-3a2.84,2.84,0,0,1,1.43.19,8.06,8.06,0,0,0,1.62.2v.66c0,1-1.24,2.39-1.24,3.82a4.21,4.21,0,0,1-.85,2.58v-.57H163v3.63c0,.76-.85,1-1.24,1.52v.39a.81.81,0,0,0,.86.86c2.39,0,4.29-.48,6.87-.48,1.71,0,2.09,1.34,3.43,1.62v1.15a10.5,10.5,0,0,1-.48,3.34v4.58c0,1.72,1.53,2.39,2.67,3,.76.38.76,1.82,2,1.82,1.91,0,2.86-1.53,4.58-1.53,2,0,2.86,1.53,4,2.48-.09.19-1.62,1.91-1.81,1.82s-.76-.39-.76-.67.29-.38.38-.77c-.76-.38-.95-1.33-1.81-1.33-.48,0-2.48,1.52-2.48,2,0,.29.38.58.57.67-.19.76-.47,1.15-1.05,1.15-1.23,0-1.9-1.44-2.47-2.1-.48-.48-1.72,0-2.2,0-.09,0-.38-.39-.38-.48-1-.29-1-1-1.24-1.62a14,14,0,0,0-2.76-2,.47.47,0,0,0,0,.67h-.76c-1-.77-.29-1.82-.67-3a2.38,2.38,0,0,0-1-1.34c-1.14-1.14-2.38-1.91-2.86-3.72h-.38c-.47,0-.86.38-1.43.38-1.33,0-2-.76-3-1.24-1.43-.67-2.39-.29-3.82-1.05-2.28-1.15-2.57-2.87-4.48-3.92h-.47a2.83,2.83,0,0,0-1.62-.57c-1.24,0-1.53,1.53-2.67,1.53-.58,0-1.24-.57-1.53-.67-.57-.38-1.05-.19-1.62-.19-.86,0-3.34-1.82-4-2.2-.86-.38-1.34.1-2.1-.19-1.05-.28-1.24-1.14-2.29-1.72s-1.43-.28-2.38-.76a2.7,2.7,0,0,1-.77-.48c-.85-1-3.14-1.53-3.33-2.48-.67,0-1-.86-1-1.53,0-.86.67-1.24.67-2.1s-.58-1.24-.67-1.72c-.86-2.77-3.34-5-5-6.68-.67-.67-1.91-1-2.57-1.82-.57-.57-.1-1.33-.48-2.19-.57-1.34-2.86-1.53-2.86-3.34-.67-.1-.57-.2-.76,0-1-1-1.72-1.82-2.48-2.58s-.48-2-1.05-2.68-.57-2.38-1.14-2.67c-1.24-.57-2.39-.57-3.34-1.53a1.76,1.76,0,0,0-.1,1c0,1.62.67,2.58,1.24,3.91.58,1.15,1.53,1.15,2.2,1.91a5.88,5.88,0,0,1,1.52,3.06c.48,1.81,2,2.58,2.48,4.2.57,1.81,1.05,3.82,2.29,4.68.57-.58,1.43.76,1.43,1.33,0,.39-.29,1.15-.48,1.15a4.18,4.18,0,0,1-1.14-1.62c-1.34,0-2-1.82-2.86-2.39-.38-.29-.48-.29-.67-.67v-1.91c-.86-.86-1.43-1.72-2.1-2.48-1-1.05-2.57-.86-3.33-1.91.38,0,2.09.19,1.43-.67a15.16,15.16,0,0,0-3.53-4.1c-.86-.58-.76-2.68-1.24-3.63a20.1,20.1,0,0,1-1.81-3.54v-.57h4.67l7.72,2.67h6v-1h1.43c2.48.76,3.91,1.05,5.05,3.25.67,1.05,1.81,3.62,3.34,3.62,1.33,0,.86-2.1,2.48-2.1,4.29,0,4.19,5.54,6.48,7.93.57.67,2.38,1,3.62,1.14,0-.19-.38-.47-.38-.76h0l.29,1Z"/><path class="cls-1" d="M175.89,120c1.15,0,2.31.25,2.31,1.61,0,.12-.27,0-.36,0a2.5,2.5,0,0,1-2-1,.75.75,0,0,0,0-.62Z"/><path class="cls-1" d="M80.16,127.82a3.32,3.32,0,0,1,1.06-.37c.77,0,1.44.92,1.92,1,3.17,1.1,4.9,2.85,6.82,4.69v.64h-.67c-1.63,0-4.23-1.93-5.38-2.66.09-.46.48-.46.77-.74-1.54,0-3.56-.73-3.85-1.56a1.43,1.43,0,0,0,.77-.74,5.08,5.08,0,0,1-1.15-.27Z"/><path class="cls-1" d="M71.8,119.63c-.29,0-.58-.95-.87-1.32v-.66c.68,0,1,.47,1.64.56,0,.1-.87.85-.39.85s.77-.57,1-.94a8.41,8.41,0,0,1,0,1.6c0,.38.29.57.29.94s-.29.48-.29.76,1.25,1.42.58,1.42-1.06-.85-1.06-1.42.29-.66.29-.85c-.58-.09-.67-.94-1.15-.94Z"/><path class="cls-1" d="M30.14,106.69h1v.9a11.31,11.31,0,0,0-3,2c-.7-.54-1.1-.54-1.6-.9v-.9c1.3-.36,2.3-1.08,3.61-1.08Z"/><path class="cls-1" d="M369.08,160.53v.59c.2.4.78.3,1,.4,1.17.39,2.15,1.67,3.42,2,0,.3.39.3.59.3a.65.65,0,0,0,.49-.49c0-.59-.39-.69-.39-1.28a2.52,2.52,0,0,1,.39-.89l.29-.88c-1.17-.2-1.56.49-2.54.49s-1.76-1-3.23-.2Z"/><path class="cls-1" d="M361.59,149c.69,0,1-.69,1.38-.79,0,.39.11.79.35.89-.24.88-.47,2.65-.7,3.15-.92-.2-1.15-2.47-1.61-3.06.11,0,.46-.19.58-.19Z"/><path class="cls-1" d="M361.64,154.84c0-.58-.63-1-.63-1.54.72-.28.81-1.05,1.44-1.05.45,0,.63.48.81.48a5.59,5.59,0,0,1,.45,3.17,2.51,2.51,0,0,1-1.8,2.11c-.63,0-.63-1-.63-1.63s.36-1,.36-1.54Z"/><path class="cls-1" d="M350.63,156.51c0,.17-.29.35-.43.35s-.73-.62-.73-.62a1.85,1.85,0,0,1,.87-.53c0,.17.29.53.29.8Z"/><path class="cls-1" d="M366,114.12c-1,0-2.08-.19-2.08-.93v-.74h1.73c0,.84.58.74.58,1.48,0,.55-.12.46-.23.83v-.64Z"/><path class="cls-1" d="M366.71,114.84a1.39,1.39,0,0,0,1.12-1.1c-.82-.1-1.63-.8-1.63-1.2s.91-2.39,1.42-2.39c1.63,0,1.63.7,2,2-1.32.4-.71,3.2-2.34,3.2a2.53,2.53,0,0,1-1.12-.4c.1-.2.3-.4.41-.4l.1.3Z"/><path class="cls-1" d="M381.83,105.73c0,.69-.52,1-.95,1.53-.26-.23,0-.46,0-.76a1.61,1.61,0,0,1,1.47-1.54c-.09.23-.52.46-.52.77Z"/><path class="cls-1" d="M389.89,102.65v1c0,.19-.89.77-1.16.77-.62,0-.62-.67-.62-1.15.54-.1.89-.58,1.42-.58-.17-.38-.44-.58-.44-1s.62-.77.62-.77a2.72,2.72,0,0,0,.71.77c-.09.38-.35,1-.53,1Z"/><path class="cls-1" d="M397.34,167.65c-1,.74-1.28.25-1.86.25a5.25,5.25,0,0,1-2.75-.87,8.26,8.26,0,0,1,4.61.62Z"/><path class="cls-1" d="M410.85,168.39c-.18,0-.46-.19-.46-.38-.18,0-.36-.29-.36-.39a16.07,16.07,0,0,1,4-1.53c-.09.77-.45.38-.91.67-.19.1,0,.48-.09.77a3.32,3.32,0,0,1-2.21.86Z"/><path class="cls-1" d="M452.7,220c.11.23.63.35.95.35a2,2,0,0,0,1.36-.58,11.88,11.88,0,0,0-2.31.23Z"/><path class="cls-1" d="M442.64,65.36c.27,0,.45-.77.81-.77.9,0,1.35,1.06,2.33,1.15V66.8c-.89.48-1.7,1.25-2.87,1.25-.81,0-1.16-.1-1.16-.87a4.84,4.84,0,0,1,.89-1.82Z"/><path class="cls-1" d="M466.54,63.55c0,.46-1,.37-1,.37-1,0-2.5-.94-2.5-1.87,0-1.5,3.46,0,3.46,1.5Z"/><path class="cls-1" d="M486.9,50.75a6.6,6.6,0,0,0,2.71-.87c-.7-.57-.87-1.44-1.66-1.44-.61,0-1.05.87-1.05,1.54,0,.19-.17.77,0,.77Z"/><path class="cls-1" d="M631.48,48.73c.8-1.41,1.61-2.59,3.21-2.59a3.24,3.24,0,0,1,3.13,3.46h-2c-1.25-.87-2.76-.65-4.11-1.3l-.26.43Z"/><path class="cls-1" d="M644.16,39.22c.67.57,8.18,1.53,8.47,1.53a.75.75,0,0,1,.76.77c0,.87-2.09,1.16-3.23,1.16-1.91,0-5.33-1-5.33-2.79l-.67-.67Z"/><path class="cls-1" d="M633.21,45.13c0,.6-.7,1-1.27,1-.92,0-1-.31-1-1,0-1.3,2.31-1.1,2.31,0Z"/><path class="cls-1" d="M215.9,132.06a.9.9,0,0,0,.94-.49c-1.37-.9-2.65-2.39-4.62-1.89.77.69,2.65,2.38,3.68,2.38Z"/><path class="cls-1" d="M212.51,137.83a2,2,0,0,0,1.54,1.15h2.21v.45c0,.35-.77.71-.87.71-.48,0-3.17-1.33-3.17-1.78a.53.53,0,0,1,.29-.53Z"/><path class="cls-1" d="M220.87,139.75v.48c0,.58-.89,1.06-1.69,1.06s-1.19-.39-1.19-.87a5,5,0,0,1,1.69-2.59c.2.29.6.48.6.77,0,.67-1.2,1.15.59,1.15Z"/><path class="cls-1" d="M2.09,98.84c.25-.8.42-.57.93-.57.85,0,.85.57,1,1.5H1.92a2.38,2.38,0,0,1-.77-.93Z"/><path class="cls-1" d="M26.53,206.12v.5a3.5,3.5,0,0,1-1.28.41.61.61,0,0,1-.45-.51,5.51,5.51,0,0,0,0-1.22,2.1,2.1,0,0,1,1.73.82Z"/><path class="cls-1" d="M24.22,203.5a.47.47,0,0,1-.17.07c-.23,0-.29-.36-.41-.57.24,0,.47.28.58.5Z"/><path class="cls-1" d="M23.07,202.42c-.25.29-.5.58-.83.58-.16,0-.33-.39-.33-.58Z"/><path class="cls-1" d="M20.39,201.41a.64.64,0,0,1,.37-.14v.36c0,.07-.16.21-.21.21s-.37-.43-.37-.43h.21Z"/><path class="cls-1" d="M17.82,200a2.69,2.69,0,0,0,.06.69h-.26c-.11,0-.32-.35-.32-.58a1.39,1.39,0,0,0,.21-.57c.11.23.21.46.31.46Z"/></g></g></svg>